<?xml version="1.0" encoding="UTF-8" standalone="no"?><svg xmlns="http://www.w3.org/2000/svg" xmlns:xlink="http://www.w3.org/1999/xlink" contentScriptType="application/ecmascript" contentStyleType="text/css" height="309px" preserveAspectRatio="none" style="width:423px;height:309px;" version="1.1" viewBox="0 0 423 309" width="423px" zoomAndPan="magnify"><defs><filter height="300%" id="f1q418nivdajko" width="300%" x="-1" y="-1"><feGaussianBlur result="blurOut" stdDeviation="2.0"/><feColorMatrix in="blurOut" result="blurOut2" type="matrix" values="0 0 0 0 0 0 0 0 0 0 0 0 0 0 0 0 0 0 .4 0"/><feOffset dx="4.0" dy="4.0" in="blurOut2" result="blurOut3"/><feBlend in="SourceGraphic" in2="blurOut3" mode="normal"/></filter></defs><g><text fill="#000000" font-family="sans-serif" font-size="18" lengthAdjust="spacingAndGlyphs" textLength="29" x="188" y="16.708">Api</text><!--MD5=[be3e0801209626b11d7e8a88e82d4cf3]
cluster benchmarkstt.api.jsonrpc--><polygon fill="#FFFFFF" filter="url(#f1q418nivdajko)" points="16,26.9531,231,26.9531,238,49.25,401,49.25,401,297.9531,16,297.9531,16,26.9531" style="stroke: #000000; stroke-width: 1.5;"/><line style="stroke: #000000; stroke-width: 1.5;" x1="16" x2="238" y1="49.25" y2="49.25"/><text fill="#000000" font-family="sans-serif" font-size="14" font-weight="bold" lengthAdjust="spacingAndGlyphs" textLength="209" x="20" y="41.9482">benchmarkstt.api.jsonrpc</text><!--MD5=[a3634c026b9e43f971e19b80aea52223]
class benchmarkstt.api.jsonrpc.DefaultMethods--><rect codeLine="2" fill="#FEFECE" filter="url(#f1q418nivdajko)" height="73.6094" id="benchmarkstt.api.jsonrpc.DefaultMethods" style="stroke: #A80036; stroke-width: 1.5;" width="126" x="32" y="80.9531"/><ellipse cx="47" cy="96.9531" fill="#ADD1B2" rx="11" ry="11" style="stroke: #A80036; stroke-width: 1.0;"/><path d="M49.3438,92.625 C48.4063,92.1875 47.8125,92.0469 46.9375,92.0469 C44.3125,92.0469 42.3125,94.125 42.3125,96.8438 L42.3125,97.9688 C42.3125,100.5469 44.4219,102.4375 47.3125,102.4375 C48.5313,102.4375 49.6875,102.1406 50.4375,101.5938 C51.0156,101.1875 51.3438,100.7344 51.3438,100.3438 C51.3438,99.8906 50.9531,99.5 50.4844,99.5 C50.2656,99.5 50.0625,99.5781 49.875,99.7656 C49.4219,100.25 49.4219,100.25 49.2344,100.3438 C48.8125,100.6094 48.125,100.7344 47.3594,100.7344 C45.3125,100.7344 44.0156,99.6406 44.0156,97.9375 L44.0156,96.8438 C44.0156,95.0625 45.2656,93.75 47,93.75 C47.5781,93.75 48.1875,93.9063 48.6563,94.1563 C49.1406,94.4375 49.3125,94.6563 49.4063,95.0625 C49.4688,95.4688 49.5,95.5938 49.6406,95.7188 C49.7813,95.8594 50.0156,95.9688 50.2344,95.9688 C50.5,95.9688 50.7656,95.8281 50.9375,95.6094 C51.0469,95.4531 51.0781,95.2656 51.0781,94.8438 L51.0781,93.4219 C51.0781,92.9844 51.0625,92.8594 50.9688,92.7031 C50.8125,92.4375 50.5313,92.2969 50.2344,92.2969 C49.9375,92.2969 49.7344,92.3906 49.5156,92.7031 L49.3438,92.625 Z "/><text fill="#000000" font-family="sans-serif" font-size="12" lengthAdjust="spacingAndGlyphs" textLength="94" x="61" y="101.1074">DefaultMethods</text><line style="stroke: #A80036; stroke-width: 1.5;" x1="33" x2="157" y1="112.9531" y2="112.9531"/><line style="stroke: #A80036; stroke-width: 1.5;" x1="33" x2="157" y1="120.9531" y2="120.9531"/><ellipse cx="43" cy="131.9531" fill="#84BE84" rx="3" ry="3" style="stroke: #038048; stroke-width: 1.0;"/><text fill="#000000" font-family="sans-serif" font-size="11" lengthAdjust="spacingAndGlyphs" textLength="83" x="52" y="135.1636">help(methods)</text><ellipse cx="43" cy="144.7578" fill="#84BE84" rx="3" ry="3" style="stroke: #038048; stroke-width: 1.0;"/><text fill="#000000" font-family="sans-serif" font-size="11" lengthAdjust="spacingAndGlyphs" textLength="50" x="52" y="147.9683">version()</text><!--MD5=[c8bb7040efe1fd7c5e6494e44dd85687]
class benchmarkstt.api.jsonrpc.MagicMethods--><rect codeLine="6" fill="#FEFECE" filter="url(#f1q418nivdajko)" height="112.0234" id="benchmarkstt.api.jsonrpc.MagicMethods" style="stroke: #A80036; stroke-width: 1.5;" width="191" x="193.5" y="61.9531"/><ellipse cx="241.25" cy="77.9531" fill="#ADD1B2" rx="11" ry="11" style="stroke: #A80036; stroke-width: 1.0;"/><path d="M243.5938,73.625 C242.6563,73.1875 242.0625,73.0469 241.1875,73.0469 C238.5625,73.0469 236.5625,75.125 236.5625,77.8438 L236.5625,78.9688 C236.5625,81.5469 238.6719,83.4375 241.5625,83.4375 C242.7813,83.4375 243.9375,83.1406 244.6875,82.5938 C245.2656,82.1875 245.5938,81.7344 245.5938,81.3438 C245.5938,80.8906 245.2031,80.5 244.7344,80.5 C244.5156,80.5 244.3125,80.5781 244.125,80.7656 C243.6719,81.25 243.6719,81.25 243.4844,81.3438 C243.0625,81.6094 242.375,81.7344 241.6094,81.7344 C239.5625,81.7344 238.2656,80.6406 238.2656,78.9375 L238.2656,77.8438 C238.2656,76.0625 239.5156,74.75 241.25,74.75 C241.8281,74.75 242.4375,74.9063 242.9063,75.1563 C243.3906,75.4375 243.5625,75.6563 243.6563,76.0625 C243.7188,76.4688 243.75,76.5938 243.8906,76.7188 C244.0313,76.8594 244.2656,76.9688 244.4844,76.9688 C244.75,76.9688 245.0156,76.8281 245.1875,76.6094 C245.2969,76.4531 245.3281,76.2656 245.3281,75.8438 L245.3281,74.4219 C245.3281,73.9844 245.3125,73.8594 245.2188,73.7031 C245.0625,73.4375 244.7813,73.2969 244.4844,73.2969 C244.1875,73.2969 243.9844,73.3906 243.7656,73.7031 L243.5938,73.625 Z "/><text fill="#000000" font-family="sans-serif" font-size="12" lengthAdjust="spacingAndGlyphs" textLength="87" x="261.75" y="82.1074">MagicMethods</text><line style="stroke: #A80036; stroke-width: 1.5;" x1="194.5" x2="383.5" y1="93.9531" y2="93.9531"/><line style="stroke: #A80036; stroke-width: 1.5;" x1="194.5" x2="383.5" y1="101.9531" y2="101.9531"/><ellipse cx="204.5" cy="112.9531" fill="#84BE84" rx="3" ry="3" style="stroke: #038048; stroke-width: 1.0;"/><text fill="#000000" font-family="sans-serif" font-size="11" lengthAdjust="spacingAndGlyphs" textLength="70" x="213.5" y="116.1636">__init__(self)</text><ellipse cx="204.5" cy="125.7578" fill="#84BE84" rx="3" ry="3" style="stroke: #038048; stroke-width: 1.0;"/><text fill="#000000" font-family="sans-serif" font-size="11" lengthAdjust="spacingAndGlyphs" textLength="104" x="213.5" y="128.9683">is_safe_path(path)</text><ellipse cx="204.5" cy="138.5625" fill="#84BE84" rx="3" ry="3" style="stroke: #038048; stroke-width: 1.0;"/><text fill="#000000" font-family="sans-serif" font-size="11" lengthAdjust="spacingAndGlyphs" textLength="143" x="213.5" y="141.7729">load(self, name, module)</text><ellipse cx="204.5" cy="151.3672" fill="#84BE84" rx="3" ry="3" style="stroke: #038048; stroke-width: 1.0;"/><text fill="#000000" font-family="sans-serif" font-size="11" lengthAdjust="spacingAndGlyphs" textLength="165" x="213.5" y="154.5776">register(self, name, callback)</text><ellipse cx="204.5" cy="164.1719" fill="#84BE84" rx="3" ry="3" style="stroke: #038048; stroke-width: 1.0;"/><text fill="#000000" font-family="sans-serif" font-size="11" lengthAdjust="spacingAndGlyphs" textLength="155" x="213.5" y="167.3823">serve(self, config, callback)</text><!--MD5=[6470523c0351eec356b65f21af912d4f]
class benchmarkstt.api.jsonrpc.SecurityError--><rect codeLine="13" fill="#FEFECE" filter="url(#f1q418nivdajko)" height="48" id="benchmarkstt.api.jsonrpc.SecurityError" style="stroke: #A80036; stroke-width: 1.5;" width="111" x="39.5" y="233.9531"/><ellipse cx="54.5" cy="249.9531" fill="#ADD1B2" rx="11" ry="11" style="stroke: #A80036; stroke-width: 1.0;"/><path d="M56.8438,245.625 C55.9063,245.1875 55.3125,245.0469 54.4375,245.0469 C51.8125,245.0469 49.8125,247.125 49.8125,249.8438 L49.8125,250.9688 C49.8125,253.5469 51.9219,255.4375 54.8125,255.4375 C56.0313,255.4375 57.1875,255.1406 57.9375,254.5938 C58.5156,254.1875 58.8438,253.7344 58.8438,253.3438 C58.8438,252.8906 58.4531,252.5 57.9844,252.5 C57.7656,252.5 57.5625,252.5781 57.375,252.7656 C56.9219,253.25 56.9219,253.25 56.7344,253.3438 C56.3125,253.6094 55.625,253.7344 54.8594,253.7344 C52.8125,253.7344 51.5156,252.6406 51.5156,250.9375 L51.5156,249.8438 C51.5156,248.0625 52.7656,246.75 54.5,246.75 C55.0781,246.75 55.6875,246.9063 56.1563,247.1563 C56.6406,247.4375 56.8125,247.6563 56.9063,248.0625 C56.9688,248.4688 57,248.5938 57.1406,248.7188 C57.2813,248.8594 57.5156,248.9688 57.7344,248.9688 C58,248.9688 58.2656,248.8281 58.4375,248.6094 C58.5469,248.4531 58.5781,248.2656 58.5781,247.8438 L58.5781,246.4219 C58.5781,245.9844 58.5625,245.8594 58.4688,245.7031 C58.3125,245.4375 58.0313,245.2969 57.7344,245.2969 C57.4375,245.2969 57.2344,245.3906 57.0156,245.7031 L56.8438,245.625 Z "/><text fill="#000000" font-family="sans-serif" font-size="12" lengthAdjust="spacingAndGlyphs" textLength="79" x="68.5" y="254.1074">SecurityError</text><line style="stroke: #A80036; stroke-width: 1.5;" x1="40.5" x2="149.5" y1="265.9531" y2="265.9531"/><line style="stroke: #A80036; stroke-width: 1.5;" x1="40.5" x2="149.5" y1="273.9531" y2="273.9531"/><!--MD5=[38210c2b313ae7f3f7264e3dc5bb59b6]
link benchmarkstt.api.jsonrpc.DefaultMethods to benchmarkstt.api.jsonrpc.MagicMethods--><!--MD5=[538cb41533b0550692009be83806011f]
link benchmarkstt.api.jsonrpc.DefaultMethods to benchmarkstt.api.jsonrpc.SecurityError--><!--MD5=[9359383d3aa52aff99699eb4d39a5256]
@startuml
title Api
		class benchmarkstt.api.jsonrpc.DefaultMethods {
			+help(methods)
			+version()
		}
		class benchmarkstt.api.jsonrpc.MagicMethods {
			+__init__(self)
			+is_safe_path(path)
			+load(self, name, module)
			+register(self, name, callback)
			+serve(self, config, callback)
		}
		class benchmarkstt.api.jsonrpc.SecurityError {
		}
@enduml

PlantUML version 1.2020.16beta7(Unknown compile time)
(GPL source distribution)
Java Runtime: Java(TM) SE Runtime Environment
JVM: Java HotSpot(TM) 64-Bit Server VM
Default Encoding: UTF-8
Language: en
Country: US
--></g></svg>