<?xml version="1.0" encoding="UTF-8" standalone="no"?><svg xmlns="http://www.w3.org/2000/svg" xmlns:xlink="http://www.w3.org/1999/xlink" contentScriptType="application/ecmascript" contentStyleType="text/css" height="2260px" preserveAspectRatio="none" style="width:1487px;height:2260px;" version="1.1" viewBox="0 0 1487 2260" width="1487px" zoomAndPan="magnify"><defs><filter height="300%" id="faizu7ic906s7" width="300%" x="-1" y="-1"><feGaussianBlur result="blurOut" stdDeviation="2.0"/><feColorMatrix in="blurOut" result="blurOut2" type="matrix" values="0 0 0 0 0 0 0 0 0 0 0 0 0 0 0 0 0 0 .4 0"/><feOffset dx="4.0" dy="4.0" in="blurOut2" result="blurOut3"/><feBlend in="SourceGraphic" in2="blurOut3" mode="normal"/></filter></defs><g><!--MD5=[32fbec9dac052c23fb29020cf729fbb3]
cluster benchmarkstt.normalization.core--><polygon fill="#FFFFFF" filter="url(#faizu7ic906s7)" points="123,1488,402,1488,409,1510.2969,461,1510.2969,461,1843,123,1843,123,1488" style="stroke: #000000; stroke-width: 1.5;"/><line style="stroke: #000000; stroke-width: 1.5;" x1="123" x2="409" y1="1510.2969" y2="1510.2969"/><text fill="#000000" font-family="sans-serif" font-size="14" font-weight="bold" lengthAdjust="spacingAndGlyphs" textLength="273" x="127" y="1502.9951">benchmarkstt.normalization.core</text><!--MD5=[5c7a64d73ca244446f0e70026cf5d0bf]
cluster benchmarkstt.input.core--><polygon fill="#FFFFFF" filter="url(#faizu7ic906s7)" points="105,1230,313,1230,320,1252.2969,479,1252.2969,479,1464,105,1464,105,1230" style="stroke: #000000; stroke-width: 1.5;"/><line style="stroke: #000000; stroke-width: 1.5;" x1="105" x2="320" y1="1252.2969" y2="1252.2969"/><text fill="#000000" font-family="sans-serif" font-size="14" font-weight="bold" lengthAdjust="spacingAndGlyphs" textLength="202" x="109" y="1244.9951">benchmarkstt.input.core</text><!--MD5=[22ea792f0a86ed46e658ff5419811104]
cluster benchmarkstt.metrics--><polygon fill="#FFFFFF" filter="url(#faizu7ic906s7)" points="596,978,783,978,790,1000.2969,1148,1000.2969,1148,1091,596,1091,596,978" style="stroke: #000000; stroke-width: 1.5;"/><line style="stroke: #000000; stroke-width: 1.5;" x1="596" x2="790" y1="1000.2969" y2="1000.2969"/><text fill="#000000" font-family="sans-serif" font-size="14" font-weight="bold" lengthAdjust="spacingAndGlyphs" textLength="181" x="600" y="992.9951">benchmarkstt.metrics</text><!--MD5=[144dc3a7777fd2b902a939eb9db82fdd]
cluster benchmarkstt.metrics.core--><polygon fill="#FFFFFF" filter="url(#faizu7ic906s7)" points="16,863,243,863,250,885.2969,568,885.2969,568,1206,16,1206,16,863" style="stroke: #000000; stroke-width: 1.5;"/><line style="stroke: #000000; stroke-width: 1.5;" x1="16" x2="250" y1="885.2969" y2="885.2969"/><text fill="#000000" font-family="sans-serif" font-size="14" font-weight="bold" lengthAdjust="spacingAndGlyphs" textLength="221" x="20" y="877.9951">benchmarkstt.metrics.core</text><!--MD5=[09ed425bc4f616bbad3d6f8b00541a65]
cluster benchmarkstt.diff.core--><polygon fill="#FFFFFF" filter="url(#faizu7ic906s7)" points="145.5,598,339.5,598,346.5,620.2969,438.5,620.2969,438.5,839,145.5,839,145.5,598" style="stroke: #000000; stroke-width: 1.5;"/><line style="stroke: #000000; stroke-width: 1.5;" x1="145.5" x2="346.5" y1="620.2969" y2="620.2969"/><text fill="#000000" font-family="sans-serif" font-size="14" font-weight="bold" lengthAdjust="spacingAndGlyphs" textLength="188" x="149.5" y="612.9951">benchmarkstt.diff.core</text><!--MD5=[24f62e7049ba18d46b504c61d91c5470]
cluster benchmarkstt.normalization--><polygon fill="#FFFFFF" filter="url(#faizu7ic906s7)" points="97,1867,336,1867,343,1889.2969,956,1889.2969,956,2248,97,2248,97,1867" style="stroke: #000000; stroke-width: 1.5;"/><line style="stroke: #000000; stroke-width: 1.5;" x1="97" x2="343" y1="1889.2969" y2="1889.2969"/><text fill="#000000" font-family="sans-serif" font-size="14" font-weight="bold" lengthAdjust="spacingAndGlyphs" textLength="233" x="101" y="1881.9951">benchmarkstt.normalization</text><!--MD5=[94de2ef9dde389aecb44d7f232eba8a2]
cluster benchmarkstt.input--><polygon fill="#FFFFFF" filter="url(#faizu7ic906s7)" points="783,1291,951,1291,958,1313.2969,961,1313.2969,961,1404,783,1404,783,1291" style="stroke: #000000; stroke-width: 1.5;"/><line style="stroke: #000000; stroke-width: 1.5;" x1="783" x2="958" y1="1313.2969" y2="1313.2969"/><text fill="#000000" font-family="sans-serif" font-size="14" font-weight="bold" lengthAdjust="spacingAndGlyphs" textLength="162" x="787" y="1305.9951">benchmarkstt.input</text><!--MD5=[65eb5fcee437765d99707c9196661bb6]
cluster benchmarkstt.segmentation--><polygon fill="#FFFFFF" filter="url(#faizu7ic906s7)" points="748,455,986,455,993,477.2969,996,477.2969,996,568,748,568,748,455" style="stroke: #000000; stroke-width: 1.5;"/><line style="stroke: #000000; stroke-width: 1.5;" x1="748" x2="993" y1="477.2969" y2="477.2969"/><text fill="#000000" font-family="sans-serif" font-size="14" font-weight="bold" lengthAdjust="spacingAndGlyphs" textLength="232" x="752" y="469.9951">benchmarkstt.segmentation</text><!--MD5=[bbd7f55af96c8522598147a787b5c5b9]
cluster benchmarkstt.segmentation.core--><polygon fill="#FFFFFF" filter="url(#faizu7ic906s7)" points="94.5,449,372.5,449,379.5,471.2969,489.5,471.2969,489.5,574,94.5,574,94.5,449" style="stroke: #000000; stroke-width: 1.5;"/><line style="stroke: #000000; stroke-width: 1.5;" x1="94.5" x2="379.5" y1="471.2969" y2="471.2969"/><text fill="#000000" font-family="sans-serif" font-size="14" font-weight="bold" lengthAdjust="spacingAndGlyphs" textLength="272" x="98.5" y="463.9951">benchmarkstt.segmentation.core</text><!--MD5=[c2f5f1914e6a0fca7cbdb2b44310c20b]
cluster benchmarkstt.output--><polygon fill="#FFFFFF" filter="url(#faizu7ic906s7)" points="1176,207,1357,207,1364,229.2969,1465,229.2969,1465,344,1176,344,1176,207" style="stroke: #000000; stroke-width: 1.5;"/><line style="stroke: #000000; stroke-width: 1.5;" x1="1176" x2="1364" y1="229.2969" y2="229.2969"/><text fill="#000000" font-family="sans-serif" font-size="14" font-weight="bold" lengthAdjust="spacingAndGlyphs" textLength="175" x="1180" y="221.9951">benchmarkstt.output</text><!--MD5=[847d3ee6f8e67faab7de214c96ed8267]
cluster benchmarkstt.output.core--><polygon fill="#FFFFFF" filter="url(#faizu7ic906s7)" points="147.5,6,368.5,6,375.5,28.2969,1016.5,28.2969,1016.5,425,147.5,425,147.5,6" style="stroke: #000000; stroke-width: 1.5;"/><line style="stroke: #000000; stroke-width: 1.5;" x1="147.5" x2="375.5" y1="28.2969" y2="28.2969"/><text fill="#000000" font-family="sans-serif" font-size="14" font-weight="bold" lengthAdjust="spacingAndGlyphs" textLength="215" x="151.5" y="20.9951">benchmarkstt.output.core</text><!--MD5=[b21609c0e4e09564ea14466d1d899cfe]
cluster benchmarkstt.diff--><polygon fill="#FFFFFF" filter="url(#faizu7ic906s7)" points="779,656,933,656,940,678.2969,965,678.2969,965,781,779,781,779,656" style="stroke: #000000; stroke-width: 1.5;"/><line style="stroke: #000000; stroke-width: 1.5;" x1="779" x2="940" y1="678.2969" y2="678.2969"/><text fill="#000000" font-family="sans-serif" font-size="14" font-weight="bold" lengthAdjust="spacingAndGlyphs" textLength="148" x="783" y="670.9951">benchmarkstt.diff</text><!--MD5=[ba2ead4b28f3a03c2b9b4db307c82486]
class benchmarkstt.normalization.core.Config--><rect codeLine="3" fill="#FEFECE" filter="url(#faizu7ic906s7)" height="86.4141" id="benchmarkstt.normalization.core.Config" style="stroke: #A80036; stroke-width: 1.5;" width="306" x="139" y="1523"/><ellipse cx="268.75" cy="1539" fill="#ADD1B2" rx="11" ry="11" style="stroke: #A80036; stroke-width: 1.0;"/><path d="M271.0938,1534.6719 C270.1563,1534.2344 269.5625,1534.0938 268.6875,1534.0938 C266.0625,1534.0938 264.0625,1536.1719 264.0625,1538.8906 L264.0625,1540.0156 C264.0625,1542.5938 266.1719,1544.4844 269.0625,1544.4844 C270.2813,1544.4844 271.4375,1544.1875 272.1875,1543.6406 C272.7656,1543.2344 273.0938,1542.7813 273.0938,1542.3906 C273.0938,1541.9375 272.7031,1541.5469 272.2344,1541.5469 C272.0156,1541.5469 271.8125,1541.625 271.625,1541.8125 C271.1719,1542.2969 271.1719,1542.2969 270.9844,1542.3906 C270.5625,1542.6563 269.875,1542.7813 269.1094,1542.7813 C267.0625,1542.7813 265.7656,1541.6875 265.7656,1539.9844 L265.7656,1538.8906 C265.7656,1537.1094 267.0156,1535.7969 268.75,1535.7969 C269.3281,1535.7969 269.9375,1535.9531 270.4063,1536.2031 C270.8906,1536.4844 271.0625,1536.7031 271.1563,1537.1094 C271.2188,1537.5156 271.25,1537.6406 271.3906,1537.7656 C271.5313,1537.9063 271.7656,1538.0156 271.9844,1538.0156 C272.25,1538.0156 272.5156,1537.875 272.6875,1537.6563 C272.7969,1537.5 272.8281,1537.3125 272.8281,1536.8906 L272.8281,1535.4688 C272.8281,1535.0313 272.8125,1534.9063 272.7188,1534.75 C272.5625,1534.4844 272.2813,1534.3438 271.9844,1534.3438 C271.6875,1534.3438 271.4844,1534.4375 271.2656,1534.75 L271.0938,1534.6719 Z "/><text fill="#000000" font-family="sans-serif" font-size="12" lengthAdjust="spacingAndGlyphs" textLength="38" x="289.25" y="1543.1543">Config</text><line style="stroke: #A80036; stroke-width: 1.5;" x1="140" x2="444" y1="1555" y2="1555"/><line style="stroke: #A80036; stroke-width: 1.5;" x1="140" x2="444" y1="1563" y2="1563"/><ellipse cx="150" cy="1574" fill="#84BE84" rx="3" ry="3" style="stroke: #038048; stroke-width: 1.0;"/><text fill="#000000" font-family="sans-serif" font-size="11" lengthAdjust="spacingAndGlyphs" textLength="280" x="159" y="1577.2104">__init__(self, file, section=None, encoding=None)</text><ellipse cx="150" cy="1586.8047" fill="#84BE84" rx="3" ry="3" style="stroke: #038048; stroke-width: 1.0;"/><text fill="#000000" font-family="sans-serif" font-size="11" lengthAdjust="spacingAndGlyphs" textLength="76" x="159" y="1590.0151">__repr__(self)</text><ellipse cx="150" cy="1599.6094" fill="#84BE84" rx="3" ry="3" style="stroke: #038048; stroke-width: 1.0;"/><text fill="#000000" font-family="sans-serif" font-size="11" lengthAdjust="spacingAndGlyphs" textLength="110" x="159" y="1602.8198">normalize(cls, text)</text><!--MD5=[3386d7986a9642d77be9dbce485d3f6c]
class benchmarkstt.normalization.core.Lowercase--><rect codeLine="92" fill="#FEFECE" filter="url(#faizu7ic906s7)" height="73.6094" id="benchmarkstt.normalization.core.Lowercase" style="stroke: #A80036; stroke-width: 1.5;" width="136" x="224" y="1644"/><ellipse cx="256.1" cy="1660" fill="#ADD1B2" rx="11" ry="11" style="stroke: #A80036; stroke-width: 1.0;"/><path d="M258.4438,1655.6719 C257.5063,1655.2344 256.9125,1655.0938 256.0375,1655.0938 C253.4125,1655.0938 251.4125,1657.1719 251.4125,1659.8906 L251.4125,1661.0156 C251.4125,1663.5938 253.5219,1665.4844 256.4125,1665.4844 C257.6313,1665.4844 258.7875,1665.1875 259.5375,1664.6406 C260.1156,1664.2344 260.4438,1663.7813 260.4438,1663.3906 C260.4438,1662.9375 260.0531,1662.5469 259.5844,1662.5469 C259.3656,1662.5469 259.1625,1662.625 258.975,1662.8125 C258.5219,1663.2969 258.5219,1663.2969 258.3344,1663.3906 C257.9125,1663.6563 257.225,1663.7813 256.4594,1663.7813 C254.4125,1663.7813 253.1156,1662.6875 253.1156,1660.9844 L253.1156,1659.8906 C253.1156,1658.1094 254.3656,1656.7969 256.1,1656.7969 C256.6781,1656.7969 257.2875,1656.9531 257.7563,1657.2031 C258.2406,1657.4844 258.4125,1657.7031 258.5063,1658.1094 C258.5688,1658.5156 258.6,1658.6406 258.7406,1658.7656 C258.8813,1658.9063 259.1156,1659.0156 259.3344,1659.0156 C259.6,1659.0156 259.8656,1658.875 260.0375,1658.6563 C260.1469,1658.5 260.1781,1658.3125 260.1781,1657.8906 L260.1781,1656.4688 C260.1781,1656.0313 260.1625,1655.9063 260.0688,1655.75 C259.9125,1655.4844 259.6313,1655.3438 259.3344,1655.3438 C259.0375,1655.3438 258.8344,1655.4375 258.6156,1655.75 L258.4438,1655.6719 Z "/><text fill="#000000" font-family="sans-serif" font-size="12" lengthAdjust="spacingAndGlyphs" textLength="66" x="273.9" y="1664.1543">Lowercase</text><line style="stroke: #A80036; stroke-width: 1.5;" x1="225" x2="359" y1="1676" y2="1676"/><line style="stroke: #A80036; stroke-width: 1.5;" x1="225" x2="359" y1="1684" y2="1684"/><ellipse cx="235" cy="1695" fill="#84BE84" rx="3" ry="3" style="stroke: #038048; stroke-width: 1.0;"/><text fill="#000000" font-family="sans-serif" font-size="11" lengthAdjust="spacingAndGlyphs" textLength="76" x="244" y="1698.2104">__repr__(self)</text><ellipse cx="235" cy="1707.8047" fill="#84BE84" rx="3" ry="3" style="stroke: #038048; stroke-width: 1.0;"/><text fill="#000000" font-family="sans-serif" font-size="11" lengthAdjust="spacingAndGlyphs" textLength="110" x="244" y="1711.0151">normalize(cls, text)</text><!--MD5=[361c1c4989d33e751f8f1a8124b4d3c8]
class benchmarkstt.normalization.core.Unidecode--><rect codeLine="99" fill="#FEFECE" filter="url(#faizu7ic906s7)" height="73.6094" id="benchmarkstt.normalization.core.Unidecode" style="stroke: #A80036; stroke-width: 1.5;" width="136" x="224" y="1753"/><ellipse cx="256.1" cy="1769" fill="#ADD1B2" rx="11" ry="11" style="stroke: #A80036; stroke-width: 1.0;"/><path d="M258.4438,1764.6719 C257.5063,1764.2344 256.9125,1764.0938 256.0375,1764.0938 C253.4125,1764.0938 251.4125,1766.1719 251.4125,1768.8906 L251.4125,1770.0156 C251.4125,1772.5938 253.5219,1774.4844 256.4125,1774.4844 C257.6313,1774.4844 258.7875,1774.1875 259.5375,1773.6406 C260.1156,1773.2344 260.4438,1772.7813 260.4438,1772.3906 C260.4438,1771.9375 260.0531,1771.5469 259.5844,1771.5469 C259.3656,1771.5469 259.1625,1771.625 258.975,1771.8125 C258.5219,1772.2969 258.5219,1772.2969 258.3344,1772.3906 C257.9125,1772.6563 257.225,1772.7813 256.4594,1772.7813 C254.4125,1772.7813 253.1156,1771.6875 253.1156,1769.9844 L253.1156,1768.8906 C253.1156,1767.1094 254.3656,1765.7969 256.1,1765.7969 C256.6781,1765.7969 257.2875,1765.9531 257.7563,1766.2031 C258.2406,1766.4844 258.4125,1766.7031 258.5063,1767.1094 C258.5688,1767.5156 258.6,1767.6406 258.7406,1767.7656 C258.8813,1767.9063 259.1156,1768.0156 259.3344,1768.0156 C259.6,1768.0156 259.8656,1767.875 260.0375,1767.6563 C260.1469,1767.5 260.1781,1767.3125 260.1781,1766.8906 L260.1781,1765.4688 C260.1781,1765.0313 260.1625,1764.9063 260.0688,1764.75 C259.9125,1764.4844 259.6313,1764.3438 259.3344,1764.3438 C259.0375,1764.3438 258.8344,1764.4375 258.6156,1764.75 L258.4438,1764.6719 Z "/><text fill="#000000" font-family="sans-serif" font-size="12" lengthAdjust="spacingAndGlyphs" textLength="66" x="273.9" y="1773.1543">Unidecode</text><line style="stroke: #A80036; stroke-width: 1.5;" x1="225" x2="359" y1="1785" y2="1785"/><line style="stroke: #A80036; stroke-width: 1.5;" x1="225" x2="359" y1="1793" y2="1793"/><ellipse cx="235" cy="1804" fill="#84BE84" rx="3" ry="3" style="stroke: #038048; stroke-width: 1.0;"/><text fill="#000000" font-family="sans-serif" font-size="11" lengthAdjust="spacingAndGlyphs" textLength="76" x="244" y="1807.2104">__repr__(self)</text><ellipse cx="235" cy="1816.8047" fill="#84BE84" rx="3" ry="3" style="stroke: #038048; stroke-width: 1.0;"/><text fill="#000000" font-family="sans-serif" font-size="11" lengthAdjust="spacingAndGlyphs" textLength="110" x="244" y="1820.0151">normalize(cls, text)</text><!--MD5=[3edd34d35203ceb4dd4fa63a3b0c665d]
class benchmarkstt.input.core.PlainText--><rect codeLine="11" fill="#FEFECE" filter="url(#faizu7ic906s7)" height="73.6094" id="benchmarkstt.input.core.PlainText" style="stroke: #A80036; stroke-width: 1.5;" width="342" x="121" y="1265"/><ellipse cx="261.75" cy="1281" fill="#ADD1B2" rx="11" ry="11" style="stroke: #A80036; stroke-width: 1.0;"/><path d="M264.0938,1276.6719 C263.1563,1276.2344 262.5625,1276.0938 261.6875,1276.0938 C259.0625,1276.0938 257.0625,1278.1719 257.0625,1280.8906 L257.0625,1282.0156 C257.0625,1284.5938 259.1719,1286.4844 262.0625,1286.4844 C263.2813,1286.4844 264.4375,1286.1875 265.1875,1285.6406 C265.7656,1285.2344 266.0938,1284.7813 266.0938,1284.3906 C266.0938,1283.9375 265.7031,1283.5469 265.2344,1283.5469 C265.0156,1283.5469 264.8125,1283.625 264.625,1283.8125 C264.1719,1284.2969 264.1719,1284.2969 263.9844,1284.3906 C263.5625,1284.6563 262.875,1284.7813 262.1094,1284.7813 C260.0625,1284.7813 258.7656,1283.6875 258.7656,1281.9844 L258.7656,1280.8906 C258.7656,1279.1094 260.0156,1277.7969 261.75,1277.7969 C262.3281,1277.7969 262.9375,1277.9531 263.4063,1278.2031 C263.8906,1278.4844 264.0625,1278.7031 264.1563,1279.1094 C264.2188,1279.5156 264.25,1279.6406 264.3906,1279.7656 C264.5313,1279.9063 264.7656,1280.0156 264.9844,1280.0156 C265.25,1280.0156 265.5156,1279.875 265.6875,1279.6563 C265.7969,1279.5 265.8281,1279.3125 265.8281,1278.8906 L265.8281,1277.4688 C265.8281,1277.0313 265.8125,1276.9063 265.7188,1276.75 C265.5625,1276.4844 265.2813,1276.3438 264.9844,1276.3438 C264.6875,1276.3438 264.4844,1276.4375 264.2656,1276.75 L264.0938,1276.6719 Z "/><text fill="#000000" font-family="sans-serif" font-size="12" lengthAdjust="spacingAndGlyphs" textLength="52" x="282.25" y="1285.1543">PlainText</text><line style="stroke: #A80036; stroke-width: 1.5;" x1="122" x2="462" y1="1297" y2="1297"/><line style="stroke: #A80036; stroke-width: 1.5;" x1="122" x2="462" y1="1305" y2="1305"/><ellipse cx="132" cy="1316" fill="#84BE84" rx="3" ry="3" style="stroke: #038048; stroke-width: 1.0;"/><text fill="#000000" font-family="sans-serif" font-size="11" lengthAdjust="spacingAndGlyphs" textLength="316" x="141" y="1319.2104">__init__(self, text, segmenter=None, normalizer=None)</text><ellipse cx="132" cy="1328.8047" fill="#84BE84" rx="3" ry="3" style="stroke: #038048; stroke-width: 1.0;"/><text fill="#000000" font-family="sans-serif" font-size="11" lengthAdjust="spacingAndGlyphs" textLength="72" x="141" y="1332.0151">__iter__(self)</text><!--MD5=[4843f7accda627844ca340f5d1efa37d]
class benchmarkstt.input.core.File--><rect codeLine="112" fill="#FEFECE" filter="url(#faizu7ic906s7)" height="73.6094" id="benchmarkstt.input.core.File" style="stroke: #A80036; stroke-width: 1.5;" width="334" x="125" y="1374"/><ellipse cx="277.25" cy="1390" fill="#ADD1B2" rx="11" ry="11" style="stroke: #A80036; stroke-width: 1.0;"/><path d="M279.5938,1385.6719 C278.6563,1385.2344 278.0625,1385.0938 277.1875,1385.0938 C274.5625,1385.0938 272.5625,1387.1719 272.5625,1389.8906 L272.5625,1391.0156 C272.5625,1393.5938 274.6719,1395.4844 277.5625,1395.4844 C278.7813,1395.4844 279.9375,1395.1875 280.6875,1394.6406 C281.2656,1394.2344 281.5938,1393.7813 281.5938,1393.3906 C281.5938,1392.9375 281.2031,1392.5469 280.7344,1392.5469 C280.5156,1392.5469 280.3125,1392.625 280.125,1392.8125 C279.6719,1393.2969 279.6719,1393.2969 279.4844,1393.3906 C279.0625,1393.6563 278.375,1393.7813 277.6094,1393.7813 C275.5625,1393.7813 274.2656,1392.6875 274.2656,1390.9844 L274.2656,1389.8906 C274.2656,1388.1094 275.5156,1386.7969 277.25,1386.7969 C277.8281,1386.7969 278.4375,1386.9531 278.9063,1387.2031 C279.3906,1387.4844 279.5625,1387.7031 279.6563,1388.1094 C279.7188,1388.5156 279.75,1388.6406 279.8906,1388.7656 C280.0313,1388.9063 280.2656,1389.0156 280.4844,1389.0156 C280.75,1389.0156 281.0156,1388.875 281.1875,1388.6563 C281.2969,1388.5 281.3281,1388.3125 281.3281,1387.8906 L281.3281,1386.4688 C281.3281,1386.0313 281.3125,1385.9063 281.2188,1385.75 C281.0625,1385.4844 280.7813,1385.3438 280.4844,1385.3438 C280.1875,1385.3438 279.9844,1385.4375 279.7656,1385.75 L279.5938,1385.6719 Z "/><text fill="#000000" font-family="sans-serif" font-size="12" lengthAdjust="spacingAndGlyphs" textLength="21" x="297.75" y="1394.1543">File</text><line style="stroke: #A80036; stroke-width: 1.5;" x1="126" x2="458" y1="1406" y2="1406"/><line style="stroke: #A80036; stroke-width: 1.5;" x1="126" x2="458" y1="1414" y2="1414"/><ellipse cx="136" cy="1425" fill="#84BE84" rx="3" ry="3" style="stroke: #038048; stroke-width: 1.0;"/><text fill="#000000" font-family="sans-serif" font-size="11" lengthAdjust="spacingAndGlyphs" textLength="308" x="145" y="1428.2104">__init__(self, file, input_type=None, normalizer=None)</text><ellipse cx="136" cy="1437.8047" fill="#84BE84" rx="3" ry="3" style="stroke: #038048; stroke-width: 1.0;"/><text fill="#000000" font-family="sans-serif" font-size="11" lengthAdjust="spacingAndGlyphs" textLength="72" x="145" y="1441.0151">__iter__(self)</text><!--MD5=[5df2e3f9a60f5e68627f199cfdd93bb0]
class benchmarkstt.metrics.Base--><rect codeLine="18" fill="#FEFECE" filter="url(#faizu7ic906s7)" height="60.8047" id="benchmarkstt.metrics.Base" style="stroke: #A80036; stroke-width: 1.5;" width="520" x="612" y="1013.5"/><ellipse cx="852.75" cy="1029.5" fill="#ADD1B2" rx="11" ry="11" style="stroke: #A80036; stroke-width: 1.0;"/><path d="M855.0938,1025.1719 C854.1563,1024.7344 853.5625,1024.5938 852.6875,1024.5938 C850.0625,1024.5938 848.0625,1026.6719 848.0625,1029.3906 L848.0625,1030.5156 C848.0625,1033.0938 850.1719,1034.9844 853.0625,1034.9844 C854.2813,1034.9844 855.4375,1034.6875 856.1875,1034.1406 C856.7656,1033.7344 857.0938,1033.2813 857.0938,1032.8906 C857.0938,1032.4375 856.7031,1032.0469 856.2344,1032.0469 C856.0156,1032.0469 855.8125,1032.125 855.625,1032.3125 C855.1719,1032.7969 855.1719,1032.7969 854.9844,1032.8906 C854.5625,1033.1563 853.875,1033.2813 853.1094,1033.2813 C851.0625,1033.2813 849.7656,1032.1875 849.7656,1030.4844 L849.7656,1029.3906 C849.7656,1027.6094 851.0156,1026.2969 852.75,1026.2969 C853.3281,1026.2969 853.9375,1026.4531 854.4063,1026.7031 C854.8906,1026.9844 855.0625,1027.2031 855.1563,1027.6094 C855.2188,1028.0156 855.25,1028.1406 855.3906,1028.2656 C855.5313,1028.4063 855.7656,1028.5156 855.9844,1028.5156 C856.25,1028.5156 856.5156,1028.375 856.6875,1028.1563 C856.7969,1028 856.8281,1027.8125 856.8281,1027.3906 L856.8281,1025.9688 C856.8281,1025.5313 856.8125,1025.4063 856.7188,1025.25 C856.5625,1024.9844 856.2813,1024.8438 855.9844,1024.8438 C855.6875,1024.8438 855.4844,1024.9375 855.2656,1025.25 L855.0938,1025.1719 Z "/><text fill="#000000" font-family="sans-serif" font-size="12" lengthAdjust="spacingAndGlyphs" textLength="30" x="873.25" y="1033.6543">Base</text><line style="stroke: #A80036; stroke-width: 1.5;" x1="613" x2="1131" y1="1045.5" y2="1045.5"/><line style="stroke: #A80036; stroke-width: 1.5;" x1="613" x2="1131" y1="1053.5" y2="1053.5"/><ellipse cx="623" cy="1064.5" fill="#84BE84" rx="3" ry="3" style="stroke: #038048; stroke-width: 1.0;"/><text fill="#000000" font-family="sans-serif" font-size="11" lengthAdjust="spacingAndGlyphs" textLength="494" x="632" y="1067.7104">compare(self, ref: benchmarkstt.schema.Schema, hyp: benchmarkstt.schema.Schema)</text><!--MD5=[16641109c0e363d96d1ecc4c603e3de1]
class benchmarkstt.metrics.core.DiffCounts--><rect codeLine="24" fill="#FEFECE" filter="url(#faizu7ic906s7)" height="73.6094" id="benchmarkstt.metrics.core.DiffCounts" style="stroke: #A80036; stroke-width: 1.5;" width="520" x="32" y="898"/><ellipse cx="257.25" cy="914" fill="#ADD1B2" rx="11" ry="11" style="stroke: #A80036; stroke-width: 1.0;"/><path d="M259.5938,909.6719 C258.6563,909.2344 258.0625,909.0938 257.1875,909.0938 C254.5625,909.0938 252.5625,911.1719 252.5625,913.8906 L252.5625,915.0156 C252.5625,917.5938 254.6719,919.4844 257.5625,919.4844 C258.7813,919.4844 259.9375,919.1875 260.6875,918.6406 C261.2656,918.2344 261.5938,917.7813 261.5938,917.3906 C261.5938,916.9375 261.2031,916.5469 260.7344,916.5469 C260.5156,916.5469 260.3125,916.625 260.125,916.8125 C259.6719,917.2969 259.6719,917.2969 259.4844,917.3906 C259.0625,917.6563 258.375,917.7813 257.6094,917.7813 C255.5625,917.7813 254.2656,916.6875 254.2656,914.9844 L254.2656,913.8906 C254.2656,912.1094 255.5156,910.7969 257.25,910.7969 C257.8281,910.7969 258.4375,910.9531 258.9063,911.2031 C259.3906,911.4844 259.5625,911.7031 259.6563,912.1094 C259.7188,912.5156 259.75,912.6406 259.8906,912.7656 C260.0313,912.9063 260.2656,913.0156 260.4844,913.0156 C260.75,913.0156 261.0156,912.875 261.1875,912.6563 C261.2969,912.5 261.3281,912.3125 261.3281,911.8906 L261.3281,910.4688 C261.3281,910.0313 261.3125,909.9063 261.2188,909.75 C261.0625,909.4844 260.7813,909.3438 260.4844,909.3438 C260.1875,909.3438 259.9844,909.4375 259.7656,909.75 L259.5938,909.6719 Z "/><text fill="#000000" font-family="sans-serif" font-size="12" lengthAdjust="spacingAndGlyphs" textLength="61" x="277.75" y="918.1543">DiffCounts</text><line style="stroke: #A80036; stroke-width: 1.5;" x1="33" x2="551" y1="930" y2="930"/><line style="stroke: #A80036; stroke-width: 1.5;" x1="33" x2="551" y1="938" y2="938"/><ellipse cx="43" cy="949" fill="#84BE84" rx="3" ry="3" style="stroke: #038048; stroke-width: 1.0;"/><text fill="#000000" font-family="sans-serif" font-size="11" lengthAdjust="spacingAndGlyphs" textLength="180" x="52" y="952.2104">__init__(self, differ_class=None)</text><ellipse cx="43" cy="961.8047" fill="#84BE84" rx="3" ry="3" style="stroke: #038048; stroke-width: 1.0;"/><text fill="#000000" font-family="sans-serif" font-size="11" lengthAdjust="spacingAndGlyphs" textLength="494" x="52" y="965.0151">compare(self, ref: benchmarkstt.schema.Schema, hyp: benchmarkstt.schema.Schema)</text><!--MD5=[1b5fccb2ad4a9064da2e7d8609e9b4b6]
class benchmarkstt.metrics.core.WER--><rect codeLine="47" fill="#FEFECE" filter="url(#faizu7ic906s7)" height="73.6094" id="benchmarkstt.metrics.core.WER" style="stroke: #A80036; stroke-width: 1.5;" width="520" x="32" y="1007"/><ellipse cx="274.75" cy="1023" fill="#ADD1B2" rx="11" ry="11" style="stroke: #A80036; stroke-width: 1.0;"/><path d="M277.0938,1018.6719 C276.1563,1018.2344 275.5625,1018.0938 274.6875,1018.0938 C272.0625,1018.0938 270.0625,1020.1719 270.0625,1022.8906 L270.0625,1024.0156 C270.0625,1026.5938 272.1719,1028.4844 275.0625,1028.4844 C276.2813,1028.4844 277.4375,1028.1875 278.1875,1027.6406 C278.7656,1027.2344 279.0938,1026.7813 279.0938,1026.3906 C279.0938,1025.9375 278.7031,1025.5469 278.2344,1025.5469 C278.0156,1025.5469 277.8125,1025.625 277.625,1025.8125 C277.1719,1026.2969 277.1719,1026.2969 276.9844,1026.3906 C276.5625,1026.6563 275.875,1026.7813 275.1094,1026.7813 C273.0625,1026.7813 271.7656,1025.6875 271.7656,1023.9844 L271.7656,1022.8906 C271.7656,1021.1094 273.0156,1019.7969 274.75,1019.7969 C275.3281,1019.7969 275.9375,1019.9531 276.4063,1020.2031 C276.8906,1020.4844 277.0625,1020.7031 277.1563,1021.1094 C277.2188,1021.5156 277.25,1021.6406 277.3906,1021.7656 C277.5313,1021.9063 277.7656,1022.0156 277.9844,1022.0156 C278.25,1022.0156 278.5156,1021.875 278.6875,1021.6563 C278.7969,1021.5 278.8281,1021.3125 278.8281,1020.8906 L278.8281,1019.4688 C278.8281,1019.0313 278.8125,1018.9063 278.7188,1018.75 C278.5625,1018.4844 278.2813,1018.3438 277.9844,1018.3438 C277.6875,1018.3438 277.4844,1018.4375 277.2656,1018.75 L277.0938,1018.6719 Z "/><text fill="#000000" font-family="sans-serif" font-size="12" lengthAdjust="spacingAndGlyphs" textLength="26" x="295.25" y="1027.1543">WER</text><line style="stroke: #A80036; stroke-width: 1.5;" x1="33" x2="551" y1="1039" y2="1039"/><line style="stroke: #A80036; stroke-width: 1.5;" x1="33" x2="551" y1="1047" y2="1047"/><ellipse cx="43" cy="1058" fill="#84BE84" rx="3" ry="3" style="stroke: #038048; stroke-width: 1.0;"/><text fill="#000000" font-family="sans-serif" font-size="11" lengthAdjust="spacingAndGlyphs" textLength="259" x="52" y="1061.2104">__init__(self, mode=None, differ_class=None)</text><ellipse cx="43" cy="1070.8047" fill="#84BE84" rx="3" ry="3" style="stroke: #038048; stroke-width: 1.0;"/><text fill="#000000" font-family="sans-serif" font-size="11" lengthAdjust="spacingAndGlyphs" textLength="494" x="52" y="1074.0151">compare(self, ref: benchmarkstt.schema.Schema, hyp: benchmarkstt.schema.Schema)</text><!--MD5=[ef94872a4633e4f53c81dbb8c48f7a6f]
class benchmarkstt.metrics.core.WordDiffs--><rect codeLine="54" fill="#FEFECE" filter="url(#faizu7ic906s7)" height="73.6094" id="benchmarkstt.metrics.core.WordDiffs" style="stroke: #A80036; stroke-width: 1.5;" width="520" x="32" y="1116"/><ellipse cx="257.75" cy="1132" fill="#ADD1B2" rx="11" ry="11" style="stroke: #A80036; stroke-width: 1.0;"/><path d="M260.0938,1127.6719 C259.1563,1127.2344 258.5625,1127.0938 257.6875,1127.0938 C255.0625,1127.0938 253.0625,1129.1719 253.0625,1131.8906 L253.0625,1133.0156 C253.0625,1135.5938 255.1719,1137.4844 258.0625,1137.4844 C259.2813,1137.4844 260.4375,1137.1875 261.1875,1136.6406 C261.7656,1136.2344 262.0938,1135.7813 262.0938,1135.3906 C262.0938,1134.9375 261.7031,1134.5469 261.2344,1134.5469 C261.0156,1134.5469 260.8125,1134.625 260.625,1134.8125 C260.1719,1135.2969 260.1719,1135.2969 259.9844,1135.3906 C259.5625,1135.6563 258.875,1135.7813 258.1094,1135.7813 C256.0625,1135.7813 254.7656,1134.6875 254.7656,1132.9844 L254.7656,1131.8906 C254.7656,1130.1094 256.0156,1128.7969 257.75,1128.7969 C258.3281,1128.7969 258.9375,1128.9531 259.4063,1129.2031 C259.8906,1129.4844 260.0625,1129.7031 260.1563,1130.1094 C260.2188,1130.5156 260.25,1130.6406 260.3906,1130.7656 C260.5313,1130.9063 260.7656,1131.0156 260.9844,1131.0156 C261.25,1131.0156 261.5156,1130.875 261.6875,1130.6563 C261.7969,1130.5 261.8281,1130.3125 261.8281,1129.8906 L261.8281,1128.4688 C261.8281,1128.0313 261.8125,1127.9063 261.7188,1127.75 C261.5625,1127.4844 261.2813,1127.3438 260.9844,1127.3438 C260.6875,1127.3438 260.4844,1127.4375 260.2656,1127.75 L260.0938,1127.6719 Z "/><text fill="#000000" font-family="sans-serif" font-size="12" lengthAdjust="spacingAndGlyphs" textLength="60" x="278.25" y="1136.1543">WordDiffs</text><line style="stroke: #A80036; stroke-width: 1.5;" x1="33" x2="551" y1="1148" y2="1148"/><line style="stroke: #A80036; stroke-width: 1.5;" x1="33" x2="551" y1="1156" y2="1156"/><ellipse cx="43" cy="1167" fill="#84BE84" rx="3" ry="3" style="stroke: #038048; stroke-width: 1.0;"/><text fill="#000000" font-family="sans-serif" font-size="11" lengthAdjust="spacingAndGlyphs" textLength="264" x="52" y="1170.2104">__init__(self, dialect=None, differ_class=None)</text><ellipse cx="43" cy="1179.8047" fill="#84BE84" rx="3" ry="3" style="stroke: #038048; stroke-width: 1.0;"/><text fill="#000000" font-family="sans-serif" font-size="11" lengthAdjust="spacingAndGlyphs" textLength="494" x="52" y="1183.0151">compare(self, ref: benchmarkstt.schema.Schema, hyp: benchmarkstt.schema.Schema)</text><!--MD5=[5eef32e9538f5dcdb68c61d368837619]
class benchmarkstt.diff.core.RatcliffObershelp--><rect codeLine="31" fill="#FEFECE" filter="url(#faizu7ic906s7)" height="188.8516" id="benchmarkstt.diff.core.RatcliffObershelp" style="stroke: #A80036; stroke-width: 1.5;" width="261" x="161.5" y="633.5"/><ellipse cx="236.25" cy="649.5" fill="#ADD1B2" rx="11" ry="11" style="stroke: #A80036; stroke-width: 1.0;"/><path d="M238.5938,645.1719 C237.6563,644.7344 237.0625,644.5938 236.1875,644.5938 C233.5625,644.5938 231.5625,646.6719 231.5625,649.3906 L231.5625,650.5156 C231.5625,653.0938 233.6719,654.9844 236.5625,654.9844 C237.7813,654.9844 238.9375,654.6875 239.6875,654.1406 C240.2656,653.7344 240.5938,653.2813 240.5938,652.8906 C240.5938,652.4375 240.2031,652.0469 239.7344,652.0469 C239.5156,652.0469 239.3125,652.125 239.125,652.3125 C238.6719,652.7969 238.6719,652.7969 238.4844,652.8906 C238.0625,653.1563 237.375,653.2813 236.6094,653.2813 C234.5625,653.2813 233.2656,652.1875 233.2656,650.4844 L233.2656,649.3906 C233.2656,647.6094 234.5156,646.2969 236.25,646.2969 C236.8281,646.2969 237.4375,646.4531 237.9063,646.7031 C238.3906,646.9844 238.5625,647.2031 238.6563,647.6094 C238.7188,648.0156 238.75,648.1406 238.8906,648.2656 C239.0313,648.4063 239.2656,648.5156 239.4844,648.5156 C239.75,648.5156 240.0156,648.375 240.1875,648.1563 C240.2969,648 240.3281,647.8125 240.3281,647.3906 L240.3281,645.9688 C240.3281,645.5313 240.3125,645.4063 240.2188,645.25 C240.0625,644.9844 239.7813,644.8438 239.4844,644.8438 C239.1875,644.8438 238.9844,644.9375 238.7656,645.25 L238.5938,645.1719 Z "/><text fill="#000000" font-family="sans-serif" font-size="12" lengthAdjust="spacingAndGlyphs" textLength="103" x="256.75" y="653.6543">RatcliffObershelp</text><line style="stroke: #A80036; stroke-width: 1.5;" x1="162.5" x2="421.5" y1="665.5" y2="665.5"/><line style="stroke: #A80036; stroke-width: 1.5;" x1="162.5" x2="421.5" y1="673.5" y2="673.5"/><ellipse cx="172.5" cy="684.5" fill="#84BE84" rx="3" ry="3" style="stroke: #038048; stroke-width: 1.0;"/><text fill="#000000" font-family="sans-serif" font-size="11" lengthAdjust="spacingAndGlyphs" textLength="193" x="181.5" y="687.7104">__init__(self, a, b, *args, **kwargs)</text><ellipse cx="172.5" cy="697.3047" fill="#84BE84" rx="3" ry="3" style="stroke: #038048; stroke-width: 1.0;"/><text fill="#000000" font-family="sans-serif" font-size="11" lengthAdjust="spacingAndGlyphs" textLength="235" x="181.5" y="700.5151">find_longest_match(self, alo, ahi, blo, bhi)</text><ellipse cx="172.5" cy="710.1094" fill="#84BE84" rx="3" ry="3" style="stroke: #038048; stroke-width: 1.0;"/><text fill="#000000" font-family="sans-serif" font-size="11" lengthAdjust="spacingAndGlyphs" textLength="185" x="181.5" y="713.3198">get_grouped_opcodes(self, n=3)</text><ellipse cx="172.5" cy="722.9141" fill="#84BE84" rx="3" ry="3" style="stroke: #038048; stroke-width: 1.0;"/><text fill="#000000" font-family="sans-serif" font-size="11" lengthAdjust="spacingAndGlyphs" textLength="147" x="181.5" y="726.1245">get_matching_blocks(self)</text><ellipse cx="172.5" cy="735.7188" fill="#84BE84" rx="3" ry="3" style="stroke: #038048; stroke-width: 1.0;"/><text fill="#000000" font-family="sans-serif" font-size="11" lengthAdjust="spacingAndGlyphs" textLength="102" x="181.5" y="738.9292">get_opcodes(self)</text><ellipse cx="172.5" cy="748.5234" fill="#84BE84" rx="3" ry="3" style="stroke: #038048; stroke-width: 1.0;"/><text fill="#000000" font-family="sans-serif" font-size="11" lengthAdjust="spacingAndGlyphs" textLength="89" x="181.5" y="751.7339">quick_ratio(self)</text><ellipse cx="172.5" cy="761.3281" fill="#84BE84" rx="3" ry="3" style="stroke: #038048; stroke-width: 1.0;"/><text fill="#000000" font-family="sans-serif" font-size="11" lengthAdjust="spacingAndGlyphs" textLength="54" x="181.5" y="764.5386">ratio(self)</text><ellipse cx="172.5" cy="774.1328" fill="#84BE84" rx="3" ry="3" style="stroke: #038048; stroke-width: 1.0;"/><text fill="#000000" font-family="sans-serif" font-size="11" lengthAdjust="spacingAndGlyphs" textLength="117" x="181.5" y="777.3433">real_quick_ratio(self)</text><ellipse cx="172.5" cy="786.9375" fill="#84BE84" rx="3" ry="3" style="stroke: #038048; stroke-width: 1.0;"/><text fill="#000000" font-family="sans-serif" font-size="11" lengthAdjust="spacingAndGlyphs" textLength="95" x="181.5" y="790.1479">set_seq1(self, a)</text><ellipse cx="172.5" cy="799.7422" fill="#84BE84" rx="3" ry="3" style="stroke: #038048; stroke-width: 1.0;"/><text fill="#000000" font-family="sans-serif" font-size="11" lengthAdjust="spacingAndGlyphs" textLength="95" x="181.5" y="802.9526">set_seq2(self, b)</text><ellipse cx="172.5" cy="812.5469" fill="#84BE84" rx="3" ry="3" style="stroke: #038048; stroke-width: 1.0;"/><text fill="#000000" font-family="sans-serif" font-size="11" lengthAdjust="spacingAndGlyphs" textLength="108" x="181.5" y="815.7573">set_seqs(self, a, b)</text><!--MD5=[490ea28922b6507fe4f9ed69fc6567ac]
class benchmarkstt.normalization.Base--><rect codeLine="61" fill="#FEFECE" filter="url(#faizu7ic906s7)" height="73.6094" id="benchmarkstt.normalization.Base" style="stroke: #A80036; stroke-width: 1.5;" width="136" x="804" y="1902"/><ellipse cx="852.75" cy="1918" fill="#ADD1B2" rx="11" ry="11" style="stroke: #A80036; stroke-width: 1.0;"/><path d="M855.0938,1913.6719 C854.1563,1913.2344 853.5625,1913.0938 852.6875,1913.0938 C850.0625,1913.0938 848.0625,1915.1719 848.0625,1917.8906 L848.0625,1919.0156 C848.0625,1921.5938 850.1719,1923.4844 853.0625,1923.4844 C854.2813,1923.4844 855.4375,1923.1875 856.1875,1922.6406 C856.7656,1922.2344 857.0938,1921.7813 857.0938,1921.3906 C857.0938,1920.9375 856.7031,1920.5469 856.2344,1920.5469 C856.0156,1920.5469 855.8125,1920.625 855.625,1920.8125 C855.1719,1921.2969 855.1719,1921.2969 854.9844,1921.3906 C854.5625,1921.6563 853.875,1921.7813 853.1094,1921.7813 C851.0625,1921.7813 849.7656,1920.6875 849.7656,1918.9844 L849.7656,1917.8906 C849.7656,1916.1094 851.0156,1914.7969 852.75,1914.7969 C853.3281,1914.7969 853.9375,1914.9531 854.4063,1915.2031 C854.8906,1915.4844 855.0625,1915.7031 855.1563,1916.1094 C855.2188,1916.5156 855.25,1916.6406 855.3906,1916.7656 C855.5313,1916.9063 855.7656,1917.0156 855.9844,1917.0156 C856.25,1917.0156 856.5156,1916.875 856.6875,1916.6563 C856.7969,1916.5 856.8281,1916.3125 856.8281,1915.8906 L856.8281,1914.4688 C856.8281,1914.0313 856.8125,1913.9063 856.7188,1913.75 C856.5625,1913.4844 856.2813,1913.3438 855.9844,1913.3438 C855.6875,1913.3438 855.4844,1913.4375 855.2656,1913.75 L855.0938,1913.6719 Z "/><text fill="#000000" font-family="sans-serif" font-size="12" lengthAdjust="spacingAndGlyphs" textLength="30" x="873.25" y="1922.1543">Base</text><line style="stroke: #A80036; stroke-width: 1.5;" x1="805" x2="939" y1="1934" y2="1934"/><line style="stroke: #A80036; stroke-width: 1.5;" x1="805" x2="939" y1="1942" y2="1942"/><ellipse cx="815" cy="1953" fill="#84BE84" rx="3" ry="3" style="stroke: #038048; stroke-width: 1.0;"/><text fill="#000000" font-family="sans-serif" font-size="11" lengthAdjust="spacingAndGlyphs" textLength="76" x="824" y="1956.2104">__repr__(self)</text><ellipse cx="815" cy="1965.8047" fill="#84BE84" rx="3" ry="3" style="stroke: #038048; stroke-width: 1.0;"/><text fill="#000000" font-family="sans-serif" font-size="11" lengthAdjust="spacingAndGlyphs" textLength="110" x="824" y="1969.0151">normalize(cls, text)</text><!--MD5=[8731c9077ab4f00ce3929ee4866ad0a9]
class benchmarkstt.normalization.BaseWithFileSupport--><rect codeLine="68" fill="#FEFECE" filter="url(#faizu7ic906s7)" height="73.6094" id="benchmarkstt.normalization.BaseWithFileSupport" style="stroke: #A80036; stroke-width: 1.5;" width="157" x="213.5" y="1902"/><ellipse cx="228.5" cy="1918" fill="#ADD1B2" rx="11" ry="11" style="stroke: #A80036; stroke-width: 1.0;"/><path d="M230.8438,1913.6719 C229.9063,1913.2344 229.3125,1913.0938 228.4375,1913.0938 C225.8125,1913.0938 223.8125,1915.1719 223.8125,1917.8906 L223.8125,1919.0156 C223.8125,1921.5938 225.9219,1923.4844 228.8125,1923.4844 C230.0313,1923.4844 231.1875,1923.1875 231.9375,1922.6406 C232.5156,1922.2344 232.8438,1921.7813 232.8438,1921.3906 C232.8438,1920.9375 232.4531,1920.5469 231.9844,1920.5469 C231.7656,1920.5469 231.5625,1920.625 231.375,1920.8125 C230.9219,1921.2969 230.9219,1921.2969 230.7344,1921.3906 C230.3125,1921.6563 229.625,1921.7813 228.8594,1921.7813 C226.8125,1921.7813 225.5156,1920.6875 225.5156,1918.9844 L225.5156,1917.8906 C225.5156,1916.1094 226.7656,1914.7969 228.5,1914.7969 C229.0781,1914.7969 229.6875,1914.9531 230.1563,1915.2031 C230.6406,1915.4844 230.8125,1915.7031 230.9063,1916.1094 C230.9688,1916.5156 231,1916.6406 231.1406,1916.7656 C231.2813,1916.9063 231.5156,1917.0156 231.7344,1917.0156 C232,1917.0156 232.2656,1916.875 232.4375,1916.6563 C232.5469,1916.5 232.5781,1916.3125 232.5781,1915.8906 L232.5781,1914.4688 C232.5781,1914.0313 232.5625,1913.9063 232.4688,1913.75 C232.3125,1913.4844 232.0313,1913.3438 231.7344,1913.3438 C231.4375,1913.3438 231.2344,1913.4375 231.0156,1913.75 L230.8438,1913.6719 Z "/><text fill="#000000" font-family="sans-serif" font-size="12" lengthAdjust="spacingAndGlyphs" textLength="125" x="242.5" y="1922.1543">BaseWithFileSupport</text><line style="stroke: #A80036; stroke-width: 1.5;" x1="214.5" x2="369.5" y1="1934" y2="1934"/><line style="stroke: #A80036; stroke-width: 1.5;" x1="214.5" x2="369.5" y1="1942" y2="1942"/><ellipse cx="224.5" cy="1953" fill="#84BE84" rx="3" ry="3" style="stroke: #038048; stroke-width: 1.0;"/><text fill="#000000" font-family="sans-serif" font-size="11" lengthAdjust="spacingAndGlyphs" textLength="76" x="233.5" y="1956.2104">__repr__(self)</text><ellipse cx="224.5" cy="1965.8047" fill="#84BE84" rx="3" ry="3" style="stroke: #038048; stroke-width: 1.0;"/><text fill="#000000" font-family="sans-serif" font-size="11" lengthAdjust="spacingAndGlyphs" textLength="110" x="233.5" y="1969.0151">normalize(cls, text)</text><!--MD5=[7be2797115ac10ff84f28e0e6993cad4]
class benchmarkstt.normalization.File--><rect codeLine="75" fill="#FEFECE" filter="url(#faizu7ic906s7)" height="86.4141" id="benchmarkstt.normalization.File" style="stroke: #A80036; stroke-width: 1.5;" width="358" x="113" y="2011"/><ellipse cx="277.25" cy="2027" fill="#ADD1B2" rx="11" ry="11" style="stroke: #A80036; stroke-width: 1.0;"/><path d="M279.5938,2022.6719 C278.6563,2022.2344 278.0625,2022.0938 277.1875,2022.0938 C274.5625,2022.0938 272.5625,2024.1719 272.5625,2026.8906 L272.5625,2028.0156 C272.5625,2030.5938 274.6719,2032.4844 277.5625,2032.4844 C278.7813,2032.4844 279.9375,2032.1875 280.6875,2031.6406 C281.2656,2031.2344 281.5938,2030.7813 281.5938,2030.3906 C281.5938,2029.9375 281.2031,2029.5469 280.7344,2029.5469 C280.5156,2029.5469 280.3125,2029.625 280.125,2029.8125 C279.6719,2030.2969 279.6719,2030.2969 279.4844,2030.3906 C279.0625,2030.6563 278.375,2030.7813 277.6094,2030.7813 C275.5625,2030.7813 274.2656,2029.6875 274.2656,2027.9844 L274.2656,2026.8906 C274.2656,2025.1094 275.5156,2023.7969 277.25,2023.7969 C277.8281,2023.7969 278.4375,2023.9531 278.9063,2024.2031 C279.3906,2024.4844 279.5625,2024.7031 279.6563,2025.1094 C279.7188,2025.5156 279.75,2025.6406 279.8906,2025.7656 C280.0313,2025.9063 280.2656,2026.0156 280.4844,2026.0156 C280.75,2026.0156 281.0156,2025.875 281.1875,2025.6563 C281.2969,2025.5 281.3281,2025.3125 281.3281,2024.8906 L281.3281,2023.4688 C281.3281,2023.0313 281.3125,2022.9063 281.2188,2022.75 C281.0625,2022.4844 280.7813,2022.3438 280.4844,2022.3438 C280.1875,2022.3438 279.9844,2022.4375 279.7656,2022.75 L279.5938,2022.6719 Z "/><text fill="#000000" font-family="sans-serif" font-size="12" lengthAdjust="spacingAndGlyphs" textLength="21" x="297.75" y="2031.1543">File</text><line style="stroke: #A80036; stroke-width: 1.5;" x1="114" x2="470" y1="2043" y2="2043"/><line style="stroke: #A80036; stroke-width: 1.5;" x1="114" x2="470" y1="2051" y2="2051"/><ellipse cx="124" cy="2062" fill="#84BE84" rx="3" ry="3" style="stroke: #038048; stroke-width: 1.0;"/><text fill="#000000" font-family="sans-serif" font-size="11" lengthAdjust="spacingAndGlyphs" textLength="332" x="133" y="2065.2104">__init__(self, normalizer, file, encoding=None, path=None)</text><ellipse cx="124" cy="2074.8047" fill="#84BE84" rx="3" ry="3" style="stroke: #038048; stroke-width: 1.0;"/><text fill="#000000" font-family="sans-serif" font-size="11" lengthAdjust="spacingAndGlyphs" textLength="76" x="133" y="2078.0151">__repr__(self)</text><ellipse cx="124" cy="2087.6094" fill="#84BE84" rx="3" ry="3" style="stroke: #038048; stroke-width: 1.0;"/><text fill="#000000" font-family="sans-serif" font-size="11" lengthAdjust="spacingAndGlyphs" textLength="110" x="133" y="2090.8198">normalize(cls, text)</text><!--MD5=[de8f3446ad2e81fca4f3988b148f6ee4]
class benchmarkstt.normalization.NormalizationComposite--><rect codeLine="83" fill="#FEFECE" filter="url(#faizu7ic906s7)" height="99.2188" id="benchmarkstt.normalization.NormalizationComposite" style="stroke: #A80036; stroke-width: 1.5;" width="178" x="203" y="2132.5"/><ellipse cx="218" cy="2148.5" fill="#ADD1B2" rx="11" ry="11" style="stroke: #A80036; stroke-width: 1.0;"/><path d="M220.3438,2144.1719 C219.4063,2143.7344 218.8125,2143.5938 217.9375,2143.5938 C215.3125,2143.5938 213.3125,2145.6719 213.3125,2148.3906 L213.3125,2149.5156 C213.3125,2152.0938 215.4219,2153.9844 218.3125,2153.9844 C219.5313,2153.9844 220.6875,2153.6875 221.4375,2153.1406 C222.0156,2152.7344 222.3438,2152.2813 222.3438,2151.8906 C222.3438,2151.4375 221.9531,2151.0469 221.4844,2151.0469 C221.2656,2151.0469 221.0625,2151.125 220.875,2151.3125 C220.4219,2151.7969 220.4219,2151.7969 220.2344,2151.8906 C219.8125,2152.1563 219.125,2152.2813 218.3594,2152.2813 C216.3125,2152.2813 215.0156,2151.1875 215.0156,2149.4844 L215.0156,2148.3906 C215.0156,2146.6094 216.2656,2145.2969 218,2145.2969 C218.5781,2145.2969 219.1875,2145.4531 219.6563,2145.7031 C220.1406,2145.9844 220.3125,2146.2031 220.4063,2146.6094 C220.4688,2147.0156 220.5,2147.1406 220.6406,2147.2656 C220.7813,2147.4063 221.0156,2147.5156 221.2344,2147.5156 C221.5,2147.5156 221.7656,2147.375 221.9375,2147.1563 C222.0469,2147 222.0781,2146.8125 222.0781,2146.3906 L222.0781,2144.9688 C222.0781,2144.5313 222.0625,2144.4063 221.9688,2144.25 C221.8125,2143.9844 221.5313,2143.8438 221.2344,2143.8438 C220.9375,2143.8438 220.7344,2143.9375 220.5156,2144.25 L220.3438,2144.1719 Z "/><text fill="#000000" font-family="sans-serif" font-size="12" lengthAdjust="spacingAndGlyphs" textLength="146" x="232" y="2152.6543">NormalizationComposite</text><line style="stroke: #A80036; stroke-width: 1.5;" x1="204" x2="380" y1="2164.5" y2="2164.5"/><line style="stroke: #A80036; stroke-width: 1.5;" x1="204" x2="380" y1="2172.5" y2="2172.5"/><ellipse cx="214" cy="2183.5" fill="#84BE84" rx="3" ry="3" style="stroke: #038048; stroke-width: 1.0;"/><text fill="#000000" font-family="sans-serif" font-size="11" lengthAdjust="spacingAndGlyphs" textLength="138" x="223" y="2186.7104">__init__(self, title=None)</text><ellipse cx="214" cy="2196.3047" fill="#84BE84" rx="3" ry="3" style="stroke: #038048; stroke-width: 1.0;"/><text fill="#000000" font-family="sans-serif" font-size="11" lengthAdjust="spacingAndGlyphs" textLength="76" x="223" y="2199.5151">__repr__(self)</text><ellipse cx="214" cy="2209.1094" fill="#84BE84" rx="3" ry="3" style="stroke: #038048; stroke-width: 1.0;"/><text fill="#000000" font-family="sans-serif" font-size="11" lengthAdjust="spacingAndGlyphs" textLength="118" x="223" y="2212.3198">add(self, normalizer)</text><ellipse cx="214" cy="2221.9141" fill="#84BE84" rx="3" ry="3" style="stroke: #038048; stroke-width: 1.0;"/><text fill="#000000" font-family="sans-serif" font-size="11" lengthAdjust="spacingAndGlyphs" textLength="110" x="223" y="2225.1245">normalize(cls, text)</text><!--MD5=[d1e904a0c11302288bad0868539b156c]
class benchmarkstt.input.Base--><rect codeLine="106" fill="#FEFECE" filter="url(#faizu7ic906s7)" height="60.8047" id="benchmarkstt.input.Base" style="stroke: #A80036; stroke-width: 1.5;" width="98" x="823" y="1326.5"/><ellipse cx="854.2" cy="1342.5" fill="#ADD1B2" rx="11" ry="11" style="stroke: #A80036; stroke-width: 1.0;"/><path d="M856.5438,1338.1719 C855.6063,1337.7344 855.0125,1337.5938 854.1375,1337.5938 C851.5125,1337.5938 849.5125,1339.6719 849.5125,1342.3906 L849.5125,1343.5156 C849.5125,1346.0938 851.6219,1347.9844 854.5125,1347.9844 C855.7313,1347.9844 856.8875,1347.6875 857.6375,1347.1406 C858.2156,1346.7344 858.5438,1346.2813 858.5438,1345.8906 C858.5438,1345.4375 858.1531,1345.0469 857.6844,1345.0469 C857.4656,1345.0469 857.2625,1345.125 857.075,1345.3125 C856.6219,1345.7969 856.6219,1345.7969 856.4344,1345.8906 C856.0125,1346.1563 855.325,1346.2813 854.5594,1346.2813 C852.5125,1346.2813 851.2156,1345.1875 851.2156,1343.4844 L851.2156,1342.3906 C851.2156,1340.6094 852.4656,1339.2969 854.2,1339.2969 C854.7781,1339.2969 855.3875,1339.4531 855.8563,1339.7031 C856.3406,1339.9844 856.5125,1340.2031 856.6063,1340.6094 C856.6688,1341.0156 856.7,1341.1406 856.8406,1341.2656 C856.9813,1341.4063 857.2156,1341.5156 857.4344,1341.5156 C857.7,1341.5156 857.9656,1341.375 858.1375,1341.1563 C858.2469,1341 858.2781,1340.8125 858.2781,1340.3906 L858.2781,1338.9688 C858.2781,1338.5313 858.2625,1338.4063 858.1688,1338.25 C858.0125,1337.9844 857.7313,1337.8438 857.4344,1337.8438 C857.1375,1337.8438 856.9344,1337.9375 856.7156,1338.25 L856.5438,1338.1719 Z "/><text fill="#000000" font-family="sans-serif" font-size="12" lengthAdjust="spacingAndGlyphs" textLength="30" x="871.8" y="1346.6543">Base</text><line style="stroke: #A80036; stroke-width: 1.5;" x1="824" x2="920" y1="1358.5" y2="1358.5"/><line style="stroke: #A80036; stroke-width: 1.5;" x1="824" x2="920" y1="1366.5" y2="1366.5"/><ellipse cx="834" cy="1377.5" fill="#84BE84" rx="3" ry="3" style="stroke: #038048; stroke-width: 1.0;"/><text fill="#000000" font-family="sans-serif" font-size="11" lengthAdjust="spacingAndGlyphs" textLength="72" x="843" y="1380.7104">__iter__(self)</text><!--MD5=[002c34d32132957f7ddeee40910e80d3]
class benchmarkstt.segmentation.Base--><rect codeLine="119" fill="#FEFECE" filter="url(#faizu7ic906s7)" height="60.8047" id="benchmarkstt.segmentation.Base" style="stroke: #A80036; stroke-width: 1.5;" width="98" x="823" y="490.5"/><ellipse cx="854.2" cy="506.5" fill="#ADD1B2" rx="11" ry="11" style="stroke: #A80036; stroke-width: 1.0;"/><path d="M856.5438,502.1719 C855.6063,501.7344 855.0125,501.5938 854.1375,501.5938 C851.5125,501.5938 849.5125,503.6719 849.5125,506.3906 L849.5125,507.5156 C849.5125,510.0938 851.6219,511.9844 854.5125,511.9844 C855.7313,511.9844 856.8875,511.6875 857.6375,511.1406 C858.2156,510.7344 858.5438,510.2813 858.5438,509.8906 C858.5438,509.4375 858.1531,509.0469 857.6844,509.0469 C857.4656,509.0469 857.2625,509.125 857.075,509.3125 C856.6219,509.7969 856.6219,509.7969 856.4344,509.8906 C856.0125,510.1563 855.325,510.2813 854.5594,510.2813 C852.5125,510.2813 851.2156,509.1875 851.2156,507.4844 L851.2156,506.3906 C851.2156,504.6094 852.4656,503.2969 854.2,503.2969 C854.7781,503.2969 855.3875,503.4531 855.8563,503.7031 C856.3406,503.9844 856.5125,504.2031 856.6063,504.6094 C856.6688,505.0156 856.7,505.1406 856.8406,505.2656 C856.9813,505.4063 857.2156,505.5156 857.4344,505.5156 C857.7,505.5156 857.9656,505.375 858.1375,505.1563 C858.2469,505 858.2781,504.8125 858.2781,504.3906 L858.2781,502.9688 C858.2781,502.5313 858.2625,502.4063 858.1688,502.25 C858.0125,501.9844 857.7313,501.8438 857.4344,501.8438 C857.1375,501.8438 856.9344,501.9375 856.7156,502.25 L856.5438,502.1719 Z "/><text fill="#000000" font-family="sans-serif" font-size="12" lengthAdjust="spacingAndGlyphs" textLength="30" x="871.8" y="510.6543">Base</text><line style="stroke: #A80036; stroke-width: 1.5;" x1="824" x2="920" y1="522.5" y2="522.5"/><line style="stroke: #A80036; stroke-width: 1.5;" x1="824" x2="920" y1="530.5" y2="530.5"/><ellipse cx="834" cy="541.5" fill="#84BE84" rx="3" ry="3" style="stroke: #038048; stroke-width: 1.0;"/><text fill="#000000" font-family="sans-serif" font-size="11" lengthAdjust="spacingAndGlyphs" textLength="72" x="843" y="544.7104">__iter__(self)</text><!--MD5=[e6682fb9f1ffb38935fc3ffe4e96004d]
class benchmarkstt.segmentation.core.Simple--><rect codeLine="125" fill="#FEFECE" filter="url(#faizu7ic906s7)" height="73.6094" id="benchmarkstt.segmentation.core.Simple" style="stroke: #A80036; stroke-width: 1.5;" width="363" x="110.5" y="484"/><ellipse cx="267.25" cy="500" fill="#ADD1B2" rx="11" ry="11" style="stroke: #A80036; stroke-width: 1.0;"/><path d="M269.5938,495.6719 C268.6563,495.2344 268.0625,495.0938 267.1875,495.0938 C264.5625,495.0938 262.5625,497.1719 262.5625,499.8906 L262.5625,501.0156 C262.5625,503.5938 264.6719,505.4844 267.5625,505.4844 C268.7813,505.4844 269.9375,505.1875 270.6875,504.6406 C271.2656,504.2344 271.5938,503.7813 271.5938,503.3906 C271.5938,502.9375 271.2031,502.5469 270.7344,502.5469 C270.5156,502.5469 270.3125,502.625 270.125,502.8125 C269.6719,503.2969 269.6719,503.2969 269.4844,503.3906 C269.0625,503.6563 268.375,503.7813 267.6094,503.7813 C265.5625,503.7813 264.2656,502.6875 264.2656,500.9844 L264.2656,499.8906 C264.2656,498.1094 265.5156,496.7969 267.25,496.7969 C267.8281,496.7969 268.4375,496.9531 268.9063,497.2031 C269.3906,497.4844 269.5625,497.7031 269.6563,498.1094 C269.7188,498.5156 269.75,498.6406 269.8906,498.7656 C270.0313,498.9063 270.2656,499.0156 270.4844,499.0156 C270.75,499.0156 271.0156,498.875 271.1875,498.6563 C271.2969,498.5 271.3281,498.3125 271.3281,497.8906 L271.3281,496.4688 C271.3281,496.0313 271.3125,495.9063 271.2188,495.75 C271.0625,495.4844 270.7813,495.3438 270.4844,495.3438 C270.1875,495.3438 269.9844,495.4375 269.7656,495.75 L269.5938,495.6719 Z "/><text fill="#000000" font-family="sans-serif" font-size="12" lengthAdjust="spacingAndGlyphs" textLength="41" x="287.75" y="504.1543">Simple</text><line style="stroke: #A80036; stroke-width: 1.5;" x1="111.5" x2="472.5" y1="516" y2="516"/><line style="stroke: #A80036; stroke-width: 1.5;" x1="111.5" x2="472.5" y1="524" y2="524"/><ellipse cx="121.5" cy="535" fill="#84BE84" rx="3" ry="3" style="stroke: #038048; stroke-width: 1.0;"/><text fill="#000000" font-family="sans-serif" font-size="11" lengthAdjust="spacingAndGlyphs" textLength="337" x="130.5" y="538.2104">__init__(self, text: str, pattern='[\n\t\s]+', normalizer=None)</text><ellipse cx="121.5" cy="547.8047" fill="#84BE84" rx="3" ry="3" style="stroke: #038048; stroke-width: 1.0;"/><text fill="#000000" font-family="sans-serif" font-size="11" lengthAdjust="spacingAndGlyphs" textLength="72" x="130.5" y="551.0151">__iter__(self)</text><!--MD5=[6bad0332cb50a567e063560f49fe1b05]
class benchmarkstt.output.Base--><rect codeLine="132" fill="#FEFECE" filter="url(#faizu7ic906s7)" height="86.4141" id="benchmarkstt.output.Base" style="stroke: #A80036; stroke-width: 1.5;" width="257" x="1192" y="242"/><ellipse cx="1301.25" cy="258" fill="#ADD1B2" rx="11" ry="11" style="stroke: #A80036; stroke-width: 1.0;"/><path d="M1303.5938,253.6719 C1302.6563,253.2344 1302.0625,253.0938 1301.1875,253.0938 C1298.5625,253.0938 1296.5625,255.1719 1296.5625,257.8906 L1296.5625,259.0156 C1296.5625,261.5938 1298.6719,263.4844 1301.5625,263.4844 C1302.7813,263.4844 1303.9375,263.1875 1304.6875,262.6406 C1305.2656,262.2344 1305.5938,261.7813 1305.5938,261.3906 C1305.5938,260.9375 1305.2031,260.5469 1304.7344,260.5469 C1304.5156,260.5469 1304.3125,260.625 1304.125,260.8125 C1303.6719,261.2969 1303.6719,261.2969 1303.4844,261.3906 C1303.0625,261.6563 1302.375,261.7813 1301.6094,261.7813 C1299.5625,261.7813 1298.2656,260.6875 1298.2656,258.9844 L1298.2656,257.8906 C1298.2656,256.1094 1299.5156,254.7969 1301.25,254.7969 C1301.8281,254.7969 1302.4375,254.9531 1302.9063,255.2031 C1303.3906,255.4844 1303.5625,255.7031 1303.6563,256.1094 C1303.7188,256.5156 1303.75,256.6406 1303.8906,256.7656 C1304.0313,256.9063 1304.2656,257.0156 1304.4844,257.0156 C1304.75,257.0156 1305.0156,256.875 1305.1875,256.6563 C1305.2969,256.5 1305.3281,256.3125 1305.3281,255.8906 L1305.3281,254.4688 C1305.3281,254.0313 1305.3125,253.9063 1305.2188,253.75 C1305.0625,253.4844 1304.7813,253.3438 1304.4844,253.3438 C1304.1875,253.3438 1303.9844,253.4375 1303.7656,253.75 L1303.5938,253.6719 Z "/><text fill="#000000" font-family="sans-serif" font-size="12" lengthAdjust="spacingAndGlyphs" textLength="30" x="1321.75" y="262.1543">Base</text><line style="stroke: #A80036; stroke-width: 1.5;" x1="1193" x2="1448" y1="274" y2="274"/><line style="stroke: #A80036; stroke-width: 1.5;" x1="1193" x2="1448" y1="282" y2="282"/><ellipse cx="1203" cy="293" fill="#84BE84" rx="3" ry="3" style="stroke: #038048; stroke-width: 1.0;"/><text fill="#000000" font-family="sans-serif" font-size="11" lengthAdjust="spacingAndGlyphs" textLength="84" x="1212" y="296.2104">__enter__(self)</text><ellipse cx="1203" cy="305.8047" fill="#84BE84" rx="3" ry="3" style="stroke: #038048; stroke-width: 1.0;"/><text fill="#000000" font-family="sans-serif" font-size="11" lengthAdjust="spacingAndGlyphs" textLength="231" x="1212" y="309.0151">__exit__(self, exc_type, exc_val, exc_tb)</text><ellipse cx="1203" cy="318.6094" fill="#84BE84" rx="3" ry="3" style="stroke: #038048; stroke-width: 1.0;"/><text fill="#000000" font-family="sans-serif" font-size="11" lengthAdjust="spacingAndGlyphs" textLength="129" x="1212" y="321.8198">result(self, title, result)</text><!--MD5=[f736c00f8e3d82ae904e3d345ee15690]
class benchmarkstt.output.core.Json--><rect codeLine="140" fill="#FEFECE" filter="url(#faizu7ic906s7)" height="99.2188" id="benchmarkstt.output.core.Json" style="stroke: #A80036; stroke-width: 1.5;" width="257" x="163.5" y="309.5"/><ellipse cx="274.75" cy="325.5" fill="#ADD1B2" rx="11" ry="11" style="stroke: #A80036; stroke-width: 1.0;"/><path d="M277.0938,321.1719 C276.1563,320.7344 275.5625,320.5938 274.6875,320.5938 C272.0625,320.5938 270.0625,322.6719 270.0625,325.3906 L270.0625,326.5156 C270.0625,329.0938 272.1719,330.9844 275.0625,330.9844 C276.2813,330.9844 277.4375,330.6875 278.1875,330.1406 C278.7656,329.7344 279.0938,329.2813 279.0938,328.8906 C279.0938,328.4375 278.7031,328.0469 278.2344,328.0469 C278.0156,328.0469 277.8125,328.125 277.625,328.3125 C277.1719,328.7969 277.1719,328.7969 276.9844,328.8906 C276.5625,329.1563 275.875,329.2813 275.1094,329.2813 C273.0625,329.2813 271.7656,328.1875 271.7656,326.4844 L271.7656,325.3906 C271.7656,323.6094 273.0156,322.2969 274.75,322.2969 C275.3281,322.2969 275.9375,322.4531 276.4063,322.7031 C276.8906,322.9844 277.0625,323.2031 277.1563,323.6094 C277.2188,324.0156 277.25,324.1406 277.3906,324.2656 C277.5313,324.4063 277.7656,324.5156 277.9844,324.5156 C278.25,324.5156 278.5156,324.375 278.6875,324.1563 C278.7969,324 278.8281,323.8125 278.8281,323.3906 L278.8281,321.9688 C278.8281,321.5313 278.8125,321.4063 278.7188,321.25 C278.5625,320.9844 278.2813,320.8438 277.9844,320.8438 C277.6875,320.8438 277.4844,320.9375 277.2656,321.25 L277.0938,321.1719 Z "/><text fill="#000000" font-family="sans-serif" font-size="12" lengthAdjust="spacingAndGlyphs" textLength="26" x="295.25" y="329.6543">Json</text><line style="stroke: #A80036; stroke-width: 1.5;" x1="164.5" x2="419.5" y1="341.5" y2="341.5"/><line style="stroke: #A80036; stroke-width: 1.5;" x1="164.5" x2="419.5" y1="349.5" y2="349.5"/><ellipse cx="174.5" cy="360.5" fill="#84BE84" rx="3" ry="3" style="stroke: #038048; stroke-width: 1.0;"/><text fill="#000000" font-family="sans-serif" font-size="11" lengthAdjust="spacingAndGlyphs" textLength="84" x="183.5" y="363.7104">__enter__(self)</text><ellipse cx="174.5" cy="373.3047" fill="#84BE84" rx="3" ry="3" style="stroke: #038048; stroke-width: 1.0;"/><text fill="#000000" font-family="sans-serif" font-size="11" lengthAdjust="spacingAndGlyphs" textLength="231" x="183.5" y="376.5151">__exit__(self, exc_type, exc_val, exc_tb)</text><ellipse cx="174.5" cy="386.1094" fill="#84BE84" rx="3" ry="3" style="stroke: #038048; stroke-width: 1.0;"/><text fill="#000000" font-family="sans-serif" font-size="11" lengthAdjust="spacingAndGlyphs" textLength="70" x="183.5" y="389.3198">__init__(self)</text><ellipse cx="174.5" cy="398.9141" fill="#84BE84" rx="3" ry="3" style="stroke: #038048; stroke-width: 1.0;"/><text fill="#000000" font-family="sans-serif" font-size="11" lengthAdjust="spacingAndGlyphs" textLength="129" x="183.5" y="402.1245">result(self, title, result)</text><!--MD5=[1202924086ca6a88207a70c63baf9330]
class benchmarkstt.output.core.MarkDown--><rect codeLine="149" fill="#FEFECE" filter="url(#faizu7ic906s7)" height="99.2188" id="benchmarkstt.output.core.MarkDown" style="stroke: #A80036; stroke-width: 1.5;" width="257" x="163.5" y="41.5"/><ellipse cx="256.25" cy="57.5" fill="#ADD1B2" rx="11" ry="11" style="stroke: #A80036; stroke-width: 1.0;"/><path d="M258.5938,53.1719 C257.6563,52.7344 257.0625,52.5938 256.1875,52.5938 C253.5625,52.5938 251.5625,54.6719 251.5625,57.3906 L251.5625,58.5156 C251.5625,61.0938 253.6719,62.9844 256.5625,62.9844 C257.7813,62.9844 258.9375,62.6875 259.6875,62.1406 C260.2656,61.7344 260.5938,61.2813 260.5938,60.8906 C260.5938,60.4375 260.2031,60.0469 259.7344,60.0469 C259.5156,60.0469 259.3125,60.125 259.125,60.3125 C258.6719,60.7969 258.6719,60.7969 258.4844,60.8906 C258.0625,61.1563 257.375,61.2813 256.6094,61.2813 C254.5625,61.2813 253.2656,60.1875 253.2656,58.4844 L253.2656,57.3906 C253.2656,55.6094 254.5156,54.2969 256.25,54.2969 C256.8281,54.2969 257.4375,54.4531 257.9063,54.7031 C258.3906,54.9844 258.5625,55.2031 258.6563,55.6094 C258.7188,56.0156 258.75,56.1406 258.8906,56.2656 C259.0313,56.4063 259.2656,56.5156 259.4844,56.5156 C259.75,56.5156 260.0156,56.375 260.1875,56.1563 C260.2969,56 260.3281,55.8125 260.3281,55.3906 L260.3281,53.9688 C260.3281,53.5313 260.3125,53.4063 260.2188,53.25 C260.0625,52.9844 259.7813,52.8438 259.4844,52.8438 C259.1875,52.8438 258.9844,52.9375 258.7656,53.25 L258.5938,53.1719 Z "/><text fill="#000000" font-family="sans-serif" font-size="12" lengthAdjust="spacingAndGlyphs" textLength="63" x="276.75" y="61.6543">MarkDown</text><line style="stroke: #A80036; stroke-width: 1.5;" x1="164.5" x2="419.5" y1="73.5" y2="73.5"/><line style="stroke: #A80036; stroke-width: 1.5;" x1="164.5" x2="419.5" y1="81.5" y2="81.5"/><ellipse cx="174.5" cy="92.5" fill="#84BE84" rx="3" ry="3" style="stroke: #038048; stroke-width: 1.0;"/><text fill="#000000" font-family="sans-serif" font-size="11" lengthAdjust="spacingAndGlyphs" textLength="84" x="183.5" y="95.7104">__enter__(self)</text><ellipse cx="174.5" cy="105.3047" fill="#84BE84" rx="3" ry="3" style="stroke: #038048; stroke-width: 1.0;"/><text fill="#000000" font-family="sans-serif" font-size="11" lengthAdjust="spacingAndGlyphs" textLength="231" x="183.5" y="108.5151">__exit__(self, exc_type, exc_val, exc_tb)</text><ellipse cx="174.5" cy="118.1094" fill="#84BE84" rx="3" ry="3" style="stroke: #038048; stroke-width: 1.0;"/><text fill="#000000" font-family="sans-serif" font-size="11" lengthAdjust="spacingAndGlyphs" textLength="93" x="183.5" y="121.3198">print(self, result)</text><ellipse cx="174.5" cy="130.9141" fill="#84BE84" rx="3" ry="3" style="stroke: #038048; stroke-width: 1.0;"/><text fill="#000000" font-family="sans-serif" font-size="11" lengthAdjust="spacingAndGlyphs" textLength="129" x="183.5" y="134.1245">result(self, title, result)</text><!--MD5=[1b1c3484ac7c767612303980bbf618ed]
class benchmarkstt.output.core.ReStructuredText--><rect codeLine="158" fill="#FEFECE" filter="url(#faizu7ic906s7)" height="99.2188" id="benchmarkstt.output.core.ReStructuredText" style="stroke: #A80036; stroke-width: 1.5;" width="257" x="163.5" y="175.5"/><ellipse cx="235.75" cy="191.5" fill="#ADD1B2" rx="11" ry="11" style="stroke: #A80036; stroke-width: 1.0;"/><path d="M238.0938,187.1719 C237.1563,186.7344 236.5625,186.5938 235.6875,186.5938 C233.0625,186.5938 231.0625,188.6719 231.0625,191.3906 L231.0625,192.5156 C231.0625,195.0938 233.1719,196.9844 236.0625,196.9844 C237.2813,196.9844 238.4375,196.6875 239.1875,196.1406 C239.7656,195.7344 240.0938,195.2813 240.0938,194.8906 C240.0938,194.4375 239.7031,194.0469 239.2344,194.0469 C239.0156,194.0469 238.8125,194.125 238.625,194.3125 C238.1719,194.7969 238.1719,194.7969 237.9844,194.8906 C237.5625,195.1563 236.875,195.2813 236.1094,195.2813 C234.0625,195.2813 232.7656,194.1875 232.7656,192.4844 L232.7656,191.3906 C232.7656,189.6094 234.0156,188.2969 235.75,188.2969 C236.3281,188.2969 236.9375,188.4531 237.4063,188.7031 C237.8906,188.9844 238.0625,189.2031 238.1563,189.6094 C238.2188,190.0156 238.25,190.1406 238.3906,190.2656 C238.5313,190.4063 238.7656,190.5156 238.9844,190.5156 C239.25,190.5156 239.5156,190.375 239.6875,190.1563 C239.7969,190 239.8281,189.8125 239.8281,189.3906 L239.8281,187.9688 C239.8281,187.5313 239.8125,187.4063 239.7188,187.25 C239.5625,186.9844 239.2813,186.8438 238.9844,186.8438 C238.6875,186.8438 238.4844,186.9375 238.2656,187.25 L238.0938,187.1719 Z "/><text fill="#000000" font-family="sans-serif" font-size="12" lengthAdjust="spacingAndGlyphs" textLength="104" x="256.25" y="195.6543">ReStructuredText</text><line style="stroke: #A80036; stroke-width: 1.5;" x1="164.5" x2="419.5" y1="207.5" y2="207.5"/><line style="stroke: #A80036; stroke-width: 1.5;" x1="164.5" x2="419.5" y1="215.5" y2="215.5"/><ellipse cx="174.5" cy="226.5" fill="#84BE84" rx="3" ry="3" style="stroke: #038048; stroke-width: 1.0;"/><text fill="#000000" font-family="sans-serif" font-size="11" lengthAdjust="spacingAndGlyphs" textLength="84" x="183.5" y="229.7104">__enter__(self)</text><ellipse cx="174.5" cy="239.3047" fill="#84BE84" rx="3" ry="3" style="stroke: #038048; stroke-width: 1.0;"/><text fill="#000000" font-family="sans-serif" font-size="11" lengthAdjust="spacingAndGlyphs" textLength="231" x="183.5" y="242.5151">__exit__(self, exc_type, exc_val, exc_tb)</text><ellipse cx="174.5" cy="252.1094" fill="#84BE84" rx="3" ry="3" style="stroke: #038048; stroke-width: 1.0;"/><text fill="#000000" font-family="sans-serif" font-size="11" lengthAdjust="spacingAndGlyphs" textLength="93" x="183.5" y="255.3198">print(self, result)</text><ellipse cx="174.5" cy="264.9141" fill="#84BE84" rx="3" ry="3" style="stroke: #038048; stroke-width: 1.0;"/><text fill="#000000" font-family="sans-serif" font-size="11" lengthAdjust="spacingAndGlyphs" textLength="129" x="183.5" y="268.1245">result(self, title, result)</text><!--MD5=[ad472f876b41c377ab9c2f7fd723b528]
class benchmarkstt.output.core.SimpleTextBase--><rect codeLine="167" fill="#FEFECE" filter="url(#faizu7ic906s7)" height="99.2188" id="benchmarkstt.output.core.SimpleTextBase" style="stroke: #A80036; stroke-width: 1.5;" width="257" x="743.5" y="175.5"/><ellipse cx="819.25" cy="191.5" fill="#ADD1B2" rx="11" ry="11" style="stroke: #A80036; stroke-width: 1.0;"/><path d="M821.5938,187.1719 C820.6563,186.7344 820.0625,186.5938 819.1875,186.5938 C816.5625,186.5938 814.5625,188.6719 814.5625,191.3906 L814.5625,192.5156 C814.5625,195.0938 816.6719,196.9844 819.5625,196.9844 C820.7813,196.9844 821.9375,196.6875 822.6875,196.1406 C823.2656,195.7344 823.5938,195.2813 823.5938,194.8906 C823.5938,194.4375 823.2031,194.0469 822.7344,194.0469 C822.5156,194.0469 822.3125,194.125 822.125,194.3125 C821.6719,194.7969 821.6719,194.7969 821.4844,194.8906 C821.0625,195.1563 820.375,195.2813 819.6094,195.2813 C817.5625,195.2813 816.2656,194.1875 816.2656,192.4844 L816.2656,191.3906 C816.2656,189.6094 817.5156,188.2969 819.25,188.2969 C819.8281,188.2969 820.4375,188.4531 820.9063,188.7031 C821.3906,188.9844 821.5625,189.2031 821.6563,189.6094 C821.7188,190.0156 821.75,190.1406 821.8906,190.2656 C822.0313,190.4063 822.2656,190.5156 822.4844,190.5156 C822.75,190.5156 823.0156,190.375 823.1875,190.1563 C823.2969,190 823.3281,189.8125 823.3281,189.3906 L823.3281,187.9688 C823.3281,187.5313 823.3125,187.4063 823.2188,187.25 C823.0625,186.9844 822.7813,186.8438 822.4844,186.8438 C822.1875,186.8438 821.9844,186.9375 821.7656,187.25 L821.5938,187.1719 Z "/><text fill="#000000" font-family="sans-serif" font-size="12" lengthAdjust="spacingAndGlyphs" textLength="97" x="839.75" y="195.6543">SimpleTextBase</text><line style="stroke: #A80036; stroke-width: 1.5;" x1="744.5" x2="999.5" y1="207.5" y2="207.5"/><line style="stroke: #A80036; stroke-width: 1.5;" x1="744.5" x2="999.5" y1="215.5" y2="215.5"/><ellipse cx="754.5" cy="226.5" fill="#84BE84" rx="3" ry="3" style="stroke: #038048; stroke-width: 1.0;"/><text fill="#000000" font-family="sans-serif" font-size="11" lengthAdjust="spacingAndGlyphs" textLength="84" x="763.5" y="229.7104">__enter__(self)</text><ellipse cx="754.5" cy="239.3047" fill="#84BE84" rx="3" ry="3" style="stroke: #038048; stroke-width: 1.0;"/><text fill="#000000" font-family="sans-serif" font-size="11" lengthAdjust="spacingAndGlyphs" textLength="231" x="763.5" y="242.5151">__exit__(self, exc_type, exc_val, exc_tb)</text><ellipse cx="754.5" cy="252.1094" fill="#84BE84" rx="3" ry="3" style="stroke: #038048; stroke-width: 1.0;"/><text fill="#000000" font-family="sans-serif" font-size="11" lengthAdjust="spacingAndGlyphs" textLength="93" x="763.5" y="255.3198">print(self, result)</text><ellipse cx="754.5" cy="264.9141" fill="#84BE84" rx="3" ry="3" style="stroke: #038048; stroke-width: 1.0;"/><text fill="#000000" font-family="sans-serif" font-size="11" lengthAdjust="spacingAndGlyphs" textLength="129" x="763.5" y="268.1245">result(self, title, result)</text><!--MD5=[6aa6ae3a879840a73b19fd2777afca9b]
class benchmarkstt.diff.Base--><rect codeLine="176" fill="#FEFECE" filter="url(#faizu7ic906s7)" height="73.6094" id="benchmarkstt.diff.Base" style="stroke: #A80036; stroke-width: 1.5;" width="154" x="795" y="691"/><ellipse cx="852.75" cy="707" fill="#ADD1B2" rx="11" ry="11" style="stroke: #A80036; stroke-width: 1.0;"/><path d="M855.0938,702.6719 C854.1563,702.2344 853.5625,702.0938 852.6875,702.0938 C850.0625,702.0938 848.0625,704.1719 848.0625,706.8906 L848.0625,708.0156 C848.0625,710.5938 850.1719,712.4844 853.0625,712.4844 C854.2813,712.4844 855.4375,712.1875 856.1875,711.6406 C856.7656,711.2344 857.0938,710.7813 857.0938,710.3906 C857.0938,709.9375 856.7031,709.5469 856.2344,709.5469 C856.0156,709.5469 855.8125,709.625 855.625,709.8125 C855.1719,710.2969 855.1719,710.2969 854.9844,710.3906 C854.5625,710.6563 853.875,710.7813 853.1094,710.7813 C851.0625,710.7813 849.7656,709.6875 849.7656,707.9844 L849.7656,706.8906 C849.7656,705.1094 851.0156,703.7969 852.75,703.7969 C853.3281,703.7969 853.9375,703.9531 854.4063,704.2031 C854.8906,704.4844 855.0625,704.7031 855.1563,705.1094 C855.2188,705.5156 855.25,705.6406 855.3906,705.7656 C855.5313,705.9063 855.7656,706.0156 855.9844,706.0156 C856.25,706.0156 856.5156,705.875 856.6875,705.6563 C856.7969,705.5 856.8281,705.3125 856.8281,704.8906 L856.8281,703.4688 C856.8281,703.0313 856.8125,702.9063 856.7188,702.75 C856.5625,702.4844 856.2813,702.3438 855.9844,702.3438 C855.6875,702.3438 855.4844,702.4375 855.2656,702.75 L855.0938,702.6719 Z "/><text fill="#000000" font-family="sans-serif" font-size="12" lengthAdjust="spacingAndGlyphs" textLength="30" x="873.25" y="711.1543">Base</text><line style="stroke: #A80036; stroke-width: 1.5;" x1="796" x2="948" y1="723" y2="723"/><line style="stroke: #A80036; stroke-width: 1.5;" x1="796" x2="948" y1="731" y2="731"/><ellipse cx="806" cy="742" fill="#84BE84" rx="3" ry="3" style="stroke: #038048; stroke-width: 1.0;"/><text fill="#000000" font-family="sans-serif" font-size="11" lengthAdjust="spacingAndGlyphs" textLength="128" x="815" y="745.2104">__init__(self, a='', b='')</text><ellipse cx="806" cy="754.8047" fill="#84BE84" rx="3" ry="3" style="stroke: #038048; stroke-width: 1.0;"/><text fill="#000000" font-family="sans-serif" font-size="11" lengthAdjust="spacingAndGlyphs" textLength="102" x="815" y="758.0151">get_opcodes(self)</text><!--MD5=[fcedb7634c7a8d2dd27ebf5b217ed017]
link benchmarkstt.normalization.core.Config to benchmarkstt.normalization.Base--><path codeLine="183" d="M445.21,1581.537 C489.387,1590.52 536.366,1604.682 576,1627 C690.073,1691.235 786.464,1814.167 835.751,1885.034 " fill="none" id="benchmarkstt.normalization.core.Config-&gt;benchmarkstt.normalization.Base" style="stroke: #A80036; stroke-width: 1.0;"/><polygon fill="none" points="841.745,1881.399,847.248,1901.862,830.185,1889.297,841.745,1881.399" style="stroke: #A80036; stroke-width: 1.0;"/><!--MD5=[4e4728c8a7b19202f6baadb11a4abb1d]
link benchmarkstt.input.core.PlainText to benchmarkstt.input.Base--><path codeLine="184" d="M463.293,1318.204 C576.757,1329.001 719.767,1342.609 802.748,1350.505 " fill="none" id="benchmarkstt.input.core.PlainText-&gt;benchmarkstt.input.Base" style="stroke: #A80036; stroke-width: 1.0;"/><polygon fill="none" points="803.498,1343.545,822.745,1352.408,802.172,1357.482,803.498,1343.545" style="stroke: #A80036; stroke-width: 1.0;"/><!--MD5=[aeb97f022ce5ca6ca82f598274fa358c]
link benchmarkstt.metrics.core.DiffCounts to benchmarkstt.metrics.Base--><path codeLine="185" d="M489.491,972.05 C554.156,984.25 625.729,997.75 689.248,1009.72 " fill="none" id="benchmarkstt.metrics.core.DiffCounts-&gt;benchmarkstt.metrics.Base" style="stroke: #A80036; stroke-width: 1.0;"/><polygon fill="none" points="690.77,1002.89,709.126,1013.47,688.175,1016.65,690.77,1002.89" style="stroke: #A80036; stroke-width: 1.0;"/><!--MD5=[e5fe7389425e8fa15ace28d51ff92339]
link benchmarkstt.diff.core.RatcliffObershelp to benchmarkstt.diff.Base--><path codeLine="186" d="M422.714,728 C529.496,728 678.469,728 774.833,728 " fill="none" id="benchmarkstt.diff.core.RatcliffObershelp-&gt;benchmarkstt.diff.Base" style="stroke: #A80036; stroke-width: 1.0;"/><polygon fill="none" points="774.861,721,794.861,728,774.861,735,774.861,721" style="stroke: #A80036; stroke-width: 1.0;"/><!--MD5=[69df8d65935fff5d55d6e09d045eacee]
link benchmarkstt.metrics.core.WER to benchmarkstt.metrics.Base--><path codeLine="187" d="M552.412,1044 C565.312,1044 578.292,1044 591.247,1044 " fill="none" id="benchmarkstt.metrics.core.WER-&gt;benchmarkstt.metrics.Base" style="stroke: #A80036; stroke-width: 1.0;"/><polygon fill="none" points="591.569,1037,611.569,1044,591.569,1051,591.569,1037" style="stroke: #A80036; stroke-width: 1.0;"/><!--MD5=[0284ac7b824015023a82400e9f258ff5]
link benchmarkstt.metrics.core.WordDiffs to benchmarkstt.metrics.Base--><path codeLine="188" d="M489.491,1115.95 C554.156,1103.75 625.729,1090.25 689.248,1078.28 " fill="none" id="benchmarkstt.metrics.core.WordDiffs-&gt;benchmarkstt.metrics.Base" style="stroke: #A80036; stroke-width: 1.0;"/><polygon fill="none" points="688.175,1071.35,709.126,1074.53,690.77,1085.11,688.175,1071.35" style="stroke: #A80036; stroke-width: 1.0;"/><!--MD5=[37b78c1ccfb2aa358bb80ebaa0498fb9]
link benchmarkstt.normalization.BaseWithFileSupport to benchmarkstt.normalization.Base--><path codeLine="189" d="M370.652,1939 C477.926,1939 670.914,1939 783.274,1939 " fill="none" id="benchmarkstt.normalization.BaseWithFileSupport-&gt;benchmarkstt.normalization.Base" style="stroke: #A80036; stroke-width: 1.0;"/><polygon fill="none" points="783.613,1932,803.613,1939,783.613,1946,783.613,1932" style="stroke: #A80036; stroke-width: 1.0;"/><!--MD5=[3cb413da968790238c893a408b0305b7]
link benchmarkstt.normalization.File to benchmarkstt.normalization.Base--><path codeLine="190" d="M471.135,2018.558 C575.06,1997.881 701.528,1972.719 784.034,1956.303 " fill="none" id="benchmarkstt.normalization.File-&gt;benchmarkstt.normalization.Base" style="stroke: #A80036; stroke-width: 1.0;"/><polygon fill="none" points="782.784,1949.415,803.765,1952.377,785.516,1963.145,782.784,1949.415" style="stroke: #A80036; stroke-width: 1.0;"/><!--MD5=[1d9bf0412570d18f63d4da37cb64a359]
link benchmarkstt.normalization.NormalizationComposite to benchmarkstt.normalization.Base--><path codeLine="191" d="M381.203,2168.2925 C438.145,2157.715 513.067,2140.516 576,2115 C658.695,2081.471 745.5,2027.012 803.36,1987.543 " fill="none" id="benchmarkstt.normalization.NormalizationComposite-&gt;benchmarkstt.normalization.Base" style="stroke: #A80036; stroke-width: 1.0;"/><polygon fill="none" points="799.547,1981.669,819.983,1976.071,807.498,1993.192,799.547,1981.669" style="stroke: #A80036; stroke-width: 1.0;"/><!--MD5=[6bdc621115045471a8cfdc5ce298ccfe]
link benchmarkstt.normalization.core.Lowercase to benchmarkstt.normalization.Base--><path codeLine="192" d="M360.147,1686.249 C418.949,1692.645 505.734,1706.512 576,1736 C666.458,1773.961 757.482,1842.251 814.006,1889.059 " fill="none" id="benchmarkstt.normalization.core.Lowercase-&gt;benchmarkstt.normalization.Base" style="stroke: #A80036; stroke-width: 1.0;"/><polygon fill="none" points="818.538,1883.724,829.354,1901.945,809.536,1894.445,818.538,1883.724" style="stroke: #A80036; stroke-width: 1.0;"/><!--MD5=[67ef114bf6deee132ce638be27e9ed25]
link benchmarkstt.normalization.core.Unidecode to benchmarkstt.normalization.Base--><path codeLine="193" d="M360.152,1807.311 C465.216,1834.395 668.411,1886.776 784.361,1916.666 " fill="none" id="benchmarkstt.normalization.core.Unidecode-&gt;benchmarkstt.normalization.Base" style="stroke: #A80036; stroke-width: 1.0;"/><polygon fill="none" points="786.299,1909.936,803.918,1921.707,782.804,1923.493,786.299,1909.936" style="stroke: #A80036; stroke-width: 1.0;"/><!--MD5=[771004f418eb3c217d1e55052c84e8c1]
link benchmarkstt.input.core.File to benchmarkstt.input.Base--><path codeLine="194" d="M459.019,1395.49 C573.25,1384.817 718.994,1371.201 802.983,1363.354 " fill="none" id="benchmarkstt.input.core.File-&gt;benchmarkstt.input.Base" style="stroke: #A80036; stroke-width: 1.0;"/><polygon fill="none" points="802.385,1356.38,822.949,1361.489,803.687,1370.319,802.385,1356.38" style="stroke: #A80036; stroke-width: 1.0;"/><!--MD5=[38c47d21492b1cc4a827009b25b5ec84]
link benchmarkstt.segmentation.core.Simple to benchmarkstt.segmentation.Base--><path codeLine="195" d="M473.505,521 C585.248,521 722.306,521 802.808,521 " fill="none" id="benchmarkstt.segmentation.core.Simple-&gt;benchmarkstt.segmentation.Base" style="stroke: #A80036; stroke-width: 1.0;"/><polygon fill="none" points="802.975,514,822.975,521,802.975,528,802.975,514" style="stroke: #A80036; stroke-width: 1.0;"/><!--MD5=[2a8182dc3464d20f1187ad0ef6eb53df]
link benchmarkstt.output.core.Json to benchmarkstt.output.Base--><path codeLine="196" d="M420.673,349.8 C611.404,336.05 969.848,310.21 1171.68,295.66 " fill="none" id="benchmarkstt.output.core.Json-&gt;benchmarkstt.output.Base" style="stroke: #A80036; stroke-width: 1.0;"/><polygon fill="none" points="1171.45,288.65,1191.9,294.2,1172.46,302.62,1171.45,288.65" style="stroke: #A80036; stroke-width: 1.0;"/><!--MD5=[2bccf275cbe3aceb7db1ce9b7dd39b52]
link benchmarkstt.output.core.MarkDown to benchmarkstt.output.core.SimpleTextBase--><path codeLine="197" d="M420.56,120.57 C510.103,141.33 630.09,169.15 723.71,190.85 " fill="none" id="benchmarkstt.output.core.MarkDown-&gt;benchmarkstt.output.core.SimpleTextBase" style="stroke: #A80036; stroke-width: 1.0;"/><polygon fill="none" points="725.365,184.05,743.267,195.39,722.203,197.69,725.365,184.05" style="stroke: #A80036; stroke-width: 1.0;"/><!--MD5=[0d62d6bcbda8bc239da923eb8754439f]
link benchmarkstt.output.core.ReStructuredText to benchmarkstt.output.core.SimpleTextBase--><path codeLine="198" d="M420.56,225 C509.916,225 629.588,225 723.122,225 " fill="none" id="benchmarkstt.output.core.ReStructuredText-&gt;benchmarkstt.output.core.SimpleTextBase" style="stroke: #A80036; stroke-width: 1.0;"/><polygon fill="none" points="723.267,218,743.267,225,723.267,232,723.267,218" style="stroke: #A80036; stroke-width: 1.0;"/><!--MD5=[4e9bbf76320290330975bd62852c480e]
link benchmarkstt.output.core.SimpleTextBase to benchmarkstt.output.Base--><path codeLine="199" d="M1000.65,242.15 C1054.02,249.32 1116.37,257.7 1171.71,265.14 " fill="none" id="benchmarkstt.output.core.SimpleTextBase-&gt;benchmarkstt.output.Base" style="stroke: #A80036; stroke-width: 1.0;"/><polygon fill="none" points="1172.87,258.23,1191.76,267.83,1171,272.11,1172.87,258.23" style="stroke: #A80036; stroke-width: 1.0;"/><!--MD5=[fc515ff5f538ddb2de0de85c2c4e4e49]
@startuml
left to right direction

		class benchmarkstt.normalization.core.Config {
			+__init__(self, file, section=None, encoding=None)
			+__repr__(self)
			+normalize(cls, text)

		}


		class benchmarkstt.input.core.PlainText {
			+__init__(self, text, segmenter=None, normalizer=None)
			+__iter__(self)

		}


		class benchmarkstt.metrics.Base {
			+compare(self, ref: benchmarkstt.schema.Schema, hyp: benchmarkstt.schema.Schema)

		}


		class benchmarkstt.metrics.core.DiffCounts {
			+__init__(self, differ_class=None)
			+compare(self, ref: benchmarkstt.schema.Schema, hyp: benchmarkstt.schema.Schema)

		}


		class benchmarkstt.diff.core.RatcliffObershelp {
			+__init__(self, a, b, *args, **kwargs)
			+find_longest_match(self, alo, ahi, blo, bhi)
			+get_grouped_opcodes(self, n=3)
			+get_matching_blocks(self)
			+get_opcodes(self)
			+quick_ratio(self)
			+ratio(self)
			+real_quick_ratio(self)
			+set_seq1(self, a)
			+set_seq2(self, b)
			+set_seqs(self, a, b)

		}


		class benchmarkstt.metrics.core.WER {
			+__init__(self, mode=None, differ_class=None)
			+compare(self, ref: benchmarkstt.schema.Schema, hyp: benchmarkstt.schema.Schema)

		}


		class benchmarkstt.metrics.core.WordDiffs {
			+__init__(self, dialect=None, differ_class=None)
			+compare(self, ref: benchmarkstt.schema.Schema, hyp: benchmarkstt.schema.Schema)

		}


		class benchmarkstt.normalization.Base {
			+__repr__(self)
			+normalize(cls, text)

		}


		class benchmarkstt.normalization.BaseWithFileSupport {
			+__repr__(self)
			+normalize(cls, text)

		}


		class benchmarkstt.normalization.File {
			+__init__(self, normalizer, file, encoding=None, path=None)
			+__repr__(self)
			+normalize(cls, text)

		}


		class benchmarkstt.normalization.NormalizationComposite {
			+__init__(self, title=None)
			+__repr__(self)
			+add(self, normalizer)
			+normalize(cls, text)

		}


		class benchmarkstt.normalization.core.Lowercase {
			+__repr__(self)
			+normalize(cls, text)

		}


		class benchmarkstt.normalization.core.Unidecode {
			+__repr__(self)
			+normalize(cls, text)

		}


		class benchmarkstt.input.Base {
			+__iter__(self)

		}


		class benchmarkstt.input.core.File {
			+__init__(self, file, input_type=None, normalizer=None)
			+__iter__(self)

		}


		class benchmarkstt.segmentation.Base {
			+__iter__(self)

		}


		class benchmarkstt.segmentation.core.Simple {
			+__init__(self, text: str, pattern='[\\n\\t\\s]+', normalizer=None)
			+__iter__(self)

		}


		class benchmarkstt.output.Base {
			+__enter__(self)
			+__exit__(self, exc_type, exc_val, exc_tb)
			+result(self, title, result)

		}


		class benchmarkstt.output.core.Json {
			+__enter__(self)
			+__exit__(self, exc_type, exc_val, exc_tb)
			+__init__(self)
			+result(self, title, result)

		}


		class benchmarkstt.output.core.MarkDown {
			+__enter__(self)
			+__exit__(self, exc_type, exc_val, exc_tb)
			+print(self, result)
			+result(self, title, result)

		}


		class benchmarkstt.output.core.ReStructuredText {
			+__enter__(self)
			+__exit__(self, exc_type, exc_val, exc_tb)
			+print(self, result)
			+result(self, title, result)

		}


		class benchmarkstt.output.core.SimpleTextBase {
			+__enter__(self)
			+__exit__(self, exc_type, exc_val, exc_tb)
			+print(self, result)
			+result(self, title, result)

		}


		class benchmarkstt.diff.Base {
			+__init__(self, a='', b='')
			+get_opcodes(self)

		}


benchmarkstt.normalization.core.Config - -|> benchmarkstt.normalization.Base
benchmarkstt.input.core.PlainText - -|> benchmarkstt.input.Base
benchmarkstt.metrics.core.DiffCounts - -|> benchmarkstt.metrics.Base
benchmarkstt.diff.core.RatcliffObershelp - -|> benchmarkstt.diff.Base
benchmarkstt.metrics.core.WER - -|> benchmarkstt.metrics.Base
benchmarkstt.metrics.core.WordDiffs - -|> benchmarkstt.metrics.Base
benchmarkstt.normalization.BaseWithFileSupport - -|> benchmarkstt.normalization.Base
benchmarkstt.normalization.File - -|> benchmarkstt.normalization.Base
benchmarkstt.normalization.NormalizationComposite - -|> benchmarkstt.normalization.Base
benchmarkstt.normalization.core.Lowercase - -|> benchmarkstt.normalization.Base
benchmarkstt.normalization.core.Unidecode - -|> benchmarkstt.normalization.Base
benchmarkstt.input.core.File - -|> benchmarkstt.input.Base
benchmarkstt.segmentation.core.Simple - -|> benchmarkstt.segmentation.Base
benchmarkstt.output.core.Json - -|> benchmarkstt.output.Base
benchmarkstt.output.core.MarkDown - -|> benchmarkstt.output.core.SimpleTextBase
benchmarkstt.output.core.ReStructuredText - -|> benchmarkstt.output.core.SimpleTextBase
benchmarkstt.output.core.SimpleTextBase - -|> benchmarkstt.output.Base
@enduml

PlantUML version 1.2020.16beta7(Unknown compile time)
(GPL source distribution)
Java Runtime: Java(TM) SE Runtime Environment
JVM: Java HotSpot(TM) 64-Bit Server VM
Default Encoding: UTF-8
Language: en
Country: US
--></g></svg>