<?xml version="1.0" encoding="UTF-8" standalone="no"?><svg xmlns="http://www.w3.org/2000/svg" xmlns:xlink="http://www.w3.org/1999/xlink" contentScriptType="application/ecmascript" contentStyleType="text/css" height="580px" preserveAspectRatio="none" style="width:5627px;height:580px;" version="1.1" viewBox="0 0 5627 580" width="5627px" zoomAndPan="magnify"><defs><filter height="300%" id="f1f1vdshj99zku" width="300%" x="-1" y="-1"><feGaussianBlur result="blurOut" stdDeviation="2.0"/><feColorMatrix in="blurOut" result="blurOut2" type="matrix" values="0 0 0 0 0 0 0 0 0 0 0 0 0 0 0 0 0 0 .4 0"/><feOffset dx="4.0" dy="4.0" in="blurOut2" result="blurOut3"/><feBlend in="SourceGraphic" in2="blurOut3" mode="normal"/></filter></defs><g><!--MD5=[32fbec9dac052c23fb29020cf729fbb3]
cluster benchmarkstt.normalization.core--><polygon fill="#FFFFFF" filter="url(#f1f1vdshj99zku)" points="16,57.5,295,57.5,302,79.7969,696,79.7969,696,194.5,16,194.5,16,57.5" style="stroke: #000000; stroke-width: 1.5;"/><line style="stroke: #000000; stroke-width: 1.5;" x1="16" x2="302" y1="79.7969" y2="79.7969"/><text fill="#000000" font-family="sans-serif" font-size="14" font-weight="bold" lengthAdjust="spacingAndGlyphs" textLength="273" x="20" y="72.4951">benchmarkstt.normalization.core</text><!--MD5=[5c7a64d73ca244446f0e70026cf5d0bf]
cluster benchmarkstt.input.core--><polygon fill="#FFFFFF" filter="url(#f1f1vdshj99zku)" points="1540,63.5,1748,63.5,1755,85.7969,2283,85.7969,2283,188.5,1540,188.5,1540,63.5" style="stroke: #000000; stroke-width: 1.5;"/><line style="stroke: #000000; stroke-width: 1.5;" x1="1540" x2="1755" y1="85.7969" y2="85.7969"/><text fill="#000000" font-family="sans-serif" font-size="14" font-weight="bold" lengthAdjust="spacingAndGlyphs" textLength="202" x="1544" y="78.4951">benchmarkstt.input.core</text><!--MD5=[22ea792f0a86ed46e658ff5419811104]
cluster benchmarkstt.metrics--><polygon fill="#FFFFFF" filter="url(#f1f1vdshj99zku)" points="2862,276.5,3049,276.5,3056,298.7969,3414,298.7969,3414,388.5,2862,388.5,2862,276.5" style="stroke: #000000; stroke-width: 1.5;"/><line style="stroke: #000000; stroke-width: 1.5;" x1="2862" x2="3056" y1="298.7969" y2="298.7969"/><text fill="#000000" font-family="sans-serif" font-size="14" font-weight="bold" lengthAdjust="spacingAndGlyphs" textLength="181" x="2866" y="291.4951">benchmarkstt.metrics</text><!--MD5=[144dc3a7777fd2b902a939eb9db82fdd]
cluster benchmarkstt.metrics.core--><polygon fill="#FFFFFF" filter="url(#f1f1vdshj99zku)" points="2307,63.5,2534,63.5,2541,85.7969,3969,85.7969,3969,188.5,2307,188.5,2307,63.5" style="stroke: #000000; stroke-width: 1.5;"/><line style="stroke: #000000; stroke-width: 1.5;" x1="2307" x2="2541" y1="85.7969" y2="85.7969"/><text fill="#000000" font-family="sans-serif" font-size="14" font-weight="bold" lengthAdjust="spacingAndGlyphs" textLength="221" x="2311" y="78.4951">benchmarkstt.metrics.core</text><!--MD5=[09ed425bc4f616bbad3d6f8b00541a65]
cluster benchmarkstt.diff.core--><polygon fill="#FFFFFF" filter="url(#f1f1vdshj99zku)" points="3993,6,4187,6,4194,28.2969,4287,28.2969,4287,246,3993,246,3993,6" style="stroke: #000000; stroke-width: 1.5;"/><line style="stroke: #000000; stroke-width: 1.5;" x1="3993" x2="4194" y1="28.2969" y2="28.2969"/><text fill="#000000" font-family="sans-serif" font-size="14" font-weight="bold" lengthAdjust="spacingAndGlyphs" textLength="188" x="3997" y="20.9951">benchmarkstt.diff.core</text><!--MD5=[24f62e7049ba18d46b504c61d91c5470]
cluster benchmarkstt.normalization--><polygon fill="#FFFFFF" filter="url(#f1f1vdshj99zku)" points="720,51,959,51,966,73.2969,1516,73.2969,1516,395,720,395,720,51" style="stroke: #000000; stroke-width: 1.5;"/><line style="stroke: #000000; stroke-width: 1.5;" x1="720" x2="966" y1="73.2969" y2="73.2969"/><text fill="#000000" font-family="sans-serif" font-size="14" font-weight="bold" lengthAdjust="spacingAndGlyphs" textLength="233" x="724" y="65.9951">benchmarkstt.normalization</text><!--MD5=[94de2ef9dde389aecb44d7f232eba8a2]
cluster benchmarkstt.input--><polygon fill="#FFFFFF" filter="url(#f1f1vdshj99zku)" points="1820,276.5,1988,276.5,1995,298.7969,1998,298.7969,1998,388.5,1820,388.5,1820,276.5" style="stroke: #000000; stroke-width: 1.5;"/><line style="stroke: #000000; stroke-width: 1.5;" x1="1820" x2="1995" y1="298.7969" y2="298.7969"/><text fill="#000000" font-family="sans-serif" font-size="14" font-weight="bold" lengthAdjust="spacingAndGlyphs" textLength="162" x="1824" y="291.4951">benchmarkstt.input</text><!--MD5=[65eb5fcee437765d99707c9196661bb6]
cluster benchmarkstt.segmentation--><polygon fill="#FFFFFF" filter="url(#f1f1vdshj99zku)" points="4385,276.5,4623,276.5,4630,298.7969,4633,298.7969,4633,388.5,4385,388.5,4385,276.5" style="stroke: #000000; stroke-width: 1.5;"/><line style="stroke: #000000; stroke-width: 1.5;" x1="4385" x2="4630" y1="298.7969" y2="298.7969"/><text fill="#000000" font-family="sans-serif" font-size="14" font-weight="bold" lengthAdjust="spacingAndGlyphs" textLength="232" x="4389" y="291.4951">benchmarkstt.segmentation</text><!--MD5=[bbd7f55af96c8522598147a787b5c5b9]
cluster benchmarkstt.segmentation.core--><polygon fill="#FFFFFF" filter="url(#f1f1vdshj99zku)" points="4311,63.5,4589,63.5,4596,85.7969,4707,85.7969,4707,188.5,4311,188.5,4311,63.5" style="stroke: #000000; stroke-width: 1.5;"/><line style="stroke: #000000; stroke-width: 1.5;" x1="4311" x2="4596" y1="85.7969" y2="85.7969"/><text fill="#000000" font-family="sans-serif" font-size="14" font-weight="bold" lengthAdjust="spacingAndGlyphs" textLength="272" x="4315" y="78.4951">benchmarkstt.segmentation.core</text><!--MD5=[c2f5f1914e6a0fca7cbdb2b44310c20b]
cluster benchmarkstt.output--><polygon fill="#FFFFFF" filter="url(#f1f1vdshj99zku)" points="5141,431.5,5322,431.5,5329,453.7969,5431,453.7969,5431,568.5,5141,568.5,5141,431.5" style="stroke: #000000; stroke-width: 1.5;"/><line style="stroke: #000000; stroke-width: 1.5;" x1="5141" x2="5329" y1="453.7969" y2="453.7969"/><text fill="#000000" font-family="sans-serif" font-size="14" font-weight="bold" lengthAdjust="spacingAndGlyphs" textLength="175" x="5145" y="446.4951">benchmarkstt.output</text><!--MD5=[847d3ee6f8e67faab7de214c96ed8267]
cluster benchmarkstt.output.core--><polygon fill="#FFFFFF" filter="url(#f1f1vdshj99zku)" points="4731,51,4952,51,4959,73.2969,5605,73.2969,5605,407.5,4731,407.5,4731,51" style="stroke: #000000; stroke-width: 1.5;"/><line style="stroke: #000000; stroke-width: 1.5;" x1="4731" x2="4959" y1="73.2969" y2="73.2969"/><text fill="#000000" font-family="sans-serif" font-size="14" font-weight="bold" lengthAdjust="spacingAndGlyphs" textLength="215" x="4735" y="65.9951">benchmarkstt.output.core</text><!--MD5=[b21609c0e4e09564ea14466d1d899cfe]
cluster benchmarkstt.diff--><polygon fill="#FFFFFF" filter="url(#f1f1vdshj99zku)" points="4047,270,4201,270,4208,292.2969,4233,292.2969,4233,395,4047,395,4047,270" style="stroke: #000000; stroke-width: 1.5;"/><line style="stroke: #000000; stroke-width: 1.5;" x1="4047" x2="4208" y1="292.2969" y2="292.2969"/><text fill="#000000" font-family="sans-serif" font-size="14" font-weight="bold" lengthAdjust="spacingAndGlyphs" textLength="148" x="4051" y="284.9951">benchmarkstt.diff</text><!--MD5=[ba2ead4b28f3a03c2b9b4db307c82486]
class benchmarkstt.normalization.core.Config--><rect codeLine="1" fill="#FEFECE" filter="url(#f1f1vdshj99zku)" height="86.4141" id="benchmarkstt.normalization.core.Config" style="stroke: #A80036; stroke-width: 1.5;" width="306" x="374" y="92.5"/><ellipse cx="503.75" cy="108.5" fill="#ADD1B2" rx="11" ry="11" style="stroke: #A80036; stroke-width: 1.0;"/><path d="M506.0938,104.1719 C505.1563,103.7344 504.5625,103.5938 503.6875,103.5938 C501.0625,103.5938 499.0625,105.6719 499.0625,108.3906 L499.0625,109.5156 C499.0625,112.0938 501.1719,113.9844 504.0625,113.9844 C505.2813,113.9844 506.4375,113.6875 507.1875,113.1406 C507.7656,112.7344 508.0938,112.2813 508.0938,111.8906 C508.0938,111.4375 507.7031,111.0469 507.2344,111.0469 C507.0156,111.0469 506.8125,111.125 506.625,111.3125 C506.1719,111.7969 506.1719,111.7969 505.9844,111.8906 C505.5625,112.1563 504.875,112.2813 504.1094,112.2813 C502.0625,112.2813 500.7656,111.1875 500.7656,109.4844 L500.7656,108.3906 C500.7656,106.6094 502.0156,105.2969 503.75,105.2969 C504.3281,105.2969 504.9375,105.4531 505.4063,105.7031 C505.8906,105.9844 506.0625,106.2031 506.1563,106.6094 C506.2188,107.0156 506.25,107.1406 506.3906,107.2656 C506.5313,107.4063 506.7656,107.5156 506.9844,107.5156 C507.25,107.5156 507.5156,107.375 507.6875,107.1563 C507.7969,107 507.8281,106.8125 507.8281,106.3906 L507.8281,104.9688 C507.8281,104.5313 507.8125,104.4063 507.7188,104.25 C507.5625,103.9844 507.2813,103.8438 506.9844,103.8438 C506.6875,103.8438 506.4844,103.9375 506.2656,104.25 L506.0938,104.1719 Z "/><text fill="#000000" font-family="sans-serif" font-size="12" lengthAdjust="spacingAndGlyphs" textLength="38" x="524.25" y="112.6543">Config</text><line style="stroke: #A80036; stroke-width: 1.5;" x1="375" x2="679" y1="124.5" y2="124.5"/><line style="stroke: #A80036; stroke-width: 1.5;" x1="375" x2="679" y1="132.5" y2="132.5"/><ellipse cx="385" cy="143.5" fill="#84BE84" rx="3" ry="3" style="stroke: #038048; stroke-width: 1.0;"/><text fill="#000000" font-family="sans-serif" font-size="11" lengthAdjust="spacingAndGlyphs" textLength="280" x="394" y="146.7104">__init__(self, file, section=None, encoding=None)</text><ellipse cx="385" cy="156.3047" fill="#84BE84" rx="3" ry="3" style="stroke: #038048; stroke-width: 1.0;"/><text fill="#000000" font-family="sans-serif" font-size="11" lengthAdjust="spacingAndGlyphs" textLength="76" x="394" y="159.5151">__repr__(self)</text><ellipse cx="385" cy="169.1094" fill="#84BE84" rx="3" ry="3" style="stroke: #038048; stroke-width: 1.0;"/><text fill="#000000" font-family="sans-serif" font-size="11" lengthAdjust="spacingAndGlyphs" textLength="110" x="394" y="172.3198">normalize(cls, text)</text><!--MD5=[3386d7986a9642d77be9dbce485d3f6c]
class benchmarkstt.normalization.core.Lowercase--><rect codeLine="90" fill="#FEFECE" filter="url(#f1f1vdshj99zku)" height="73.6094" id="benchmarkstt.normalization.core.Lowercase" style="stroke: #A80036; stroke-width: 1.5;" width="136" x="203" y="98.5"/><ellipse cx="235.1" cy="114.5" fill="#ADD1B2" rx="11" ry="11" style="stroke: #A80036; stroke-width: 1.0;"/><path d="M237.4438,110.1719 C236.5063,109.7344 235.9125,109.5938 235.0375,109.5938 C232.4125,109.5938 230.4125,111.6719 230.4125,114.3906 L230.4125,115.5156 C230.4125,118.0938 232.5219,119.9844 235.4125,119.9844 C236.6313,119.9844 237.7875,119.6875 238.5375,119.1406 C239.1156,118.7344 239.4438,118.2813 239.4438,117.8906 C239.4438,117.4375 239.0531,117.0469 238.5844,117.0469 C238.3656,117.0469 238.1625,117.125 237.975,117.3125 C237.5219,117.7969 237.5219,117.7969 237.3344,117.8906 C236.9125,118.1563 236.225,118.2813 235.4594,118.2813 C233.4125,118.2813 232.1156,117.1875 232.1156,115.4844 L232.1156,114.3906 C232.1156,112.6094 233.3656,111.2969 235.1,111.2969 C235.6781,111.2969 236.2875,111.4531 236.7563,111.7031 C237.2406,111.9844 237.4125,112.2031 237.5063,112.6094 C237.5688,113.0156 237.6,113.1406 237.7406,113.2656 C237.8813,113.4063 238.1156,113.5156 238.3344,113.5156 C238.6,113.5156 238.8656,113.375 239.0375,113.1563 C239.1469,113 239.1781,112.8125 239.1781,112.3906 L239.1781,110.9688 C239.1781,110.5313 239.1625,110.4063 239.0688,110.25 C238.9125,109.9844 238.6313,109.8438 238.3344,109.8438 C238.0375,109.8438 237.8344,109.9375 237.6156,110.25 L237.4438,110.1719 Z "/><text fill="#000000" font-family="sans-serif" font-size="12" lengthAdjust="spacingAndGlyphs" textLength="66" x="252.9" y="118.6543">Lowercase</text><line style="stroke: #A80036; stroke-width: 1.5;" x1="204" x2="338" y1="130.5" y2="130.5"/><line style="stroke: #A80036; stroke-width: 1.5;" x1="204" x2="338" y1="138.5" y2="138.5"/><ellipse cx="214" cy="149.5" fill="#84BE84" rx="3" ry="3" style="stroke: #038048; stroke-width: 1.0;"/><text fill="#000000" font-family="sans-serif" font-size="11" lengthAdjust="spacingAndGlyphs" textLength="76" x="223" y="152.7104">__repr__(self)</text><ellipse cx="214" cy="162.3047" fill="#84BE84" rx="3" ry="3" style="stroke: #038048; stroke-width: 1.0;"/><text fill="#000000" font-family="sans-serif" font-size="11" lengthAdjust="spacingAndGlyphs" textLength="110" x="223" y="165.5151">normalize(cls, text)</text><!--MD5=[361c1c4989d33e751f8f1a8124b4d3c8]
class benchmarkstt.normalization.core.Unidecode--><rect codeLine="97" fill="#FEFECE" filter="url(#f1f1vdshj99zku)" height="73.6094" id="benchmarkstt.normalization.core.Unidecode" style="stroke: #A80036; stroke-width: 1.5;" width="136" x="32" y="98.5"/><ellipse cx="64.1" cy="114.5" fill="#ADD1B2" rx="11" ry="11" style="stroke: #A80036; stroke-width: 1.0;"/><path d="M66.4438,110.1719 C65.5063,109.7344 64.9125,109.5938 64.0375,109.5938 C61.4125,109.5938 59.4125,111.6719 59.4125,114.3906 L59.4125,115.5156 C59.4125,118.0938 61.5219,119.9844 64.4125,119.9844 C65.6313,119.9844 66.7875,119.6875 67.5375,119.1406 C68.1156,118.7344 68.4438,118.2813 68.4438,117.8906 C68.4438,117.4375 68.0531,117.0469 67.5844,117.0469 C67.3656,117.0469 67.1625,117.125 66.975,117.3125 C66.5219,117.7969 66.5219,117.7969 66.3344,117.8906 C65.9125,118.1563 65.225,118.2813 64.4594,118.2813 C62.4125,118.2813 61.1156,117.1875 61.1156,115.4844 L61.1156,114.3906 C61.1156,112.6094 62.3656,111.2969 64.1,111.2969 C64.6781,111.2969 65.2875,111.4531 65.7563,111.7031 C66.2406,111.9844 66.4125,112.2031 66.5063,112.6094 C66.5688,113.0156 66.6,113.1406 66.7406,113.2656 C66.8813,113.4063 67.1156,113.5156 67.3344,113.5156 C67.6,113.5156 67.8656,113.375 68.0375,113.1563 C68.1469,113 68.1781,112.8125 68.1781,112.3906 L68.1781,110.9688 C68.1781,110.5313 68.1625,110.4063 68.0688,110.25 C67.9125,109.9844 67.6313,109.8438 67.3344,109.8438 C67.0375,109.8438 66.8344,109.9375 66.6156,110.25 L66.4438,110.1719 Z "/><text fill="#000000" font-family="sans-serif" font-size="12" lengthAdjust="spacingAndGlyphs" textLength="66" x="81.9" y="118.6543">Unidecode</text><line style="stroke: #A80036; stroke-width: 1.5;" x1="33" x2="167" y1="130.5" y2="130.5"/><line style="stroke: #A80036; stroke-width: 1.5;" x1="33" x2="167" y1="138.5" y2="138.5"/><ellipse cx="43" cy="149.5" fill="#84BE84" rx="3" ry="3" style="stroke: #038048; stroke-width: 1.0;"/><text fill="#000000" font-family="sans-serif" font-size="11" lengthAdjust="spacingAndGlyphs" textLength="76" x="52" y="152.7104">__repr__(self)</text><ellipse cx="43" cy="162.3047" fill="#84BE84" rx="3" ry="3" style="stroke: #038048; stroke-width: 1.0;"/><text fill="#000000" font-family="sans-serif" font-size="11" lengthAdjust="spacingAndGlyphs" textLength="110" x="52" y="165.5151">normalize(cls, text)</text><!--MD5=[3edd34d35203ceb4dd4fa63a3b0c665d]
class benchmarkstt.input.core.PlainText--><rect codeLine="9" fill="#FEFECE" filter="url(#f1f1vdshj99zku)" height="73.6094" id="benchmarkstt.input.core.PlainText" style="stroke: #A80036; stroke-width: 1.5;" width="342" x="1925" y="98.5"/><ellipse cx="2065.75" cy="114.5" fill="#ADD1B2" rx="11" ry="11" style="stroke: #A80036; stroke-width: 1.0;"/><path d="M2068.0938,110.1719 C2067.1563,109.7344 2066.5625,109.5938 2065.6875,109.5938 C2063.0625,109.5938 2061.0625,111.6719 2061.0625,114.3906 L2061.0625,115.5156 C2061.0625,118.0938 2063.1719,119.9844 2066.0625,119.9844 C2067.2813,119.9844 2068.4375,119.6875 2069.1875,119.1406 C2069.7656,118.7344 2070.0938,118.2813 2070.0938,117.8906 C2070.0938,117.4375 2069.7031,117.0469 2069.2344,117.0469 C2069.0156,117.0469 2068.8125,117.125 2068.625,117.3125 C2068.1719,117.7969 2068.1719,117.7969 2067.9844,117.8906 C2067.5625,118.1563 2066.875,118.2813 2066.1094,118.2813 C2064.0625,118.2813 2062.7656,117.1875 2062.7656,115.4844 L2062.7656,114.3906 C2062.7656,112.6094 2064.0156,111.2969 2065.75,111.2969 C2066.3281,111.2969 2066.9375,111.4531 2067.4063,111.7031 C2067.8906,111.9844 2068.0625,112.2031 2068.1563,112.6094 C2068.2188,113.0156 2068.25,113.1406 2068.3906,113.2656 C2068.5313,113.4063 2068.7656,113.5156 2068.9844,113.5156 C2069.25,113.5156 2069.5156,113.375 2069.6875,113.1563 C2069.7969,113 2069.8281,112.8125 2069.8281,112.3906 L2069.8281,110.9688 C2069.8281,110.5313 2069.8125,110.4063 2069.7188,110.25 C2069.5625,109.9844 2069.2813,109.8438 2068.9844,109.8438 C2068.6875,109.8438 2068.4844,109.9375 2068.2656,110.25 L2068.0938,110.1719 Z "/><text fill="#000000" font-family="sans-serif" font-size="12" lengthAdjust="spacingAndGlyphs" textLength="52" x="2086.25" y="118.6543">PlainText</text><line style="stroke: #A80036; stroke-width: 1.5;" x1="1926" x2="2266" y1="130.5" y2="130.5"/><line style="stroke: #A80036; stroke-width: 1.5;" x1="1926" x2="2266" y1="138.5" y2="138.5"/><ellipse cx="1936" cy="149.5" fill="#84BE84" rx="3" ry="3" style="stroke: #038048; stroke-width: 1.0;"/><text fill="#000000" font-family="sans-serif" font-size="11" lengthAdjust="spacingAndGlyphs" textLength="316" x="1945" y="152.7104">__init__(self, text, segmenter=None, normalizer=None)</text><ellipse cx="1936" cy="162.3047" fill="#84BE84" rx="3" ry="3" style="stroke: #038048; stroke-width: 1.0;"/><text fill="#000000" font-family="sans-serif" font-size="11" lengthAdjust="spacingAndGlyphs" textLength="72" x="1945" y="165.5151">__iter__(self)</text><!--MD5=[4843f7accda627844ca340f5d1efa37d]
class benchmarkstt.input.core.File--><rect codeLine="110" fill="#FEFECE" filter="url(#f1f1vdshj99zku)" height="73.6094" id="benchmarkstt.input.core.File" style="stroke: #A80036; stroke-width: 1.5;" width="334" x="1556" y="98.5"/><ellipse cx="1708.25" cy="114.5" fill="#ADD1B2" rx="11" ry="11" style="stroke: #A80036; stroke-width: 1.0;"/><path d="M1710.5938,110.1719 C1709.6563,109.7344 1709.0625,109.5938 1708.1875,109.5938 C1705.5625,109.5938 1703.5625,111.6719 1703.5625,114.3906 L1703.5625,115.5156 C1703.5625,118.0938 1705.6719,119.9844 1708.5625,119.9844 C1709.7813,119.9844 1710.9375,119.6875 1711.6875,119.1406 C1712.2656,118.7344 1712.5938,118.2813 1712.5938,117.8906 C1712.5938,117.4375 1712.2031,117.0469 1711.7344,117.0469 C1711.5156,117.0469 1711.3125,117.125 1711.125,117.3125 C1710.6719,117.7969 1710.6719,117.7969 1710.4844,117.8906 C1710.0625,118.1563 1709.375,118.2813 1708.6094,118.2813 C1706.5625,118.2813 1705.2656,117.1875 1705.2656,115.4844 L1705.2656,114.3906 C1705.2656,112.6094 1706.5156,111.2969 1708.25,111.2969 C1708.8281,111.2969 1709.4375,111.4531 1709.9063,111.7031 C1710.3906,111.9844 1710.5625,112.2031 1710.6563,112.6094 C1710.7188,113.0156 1710.75,113.1406 1710.8906,113.2656 C1711.0313,113.4063 1711.2656,113.5156 1711.4844,113.5156 C1711.75,113.5156 1712.0156,113.375 1712.1875,113.1563 C1712.2969,113 1712.3281,112.8125 1712.3281,112.3906 L1712.3281,110.9688 C1712.3281,110.5313 1712.3125,110.4063 1712.2188,110.25 C1712.0625,109.9844 1711.7813,109.8438 1711.4844,109.8438 C1711.1875,109.8438 1710.9844,109.9375 1710.7656,110.25 L1710.5938,110.1719 Z "/><text fill="#000000" font-family="sans-serif" font-size="12" lengthAdjust="spacingAndGlyphs" textLength="21" x="1728.75" y="118.6543">File</text><line style="stroke: #A80036; stroke-width: 1.5;" x1="1557" x2="1889" y1="130.5" y2="130.5"/><line style="stroke: #A80036; stroke-width: 1.5;" x1="1557" x2="1889" y1="138.5" y2="138.5"/><ellipse cx="1567" cy="149.5" fill="#84BE84" rx="3" ry="3" style="stroke: #038048; stroke-width: 1.0;"/><text fill="#000000" font-family="sans-serif" font-size="11" lengthAdjust="spacingAndGlyphs" textLength="308" x="1576" y="152.7104">__init__(self, file, input_type=None, normalizer=None)</text><ellipse cx="1567" cy="162.3047" fill="#84BE84" rx="3" ry="3" style="stroke: #038048; stroke-width: 1.0;"/><text fill="#000000" font-family="sans-serif" font-size="11" lengthAdjust="spacingAndGlyphs" textLength="72" x="1576" y="165.5151">__iter__(self)</text><!--MD5=[5df2e3f9a60f5e68627f199cfdd93bb0]
class benchmarkstt.metrics.Base--><rect codeLine="16" fill="#FEFECE" filter="url(#f1f1vdshj99zku)" height="60.8047" id="benchmarkstt.metrics.Base" style="stroke: #A80036; stroke-width: 1.5;" width="520" x="2878" y="311.5"/><ellipse cx="3118.75" cy="327.5" fill="#ADD1B2" rx="11" ry="11" style="stroke: #A80036; stroke-width: 1.0;"/><path d="M3121.0938,323.1719 C3120.1563,322.7344 3119.5625,322.5938 3118.6875,322.5938 C3116.0625,322.5938 3114.0625,324.6719 3114.0625,327.3906 L3114.0625,328.5156 C3114.0625,331.0938 3116.1719,332.9844 3119.0625,332.9844 C3120.2813,332.9844 3121.4375,332.6875 3122.1875,332.1406 C3122.7656,331.7344 3123.0938,331.2813 3123.0938,330.8906 C3123.0938,330.4375 3122.7031,330.0469 3122.2344,330.0469 C3122.0156,330.0469 3121.8125,330.125 3121.625,330.3125 C3121.1719,330.7969 3121.1719,330.7969 3120.9844,330.8906 C3120.5625,331.1563 3119.875,331.2813 3119.1094,331.2813 C3117.0625,331.2813 3115.7656,330.1875 3115.7656,328.4844 L3115.7656,327.3906 C3115.7656,325.6094 3117.0156,324.2969 3118.75,324.2969 C3119.3281,324.2969 3119.9375,324.4531 3120.4063,324.7031 C3120.8906,324.9844 3121.0625,325.2031 3121.1563,325.6094 C3121.2188,326.0156 3121.25,326.1406 3121.3906,326.2656 C3121.5313,326.4063 3121.7656,326.5156 3121.9844,326.5156 C3122.25,326.5156 3122.5156,326.375 3122.6875,326.1563 C3122.7969,326 3122.8281,325.8125 3122.8281,325.3906 L3122.8281,323.9688 C3122.8281,323.5313 3122.8125,323.4063 3122.7188,323.25 C3122.5625,322.9844 3122.2813,322.8438 3121.9844,322.8438 C3121.6875,322.8438 3121.4844,322.9375 3121.2656,323.25 L3121.0938,323.1719 Z "/><text fill="#000000" font-family="sans-serif" font-size="12" lengthAdjust="spacingAndGlyphs" textLength="30" x="3139.25" y="331.6543">Base</text><line style="stroke: #A80036; stroke-width: 1.5;" x1="2879" x2="3397" y1="343.5" y2="343.5"/><line style="stroke: #A80036; stroke-width: 1.5;" x1="2879" x2="3397" y1="351.5" y2="351.5"/><ellipse cx="2889" cy="362.5" fill="#84BE84" rx="3" ry="3" style="stroke: #038048; stroke-width: 1.0;"/><text fill="#000000" font-family="sans-serif" font-size="11" lengthAdjust="spacingAndGlyphs" textLength="494" x="2898" y="365.7104">compare(self, ref: benchmarkstt.schema.Schema, hyp: benchmarkstt.schema.Schema)</text><!--MD5=[16641109c0e363d96d1ecc4c603e3de1]
class benchmarkstt.metrics.core.DiffCounts--><rect codeLine="22" fill="#FEFECE" filter="url(#f1f1vdshj99zku)" height="73.6094" id="benchmarkstt.metrics.core.DiffCounts" style="stroke: #A80036; stroke-width: 1.5;" width="520" x="3433" y="98.5"/><ellipse cx="3658.25" cy="114.5" fill="#ADD1B2" rx="11" ry="11" style="stroke: #A80036; stroke-width: 1.0;"/><path d="M3660.5938,110.1719 C3659.6563,109.7344 3659.0625,109.5938 3658.1875,109.5938 C3655.5625,109.5938 3653.5625,111.6719 3653.5625,114.3906 L3653.5625,115.5156 C3653.5625,118.0938 3655.6719,119.9844 3658.5625,119.9844 C3659.7813,119.9844 3660.9375,119.6875 3661.6875,119.1406 C3662.2656,118.7344 3662.5938,118.2813 3662.5938,117.8906 C3662.5938,117.4375 3662.2031,117.0469 3661.7344,117.0469 C3661.5156,117.0469 3661.3125,117.125 3661.125,117.3125 C3660.6719,117.7969 3660.6719,117.7969 3660.4844,117.8906 C3660.0625,118.1563 3659.375,118.2813 3658.6094,118.2813 C3656.5625,118.2813 3655.2656,117.1875 3655.2656,115.4844 L3655.2656,114.3906 C3655.2656,112.6094 3656.5156,111.2969 3658.25,111.2969 C3658.8281,111.2969 3659.4375,111.4531 3659.9063,111.7031 C3660.3906,111.9844 3660.5625,112.2031 3660.6563,112.6094 C3660.7188,113.0156 3660.75,113.1406 3660.8906,113.2656 C3661.0313,113.4063 3661.2656,113.5156 3661.4844,113.5156 C3661.75,113.5156 3662.0156,113.375 3662.1875,113.1563 C3662.2969,113 3662.3281,112.8125 3662.3281,112.3906 L3662.3281,110.9688 C3662.3281,110.5313 3662.3125,110.4063 3662.2188,110.25 C3662.0625,109.9844 3661.7813,109.8438 3661.4844,109.8438 C3661.1875,109.8438 3660.9844,109.9375 3660.7656,110.25 L3660.5938,110.1719 Z "/><text fill="#000000" font-family="sans-serif" font-size="12" lengthAdjust="spacingAndGlyphs" textLength="61" x="3678.75" y="118.6543">DiffCounts</text><line style="stroke: #A80036; stroke-width: 1.5;" x1="3434" x2="3952" y1="130.5" y2="130.5"/><line style="stroke: #A80036; stroke-width: 1.5;" x1="3434" x2="3952" y1="138.5" y2="138.5"/><ellipse cx="3444" cy="149.5" fill="#84BE84" rx="3" ry="3" style="stroke: #038048; stroke-width: 1.0;"/><text fill="#000000" font-family="sans-serif" font-size="11" lengthAdjust="spacingAndGlyphs" textLength="180" x="3453" y="152.7104">__init__(self, differ_class=None)</text><ellipse cx="3444" cy="162.3047" fill="#84BE84" rx="3" ry="3" style="stroke: #038048; stroke-width: 1.0;"/><text fill="#000000" font-family="sans-serif" font-size="11" lengthAdjust="spacingAndGlyphs" textLength="494" x="3453" y="165.5151">compare(self, ref: benchmarkstt.schema.Schema, hyp: benchmarkstt.schema.Schema)</text><!--MD5=[1b5fccb2ad4a9064da2e7d8609e9b4b6]
class benchmarkstt.metrics.core.WER--><rect codeLine="45" fill="#FEFECE" filter="url(#f1f1vdshj99zku)" height="73.6094" id="benchmarkstt.metrics.core.WER" style="stroke: #A80036; stroke-width: 1.5;" width="520" x="2878" y="98.5"/><ellipse cx="3120.75" cy="114.5" fill="#ADD1B2" rx="11" ry="11" style="stroke: #A80036; stroke-width: 1.0;"/><path d="M3123.0938,110.1719 C3122.1563,109.7344 3121.5625,109.5938 3120.6875,109.5938 C3118.0625,109.5938 3116.0625,111.6719 3116.0625,114.3906 L3116.0625,115.5156 C3116.0625,118.0938 3118.1719,119.9844 3121.0625,119.9844 C3122.2813,119.9844 3123.4375,119.6875 3124.1875,119.1406 C3124.7656,118.7344 3125.0938,118.2813 3125.0938,117.8906 C3125.0938,117.4375 3124.7031,117.0469 3124.2344,117.0469 C3124.0156,117.0469 3123.8125,117.125 3123.625,117.3125 C3123.1719,117.7969 3123.1719,117.7969 3122.9844,117.8906 C3122.5625,118.1563 3121.875,118.2813 3121.1094,118.2813 C3119.0625,118.2813 3117.7656,117.1875 3117.7656,115.4844 L3117.7656,114.3906 C3117.7656,112.6094 3119.0156,111.2969 3120.75,111.2969 C3121.3281,111.2969 3121.9375,111.4531 3122.4063,111.7031 C3122.8906,111.9844 3123.0625,112.2031 3123.1563,112.6094 C3123.2188,113.0156 3123.25,113.1406 3123.3906,113.2656 C3123.5313,113.4063 3123.7656,113.5156 3123.9844,113.5156 C3124.25,113.5156 3124.5156,113.375 3124.6875,113.1563 C3124.7969,113 3124.8281,112.8125 3124.8281,112.3906 L3124.8281,110.9688 C3124.8281,110.5313 3124.8125,110.4063 3124.7188,110.25 C3124.5625,109.9844 3124.2813,109.8438 3123.9844,109.8438 C3123.6875,109.8438 3123.4844,109.9375 3123.2656,110.25 L3123.0938,110.1719 Z "/><text fill="#000000" font-family="sans-serif" font-size="12" lengthAdjust="spacingAndGlyphs" textLength="26" x="3141.25" y="118.6543">WER</text><line style="stroke: #A80036; stroke-width: 1.5;" x1="2879" x2="3397" y1="130.5" y2="130.5"/><line style="stroke: #A80036; stroke-width: 1.5;" x1="2879" x2="3397" y1="138.5" y2="138.5"/><ellipse cx="2889" cy="149.5" fill="#84BE84" rx="3" ry="3" style="stroke: #038048; stroke-width: 1.0;"/><text fill="#000000" font-family="sans-serif" font-size="11" lengthAdjust="spacingAndGlyphs" textLength="259" x="2898" y="152.7104">__init__(self, mode=None, differ_class=None)</text><ellipse cx="2889" cy="162.3047" fill="#84BE84" rx="3" ry="3" style="stroke: #038048; stroke-width: 1.0;"/><text fill="#000000" font-family="sans-serif" font-size="11" lengthAdjust="spacingAndGlyphs" textLength="494" x="2898" y="165.5151">compare(self, ref: benchmarkstt.schema.Schema, hyp: benchmarkstt.schema.Schema)</text><!--MD5=[ef94872a4633e4f53c81dbb8c48f7a6f]
class benchmarkstt.metrics.core.WordDiffs--><rect codeLine="52" fill="#FEFECE" filter="url(#f1f1vdshj99zku)" height="73.6094" id="benchmarkstt.metrics.core.WordDiffs" style="stroke: #A80036; stroke-width: 1.5;" width="520" x="2323" y="98.5"/><ellipse cx="2548.75" cy="114.5" fill="#ADD1B2" rx="11" ry="11" style="stroke: #A80036; stroke-width: 1.0;"/><path d="M2551.0938,110.1719 C2550.1563,109.7344 2549.5625,109.5938 2548.6875,109.5938 C2546.0625,109.5938 2544.0625,111.6719 2544.0625,114.3906 L2544.0625,115.5156 C2544.0625,118.0938 2546.1719,119.9844 2549.0625,119.9844 C2550.2813,119.9844 2551.4375,119.6875 2552.1875,119.1406 C2552.7656,118.7344 2553.0938,118.2813 2553.0938,117.8906 C2553.0938,117.4375 2552.7031,117.0469 2552.2344,117.0469 C2552.0156,117.0469 2551.8125,117.125 2551.625,117.3125 C2551.1719,117.7969 2551.1719,117.7969 2550.9844,117.8906 C2550.5625,118.1563 2549.875,118.2813 2549.1094,118.2813 C2547.0625,118.2813 2545.7656,117.1875 2545.7656,115.4844 L2545.7656,114.3906 C2545.7656,112.6094 2547.0156,111.2969 2548.75,111.2969 C2549.3281,111.2969 2549.9375,111.4531 2550.4063,111.7031 C2550.8906,111.9844 2551.0625,112.2031 2551.1563,112.6094 C2551.2188,113.0156 2551.25,113.1406 2551.3906,113.2656 C2551.5313,113.4063 2551.7656,113.5156 2551.9844,113.5156 C2552.25,113.5156 2552.5156,113.375 2552.6875,113.1563 C2552.7969,113 2552.8281,112.8125 2552.8281,112.3906 L2552.8281,110.9688 C2552.8281,110.5313 2552.8125,110.4063 2552.7188,110.25 C2552.5625,109.9844 2552.2813,109.8438 2551.9844,109.8438 C2551.6875,109.8438 2551.4844,109.9375 2551.2656,110.25 L2551.0938,110.1719 Z "/><text fill="#000000" font-family="sans-serif" font-size="12" lengthAdjust="spacingAndGlyphs" textLength="60" x="2569.25" y="118.6543">WordDiffs</text><line style="stroke: #A80036; stroke-width: 1.5;" x1="2324" x2="2842" y1="130.5" y2="130.5"/><line style="stroke: #A80036; stroke-width: 1.5;" x1="2324" x2="2842" y1="138.5" y2="138.5"/><ellipse cx="2334" cy="149.5" fill="#84BE84" rx="3" ry="3" style="stroke: #038048; stroke-width: 1.0;"/><text fill="#000000" font-family="sans-serif" font-size="11" lengthAdjust="spacingAndGlyphs" textLength="264" x="2343" y="152.7104">__init__(self, dialect=None, differ_class=None)</text><ellipse cx="2334" cy="162.3047" fill="#84BE84" rx="3" ry="3" style="stroke: #038048; stroke-width: 1.0;"/><text fill="#000000" font-family="sans-serif" font-size="11" lengthAdjust="spacingAndGlyphs" textLength="494" x="2343" y="165.5151">compare(self, ref: benchmarkstt.schema.Schema, hyp: benchmarkstt.schema.Schema)</text><!--MD5=[5eef32e9538f5dcdb68c61d368837619]
class benchmarkstt.diff.core.RatcliffObershelp--><rect codeLine="29" fill="#FEFECE" filter="url(#f1f1vdshj99zku)" height="188.8516" id="benchmarkstt.diff.core.RatcliffObershelp" style="stroke: #A80036; stroke-width: 1.5;" width="261" x="4009.5" y="41"/><ellipse cx="4084.25" cy="57" fill="#ADD1B2" rx="11" ry="11" style="stroke: #A80036; stroke-width: 1.0;"/><path d="M4086.5938,52.6719 C4085.6563,52.2344 4085.0625,52.0938 4084.1875,52.0938 C4081.5625,52.0938 4079.5625,54.1719 4079.5625,56.8906 L4079.5625,58.0156 C4079.5625,60.5938 4081.6719,62.4844 4084.5625,62.4844 C4085.7813,62.4844 4086.9375,62.1875 4087.6875,61.6406 C4088.2656,61.2344 4088.5938,60.7813 4088.5938,60.3906 C4088.5938,59.9375 4088.2031,59.5469 4087.7344,59.5469 C4087.5156,59.5469 4087.3125,59.625 4087.125,59.8125 C4086.6719,60.2969 4086.6719,60.2969 4086.4844,60.3906 C4086.0625,60.6563 4085.375,60.7813 4084.6094,60.7813 C4082.5625,60.7813 4081.2656,59.6875 4081.2656,57.9844 L4081.2656,56.8906 C4081.2656,55.1094 4082.5156,53.7969 4084.25,53.7969 C4084.8281,53.7969 4085.4375,53.9531 4085.9063,54.2031 C4086.3906,54.4844 4086.5625,54.7031 4086.6563,55.1094 C4086.7188,55.5156 4086.75,55.6406 4086.8906,55.7656 C4087.0313,55.9063 4087.2656,56.0156 4087.4844,56.0156 C4087.75,56.0156 4088.0156,55.875 4088.1875,55.6563 C4088.2969,55.5 4088.3281,55.3125 4088.3281,54.8906 L4088.3281,53.4688 C4088.3281,53.0313 4088.3125,52.9063 4088.2188,52.75 C4088.0625,52.4844 4087.7813,52.3438 4087.4844,52.3438 C4087.1875,52.3438 4086.9844,52.4375 4086.7656,52.75 L4086.5938,52.6719 Z "/><text fill="#000000" font-family="sans-serif" font-size="12" lengthAdjust="spacingAndGlyphs" textLength="103" x="4104.75" y="61.1543">RatcliffObershelp</text><line style="stroke: #A80036; stroke-width: 1.5;" x1="4010.5" x2="4269.5" y1="73" y2="73"/><line style="stroke: #A80036; stroke-width: 1.5;" x1="4010.5" x2="4269.5" y1="81" y2="81"/><ellipse cx="4020.5" cy="92" fill="#84BE84" rx="3" ry="3" style="stroke: #038048; stroke-width: 1.0;"/><text fill="#000000" font-family="sans-serif" font-size="11" lengthAdjust="spacingAndGlyphs" textLength="193" x="4029.5" y="95.2104">__init__(self, a, b, *args, **kwargs)</text><ellipse cx="4020.5" cy="104.8047" fill="#84BE84" rx="3" ry="3" style="stroke: #038048; stroke-width: 1.0;"/><text fill="#000000" font-family="sans-serif" font-size="11" lengthAdjust="spacingAndGlyphs" textLength="235" x="4029.5" y="108.0151">find_longest_match(self, alo, ahi, blo, bhi)</text><ellipse cx="4020.5" cy="117.6094" fill="#84BE84" rx="3" ry="3" style="stroke: #038048; stroke-width: 1.0;"/><text fill="#000000" font-family="sans-serif" font-size="11" lengthAdjust="spacingAndGlyphs" textLength="185" x="4029.5" y="120.8198">get_grouped_opcodes(self, n=3)</text><ellipse cx="4020.5" cy="130.4141" fill="#84BE84" rx="3" ry="3" style="stroke: #038048; stroke-width: 1.0;"/><text fill="#000000" font-family="sans-serif" font-size="11" lengthAdjust="spacingAndGlyphs" textLength="147" x="4029.5" y="133.6245">get_matching_blocks(self)</text><ellipse cx="4020.5" cy="143.2188" fill="#84BE84" rx="3" ry="3" style="stroke: #038048; stroke-width: 1.0;"/><text fill="#000000" font-family="sans-serif" font-size="11" lengthAdjust="spacingAndGlyphs" textLength="102" x="4029.5" y="146.4292">get_opcodes(self)</text><ellipse cx="4020.5" cy="156.0234" fill="#84BE84" rx="3" ry="3" style="stroke: #038048; stroke-width: 1.0;"/><text fill="#000000" font-family="sans-serif" font-size="11" lengthAdjust="spacingAndGlyphs" textLength="89" x="4029.5" y="159.2339">quick_ratio(self)</text><ellipse cx="4020.5" cy="168.8281" fill="#84BE84" rx="3" ry="3" style="stroke: #038048; stroke-width: 1.0;"/><text fill="#000000" font-family="sans-serif" font-size="11" lengthAdjust="spacingAndGlyphs" textLength="54" x="4029.5" y="172.0386">ratio(self)</text><ellipse cx="4020.5" cy="181.6328" fill="#84BE84" rx="3" ry="3" style="stroke: #038048; stroke-width: 1.0;"/><text fill="#000000" font-family="sans-serif" font-size="11" lengthAdjust="spacingAndGlyphs" textLength="117" x="4029.5" y="184.8433">real_quick_ratio(self)</text><ellipse cx="4020.5" cy="194.4375" fill="#84BE84" rx="3" ry="3" style="stroke: #038048; stroke-width: 1.0;"/><text fill="#000000" font-family="sans-serif" font-size="11" lengthAdjust="spacingAndGlyphs" textLength="95" x="4029.5" y="197.6479">set_seq1(self, a)</text><ellipse cx="4020.5" cy="207.2422" fill="#84BE84" rx="3" ry="3" style="stroke: #038048; stroke-width: 1.0;"/><text fill="#000000" font-family="sans-serif" font-size="11" lengthAdjust="spacingAndGlyphs" textLength="95" x="4029.5" y="210.4526">set_seq2(self, b)</text><ellipse cx="4020.5" cy="220.0469" fill="#84BE84" rx="3" ry="3" style="stroke: #038048; stroke-width: 1.0;"/><text fill="#000000" font-family="sans-serif" font-size="11" lengthAdjust="spacingAndGlyphs" textLength="108" x="4029.5" y="223.2573">set_seqs(self, a, b)</text><!--MD5=[490ea28922b6507fe4f9ed69fc6567ac]
class benchmarkstt.normalization.Base--><rect codeLine="59" fill="#FEFECE" filter="url(#f1f1vdshj99zku)" height="73.6094" id="benchmarkstt.normalization.Base" style="stroke: #A80036; stroke-width: 1.5;" width="136" x="746" y="305"/><ellipse cx="794.75" cy="321" fill="#ADD1B2" rx="11" ry="11" style="stroke: #A80036; stroke-width: 1.0;"/><path d="M797.0938,316.6719 C796.1563,316.2344 795.5625,316.0938 794.6875,316.0938 C792.0625,316.0938 790.0625,318.1719 790.0625,320.8906 L790.0625,322.0156 C790.0625,324.5938 792.1719,326.4844 795.0625,326.4844 C796.2813,326.4844 797.4375,326.1875 798.1875,325.6406 C798.7656,325.2344 799.0938,324.7813 799.0938,324.3906 C799.0938,323.9375 798.7031,323.5469 798.2344,323.5469 C798.0156,323.5469 797.8125,323.625 797.625,323.8125 C797.1719,324.2969 797.1719,324.2969 796.9844,324.3906 C796.5625,324.6563 795.875,324.7813 795.1094,324.7813 C793.0625,324.7813 791.7656,323.6875 791.7656,321.9844 L791.7656,320.8906 C791.7656,319.1094 793.0156,317.7969 794.75,317.7969 C795.3281,317.7969 795.9375,317.9531 796.4063,318.2031 C796.8906,318.4844 797.0625,318.7031 797.1563,319.1094 C797.2188,319.5156 797.25,319.6406 797.3906,319.7656 C797.5313,319.9063 797.7656,320.0156 797.9844,320.0156 C798.25,320.0156 798.5156,319.875 798.6875,319.6563 C798.7969,319.5 798.8281,319.3125 798.8281,318.8906 L798.8281,317.4688 C798.8281,317.0313 798.8125,316.9063 798.7188,316.75 C798.5625,316.4844 798.2813,316.3438 797.9844,316.3438 C797.6875,316.3438 797.4844,316.4375 797.2656,316.75 L797.0938,316.6719 Z "/><text fill="#000000" font-family="sans-serif" font-size="12" lengthAdjust="spacingAndGlyphs" textLength="30" x="815.25" y="325.1543">Base</text><line style="stroke: #A80036; stroke-width: 1.5;" x1="747" x2="881" y1="337" y2="337"/><line style="stroke: #A80036; stroke-width: 1.5;" x1="747" x2="881" y1="345" y2="345"/><ellipse cx="757" cy="356" fill="#84BE84" rx="3" ry="3" style="stroke: #038048; stroke-width: 1.0;"/><text fill="#000000" font-family="sans-serif" font-size="11" lengthAdjust="spacingAndGlyphs" textLength="76" x="766" y="359.2104">__repr__(self)</text><ellipse cx="757" cy="368.8047" fill="#84BE84" rx="3" ry="3" style="stroke: #038048; stroke-width: 1.0;"/><text fill="#000000" font-family="sans-serif" font-size="11" lengthAdjust="spacingAndGlyphs" textLength="110" x="766" y="372.0151">normalize(cls, text)</text><!--MD5=[8731c9077ab4f00ce3929ee4866ad0a9]
class benchmarkstt.normalization.BaseWithFileSupport--><rect codeLine="66" fill="#FEFECE" filter="url(#f1f1vdshj99zku)" height="73.6094" id="benchmarkstt.normalization.BaseWithFileSupport" style="stroke: #A80036; stroke-width: 1.5;" width="157" x="1342.5" y="98.5"/><ellipse cx="1357.5" cy="114.5" fill="#ADD1B2" rx="11" ry="11" style="stroke: #A80036; stroke-width: 1.0;"/><path d="M1359.8438,110.1719 C1358.9063,109.7344 1358.3125,109.5938 1357.4375,109.5938 C1354.8125,109.5938 1352.8125,111.6719 1352.8125,114.3906 L1352.8125,115.5156 C1352.8125,118.0938 1354.9219,119.9844 1357.8125,119.9844 C1359.0313,119.9844 1360.1875,119.6875 1360.9375,119.1406 C1361.5156,118.7344 1361.8438,118.2813 1361.8438,117.8906 C1361.8438,117.4375 1361.4531,117.0469 1360.9844,117.0469 C1360.7656,117.0469 1360.5625,117.125 1360.375,117.3125 C1359.9219,117.7969 1359.9219,117.7969 1359.7344,117.8906 C1359.3125,118.1563 1358.625,118.2813 1357.8594,118.2813 C1355.8125,118.2813 1354.5156,117.1875 1354.5156,115.4844 L1354.5156,114.3906 C1354.5156,112.6094 1355.7656,111.2969 1357.5,111.2969 C1358.0781,111.2969 1358.6875,111.4531 1359.1563,111.7031 C1359.6406,111.9844 1359.8125,112.2031 1359.9063,112.6094 C1359.9688,113.0156 1360,113.1406 1360.1406,113.2656 C1360.2813,113.4063 1360.5156,113.5156 1360.7344,113.5156 C1361,113.5156 1361.2656,113.375 1361.4375,113.1563 C1361.5469,113 1361.5781,112.8125 1361.5781,112.3906 L1361.5781,110.9688 C1361.5781,110.5313 1361.5625,110.4063 1361.4688,110.25 C1361.3125,109.9844 1361.0313,109.8438 1360.7344,109.8438 C1360.4375,109.8438 1360.2344,109.9375 1360.0156,110.25 L1359.8438,110.1719 Z "/><text fill="#000000" font-family="sans-serif" font-size="12" lengthAdjust="spacingAndGlyphs" textLength="125" x="1371.5" y="118.6543">BaseWithFileSupport</text><line style="stroke: #A80036; stroke-width: 1.5;" x1="1343.5" x2="1498.5" y1="130.5" y2="130.5"/><line style="stroke: #A80036; stroke-width: 1.5;" x1="1343.5" x2="1498.5" y1="138.5" y2="138.5"/><ellipse cx="1353.5" cy="149.5" fill="#84BE84" rx="3" ry="3" style="stroke: #038048; stroke-width: 1.0;"/><text fill="#000000" font-family="sans-serif" font-size="11" lengthAdjust="spacingAndGlyphs" textLength="76" x="1362.5" y="152.7104">__repr__(self)</text><ellipse cx="1353.5" cy="162.3047" fill="#84BE84" rx="3" ry="3" style="stroke: #038048; stroke-width: 1.0;"/><text fill="#000000" font-family="sans-serif" font-size="11" lengthAdjust="spacingAndGlyphs" textLength="110" x="1362.5" y="165.5151">normalize(cls, text)</text><!--MD5=[7be2797115ac10ff84f28e0e6993cad4]
class benchmarkstt.normalization.File--><rect codeLine="73" fill="#FEFECE" filter="url(#f1f1vdshj99zku)" height="86.4141" id="benchmarkstt.normalization.File" style="stroke: #A80036; stroke-width: 1.5;" width="358" x="949" y="92.5"/><ellipse cx="1113.25" cy="108.5" fill="#ADD1B2" rx="11" ry="11" style="stroke: #A80036; stroke-width: 1.0;"/><path d="M1115.5938,104.1719 C1114.6563,103.7344 1114.0625,103.5938 1113.1875,103.5938 C1110.5625,103.5938 1108.5625,105.6719 1108.5625,108.3906 L1108.5625,109.5156 C1108.5625,112.0938 1110.6719,113.9844 1113.5625,113.9844 C1114.7813,113.9844 1115.9375,113.6875 1116.6875,113.1406 C1117.2656,112.7344 1117.5938,112.2813 1117.5938,111.8906 C1117.5938,111.4375 1117.2031,111.0469 1116.7344,111.0469 C1116.5156,111.0469 1116.3125,111.125 1116.125,111.3125 C1115.6719,111.7969 1115.6719,111.7969 1115.4844,111.8906 C1115.0625,112.1563 1114.375,112.2813 1113.6094,112.2813 C1111.5625,112.2813 1110.2656,111.1875 1110.2656,109.4844 L1110.2656,108.3906 C1110.2656,106.6094 1111.5156,105.2969 1113.25,105.2969 C1113.8281,105.2969 1114.4375,105.4531 1114.9063,105.7031 C1115.3906,105.9844 1115.5625,106.2031 1115.6563,106.6094 C1115.7188,107.0156 1115.75,107.1406 1115.8906,107.2656 C1116.0313,107.4063 1116.2656,107.5156 1116.4844,107.5156 C1116.75,107.5156 1117.0156,107.375 1117.1875,107.1563 C1117.2969,107 1117.3281,106.8125 1117.3281,106.3906 L1117.3281,104.9688 C1117.3281,104.5313 1117.3125,104.4063 1117.2188,104.25 C1117.0625,103.9844 1116.7813,103.8438 1116.4844,103.8438 C1116.1875,103.8438 1115.9844,103.9375 1115.7656,104.25 L1115.5938,104.1719 Z "/><text fill="#000000" font-family="sans-serif" font-size="12" lengthAdjust="spacingAndGlyphs" textLength="21" x="1133.75" y="112.6543">File</text><line style="stroke: #A80036; stroke-width: 1.5;" x1="950" x2="1306" y1="124.5" y2="124.5"/><line style="stroke: #A80036; stroke-width: 1.5;" x1="950" x2="1306" y1="132.5" y2="132.5"/><ellipse cx="960" cy="143.5" fill="#84BE84" rx="3" ry="3" style="stroke: #038048; stroke-width: 1.0;"/><text fill="#000000" font-family="sans-serif" font-size="11" lengthAdjust="spacingAndGlyphs" textLength="332" x="969" y="146.7104">__init__(self, normalizer, file, encoding=None, path=None)</text><ellipse cx="960" cy="156.3047" fill="#84BE84" rx="3" ry="3" style="stroke: #038048; stroke-width: 1.0;"/><text fill="#000000" font-family="sans-serif" font-size="11" lengthAdjust="spacingAndGlyphs" textLength="76" x="969" y="159.5151">__repr__(self)</text><ellipse cx="960" cy="169.1094" fill="#84BE84" rx="3" ry="3" style="stroke: #038048; stroke-width: 1.0;"/><text fill="#000000" font-family="sans-serif" font-size="11" lengthAdjust="spacingAndGlyphs" textLength="110" x="969" y="172.3198">normalize(cls, text)</text><!--MD5=[de8f3446ad2e81fca4f3988b148f6ee4]
class benchmarkstt.normalization.NormalizationComposite--><rect codeLine="81" fill="#FEFECE" filter="url(#f1f1vdshj99zku)" height="99.2188" id="benchmarkstt.normalization.NormalizationComposite" style="stroke: #A80036; stroke-width: 1.5;" width="178" x="736" y="86"/><ellipse cx="751" cy="102" fill="#ADD1B2" rx="11" ry="11" style="stroke: #A80036; stroke-width: 1.0;"/><path d="M753.3438,97.6719 C752.4063,97.2344 751.8125,97.0938 750.9375,97.0938 C748.3125,97.0938 746.3125,99.1719 746.3125,101.8906 L746.3125,103.0156 C746.3125,105.5938 748.4219,107.4844 751.3125,107.4844 C752.5313,107.4844 753.6875,107.1875 754.4375,106.6406 C755.0156,106.2344 755.3438,105.7813 755.3438,105.3906 C755.3438,104.9375 754.9531,104.5469 754.4844,104.5469 C754.2656,104.5469 754.0625,104.625 753.875,104.8125 C753.4219,105.2969 753.4219,105.2969 753.2344,105.3906 C752.8125,105.6563 752.125,105.7813 751.3594,105.7813 C749.3125,105.7813 748.0156,104.6875 748.0156,102.9844 L748.0156,101.8906 C748.0156,100.1094 749.2656,98.7969 751,98.7969 C751.5781,98.7969 752.1875,98.9531 752.6563,99.2031 C753.1406,99.4844 753.3125,99.7031 753.4063,100.1094 C753.4688,100.5156 753.5,100.6406 753.6406,100.7656 C753.7813,100.9063 754.0156,101.0156 754.2344,101.0156 C754.5,101.0156 754.7656,100.875 754.9375,100.6563 C755.0469,100.5 755.0781,100.3125 755.0781,99.8906 L755.0781,98.4688 C755.0781,98.0313 755.0625,97.9063 754.9688,97.75 C754.8125,97.4844 754.5313,97.3438 754.2344,97.3438 C753.9375,97.3438 753.7344,97.4375 753.5156,97.75 L753.3438,97.6719 Z "/><text fill="#000000" font-family="sans-serif" font-size="12" lengthAdjust="spacingAndGlyphs" textLength="146" x="765" y="106.1543">NormalizationComposite</text><line style="stroke: #A80036; stroke-width: 1.5;" x1="737" x2="913" y1="118" y2="118"/><line style="stroke: #A80036; stroke-width: 1.5;" x1="737" x2="913" y1="126" y2="126"/><ellipse cx="747" cy="137" fill="#84BE84" rx="3" ry="3" style="stroke: #038048; stroke-width: 1.0;"/><text fill="#000000" font-family="sans-serif" font-size="11" lengthAdjust="spacingAndGlyphs" textLength="138" x="756" y="140.2104">__init__(self, title=None)</text><ellipse cx="747" cy="149.8047" fill="#84BE84" rx="3" ry="3" style="stroke: #038048; stroke-width: 1.0;"/><text fill="#000000" font-family="sans-serif" font-size="11" lengthAdjust="spacingAndGlyphs" textLength="76" x="756" y="153.0151">__repr__(self)</text><ellipse cx="747" cy="162.6094" fill="#84BE84" rx="3" ry="3" style="stroke: #038048; stroke-width: 1.0;"/><text fill="#000000" font-family="sans-serif" font-size="11" lengthAdjust="spacingAndGlyphs" textLength="118" x="756" y="165.8198">add(self, normalizer)</text><ellipse cx="747" cy="175.4141" fill="#84BE84" rx="3" ry="3" style="stroke: #038048; stroke-width: 1.0;"/><text fill="#000000" font-family="sans-serif" font-size="11" lengthAdjust="spacingAndGlyphs" textLength="110" x="756" y="178.6245">normalize(cls, text)</text><!--MD5=[d1e904a0c11302288bad0868539b156c]
class benchmarkstt.input.Base--><rect codeLine="104" fill="#FEFECE" filter="url(#f1f1vdshj99zku)" height="60.8047" id="benchmarkstt.input.Base" style="stroke: #A80036; stroke-width: 1.5;" width="98" x="1860" y="311.5"/><ellipse cx="1891.2" cy="327.5" fill="#ADD1B2" rx="11" ry="11" style="stroke: #A80036; stroke-width: 1.0;"/><path d="M1893.5438,323.1719 C1892.6063,322.7344 1892.0125,322.5938 1891.1375,322.5938 C1888.5125,322.5938 1886.5125,324.6719 1886.5125,327.3906 L1886.5125,328.5156 C1886.5125,331.0938 1888.6219,332.9844 1891.5125,332.9844 C1892.7313,332.9844 1893.8875,332.6875 1894.6375,332.1406 C1895.2156,331.7344 1895.5438,331.2813 1895.5438,330.8906 C1895.5438,330.4375 1895.1531,330.0469 1894.6844,330.0469 C1894.4656,330.0469 1894.2625,330.125 1894.075,330.3125 C1893.6219,330.7969 1893.6219,330.7969 1893.4344,330.8906 C1893.0125,331.1563 1892.325,331.2813 1891.5594,331.2813 C1889.5125,331.2813 1888.2156,330.1875 1888.2156,328.4844 L1888.2156,327.3906 C1888.2156,325.6094 1889.4656,324.2969 1891.2,324.2969 C1891.7781,324.2969 1892.3875,324.4531 1892.8563,324.7031 C1893.3406,324.9844 1893.5125,325.2031 1893.6063,325.6094 C1893.6688,326.0156 1893.7,326.1406 1893.8406,326.2656 C1893.9813,326.4063 1894.2156,326.5156 1894.4344,326.5156 C1894.7,326.5156 1894.9656,326.375 1895.1375,326.1563 C1895.2469,326 1895.2781,325.8125 1895.2781,325.3906 L1895.2781,323.9688 C1895.2781,323.5313 1895.2625,323.4063 1895.1688,323.25 C1895.0125,322.9844 1894.7313,322.8438 1894.4344,322.8438 C1894.1375,322.8438 1893.9344,322.9375 1893.7156,323.25 L1893.5438,323.1719 Z "/><text fill="#000000" font-family="sans-serif" font-size="12" lengthAdjust="spacingAndGlyphs" textLength="30" x="1908.8" y="331.6543">Base</text><line style="stroke: #A80036; stroke-width: 1.5;" x1="1861" x2="1957" y1="343.5" y2="343.5"/><line style="stroke: #A80036; stroke-width: 1.5;" x1="1861" x2="1957" y1="351.5" y2="351.5"/><ellipse cx="1871" cy="362.5" fill="#84BE84" rx="3" ry="3" style="stroke: #038048; stroke-width: 1.0;"/><text fill="#000000" font-family="sans-serif" font-size="11" lengthAdjust="spacingAndGlyphs" textLength="72" x="1880" y="365.7104">__iter__(self)</text><!--MD5=[002c34d32132957f7ddeee40910e80d3]
class benchmarkstt.segmentation.Base--><rect codeLine="117" fill="#FEFECE" filter="url(#f1f1vdshj99zku)" height="60.8047" id="benchmarkstt.segmentation.Base" style="stroke: #A80036; stroke-width: 1.5;" width="98" x="4460" y="311.5"/><ellipse cx="4491.2" cy="327.5" fill="#ADD1B2" rx="11" ry="11" style="stroke: #A80036; stroke-width: 1.0;"/><path d="M4493.5438,323.1719 C4492.6063,322.7344 4492.0125,322.5938 4491.1375,322.5938 C4488.5125,322.5938 4486.5125,324.6719 4486.5125,327.3906 L4486.5125,328.5156 C4486.5125,331.0938 4488.6219,332.9844 4491.5125,332.9844 C4492.7313,332.9844 4493.8875,332.6875 4494.6375,332.1406 C4495.2156,331.7344 4495.5438,331.2813 4495.5438,330.8906 C4495.5438,330.4375 4495.1531,330.0469 4494.6844,330.0469 C4494.4656,330.0469 4494.2625,330.125 4494.075,330.3125 C4493.6219,330.7969 4493.6219,330.7969 4493.4344,330.8906 C4493.0125,331.1563 4492.325,331.2813 4491.5594,331.2813 C4489.5125,331.2813 4488.2156,330.1875 4488.2156,328.4844 L4488.2156,327.3906 C4488.2156,325.6094 4489.4656,324.2969 4491.2,324.2969 C4491.7781,324.2969 4492.3875,324.4531 4492.8563,324.7031 C4493.3406,324.9844 4493.5125,325.2031 4493.6063,325.6094 C4493.6688,326.0156 4493.7,326.1406 4493.8406,326.2656 C4493.9813,326.4063 4494.2156,326.5156 4494.4344,326.5156 C4494.7,326.5156 4494.9656,326.375 4495.1375,326.1563 C4495.2469,326 4495.2781,325.8125 4495.2781,325.3906 L4495.2781,323.9688 C4495.2781,323.5313 4495.2625,323.4063 4495.1688,323.25 C4495.0125,322.9844 4494.7313,322.8438 4494.4344,322.8438 C4494.1375,322.8438 4493.9344,322.9375 4493.7156,323.25 L4493.5438,323.1719 Z "/><text fill="#000000" font-family="sans-serif" font-size="12" lengthAdjust="spacingAndGlyphs" textLength="30" x="4508.8" y="331.6543">Base</text><line style="stroke: #A80036; stroke-width: 1.5;" x1="4461" x2="4557" y1="343.5" y2="343.5"/><line style="stroke: #A80036; stroke-width: 1.5;" x1="4461" x2="4557" y1="351.5" y2="351.5"/><ellipse cx="4471" cy="362.5" fill="#84BE84" rx="3" ry="3" style="stroke: #038048; stroke-width: 1.0;"/><text fill="#000000" font-family="sans-serif" font-size="11" lengthAdjust="spacingAndGlyphs" textLength="72" x="4480" y="365.7104">__iter__(self)</text><!--MD5=[e6682fb9f1ffb38935fc3ffe4e96004d]
class benchmarkstt.segmentation.core.Simple--><rect codeLine="123" fill="#FEFECE" filter="url(#f1f1vdshj99zku)" height="73.6094" id="benchmarkstt.segmentation.core.Simple" style="stroke: #A80036; stroke-width: 1.5;" width="363" x="4327.5" y="98.5"/><ellipse cx="4484.25" cy="114.5" fill="#ADD1B2" rx="11" ry="11" style="stroke: #A80036; stroke-width: 1.0;"/><path d="M4486.5938,110.1719 C4485.6563,109.7344 4485.0625,109.5938 4484.1875,109.5938 C4481.5625,109.5938 4479.5625,111.6719 4479.5625,114.3906 L4479.5625,115.5156 C4479.5625,118.0938 4481.6719,119.9844 4484.5625,119.9844 C4485.7813,119.9844 4486.9375,119.6875 4487.6875,119.1406 C4488.2656,118.7344 4488.5938,118.2813 4488.5938,117.8906 C4488.5938,117.4375 4488.2031,117.0469 4487.7344,117.0469 C4487.5156,117.0469 4487.3125,117.125 4487.125,117.3125 C4486.6719,117.7969 4486.6719,117.7969 4486.4844,117.8906 C4486.0625,118.1563 4485.375,118.2813 4484.6094,118.2813 C4482.5625,118.2813 4481.2656,117.1875 4481.2656,115.4844 L4481.2656,114.3906 C4481.2656,112.6094 4482.5156,111.2969 4484.25,111.2969 C4484.8281,111.2969 4485.4375,111.4531 4485.9063,111.7031 C4486.3906,111.9844 4486.5625,112.2031 4486.6563,112.6094 C4486.7188,113.0156 4486.75,113.1406 4486.8906,113.2656 C4487.0313,113.4063 4487.2656,113.5156 4487.4844,113.5156 C4487.75,113.5156 4488.0156,113.375 4488.1875,113.1563 C4488.2969,113 4488.3281,112.8125 4488.3281,112.3906 L4488.3281,110.9688 C4488.3281,110.5313 4488.3125,110.4063 4488.2188,110.25 C4488.0625,109.9844 4487.7813,109.8438 4487.4844,109.8438 C4487.1875,109.8438 4486.9844,109.9375 4486.7656,110.25 L4486.5938,110.1719 Z "/><text fill="#000000" font-family="sans-serif" font-size="12" lengthAdjust="spacingAndGlyphs" textLength="41" x="4504.75" y="118.6543">Simple</text><line style="stroke: #A80036; stroke-width: 1.5;" x1="4328.5" x2="4689.5" y1="130.5" y2="130.5"/><line style="stroke: #A80036; stroke-width: 1.5;" x1="4328.5" x2="4689.5" y1="138.5" y2="138.5"/><ellipse cx="4338.5" cy="149.5" fill="#84BE84" rx="3" ry="3" style="stroke: #038048; stroke-width: 1.0;"/><text fill="#000000" font-family="sans-serif" font-size="11" lengthAdjust="spacingAndGlyphs" textLength="337" x="4347.5" y="152.7104">__init__(self, text: str, pattern='[\n\t\s]+', normalizer=None)</text><ellipse cx="4338.5" cy="162.3047" fill="#84BE84" rx="3" ry="3" style="stroke: #038048; stroke-width: 1.0;"/><text fill="#000000" font-family="sans-serif" font-size="11" lengthAdjust="spacingAndGlyphs" textLength="72" x="4347.5" y="165.5151">__iter__(self)</text><!--MD5=[6bad0332cb50a567e063560f49fe1b05]
class benchmarkstt.output.Base--><rect codeLine="130" fill="#FEFECE" filter="url(#f1f1vdshj99zku)" height="86.4141" id="benchmarkstt.output.Base" style="stroke: #A80036; stroke-width: 1.5;" width="257" x="5157.5" y="466.5"/><ellipse cx="5266.75" cy="482.5" fill="#ADD1B2" rx="11" ry="11" style="stroke: #A80036; stroke-width: 1.0;"/><path d="M5269.0938,478.1719 C5268.1563,477.7344 5267.5625,477.5938 5266.6875,477.5938 C5264.0625,477.5938 5262.0625,479.6719 5262.0625,482.3906 L5262.0625,483.5156 C5262.0625,486.0938 5264.1719,487.9844 5267.0625,487.9844 C5268.2813,487.9844 5269.4375,487.6875 5270.1875,487.1406 C5270.7656,486.7344 5271.0938,486.2813 5271.0938,485.8906 C5271.0938,485.4375 5270.7031,485.0469 5270.2344,485.0469 C5270.0156,485.0469 5269.8125,485.125 5269.625,485.3125 C5269.1719,485.7969 5269.1719,485.7969 5268.9844,485.8906 C5268.5625,486.1563 5267.875,486.2813 5267.1094,486.2813 C5265.0625,486.2813 5263.7656,485.1875 5263.7656,483.4844 L5263.7656,482.3906 C5263.7656,480.6094 5265.0156,479.2969 5266.75,479.2969 C5267.3281,479.2969 5267.9375,479.4531 5268.4063,479.7031 C5268.8906,479.9844 5269.0625,480.2031 5269.1563,480.6094 C5269.2188,481.0156 5269.25,481.1406 5269.3906,481.2656 C5269.5313,481.4063 5269.7656,481.5156 5269.9844,481.5156 C5270.25,481.5156 5270.5156,481.375 5270.6875,481.1563 C5270.7969,481 5270.8281,480.8125 5270.8281,480.3906 L5270.8281,478.9688 C5270.8281,478.5313 5270.8125,478.4063 5270.7188,478.25 C5270.5625,477.9844 5270.2813,477.8438 5269.9844,477.8438 C5269.6875,477.8438 5269.4844,477.9375 5269.2656,478.25 L5269.0938,478.1719 Z "/><text fill="#000000" font-family="sans-serif" font-size="12" lengthAdjust="spacingAndGlyphs" textLength="30" x="5287.25" y="486.6543">Base</text><line style="stroke: #A80036; stroke-width: 1.5;" x1="5158.5" x2="5413.5" y1="498.5" y2="498.5"/><line style="stroke: #A80036; stroke-width: 1.5;" x1="5158.5" x2="5413.5" y1="506.5" y2="506.5"/><ellipse cx="5168.5" cy="517.5" fill="#84BE84" rx="3" ry="3" style="stroke: #038048; stroke-width: 1.0;"/><text fill="#000000" font-family="sans-serif" font-size="11" lengthAdjust="spacingAndGlyphs" textLength="84" x="5177.5" y="520.7104">__enter__(self)</text><ellipse cx="5168.5" cy="530.3047" fill="#84BE84" rx="3" ry="3" style="stroke: #038048; stroke-width: 1.0;"/><text fill="#000000" font-family="sans-serif" font-size="11" lengthAdjust="spacingAndGlyphs" textLength="231" x="5177.5" y="533.5151">__exit__(self, exc_type, exc_val, exc_tb)</text><ellipse cx="5168.5" cy="543.1094" fill="#84BE84" rx="3" ry="3" style="stroke: #038048; stroke-width: 1.0;"/><text fill="#000000" font-family="sans-serif" font-size="11" lengthAdjust="spacingAndGlyphs" textLength="129" x="5177.5" y="546.3198">result(self, title, result)</text><!--MD5=[f736c00f8e3d82ae904e3d345ee15690]
class benchmarkstt.output.core.Json--><rect codeLine="138" fill="#FEFECE" filter="url(#f1f1vdshj99zku)" height="99.2188" id="benchmarkstt.output.core.Json" style="stroke: #A80036; stroke-width: 1.5;" width="257" x="5331.5" y="86"/><ellipse cx="5442.75" cy="102" fill="#ADD1B2" rx="11" ry="11" style="stroke: #A80036; stroke-width: 1.0;"/><path d="M5445.0938,97.6719 C5444.1563,97.2344 5443.5625,97.0938 5442.6875,97.0938 C5440.0625,97.0938 5438.0625,99.1719 5438.0625,101.8906 L5438.0625,103.0156 C5438.0625,105.5938 5440.1719,107.4844 5443.0625,107.4844 C5444.2813,107.4844 5445.4375,107.1875 5446.1875,106.6406 C5446.7656,106.2344 5447.0938,105.7813 5447.0938,105.3906 C5447.0938,104.9375 5446.7031,104.5469 5446.2344,104.5469 C5446.0156,104.5469 5445.8125,104.625 5445.625,104.8125 C5445.1719,105.2969 5445.1719,105.2969 5444.9844,105.3906 C5444.5625,105.6563 5443.875,105.7813 5443.1094,105.7813 C5441.0625,105.7813 5439.7656,104.6875 5439.7656,102.9844 L5439.7656,101.8906 C5439.7656,100.1094 5441.0156,98.7969 5442.75,98.7969 C5443.3281,98.7969 5443.9375,98.9531 5444.4063,99.2031 C5444.8906,99.4844 5445.0625,99.7031 5445.1563,100.1094 C5445.2188,100.5156 5445.25,100.6406 5445.3906,100.7656 C5445.5313,100.9063 5445.7656,101.0156 5445.9844,101.0156 C5446.25,101.0156 5446.5156,100.875 5446.6875,100.6563 C5446.7969,100.5 5446.8281,100.3125 5446.8281,99.8906 L5446.8281,98.4688 C5446.8281,98.0313 5446.8125,97.9063 5446.7188,97.75 C5446.5625,97.4844 5446.2813,97.3438 5445.9844,97.3438 C5445.6875,97.3438 5445.4844,97.4375 5445.2656,97.75 L5445.0938,97.6719 Z "/><text fill="#000000" font-family="sans-serif" font-size="12" lengthAdjust="spacingAndGlyphs" textLength="26" x="5463.25" y="106.1543">Json</text><line style="stroke: #A80036; stroke-width: 1.5;" x1="5332.5" x2="5587.5" y1="118" y2="118"/><line style="stroke: #A80036; stroke-width: 1.5;" x1="5332.5" x2="5587.5" y1="126" y2="126"/><ellipse cx="5342.5" cy="137" fill="#84BE84" rx="3" ry="3" style="stroke: #038048; stroke-width: 1.0;"/><text fill="#000000" font-family="sans-serif" font-size="11" lengthAdjust="spacingAndGlyphs" textLength="84" x="5351.5" y="140.2104">__enter__(self)</text><ellipse cx="5342.5" cy="149.8047" fill="#84BE84" rx="3" ry="3" style="stroke: #038048; stroke-width: 1.0;"/><text fill="#000000" font-family="sans-serif" font-size="11" lengthAdjust="spacingAndGlyphs" textLength="231" x="5351.5" y="153.0151">__exit__(self, exc_type, exc_val, exc_tb)</text><ellipse cx="5342.5" cy="162.6094" fill="#84BE84" rx="3" ry="3" style="stroke: #038048; stroke-width: 1.0;"/><text fill="#000000" font-family="sans-serif" font-size="11" lengthAdjust="spacingAndGlyphs" textLength="70" x="5351.5" y="165.8198">__init__(self)</text><ellipse cx="5342.5" cy="175.4141" fill="#84BE84" rx="3" ry="3" style="stroke: #038048; stroke-width: 1.0;"/><text fill="#000000" font-family="sans-serif" font-size="11" lengthAdjust="spacingAndGlyphs" textLength="129" x="5351.5" y="178.6245">result(self, title, result)</text><!--MD5=[1202924086ca6a88207a70c63baf9330]
class benchmarkstt.output.core.MarkDown--><rect codeLine="147" fill="#FEFECE" filter="url(#f1f1vdshj99zku)" height="99.2188" id="benchmarkstt.output.core.MarkDown" style="stroke: #A80036; stroke-width: 1.5;" width="257" x="5039.5" y="86"/><ellipse cx="5132.25" cy="102" fill="#ADD1B2" rx="11" ry="11" style="stroke: #A80036; stroke-width: 1.0;"/><path d="M5134.5938,97.6719 C5133.6563,97.2344 5133.0625,97.0938 5132.1875,97.0938 C5129.5625,97.0938 5127.5625,99.1719 5127.5625,101.8906 L5127.5625,103.0156 C5127.5625,105.5938 5129.6719,107.4844 5132.5625,107.4844 C5133.7813,107.4844 5134.9375,107.1875 5135.6875,106.6406 C5136.2656,106.2344 5136.5938,105.7813 5136.5938,105.3906 C5136.5938,104.9375 5136.2031,104.5469 5135.7344,104.5469 C5135.5156,104.5469 5135.3125,104.625 5135.125,104.8125 C5134.6719,105.2969 5134.6719,105.2969 5134.4844,105.3906 C5134.0625,105.6563 5133.375,105.7813 5132.6094,105.7813 C5130.5625,105.7813 5129.2656,104.6875 5129.2656,102.9844 L5129.2656,101.8906 C5129.2656,100.1094 5130.5156,98.7969 5132.25,98.7969 C5132.8281,98.7969 5133.4375,98.9531 5133.9063,99.2031 C5134.3906,99.4844 5134.5625,99.7031 5134.6563,100.1094 C5134.7188,100.5156 5134.75,100.6406 5134.8906,100.7656 C5135.0313,100.9063 5135.2656,101.0156 5135.4844,101.0156 C5135.75,101.0156 5136.0156,100.875 5136.1875,100.6563 C5136.2969,100.5 5136.3281,100.3125 5136.3281,99.8906 L5136.3281,98.4688 C5136.3281,98.0313 5136.3125,97.9063 5136.2188,97.75 C5136.0625,97.4844 5135.7813,97.3438 5135.4844,97.3438 C5135.1875,97.3438 5134.9844,97.4375 5134.7656,97.75 L5134.5938,97.6719 Z "/><text fill="#000000" font-family="sans-serif" font-size="12" lengthAdjust="spacingAndGlyphs" textLength="63" x="5152.75" y="106.1543">MarkDown</text><line style="stroke: #A80036; stroke-width: 1.5;" x1="5040.5" x2="5295.5" y1="118" y2="118"/><line style="stroke: #A80036; stroke-width: 1.5;" x1="5040.5" x2="5295.5" y1="126" y2="126"/><ellipse cx="5050.5" cy="137" fill="#84BE84" rx="3" ry="3" style="stroke: #038048; stroke-width: 1.0;"/><text fill="#000000" font-family="sans-serif" font-size="11" lengthAdjust="spacingAndGlyphs" textLength="84" x="5059.5" y="140.2104">__enter__(self)</text><ellipse cx="5050.5" cy="149.8047" fill="#84BE84" rx="3" ry="3" style="stroke: #038048; stroke-width: 1.0;"/><text fill="#000000" font-family="sans-serif" font-size="11" lengthAdjust="spacingAndGlyphs" textLength="231" x="5059.5" y="153.0151">__exit__(self, exc_type, exc_val, exc_tb)</text><ellipse cx="5050.5" cy="162.6094" fill="#84BE84" rx="3" ry="3" style="stroke: #038048; stroke-width: 1.0;"/><text fill="#000000" font-family="sans-serif" font-size="11" lengthAdjust="spacingAndGlyphs" textLength="93" x="5059.5" y="165.8198">print(self, result)</text><ellipse cx="5050.5" cy="175.4141" fill="#84BE84" rx="3" ry="3" style="stroke: #038048; stroke-width: 1.0;"/><text fill="#000000" font-family="sans-serif" font-size="11" lengthAdjust="spacingAndGlyphs" textLength="129" x="5059.5" y="178.6245">result(self, title, result)</text><!--MD5=[1b1c3484ac7c767612303980bbf618ed]
class benchmarkstt.output.core.ReStructuredText--><rect codeLine="156" fill="#FEFECE" filter="url(#f1f1vdshj99zku)" height="99.2188" id="benchmarkstt.output.core.ReStructuredText" style="stroke: #A80036; stroke-width: 1.5;" width="257" x="4747.5" y="86"/><ellipse cx="4819.75" cy="102" fill="#ADD1B2" rx="11" ry="11" style="stroke: #A80036; stroke-width: 1.0;"/><path d="M4822.0938,97.6719 C4821.1563,97.2344 4820.5625,97.0938 4819.6875,97.0938 C4817.0625,97.0938 4815.0625,99.1719 4815.0625,101.8906 L4815.0625,103.0156 C4815.0625,105.5938 4817.1719,107.4844 4820.0625,107.4844 C4821.2813,107.4844 4822.4375,107.1875 4823.1875,106.6406 C4823.7656,106.2344 4824.0938,105.7813 4824.0938,105.3906 C4824.0938,104.9375 4823.7031,104.5469 4823.2344,104.5469 C4823.0156,104.5469 4822.8125,104.625 4822.625,104.8125 C4822.1719,105.2969 4822.1719,105.2969 4821.9844,105.3906 C4821.5625,105.6563 4820.875,105.7813 4820.1094,105.7813 C4818.0625,105.7813 4816.7656,104.6875 4816.7656,102.9844 L4816.7656,101.8906 C4816.7656,100.1094 4818.0156,98.7969 4819.75,98.7969 C4820.3281,98.7969 4820.9375,98.9531 4821.4063,99.2031 C4821.8906,99.4844 4822.0625,99.7031 4822.1563,100.1094 C4822.2188,100.5156 4822.25,100.6406 4822.3906,100.7656 C4822.5313,100.9063 4822.7656,101.0156 4822.9844,101.0156 C4823.25,101.0156 4823.5156,100.875 4823.6875,100.6563 C4823.7969,100.5 4823.8281,100.3125 4823.8281,99.8906 L4823.8281,98.4688 C4823.8281,98.0313 4823.8125,97.9063 4823.7188,97.75 C4823.5625,97.4844 4823.2813,97.3438 4822.9844,97.3438 C4822.6875,97.3438 4822.4844,97.4375 4822.2656,97.75 L4822.0938,97.6719 Z "/><text fill="#000000" font-family="sans-serif" font-size="12" lengthAdjust="spacingAndGlyphs" textLength="104" x="4840.25" y="106.1543">ReStructuredText</text><line style="stroke: #A80036; stroke-width: 1.5;" x1="4748.5" x2="5003.5" y1="118" y2="118"/><line style="stroke: #A80036; stroke-width: 1.5;" x1="4748.5" x2="5003.5" y1="126" y2="126"/><ellipse cx="4758.5" cy="137" fill="#84BE84" rx="3" ry="3" style="stroke: #038048; stroke-width: 1.0;"/><text fill="#000000" font-family="sans-serif" font-size="11" lengthAdjust="spacingAndGlyphs" textLength="84" x="4767.5" y="140.2104">__enter__(self)</text><ellipse cx="4758.5" cy="149.8047" fill="#84BE84" rx="3" ry="3" style="stroke: #038048; stroke-width: 1.0;"/><text fill="#000000" font-family="sans-serif" font-size="11" lengthAdjust="spacingAndGlyphs" textLength="231" x="4767.5" y="153.0151">__exit__(self, exc_type, exc_val, exc_tb)</text><ellipse cx="4758.5" cy="162.6094" fill="#84BE84" rx="3" ry="3" style="stroke: #038048; stroke-width: 1.0;"/><text fill="#000000" font-family="sans-serif" font-size="11" lengthAdjust="spacingAndGlyphs" textLength="93" x="4767.5" y="165.8198">print(self, result)</text><ellipse cx="4758.5" cy="175.4141" fill="#84BE84" rx="3" ry="3" style="stroke: #038048; stroke-width: 1.0;"/><text fill="#000000" font-family="sans-serif" font-size="11" lengthAdjust="spacingAndGlyphs" textLength="129" x="4767.5" y="178.6245">result(self, title, result)</text><!--MD5=[ad472f876b41c377ab9c2f7fd723b528]
class benchmarkstt.output.core.SimpleTextBase--><rect codeLine="165" fill="#FEFECE" filter="url(#f1f1vdshj99zku)" height="99.2188" id="benchmarkstt.output.core.SimpleTextBase" style="stroke: #A80036; stroke-width: 1.5;" width="257" x="5039.5" y="292.5"/><ellipse cx="5115.25" cy="308.5" fill="#ADD1B2" rx="11" ry="11" style="stroke: #A80036; stroke-width: 1.0;"/><path d="M5117.5938,304.1719 C5116.6563,303.7344 5116.0625,303.5938 5115.1875,303.5938 C5112.5625,303.5938 5110.5625,305.6719 5110.5625,308.3906 L5110.5625,309.5156 C5110.5625,312.0938 5112.6719,313.9844 5115.5625,313.9844 C5116.7813,313.9844 5117.9375,313.6875 5118.6875,313.1406 C5119.2656,312.7344 5119.5938,312.2813 5119.5938,311.8906 C5119.5938,311.4375 5119.2031,311.0469 5118.7344,311.0469 C5118.5156,311.0469 5118.3125,311.125 5118.125,311.3125 C5117.6719,311.7969 5117.6719,311.7969 5117.4844,311.8906 C5117.0625,312.1563 5116.375,312.2813 5115.6094,312.2813 C5113.5625,312.2813 5112.2656,311.1875 5112.2656,309.4844 L5112.2656,308.3906 C5112.2656,306.6094 5113.5156,305.2969 5115.25,305.2969 C5115.8281,305.2969 5116.4375,305.4531 5116.9063,305.7031 C5117.3906,305.9844 5117.5625,306.2031 5117.6563,306.6094 C5117.7188,307.0156 5117.75,307.1406 5117.8906,307.2656 C5118.0313,307.4063 5118.2656,307.5156 5118.4844,307.5156 C5118.75,307.5156 5119.0156,307.375 5119.1875,307.1563 C5119.2969,307 5119.3281,306.8125 5119.3281,306.3906 L5119.3281,304.9688 C5119.3281,304.5313 5119.3125,304.4063 5119.2188,304.25 C5119.0625,303.9844 5118.7813,303.8438 5118.4844,303.8438 C5118.1875,303.8438 5117.9844,303.9375 5117.7656,304.25 L5117.5938,304.1719 Z "/><text fill="#000000" font-family="sans-serif" font-size="12" lengthAdjust="spacingAndGlyphs" textLength="97" x="5135.75" y="312.6543">SimpleTextBase</text><line style="stroke: #A80036; stroke-width: 1.5;" x1="5040.5" x2="5295.5" y1="324.5" y2="324.5"/><line style="stroke: #A80036; stroke-width: 1.5;" x1="5040.5" x2="5295.5" y1="332.5" y2="332.5"/><ellipse cx="5050.5" cy="343.5" fill="#84BE84" rx="3" ry="3" style="stroke: #038048; stroke-width: 1.0;"/><text fill="#000000" font-family="sans-serif" font-size="11" lengthAdjust="spacingAndGlyphs" textLength="84" x="5059.5" y="346.7104">__enter__(self)</text><ellipse cx="5050.5" cy="356.3047" fill="#84BE84" rx="3" ry="3" style="stroke: #038048; stroke-width: 1.0;"/><text fill="#000000" font-family="sans-serif" font-size="11" lengthAdjust="spacingAndGlyphs" textLength="231" x="5059.5" y="359.5151">__exit__(self, exc_type, exc_val, exc_tb)</text><ellipse cx="5050.5" cy="369.1094" fill="#84BE84" rx="3" ry="3" style="stroke: #038048; stroke-width: 1.0;"/><text fill="#000000" font-family="sans-serif" font-size="11" lengthAdjust="spacingAndGlyphs" textLength="93" x="5059.5" y="372.3198">print(self, result)</text><ellipse cx="5050.5" cy="381.9141" fill="#84BE84" rx="3" ry="3" style="stroke: #038048; stroke-width: 1.0;"/><text fill="#000000" font-family="sans-serif" font-size="11" lengthAdjust="spacingAndGlyphs" textLength="129" x="5059.5" y="385.1245">result(self, title, result)</text><!--MD5=[6aa6ae3a879840a73b19fd2777afca9b]
class benchmarkstt.diff.Base--><rect codeLine="174" fill="#FEFECE" filter="url(#f1f1vdshj99zku)" height="73.6094" id="benchmarkstt.diff.Base" style="stroke: #A80036; stroke-width: 1.5;" width="154" x="4063" y="305"/><ellipse cx="4120.75" cy="321" fill="#ADD1B2" rx="11" ry="11" style="stroke: #A80036; stroke-width: 1.0;"/><path d="M4123.0938,316.6719 C4122.1563,316.2344 4121.5625,316.0938 4120.6875,316.0938 C4118.0625,316.0938 4116.0625,318.1719 4116.0625,320.8906 L4116.0625,322.0156 C4116.0625,324.5938 4118.1719,326.4844 4121.0625,326.4844 C4122.2813,326.4844 4123.4375,326.1875 4124.1875,325.6406 C4124.7656,325.2344 4125.0938,324.7813 4125.0938,324.3906 C4125.0938,323.9375 4124.7031,323.5469 4124.2344,323.5469 C4124.0156,323.5469 4123.8125,323.625 4123.625,323.8125 C4123.1719,324.2969 4123.1719,324.2969 4122.9844,324.3906 C4122.5625,324.6563 4121.875,324.7813 4121.1094,324.7813 C4119.0625,324.7813 4117.7656,323.6875 4117.7656,321.9844 L4117.7656,320.8906 C4117.7656,319.1094 4119.0156,317.7969 4120.75,317.7969 C4121.3281,317.7969 4121.9375,317.9531 4122.4063,318.2031 C4122.8906,318.4844 4123.0625,318.7031 4123.1563,319.1094 C4123.2188,319.5156 4123.25,319.6406 4123.3906,319.7656 C4123.5313,319.9063 4123.7656,320.0156 4123.9844,320.0156 C4124.25,320.0156 4124.5156,319.875 4124.6875,319.6563 C4124.7969,319.5 4124.8281,319.3125 4124.8281,318.8906 L4124.8281,317.4688 C4124.8281,317.0313 4124.8125,316.9063 4124.7188,316.75 C4124.5625,316.4844 4124.2813,316.3438 4123.9844,316.3438 C4123.6875,316.3438 4123.4844,316.4375 4123.2656,316.75 L4123.0938,316.6719 Z "/><text fill="#000000" font-family="sans-serif" font-size="12" lengthAdjust="spacingAndGlyphs" textLength="30" x="4141.25" y="325.1543">Base</text><line style="stroke: #A80036; stroke-width: 1.5;" x1="4064" x2="4216" y1="337" y2="337"/><line style="stroke: #A80036; stroke-width: 1.5;" x1="4064" x2="4216" y1="345" y2="345"/><ellipse cx="4074" cy="356" fill="#84BE84" rx="3" ry="3" style="stroke: #038048; stroke-width: 1.0;"/><text fill="#000000" font-family="sans-serif" font-size="11" lengthAdjust="spacingAndGlyphs" textLength="128" x="4083" y="359.2104">__init__(self, a='', b='')</text><ellipse cx="4074" cy="368.8047" fill="#84BE84" rx="3" ry="3" style="stroke: #038048; stroke-width: 1.0;"/><text fill="#000000" font-family="sans-serif" font-size="11" lengthAdjust="spacingAndGlyphs" textLength="102" x="4083" y="372.0151">get_opcodes(self)</text><!--MD5=[fcedb7634c7a8d2dd27ebf5b217ed017]
link benchmarkstt.normalization.core.Config to benchmarkstt.normalization.Base--><path codeLine="181" d="M586.119,178.625 C632.797,211.885 697.949,258.309 746.639,293.002 " fill="none" id="benchmarkstt.normalization.core.Config-&gt;benchmarkstt.normalization.Base" style="stroke: #A80036; stroke-width: 1.0;"/><polygon fill="none" points="750.892,287.437,763.118,304.744,742.767,298.839,750.892,287.437" style="stroke: #A80036; stroke-width: 1.0;"/><!--MD5=[4e4728c8a7b19202f6baadb11a4abb1d]
link benchmarkstt.input.core.PlainText to benchmarkstt.input.Base--><path codeLine="182" d="M2063,172.59 C2031.44,207.104 1983.76,259.242 1949.83,296.354 " fill="none" id="benchmarkstt.input.core.PlainText-&gt;benchmarkstt.input.Base" style="stroke: #A80036; stroke-width: 1.0;"/><polygon fill="none" points="1954.87,301.208,1936.21,311.243,1944.54,291.76,1954.87,301.208" style="stroke: #A80036; stroke-width: 1.0;"/><!--MD5=[aeb97f022ce5ca6ca82f598274fa358c]
link benchmarkstt.metrics.core.DiffCounts to benchmarkstt.metrics.Base--><path codeLine="183" d="M3613.22,172.617 C3558.08,196.983 3482.75,229.108 3415,254 C3364.57,272.528 3308.12,290.709 3259.4,305.62 " fill="none" id="benchmarkstt.metrics.core.DiffCounts-&gt;benchmarkstt.metrics.Base" style="stroke: #A80036; stroke-width: 1.0;"/><polygon fill="none" points="3261.26,312.371,3240.09,311.484,3257.19,298.975,3261.26,312.371" style="stroke: #A80036; stroke-width: 1.0;"/><!--MD5=[e5fe7389425e8fa15ace28d51ff92339]
link benchmarkstt.diff.core.RatcliffObershelp to benchmarkstt.diff.Base--><path codeLine="184" d="M4140,230.072 C4140,248.707 4140,267.729 4140,284.639 " fill="none" id="benchmarkstt.diff.core.RatcliffObershelp-&gt;benchmarkstt.diff.Base" style="stroke: #A80036; stroke-width: 1.0;"/><polygon fill="none" points="4147,284.74,4140,304.739,4133,284.739,4147,284.74" style="stroke: #A80036; stroke-width: 1.0;"/><!--MD5=[69df8d65935fff5d55d6e09d045eacee]
link benchmarkstt.metrics.core.WER to benchmarkstt.metrics.Base--><path codeLine="185" d="M3138,172.59 C3138,205.486 3138,254.393 3138,291.039 " fill="none" id="benchmarkstt.metrics.core.WER-&gt;benchmarkstt.metrics.Base" style="stroke: #A80036; stroke-width: 1.0;"/><polygon fill="none" points="3145,291.243,3138,311.243,3131,291.243,3145,291.243" style="stroke: #A80036; stroke-width: 1.0;"/><!--MD5=[0284ac7b824015023a82400e9f258ff5]
link benchmarkstt.metrics.core.WordDiffs to benchmarkstt.metrics.Base--><path codeLine="186" d="M2662.18,172.527 C2717.13,196.928 2792.34,229.13 2860,254 C2910.49,272.558 2967.01,290.713 3015.84,305.597 " fill="none" id="benchmarkstt.metrics.core.WordDiffs-&gt;benchmarkstt.metrics.Base" style="stroke: #A80036; stroke-width: 1.0;"/><polygon fill="none" points="3018.08,298.961,3035.2,311.45,3014.03,312.362,3018.08,298.961" style="stroke: #A80036; stroke-width: 1.0;"/><!--MD5=[37b78c1ccfb2aa358bb80ebaa0498fb9]
link benchmarkstt.normalization.BaseWithFileSupport to benchmarkstt.normalization.Base--><path codeLine="187" d="M1400.83,172.775 C1383.9,199.638 1357.19,234.781 1324,254 C1253.77,294.66 1028.61,321.265 902.206,333.399 " fill="none" id="benchmarkstt.normalization.BaseWithFileSupport-&gt;benchmarkstt.normalization.Base" style="stroke: #A80036; stroke-width: 1.0;"/><polygon fill="none" points="902.625,340.39,882.058,335.291,901.316,326.452,902.625,340.39" style="stroke: #A80036; stroke-width: 1.0;"/><!--MD5=[3cb413da968790238c893a408b0305b7]
link benchmarkstt.normalization.File to benchmarkstt.normalization.Base--><path codeLine="188" d="M1063.32,178.625 C1011.84,212.155 939.808,259.065 886.402,293.847 " fill="none" id="benchmarkstt.normalization.File-&gt;benchmarkstt.normalization.Base" style="stroke: #A80036; stroke-width: 1.0;"/><polygon fill="none" points="889.993,299.861,869.414,304.91,882.353,288.13,889.993,299.861" style="stroke: #A80036; stroke-width: 1.0;"/><!--MD5=[1d9bf0412570d18f63d4da37cb64a359]
link benchmarkstt.normalization.NormalizationComposite to benchmarkstt.normalization.Base--><path codeLine="189" d="M822.379,185.223 C820.773,215.075 818.712,253.404 817.035,284.572 " fill="none" id="benchmarkstt.normalization.NormalizationComposite-&gt;benchmarkstt.normalization.Base" style="stroke: #A80036; stroke-width: 1.0;"/><polygon fill="none" points="824.011,285.218,815.946,304.813,810.031,284.466,824.011,285.218" style="stroke: #A80036; stroke-width: 1.0;"/><!--MD5=[6bdc621115045471a8cfdc5ce298ccfe]
link benchmarkstt.normalization.core.Lowercase to benchmarkstt.normalization.Base--><path codeLine="190" d="M287.705,172.571 C302.011,199.323 325.189,234.419 356,254 C416.108,292.2 610.024,318.994 725.366,332.012 " fill="none" id="benchmarkstt.normalization.core.Lowercase-&gt;benchmarkstt.normalization.Base" style="stroke: #A80036; stroke-width: 1.0;"/><polygon fill="none" points="726.48,325.092,745.592,334.244,724.944,339.007,726.48,325.092" style="stroke: #A80036; stroke-width: 1.0;"/><!--MD5=[67ef114bf6deee132ce638be27e9ed25]
link benchmarkstt.normalization.core.Unidecode to benchmarkstt.normalization.Base--><path codeLine="191" d="M116.287,172.732 C130.434,199.758 153.598,235.135 185,254 C274.295,307.646 574.542,329.499 725.616,337.264 " fill="none" id="benchmarkstt.normalization.core.Unidecode-&gt;benchmarkstt.normalization.Base" style="stroke: #A80036; stroke-width: 1.0;"/><polygon fill="none" points="726.276,330.288,745.906,338.268,725.584,344.271,726.276,330.288" style="stroke: #A80036; stroke-width: 1.0;"/><!--MD5=[771004f418eb3c217d1e55052c84e8c1]
link benchmarkstt.input.core.File to benchmarkstt.input.Base--><path codeLine="192" d="M1755.82,172.59 C1787.22,207.104 1834.64,259.242 1868.39,296.354 " fill="none" id="benchmarkstt.input.core.File-&gt;benchmarkstt.input.Base" style="stroke: #A80036; stroke-width: 1.0;"/><polygon fill="none" points="1873.66,291.738,1881.94,311.243,1863.3,301.158,1873.66,291.738" style="stroke: #A80036; stroke-width: 1.0;"/><!--MD5=[38c47d21492b1cc4a827009b25b5ec84]
link benchmarkstt.segmentation.core.Simple to benchmarkstt.segmentation.Base--><path codeLine="193" d="M4509,172.59 C4509,205.486 4509,254.393 4509,291.039 " fill="none" id="benchmarkstt.segmentation.core.Simple-&gt;benchmarkstt.segmentation.Base" style="stroke: #A80036; stroke-width: 1.0;"/><polygon fill="none" points="4516,291.243,4509,311.243,4502,291.243,4516,291.243" style="stroke: #A80036; stroke-width: 1.0;"/><!--MD5=[2a8182dc3464d20f1187ad0ef6eb53df]
link benchmarkstt.output.core.Json to benchmarkstt.output.Base--><path codeLine="194" d="M5437.25,185.133 C5405.67,252.657 5348.56,374.754 5314.27,448.055 " fill="none" id="benchmarkstt.output.core.Json-&gt;benchmarkstt.output.Base" style="stroke: #A80036; stroke-width: 1.0;"/><polygon fill="none" points="5320.48,451.312,5305.66,466.463,5307.8,445.381,5320.48,451.312" style="stroke: #A80036; stroke-width: 1.0;"/><!--MD5=[2bccf275cbe3aceb7db1ce9b7dd39b52]
link benchmarkstt.output.core.MarkDown to benchmarkstt.output.core.SimpleTextBase--><path codeLine="195" d="M5168,185.223 C5168,211.144 5168,243.457 5168,271.923 " fill="none" id="benchmarkstt.output.core.MarkDown-&gt;benchmarkstt.output.core.SimpleTextBase" style="stroke: #A80036; stroke-width: 1.0;"/><polygon fill="none" points="5175,272.296,5168,292.296,5161,272.296,5175,272.296" style="stroke: #A80036; stroke-width: 1.0;"/><!--MD5=[0d62d6bcbda8bc239da923eb8754439f]
link benchmarkstt.output.core.ReStructuredText to benchmarkstt.output.core.SimpleTextBase--><path codeLine="196" d="M4932.47,185.019 C4958.98,206.986 4991.41,232.734 5022,254 C5035.43,263.34 5049.9,272.716 5064.32,281.674 " fill="none" id="benchmarkstt.output.core.ReStructuredText-&gt;benchmarkstt.output.core.SimpleTextBase" style="stroke: #A80036; stroke-width: 1.0;"/><polygon fill="none" points="5068.39,275.961,5081.81,292.363,5061.09,287.907,5068.39,275.961" style="stroke: #A80036; stroke-width: 1.0;"/><!--MD5=[4e9bbf76320290330975bd62852c480e]
link benchmarkstt.output.core.SimpleTextBase to benchmarkstt.output.Base--><path codeLine="197" d="M5202.77,391.76 C5215.74,409.957 5230.61,430.808 5244.15,449.806 " fill="none" id="benchmarkstt.output.core.SimpleTextBase-&gt;benchmarkstt.output.Base" style="stroke: #A80036; stroke-width: 1.0;"/><polygon fill="none" points="5249.97,445.907,5255.88,466.256,5238.57,454.035,5249.97,445.907" style="stroke: #A80036; stroke-width: 1.0;"/><!--MD5=[bdef530be43bdb1cdeab5bf2c130fb69]
@startuml
class benchmarkstt.normalization.core.Config {
			+__init__(self, file, section=None, encoding=None)
			+__repr__(self)
			+normalize(cls, text)

		}


		class benchmarkstt.input.core.PlainText {
			+__init__(self, text, segmenter=None, normalizer=None)
			+__iter__(self)

		}


		class benchmarkstt.metrics.Base {
			+compare(self, ref: benchmarkstt.schema.Schema, hyp: benchmarkstt.schema.Schema)

		}


		class benchmarkstt.metrics.core.DiffCounts {
			+__init__(self, differ_class=None)
			+compare(self, ref: benchmarkstt.schema.Schema, hyp: benchmarkstt.schema.Schema)

		}


		class benchmarkstt.diff.core.RatcliffObershelp {
			+__init__(self, a, b, *args, **kwargs)
			+find_longest_match(self, alo, ahi, blo, bhi)
			+get_grouped_opcodes(self, n=3)
			+get_matching_blocks(self)
			+get_opcodes(self)
			+quick_ratio(self)
			+ratio(self)
			+real_quick_ratio(self)
			+set_seq1(self, a)
			+set_seq2(self, b)
			+set_seqs(self, a, b)

		}


		class benchmarkstt.metrics.core.WER {
			+__init__(self, mode=None, differ_class=None)
			+compare(self, ref: benchmarkstt.schema.Schema, hyp: benchmarkstt.schema.Schema)

		}


		class benchmarkstt.metrics.core.WordDiffs {
			+__init__(self, dialect=None, differ_class=None)
			+compare(self, ref: benchmarkstt.schema.Schema, hyp: benchmarkstt.schema.Schema)

		}


		class benchmarkstt.normalization.Base {
			+__repr__(self)
			+normalize(cls, text)

		}


		class benchmarkstt.normalization.BaseWithFileSupport {
			+__repr__(self)
			+normalize(cls, text)

		}


		class benchmarkstt.normalization.File {
			+__init__(self, normalizer, file, encoding=None, path=None)
			+__repr__(self)
			+normalize(cls, text)

		}


		class benchmarkstt.normalization.NormalizationComposite {
			+__init__(self, title=None)
			+__repr__(self)
			+add(self, normalizer)
			+normalize(cls, text)

		}


		class benchmarkstt.normalization.core.Lowercase {
			+__repr__(self)
			+normalize(cls, text)

		}


		class benchmarkstt.normalization.core.Unidecode {
			+__repr__(self)
			+normalize(cls, text)

		}


		class benchmarkstt.input.Base {
			+__iter__(self)

		}


		class benchmarkstt.input.core.File {
			+__init__(self, file, input_type=None, normalizer=None)
			+__iter__(self)

		}


		class benchmarkstt.segmentation.Base {
			+__iter__(self)

		}


		class benchmarkstt.segmentation.core.Simple {
			+__init__(self, text: str, pattern='[\\n\\t\\s]+', normalizer=None)
			+__iter__(self)

		}


		class benchmarkstt.output.Base {
			+__enter__(self)
			+__exit__(self, exc_type, exc_val, exc_tb)
			+result(self, title, result)

		}


		class benchmarkstt.output.core.Json {
			+__enter__(self)
			+__exit__(self, exc_type, exc_val, exc_tb)
			+__init__(self)
			+result(self, title, result)

		}


		class benchmarkstt.output.core.MarkDown {
			+__enter__(self)
			+__exit__(self, exc_type, exc_val, exc_tb)
			+print(self, result)
			+result(self, title, result)

		}


		class benchmarkstt.output.core.ReStructuredText {
			+__enter__(self)
			+__exit__(self, exc_type, exc_val, exc_tb)
			+print(self, result)
			+result(self, title, result)

		}


		class benchmarkstt.output.core.SimpleTextBase {
			+__enter__(self)
			+__exit__(self, exc_type, exc_val, exc_tb)
			+print(self, result)
			+result(self, title, result)

		}


		class benchmarkstt.diff.Base {
			+__init__(self, a='', b='')
			+get_opcodes(self)

		}


benchmarkstt.normalization.core.Config - -|> benchmarkstt.normalization.Base
benchmarkstt.input.core.PlainText - -|> benchmarkstt.input.Base
benchmarkstt.metrics.core.DiffCounts - -|> benchmarkstt.metrics.Base
benchmarkstt.diff.core.RatcliffObershelp - -|> benchmarkstt.diff.Base
benchmarkstt.metrics.core.WER - -|> benchmarkstt.metrics.Base
benchmarkstt.metrics.core.WordDiffs - -|> benchmarkstt.metrics.Base
benchmarkstt.normalization.BaseWithFileSupport - -|> benchmarkstt.normalization.Base
benchmarkstt.normalization.File - -|> benchmarkstt.normalization.Base
benchmarkstt.normalization.NormalizationComposite - -|> benchmarkstt.normalization.Base
benchmarkstt.normalization.core.Lowercase - -|> benchmarkstt.normalization.Base
benchmarkstt.normalization.core.Unidecode - -|> benchmarkstt.normalization.Base
benchmarkstt.input.core.File - -|> benchmarkstt.input.Base
benchmarkstt.segmentation.core.Simple - -|> benchmarkstt.segmentation.Base
benchmarkstt.output.core.Json - -|> benchmarkstt.output.Base
benchmarkstt.output.core.MarkDown - -|> benchmarkstt.output.core.SimpleTextBase
benchmarkstt.output.core.ReStructuredText - -|> benchmarkstt.output.core.SimpleTextBase
benchmarkstt.output.core.SimpleTextBase - -|> benchmarkstt.output.Base
@enduml

PlantUML version 1.2020.16beta7(Unknown compile time)
(GPL source distribution)
Java Runtime: Java(TM) SE Runtime Environment
JVM: Java HotSpot(TM) 64-Bit Server VM
Default Encoding: UTF-8
Language: en
Country: US
--></g></svg>