<?xml version="1.0" encoding="UTF-8" standalone="no"?><svg xmlns="http://www.w3.org/2000/svg" xmlns:xlink="http://www.w3.org/1999/xlink" contentScriptType="application/ecmascript" contentStyleType="text/css" height="741px" preserveAspectRatio="none" style="width:858px;height:741px;" version="1.1" viewBox="0 0 858 741" width="858px" zoomAndPan="magnify"><defs><filter height="300%" id="fdrywn78q5t1v" width="300%" x="-1" y="-1"><feGaussianBlur result="blurOut" stdDeviation="2.0"/><feColorMatrix in="blurOut" result="blurOut2" type="matrix" values="0 0 0 0 0 0 0 0 0 0 0 0 0 0 0 0 0 0 .4 0"/><feOffset dx="4.0" dy="4.0" in="blurOut2" result="blurOut3"/><feBlend in="SourceGraphic" in2="blurOut3" mode="normal"/></filter></defs><g><text fill="#000000" font-family="sans-serif" font-size="18" lengthAdjust="spacingAndGlyphs" textLength="184" x="328" y="17.4023">benchmarkstt.output</text><!--MD5=[c2f5f1914e6a0fca7cbdb2b44310c20b]
cluster benchmarkstt.output--><polygon fill="#FFFFFF" filter="url(#fdrywn78q5t1v)" points="440,591.1992,596,591.1992,603,613.6875,712,613.6875,712,729.1992,440,729.1992,440,591.1992" style="stroke: #000000; stroke-width: 1.5;"/><line style="stroke: #000000; stroke-width: 1.5;" x1="440" x2="603" y1="613.6875" y2="613.6875"/><text fill="#000000" font-family="sans-serif" font-size="14" font-weight="bold" lengthAdjust="spacingAndGlyphs" textLength="150" x="444" y="606.7344">benchmarkstt.output</text><!--MD5=[847d3ee6f8e67faab7de214c96ed8267]
cluster benchmarkstt.output.core--><polygon fill="#FFFFFF" filter="url(#fdrywn78q5t1v)" points="16,27.1992,205,27.1992,212,49.6875,836,49.6875,836,460.1992,16,460.1992,16,27.1992" style="stroke: #000000; stroke-width: 1.5;"/><line style="stroke: #000000; stroke-width: 1.5;" x1="16" x2="212" y1="49.6875" y2="49.6875"/><text fill="#000000" font-family="sans-serif" font-size="14" font-weight="bold" lengthAdjust="spacingAndGlyphs" textLength="183" x="20" y="42.7344">benchmarkstt.output.core</text><!--MD5=[6bad0332cb50a567e063560f49fe1b05]
class benchmarkstt.output.Base--><a href="https://benchmarkstt.readthedocs.io/en/latest/modules/benchmarkstt.output.html#benchmarkstt.output.Base" target="_top" title="https://benchmarkstt.readthedocs.io/en/latest/modules/benchmarkstt.output.html#benchmarkstt.output.Base" xlink:actuate="onRequest" xlink:href="https://benchmarkstt.readthedocs.io/en/latest/modules/benchmarkstt.output.html#benchmarkstt.output.Base" xlink:show="new" xlink:title="https://benchmarkstt.readthedocs.io/en/latest/modules/benchmarkstt.output.html#benchmarkstt.output.Base" xlink:type="simple"><rect fill="#FEFECE" filter="url(#fdrywn78q5t1v)" height="86.8652" id="benchmarkstt.output.Base" style="stroke: #A80036; stroke-width: 1.5;" width="239" x="456.5" y="626.1992"/><ellipse cx="558.25" cy="642.1992" fill="#ADD1B2" rx="11" ry="11" style="stroke: #A80036; stroke-width: 1.0;"/><path d="M560.7231,648.3423 Q560.1421,648.6411 559.5029,648.7905 Q558.8638,648.9399 558.1582,648.9399 Q555.6514,648.9399 554.3315,647.2881 Q553.0117,645.6362 553.0117,642.5151 Q553.0117,639.3857 554.3315,637.7339 Q555.6514,636.082 558.1582,636.082 Q558.8638,636.082 559.5112,636.2314 Q560.1587,636.3809 560.7231,636.6797 L560.7231,639.4023 Q560.0923,638.8213 559.4988,638.5515 Q558.9053,638.2817 558.2744,638.2817 Q556.9297,638.2817 556.2449,639.3484 Q555.5601,640.415 555.5601,642.5151 Q555.5601,644.6069 556.2449,645.6736 Q556.9297,646.7402 558.2744,646.7402 Q558.9053,646.7402 559.4988,646.4705 Q560.0923,646.2007 560.7231,645.6196 Z "/><text fill="#000000" font-family="sans-serif" font-size="12" lengthAdjust="spacingAndGlyphs" textLength="27" x="578.75" y="646.7344">Base</text><line style="stroke: #A80036; stroke-width: 1.5;" x1="457.5" x2="694.5" y1="658.1992" y2="658.1992"/><line style="stroke: #A80036; stroke-width: 1.5;" x1="457.5" x2="694.5" y1="666.1992" y2="666.1992"/><ellipse cx="467.5" cy="677.1992" fill="#84BE84" rx="3" ry="3" style="stroke: #038048; stroke-width: 1.0;"/><text fill="#000000" font-family="sans-serif" font-size="11" lengthAdjust="spacingAndGlyphs" textLength="79" x="476.5" y="680.834">__enter__(self)</text><ellipse cx="467.5" cy="690.1543" fill="#84BE84" rx="3" ry="3" style="stroke: #038048; stroke-width: 1.0;"/><text fill="#000000" font-family="sans-serif" font-size="11" lengthAdjust="spacingAndGlyphs" textLength="213" x="476.5" y="693.7891">__exit__(self, exc_type, exc_val, exc_tb)</text><ellipse cx="467.5" cy="703.1094" fill="#84BE84" rx="3" ry="3" style="stroke: #038048; stroke-width: 1.0;"/><text fill="#000000" font-family="sans-serif" font-size="11" lengthAdjust="spacingAndGlyphs" textLength="121" x="476.5" y="706.7441">result(self, title, result)</text></a><!--MD5=[f736c00f8e3d82ae904e3d345ee15690]
class benchmarkstt.output.core.Json--><a href="https://benchmarkstt.readthedocs.io/en/latest/modules/benchmarkstt.output.core.html#benchmarkstt.output.core.Json" target="_top" title="https://benchmarkstt.readthedocs.io/en/latest/modules/benchmarkstt.output.core.html#benchmarkstt.output.core.Json" xlink:actuate="onRequest" xlink:href="https://benchmarkstt.readthedocs.io/en/latest/modules/benchmarkstt.output.core.html#benchmarkstt.output.core.Json" xlink:show="new" xlink:title="https://benchmarkstt.readthedocs.io/en/latest/modules/benchmarkstt.output.core.html#benchmarkstt.output.core.Json" xlink:type="simple"><rect fill="#FEFECE" filter="url(#fdrywn78q5t1v)" height="99.8203" id="benchmarkstt.output.core.Json" style="stroke: #A80036; stroke-width: 1.5;" width="239" x="580.5" y="62.1992"/><ellipse cx="683.75" cy="78.1992" fill="#ADD1B2" rx="11" ry="11" style="stroke: #A80036; stroke-width: 1.0;"/><path d="M686.2231,84.3423 Q685.6421,84.6411 685.0029,84.7905 Q684.3638,84.9399 683.6582,84.9399 Q681.1514,84.9399 679.8315,83.2881 Q678.5117,81.6362 678.5117,78.5151 Q678.5117,75.3857 679.8315,73.7339 Q681.1514,72.082 683.6582,72.082 Q684.3638,72.082 685.0112,72.2314 Q685.6587,72.3809 686.2231,72.6797 L686.2231,75.4023 Q685.5923,74.8213 684.9988,74.5515 Q684.4053,74.2817 683.7744,74.2817 Q682.4297,74.2817 681.7449,75.3484 Q681.0601,76.415 681.0601,78.5151 Q681.0601,80.6069 681.7449,81.6736 Q682.4297,82.7402 683.7744,82.7402 Q684.4053,82.7402 684.9988,82.4705 Q685.5923,82.2007 686.2231,81.6196 Z "/><text fill="#000000" font-family="sans-serif" font-size="12" lengthAdjust="spacingAndGlyphs" textLength="24" x="704.25" y="82.7344">Json</text><line style="stroke: #A80036; stroke-width: 1.5;" x1="581.5" x2="818.5" y1="94.1992" y2="94.1992"/><line style="stroke: #A80036; stroke-width: 1.5;" x1="581.5" x2="818.5" y1="102.1992" y2="102.1992"/><ellipse cx="591.5" cy="113.1992" fill="#84BE84" rx="3" ry="3" style="stroke: #038048; stroke-width: 1.0;"/><text fill="#000000" font-family="sans-serif" font-size="11" lengthAdjust="spacingAndGlyphs" textLength="79" x="600.5" y="116.834">__enter__(self)</text><ellipse cx="591.5" cy="126.1543" fill="#84BE84" rx="3" ry="3" style="stroke: #038048; stroke-width: 1.0;"/><text fill="#000000" font-family="sans-serif" font-size="11" lengthAdjust="spacingAndGlyphs" textLength="213" x="600.5" y="129.7891">__exit__(self, exc_type, exc_val, exc_tb)</text><ellipse cx="591.5" cy="139.1094" fill="#84BE84" rx="3" ry="3" style="stroke: #038048; stroke-width: 1.0;"/><text fill="#000000" font-family="sans-serif" font-size="11" lengthAdjust="spacingAndGlyphs" textLength="68" x="600.5" y="142.7441">__init__(self)</text><ellipse cx="591.5" cy="152.0645" fill="#84BE84" rx="3" ry="3" style="stroke: #038048; stroke-width: 1.0;"/><text fill="#000000" font-family="sans-serif" font-size="11" lengthAdjust="spacingAndGlyphs" textLength="121" x="600.5" y="155.6992">result(self, title, result)</text></a><!--MD5=[1202924086ca6a88207a70c63baf9330]
class benchmarkstt.output.core.MarkDown--><a href="https://benchmarkstt.readthedocs.io/en/latest/modules/benchmarkstt.output.core.html#benchmarkstt.output.core.MarkDown" target="_top" title="https://benchmarkstt.readthedocs.io/en/latest/modules/benchmarkstt.output.core.html#benchmarkstt.output.core.MarkDown" xlink:actuate="onRequest" xlink:href="https://benchmarkstt.readthedocs.io/en/latest/modules/benchmarkstt.output.core.html#benchmarkstt.output.core.MarkDown" xlink:show="new" xlink:title="https://benchmarkstt.readthedocs.io/en/latest/modules/benchmarkstt.output.core.html#benchmarkstt.output.core.MarkDown" xlink:type="simple"><rect fill="#FEFECE" filter="url(#fdrywn78q5t1v)" height="99.8203" id="benchmarkstt.output.core.MarkDown" style="stroke: #A80036; stroke-width: 1.5;" width="239" x="306.5" y="62.1992"/><ellipse cx="391.25" cy="78.1992" fill="#ADD1B2" rx="11" ry="11" style="stroke: #A80036; stroke-width: 1.0;"/><path d="M393.7231,84.3423 Q393.1421,84.6411 392.5029,84.7905 Q391.8638,84.9399 391.1582,84.9399 Q388.6514,84.9399 387.3315,83.2881 Q386.0117,81.6362 386.0117,78.5151 Q386.0117,75.3857 387.3315,73.7339 Q388.6514,72.082 391.1582,72.082 Q391.8638,72.082 392.5112,72.2314 Q393.1587,72.3809 393.7231,72.6797 L393.7231,75.4023 Q393.0923,74.8213 392.4988,74.5515 Q391.9053,74.2817 391.2744,74.2817 Q389.9297,74.2817 389.2449,75.3484 Q388.5601,76.415 388.5601,78.5151 Q388.5601,80.6069 389.2449,81.6736 Q389.9297,82.7402 391.2744,82.7402 Q391.9053,82.7402 392.4988,82.4705 Q393.0923,82.2007 393.7231,81.6196 Z "/><text fill="#000000" font-family="sans-serif" font-size="12" lengthAdjust="spacingAndGlyphs" textLength="61" x="411.75" y="82.7344">MarkDown</text><line style="stroke: #A80036; stroke-width: 1.5;" x1="307.5" x2="544.5" y1="94.1992" y2="94.1992"/><line style="stroke: #A80036; stroke-width: 1.5;" x1="307.5" x2="544.5" y1="102.1992" y2="102.1992"/><ellipse cx="317.5" cy="113.1992" fill="#84BE84" rx="3" ry="3" style="stroke: #038048; stroke-width: 1.0;"/><text fill="#000000" font-family="sans-serif" font-size="11" lengthAdjust="spacingAndGlyphs" textLength="79" x="326.5" y="116.834">__enter__(self)</text><ellipse cx="317.5" cy="126.1543" fill="#84BE84" rx="3" ry="3" style="stroke: #038048; stroke-width: 1.0;"/><text fill="#000000" font-family="sans-serif" font-size="11" lengthAdjust="spacingAndGlyphs" textLength="213" x="326.5" y="129.7891">__exit__(self, exc_type, exc_val, exc_tb)</text><ellipse cx="317.5" cy="139.1094" fill="#84BE84" rx="3" ry="3" style="stroke: #038048; stroke-width: 1.0;"/><text fill="#000000" font-family="sans-serif" font-size="11" lengthAdjust="spacingAndGlyphs" textLength="90" x="326.5" y="142.7441">print(self, result)</text><ellipse cx="317.5" cy="152.0645" fill="#84BE84" rx="3" ry="3" style="stroke: #038048; stroke-width: 1.0;"/><text fill="#000000" font-family="sans-serif" font-size="11" lengthAdjust="spacingAndGlyphs" textLength="121" x="326.5" y="155.6992">result(self, title, result)</text></a><!--MD5=[1b1c3484ac7c767612303980bbf618ed]
class benchmarkstt.output.core.ReStructuredText--><a href="https://benchmarkstt.readthedocs.io/en/latest/modules/benchmarkstt.output.core.html#benchmarkstt.output.core.ReStructuredText" target="_top" title="https://benchmarkstt.readthedocs.io/en/latest/modules/benchmarkstt.output.core.html#benchmarkstt.output.core.ReStructuredText" xlink:actuate="onRequest" xlink:href="https://benchmarkstt.readthedocs.io/en/latest/modules/benchmarkstt.output.core.html#benchmarkstt.output.core.ReStructuredText" xlink:show="new" xlink:title="https://benchmarkstt.readthedocs.io/en/latest/modules/benchmarkstt.output.core.html#benchmarkstt.output.core.ReStructuredText" xlink:type="simple"><rect fill="#FEFECE" filter="url(#fdrywn78q5t1v)" height="99.8203" id="benchmarkstt.output.core.ReStructuredText" style="stroke: #A80036; stroke-width: 1.5;" width="239" x="32.5" y="62.1992"/><ellipse cx="97.75" cy="78.1992" fill="#ADD1B2" rx="11" ry="11" style="stroke: #A80036; stroke-width: 1.0;"/><path d="M100.2231,84.3423 Q99.6421,84.6411 99.0029,84.7905 Q98.3638,84.9399 97.6582,84.9399 Q95.1514,84.9399 93.8315,83.2881 Q92.5117,81.6362 92.5117,78.5151 Q92.5117,75.3857 93.8315,73.7339 Q95.1514,72.082 97.6582,72.082 Q98.3638,72.082 99.0112,72.2314 Q99.6587,72.3809 100.2231,72.6797 L100.2231,75.4023 Q99.5923,74.8213 98.9988,74.5515 Q98.4053,74.2817 97.7744,74.2817 Q96.4297,74.2817 95.7449,75.3484 Q95.0601,76.415 95.0601,78.5151 Q95.0601,80.6069 95.7449,81.6736 Q96.4297,82.7402 97.7744,82.7402 Q98.4053,82.7402 98.9988,82.4705 Q99.5923,82.2007 100.2231,81.6196 Z "/><text fill="#000000" font-family="sans-serif" font-size="12" lengthAdjust="spacingAndGlyphs" textLength="100" x="118.25" y="82.7344">ReStructuredText</text><line style="stroke: #A80036; stroke-width: 1.5;" x1="33.5" x2="270.5" y1="94.1992" y2="94.1992"/><line style="stroke: #A80036; stroke-width: 1.5;" x1="33.5" x2="270.5" y1="102.1992" y2="102.1992"/><ellipse cx="43.5" cy="113.1992" fill="#84BE84" rx="3" ry="3" style="stroke: #038048; stroke-width: 1.0;"/><text fill="#000000" font-family="sans-serif" font-size="11" lengthAdjust="spacingAndGlyphs" textLength="79" x="52.5" y="116.834">__enter__(self)</text><ellipse cx="43.5" cy="126.1543" fill="#84BE84" rx="3" ry="3" style="stroke: #038048; stroke-width: 1.0;"/><text fill="#000000" font-family="sans-serif" font-size="11" lengthAdjust="spacingAndGlyphs" textLength="213" x="52.5" y="129.7891">__exit__(self, exc_type, exc_val, exc_tb)</text><ellipse cx="43.5" cy="139.1094" fill="#84BE84" rx="3" ry="3" style="stroke: #038048; stroke-width: 1.0;"/><text fill="#000000" font-family="sans-serif" font-size="11" lengthAdjust="spacingAndGlyphs" textLength="90" x="52.5" y="142.7441">print(self, result)</text><ellipse cx="43.5" cy="152.0645" fill="#84BE84" rx="3" ry="3" style="stroke: #038048; stroke-width: 1.0;"/><text fill="#000000" font-family="sans-serif" font-size="11" lengthAdjust="spacingAndGlyphs" textLength="121" x="52.5" y="155.6992">result(self, title, result)</text></a><!--MD5=[ad472f876b41c377ab9c2f7fd723b528]
class benchmarkstt.output.core.SimpleTextBase--><a href="https://benchmarkstt.readthedocs.io/en/latest/modules/benchmarkstt.output.core.html#benchmarkstt.output.core.SimpleTextBase" target="_top" title="https://benchmarkstt.readthedocs.io/en/latest/modules/benchmarkstt.output.core.html#benchmarkstt.output.core.SimpleTextBase" xlink:actuate="onRequest" xlink:href="https://benchmarkstt.readthedocs.io/en/latest/modules/benchmarkstt.output.core.html#benchmarkstt.output.core.SimpleTextBase" xlink:show="new" xlink:title="https://benchmarkstt.readthedocs.io/en/latest/modules/benchmarkstt.output.core.html#benchmarkstt.output.core.SimpleTextBase" xlink:type="simple"><rect fill="#FEFECE" filter="url(#fdrywn78q5t1v)" height="99.8203" id="benchmarkstt.output.core.SimpleTextBase" style="stroke: #A80036; stroke-width: 1.5;" width="239" x="306.5" y="344.1992"/><ellipse cx="376.25" cy="360.1992" fill="#ADD1B2" rx="11" ry="11" style="stroke: #A80036; stroke-width: 1.0;"/><path d="M378.7231,366.3423 Q378.1421,366.6411 377.5029,366.7905 Q376.8638,366.9399 376.1582,366.9399 Q373.6514,366.9399 372.3315,365.2881 Q371.0117,363.6362 371.0117,360.5151 Q371.0117,357.3857 372.3315,355.7339 Q373.6514,354.082 376.1582,354.082 Q376.8638,354.082 377.5112,354.2314 Q378.1587,354.3809 378.7231,354.6797 L378.7231,357.4023 Q378.0923,356.8213 377.4988,356.5515 Q376.9053,356.2817 376.2744,356.2817 Q374.9297,356.2817 374.2449,357.3484 Q373.5601,358.415 373.5601,360.5151 Q373.5601,362.6069 374.2449,363.6736 Q374.9297,364.7402 376.2744,364.7402 Q376.9053,364.7402 377.4988,364.4705 Q378.0923,364.2007 378.7231,363.6196 Z "/><text fill="#000000" font-family="sans-serif" font-size="12" lengthAdjust="spacingAndGlyphs" textLength="91" x="396.75" y="364.7344">SimpleTextBase</text><line style="stroke: #A80036; stroke-width: 1.5;" x1="307.5" x2="544.5" y1="376.1992" y2="376.1992"/><line style="stroke: #A80036; stroke-width: 1.5;" x1="307.5" x2="544.5" y1="384.1992" y2="384.1992"/><ellipse cx="317.5" cy="395.1992" fill="#84BE84" rx="3" ry="3" style="stroke: #038048; stroke-width: 1.0;"/><text fill="#000000" font-family="sans-serif" font-size="11" lengthAdjust="spacingAndGlyphs" textLength="79" x="326.5" y="398.834">__enter__(self)</text><ellipse cx="317.5" cy="408.1543" fill="#84BE84" rx="3" ry="3" style="stroke: #038048; stroke-width: 1.0;"/><text fill="#000000" font-family="sans-serif" font-size="11" lengthAdjust="spacingAndGlyphs" textLength="213" x="326.5" y="411.7891">__exit__(self, exc_type, exc_val, exc_tb)</text><ellipse cx="317.5" cy="421.1094" fill="#84BE84" rx="3" ry="3" style="stroke: #038048; stroke-width: 1.0;"/><text fill="#000000" font-family="sans-serif" font-size="11" lengthAdjust="spacingAndGlyphs" textLength="90" x="326.5" y="424.7441">print(self, result)</text><ellipse cx="317.5" cy="434.0645" fill="#84BE84" rx="3" ry="3" style="stroke: #038048; stroke-width: 1.0;"/><text fill="#000000" font-family="sans-serif" font-size="11" lengthAdjust="spacingAndGlyphs" textLength="121" x="326.5" y="437.6992">result(self, title, result)</text></a><!--MD5=[2a8182dc3464d20f1187ad0ef6eb53df]
link benchmarkstt.output.core.Json to benchmarkstt.output.Base--><path d="M677.04,162.2492 C663.5,195.5992 649,241.1392 649,283.1992 C649,283.1992 649,283.1992 649,505.1992 C649,541.4992 633.81,578.6992 617.29,608.4292 " fill="none" id="benchmarkstt.output.core.Json-&gt;benchmarkstt.output.Base" style="stroke: #A80036; stroke-width: 1.0;"/><polygon fill="none" points="623.17,612.2492,606.96,625.8992,611.12,605.1192,623.17,612.2492" style="stroke: #A80036; stroke-width: 1.0;"/><!--MD5=[2bccf275cbe3aceb7db1ce9b7dd39b52]
link benchmarkstt.output.core.MarkDown to benchmarkstt.output.core.SimpleTextBase--><path d="M426,162.2892 C426,207.1292 426,273.8892 426,324.1092 " fill="none" id="benchmarkstt.output.core.MarkDown-&gt;benchmarkstt.output.core.SimpleTextBase" style="stroke: #A80036; stroke-width: 1.0;"/><polygon fill="none" points="433,324.1592,426,344.1592,419,324.1592,433,324.1592" style="stroke: #A80036; stroke-width: 1.0;"/><!--MD5=[0d62d6bcbda8bc239da923eb8754439f]
link benchmarkstt.output.core.ReStructuredText to benchmarkstt.output.core.SimpleTextBase--><path d="M200.04,162.2892 C245.58,208.8292 314.22,278.9792 363.9,329.7392 " fill="none" id="benchmarkstt.output.core.ReStructuredText-&gt;benchmarkstt.output.core.SimpleTextBase" style="stroke: #A80036; stroke-width: 1.0;"/><polygon fill="none" points="369.03,324.9692,378.01,344.1592,359.02,334.7692,369.03,324.9692" style="stroke: #A80036; stroke-width: 1.0;"/><!--MD5=[4e9bbf76320290330975bd62852c480e]
link benchmarkstt.output.core.SimpleTextBase to benchmarkstt.output.Base--><path d="M452.99,444.4092 C478.2,490.3692 515.88,559.0792 542.89,608.3292 " fill="none" id="benchmarkstt.output.core.SimpleTextBase-&gt;benchmarkstt.output.Base" style="stroke: #A80036; stroke-width: 1.0;"/><polygon fill="none" points="549.19,605.2692,552.67,626.1692,536.92,611.9992,549.19,605.2692" style="stroke: #A80036; stroke-width: 1.0;"/><!--MD5=[26d2e93c45e129208cb0095991e82eb5]
@startuml
title benchmarkstt.output

package benchmarkstt.output {

	class benchmarkstt.output.Base [[https://benchmarkstt.readthedocs.io/en/latest/modules/benchmarkstt.output.html#benchmarkstt.output.Base]] {
	+__enter__(self)
	+__exit__(self, exc_type, exc_val, exc_tb)
	+result(self, title, result)
	}
}
package benchmarkstt.output.core {

	class benchmarkstt.output.core.Json [[https://benchmarkstt.readthedocs.io/en/latest/modules/benchmarkstt.output.core.html#benchmarkstt.output.core.Json]] {
	+__enter__(self)
	+__exit__(self, exc_type, exc_val, exc_tb)
	+__init__(self)
	+result(self, title, result)
	}

	class benchmarkstt.output.core.MarkDown [[https://benchmarkstt.readthedocs.io/en/latest/modules/benchmarkstt.output.core.html#benchmarkstt.output.core.MarkDown]] {
	+__enter__(self)
	+__exit__(self, exc_type, exc_val, exc_tb)
	+print(self, result)
	+result(self, title, result)
	}

	class benchmarkstt.output.core.ReStructuredText [[https://benchmarkstt.readthedocs.io/en/latest/modules/benchmarkstt.output.core.html#benchmarkstt.output.core.ReStructuredText]] {
	+__enter__(self)
	+__exit__(self, exc_type, exc_val, exc_tb)
	+print(self, result)
	+result(self, title, result)
	}

	class benchmarkstt.output.core.SimpleTextBase [[https://benchmarkstt.readthedocs.io/en/latest/modules/benchmarkstt.output.core.html#benchmarkstt.output.core.SimpleTextBase]] {
	+__enter__(self)
	+__exit__(self, exc_type, exc_val, exc_tb)
	+print(self, result)
	+result(self, title, result)
	}
}

benchmarkstt.output.core.Json - - - -|> benchmarkstt.output.Base
benchmarkstt.output.core.MarkDown - - - -|> benchmarkstt.output.core.SimpleTextBase
benchmarkstt.output.core.ReStructuredText - - - -|> benchmarkstt.output.core.SimpleTextBase
benchmarkstt.output.core.SimpleTextBase - - - -|> benchmarkstt.output.Base
@enduml

PlantUML version 1.2020.15(Sun Jun 28 13:39:45 CEST 2020)
(GPL source distribution)
Java Runtime: OpenJDK Runtime Environment
JVM: OpenJDK 64-Bit Server VM
Default Encoding: UTF-8
Language: en
Country: BE
--></g></svg>