<?xml version="1.0" encoding="UTF-8" standalone="no"?><svg xmlns="http://www.w3.org/2000/svg" xmlns:xlink="http://www.w3.org/1999/xlink" contentScriptType="application/ecmascript" contentStyleType="text/css" height="312px" preserveAspectRatio="none" style="width:384px;height:312px;" version="1.1" viewBox="0 0 384 312" width="384px" zoomAndPan="magnify"><defs><filter height="300%" id="f6bb7s6gkdfz7" width="300%" x="-1" y="-1"><feGaussianBlur result="blurOut" stdDeviation="2.0"/><feColorMatrix in="blurOut" result="blurOut2" type="matrix" values="0 0 0 0 0 0 0 0 0 0 0 0 0 0 0 0 0 0 .4 0"/><feOffset dx="4.0" dy="4.0" in="blurOut2" result="blurOut3"/><feBlend in="SourceGraphic" in2="blurOut3" mode="normal"/></filter></defs><g><text fill="#000000" font-family="sans-serif" font-size="18" lengthAdjust="spacingAndGlyphs" textLength="245" x="60.5" y="17.4023">benchmarkstt.segmentation</text><!--MD5=[65eb5fcee437765d99707c9196661bb6]
cluster benchmarkstt.segmentation--><rect fill="#FFFFFF" filter="url(#f6bb7s6gkdfz7)" height="115" style="stroke: #000000; stroke-width: 1.5;" width="217" x="79" y="28.1992"/><path d="M290,29.1992 L290,37.6875 L280,47.6875 L79,47.6875 " fill="none" style="stroke: #000000; stroke-width: 1.5;"/><text fill="#000000" font-family="sans-serif" font-size="14" font-weight="bold" lengthAdjust="spacingAndGlyphs" textLength="201" x="82" y="42.7344">benchmarkstt.segmentation</text><!--MD5=[bbd7f55af96c8522598147a787b5c5b9]
cluster benchmarkstt.segmentation.core--><rect fill="#FFFFFF" filter="url(#f6bb7s6gkdfz7)" height="128" style="stroke: #000000; stroke-width: 1.5;" width="360" x="7" y="167.1992"/><path d="M251,168.1992 L251,176.6875 L241,186.6875 L7,186.6875 " fill="none" style="stroke: #000000; stroke-width: 1.5;"/><text fill="#000000" font-family="sans-serif" font-size="14" font-weight="bold" lengthAdjust="spacingAndGlyphs" textLength="234" x="10" y="181.7344">benchmarkstt.segmentation.core</text><!--MD5=[002c34d32132957f7ddeee40910e80d3]
class benchmarkstt.segmentation.Base--><a href="https://benchmarkstt.readthedocs.io/en/latest/modules/benchmarkstt.segmentation.html#benchmarkstt.segmentation.Base" target="_top" title="https://benchmarkstt.readthedocs.io/en/latest/modules/benchmarkstt.segmentation.html#benchmarkstt.segmentation.Base" xlink:actuate="onRequest" xlink:href="https://benchmarkstt.readthedocs.io/en/latest/modules/benchmarkstt.segmentation.html#benchmarkstt.segmentation.Base" xlink:show="new" xlink:title="https://benchmarkstt.readthedocs.io/en/latest/modules/benchmarkstt.segmentation.html#benchmarkstt.segmentation.Base" xlink:type="simple"><rect fill="#CCCCCC" filter="url(#f6bb7s6gkdfz7)" height="63.9102" id="benchmarkstt.segmentation.Base" style="stroke: #AAAAAA; stroke-width: 1.5;" width="89" x="142.5" y="63.1992"/><ellipse cx="170.25" cy="76.1992" fill="#FF8800" rx="8" ry="8" style="stroke: #AAAAAA; stroke-width: 1.0;"/><path d="M170.3853,80.355 Q169.4937,80.355 168.739,80.0918 Q167.9844,79.8286 167.4419,79.3076 Q166.8994,78.7866 166.6013,78.0078 Q166.3032,77.229 166.3032,76.2085 Q166.3032,75.2578 166.5879,74.4844 Q166.8726,73.7109 167.415,73.1577 Q167.936,72.626 168.7068,72.3359 Q169.4775,72.0459 170.3906,72.0459 Q170.8955,72.0459 171.301,72.1023 Q171.7065,72.1587 172.0503,72.25 Q172.4102,72.3521 172.7029,72.4783 Q172.9956,72.6045 173.2158,72.7119 L173.2158,74.6509 L172.9795,74.6509 Q172.8291,74.522 172.6008,74.3447 Q172.3726,74.1675 172.0825,73.9956 Q171.7871,73.8237 171.4434,73.7056 Q171.0996,73.5874 170.7075,73.5874 Q170.2725,73.5874 169.8804,73.7244 Q169.4883,73.8613 169.1553,74.1782 Q168.8384,74.4844 168.6423,74.9893 Q168.4463,75.4941 168.4463,76.2139 Q168.4463,76.9658 168.6584,77.4707 Q168.8706,77.9756 169.1929,78.2656 Q169.5205,78.561 169.9233,78.6873 Q170.3262,78.8135 170.7183,78.8135 Q171.0942,78.8135 171.4622,78.7007 Q171.8301,78.5879 172.1416,78.3945 Q172.4048,78.2388 172.6304,78.0615 Q172.856,77.8843 173.001,77.7554 L173.2158,77.7554 L173.2158,79.6675 Q172.915,79.8018 172.6411,79.9199 Q172.3672,80.0381 172.0664,80.124 Q171.6743,80.2368 171.3306,80.2959 Q170.9868,80.355 170.3853,80.355 Z "/><text fill="#000000" font-family="Verdana" font-size="11" lengthAdjust="spacingAndGlyphs" textLength="28" x="184.75" y="80.574">Base</text><line style="stroke: #AAAAAA; stroke-width: 1.5;" x1="143.5" x2="230.5" y1="89.1992" y2="89.1992"/><ellipse cx="153.5" cy="117.1543" fill="#84BE84" rx="3" ry="3" style="stroke: #038048; stroke-width: 1.0;"/><text fill="#333333" font-family="sans-serif" font-size="11" lengthAdjust="spacingAndGlyphs" textLength="50" x="159.5" y="120.7891">__iter__()</text><line style="stroke: #AAAAAA; stroke-width: 1.0; stroke-dasharray: 1.0,2.0;" x1="143.5" x2="146.5" y1="103.6768" y2="103.6768"/><text fill="#333333" font-family="sans-serif" font-size="11" lengthAdjust="spacingAndGlyphs" textLength="81" x="146.5" y="107.334">Public Methods</text><line style="stroke: #AAAAAA; stroke-width: 1.0; stroke-dasharray: 1.0,2.0;" x1="227.5" x2="230.5" y1="103.6768" y2="103.6768"/></a><!--MD5=[e6682fb9f1ffb38935fc3ffe4e96004d]
class benchmarkstt.segmentation.core.Simple--><a href="https://benchmarkstt.readthedocs.io/en/latest/modules/benchmarkstt.segmentation.core.html#benchmarkstt.segmentation.core.Simple" target="_top" title="https://benchmarkstt.readthedocs.io/en/latest/modules/benchmarkstt.segmentation.core.html#benchmarkstt.segmentation.core.Simple" xlink:actuate="onRequest" xlink:href="https://benchmarkstt.readthedocs.io/en/latest/modules/benchmarkstt.segmentation.core.html#benchmarkstt.segmentation.core.Simple" xlink:show="new" xlink:title="https://benchmarkstt.readthedocs.io/en/latest/modules/benchmarkstt.segmentation.core.html#benchmarkstt.segmentation.core.Simple" xlink:type="simple"><rect fill="#CCCCCC" filter="url(#f6bb7s6gkdfz7)" height="76.8652" id="benchmarkstt.segmentation.core.Simple" style="stroke: #AAAAAA; stroke-width: 1.5;" width="327" x="23.5" y="202.1992"/><ellipse cx="164" cy="215.1992" fill="#FF8800" rx="8" ry="8" style="stroke: #AAAAAA; stroke-width: 1.0;"/><path d="M164.1353,219.355 Q163.2437,219.355 162.489,219.0918 Q161.7344,218.8286 161.1919,218.3076 Q160.6494,217.7866 160.3513,217.0078 Q160.0532,216.229 160.0532,215.2085 Q160.0532,214.2578 160.3379,213.4844 Q160.6226,212.7109 161.165,212.1577 Q161.686,211.626 162.4568,211.3359 Q163.2275,211.0459 164.1406,211.0459 Q164.6455,211.0459 165.051,211.1023 Q165.4565,211.1587 165.8003,211.25 Q166.1602,211.3521 166.4529,211.4783 Q166.7456,211.6045 166.9658,211.7119 L166.9658,213.6509 L166.7295,213.6509 Q166.5791,213.522 166.3508,213.3447 Q166.1226,213.1675 165.8325,212.9956 Q165.5371,212.8237 165.1934,212.7056 Q164.8496,212.5874 164.4575,212.5874 Q164.0225,212.5874 163.6304,212.7244 Q163.2383,212.8613 162.9053,213.1782 Q162.5884,213.4844 162.3923,213.9893 Q162.1963,214.4941 162.1963,215.2139 Q162.1963,215.9658 162.4084,216.4707 Q162.6206,216.9756 162.9429,217.2656 Q163.2705,217.561 163.6733,217.6873 Q164.0762,217.8135 164.4683,217.8135 Q164.8442,217.8135 165.2122,217.7007 Q165.5801,217.5879 165.8916,217.3945 Q166.1548,217.2388 166.3804,217.0615 Q166.606,216.8843 166.751,216.7554 L166.9658,216.7554 L166.9658,218.6675 Q166.665,218.8018 166.3911,218.9199 Q166.1172,219.0381 165.8164,219.124 Q165.4243,219.2368 165.0806,219.2959 Q164.7368,219.355 164.1353,219.355 Z "/><text fill="#000000" font-family="Verdana" font-size="11" lengthAdjust="spacingAndGlyphs" textLength="39" x="180" y="219.574">Simple</text><line style="stroke: #AAAAAA; stroke-width: 1.5;" x1="24.5" x2="349.5" y1="228.1992" y2="228.1992"/><ellipse cx="34.5" cy="256.1543" fill="#84BE84" rx="3" ry="3" style="stroke: #038048; stroke-width: 1.0;"/><text fill="#333333" font-family="sans-serif" font-size="11" lengthAdjust="spacingAndGlyphs" textLength="304" x="40.5" y="259.7891">__init__(text: str, pattern='[\n\t\s]+', normalizer=None)</text><ellipse cx="34.5" cy="269.1094" fill="#84BE84" rx="3" ry="3" style="stroke: #038048; stroke-width: 1.0;"/><text fill="#333333" font-family="sans-serif" font-size="11" lengthAdjust="spacingAndGlyphs" textLength="50" x="40.5" y="272.7441">__iter__()</text><line style="stroke: #AAAAAA; stroke-width: 1.0; stroke-dasharray: 1.0,2.0;" x1="24.5" x2="146.5" y1="242.6768" y2="242.6768"/><text fill="#333333" font-family="sans-serif" font-size="11" lengthAdjust="spacingAndGlyphs" textLength="81" x="146.5" y="246.334">Public Methods</text><line style="stroke: #AAAAAA; stroke-width: 1.0; stroke-dasharray: 1.0,2.0;" x1="227.5" x2="349.5" y1="242.6768" y2="242.6768"/></a><!--MD5=[ec6170c354b4ffc3f1d5dae0d39c7b48]
reverse link benchmarkstt.segmentation.Base to benchmarkstt.segmentation.core.Simple--><path d="M187,147.6192 C187,165.5692 187,185.3692 187,201.9892 " fill="none" id="benchmarkstt.segmentation.Base&lt;-benchmarkstt.segmentation.core.Simple" style="stroke: #000000; stroke-width: 1.0;"/><polygon fill="none" points="180,147.3392,187,127.3392,194,147.3392,180,147.3392" style="stroke: #000000; stroke-width: 1.0;"/><!--MD5=[b7b47ad98b81877ce406330c9388e144]
@startuml

title benchmarkstt.segmentation

skinparam packageStyle Frame
!define LIGHTORANGE
!includeurl https://raw.githubusercontent.com/Drakemor/RedDress-PlantUML/master/style.puml
package benchmarkstt.segmentation {

	class benchmarkstt.segmentation.Base  [[https://benchmarkstt.readthedocs.io/en/latest/modules/benchmarkstt.segmentation.html#benchmarkstt.segmentation.Base]] {
		.. Public Methods ..
		+__iter__()
	}


}

package benchmarkstt.segmentation.core {



	class benchmarkstt.segmentation.core.Simple  [[https://benchmarkstt.readthedocs.io/en/latest/modules/benchmarkstt.segmentation.core.html#benchmarkstt.segmentation.core.Simple]] extends benchmarkstt.segmentation.Base {
		.. Public Methods ..
		+__init__(text: str, pattern='[\\n\\t\\s]+', normalizer=None)
		+__iter__()
	}

}




@enduml

@startuml

title benchmarkstt.segmentation

skinparam packageStyle Frame










skinparam stereotypeCBackgroundColor FF8800

skinparam backgroundColor fff








skinparam circledCharacter {
  radius 8
  fontSize 11
  fontName Verdana
}

skinparam class {
    backgroundColor ccc
  borderColor aaa
    fontColor 000
  fontName Verdana
  fontSize 11
  stereotypeFontColor 333
  stereotypeFontSize 11
    arrowColor 000
  arrowFontName Verdana
  arrowFontColor 333
  arrowFontSize 11

  attributeFontColor 333
  attributeFontSize 11
  attributeIconSize 11
}


skinparam actor {
    backgroundColor FF8800
  borderColor BB6600
    fontColor 000
  fontName Verdana
  fontSize 11
  stereotypeFontColor 333
  stereotypeFontSize 11
}

skinparam participant {
    backgroundColor ccc
  borderColor aaa
    fontColor 000
  fontName Verdana
  fontSize 11
  stereotypeFontColor 333
  stereotypeFontSize 11
}

skinparam collections {
    backgroundColor ccc
  borderColor aaa
    fontColor 000
  fontName Verdana
  fontSize 11
  stereotypeFontColor 333
  stereotypeFontSize 11
}

skinparam SequenceBox{
    backgroundColor e0e0e0
  borderColor cccccc
    fontColor 000
  fontName Verdana
  fontSize 11
  stereotypeFontColor 333
  stereotypeFontSize 11
}


skinparam interface {
    backgroundColor FF8800
  borderColor BB6600
    fontColor 000
  fontName Verdana
  fontSize 11
  stereotypeFontColor 333
  stereotypeFontSize 11
}

skinparam component {
    backgroundColor ccc
  borderColor aaa
    fontColor 000
  fontName Verdana
  fontSize 11
  stereotypeFontColor 333
  stereotypeFontSize 11
}

skinparam node {
    backgroundColor ccc
  borderColor aaa
    fontColor 000
  fontName Verdana
  fontSize 11
  stereotypeFontColor 333
  stereotypeFontSize 11
}

skinparam database {
    backgroundColor ccc
  borderColor aaa
    fontColor 000
  fontName Verdana
  fontSize 11
  stereotypeFontColor 333
  stereotypeFontSize 11
}

skinparam queue {
    backgroundColor ccc
  borderColor aaa
    fontColor 000
  fontName Verdana
  fontSize 11
  stereotypeFontColor 333
  stereotypeFontSize 11
}


skinparam usecase {
    backgroundColor ccc
  borderColor aaa
    fontColor 000
  fontName Verdana
  fontSize 11
  stereotypeFontColor 333
  stereotypeFontSize 11
    arrowColor 000
  arrowFontName Verdana
  arrowFontColor 333
  arrowFontSize 11
}

skinparam activity {
    backgroundColor ccc
  borderColor aaa
    fontColor 000
  fontName Verdana
  fontSize 11
  stereotypeFontColor 333
  stereotypeFontSize 11
    arrowColor 000
  arrowFontName Verdana
  arrowFontColor 333
  arrowFontSize 11
}

skinparam sequence {
    fontColor 000
  fontName Verdana
  fontSize 11
  stereotypeFontColor 333
  stereotypeFontSize 11
    arrowColor 000
  arrowFontName Verdana
  arrowFontColor 333
  arrowFontSize 11

  lifeLineBorderColor FF8800
  lifeLineBackgroundColor e0e0e0
}

skinparam boundary {
    backgroundColor FF8800
  borderColor BB6600
    fontColor 000
  fontName Verdana
  fontSize 11
  stereotypeFontColor 333
  stereotypeFontSize 11
}

skinparam control {
    backgroundColor FF8800
  borderColor BB6600
    fontColor 000
  fontName Verdana
  fontSize 11
  stereotypeFontColor 333
  stereotypeFontSize 11
}

skinparam entity {
    backgroundColor FF8800
  borderColor BB6600
    fontColor 000
  fontName Verdana
  fontSize 11
  stereotypeFontColor 333
  stereotypeFontSize 11
}


skinparam state {
    backgroundColor ccc
  borderColor aaa
    fontColor 000
  fontName Verdana
  fontSize 11
  stereotypeFontColor 333
  stereotypeFontSize 11
    arrowColor 000
  arrowFontName Verdana
  arrowFontColor 333
  arrowFontSize 11
  startColor FF8800
  endColor BB6600
}


skinparam object {
    backgroundColor ccc
  borderColor aaa
    fontColor 000
  fontName Verdana
  fontSize 11
  stereotypeFontColor 333
  stereotypeFontSize 11
    arrowColor 000
  arrowFontName Verdana
  arrowFontColor 333
  arrowFontSize 11
}


skinparam note {
    backgroundColor FF8800
  borderColor BB6600
    fontColor 000
  fontName Verdana
  fontSize 11
  stereotypeFontColor 333
  stereotypeFontSize 11
}

skinparam cloud {
    backgroundColor ccc
  borderColor aaa
    fontColor 000
  fontName Verdana
  fontSize 11
  stereotypeFontColor 333
  stereotypeFontSize 11
    arrowColor 000
  arrowFontName Verdana
  arrowFontColor 333
  arrowFontSize 11
}

skinparam rectangle {
    backgroundColor ccc
  borderColor aaa
    fontColor 000
  fontName Verdana
  fontSize 11
  stereotypeFontColor 333
  stereotypeFontSize 11
}

skinparam storage {
    backgroundColor ccc
  borderColor aaa
    fontColor 000
  fontName Verdana
  fontSize 11
  stereotypeFontColor 333
  stereotypeFontSize 11
}

package benchmarkstt.segmentation {

	class benchmarkstt.segmentation.Base  [[https://benchmarkstt.readthedocs.io/en/latest/modules/benchmarkstt.segmentation.html#benchmarkstt.segmentation.Base]] {
		.. Public Methods ..
		+__iter__()
	}


}

package benchmarkstt.segmentation.core {



	class benchmarkstt.segmentation.core.Simple  [[https://benchmarkstt.readthedocs.io/en/latest/modules/benchmarkstt.segmentation.core.html#benchmarkstt.segmentation.core.Simple]] extends benchmarkstt.segmentation.Base {
		.. Public Methods ..
		+__init__(text: str, pattern='[\\n\\t\\s]+', normalizer=None)
		+__iter__()
	}

}




@enduml

PlantUML version 1.2020.15(Sun Jun 28 13:39:45 CEST 2020)
(GPL source distribution)
Java Runtime: OpenJDK Runtime Environment
JVM: OpenJDK 64-Bit Server VM
Default Encoding: UTF-8
Language: en
Country: BE
--></g></svg>