<?xml version="1.0" encoding="UTF-8" standalone="no"?><svg xmlns="http://www.w3.org/2000/svg" xmlns:xlink="http://www.w3.org/1999/xlink" contentScriptType="application/ecmascript" contentStyleType="text/css" height="420px" preserveAspectRatio="none" style="width:745px;height:420px;" version="1.1" viewBox="0 0 745 420" width="745px" zoomAndPan="magnify"><defs><filter height="300%" id="f1wo0x97xarz7j" width="300%" x="-1" y="-1"><feGaussianBlur result="blurOut" stdDeviation="2.0"/><feColorMatrix in="blurOut" result="blurOut2" type="matrix" values="0 0 0 0 0 0 0 0 0 0 0 0 0 0 0 0 0 0 .4 0"/><feOffset dx="4.0" dy="4.0" in="blurOut2" result="blurOut3"/><feBlend in="SourceGraphic" in2="blurOut3" mode="normal"/></filter></defs><g><text fill="#000000" font-family="sans-serif" font-size="18" lengthAdjust="spacingAndGlyphs" textLength="171" x="278" y="17.4023">benchmarkstt.input</text><!--MD5=[94de2ef9dde389aecb44d7f232eba8a2]
cluster benchmarkstt.input--><polygon fill="#FFFFFF" filter="url(#f1wo0x97xarz7j)" points="326,296.1992,472,296.1992,479,318.6875,482,318.6875,482,408.1992,326,408.1992,326,296.1992" style="stroke: #000000; stroke-width: 1.5;"/><line style="stroke: #000000; stroke-width: 1.5;" x1="326" x2="479" y1="318.6875" y2="318.6875"/><text fill="#000000" font-family="sans-serif" font-size="14" font-weight="bold" lengthAdjust="spacingAndGlyphs" textLength="140" x="330" y="311.7344">benchmarkstt.input</text><!--MD5=[5c7a64d73ca244446f0e70026cf5d0bf]
cluster benchmarkstt.input.core--><polygon fill="#FFFFFF" filter="url(#f1wo0x97xarz7j)" points="16,27.1992,195,27.1992,202,49.6875,723,49.6875,723,165.1992,16,165.1992,16,27.1992" style="stroke: #000000; stroke-width: 1.5;"/><line style="stroke: #000000; stroke-width: 1.5;" x1="16" x2="202" y1="49.6875" y2="49.6875"/><text fill="#000000" font-family="sans-serif" font-size="14" font-weight="bold" lengthAdjust="spacingAndGlyphs" textLength="173" x="20" y="42.7344">benchmarkstt.input.core</text><!--MD5=[d1e904a0c11302288bad0868539b156c]
class benchmarkstt.input.Base--><a href="https://benchmarkstt.readthedocs.io/en/latest/modules/benchmarkstt.input.html#benchmarkstt.input.Base" target="_top" title="https://benchmarkstt.readthedocs.io/en/latest/modules/benchmarkstt.input.html#benchmarkstt.input.Base" xlink:actuate="onRequest" xlink:href="https://benchmarkstt.readthedocs.io/en/latest/modules/benchmarkstt.input.html#benchmarkstt.input.Base" xlink:show="new" xlink:title="https://benchmarkstt.readthedocs.io/en/latest/modules/benchmarkstt.input.html#benchmarkstt.input.Base" xlink:type="simple"><rect fill="#FEFECE" filter="url(#f1wo0x97xarz7j)" height="60.9551" id="benchmarkstt.input.Base" style="stroke: #A80036; stroke-width: 1.5;" width="95" x="356.5" y="331.1992"/><ellipse cx="387.7" cy="347.1992" fill="#ADD1B2" rx="11" ry="11" style="stroke: #A80036; stroke-width: 1.0;"/><path d="M390.1731,353.3423 Q389.5921,353.6411 388.9529,353.7905 Q388.3138,353.9399 387.6082,353.9399 Q385.1014,353.9399 383.7815,352.2881 Q382.4617,350.6362 382.4617,347.5151 Q382.4617,344.3857 383.7815,342.7339 Q385.1014,341.082 387.6082,341.082 Q388.3138,341.082 388.9612,341.2314 Q389.6087,341.3809 390.1731,341.6797 L390.1731,344.4023 Q389.5423,343.8213 388.9488,343.5515 Q388.3553,343.2817 387.7244,343.2817 Q386.3797,343.2817 385.6949,344.3484 Q385.0101,345.415 385.0101,347.5151 Q385.0101,349.6069 385.6949,350.6736 Q386.3797,351.7402 387.7244,351.7402 Q388.3553,351.7402 388.9488,351.4705 Q389.5423,351.2007 390.1731,350.6196 Z "/><text fill="#000000" font-family="sans-serif" font-size="12" lengthAdjust="spacingAndGlyphs" textLength="27" x="405.3" y="351.7344">Base</text><line style="stroke: #A80036; stroke-width: 1.5;" x1="357.5" x2="450.5" y1="363.1992" y2="363.1992"/><line style="stroke: #A80036; stroke-width: 1.5;" x1="357.5" x2="450.5" y1="371.1992" y2="371.1992"/><ellipse cx="367.5" cy="382.1992" fill="#84BE84" rx="3" ry="3" style="stroke: #038048; stroke-width: 1.0;"/><text fill="#000000" font-family="sans-serif" font-size="11" lengthAdjust="spacingAndGlyphs" textLength="69" x="376.5" y="385.834">__iter__(self)</text></a><!--MD5=[4843f7accda627844ca340f5d1efa37d]
class benchmarkstt.input.core.File--><a href="https://benchmarkstt.readthedocs.io/en/latest/modules/benchmarkstt.input.core.html#benchmarkstt.input.core.File" target="_top" title="https://benchmarkstt.readthedocs.io/en/latest/modules/benchmarkstt.input.core.html#benchmarkstt.input.core.File" xlink:actuate="onRequest" xlink:href="https://benchmarkstt.readthedocs.io/en/latest/modules/benchmarkstt.input.core.html#benchmarkstt.input.core.File" xlink:show="new" xlink:title="https://benchmarkstt.readthedocs.io/en/latest/modules/benchmarkstt.input.core.html#benchmarkstt.input.core.File" xlink:type="simple"><rect fill="#FEFECE" filter="url(#f1wo0x97xarz7j)" height="86.8652" id="benchmarkstt.input.core.File" style="stroke: #A80036; stroke-width: 1.5;" width="317" x="32.5" y="62.1992"/><ellipse cx="177.25" cy="78.1992" fill="#ADD1B2" rx="11" ry="11" style="stroke: #A80036; stroke-width: 1.0;"/><path d="M179.7231,84.3423 Q179.1421,84.6411 178.5029,84.7905 Q177.8638,84.9399 177.1582,84.9399 Q174.6514,84.9399 173.3315,83.2881 Q172.0117,81.6362 172.0117,78.5151 Q172.0117,75.3857 173.3315,73.7339 Q174.6514,72.082 177.1582,72.082 Q177.8638,72.082 178.5112,72.2314 Q179.1587,72.3809 179.7231,72.6797 L179.7231,75.4023 Q179.0923,74.8213 178.4988,74.5515 Q177.9053,74.2817 177.2744,74.2817 Q175.9297,74.2817 175.2449,75.3484 Q174.5601,76.415 174.5601,78.5151 Q174.5601,80.6069 175.2449,81.6736 Q175.9297,82.7402 177.2744,82.7402 Q177.9053,82.7402 178.4988,82.4705 Q179.0923,82.2007 179.7231,81.6196 Z "/><text fill="#000000" font-family="sans-serif" font-size="12" lengthAdjust="spacingAndGlyphs" textLength="19" x="197.75" y="82.7344">File</text><line style="stroke: #A80036; stroke-width: 1.5;" x1="33.5" x2="348.5" y1="94.1992" y2="94.1992"/><line style="stroke: #A80036; stroke-width: 1.5;" x1="33.5" x2="348.5" y1="102.1992" y2="102.1992"/><ellipse cx="43.5" cy="113.1992" fill="#84BE84" rx="3" ry="3" style="stroke: #038048; stroke-width: 1.0;"/><text fill="#000000" font-family="sans-serif" font-size="11" lengthAdjust="spacingAndGlyphs" textLength="291" x="52.5" y="116.834">__init__(self, file, input_type=None, normalizer=None)</text><ellipse cx="43.5" cy="126.1543" fill="#84BE84" rx="3" ry="3" style="stroke: #038048; stroke-width: 1.0;"/><text fill="#000000" font-family="sans-serif" font-size="11" lengthAdjust="spacingAndGlyphs" textLength="69" x="52.5" y="129.7891">__iter__(self)</text><ellipse cx="43.5" cy="139.1094" fill="#84BE84" rx="3" ry="3" style="stroke: #038048; stroke-width: 1.0;"/><text fill="#000000" font-family="sans-serif" font-size="11" lengthAdjust="spacingAndGlyphs" text-decoration="underline" textLength="89" x="52.5" y="142.7441">available_types()</text></a><!--MD5=[3edd34d35203ceb4dd4fa63a3b0c665d]
class benchmarkstt.input.core.PlainText--><a href="https://benchmarkstt.readthedocs.io/en/latest/modules/benchmarkstt.input.core.html#benchmarkstt.input.core.PlainText" target="_top" title="https://benchmarkstt.readthedocs.io/en/latest/modules/benchmarkstt.input.core.html#benchmarkstt.input.core.PlainText" xlink:actuate="onRequest" xlink:href="https://benchmarkstt.readthedocs.io/en/latest/modules/benchmarkstt.input.core.html#benchmarkstt.input.core.PlainText" xlink:show="new" xlink:title="https://benchmarkstt.readthedocs.io/en/latest/modules/benchmarkstt.input.core.html#benchmarkstt.input.core.PlainText" xlink:type="simple"><rect fill="#FEFECE" filter="url(#f1wo0x97xarz7j)" height="73.9102" id="benchmarkstt.input.core.PlainText" style="stroke: #A80036; stroke-width: 1.5;" width="322" x="385" y="68.6992"/><ellipse cx="515.25" cy="84.6992" fill="#ADD1B2" rx="11" ry="11" style="stroke: #A80036; stroke-width: 1.0;"/><path d="M517.7231,90.8423 Q517.1421,91.1411 516.5029,91.2905 Q515.8638,91.4399 515.1582,91.4399 Q512.6514,91.4399 511.3315,89.7881 Q510.0117,88.1362 510.0117,85.0151 Q510.0117,81.8857 511.3315,80.2339 Q512.6514,78.582 515.1582,78.582 Q515.8638,78.582 516.5112,78.7314 Q517.1587,78.8809 517.7231,79.1797 L517.7231,81.9023 Q517.0923,81.3213 516.4988,81.0515 Q515.9053,80.7817 515.2744,80.7817 Q513.9297,80.7817 513.2449,81.8484 Q512.5601,82.915 512.5601,85.0151 Q512.5601,87.1069 513.2449,88.1736 Q513.9297,89.2402 515.2744,89.2402 Q515.9053,89.2402 516.4988,88.9705 Q517.0923,88.7007 517.7231,88.1196 Z "/><text fill="#000000" font-family="sans-serif" font-size="12" lengthAdjust="spacingAndGlyphs" textLength="53" x="535.75" y="89.2344">PlainText</text><line style="stroke: #A80036; stroke-width: 1.5;" x1="386" x2="706" y1="100.6992" y2="100.6992"/><line style="stroke: #A80036; stroke-width: 1.5;" x1="386" x2="706" y1="108.6992" y2="108.6992"/><ellipse cx="396" cy="119.6992" fill="#84BE84" rx="3" ry="3" style="stroke: #038048; stroke-width: 1.0;"/><text fill="#000000" font-family="sans-serif" font-size="11" lengthAdjust="spacingAndGlyphs" textLength="296" x="405" y="123.334">__init__(self, text, segmenter=None, normalizer=None)</text><ellipse cx="396" cy="132.6543" fill="#84BE84" rx="3" ry="3" style="stroke: #038048; stroke-width: 1.0;"/><text fill="#000000" font-family="sans-serif" font-size="11" lengthAdjust="spacingAndGlyphs" textLength="69" x="405" y="136.2891">__iter__(self)</text></a><!--MD5=[771004f418eb3c217d1e55052c84e8c1]
link benchmarkstt.input.core.File to benchmarkstt.input.Base--><path d="M226.65,149.2092 C265.32,195.3192 326.79,268.6292 366.26,315.6892 " fill="none" id="benchmarkstt.input.core.File-&gt;benchmarkstt.input.Base" style="stroke: #A80036; stroke-width: 1.0;"/><polygon fill="none" points="371.74,311.3392,379.23,331.1592,361.01,320.3292,371.74,311.3392" style="stroke: #A80036; stroke-width: 1.0;"/><!--MD5=[4e4728c8a7b19202f6baadb11a4abb1d]
link benchmarkstt.input.core.PlainText to benchmarkstt.input.Base--><path d="M525.81,142.8192 C500.75,187.6392 457.97,264.1492 430.36,313.5492 " fill="none" id="benchmarkstt.input.core.PlainText-&gt;benchmarkstt.input.Base" style="stroke: #A80036; stroke-width: 1.0;"/><polygon fill="none" points="436.45,316.9892,420.59,331.0292,424.23,310.1592,436.45,316.9892" style="stroke: #A80036; stroke-width: 1.0;"/><!--MD5=[62905f9db673b7f32947ba28cf1aafe1]
@startuml
title benchmarkstt.input

package benchmarkstt.input {

	class benchmarkstt.input.Base [[https://benchmarkstt.readthedocs.io/en/latest/modules/benchmarkstt.input.html#benchmarkstt.input.Base]] {
	+__iter__(self)
	}
}
package benchmarkstt.input.core {

	class benchmarkstt.input.core.File [[https://benchmarkstt.readthedocs.io/en/latest/modules/benchmarkstt.input.core.html#benchmarkstt.input.core.File]] {
	+__init__(self, file, input_type=None, normalizer=None)
	+__iter__(self)
	{static} +available_types()
	}

	class benchmarkstt.input.core.PlainText [[https://benchmarkstt.readthedocs.io/en/latest/modules/benchmarkstt.input.core.html#benchmarkstt.input.core.PlainText]] {
	+__init__(self, text, segmenter=None, normalizer=None)
	+__iter__(self)
	}
}

benchmarkstt.input.core.File - - - -|> benchmarkstt.input.Base
benchmarkstt.input.core.PlainText - - - -|> benchmarkstt.input.Base
@enduml

PlantUML version 1.2020.15(Sun Jun 28 13:39:45 CEST 2020)
(GPL source distribution)
Java Runtime: OpenJDK Runtime Environment
JVM: OpenJDK 64-Bit Server VM
Default Encoding: UTF-8
Language: en
Country: BE
--></g></svg>