<?xml version="1.0" encoding="UTF-8" standalone="no"?><svg xmlns="http://www.w3.org/2000/svg" xmlns:xlink="http://www.w3.org/1999/xlink" contentScriptType="application/ecmascript" contentStyleType="text/css" height="676px" preserveAspectRatio="none" style="width:1053px;height:676px;" version="1.1" viewBox="0 0 1053 676" width="1053px" zoomAndPan="magnify"><defs><filter height="300%" id="fhkxio9wl8vg9" width="300%" x="-1" y="-1"><feGaussianBlur result="blurOut" stdDeviation="2.0"/><feColorMatrix in="blurOut" result="blurOut2" type="matrix" values="0 0 0 0 0 0 0 0 0 0 0 0 0 0 0 0 0 0 .4 0"/><feOffset dx="4.0" dy="4.0" in="blurOut2" result="blurOut3"/><feBlend in="SourceGraphic" in2="blurOut3" mode="normal"/></filter></defs><g><!--MD5=[72b54bae2fb354191b48b6bdd2cdddb6]
cluster benchmarkstt.diff.formatter--><a href="https://benchmarkstt.readthedocs.io/en/latest/modules/benchmarkstt.diff.formatter.html#" target="_top" title="https://benchmarkstt.readthedocs.io/en/latest/modules/benchmarkstt.diff.formatter.html#" xlink:actuate="onRequest" xlink:href="https://benchmarkstt.readthedocs.io/en/latest/modules/benchmarkstt.diff.formatter.html#" xlink:show="new" xlink:title="https://benchmarkstt.readthedocs.io/en/latest/modules/benchmarkstt.diff.formatter.html#" xlink:type="simple"><rect fill="#FFFFFF" filter="url(#fhkxio9wl8vg9)" height="652" style="stroke: #000000; stroke-width: 1.5;" width="789" x="7" y="7"/><path d="M217,8 L217,16.4883 L207,26.4883 L7,26.4883 " fill="none" style="stroke: #000000; stroke-width: 1.5;"/><text fill="#000000" font-family="sans-serif" font-size="14" font-weight="bold" lengthAdjust="spacingAndGlyphs" textLength="200" x="10" y="21.5352">benchmarkstt.diff.formatter</text></a><!--MD5=[b21609c0e4e09564ea14466d1d899cfe]
cluster benchmarkstt.diff--><a href="https://benchmarkstt.readthedocs.io/en/latest/modules/benchmarkstt.diff.html#" target="_top" title="https://benchmarkstt.readthedocs.io/en/latest/modules/benchmarkstt.diff.html#" xlink:actuate="onRequest" xlink:href="https://benchmarkstt.readthedocs.io/en/latest/modules/benchmarkstt.diff.html#" xlink:show="new" xlink:title="https://benchmarkstt.readthedocs.io/en/latest/modules/benchmarkstt.diff.html#" xlink:type="simple"><rect fill="#FFFFFF" filter="url(#fhkxio9wl8vg9)" height="134" style="stroke: #000000; stroke-width: 1.5;" width="156" x="850" y="22"/><path d="M988,23 L988,31.4883 L978,41.4883 L850,41.4883 " fill="none" style="stroke: #000000; stroke-width: 1.5;"/><text fill="#000000" font-family="sans-serif" font-size="14" font-weight="bold" lengthAdjust="spacingAndGlyphs" textLength="128" x="853" y="36.5352">benchmarkstt.diff</text></a><!--MD5=[09ed425bc4f616bbad3d6f8b00541a65]
cluster benchmarkstt.diff.core--><a href="https://benchmarkstt.readthedocs.io/en/latest/modules/benchmarkstt.diff.core.html#" target="_top" title="https://benchmarkstt.readthedocs.io/en/latest/modules/benchmarkstt.diff.core.html#" xlink:actuate="onRequest" xlink:href="https://benchmarkstt.readthedocs.io/en/latest/modules/benchmarkstt.diff.core.html#" xlink:show="new" xlink:title="https://benchmarkstt.readthedocs.io/en/latest/modules/benchmarkstt.diff.core.html#" xlink:type="simple"><rect fill="#FFFFFF" filter="url(#fhkxio9wl8vg9)" height="121" style="stroke: #000000; stroke-width: 1.5;" width="216" x="820" y="237"/><path d="M991,238 L991,246.4883 L981,256.4883 L820,256.4883 " fill="none" style="stroke: #000000; stroke-width: 1.5;"/><text fill="#000000" font-family="sans-serif" font-size="14" font-weight="bold" lengthAdjust="spacingAndGlyphs" textLength="161" x="823" y="251.5352">benchmarkstt.diff.core</text></a><!--MD5=[3c662193fe25a144b7239b40297cb0df]
class benchmarkstt.diff.formatter.CLIDiffDialect--><a href="https://benchmarkstt.readthedocs.io/en/latest/modules/benchmarkstt.diff.formatter.html#benchmarkstt.diff.formatter.CLIDiffDialect" target="_top" title="https://benchmarkstt.readthedocs.io/en/latest/modules/benchmarkstt.diff.formatter.html#benchmarkstt.diff.formatter.CLIDiffDialect" xlink:actuate="onRequest" xlink:href="https://benchmarkstt.readthedocs.io/en/latest/modules/benchmarkstt.diff.formatter.html#benchmarkstt.diff.formatter.CLIDiffDialect" xlink:show="new" xlink:title="https://benchmarkstt.readthedocs.io/en/latest/modules/benchmarkstt.diff.formatter.html#benchmarkstt.diff.formatter.CLIDiffDialect" xlink:type="simple"><rect fill="#FEFECE" filter="url(#fhkxio9wl8vg9)" height="102.0859" id="benchmarkstt.diff.formatter.CLIDiffDialect" style="stroke: #A80036; stroke-width: 1.5;" width="198" x="23" y="256"/><ellipse cx="66.8" cy="275.1328" fill="#ADD1B2" rx="11" ry="11" style="stroke: #A80036; stroke-width: 1.0;"/><path d="M69.2731,281.2759 Q68.6921,281.5747 68.0529,281.7241 Q67.4138,281.8735 66.7082,281.8735 Q64.2014,281.8735 62.8815,280.2217 Q61.5617,278.5698 61.5617,275.4487 Q61.5617,272.3193 62.8815,270.6675 Q64.2014,269.0156 66.7082,269.0156 Q67.4138,269.0156 68.0612,269.165 Q68.7087,269.3145 69.2731,269.6133 L69.2731,272.3359 Q68.6423,271.7549 68.0488,271.4851 Q67.4553,271.2153 66.8244,271.2153 Q65.4797,271.2153 64.7949,272.282 Q64.1101,273.3486 64.1101,275.4487 Q64.1101,277.5405 64.7949,278.6072 Q65.4797,279.6738 66.8244,279.6738 Q67.4553,279.6738 68.0488,279.4041 Q68.6423,279.1343 69.2731,278.5532 Z "/><text fill="#000000" font-family="sans-serif" font-size="12" font-style="italic" lengthAdjust="spacingAndGlyphs" textLength="106" x="85.2" y="272.6016">«ContextManager»</text><text fill="#000000" font-family="sans-serif" font-size="12" lengthAdjust="spacingAndGlyphs" textLength="76" x="100.2" y="286.7344">CLIDiffDialect</text><line style="stroke: #A80036; stroke-width: 1.5;" x1="24" x2="220" y1="294.2656" y2="294.2656"/><ellipse cx="34" cy="322.2207" fill="#84BE84" rx="3" ry="3" style="stroke: #038048; stroke-width: 1.0;"/><text fill="#000000" font-family="sans-serif" font-size="11" lengthAdjust="spacingAndGlyphs" textLength="172" x="43" y="325.8555">__init__(show_color_key=None)</text><ellipse cx="34" cy="335.1758" fill="#84BE84" rx="3" ry="3" style="stroke: #038048; stroke-width: 1.0;"/><text fill="#000000" font-family="sans-serif" font-size="11" lengthAdjust="spacingAndGlyphs" textLength="44" x="43" y="338.8105">output()</text><ellipse cx="34" cy="348.1309" fill="#84BE84" rx="3" ry="3" style="stroke: #038048; stroke-width: 1.0;"/><text fill="#000000" font-family="sans-serif" font-size="11" lengthAdjust="spacingAndGlyphs" textLength="96" x="43" y="351.7656">preprocessor(txt)</text><line style="stroke: #A80036; stroke-width: 1.0; stroke-dasharray: 1.0,2.0;" x1="24" x2="81.5" y1="308.7432" y2="308.7432"/><text fill="#000000" font-family="sans-serif" font-size="11" lengthAdjust="spacingAndGlyphs" textLength="81" x="81.5" y="312.4004">Public Methods</text><line style="stroke: #A80036; stroke-width: 1.0; stroke-dasharray: 1.0,2.0;" x1="162.5" x2="220" y1="308.7432" y2="308.7432"/></a><!--MD5=[df29a61f45d19c4e6d0ce3d05bdaff27]
class benchmarkstt.diff.formatter.Dialect--><a href="https://benchmarkstt.readthedocs.io/en/latest/modules/benchmarkstt.diff.formatter.html#benchmarkstt.diff.formatter.Dialect" target="_top" title="https://benchmarkstt.readthedocs.io/en/latest/modules/benchmarkstt.diff.formatter.html#benchmarkstt.diff.formatter.Dialect" xlink:actuate="onRequest" xlink:href="https://benchmarkstt.readthedocs.io/en/latest/modules/benchmarkstt.diff.formatter.html#benchmarkstt.diff.formatter.Dialect" xlink:show="new" xlink:title="https://benchmarkstt.readthedocs.io/en/latest/modules/benchmarkstt.diff.formatter.html#benchmarkstt.diff.formatter.Dialect" xlink:type="simple"><rect fill="#FEFECE" filter="url(#fhkxio9wl8vg9)" height="89.1309" id="benchmarkstt.diff.formatter.Dialect" style="stroke: #A80036; stroke-width: 1.5;" width="134" x="421" y="54"/><ellipse cx="436" cy="73.1328" fill="#ADD1B2" rx="11" ry="11" style="stroke: #A80036; stroke-width: 1.0;"/><path d="M438.4731,79.2759 Q437.8921,79.5747 437.2529,79.7241 Q436.6138,79.8735 435.9082,79.8735 Q433.4014,79.8735 432.0815,78.2217 Q430.7617,76.5698 430.7617,73.4487 Q430.7617,70.3193 432.0815,68.6675 Q433.4014,67.0156 435.9082,67.0156 Q436.6138,67.0156 437.2612,67.165 Q437.9087,67.3145 438.4731,67.6133 L438.4731,70.3359 Q437.8423,69.7549 437.2488,69.4851 Q436.6553,69.2153 436.0244,69.2153 Q434.6797,69.2153 433.9949,70.282 Q433.3101,71.3486 433.3101,73.4487 Q433.3101,75.5405 433.9949,76.6072 Q434.6797,77.6738 436.0244,77.6738 Q436.6553,77.6738 437.2488,77.4041 Q437.8423,77.1343 438.4731,76.5532 Z "/><text fill="#000000" font-family="sans-serif" font-size="12" font-style="italic" lengthAdjust="spacingAndGlyphs" textLength="106" x="448" y="70.6016">«ContextManager»</text><text fill="#000000" font-family="sans-serif" font-size="12" lengthAdjust="spacingAndGlyphs" textLength="39" x="481.5" y="84.7344">Dialect</text><line style="stroke: #A80036; stroke-width: 1.5;" x1="422" x2="554" y1="92.2656" y2="92.2656"/><ellipse cx="432" cy="120.2207" fill="#84BE84" rx="3" ry="3" style="stroke: #038048; stroke-width: 1.0;"/><text fill="#000000" font-family="sans-serif" font-size="11" lengthAdjust="spacingAndGlyphs" textLength="49" x="441" y="123.8555">__init__()</text><ellipse cx="432" cy="133.1758" fill="#84BE84" rx="3" ry="3" style="stroke: #038048; stroke-width: 1.0;"/><text fill="#000000" font-family="sans-serif" font-size="11" lengthAdjust="spacingAndGlyphs" textLength="44" x="441" y="136.8105">output()</text><line style="stroke: #A80036; stroke-width: 1.0; stroke-dasharray: 1.0,2.0;" x1="422" x2="447.5" y1="106.7432" y2="106.7432"/><text fill="#000000" font-family="sans-serif" font-size="11" lengthAdjust="spacingAndGlyphs" textLength="81" x="447.5" y="110.4004">Public Methods</text><line style="stroke: #A80036; stroke-width: 1.0; stroke-dasharray: 1.0,2.0;" x1="528.5" x2="554" y1="106.7432" y2="106.7432"/></a><!--MD5=[3cef3a3f66db63f58bdcdbc71fd62980]
class benchmarkstt.diff.formatter.DiffFormatter--><a href="https://benchmarkstt.readthedocs.io/en/latest/modules/benchmarkstt.diff.formatter.html#benchmarkstt.diff.formatter.DiffFormatter" target="_top" title="https://benchmarkstt.readthedocs.io/en/latest/modules/benchmarkstt.diff.formatter.html#benchmarkstt.diff.formatter.DiffFormatter" xlink:actuate="onRequest" xlink:href="https://benchmarkstt.readthedocs.io/en/latest/modules/benchmarkstt.diff.formatter.html#benchmarkstt.diff.formatter.DiffFormatter" xlink:show="new" xlink:title="https://benchmarkstt.readthedocs.io/en/latest/modules/benchmarkstt.diff.formatter.html#benchmarkstt.diff.formatter.DiffFormatter" xlink:type="simple"><rect fill="#FEFECE" filter="url(#fhkxio9wl8vg9)" height="112.7754" id="benchmarkstt.diff.formatter.DiffFormatter" style="stroke: #A80036; stroke-width: 1.5;" width="276" x="81" y="42"/><ellipse cx="176.75" cy="58" fill="#ADD1B2" rx="11" ry="11" style="stroke: #A80036; stroke-width: 1.0;"/><path d="M179.2231,64.1431 Q178.6421,64.4419 178.0029,64.5913 Q177.3638,64.7407 176.6582,64.7407 Q174.1514,64.7407 172.8315,63.0889 Q171.5117,61.437 171.5117,58.3159 Q171.5117,55.1865 172.8315,53.5347 Q174.1514,51.8828 176.6582,51.8828 Q177.3638,51.8828 178.0112,52.0322 Q178.6587,52.1816 179.2231,52.4805 L179.2231,55.2031 Q178.5923,54.6221 177.9988,54.3523 Q177.4053,54.0825 176.7744,54.0825 Q175.4297,54.0825 174.7449,55.1492 Q174.0601,56.2158 174.0601,58.3159 Q174.0601,60.4077 174.7449,61.4744 Q175.4297,62.541 176.7744,62.541 Q177.4053,62.541 177.9988,62.2712 Q178.5923,62.0015 179.2231,61.4204 Z "/><text fill="#000000" font-family="sans-serif" font-size="12" lengthAdjust="spacingAndGlyphs" textLength="76" x="197.25" y="62.5352">DiffFormatter</text><line style="stroke: #A80036; stroke-width: 1.5;" x1="82" x2="356" y1="74" y2="74"/><ellipse cx="92" cy="101.9551" fill="#84BE84" rx="3" ry="3" style="stroke: #038048; stroke-width: 1.0;"/><text fill="#000000" font-family="sans-serif" font-size="11" lengthAdjust="spacingAndGlyphs" textLength="210" x="101" y="105.5898">__init__(dialect=None, *args, **kwargs)</text><ellipse cx="92" cy="114.9102" fill="#84BE84" rx="3" ry="3" style="stroke: #038048; stroke-width: 1.0;"/><text fill="#000000" font-family="sans-serif" font-size="11" lengthAdjust="spacingAndGlyphs" textLength="250" x="101" y="118.5449">diff(a, b, opcodes=None, preprocessor=None)</text><line style="stroke: #A80036; stroke-width: 1.0; stroke-dasharray: 1.0,2.0;" x1="82" x2="178.5" y1="88.4775" y2="88.4775"/><text fill="#000000" font-family="sans-serif" font-size="11" lengthAdjust="spacingAndGlyphs" textLength="81" x="178.5" y="92.1348">Public Methods</text><line style="stroke: #A80036; stroke-width: 1.0; stroke-dasharray: 1.0,2.0;" x1="259.5" x2="356" y1="88.4775" y2="88.4775"/><ellipse cx="92" cy="144.8203" fill="#84BE84" rx="3" ry="3" style="stroke: #038048; stroke-width: 1.0;"/><text fill="#000000" font-family="sans-serif" font-size="11" lengthAdjust="spacingAndGlyphs" text-decoration="underline" textLength="103" x="101" y="148.4551">has_dialect(dialect)</text><line style="stroke: #A80036; stroke-width: 1.0; stroke-dasharray: 1.0,2.0;" x1="82" x2="180" y1="131.3428" y2="131.3428"/><text fill="#000000" font-family="sans-serif" font-size="11" lengthAdjust="spacingAndGlyphs" textLength="78" x="180" y="135">Static Methods</text><line style="stroke: #A80036; stroke-width: 1.0; stroke-dasharray: 1.0,2.0;" x1="258" x2="356" y1="131.3428" y2="131.3428"/></a><!--MD5=[13567ef2ba7a355d45cc98cb3acfd770]
class benchmarkstt.diff.formatter.HTMLDiffDialect--><a href="https://benchmarkstt.readthedocs.io/en/latest/modules/benchmarkstt.diff.formatter.html#benchmarkstt.diff.formatter.HTMLDiffDialect" target="_top" title="https://benchmarkstt.readthedocs.io/en/latest/modules/benchmarkstt.diff.formatter.html#benchmarkstt.diff.formatter.HTMLDiffDialect" xlink:actuate="onRequest" xlink:href="https://benchmarkstt.readthedocs.io/en/latest/modules/benchmarkstt.diff.formatter.html#benchmarkstt.diff.formatter.HTMLDiffDialect" xlink:show="new" xlink:title="https://benchmarkstt.readthedocs.io/en/latest/modules/benchmarkstt.diff.formatter.html#benchmarkstt.diff.formatter.HTMLDiffDialect" xlink:type="simple"><rect fill="#FEFECE" filter="url(#fhkxio9wl8vg9)" height="102.0859" id="benchmarkstt.diff.formatter.HTMLDiffDialect" style="stroke: #A80036; stroke-width: 1.5;" width="134" x="256" y="256"/><ellipse cx="271" cy="275.1328" fill="#ADD1B2" rx="11" ry="11" style="stroke: #A80036; stroke-width: 1.0;"/><path d="M273.4731,281.2759 Q272.8921,281.5747 272.2529,281.7241 Q271.6138,281.8735 270.9082,281.8735 Q268.4014,281.8735 267.0815,280.2217 Q265.7617,278.5698 265.7617,275.4487 Q265.7617,272.3193 267.0815,270.6675 Q268.4014,269.0156 270.9082,269.0156 Q271.6138,269.0156 272.2612,269.165 Q272.9087,269.3145 273.4731,269.6133 L273.4731,272.3359 Q272.8423,271.7549 272.2488,271.4851 Q271.6553,271.2153 271.0244,271.2153 Q269.6797,271.2153 268.9949,272.282 Q268.3101,273.3486 268.3101,275.4487 Q268.3101,277.5405 268.9949,278.6072 Q269.6797,279.6738 271.0244,279.6738 Q271.6553,279.6738 272.2488,279.4041 Q272.8423,279.1343 273.4731,278.5532 Z "/><text fill="#000000" font-family="sans-serif" font-size="12" font-style="italic" lengthAdjust="spacingAndGlyphs" textLength="106" x="283" y="272.6016">«ContextManager»</text><text fill="#000000" font-family="sans-serif" font-size="12" lengthAdjust="spacingAndGlyphs" textLength="92" x="290" y="286.7344">HTMLDiffDialect</text><line style="stroke: #A80036; stroke-width: 1.5;" x1="257" x2="389" y1="294.2656" y2="294.2656"/><ellipse cx="267" cy="322.2207" fill="#84BE84" rx="3" ry="3" style="stroke: #038048; stroke-width: 1.0;"/><text fill="#000000" font-family="sans-serif" font-size="11" lengthAdjust="spacingAndGlyphs" textLength="49" x="276" y="325.8555">__init__()</text><ellipse cx="267" cy="335.1758" fill="#84BE84" rx="3" ry="3" style="stroke: #038048; stroke-width: 1.0;"/><text fill="#000000" font-family="sans-serif" font-size="11" lengthAdjust="spacingAndGlyphs" textLength="44" x="276" y="338.8105">output()</text><ellipse cx="267" cy="348.1309" fill="#84BE84" rx="3" ry="3" style="stroke: #038048; stroke-width: 1.0;"/><text fill="#000000" font-family="sans-serif" font-size="11" lengthAdjust="spacingAndGlyphs" textLength="96" x="276" y="351.7656">preprocessor(txt)</text><line style="stroke: #A80036; stroke-width: 1.0; stroke-dasharray: 1.0,2.0;" x1="257" x2="282.5" y1="308.7432" y2="308.7432"/><text fill="#000000" font-family="sans-serif" font-size="11" lengthAdjust="spacingAndGlyphs" textLength="81" x="282.5" y="312.4004">Public Methods</text><line style="stroke: #A80036; stroke-width: 1.0; stroke-dasharray: 1.0,2.0;" x1="363.5" x2="389" y1="308.7432" y2="308.7432"/></a><!--MD5=[ad5da66f3bbb9ef0c526548f556f562e]
class benchmarkstt.diff.formatter.JSONDiffDialect--><a href="https://benchmarkstt.readthedocs.io/en/latest/modules/benchmarkstt.diff.formatter.html#benchmarkstt.diff.formatter.JSONDiffDialect" target="_top" title="https://benchmarkstt.readthedocs.io/en/latest/modules/benchmarkstt.diff.formatter.html#benchmarkstt.diff.formatter.JSONDiffDialect" xlink:actuate="onRequest" xlink:href="https://benchmarkstt.readthedocs.io/en/latest/modules/benchmarkstt.diff.formatter.html#benchmarkstt.diff.formatter.JSONDiffDialect" xlink:show="new" xlink:title="https://benchmarkstt.readthedocs.io/en/latest/modules/benchmarkstt.diff.formatter.html#benchmarkstt.diff.formatter.JSONDiffDialect" xlink:type="simple"><rect fill="#FEFECE" filter="url(#fhkxio9wl8vg9)" height="183.8164" id="benchmarkstt.diff.formatter.JSONDiffDialect" style="stroke: #A80036; stroke-width: 1.5;" width="185" x="425.5" y="459"/><ellipse cx="463.45" cy="478.1328" fill="#ADD1B2" rx="11" ry="11" style="stroke: #A80036; stroke-width: 1.0;"/><path d="M465.9231,484.2759 Q465.3421,484.5747 464.7029,484.7241 Q464.0638,484.8735 463.3582,484.8735 Q460.8514,484.8735 459.5315,483.2217 Q458.2117,481.5698 458.2117,478.4487 Q458.2117,475.3193 459.5315,473.6675 Q460.8514,472.0156 463.3582,472.0156 Q464.0638,472.0156 464.7112,472.165 Q465.3587,472.3145 465.9231,472.6133 L465.9231,475.3359 Q465.2923,474.7549 464.6988,474.4851 Q464.1053,474.2153 463.4744,474.2153 Q462.1297,474.2153 461.4449,475.282 Q460.7601,476.3486 460.7601,478.4487 Q460.7601,480.5405 461.4449,481.6072 Q462.1297,482.6738 463.4744,482.6738 Q464.1053,482.6738 464.6988,482.4041 Q465.2923,482.1343 465.9231,481.5532 Z "/><text fill="#000000" font-family="sans-serif" font-size="12" font-style="italic" lengthAdjust="spacingAndGlyphs" textLength="106" x="480.55" y="475.6016">«ContextManager»</text><text fill="#000000" font-family="sans-serif" font-size="12" lengthAdjust="spacingAndGlyphs" textLength="87" x="490.05" y="489.7344">JSONDiffDialect</text><line style="stroke: #A80036; stroke-width: 1.5;" x1="426.5" x2="609.5" y1="497.2656" y2="497.2656"/><ellipse cx="436.5" cy="525.2207" fill="#84BE84" rx="3" ry="3" style="stroke: #038048; stroke-width: 1.0;"/><text fill="#000000" font-family="sans-serif" font-size="11" lengthAdjust="spacingAndGlyphs" textLength="49" x="445.5" y="528.8555">__init__()</text><ellipse cx="436.5" cy="538.1758" fill="#84BE84" rx="3" ry="3" style="stroke: #038048; stroke-width: 1.0;"/><text fill="#000000" font-family="sans-serif" font-size="11" lengthAdjust="spacingAndGlyphs" textLength="97" x="445.5" y="541.8105">delete_format(txt)</text><ellipse cx="436.5" cy="551.1309" fill="#84BE84" rx="3" ry="3" style="stroke: #038048; stroke-width: 1.0;"/><text fill="#000000" font-family="sans-serif" font-size="11" lengthAdjust="spacingAndGlyphs" textLength="94" x="445.5" y="554.7656">equal_format(txt)</text><ellipse cx="436.5" cy="564.0859" fill="#84BE84" rx="3" ry="3" style="stroke: #038048; stroke-width: 1.0;"/><text fill="#000000" font-family="sans-serif" font-size="11" lengthAdjust="spacingAndGlyphs" textLength="96" x="445.5" y="567.7207">insert_format(txt)</text><ellipse cx="436.5" cy="577.041" fill="#84BE84" rx="3" ry="3" style="stroke: #038048; stroke-width: 1.0;"/><text fill="#000000" font-family="sans-serif" font-size="11" lengthAdjust="spacingAndGlyphs" textLength="44" x="445.5" y="580.6758">output()</text><ellipse cx="436.5" cy="589.9961" fill="#84BE84" rx="3" ry="3" style="stroke: #038048; stroke-width: 1.0;"/><text fill="#000000" font-family="sans-serif" font-size="11" lengthAdjust="spacingAndGlyphs" textLength="96" x="445.5" y="593.6309">preprocessor(txt)</text><ellipse cx="436.5" cy="602.9512" fill="#84BE84" rx="3" ry="3" style="stroke: #038048; stroke-width: 1.0;"/><text fill="#000000" font-family="sans-serif" font-size="11" lengthAdjust="spacingAndGlyphs" textLength="108" x="445.5" y="606.5859">replace_format(a, b)</text><line style="stroke: #A80036; stroke-width: 1.0; stroke-dasharray: 1.0,2.0;" x1="426.5" x2="477.5" y1="511.7432" y2="511.7432"/><text fill="#000000" font-family="sans-serif" font-size="11" lengthAdjust="spacingAndGlyphs" textLength="81" x="477.5" y="515.4004">Public Methods</text><line style="stroke: #A80036; stroke-width: 1.0; stroke-dasharray: 1.0,2.0;" x1="558.5" x2="609.5" y1="511.7432" y2="511.7432"/><polygon fill="#FFFF44" points="436.5,627.8613,440.5,631.8613,436.5,635.8613,432.5,631.8613" style="stroke: #B38D22; stroke-width: 1.0;"/><text fill="#000000" font-family="sans-serif" font-size="11" lengthAdjust="spacingAndGlyphs" textLength="159" x="445.5" y="636.4961">_format(kind, txt, txt2=None)</text><line style="stroke: #A80036; stroke-width: 1.0; stroke-dasharray: 1.0,2.0;" x1="426.5" x2="468" y1="619.3838" y2="619.3838"/><text fill="#000000" font-family="sans-serif" font-size="11" lengthAdjust="spacingAndGlyphs" textLength="100" x="468" y="623.041">Protected Methods</text><line style="stroke: #A80036; stroke-width: 1.0; stroke-dasharray: 1.0,2.0;" x1="568" x2="609.5" y1="619.3838" y2="619.3838"/></a><!--MD5=[6cf5df66c86567a6b2395a7b84882531]
class benchmarkstt.diff.formatter.ListDialect--><a href="https://benchmarkstt.readthedocs.io/en/latest/modules/benchmarkstt.diff.formatter.html#benchmarkstt.diff.formatter.ListDialect" target="_top" title="https://benchmarkstt.readthedocs.io/en/latest/modules/benchmarkstt.diff.formatter.html#benchmarkstt.diff.formatter.ListDialect" xlink:actuate="onRequest" xlink:href="https://benchmarkstt.readthedocs.io/en/latest/modules/benchmarkstt.diff.formatter.html#benchmarkstt.diff.formatter.ListDialect" xlink:show="new" xlink:title="https://benchmarkstt.readthedocs.io/en/latest/modules/benchmarkstt.diff.formatter.html#benchmarkstt.diff.formatter.ListDialect" xlink:type="simple"><rect fill="#FEFECE" filter="url(#fhkxio9wl8vg9)" height="183.8164" id="benchmarkstt.diff.formatter.ListDialect" style="stroke: #A80036; stroke-width: 1.5;" width="185" x="425.5" y="215"/><ellipse cx="463.45" cy="234.1328" fill="#ADD1B2" rx="11" ry="11" style="stroke: #A80036; stroke-width: 1.0;"/><path d="M465.9231,240.2759 Q465.3421,240.5747 464.7029,240.7241 Q464.0638,240.8735 463.3582,240.8735 Q460.8514,240.8735 459.5315,239.2217 Q458.2117,237.5698 458.2117,234.4487 Q458.2117,231.3193 459.5315,229.6675 Q460.8514,228.0156 463.3582,228.0156 Q464.0638,228.0156 464.7112,228.165 Q465.3587,228.3145 465.9231,228.6133 L465.9231,231.3359 Q465.2923,230.7549 464.6988,230.4851 Q464.1053,230.2153 463.4744,230.2153 Q462.1297,230.2153 461.4449,231.282 Q460.7601,232.3486 460.7601,234.4487 Q460.7601,236.5405 461.4449,237.6072 Q462.1297,238.6738 463.4744,238.6738 Q464.1053,238.6738 464.6988,238.4041 Q465.2923,238.1343 465.9231,237.5532 Z "/><text fill="#000000" font-family="sans-serif" font-size="12" font-style="italic" lengthAdjust="spacingAndGlyphs" textLength="106" x="480.55" y="231.6016">«ContextManager»</text><text fill="#000000" font-family="sans-serif" font-size="12" lengthAdjust="spacingAndGlyphs" textLength="58" x="504.55" y="245.7344">ListDialect</text><line style="stroke: #A80036; stroke-width: 1.5;" x1="426.5" x2="609.5" y1="253.2656" y2="253.2656"/><ellipse cx="436.5" cy="281.2207" fill="#84BE84" rx="3" ry="3" style="stroke: #038048; stroke-width: 1.0;"/><text fill="#000000" font-family="sans-serif" font-size="11" lengthAdjust="spacingAndGlyphs" textLength="49" x="445.5" y="284.8555">__init__()</text><ellipse cx="436.5" cy="294.1758" fill="#84BE84" rx="3" ry="3" style="stroke: #038048; stroke-width: 1.0;"/><text fill="#000000" font-family="sans-serif" font-size="11" lengthAdjust="spacingAndGlyphs" textLength="97" x="445.5" y="297.8105">delete_format(txt)</text><ellipse cx="436.5" cy="307.1309" fill="#84BE84" rx="3" ry="3" style="stroke: #038048; stroke-width: 1.0;"/><text fill="#000000" font-family="sans-serif" font-size="11" lengthAdjust="spacingAndGlyphs" textLength="94" x="445.5" y="310.7656">equal_format(txt)</text><ellipse cx="436.5" cy="320.0859" fill="#84BE84" rx="3" ry="3" style="stroke: #038048; stroke-width: 1.0;"/><text fill="#000000" font-family="sans-serif" font-size="11" lengthAdjust="spacingAndGlyphs" textLength="96" x="445.5" y="323.7207">insert_format(txt)</text><ellipse cx="436.5" cy="333.041" fill="#84BE84" rx="3" ry="3" style="stroke: #038048; stroke-width: 1.0;"/><text fill="#000000" font-family="sans-serif" font-size="11" lengthAdjust="spacingAndGlyphs" textLength="44" x="445.5" y="336.6758">output()</text><ellipse cx="436.5" cy="345.9961" fill="#84BE84" rx="3" ry="3" style="stroke: #038048; stroke-width: 1.0;"/><text fill="#000000" font-family="sans-serif" font-size="11" lengthAdjust="spacingAndGlyphs" textLength="96" x="445.5" y="349.6309">preprocessor(txt)</text><ellipse cx="436.5" cy="358.9512" fill="#84BE84" rx="3" ry="3" style="stroke: #038048; stroke-width: 1.0;"/><text fill="#000000" font-family="sans-serif" font-size="11" lengthAdjust="spacingAndGlyphs" textLength="108" x="445.5" y="362.5859">replace_format(a, b)</text><line style="stroke: #A80036; stroke-width: 1.0; stroke-dasharray: 1.0,2.0;" x1="426.5" x2="477.5" y1="267.7432" y2="267.7432"/><text fill="#000000" font-family="sans-serif" font-size="11" lengthAdjust="spacingAndGlyphs" textLength="81" x="477.5" y="271.4004">Public Methods</text><line style="stroke: #A80036; stroke-width: 1.0; stroke-dasharray: 1.0,2.0;" x1="558.5" x2="609.5" y1="267.7432" y2="267.7432"/><polygon fill="#FFFF44" points="436.5,383.8613,440.5,387.8613,436.5,391.8613,432.5,387.8613" style="stroke: #B38D22; stroke-width: 1.0;"/><text fill="#000000" font-family="sans-serif" font-size="11" lengthAdjust="spacingAndGlyphs" textLength="159" x="445.5" y="392.4961">_format(kind, txt, txt2=None)</text><line style="stroke: #A80036; stroke-width: 1.0; stroke-dasharray: 1.0,2.0;" x1="426.5" x2="468" y1="375.3838" y2="375.3838"/><text fill="#000000" font-family="sans-serif" font-size="11" lengthAdjust="spacingAndGlyphs" textLength="100" x="468" y="379.041">Protected Methods</text><line style="stroke: #A80036; stroke-width: 1.0; stroke-dasharray: 1.0,2.0;" x1="568" x2="609.5" y1="375.3838" y2="375.3838"/></a><!--MD5=[b5a1150753ccdd8cb32cc363de6d4f06]
class benchmarkstt.diff.formatter.RestructuredTextDialect--><a href="https://benchmarkstt.readthedocs.io/en/latest/modules/benchmarkstt.diff.formatter.html#benchmarkstt.diff.formatter.RestructuredTextDialect" target="_top" title="https://benchmarkstt.readthedocs.io/en/latest/modules/benchmarkstt.diff.formatter.html#benchmarkstt.diff.formatter.RestructuredTextDialect" xlink:actuate="onRequest" xlink:href="https://benchmarkstt.readthedocs.io/en/latest/modules/benchmarkstt.diff.formatter.html#benchmarkstt.diff.formatter.RestructuredTextDialect" xlink:show="new" xlink:title="https://benchmarkstt.readthedocs.io/en/latest/modules/benchmarkstt.diff.formatter.html#benchmarkstt.diff.formatter.RestructuredTextDialect" xlink:type="simple"><rect fill="#FEFECE" filter="url(#fhkxio9wl8vg9)" height="102.0859" id="benchmarkstt.diff.formatter.RestructuredTextDialect" style="stroke: #A80036; stroke-width: 1.5;" width="198" x="23" y="500"/><ellipse cx="50.15" cy="519.1328" fill="#ADD1B2" rx="11" ry="11" style="stroke: #A80036; stroke-width: 1.0;"/><path d="M52.6231,525.2759 Q52.0421,525.5747 51.4029,525.7241 Q50.7638,525.8735 50.0582,525.8735 Q47.5514,525.8735 46.2315,524.2217 Q44.9117,522.5698 44.9117,519.4487 Q44.9117,516.3193 46.2315,514.6675 Q47.5514,513.0156 50.0582,513.0156 Q50.7638,513.0156 51.4112,513.165 Q52.0587,513.3145 52.6231,513.6133 L52.6231,516.3359 Q51.9923,515.7549 51.3988,515.4851 Q50.8053,515.2153 50.1744,515.2153 Q48.8297,515.2153 48.1449,516.282 Q47.4601,517.3486 47.4601,519.4487 Q47.4601,521.5405 48.1449,522.6072 Q48.8297,523.6738 50.1744,523.6738 Q50.8053,523.6738 51.3988,523.4041 Q51.9923,523.1343 52.6231,522.5532 Z "/><text fill="#000000" font-family="sans-serif" font-size="12" font-style="italic" lengthAdjust="spacingAndGlyphs" textLength="106" x="83.35" y="516.6016">«ContextManager»</text><text fill="#000000" font-family="sans-serif" font-size="12" lengthAdjust="spacingAndGlyphs" textLength="139" x="66.85" y="530.7344">RestructuredTextDialect</text><line style="stroke: #A80036; stroke-width: 1.5;" x1="24" x2="220" y1="538.2656" y2="538.2656"/><ellipse cx="34" cy="566.2207" fill="#84BE84" rx="3" ry="3" style="stroke: #038048; stroke-width: 1.0;"/><text fill="#000000" font-family="sans-serif" font-size="11" lengthAdjust="spacingAndGlyphs" textLength="172" x="43" y="569.8555">__init__(show_color_key=None)</text><ellipse cx="34" cy="579.1758" fill="#84BE84" rx="3" ry="3" style="stroke: #038048; stroke-width: 1.0;"/><text fill="#000000" font-family="sans-serif" font-size="11" lengthAdjust="spacingAndGlyphs" textLength="44" x="43" y="582.8105">output()</text><ellipse cx="34" cy="592.1309" fill="#84BE84" rx="3" ry="3" style="stroke: #038048; stroke-width: 1.0;"/><text fill="#000000" font-family="sans-serif" font-size="11" lengthAdjust="spacingAndGlyphs" textLength="96" x="43" y="595.7656">preprocessor(txt)</text><line style="stroke: #A80036; stroke-width: 1.0; stroke-dasharray: 1.0,2.0;" x1="24" x2="81.5" y1="552.7432" y2="552.7432"/><text fill="#000000" font-family="sans-serif" font-size="11" lengthAdjust="spacingAndGlyphs" textLength="81" x="81.5" y="556.4004">Public Methods</text><line style="stroke: #A80036; stroke-width: 1.0; stroke-dasharray: 1.0,2.0;" x1="162.5" x2="220" y1="552.7432" y2="552.7432"/></a><!--MD5=[e0d2253a58427e0d1251f683d337a24a]
class benchmarkstt.diff.formatter.UTF8Dialect--><a href="https://benchmarkstt.readthedocs.io/en/latest/modules/benchmarkstt.diff.formatter.html#benchmarkstt.diff.formatter.UTF8Dialect" target="_top" title="https://benchmarkstt.readthedocs.io/en/latest/modules/benchmarkstt.diff.formatter.html#benchmarkstt.diff.formatter.UTF8Dialect" xlink:actuate="onRequest" xlink:href="https://benchmarkstt.readthedocs.io/en/latest/modules/benchmarkstt.diff.formatter.html#benchmarkstt.diff.formatter.UTF8Dialect" xlink:show="new" xlink:title="https://benchmarkstt.readthedocs.io/en/latest/modules/benchmarkstt.diff.formatter.html#benchmarkstt.diff.formatter.UTF8Dialect" xlink:type="simple"><rect fill="#FEFECE" filter="url(#fhkxio9wl8vg9)" height="127.9961" id="benchmarkstt.diff.formatter.UTF8Dialect" style="stroke: #A80036; stroke-width: 1.5;" width="134" x="646" y="243"/><ellipse cx="661" cy="262.1328" fill="#ADD1B2" rx="11" ry="11" style="stroke: #A80036; stroke-width: 1.0;"/><path d="M663.4731,268.2759 Q662.8921,268.5747 662.2529,268.7241 Q661.6138,268.8735 660.9082,268.8735 Q658.4014,268.8735 657.0815,267.2217 Q655.7617,265.5698 655.7617,262.4487 Q655.7617,259.3193 657.0815,257.6675 Q658.4014,256.0156 660.9082,256.0156 Q661.6138,256.0156 662.2612,256.165 Q662.9087,256.3145 663.4731,256.6133 L663.4731,259.3359 Q662.8423,258.7549 662.2488,258.4851 Q661.6553,258.2153 661.0244,258.2153 Q659.6797,258.2153 658.9949,259.282 Q658.3101,260.3486 658.3101,262.4487 Q658.3101,264.5405 658.9949,265.6072 Q659.6797,266.6738 661.0244,266.6738 Q661.6553,266.6738 662.2488,266.4041 Q662.8423,266.1343 663.4731,265.5532 Z "/><text fill="#000000" font-family="sans-serif" font-size="12" font-style="italic" lengthAdjust="spacingAndGlyphs" textLength="106" x="673" y="259.6016">«ContextManager»</text><text fill="#000000" font-family="sans-serif" font-size="12" lengthAdjust="spacingAndGlyphs" textLength="69" x="691.5" y="273.7344">UTF8Dialect</text><line style="stroke: #A80036; stroke-width: 1.5;" x1="647" x2="779" y1="281.2656" y2="281.2656"/><ellipse cx="657" cy="309.2207" fill="#84BE84" rx="3" ry="3" style="stroke: #038048; stroke-width: 1.0;"/><text fill="#000000" font-family="sans-serif" font-size="11" lengthAdjust="spacingAndGlyphs" textLength="49" x="666" y="312.8555">__init__()</text><ellipse cx="657" cy="322.1758" fill="#84BE84" rx="3" ry="3" style="stroke: #038048; stroke-width: 1.0;"/><text fill="#000000" font-family="sans-serif" font-size="11" lengthAdjust="spacingAndGlyphs" textLength="97" x="666" y="325.8105">delete_format(txt)</text><ellipse cx="657" cy="335.1309" fill="#84BE84" rx="3" ry="3" style="stroke: #038048; stroke-width: 1.0;"/><text fill="#000000" font-family="sans-serif" font-size="11" lengthAdjust="spacingAndGlyphs" textLength="96" x="666" y="338.7656">insert_format(txt)</text><ellipse cx="657" cy="348.0859" fill="#84BE84" rx="3" ry="3" style="stroke: #038048; stroke-width: 1.0;"/><text fill="#000000" font-family="sans-serif" font-size="11" lengthAdjust="spacingAndGlyphs" textLength="44" x="666" y="351.7207">output()</text><ellipse cx="657" cy="361.041" fill="#84BE84" rx="3" ry="3" style="stroke: #038048; stroke-width: 1.0;"/><text fill="#000000" font-family="sans-serif" font-size="11" lengthAdjust="spacingAndGlyphs" textLength="96" x="666" y="364.6758">preprocessor(txt)</text><line style="stroke: #A80036; stroke-width: 1.0; stroke-dasharray: 1.0,2.0;" x1="647" x2="672.5" y1="295.7432" y2="295.7432"/><text fill="#000000" font-family="sans-serif" font-size="11" lengthAdjust="spacingAndGlyphs" textLength="81" x="672.5" y="299.4004">Public Methods</text><line style="stroke: #A80036; stroke-width: 1.0; stroke-dasharray: 1.0,2.0;" x1="753.5" x2="779" y1="295.7432" y2="295.7432"/></a><!--MD5=[6aa6ae3a879840a73b19fd2777afca9b]
class benchmarkstt.diff.Base--><a href="https://benchmarkstt.readthedocs.io/en/latest/modules/benchmarkstt.diff.html#benchmarkstt.diff.Base" target="_top" title="https://benchmarkstt.readthedocs.io/en/latest/modules/benchmarkstt.diff.html#benchmarkstt.diff.Base" xlink:actuate="onRequest" xlink:href="https://benchmarkstt.readthedocs.io/en/latest/modules/benchmarkstt.diff.html#benchmarkstt.diff.Base" xlink:show="new" xlink:title="https://benchmarkstt.readthedocs.io/en/latest/modules/benchmarkstt.diff.html#benchmarkstt.diff.Base" xlink:type="simple"><rect fill="#FEFECE" filter="url(#fhkxio9wl8vg9)" height="82.8652" id="benchmarkstt.diff.Base" style="stroke: #A80036; stroke-width: 1.5;" width="124" x="866" y="57"/><ellipse cx="910.25" cy="73" fill="#ADD1B2" rx="11" ry="11" style="stroke: #A80036; stroke-width: 1.0;"/><path d="M912.7231,79.1431 Q912.1421,79.4419 911.5029,79.5913 Q910.8638,79.7407 910.1582,79.7407 Q907.6514,79.7407 906.3315,78.0889 Q905.0117,76.437 905.0117,73.3159 Q905.0117,70.1865 906.3315,68.5347 Q907.6514,66.8828 910.1582,66.8828 Q910.8638,66.8828 911.5112,67.0322 Q912.1587,67.1816 912.7231,67.4805 L912.7231,70.2031 Q912.0923,69.6221 911.4988,69.3523 Q910.9053,69.0825 910.2744,69.0825 Q908.9297,69.0825 908.2449,70.1492 Q907.5601,71.2158 907.5601,73.3159 Q907.5601,75.4077 908.2449,76.4744 Q908.9297,77.541 910.2744,77.541 Q910.9053,77.541 911.4988,77.2712 Q912.0923,77.0015 912.7231,76.4204 Z "/><text fill="#000000" font-family="sans-serif" font-size="12" lengthAdjust="spacingAndGlyphs" textLength="27" x="930.75" y="77.5352">Base</text><line style="stroke: #A80036; stroke-width: 1.5;" x1="867" x2="989" y1="89" y2="89"/><ellipse cx="877" cy="116.9551" fill="#84BE84" rx="3" ry="3" style="stroke: #038048; stroke-width: 1.0;"/><text fill="#000000" font-family="sans-serif" font-size="11" lengthAdjust="spacingAndGlyphs" textLength="98" x="886" y="120.5898">__init__(a='', b='')</text><ellipse cx="877" cy="129.9102" fill="#84BE84" rx="3" ry="3" style="stroke: #038048; stroke-width: 1.0;"/><text fill="#000000" font-family="sans-serif" font-size="11" lengthAdjust="spacingAndGlyphs" textLength="77" x="886" y="133.5449">get_opcodes()</text><line style="stroke: #A80036; stroke-width: 1.0; stroke-dasharray: 1.0,2.0;" x1="867" x2="887.5" y1="103.4775" y2="103.4775"/><text fill="#000000" font-family="sans-serif" font-size="11" lengthAdjust="spacingAndGlyphs" textLength="81" x="887.5" y="107.1348">Public Methods</text><line style="stroke: #A80036; stroke-width: 1.0; stroke-dasharray: 1.0,2.0;" x1="968.5" x2="989" y1="103.4775" y2="103.4775"/></a><!--MD5=[5eef32e9538f5dcdb68c61d368837619]
class benchmarkstt.diff.core.RatcliffObershelp--><a href="https://benchmarkstt.readthedocs.io/en/latest/modules/benchmarkstt.diff.core.html#benchmarkstt.diff.core.RatcliffObershelp" target="_top" title="https://benchmarkstt.readthedocs.io/en/latest/modules/benchmarkstt.diff.core.html#benchmarkstt.diff.core.RatcliffObershelp" xlink:actuate="onRequest" xlink:href="https://benchmarkstt.readthedocs.io/en/latest/modules/benchmarkstt.diff.core.html#benchmarkstt.diff.core.RatcliffObershelp" xlink:show="new" xlink:title="https://benchmarkstt.readthedocs.io/en/latest/modules/benchmarkstt.diff.core.html#benchmarkstt.diff.core.RatcliffObershelp" xlink:type="simple"><rect fill="#FEFECE" filter="url(#fhkxio9wl8vg9)" height="69.9102" id="benchmarkstt.diff.core.RatcliffObershelp" style="stroke: #A80036; stroke-width: 1.5;" width="183" x="836.5" y="272"/><ellipse cx="874.9" cy="288" fill="#ADD1B2" rx="11" ry="11" style="stroke: #A80036; stroke-width: 1.0;"/><path d="M877.3731,294.1431 Q876.7921,294.4419 876.1529,294.5913 Q875.5138,294.7407 874.8082,294.7407 Q872.3014,294.7407 870.9815,293.0889 Q869.6617,291.437 869.6617,288.3159 Q869.6617,285.1865 870.9815,283.5347 Q872.3014,281.8828 874.8082,281.8828 Q875.5138,281.8828 876.1612,282.0322 Q876.8087,282.1816 877.3731,282.4805 L877.3731,285.2031 Q876.7423,284.6221 876.1488,284.3523 Q875.5553,284.0825 874.9244,284.0825 Q873.5797,284.0825 872.8949,285.1492 Q872.2101,286.2158 872.2101,288.3159 Q872.2101,290.4077 872.8949,291.4744 Q873.5797,292.541 874.9244,292.541 Q875.5553,292.541 876.1488,292.2712 Q876.7423,292.0015 877.3731,291.4204 Z "/><text fill="#000000" font-family="sans-serif" font-size="12" lengthAdjust="spacingAndGlyphs" textLength="99" x="894.1" y="292.5352">RatcliffObershelp</text><line style="stroke: #A80036; stroke-width: 1.5;" x1="837.5" x2="1018.5" y1="304" y2="304"/><ellipse cx="847.5" cy="331.9551" fill="#84BE84" rx="3" ry="3" style="stroke: #038048; stroke-width: 1.0;"/><text fill="#000000" font-family="sans-serif" font-size="11" lengthAdjust="spacingAndGlyphs" textLength="157" x="856.5" y="335.5898">__init__(a, b, *args, **kwargs)</text><line style="stroke: #A80036; stroke-width: 1.0; stroke-dasharray: 1.0,2.0;" x1="837.5" x2="887.5" y1="318.4775" y2="318.4775"/><text fill="#000000" font-family="sans-serif" font-size="11" lengthAdjust="spacingAndGlyphs" textLength="81" x="887.5" y="322.1348">Public Methods</text><line style="stroke: #A80036; stroke-width: 1.0; stroke-dasharray: 1.0,2.0;" x1="968.5" x2="1018.5" y1="318.4775" y2="318.4775"/></a><!--MD5=[2db0c2459354a46506eaa1f007d56121]
reverse link benchmarkstt.diff.formatter.Dialect to benchmarkstt.diff.formatter.CLIDiffDialect--><path d="M403.03,149.47 C393.35,154.6 383.54,159.55 374,164 C315.51,191.31 294.28,183.37 238,215 C217.58,226.47 196.94,241.37 178.84,255.78 " fill="none" id="benchmarkstt.diff.formatter.Dialect&lt;-benchmarkstt.diff.formatter.CLIDiffDialect" style="stroke: #A80036; stroke-width: 1.0;"/><polygon fill="none" points="399.88,143.22,420.8,139.81,406.57,155.52,399.88,143.22" style="stroke: #A80036; stroke-width: 1.0;"/><!--MD5=[112058220c56443896afbf42f17a88fb]
reverse link benchmarkstt.diff.formatter.Dialect to benchmarkstt.diff.formatter.HTMLDiffDialect--><path d="M440.53,158.91 C415.97,189.64 386.34,226.73 362.97,255.98 " fill="none" id="benchmarkstt.diff.formatter.Dialect&lt;-benchmarkstt.diff.formatter.HTMLDiffDialect" style="stroke: #A80036; stroke-width: 1.0;"/><polygon fill="none" points="435.26,154.3,453.21,143.04,446.19,163.04,435.26,154.3" style="stroke: #A80036; stroke-width: 1.0;"/><!--MD5=[d18a5de9ed5cb9a1cce4fd0dce2b6adb]
reverse link benchmarkstt.diff.formatter.ListDialect to benchmarkstt.diff.formatter.JSONDiffDialect--><path d="M518,419.15 C518,432.47 518,445.95 518,458.94 " fill="none" id="benchmarkstt.diff.formatter.ListDialect&lt;-benchmarkstt.diff.formatter.JSONDiffDialect" style="stroke: #A80036; stroke-width: 1.0;"/><polygon fill="none" points="511,419.15,518,399.14,525,419.14,511,419.15" style="stroke: #A80036; stroke-width: 1.0;"/><!--MD5=[cd06825e171c0cb66bd892fe633a200a]
reverse link benchmarkstt.diff.formatter.Dialect to benchmarkstt.diff.formatter.ListDialect--><path d="M497.2,162.86 C499.59,179.3 502.21,197.34 504.77,214.9 " fill="none" id="benchmarkstt.diff.formatter.Dialect&lt;-benchmarkstt.diff.formatter.ListDialect" style="stroke: #A80036; stroke-width: 1.0;"/><polygon fill="none" points="490.27,163.84,494.33,143.04,504.13,161.83,490.27,163.84" style="stroke: #A80036; stroke-width: 1.0;"/><!--MD5=[42bef6836bc68c456f75427094de6c35]
reverse link benchmarkstt.diff.formatter.CLIDiffDialect to benchmarkstt.diff.formatter.RestructuredTextDialect--><path d="M122,378.2 C122,417.17 122,464.73 122,499.92 " fill="none" id="benchmarkstt.diff.formatter.CLIDiffDialect&lt;-benchmarkstt.diff.formatter.RestructuredTextDialect" style="stroke: #A80036; stroke-width: 1.0;"/><polygon fill="none" points="115,378.14,122,358.14,129,378.14,115,378.14" style="stroke: #A80036; stroke-width: 1.0;"/><!--MD5=[dab5b0c4d09e39186ea8a57da41e6cde]
reverse link benchmarkstt.diff.formatter.Dialect to benchmarkstt.diff.formatter.UTF8Dialect--><path d="M560.07,155.97 C582.37,174.22 606.67,194.94 628,215 C637.29,223.74 646.82,233.28 655.97,242.8 " fill="none" id="benchmarkstt.diff.formatter.Dialect&lt;-benchmarkstt.diff.formatter.UTF8Dialect" style="stroke: #A80036; stroke-width: 1.0;"/><polygon fill="none" points="555.39,161.18,544.26,143.15,564.21,150.31,555.39,161.18" style="stroke: #A80036; stroke-width: 1.0;"/><!--MD5=[995a509b438cdc2d97b80485f82ea7f7]
reverse link benchmarkstt.diff.Base to benchmarkstt.diff.core.RatcliffObershelp--><path d="M928,160.54 C928,196.85 928,241.59 928,271.79 " fill="none" id="benchmarkstt.diff.Base&lt;-benchmarkstt.diff.core.RatcliffObershelp" style="stroke: #A80036; stroke-width: 1.0;"/><polygon fill="none" points="921,160.3,928,140.3,935,160.3,921,160.3" style="stroke: #A80036; stroke-width: 1.0;"/><!--MD5=[44f2485a24c12a89f13f71b6b731515c]
@startuml

skinparam packageStyle Frame
package benchmarkstt.diff.formatter [[https://benchmarkstt.readthedocs.io/en/latest/modules/benchmarkstt.diff.formatter.html#]] {

	class benchmarkstt.diff.formatter.CLIDiffDialect << ContextManager >>  [[https://benchmarkstt.readthedocs.io/en/latest/modules/benchmarkstt.diff.formatter.html#benchmarkstt.diff.formatter.CLIDiffDialect]] extends benchmarkstt.diff.formatter.Dialect {
		.. Public Methods ..
		+__init__(show_color_key=None)
		+output()
		+preprocessor(txt)
	}

	class benchmarkstt.diff.formatter.Dialect << ContextManager >>  [[https://benchmarkstt.readthedocs.io/en/latest/modules/benchmarkstt.diff.formatter.html#benchmarkstt.diff.formatter.Dialect]] {
		.. Public Methods ..
		+__init__()
		+output()
	}

	class benchmarkstt.diff.formatter.DiffFormatter   [[https://benchmarkstt.readthedocs.io/en/latest/modules/benchmarkstt.diff.formatter.html#benchmarkstt.diff.formatter.DiffFormatter]] {
		.. Public Methods ..
		+__init__(dialect=None, *args, **kwargs)
		+diff(a, b, opcodes=None, preprocessor=None)
		.. Static Methods ..
		{static} +has_dialect(dialect)
	}

	class benchmarkstt.diff.formatter.HTMLDiffDialect << ContextManager >>  [[https://benchmarkstt.readthedocs.io/en/latest/modules/benchmarkstt.diff.formatter.html#benchmarkstt.diff.formatter.HTMLDiffDialect]] extends benchmarkstt.diff.formatter.Dialect {
		.. Public Methods ..
		+__init__()
		+output()
		+preprocessor(txt)
	}

	class benchmarkstt.diff.formatter.JSONDiffDialect << ContextManager >>  [[https://benchmarkstt.readthedocs.io/en/latest/modules/benchmarkstt.diff.formatter.html#benchmarkstt.diff.formatter.JSONDiffDialect]] extends benchmarkstt.diff.formatter.ListDialect {
		.. Public Methods ..
		+__init__()
		+delete_format(txt)
		+equal_format(txt)
		+insert_format(txt)
		+output()
		+preprocessor(txt)
		+replace_format(a, b)
		.. Protected Methods ..
		#_format(kind, txt, txt2=None)
	}

	class benchmarkstt.diff.formatter.ListDialect << ContextManager >>  [[https://benchmarkstt.readthedocs.io/en/latest/modules/benchmarkstt.diff.formatter.html#benchmarkstt.diff.formatter.ListDialect]] extends benchmarkstt.diff.formatter.Dialect {
		.. Public Methods ..
		+__init__()
		+delete_format(txt)
		+equal_format(txt)
		+insert_format(txt)
		+output()
		+preprocessor(txt)
		+replace_format(a, b)
		.. Protected Methods ..
		#_format(kind, txt, txt2=None)
	}

	class benchmarkstt.diff.formatter.RestructuredTextDialect << ContextManager >>  [[https://benchmarkstt.readthedocs.io/en/latest/modules/benchmarkstt.diff.formatter.html#benchmarkstt.diff.formatter.RestructuredTextDialect]] extends benchmarkstt.diff.formatter.CLIDiffDialect {
		.. Public Methods ..
		+__init__(show_color_key=None)
		+output()
		+preprocessor(txt)
	}

	class benchmarkstt.diff.formatter.UTF8Dialect << ContextManager >>  [[https://benchmarkstt.readthedocs.io/en/latest/modules/benchmarkstt.diff.formatter.html#benchmarkstt.diff.formatter.UTF8Dialect]] extends benchmarkstt.diff.formatter.Dialect {
		.. Public Methods ..
		+__init__()
		+delete_format(txt)
		+insert_format(txt)
		+output()
		+preprocessor(txt)
	}
}

package benchmarkstt.diff [[https://benchmarkstt.readthedocs.io/en/latest/modules/benchmarkstt.diff.html#]] {

	class benchmarkstt.diff.Base   [[https://benchmarkstt.readthedocs.io/en/latest/modules/benchmarkstt.diff.html#benchmarkstt.diff.Base]] {
		.. Public Methods ..
		+__init__(a='', b='')
		+get_opcodes()
	}
}

package benchmarkstt.diff.core [[https://benchmarkstt.readthedocs.io/en/latest/modules/benchmarkstt.diff.core.html#]] {

	class benchmarkstt.diff.core.RatcliffObershelp   [[https://benchmarkstt.readthedocs.io/en/latest/modules/benchmarkstt.diff.core.html#benchmarkstt.diff.core.RatcliffObershelp]] extends benchmarkstt.diff.Base {
		.. Public Methods ..
		+__init__(a, b, *args, **kwargs)
	}
}




@enduml

PlantUML version 1.2020.15(Sun Jun 28 13:39:45 CEST 2020)
(GPL source distribution)
Java Runtime: OpenJDK Runtime Environment
JVM: OpenJDK 64-Bit Server VM
Default Encoding: UTF-8
Language: en
Country: BE
--></g></svg>