<?xml version="1.0" encoding="UTF-8" standalone="no"?><svg xmlns="http://www.w3.org/2000/svg" xmlns:xlink="http://www.w3.org/1999/xlink" contentScriptType="application/ecmascript" contentStyleType="text/css" height="527px" preserveAspectRatio="none" style="width:514px;height:527px;" version="1.1" viewBox="0 0 514 527" width="514px" zoomAndPan="magnify"><defs><filter height="300%" id="f15gmihc5xh0s5" width="300%" x="-1" y="-1"><feGaussianBlur result="blurOut" stdDeviation="2.0"/><feColorMatrix in="blurOut" result="blurOut2" type="matrix" values="0 0 0 0 0 0 0 0 0 0 0 0 0 0 0 0 0 0 .4 0"/><feOffset dx="4.0" dy="4.0" in="blurOut2" result="blurOut3"/><feBlend in="SourceGraphic" in2="blurOut3" mode="normal"/></filter></defs><g><text fill="#000000" font-family="sans-serif" font-size="18" lengthAdjust="spacingAndGlyphs" textLength="184" x="156" y="17.4023">benchmarkstt.output</text><!--MD5=[c2f5f1914e6a0fca7cbdb2b44310c20b]
cluster benchmarkstt.output--><rect fill="#FFFFFF" filter="url(#f15gmihc5xh0s5)" height="141" style="stroke: #000000; stroke-width: 1.5;" width="244" x="130" y="28.1992"/><path d="M290,29.1992 L290,37.6875 L280,47.6875 L130,47.6875 " fill="none" style="stroke: #000000; stroke-width: 1.5;"/><text fill="#000000" font-family="sans-serif" font-size="14" font-weight="bold" lengthAdjust="spacingAndGlyphs" textLength="150" x="133" y="42.7344">benchmarkstt.output</text><!--MD5=[847d3ee6f8e67faab7de214c96ed8267]
cluster benchmarkstt.output.core--><rect fill="#FFFFFF" filter="url(#f15gmihc5xh0s5)" height="317" style="stroke: #000000; stroke-width: 1.5;" width="490" x="7" y="193.1992"/><path d="M200,194.1992 L200,202.6875 L190,212.6875 L7,212.6875 " fill="none" style="stroke: #000000; stroke-width: 1.5;"/><text fill="#000000" font-family="sans-serif" font-size="14" font-weight="bold" lengthAdjust="spacingAndGlyphs" textLength="183" x="10" y="207.7344">benchmarkstt.output.core</text><!--MD5=[6bad0332cb50a567e063560f49fe1b05]
class benchmarkstt.output.Base--><a href="https://benchmarkstt.readthedocs.io/en/latest/modules/benchmarkstt.output.html#benchmarkstt.output.Base" target="_top" title="https://benchmarkstt.readthedocs.io/en/latest/modules/benchmarkstt.output.html#benchmarkstt.output.Base" xlink:actuate="onRequest" xlink:href="https://benchmarkstt.readthedocs.io/en/latest/modules/benchmarkstt.output.html#benchmarkstt.output.Base" xlink:show="new" xlink:title="https://benchmarkstt.readthedocs.io/en/latest/modules/benchmarkstt.output.html#benchmarkstt.output.Base" xlink:type="simple"><rect fill="#CCCCCC" filter="url(#f15gmihc5xh0s5)" height="89.8203" id="benchmarkstt.output.Base" style="stroke: #AAAAAA; stroke-width: 1.5;" width="211" x="146.5" y="63.1992"/><ellipse cx="234.5" cy="76.1992" fill="#FF8800" rx="8" ry="8" style="stroke: #AAAAAA; stroke-width: 1.0;"/><path d="M234.6353,80.355 Q233.7437,80.355 232.989,80.0918 Q232.2344,79.8286 231.6919,79.3076 Q231.1494,78.7866 230.8513,78.0078 Q230.5532,77.229 230.5532,76.2085 Q230.5532,75.2578 230.8379,74.4844 Q231.1226,73.7109 231.665,73.1577 Q232.186,72.626 232.9568,72.3359 Q233.7275,72.0459 234.6406,72.0459 Q235.1455,72.0459 235.551,72.1023 Q235.9565,72.1587 236.3003,72.25 Q236.6602,72.3521 236.9529,72.4783 Q237.2456,72.6045 237.4658,72.7119 L237.4658,74.6509 L237.2295,74.6509 Q237.0791,74.522 236.8508,74.3447 Q236.6226,74.1675 236.3325,73.9956 Q236.0371,73.8237 235.6934,73.7056 Q235.3496,73.5874 234.9575,73.5874 Q234.5225,73.5874 234.1304,73.7244 Q233.7383,73.8613 233.4053,74.1782 Q233.0884,74.4844 232.8923,74.9893 Q232.6963,75.4941 232.6963,76.2139 Q232.6963,76.9658 232.9084,77.4707 Q233.1206,77.9756 233.4429,78.2656 Q233.7705,78.561 234.1733,78.6873 Q234.5762,78.8135 234.9683,78.8135 Q235.3442,78.8135 235.7122,78.7007 Q236.0801,78.5879 236.3916,78.3945 Q236.6548,78.2388 236.8804,78.0615 Q237.106,77.8843 237.251,77.7554 L237.4658,77.7554 L237.4658,79.6675 Q237.165,79.8018 236.8911,79.9199 Q236.6172,80.0381 236.3164,80.124 Q235.9243,80.2368 235.5806,80.2959 Q235.2368,80.355 234.6353,80.355 Z "/><text fill="#000000" font-family="Verdana" font-size="11" lengthAdjust="spacingAndGlyphs" textLength="28" x="250.5" y="80.574">Base</text><line style="stroke: #AAAAAA; stroke-width: 1.5;" x1="147.5" x2="356.5" y1="89.1992" y2="89.1992"/><ellipse cx="157.5" cy="117.1543" fill="#84BE84" rx="3" ry="3" style="stroke: #038048; stroke-width: 1.0;"/><text fill="#333333" font-family="sans-serif" font-size="11" lengthAdjust="spacingAndGlyphs" textLength="60" x="163.5" y="120.7891">__enter__()</text><ellipse cx="157.5" cy="130.1094" fill="#84BE84" rx="3" ry="3" style="stroke: #038048; stroke-width: 1.0;"/><text fill="#333333" font-family="sans-serif" font-size="11" lengthAdjust="spacingAndGlyphs" textLength="188" x="163.5" y="133.7441">__exit__(exc_type, exc_val, exc_tb)</text><ellipse cx="157.5" cy="143.0645" fill="#84BE84" rx="3" ry="3" style="stroke: #038048; stroke-width: 1.0;"/><text fill="#333333" font-family="sans-serif" font-size="11" lengthAdjust="spacingAndGlyphs" textLength="96" x="163.5" y="146.6992">result(title, result)</text><line style="stroke: #AAAAAA; stroke-width: 1.0; stroke-dasharray: 1.0,2.0;" x1="147.5" x2="211.5" y1="103.6768" y2="103.6768"/><text fill="#333333" font-family="sans-serif" font-size="11" lengthAdjust="spacingAndGlyphs" textLength="81" x="211.5" y="107.334">Public Methods</text><line style="stroke: #AAAAAA; stroke-width: 1.0; stroke-dasharray: 1.0,2.0;" x1="292.5" x2="356.5" y1="103.6768" y2="103.6768"/></a><!--MD5=[f736c00f8e3d82ae904e3d345ee15690]
class benchmarkstt.output.core.Json--><a href="https://benchmarkstt.readthedocs.io/en/latest/modules/benchmarkstt.output.core.html#benchmarkstt.output.core.Json" target="_top" title="https://benchmarkstt.readthedocs.io/en/latest/modules/benchmarkstt.output.core.html#benchmarkstt.output.core.Json" xlink:actuate="onRequest" xlink:href="https://benchmarkstt.readthedocs.io/en/latest/modules/benchmarkstt.output.core.html#benchmarkstt.output.core.Json" xlink:show="new" xlink:title="https://benchmarkstt.readthedocs.io/en/latest/modules/benchmarkstt.output.core.html#benchmarkstt.output.core.Json" xlink:type="simple"><rect fill="#CCCCCC" filter="url(#f15gmihc5xh0s5)" height="102.7754" id="benchmarkstt.output.core.Json" style="stroke: #AAAAAA; stroke-width: 1.5;" width="211" x="269.5" y="228.1992"/><ellipse cx="359" cy="241.1992" fill="#FF8800" rx="8" ry="8" style="stroke: #AAAAAA; stroke-width: 1.0;"/><path d="M359.1353,245.355 Q358.2437,245.355 357.489,245.0918 Q356.7344,244.8286 356.1919,244.3076 Q355.6494,243.7866 355.3513,243.0078 Q355.0532,242.229 355.0532,241.2085 Q355.0532,240.2578 355.3379,239.4844 Q355.6226,238.7109 356.165,238.1577 Q356.686,237.626 357.4568,237.3359 Q358.2275,237.0459 359.1406,237.0459 Q359.6455,237.0459 360.051,237.1023 Q360.4565,237.1587 360.8003,237.25 Q361.1602,237.3521 361.4529,237.4783 Q361.7456,237.6045 361.9658,237.7119 L361.9658,239.6509 L361.7295,239.6509 Q361.5791,239.522 361.3508,239.3447 Q361.1226,239.1675 360.8325,238.9956 Q360.5371,238.8237 360.1934,238.7056 Q359.8496,238.5874 359.4575,238.5874 Q359.0225,238.5874 358.6304,238.7244 Q358.2383,238.8613 357.9053,239.1782 Q357.5884,239.4844 357.3923,239.9893 Q357.1963,240.4941 357.1963,241.2139 Q357.1963,241.9658 357.4084,242.4707 Q357.6206,242.9756 357.9429,243.2656 Q358.2705,243.561 358.6733,243.6873 Q359.0762,243.8135 359.4683,243.8135 Q359.8442,243.8135 360.2122,243.7007 Q360.5801,243.5879 360.8916,243.3945 Q361.1548,243.2388 361.3804,243.0615 Q361.606,242.8843 361.751,242.7554 L361.9658,242.7554 L361.9658,244.6675 Q361.665,244.8018 361.3911,244.9199 Q361.1172,245.0381 360.8164,245.124 Q360.4243,245.2368 360.0806,245.2959 Q359.7368,245.355 359.1353,245.355 Z "/><text fill="#000000" font-family="Verdana" font-size="11" lengthAdjust="spacingAndGlyphs" textLength="25" x="375" y="245.574">Json</text><line style="stroke: #AAAAAA; stroke-width: 1.5;" x1="270.5" x2="479.5" y1="254.1992" y2="254.1992"/><ellipse cx="280.5" cy="282.1543" fill="#84BE84" rx="3" ry="3" style="stroke: #038048; stroke-width: 1.0;"/><text fill="#333333" font-family="sans-serif" font-size="11" lengthAdjust="spacingAndGlyphs" textLength="60" x="286.5" y="285.7891">__enter__()</text><ellipse cx="280.5" cy="295.1094" fill="#84BE84" rx="3" ry="3" style="stroke: #038048; stroke-width: 1.0;"/><text fill="#333333" font-family="sans-serif" font-size="11" lengthAdjust="spacingAndGlyphs" textLength="188" x="286.5" y="298.7441">__exit__(exc_type, exc_val, exc_tb)</text><ellipse cx="280.5" cy="308.0645" fill="#84BE84" rx="3" ry="3" style="stroke: #038048; stroke-width: 1.0;"/><text fill="#333333" font-family="sans-serif" font-size="11" lengthAdjust="spacingAndGlyphs" textLength="49" x="286.5" y="311.6992">__init__()</text><ellipse cx="280.5" cy="321.0195" fill="#84BE84" rx="3" ry="3" style="stroke: #038048; stroke-width: 1.0;"/><text fill="#333333" font-family="sans-serif" font-size="11" lengthAdjust="spacingAndGlyphs" textLength="96" x="286.5" y="324.6543">result(title, result)</text><line style="stroke: #AAAAAA; stroke-width: 1.0; stroke-dasharray: 1.0,2.0;" x1="270.5" x2="334.5" y1="268.6768" y2="268.6768"/><text fill="#333333" font-family="sans-serif" font-size="11" lengthAdjust="spacingAndGlyphs" textLength="81" x="334.5" y="272.334">Public Methods</text><line style="stroke: #AAAAAA; stroke-width: 1.0; stroke-dasharray: 1.0,2.0;" x1="415.5" x2="479.5" y1="268.6768" y2="268.6768"/></a><!--MD5=[1202924086ca6a88207a70c63baf9330]
class benchmarkstt.output.core.MarkDown--><a href="https://benchmarkstt.readthedocs.io/en/latest/modules/benchmarkstt.output.core.html#benchmarkstt.output.core.MarkDown" target="_top" title="https://benchmarkstt.readthedocs.io/en/latest/modules/benchmarkstt.output.core.html#benchmarkstt.output.core.MarkDown" xlink:actuate="onRequest" xlink:href="https://benchmarkstt.readthedocs.io/en/latest/modules/benchmarkstt.output.core.html#benchmarkstt.output.core.MarkDown" xlink:show="new" xlink:title="https://benchmarkstt.readthedocs.io/en/latest/modules/benchmarkstt.output.core.html#benchmarkstt.output.core.MarkDown" xlink:type="simple"><rect fill="#CCCCCC" filter="url(#f15gmihc5xh0s5)" height="102.7754" id="benchmarkstt.output.core.MarkDown" style="stroke: #AAAAAA; stroke-width: 1.5;" width="211" x="23.5" y="391.1992"/><ellipse cx="96" cy="404.1992" fill="#FF8800" rx="8" ry="8" style="stroke: #AAAAAA; stroke-width: 1.0;"/><path d="M96.1353,408.355 Q95.2437,408.355 94.489,408.0918 Q93.7344,407.8286 93.1919,407.3076 Q92.6494,406.7866 92.3513,406.0078 Q92.0532,405.229 92.0532,404.2085 Q92.0532,403.2578 92.3379,402.4844 Q92.6226,401.7109 93.165,401.1577 Q93.686,400.626 94.4568,400.3359 Q95.2275,400.0459 96.1406,400.0459 Q96.6455,400.0459 97.051,400.1023 Q97.4565,400.1587 97.8003,400.25 Q98.1602,400.3521 98.4529,400.4783 Q98.7456,400.6045 98.9658,400.7119 L98.9658,402.6509 L98.7295,402.6509 Q98.5791,402.522 98.3508,402.3447 Q98.1226,402.1675 97.8325,401.9956 Q97.5371,401.8237 97.1934,401.7056 Q96.8496,401.5874 96.4575,401.5874 Q96.0225,401.5874 95.6304,401.7244 Q95.2383,401.8613 94.9053,402.1782 Q94.5884,402.4844 94.3923,402.9893 Q94.1963,403.4941 94.1963,404.2139 Q94.1963,404.9658 94.4084,405.4707 Q94.6206,405.9756 94.9429,406.2656 Q95.2705,406.561 95.6733,406.6873 Q96.0762,406.8135 96.4683,406.8135 Q96.8442,406.8135 97.2122,406.7007 Q97.5801,406.5879 97.8916,406.3945 Q98.1548,406.2388 98.3804,406.0615 Q98.606,405.8843 98.751,405.7554 L98.9658,405.7554 L98.9658,407.6675 Q98.665,407.8018 98.3911,407.9199 Q98.1172,408.0381 97.8164,408.124 Q97.4243,408.2368 97.0806,408.2959 Q96.7368,408.355 96.1353,408.355 Z "/><text fill="#000000" font-family="Verdana" font-size="11" lengthAdjust="spacingAndGlyphs" textLength="59" x="112" y="408.574">MarkDown</text><line style="stroke: #AAAAAA; stroke-width: 1.5;" x1="24.5" x2="233.5" y1="417.1992" y2="417.1992"/><ellipse cx="34.5" cy="445.1543" fill="#84BE84" rx="3" ry="3" style="stroke: #038048; stroke-width: 1.0;"/><text fill="#333333" font-family="sans-serif" font-size="11" lengthAdjust="spacingAndGlyphs" textLength="60" x="40.5" y="448.7891">__enter__()</text><ellipse cx="34.5" cy="458.1094" fill="#84BE84" rx="3" ry="3" style="stroke: #038048; stroke-width: 1.0;"/><text fill="#333333" font-family="sans-serif" font-size="11" lengthAdjust="spacingAndGlyphs" textLength="188" x="40.5" y="461.7441">__exit__(exc_type, exc_val, exc_tb)</text><ellipse cx="34.5" cy="471.0645" fill="#84BE84" rx="3" ry="3" style="stroke: #038048; stroke-width: 1.0;"/><text fill="#333333" font-family="sans-serif" font-size="11" lengthAdjust="spacingAndGlyphs" textLength="65" x="40.5" y="474.6992">print(result)</text><ellipse cx="34.5" cy="484.0195" fill="#84BE84" rx="3" ry="3" style="stroke: #038048; stroke-width: 1.0;"/><text fill="#333333" font-family="sans-serif" font-size="11" lengthAdjust="spacingAndGlyphs" textLength="96" x="40.5" y="487.6543">result(title, result)</text><line style="stroke: #AAAAAA; stroke-width: 1.0; stroke-dasharray: 1.0,2.0;" x1="24.5" x2="88.5" y1="431.6768" y2="431.6768"/><text fill="#333333" font-family="sans-serif" font-size="11" lengthAdjust="spacingAndGlyphs" textLength="81" x="88.5" y="435.334">Public Methods</text><line style="stroke: #AAAAAA; stroke-width: 1.0; stroke-dasharray: 1.0,2.0;" x1="169.5" x2="233.5" y1="431.6768" y2="431.6768"/></a><!--MD5=[ad472f876b41c377ab9c2f7fd723b528]
class benchmarkstt.output.core.SimpleTextBase--><a href="https://benchmarkstt.readthedocs.io/en/latest/modules/benchmarkstt.output.core.html#benchmarkstt.output.core.SimpleTextBase" target="_top" title="https://benchmarkstt.readthedocs.io/en/latest/modules/benchmarkstt.output.core.html#benchmarkstt.output.core.SimpleTextBase" xlink:actuate="onRequest" xlink:href="https://benchmarkstt.readthedocs.io/en/latest/modules/benchmarkstt.output.core.html#benchmarkstt.output.core.SimpleTextBase" xlink:show="new" xlink:title="https://benchmarkstt.readthedocs.io/en/latest/modules/benchmarkstt.output.core.html#benchmarkstt.output.core.SimpleTextBase" xlink:type="simple"><rect fill="#CCCCCC" filter="url(#f15gmihc5xh0s5)" height="102.7754" id="benchmarkstt.output.core.SimpleTextBase" style="stroke: #AAAAAA; stroke-width: 1.5;" width="211" x="23.5" y="228.1992"/><ellipse cx="79.5" cy="241.1992" fill="#FF8800" rx="8" ry="8" style="stroke: #AAAAAA; stroke-width: 1.0;"/><path d="M79.6353,245.355 Q78.7437,245.355 77.989,245.0918 Q77.2344,244.8286 76.6919,244.3076 Q76.1494,243.7866 75.8513,243.0078 Q75.5532,242.229 75.5532,241.2085 Q75.5532,240.2578 75.8379,239.4844 Q76.1226,238.7109 76.665,238.1577 Q77.186,237.626 77.9568,237.3359 Q78.7275,237.0459 79.6406,237.0459 Q80.1455,237.0459 80.551,237.1023 Q80.9565,237.1587 81.3003,237.25 Q81.6602,237.3521 81.9529,237.4783 Q82.2456,237.6045 82.4658,237.7119 L82.4658,239.6509 L82.2295,239.6509 Q82.0791,239.522 81.8508,239.3447 Q81.6226,239.1675 81.3325,238.9956 Q81.0371,238.8237 80.6934,238.7056 Q80.3496,238.5874 79.9575,238.5874 Q79.5225,238.5874 79.1304,238.7244 Q78.7383,238.8613 78.4053,239.1782 Q78.0884,239.4844 77.8923,239.9893 Q77.6963,240.4941 77.6963,241.2139 Q77.6963,241.9658 77.9084,242.4707 Q78.1206,242.9756 78.4429,243.2656 Q78.7705,243.561 79.1733,243.6873 Q79.5762,243.8135 79.9683,243.8135 Q80.3442,243.8135 80.7122,243.7007 Q81.0801,243.5879 81.3916,243.3945 Q81.6548,243.2388 81.8804,243.0615 Q82.106,242.8843 82.251,242.7554 L82.4658,242.7554 L82.4658,244.6675 Q82.165,244.8018 81.8911,244.9199 Q81.6172,245.0381 81.3164,245.124 Q80.9243,245.2368 80.5806,245.2959 Q80.2368,245.355 79.6353,245.355 Z "/><text fill="#000000" font-family="Verdana" font-size="11" lengthAdjust="spacingAndGlyphs" textLength="92" x="95.5" y="245.574">SimpleTextBase</text><line style="stroke: #AAAAAA; stroke-width: 1.5;" x1="24.5" x2="233.5" y1="254.1992" y2="254.1992"/><ellipse cx="34.5" cy="282.1543" fill="#84BE84" rx="3" ry="3" style="stroke: #038048; stroke-width: 1.0;"/><text fill="#333333" font-family="sans-serif" font-size="11" lengthAdjust="spacingAndGlyphs" textLength="60" x="40.5" y="285.7891">__enter__()</text><ellipse cx="34.5" cy="295.1094" fill="#84BE84" rx="3" ry="3" style="stroke: #038048; stroke-width: 1.0;"/><text fill="#333333" font-family="sans-serif" font-size="11" lengthAdjust="spacingAndGlyphs" textLength="188" x="40.5" y="298.7441">__exit__(exc_type, exc_val, exc_tb)</text><ellipse cx="34.5" cy="308.0645" fill="#84BE84" rx="3" ry="3" style="stroke: #038048; stroke-width: 1.0;"/><text fill="#333333" font-family="sans-serif" font-size="11" lengthAdjust="spacingAndGlyphs" textLength="65" x="40.5" y="311.6992">print(result)</text><ellipse cx="34.5" cy="321.0195" fill="#84BE84" rx="3" ry="3" style="stroke: #038048; stroke-width: 1.0;"/><text fill="#333333" font-family="sans-serif" font-size="11" lengthAdjust="spacingAndGlyphs" textLength="96" x="40.5" y="324.6543">result(title, result)</text><line style="stroke: #AAAAAA; stroke-width: 1.0; stroke-dasharray: 1.0,2.0;" x1="24.5" x2="88.5" y1="268.6768" y2="268.6768"/><text fill="#333333" font-family="sans-serif" font-size="11" lengthAdjust="spacingAndGlyphs" textLength="81" x="88.5" y="272.334">Public Methods</text><line style="stroke: #AAAAAA; stroke-width: 1.0; stroke-dasharray: 1.0,2.0;" x1="169.5" x2="233.5" y1="268.6768" y2="268.6768"/></a><!--MD5=[1b1c3484ac7c767612303980bbf618ed]
class benchmarkstt.output.core.ReStructuredText--><a href="https://benchmarkstt.readthedocs.io/en/latest/modules/benchmarkstt.output.core.html#benchmarkstt.output.core.ReStructuredText" target="_top" title="https://benchmarkstt.readthedocs.io/en/latest/modules/benchmarkstt.output.core.html#benchmarkstt.output.core.ReStructuredText" xlink:actuate="onRequest" xlink:href="https://benchmarkstt.readthedocs.io/en/latest/modules/benchmarkstt.output.core.html#benchmarkstt.output.core.ReStructuredText" xlink:show="new" xlink:title="https://benchmarkstt.readthedocs.io/en/latest/modules/benchmarkstt.output.core.html#benchmarkstt.output.core.ReStructuredText" xlink:type="simple"><rect fill="#CCCCCC" filter="url(#f15gmihc5xh0s5)" height="102.7754" id="benchmarkstt.output.core.ReStructuredText" style="stroke: #AAAAAA; stroke-width: 1.5;" width="211" x="269.5" y="391.1992"/><ellipse cx="321.5" cy="404.1992" fill="#FF8800" rx="8" ry="8" style="stroke: #AAAAAA; stroke-width: 1.0;"/><path d="M321.6353,408.355 Q320.7437,408.355 319.989,408.0918 Q319.2344,407.8286 318.6919,407.3076 Q318.1494,406.7866 317.8513,406.0078 Q317.5532,405.229 317.5532,404.2085 Q317.5532,403.2578 317.8379,402.4844 Q318.1226,401.7109 318.665,401.1577 Q319.186,400.626 319.9568,400.3359 Q320.7275,400.0459 321.6406,400.0459 Q322.1455,400.0459 322.551,400.1023 Q322.9565,400.1587 323.3003,400.25 Q323.6602,400.3521 323.9529,400.4783 Q324.2456,400.6045 324.4658,400.7119 L324.4658,402.6509 L324.2295,402.6509 Q324.0791,402.522 323.8508,402.3447 Q323.6226,402.1675 323.3325,401.9956 Q323.0371,401.8237 322.6934,401.7056 Q322.3496,401.5874 321.9575,401.5874 Q321.5225,401.5874 321.1304,401.7244 Q320.7383,401.8613 320.4053,402.1782 Q320.0884,402.4844 319.8923,402.9893 Q319.6963,403.4941 319.6963,404.2139 Q319.6963,404.9658 319.9084,405.4707 Q320.1206,405.9756 320.4429,406.2656 Q320.7705,406.561 321.1733,406.6873 Q321.5762,406.8135 321.9683,406.8135 Q322.3442,406.8135 322.7122,406.7007 Q323.0801,406.5879 323.3916,406.3945 Q323.6548,406.2388 323.8804,406.0615 Q324.106,405.8843 324.251,405.7554 L324.4658,405.7554 L324.4658,407.6675 Q324.165,407.8018 323.8911,407.9199 Q323.6172,408.0381 323.3164,408.124 Q322.9243,408.2368 322.5806,408.2959 Q322.2368,408.355 321.6353,408.355 Z "/><text fill="#000000" font-family="Verdana" font-size="11" lengthAdjust="spacingAndGlyphs" textLength="100" x="337.5" y="408.574">ReStructuredText</text><line style="stroke: #AAAAAA; stroke-width: 1.5;" x1="270.5" x2="479.5" y1="417.1992" y2="417.1992"/><ellipse cx="280.5" cy="445.1543" fill="#84BE84" rx="3" ry="3" style="stroke: #038048; stroke-width: 1.0;"/><text fill="#333333" font-family="sans-serif" font-size="11" lengthAdjust="spacingAndGlyphs" textLength="60" x="286.5" y="448.7891">__enter__()</text><ellipse cx="280.5" cy="458.1094" fill="#84BE84" rx="3" ry="3" style="stroke: #038048; stroke-width: 1.0;"/><text fill="#333333" font-family="sans-serif" font-size="11" lengthAdjust="spacingAndGlyphs" textLength="188" x="286.5" y="461.7441">__exit__(exc_type, exc_val, exc_tb)</text><ellipse cx="280.5" cy="471.0645" fill="#84BE84" rx="3" ry="3" style="stroke: #038048; stroke-width: 1.0;"/><text fill="#333333" font-family="sans-serif" font-size="11" lengthAdjust="spacingAndGlyphs" textLength="65" x="286.5" y="474.6992">print(result)</text><ellipse cx="280.5" cy="484.0195" fill="#84BE84" rx="3" ry="3" style="stroke: #038048; stroke-width: 1.0;"/><text fill="#333333" font-family="sans-serif" font-size="11" lengthAdjust="spacingAndGlyphs" textLength="96" x="286.5" y="487.6543">result(title, result)</text><line style="stroke: #AAAAAA; stroke-width: 1.0; stroke-dasharray: 1.0,2.0;" x1="270.5" x2="334.5" y1="431.6768" y2="431.6768"/><text fill="#333333" font-family="sans-serif" font-size="11" lengthAdjust="spacingAndGlyphs" textLength="81" x="334.5" y="435.334">Public Methods</text><line style="stroke: #AAAAAA; stroke-width: 1.0; stroke-dasharray: 1.0,2.0;" x1="415.5" x2="479.5" y1="431.6768" y2="431.6768"/></a><!--MD5=[b4ba39b199d1ae7f900ea69508af4a3d]
reverse link benchmarkstt.output.Base to benchmarkstt.output.core.Json--><path d="M295.77,169.5092 C309.64,188.6292 324.82,209.5492 338.16,227.9292 " fill="none" id="benchmarkstt.output.Base&lt;-benchmarkstt.output.core.Json" style="stroke: #000000; stroke-width: 1.0;"/><polygon fill="none" points="290.08,173.5892,284,153.2892,301.41,165.3692,290.08,173.5892" style="stroke: #000000; stroke-width: 1.0;"/><!--MD5=[649e8d6b5a19579f64f6ff55d9b80603]
reverse link benchmarkstt.output.core.SimpleTextBase to benchmarkstt.output.core.MarkDown--><path d="M129,351.9092 C129,365.1092 129,378.6592 129,391.0892 " fill="none" id="benchmarkstt.output.core.SimpleTextBase&lt;-benchmarkstt.output.core.MarkDown" style="stroke: #000000; stroke-width: 1.0;"/><polygon fill="none" points="122,351.6392,129,331.6392,136,351.6392,122,351.6392" style="stroke: #000000; stroke-width: 1.0;"/><!--MD5=[0064dcd89a9c0ed1362beefa7e7418bc]
reverse link benchmarkstt.output.core.SimpleTextBase to benchmarkstt.output.core.ReStructuredText--><path d="M223.53,342.5692 C247.98,358.5692 274.01,375.5992 297.47,390.9592 " fill="none" id="benchmarkstt.output.core.SimpleTextBase&lt;-benchmarkstt.output.core.ReStructuredText" style="stroke: #000000; stroke-width: 1.0;"/><polygon fill="none" points="219.4,348.2292,206.5,331.4192,227.07,336.5192,219.4,348.2292" style="stroke: #000000; stroke-width: 1.0;"/><!--MD5=[ec4fe02a8646f37173536f5ee390896c]
reverse link benchmarkstt.output.Base to benchmarkstt.output.core.SimpleTextBase--><path d="M208.23,169.5092 C194.36,188.6292 179.18,209.5492 165.84,227.9292 " fill="none" id="benchmarkstt.output.Base&lt;-benchmarkstt.output.core.SimpleTextBase" style="stroke: #000000; stroke-width: 1.0;"/><polygon fill="none" points="202.59,165.3692,220,153.2892,213.92,173.5892,202.59,165.3692" style="stroke: #000000; stroke-width: 1.0;"/><!--MD5=[85190749a91d6bdedff6689e84ad045b]
@startuml

title benchmarkstt.output

skinparam packageStyle Frame
!define LIGHTORANGE
!includeurl https://raw.githubusercontent.com/Drakemor/RedDress-PlantUML/master/style.puml
package benchmarkstt.output {

	class benchmarkstt.output.Base  [[https://benchmarkstt.readthedocs.io/en/latest/modules/benchmarkstt.output.html#benchmarkstt.output.Base]] {
		.. Public Methods ..
		+__enter__()
		+__exit__(exc_type, exc_val, exc_tb)
		+result(title, result)
	}


}

package benchmarkstt.output.core {

	class benchmarkstt.output.core.Json  [[https://benchmarkstt.readthedocs.io/en/latest/modules/benchmarkstt.output.core.html#benchmarkstt.output.core.Json]] extends benchmarkstt.output.Base {
		.. Public Methods ..
		+__enter__()
		+__exit__(exc_type, exc_val, exc_tb)
		+__init__()
		+result(title, result)
	}


	class benchmarkstt.output.core.MarkDown  [[https://benchmarkstt.readthedocs.io/en/latest/modules/benchmarkstt.output.core.html#benchmarkstt.output.core.MarkDown]] extends benchmarkstt.output.core.SimpleTextBase {
		.. Public Methods ..
		+__enter__()
		+__exit__(exc_type, exc_val, exc_tb)
		+print(result)
		+result(title, result)
	}



	class benchmarkstt.output.core.ReStructuredText  [[https://benchmarkstt.readthedocs.io/en/latest/modules/benchmarkstt.output.core.html#benchmarkstt.output.core.ReStructuredText]] extends benchmarkstt.output.core.SimpleTextBase {
		.. Public Methods ..
		+__enter__()
		+__exit__(exc_type, exc_val, exc_tb)
		+print(result)
		+result(title, result)
	}



	class benchmarkstt.output.core.SimpleTextBase  [[https://benchmarkstt.readthedocs.io/en/latest/modules/benchmarkstt.output.core.html#benchmarkstt.output.core.SimpleTextBase]] extends benchmarkstt.output.Base {
		.. Public Methods ..
		+__enter__()
		+__exit__(exc_type, exc_val, exc_tb)
		+print(result)
		+result(title, result)
	}

}




@enduml

@startuml

title benchmarkstt.output

skinparam packageStyle Frame










skinparam stereotypeCBackgroundColor FF8800

skinparam backgroundColor fff








skinparam circledCharacter {
  radius 8
  fontSize 11
  fontName Verdana
}

skinparam class {
    backgroundColor ccc
  borderColor aaa
    fontColor 000
  fontName Verdana
  fontSize 11
  stereotypeFontColor 333
  stereotypeFontSize 11
    arrowColor 000
  arrowFontName Verdana
  arrowFontColor 333
  arrowFontSize 11

  attributeFontColor 333
  attributeFontSize 11
  attributeIconSize 11
}


skinparam actor {
    backgroundColor FF8800
  borderColor BB6600
    fontColor 000
  fontName Verdana
  fontSize 11
  stereotypeFontColor 333
  stereotypeFontSize 11
}

skinparam participant {
    backgroundColor ccc
  borderColor aaa
    fontColor 000
  fontName Verdana
  fontSize 11
  stereotypeFontColor 333
  stereotypeFontSize 11
}

skinparam collections {
    backgroundColor ccc
  borderColor aaa
    fontColor 000
  fontName Verdana
  fontSize 11
  stereotypeFontColor 333
  stereotypeFontSize 11
}

skinparam SequenceBox{
    backgroundColor e0e0e0
  borderColor cccccc
    fontColor 000
  fontName Verdana
  fontSize 11
  stereotypeFontColor 333
  stereotypeFontSize 11
}


skinparam interface {
    backgroundColor FF8800
  borderColor BB6600
    fontColor 000
  fontName Verdana
  fontSize 11
  stereotypeFontColor 333
  stereotypeFontSize 11
}

skinparam component {
    backgroundColor ccc
  borderColor aaa
    fontColor 000
  fontName Verdana
  fontSize 11
  stereotypeFontColor 333
  stereotypeFontSize 11
}

skinparam node {
    backgroundColor ccc
  borderColor aaa
    fontColor 000
  fontName Verdana
  fontSize 11
  stereotypeFontColor 333
  stereotypeFontSize 11
}

skinparam database {
    backgroundColor ccc
  borderColor aaa
    fontColor 000
  fontName Verdana
  fontSize 11
  stereotypeFontColor 333
  stereotypeFontSize 11
}

skinparam queue {
    backgroundColor ccc
  borderColor aaa
    fontColor 000
  fontName Verdana
  fontSize 11
  stereotypeFontColor 333
  stereotypeFontSize 11
}


skinparam usecase {
    backgroundColor ccc
  borderColor aaa
    fontColor 000
  fontName Verdana
  fontSize 11
  stereotypeFontColor 333
  stereotypeFontSize 11
    arrowColor 000
  arrowFontName Verdana
  arrowFontColor 333
  arrowFontSize 11
}

skinparam activity {
    backgroundColor ccc
  borderColor aaa
    fontColor 000
  fontName Verdana
  fontSize 11
  stereotypeFontColor 333
  stereotypeFontSize 11
    arrowColor 000
  arrowFontName Verdana
  arrowFontColor 333
  arrowFontSize 11
}

skinparam sequence {
    fontColor 000
  fontName Verdana
  fontSize 11
  stereotypeFontColor 333
  stereotypeFontSize 11
    arrowColor 000
  arrowFontName Verdana
  arrowFontColor 333
  arrowFontSize 11

  lifeLineBorderColor FF8800
  lifeLineBackgroundColor e0e0e0
}

skinparam boundary {
    backgroundColor FF8800
  borderColor BB6600
    fontColor 000
  fontName Verdana
  fontSize 11
  stereotypeFontColor 333
  stereotypeFontSize 11
}

skinparam control {
    backgroundColor FF8800
  borderColor BB6600
    fontColor 000
  fontName Verdana
  fontSize 11
  stereotypeFontColor 333
  stereotypeFontSize 11
}

skinparam entity {
    backgroundColor FF8800
  borderColor BB6600
    fontColor 000
  fontName Verdana
  fontSize 11
  stereotypeFontColor 333
  stereotypeFontSize 11
}


skinparam state {
    backgroundColor ccc
  borderColor aaa
    fontColor 000
  fontName Verdana
  fontSize 11
  stereotypeFontColor 333
  stereotypeFontSize 11
    arrowColor 000
  arrowFontName Verdana
  arrowFontColor 333
  arrowFontSize 11
  startColor FF8800
  endColor BB6600
}


skinparam object {
    backgroundColor ccc
  borderColor aaa
    fontColor 000
  fontName Verdana
  fontSize 11
  stereotypeFontColor 333
  stereotypeFontSize 11
    arrowColor 000
  arrowFontName Verdana
  arrowFontColor 333
  arrowFontSize 11
}


skinparam note {
    backgroundColor FF8800
  borderColor BB6600
    fontColor 000
  fontName Verdana
  fontSize 11
  stereotypeFontColor 333
  stereotypeFontSize 11
}

skinparam cloud {
    backgroundColor ccc
  borderColor aaa
    fontColor 000
  fontName Verdana
  fontSize 11
  stereotypeFontColor 333
  stereotypeFontSize 11
    arrowColor 000
  arrowFontName Verdana
  arrowFontColor 333
  arrowFontSize 11
}

skinparam rectangle {
    backgroundColor ccc
  borderColor aaa
    fontColor 000
  fontName Verdana
  fontSize 11
  stereotypeFontColor 333
  stereotypeFontSize 11
}

skinparam storage {
    backgroundColor ccc
  borderColor aaa
    fontColor 000
  fontName Verdana
  fontSize 11
  stereotypeFontColor 333
  stereotypeFontSize 11
}

package benchmarkstt.output {

	class benchmarkstt.output.Base  [[https://benchmarkstt.readthedocs.io/en/latest/modules/benchmarkstt.output.html#benchmarkstt.output.Base]] {
		.. Public Methods ..
		+__enter__()
		+__exit__(exc_type, exc_val, exc_tb)
		+result(title, result)
	}


}

package benchmarkstt.output.core {

	class benchmarkstt.output.core.Json  [[https://benchmarkstt.readthedocs.io/en/latest/modules/benchmarkstt.output.core.html#benchmarkstt.output.core.Json]] extends benchmarkstt.output.Base {
		.. Public Methods ..
		+__enter__()
		+__exit__(exc_type, exc_val, exc_tb)
		+__init__()
		+result(title, result)
	}


	class benchmarkstt.output.core.MarkDown  [[https://benchmarkstt.readthedocs.io/en/latest/modules/benchmarkstt.output.core.html#benchmarkstt.output.core.MarkDown]] extends benchmarkstt.output.core.SimpleTextBase {
		.. Public Methods ..
		+__enter__()
		+__exit__(exc_type, exc_val, exc_tb)
		+print(result)
		+result(title, result)
	}



	class benchmarkstt.output.core.ReStructuredText  [[https://benchmarkstt.readthedocs.io/en/latest/modules/benchmarkstt.output.core.html#benchmarkstt.output.core.ReStructuredText]] extends benchmarkstt.output.core.SimpleTextBase {
		.. Public Methods ..
		+__enter__()
		+__exit__(exc_type, exc_val, exc_tb)
		+print(result)
		+result(title, result)
	}



	class benchmarkstt.output.core.SimpleTextBase  [[https://benchmarkstt.readthedocs.io/en/latest/modules/benchmarkstt.output.core.html#benchmarkstt.output.core.SimpleTextBase]] extends benchmarkstt.output.Base {
		.. Public Methods ..
		+__enter__()
		+__exit__(exc_type, exc_val, exc_tb)
		+print(result)
		+result(title, result)
	}

}




@enduml

PlantUML version 1.2020.15(Sun Jun 28 13:39:45 CEST 2020)
(GPL source distribution)
Java Runtime: OpenJDK Runtime Environment
JVM: OpenJDK 64-Bit Server VM
Default Encoding: UTF-8
Language: en
Country: BE
--></g></svg>