<?xml version="1.0" encoding="UTF-8" standalone="no"?><svg xmlns="http://www.w3.org/2000/svg" xmlns:xlink="http://www.w3.org/1999/xlink" contentScriptType="application/ecmascript" contentStyleType="text/css" height="317px" preserveAspectRatio="none" style="width:1702px;height:317px;" version="1.1" viewBox="0 0 1702 317" width="1702px" zoomAndPan="magnify"><defs><filter height="300%" id="f180f83r9bwxrb" width="300%" x="-1" y="-1"><feGaussianBlur result="blurOut" stdDeviation="2.0"/><feColorMatrix in="blurOut" result="blurOut2" type="matrix" values="0 0 0 0 0 0 0 0 0 0 0 0 0 0 0 0 0 0 .4 0"/><feOffset dx="4.0" dy="4.0" in="blurOut2" result="blurOut3"/><feBlend in="SourceGraphic" in2="blurOut3" mode="normal"/></filter></defs><g><!--MD5=[22ea792f0a86ed46e658ff5419811104]
cluster benchmarkstt.metrics--><a href="https://benchmarkstt.readthedocs.io/en/latest/modules/benchmarkstt.metrics.html#" target="_top" title="https://benchmarkstt.readthedocs.io/en/latest/modules/benchmarkstt.metrics.html#" xlink:actuate="onRequest" xlink:href="https://benchmarkstt.readthedocs.io/en/latest/modules/benchmarkstt.metrics.html#" xlink:show="new" xlink:title="https://benchmarkstt.readthedocs.io/en/latest/modules/benchmarkstt.metrics.html#" xlink:type="simple"><rect fill="#FFFFFF" filter="url(#f180f83r9bwxrb)" height="115" style="stroke: #000000; stroke-width: 1.5;" width="488" x="497" y="7"/><path d="M663,8 L663,16.4883 L653,26.4883 L497,26.4883 " fill="none" style="stroke: #000000; stroke-width: 1.5;"/><text fill="#000000" font-family="sans-serif" font-size="14" font-weight="bold" lengthAdjust="spacingAndGlyphs" textLength="156" x="500" y="21.5352">benchmarkstt.metrics</text></a><!--MD5=[144dc3a7777fd2b902a939eb9db82fdd]
cluster benchmarkstt.metrics.core--><a href="https://benchmarkstt.readthedocs.io/en/latest/modules/benchmarkstt.metrics.core.html#" target="_top" title="https://benchmarkstt.readthedocs.io/en/latest/modules/benchmarkstt.metrics.core.html#" xlink:actuate="onRequest" xlink:href="https://benchmarkstt.readthedocs.io/en/latest/modules/benchmarkstt.metrics.core.html#" xlink:show="new" xlink:title="https://benchmarkstt.readthedocs.io/en/latest/modules/benchmarkstt.metrics.core.html#" xlink:type="simple"><rect fill="#FFFFFF" filter="url(#f180f83r9bwxrb)" height="154" style="stroke: #000000; stroke-width: 1.5;" width="1678" x="7" y="146"/><path d="M206,147 L206,155.4883 L196,165.4883 L7,165.4883 " fill="none" style="stroke: #000000; stroke-width: 1.5;"/><text fill="#000000" font-family="sans-serif" font-size="14" font-weight="bold" lengthAdjust="spacingAndGlyphs" textLength="189" x="10" y="160.5352">benchmarkstt.metrics.core</text></a><!--MD5=[5df2e3f9a60f5e68627f199cfdd93bb0]
class benchmarkstt.metrics.Base--><a href="https://benchmarkstt.readthedocs.io/en/latest/modules/benchmarkstt.metrics.html#benchmarkstt.metrics.Base" target="_top" title="https://benchmarkstt.readthedocs.io/en/latest/modules/benchmarkstt.metrics.html#benchmarkstt.metrics.Base" xlink:actuate="onRequest" xlink:href="https://benchmarkstt.readthedocs.io/en/latest/modules/benchmarkstt.metrics.html#benchmarkstt.metrics.Base" xlink:show="new" xlink:title="https://benchmarkstt.readthedocs.io/en/latest/modules/benchmarkstt.metrics.html#benchmarkstt.metrics.Base" xlink:type="simple"><rect fill="#CCCCCC" filter="url(#f180f83r9bwxrb)" height="63.9102" id="benchmarkstt.metrics.Base" style="stroke: #AAAAAA; stroke-width: 1.5;" width="455" x="513.5" y="42"/><ellipse cx="723.5" cy="55" fill="#FF8800" rx="8" ry="8" style="stroke: #AAAAAA; stroke-width: 1.0;"/><path d="M723.6353,59.1558 Q722.7437,59.1558 721.989,58.8926 Q721.2344,58.6294 720.6919,58.1084 Q720.1494,57.5874 719.8513,56.8086 Q719.5532,56.0298 719.5532,55.0093 Q719.5532,54.0586 719.8379,53.2852 Q720.1226,52.5117 720.665,51.9585 Q721.186,51.4268 721.9568,51.1367 Q722.7275,50.8467 723.6406,50.8467 Q724.1455,50.8467 724.551,50.9031 Q724.9565,50.9595 725.3003,51.0508 Q725.6602,51.1528 725.9529,51.2791 Q726.2456,51.4053 726.4658,51.5127 L726.4658,53.4517 L726.2295,53.4517 Q726.0791,53.3228 725.8508,53.1455 Q725.6226,52.9683 725.3325,52.7964 Q725.0371,52.6245 724.6934,52.5063 Q724.3496,52.3882 723.9575,52.3882 Q723.5225,52.3882 723.1304,52.5251 Q722.7383,52.6621 722.4053,52.979 Q722.0884,53.2852 721.8923,53.79 Q721.6963,54.2949 721.6963,55.0146 Q721.6963,55.7666 721.9084,56.2715 Q722.1206,56.7764 722.4429,57.0664 Q722.7705,57.3618 723.1733,57.488 Q723.5762,57.6143 723.9683,57.6143 Q724.3442,57.6143 724.7122,57.5015 Q725.0801,57.3887 725.3916,57.1953 Q725.6548,57.0396 725.8804,56.8623 Q726.106,56.6851 726.251,56.5562 L726.4658,56.5562 L726.4658,58.4683 Q726.165,58.6025 725.8911,58.7207 Q725.6172,58.8389 725.3164,58.9248 Q724.9243,59.0376 724.5806,59.0967 Q724.2368,59.1558 723.6353,59.1558 Z "/><text fill="#000000" font-family="Verdana" font-size="11" lengthAdjust="spacingAndGlyphs" textLength="28" x="739.5" y="59.3748">Base</text><line style="stroke: #AAAAAA; stroke-width: 1.5;" x1="514.5" x2="967.5" y1="68" y2="68"/><ellipse cx="524.5" cy="95.9551" fill="#84BE84" rx="3" ry="3" style="stroke: #038048; stroke-width: 1.0;"/><text fill="#333333" font-family="sans-serif" font-size="11" lengthAdjust="spacingAndGlyphs" textLength="432" x="530.5" y="99.5898">compare(ref: benchmarkstt.schema.Schema, hyp: benchmarkstt.schema.Schema)</text><line style="stroke: #AAAAAA; stroke-width: 1.0; stroke-dasharray: 1.0,2.0;" x1="514.5" x2="700.5" y1="82.4775" y2="82.4775"/><text fill="#333333" font-family="sans-serif" font-size="11" lengthAdjust="spacingAndGlyphs" textLength="81" x="700.5" y="86.1348">Public Methods</text><line style="stroke: #AAAAAA; stroke-width: 1.0; stroke-dasharray: 1.0,2.0;" x1="781.5" x2="967.5" y1="82.4775" y2="82.4775"/></a><!--MD5=[16641109c0e363d96d1ecc4c603e3de1]
class benchmarkstt.metrics.core.DiffCounts--><a href="https://benchmarkstt.readthedocs.io/en/latest/modules/benchmarkstt.metrics.core.html#benchmarkstt.metrics.core.DiffCounts" target="_top" title="https://benchmarkstt.readthedocs.io/en/latest/modules/benchmarkstt.metrics.core.html#benchmarkstt.metrics.core.DiffCounts" xlink:actuate="onRequest" xlink:href="https://benchmarkstt.readthedocs.io/en/latest/modules/benchmarkstt.metrics.core.html#benchmarkstt.metrics.core.DiffCounts" xlink:show="new" xlink:title="https://benchmarkstt.readthedocs.io/en/latest/modules/benchmarkstt.metrics.core.html#benchmarkstt.metrics.core.DiffCounts" xlink:type="simple"><rect fill="#CCCCCC" filter="url(#f180f83r9bwxrb)" height="76.8652" id="benchmarkstt.metrics.core.DiffCounts" style="stroke: #AAAAAA; stroke-width: 1.5;" width="455" x="1213.5" y="194"/><ellipse cx="1408.5" cy="207" fill="#FF8800" rx="8" ry="8" style="stroke: #AAAAAA; stroke-width: 1.0;"/><path d="M1408.6353,211.1558 Q1407.7437,211.1558 1406.989,210.8926 Q1406.2344,210.6294 1405.6919,210.1084 Q1405.1494,209.5874 1404.8513,208.8086 Q1404.5532,208.0298 1404.5532,207.0093 Q1404.5532,206.0586 1404.8379,205.2852 Q1405.1226,204.5117 1405.665,203.9585 Q1406.186,203.4268 1406.9568,203.1367 Q1407.7275,202.8467 1408.6406,202.8467 Q1409.1455,202.8467 1409.551,202.9031 Q1409.9565,202.9595 1410.3003,203.0508 Q1410.6602,203.1528 1410.9529,203.2791 Q1411.2456,203.4053 1411.4658,203.5127 L1411.4658,205.4517 L1411.2295,205.4517 Q1411.0791,205.3228 1410.8508,205.1455 Q1410.6226,204.9683 1410.3325,204.7964 Q1410.0371,204.6245 1409.6934,204.5063 Q1409.3496,204.3882 1408.9575,204.3882 Q1408.5225,204.3882 1408.1304,204.5251 Q1407.7383,204.6621 1407.4053,204.979 Q1407.0884,205.2852 1406.8923,205.79 Q1406.6963,206.2949 1406.6963,207.0146 Q1406.6963,207.7666 1406.9084,208.2715 Q1407.1206,208.7764 1407.4429,209.0664 Q1407.7705,209.3618 1408.1733,209.488 Q1408.5762,209.6143 1408.9683,209.6143 Q1409.3442,209.6143 1409.7122,209.5015 Q1410.0801,209.3887 1410.3916,209.1953 Q1410.6548,209.0396 1410.8804,208.8623 Q1411.106,208.6851 1411.251,208.5562 L1411.4658,208.5562 L1411.4658,210.4683 Q1411.165,210.6025 1410.8911,210.7207 Q1410.6172,210.8389 1410.3164,210.9248 Q1409.9243,211.0376 1409.5806,211.0967 Q1409.2368,211.1558 1408.6353,211.1558 Z "/><text fill="#000000" font-family="Verdana" font-size="11" lengthAdjust="spacingAndGlyphs" textLength="58" x="1424.5" y="211.3748">DiffCounts</text><line style="stroke: #AAAAAA; stroke-width: 1.5;" x1="1214.5" x2="1667.5" y1="220" y2="220"/><ellipse cx="1224.5" cy="247.9551" fill="#84BE84" rx="3" ry="3" style="stroke: #038048; stroke-width: 1.0;"/><text fill="#333333" font-family="sans-serif" font-size="11" lengthAdjust="spacingAndGlyphs" textLength="148" x="1230.5" y="251.5898">__init__(differ_class=None)</text><ellipse cx="1224.5" cy="260.9102" fill="#84BE84" rx="3" ry="3" style="stroke: #038048; stroke-width: 1.0;"/><text fill="#333333" font-family="sans-serif" font-size="11" lengthAdjust="spacingAndGlyphs" textLength="432" x="1230.5" y="264.5449">compare(ref: benchmarkstt.schema.Schema, hyp: benchmarkstt.schema.Schema)</text><line style="stroke: #AAAAAA; stroke-width: 1.0; stroke-dasharray: 1.0,2.0;" x1="1214.5" x2="1400.5" y1="234.4775" y2="234.4775"/><text fill="#333333" font-family="sans-serif" font-size="11" lengthAdjust="spacingAndGlyphs" textLength="81" x="1400.5" y="238.1348">Public Methods</text><line style="stroke: #AAAAAA; stroke-width: 1.0; stroke-dasharray: 1.0,2.0;" x1="1481.5" x2="1667.5" y1="234.4775" y2="234.4775"/></a><!--MD5=[acc3773e40c658ad934768473fb05324]
class benchmarkstt.metrics.core.OpcodeCounts--><a href="https://benchmarkstt.readthedocs.io/en/latest/modules/benchmarkstt.metrics.core.html#benchmarkstt.metrics.core.OpcodeCounts" target="_top" title="https://benchmarkstt.readthedocs.io/en/latest/modules/benchmarkstt.metrics.core.html#benchmarkstt.metrics.core.OpcodeCounts" xlink:actuate="onRequest" xlink:href="https://benchmarkstt.readthedocs.io/en/latest/modules/benchmarkstt.metrics.core.html#benchmarkstt.metrics.core.OpcodeCounts" xlink:show="new" xlink:title="https://benchmarkstt.readthedocs.io/en/latest/modules/benchmarkstt.metrics.core.html#benchmarkstt.metrics.core.OpcodeCounts" xlink:type="simple"><rect fill="#CCCCCC" filter="url(#f180f83r9bwxrb)" height="102.7754" id="benchmarkstt.metrics.core.OpcodeCounts" style="stroke: #AAAAAA; stroke-width: 1.5;" width="175" x="1003.5" y="181"/><ellipse cx="1015.5" cy="194" fill="#FFFF00" rx="8" ry="8" style="stroke: #AAAAAA; stroke-width: 1.0;"/><path d="M1018.7778,192.2993 L1016.2803,192.2993 L1016.2803,198.75 L1014.2178,198.75 L1014.2178,192.2993 L1011.7202,192.2993 L1011.7202,190.7524 L1018.7778,190.7524 Z "/><text fill="#000000" font-family="Verdana" font-size="11" lengthAdjust="spacingAndGlyphs" textLength="82" x="1026.5" y="198.3748">OpcodeCounts</text><rect fill="#FFFFFF" height="14.9551" style="stroke: #333333; stroke-width: 1.0; stroke-dasharray: 2.0,2.0;" width="65" x="1116.5" y="178"/><text fill="#333333" font-family="sans-serif" font-size="11" font-style="italic" lengthAdjust="spacingAndGlyphs" textLength="63" x="1117.5" y="189.6348">namedtuple</text><line style="stroke: #AAAAAA; stroke-width: 1.5;" x1="1004.5" x2="1177.5" y1="207" y2="207"/><ellipse cx="1014.5" cy="234.9551" fill="none" rx="3" ry="3" style="stroke: #038048; stroke-width: 1.0;"/><text fill="#333333" font-family="sans-serif" font-size="11" lengthAdjust="spacingAndGlyphs" textLength="29" x="1020.5" y="238.5898">equal</text><ellipse cx="1014.5" cy="247.9102" fill="none" rx="3" ry="3" style="stroke: #038048; stroke-width: 1.0;"/><text fill="#333333" font-family="sans-serif" font-size="11" lengthAdjust="spacingAndGlyphs" textLength="39" x="1020.5" y="251.5449">replace</text><ellipse cx="1014.5" cy="260.8652" fill="none" rx="3" ry="3" style="stroke: #038048; stroke-width: 1.0;"/><text fill="#333333" font-family="sans-serif" font-size="11" lengthAdjust="spacingAndGlyphs" textLength="31" x="1020.5" y="264.5">insert</text><ellipse cx="1014.5" cy="273.8203" fill="none" rx="3" ry="3" style="stroke: #038048; stroke-width: 1.0;"/><text fill="#333333" font-family="sans-serif" font-size="11" lengthAdjust="spacingAndGlyphs" textLength="32" x="1020.5" y="277.4551">delete</text><line style="stroke: #AAAAAA; stroke-width: 1.0; stroke-dasharray: 1.0,2.0;" x1="1004.5" x2="1075.5" y1="221.4775" y2="221.4775"/><text fill="#333333" font-family="sans-serif" font-size="11" lengthAdjust="spacingAndGlyphs" textLength="31" x="1075.5" y="225.1348">Fields</text><line style="stroke: #AAAAAA; stroke-width: 1.0; stroke-dasharray: 1.0,2.0;" x1="1106.5" x2="1177.5" y1="221.4775" y2="221.4775"/></a><!--MD5=[1b5fccb2ad4a9064da2e7d8609e9b4b6]
class benchmarkstt.metrics.core.WER--><a href="https://benchmarkstt.readthedocs.io/en/latest/modules/benchmarkstt.metrics.core.html#benchmarkstt.metrics.core.WER" target="_top" title="https://benchmarkstt.readthedocs.io/en/latest/modules/benchmarkstt.metrics.core.html#benchmarkstt.metrics.core.WER" xlink:actuate="onRequest" xlink:href="https://benchmarkstt.readthedocs.io/en/latest/modules/benchmarkstt.metrics.core.html#benchmarkstt.metrics.core.WER" xlink:show="new" xlink:title="https://benchmarkstt.readthedocs.io/en/latest/modules/benchmarkstt.metrics.core.html#benchmarkstt.metrics.core.WER" xlink:type="simple"><rect fill="#CCCCCC" filter="url(#f180f83r9bwxrb)" height="76.8652" id="benchmarkstt.metrics.core.WER" style="stroke: #AAAAAA; stroke-width: 1.5;" width="455" x="513.5" y="194"/><ellipse cx="724.5" cy="207" fill="#FF8800" rx="8" ry="8" style="stroke: #AAAAAA; stroke-width: 1.0;"/><path d="M724.6353,211.1558 Q723.7437,211.1558 722.989,210.8926 Q722.2344,210.6294 721.6919,210.1084 Q721.1494,209.5874 720.8513,208.8086 Q720.5532,208.0298 720.5532,207.0093 Q720.5532,206.0586 720.8379,205.2852 Q721.1226,204.5117 721.665,203.9585 Q722.186,203.4268 722.9568,203.1367 Q723.7275,202.8467 724.6406,202.8467 Q725.1455,202.8467 725.551,202.9031 Q725.9565,202.9595 726.3003,203.0508 Q726.6602,203.1528 726.9529,203.2791 Q727.2456,203.4053 727.4658,203.5127 L727.4658,205.4517 L727.2295,205.4517 Q727.0791,205.3228 726.8508,205.1455 Q726.6226,204.9683 726.3325,204.7964 Q726.0371,204.6245 725.6934,204.5063 Q725.3496,204.3882 724.9575,204.3882 Q724.5225,204.3882 724.1304,204.5251 Q723.7383,204.6621 723.4053,204.979 Q723.0884,205.2852 722.8923,205.79 Q722.6963,206.2949 722.6963,207.0146 Q722.6963,207.7666 722.9084,208.2715 Q723.1206,208.7764 723.4429,209.0664 Q723.7705,209.3618 724.1733,209.488 Q724.5762,209.6143 724.9683,209.6143 Q725.3442,209.6143 725.7122,209.5015 Q726.0801,209.3887 726.3916,209.1953 Q726.6548,209.0396 726.8804,208.8623 Q727.106,208.6851 727.251,208.5562 L727.4658,208.5562 L727.4658,210.4683 Q727.165,210.6025 726.8911,210.7207 Q726.6172,210.8389 726.3164,210.9248 Q725.9243,211.0376 725.5806,211.0967 Q725.2368,211.1558 724.6353,211.1558 Z "/><text fill="#000000" font-family="Verdana" font-size="11" lengthAdjust="spacingAndGlyphs" textLength="26" x="740.5" y="211.3748">WER</text><line style="stroke: #AAAAAA; stroke-width: 1.5;" x1="514.5" x2="967.5" y1="220" y2="220"/><ellipse cx="524.5" cy="247.9551" fill="#84BE84" rx="3" ry="3" style="stroke: #038048; stroke-width: 1.0;"/><text fill="#333333" font-family="sans-serif" font-size="11" lengthAdjust="spacingAndGlyphs" textLength="221" x="530.5" y="251.5898">__init__(mode=None, differ_class=None)</text><ellipse cx="524.5" cy="260.9102" fill="#84BE84" rx="3" ry="3" style="stroke: #038048; stroke-width: 1.0;"/><text fill="#333333" font-family="sans-serif" font-size="11" lengthAdjust="spacingAndGlyphs" textLength="432" x="530.5" y="264.5449">compare(ref: benchmarkstt.schema.Schema, hyp: benchmarkstt.schema.Schema)</text><line style="stroke: #AAAAAA; stroke-width: 1.0; stroke-dasharray: 1.0,2.0;" x1="514.5" x2="700.5" y1="234.4775" y2="234.4775"/><text fill="#333333" font-family="sans-serif" font-size="11" lengthAdjust="spacingAndGlyphs" textLength="81" x="700.5" y="238.1348">Public Methods</text><line style="stroke: #AAAAAA; stroke-width: 1.0; stroke-dasharray: 1.0,2.0;" x1="781.5" x2="967.5" y1="234.4775" y2="234.4775"/></a><!--MD5=[ef94872a4633e4f53c81dbb8c48f7a6f]
class benchmarkstt.metrics.core.WordDiffs--><a href="https://benchmarkstt.readthedocs.io/en/latest/modules/benchmarkstt.metrics.core.html#benchmarkstt.metrics.core.WordDiffs" target="_top" title="https://benchmarkstt.readthedocs.io/en/latest/modules/benchmarkstt.metrics.core.html#benchmarkstt.metrics.core.WordDiffs" xlink:actuate="onRequest" xlink:href="https://benchmarkstt.readthedocs.io/en/latest/modules/benchmarkstt.metrics.core.html#benchmarkstt.metrics.core.WordDiffs" xlink:show="new" xlink:title="https://benchmarkstt.readthedocs.io/en/latest/modules/benchmarkstt.metrics.core.html#benchmarkstt.metrics.core.WordDiffs" xlink:type="simple"><rect fill="#CCCCCC" filter="url(#f180f83r9bwxrb)" height="76.8652" id="benchmarkstt.metrics.core.WordDiffs" style="stroke: #AAAAAA; stroke-width: 1.5;" width="455" x="23.5" y="194"/><ellipse cx="220" cy="207" fill="#FF8800" rx="8" ry="8" style="stroke: #AAAAAA; stroke-width: 1.0;"/><path d="M220.1353,211.1558 Q219.2437,211.1558 218.489,210.8926 Q217.7344,210.6294 217.1919,210.1084 Q216.6494,209.5874 216.3513,208.8086 Q216.0532,208.0298 216.0532,207.0093 Q216.0532,206.0586 216.3379,205.2852 Q216.6226,204.5117 217.165,203.9585 Q217.686,203.4268 218.4568,203.1367 Q219.2275,202.8467 220.1406,202.8467 Q220.6455,202.8467 221.051,202.9031 Q221.4565,202.9595 221.8003,203.0508 Q222.1602,203.1528 222.4529,203.2791 Q222.7456,203.4053 222.9658,203.5127 L222.9658,205.4517 L222.7295,205.4517 Q222.5791,205.3228 222.3508,205.1455 Q222.1226,204.9683 221.8325,204.7964 Q221.5371,204.6245 221.1934,204.5063 Q220.8496,204.3882 220.4575,204.3882 Q220.0225,204.3882 219.6304,204.5251 Q219.2383,204.6621 218.9053,204.979 Q218.5884,205.2852 218.3923,205.79 Q218.1963,206.2949 218.1963,207.0146 Q218.1963,207.7666 218.4084,208.2715 Q218.6206,208.7764 218.9429,209.0664 Q219.2705,209.3618 219.6733,209.488 Q220.0762,209.6143 220.4683,209.6143 Q220.8442,209.6143 221.2122,209.5015 Q221.5801,209.3887 221.8916,209.1953 Q222.1548,209.0396 222.3804,208.8623 Q222.606,208.6851 222.751,208.5562 L222.9658,208.5562 L222.9658,210.4683 Q222.665,210.6025 222.3911,210.7207 Q222.1172,210.8389 221.8164,210.9248 Q221.4243,211.0376 221.0806,211.0967 Q220.7368,211.1558 220.1353,211.1558 Z "/><text fill="#000000" font-family="Verdana" font-size="11" lengthAdjust="spacingAndGlyphs" textLength="55" x="236" y="211.3748">WordDiffs</text><line style="stroke: #AAAAAA; stroke-width: 1.5;" x1="24.5" x2="477.5" y1="220" y2="220"/><ellipse cx="34.5" cy="247.9551" fill="#84BE84" rx="3" ry="3" style="stroke: #038048; stroke-width: 1.0;"/><text fill="#333333" font-family="sans-serif" font-size="11" lengthAdjust="spacingAndGlyphs" textLength="226" x="40.5" y="251.5898">__init__(dialect=None, differ_class=None)</text><ellipse cx="34.5" cy="260.9102" fill="#84BE84" rx="3" ry="3" style="stroke: #038048; stroke-width: 1.0;"/><text fill="#333333" font-family="sans-serif" font-size="11" lengthAdjust="spacingAndGlyphs" textLength="432" x="40.5" y="264.5449">compare(ref: benchmarkstt.schema.Schema, hyp: benchmarkstt.schema.Schema)</text><line style="stroke: #AAAAAA; stroke-width: 1.0; stroke-dasharray: 1.0,2.0;" x1="24.5" x2="210.5" y1="234.4775" y2="234.4775"/><text fill="#333333" font-family="sans-serif" font-size="11" lengthAdjust="spacingAndGlyphs" textLength="81" x="210.5" y="238.1348">Public Methods</text><line style="stroke: #AAAAAA; stroke-width: 1.0; stroke-dasharray: 1.0,2.0;" x1="291.5" x2="477.5" y1="234.4775" y2="234.4775"/></a><!--MD5=[0e20ec8c1c3e6f52fb3eaed392cf3205]
reverse link benchmarkstt.metrics.Base to benchmarkstt.metrics.core.DiffCounts--><path d="M988.55,98.9 C1056.41,108.26 1129.56,120.96 1196,138 C1250.9,152.08 1310.35,174.58 1356.94,193.98 " fill="none" id="benchmarkstt.metrics.Base&lt;-benchmarkstt.metrics.core.DiffCounts" style="stroke: #000000; stroke-width: 1.0;"/><polygon fill="none" points="987.51,105.83,968.62,96.23,989.37,91.95,987.51,105.83" style="stroke: #000000; stroke-width: 1.0;"/><!--MD5=[30299ce62ca518511ed25a5a2ec7aa2b]
reverse link benchmarkstt.metrics.Base to benchmarkstt.metrics.core.WER--><path d="M741,126.53 C741,148.52 741,173.72 741,193.91 " fill="none" id="benchmarkstt.metrics.Base&lt;-benchmarkstt.metrics.core.WER" style="stroke: #000000; stroke-width: 1.0;"/><polygon fill="none" points="734,126.29,741,106.29,748,126.29,734,126.29" style="stroke: #000000; stroke-width: 1.0;"/><!--MD5=[4985c6bdcdda9aa3aac1b42ffb8ef9ca]
reverse link benchmarkstt.metrics.Base to benchmarkstt.metrics.core.WordDiffs--><path d="M589.29,111.16 C558.24,119.36 525.92,128.48 496,138 C444.37,154.43 387.81,175.79 342.04,193.94 " fill="none" id="benchmarkstt.metrics.Base&lt;-benchmarkstt.metrics.core.WordDiffs" style="stroke: #000000; stroke-width: 1.0;"/><polygon fill="none" points="587.82,104.31,608.94,106.05,591.35,117.86,587.82,104.31" style="stroke: #000000; stroke-width: 1.0;"/><!--MD5=[a2c03acd2cedb3d53b3e5d273de9b58d]
@startuml

skinparam packageStyle Frame
!define LIGHTORANGE
!includeurl https://raw.githubusercontent.com/Drakemor/RedDress-PlantUML/master/style.puml
package benchmarkstt.metrics [[https://benchmarkstt.readthedocs.io/en/latest/modules/benchmarkstt.metrics.html#]] {

	class benchmarkstt.metrics.Base   [[https://benchmarkstt.readthedocs.io/en/latest/modules/benchmarkstt.metrics.html#benchmarkstt.metrics.Base]] {
		.. Public Methods ..
		+compare(ref: benchmarkstt.schema.Schema, hyp: benchmarkstt.schema.Schema)
	}
}

package benchmarkstt.metrics.core [[https://benchmarkstt.readthedocs.io/en/latest/modules/benchmarkstt.metrics.core.html#]] {

	class benchmarkstt.metrics.core.DiffCounts   [[https://benchmarkstt.readthedocs.io/en/latest/modules/benchmarkstt.metrics.core.html#benchmarkstt.metrics.core.DiffCounts]] extends benchmarkstt.metrics.Base {
		.. Public Methods ..
		+__init__(differ_class=None)
		+compare(ref: benchmarkstt.schema.Schema, hyp: benchmarkstt.schema.Schema)
	}

	class benchmarkstt.metrics.core.OpcodeCounts<namedtuple> << (T, yellow) >> [[https://benchmarkstt.readthedocs.io/en/latest/modules/benchmarkstt.metrics.core.html#benchmarkstt.metrics.core.OpcodeCounts]] {
		.. Fields ..
		+equal
		+replace
		+insert
		+delete
	}

	class benchmarkstt.metrics.core.WER   [[https://benchmarkstt.readthedocs.io/en/latest/modules/benchmarkstt.metrics.core.html#benchmarkstt.metrics.core.WER]] extends benchmarkstt.metrics.Base {
		.. Public Methods ..
		+__init__(mode=None, differ_class=None)
		+compare(ref: benchmarkstt.schema.Schema, hyp: benchmarkstt.schema.Schema)
	}

	class benchmarkstt.metrics.core.WordDiffs   [[https://benchmarkstt.readthedocs.io/en/latest/modules/benchmarkstt.metrics.core.html#benchmarkstt.metrics.core.WordDiffs]] extends benchmarkstt.metrics.Base {
		.. Public Methods ..
		+__init__(dialect=None, differ_class=None)
		+compare(ref: benchmarkstt.schema.Schema, hyp: benchmarkstt.schema.Schema)
	}
}




@enduml

@startuml

skinparam packageStyle Frame










skinparam stereotypeCBackgroundColor FF8800

skinparam backgroundColor fff








skinparam circledCharacter {
  radius 8
  fontSize 11
  fontName Verdana
}

skinparam class {
    backgroundColor ccc
  borderColor aaa
    fontColor 000
  fontName Verdana
  fontSize 11
  stereotypeFontColor 333
  stereotypeFontSize 11
    arrowColor 000
  arrowFontName Verdana
  arrowFontColor 333
  arrowFontSize 11

  attributeFontColor 333
  attributeFontSize 11
  attributeIconSize 11
}


skinparam actor {
    backgroundColor FF8800
  borderColor BB6600
    fontColor 000
  fontName Verdana
  fontSize 11
  stereotypeFontColor 333
  stereotypeFontSize 11
}

skinparam participant {
    backgroundColor ccc
  borderColor aaa
    fontColor 000
  fontName Verdana
  fontSize 11
  stereotypeFontColor 333
  stereotypeFontSize 11
}

skinparam collections {
    backgroundColor ccc
  borderColor aaa
    fontColor 000
  fontName Verdana
  fontSize 11
  stereotypeFontColor 333
  stereotypeFontSize 11
}

skinparam SequenceBox{
    backgroundColor e0e0e0
  borderColor cccccc
    fontColor 000
  fontName Verdana
  fontSize 11
  stereotypeFontColor 333
  stereotypeFontSize 11
}


skinparam interface {
    backgroundColor FF8800
  borderColor BB6600
    fontColor 000
  fontName Verdana
  fontSize 11
  stereotypeFontColor 333
  stereotypeFontSize 11
}

skinparam component {
    backgroundColor ccc
  borderColor aaa
    fontColor 000
  fontName Verdana
  fontSize 11
  stereotypeFontColor 333
  stereotypeFontSize 11
}

skinparam node {
    backgroundColor ccc
  borderColor aaa
    fontColor 000
  fontName Verdana
  fontSize 11
  stereotypeFontColor 333
  stereotypeFontSize 11
}

skinparam database {
    backgroundColor ccc
  borderColor aaa
    fontColor 000
  fontName Verdana
  fontSize 11
  stereotypeFontColor 333
  stereotypeFontSize 11
}

skinparam queue {
    backgroundColor ccc
  borderColor aaa
    fontColor 000
  fontName Verdana
  fontSize 11
  stereotypeFontColor 333
  stereotypeFontSize 11
}


skinparam usecase {
    backgroundColor ccc
  borderColor aaa
    fontColor 000
  fontName Verdana
  fontSize 11
  stereotypeFontColor 333
  stereotypeFontSize 11
    arrowColor 000
  arrowFontName Verdana
  arrowFontColor 333
  arrowFontSize 11
}

skinparam activity {
    backgroundColor ccc
  borderColor aaa
    fontColor 000
  fontName Verdana
  fontSize 11
  stereotypeFontColor 333
  stereotypeFontSize 11
    arrowColor 000
  arrowFontName Verdana
  arrowFontColor 333
  arrowFontSize 11
}

skinparam sequence {
    fontColor 000
  fontName Verdana
  fontSize 11
  stereotypeFontColor 333
  stereotypeFontSize 11
    arrowColor 000
  arrowFontName Verdana
  arrowFontColor 333
  arrowFontSize 11

  lifeLineBorderColor FF8800
  lifeLineBackgroundColor e0e0e0
}

skinparam boundary {
    backgroundColor FF8800
  borderColor BB6600
    fontColor 000
  fontName Verdana
  fontSize 11
  stereotypeFontColor 333
  stereotypeFontSize 11
}

skinparam control {
    backgroundColor FF8800
  borderColor BB6600
    fontColor 000
  fontName Verdana
  fontSize 11
  stereotypeFontColor 333
  stereotypeFontSize 11
}

skinparam entity {
    backgroundColor FF8800
  borderColor BB6600
    fontColor 000
  fontName Verdana
  fontSize 11
  stereotypeFontColor 333
  stereotypeFontSize 11
}


skinparam state {
    backgroundColor ccc
  borderColor aaa
    fontColor 000
  fontName Verdana
  fontSize 11
  stereotypeFontColor 333
  stereotypeFontSize 11
    arrowColor 000
  arrowFontName Verdana
  arrowFontColor 333
  arrowFontSize 11
  startColor FF8800
  endColor BB6600
}


skinparam object {
    backgroundColor ccc
  borderColor aaa
    fontColor 000
  fontName Verdana
  fontSize 11
  stereotypeFontColor 333
  stereotypeFontSize 11
    arrowColor 000
  arrowFontName Verdana
  arrowFontColor 333
  arrowFontSize 11
}


skinparam note {
    backgroundColor FF8800
  borderColor BB6600
    fontColor 000
  fontName Verdana
  fontSize 11
  stereotypeFontColor 333
  stereotypeFontSize 11
}

skinparam cloud {
    backgroundColor ccc
  borderColor aaa
    fontColor 000
  fontName Verdana
  fontSize 11
  stereotypeFontColor 333
  stereotypeFontSize 11
    arrowColor 000
  arrowFontName Verdana
  arrowFontColor 333
  arrowFontSize 11
}

skinparam rectangle {
    backgroundColor ccc
  borderColor aaa
    fontColor 000
  fontName Verdana
  fontSize 11
  stereotypeFontColor 333
  stereotypeFontSize 11
}

skinparam storage {
    backgroundColor ccc
  borderColor aaa
    fontColor 000
  fontName Verdana
  fontSize 11
  stereotypeFontColor 333
  stereotypeFontSize 11
}

package benchmarkstt.metrics [[https://benchmarkstt.readthedocs.io/en/latest/modules/benchmarkstt.metrics.html#]] {

	class benchmarkstt.metrics.Base   [[https://benchmarkstt.readthedocs.io/en/latest/modules/benchmarkstt.metrics.html#benchmarkstt.metrics.Base]] {
		.. Public Methods ..
		+compare(ref: benchmarkstt.schema.Schema, hyp: benchmarkstt.schema.Schema)
	}
}

package benchmarkstt.metrics.core [[https://benchmarkstt.readthedocs.io/en/latest/modules/benchmarkstt.metrics.core.html#]] {

	class benchmarkstt.metrics.core.DiffCounts   [[https://benchmarkstt.readthedocs.io/en/latest/modules/benchmarkstt.metrics.core.html#benchmarkstt.metrics.core.DiffCounts]] extends benchmarkstt.metrics.Base {
		.. Public Methods ..
		+__init__(differ_class=None)
		+compare(ref: benchmarkstt.schema.Schema, hyp: benchmarkstt.schema.Schema)
	}

	class benchmarkstt.metrics.core.OpcodeCounts<namedtuple> << (T, yellow) >> [[https://benchmarkstt.readthedocs.io/en/latest/modules/benchmarkstt.metrics.core.html#benchmarkstt.metrics.core.OpcodeCounts]] {
		.. Fields ..
		+equal
		+replace
		+insert
		+delete
	}

	class benchmarkstt.metrics.core.WER   [[https://benchmarkstt.readthedocs.io/en/latest/modules/benchmarkstt.metrics.core.html#benchmarkstt.metrics.core.WER]] extends benchmarkstt.metrics.Base {
		.. Public Methods ..
		+__init__(mode=None, differ_class=None)
		+compare(ref: benchmarkstt.schema.Schema, hyp: benchmarkstt.schema.Schema)
	}

	class benchmarkstt.metrics.core.WordDiffs   [[https://benchmarkstt.readthedocs.io/en/latest/modules/benchmarkstt.metrics.core.html#benchmarkstt.metrics.core.WordDiffs]] extends benchmarkstt.metrics.Base {
		.. Public Methods ..
		+__init__(dialect=None, differ_class=None)
		+compare(ref: benchmarkstt.schema.Schema, hyp: benchmarkstt.schema.Schema)
	}
}




@enduml

PlantUML version 1.2020.15(Sun Jun 28 11:39:45 UTC 2020)
(GPL source distribution)
Java Runtime: OpenJDK Runtime Environment
JVM: OpenJDK 64-Bit Server VM
Default Encoding: UTF-8
Language: en
Country: BE
--></g></svg>