<?xml version="1.0" encoding="UTF-8" standalone="no"?><svg xmlns="http://www.w3.org/2000/svg" xmlns:xlink="http://www.w3.org/1999/xlink" contentScriptType="application/ecmascript" contentStyleType="text/css" height="309px" preserveAspectRatio="none" style="width:751px;height:309px;" version="1.1" viewBox="0 0 751 309" width="751px" zoomAndPan="magnify"><defs><filter height="300%" id="fqc8asi73db9s" width="300%" x="-1" y="-1"><feGaussianBlur result="blurOut" stdDeviation="2.0"/><feColorMatrix in="blurOut" result="blurOut2" type="matrix" values="0 0 0 0 0 0 0 0 0 0 0 0 0 0 0 0 0 0 .4 0"/><feOffset dx="4.0" dy="4.0" in="blurOut2" result="blurOut3"/><feBlend in="SourceGraphic" in2="blurOut3" mode="normal"/></filter></defs><g><text fill="#000000" font-family="Helvetica" font-size="18" lengthAdjust="spacingAndGlyphs" textLength="137" x="298.25" y="13.8604">benchmarkstt.api</text><!--MD5=[be3e0801209626b11d7e8a88e82d4cf3]
cluster benchmarkstt.api.jsonrpc--><rect fill="#FFFFFF" filter="url(#fqc8asi73db9s)" height="267" style="stroke: #000000; stroke-width: 1.5;" width="329" x="7" y="25"/><path d="M192,26 L192,32 L182,42 L7,42 " fill="none" style="stroke: #000000; stroke-width: 1.5;"/><text fill="#000000" font-family="Helvetica" font-size="14" font-weight="bold" lengthAdjust="spacingAndGlyphs" textLength="175" x="10" y="36.7803">benchmarkstt.api.jsonrpc</text><rect fill="#FFFFFF" filter="url(#fqc8asi73db9s)" height="48" style="stroke: #000000; stroke-width: 1.5;" width="139" x="355.5" y="89"/><path d="M484.5,90 L484.5,96 L474.5,106 L355.5,106 " fill="none" style="stroke: #000000; stroke-width: 1.5;"/><text fill="#000000" font-family="Helvetica" font-size="14" font-weight="bold" lengthAdjust="spacingAndGlyphs" textLength="119" x="358.5" y="100.7803">benchmarkstt.api</text><!--MD5=[a3634c026b9e43f971e19b80aea52223]
class benchmarkstt.api.jsonrpc.DefaultMethods--><a href="https://benchmarkstt.readthedocs.io/en/latest/modules/benchmarkstt.api.jsonrpc.html#benchmarkstt.api.jsonrpc.DefaultMethods" target="_top" title="https://benchmarkstt.readthedocs.io/en/latest/modules/benchmarkstt.api.jsonrpc.html#benchmarkstt.api.jsonrpc.DefaultMethods" xlink:actuate="onRequest" xlink:href="https://benchmarkstt.readthedocs.io/en/latest/modules/benchmarkstt.api.jsonrpc.html#benchmarkstt.api.jsonrpc.DefaultMethods" xlink:show="new" xlink:title="https://benchmarkstt.readthedocs.io/en/latest/modules/benchmarkstt.api.jsonrpc.html#benchmarkstt.api.jsonrpc.DefaultMethods" xlink:type="simple"><rect fill="#FFFFFF" filter="url(#fqc8asi73db9s)" height="77" id="benchmarkstt.api.jsonrpc.DefaultMethods" style="stroke: #000000; stroke-width: 1.0;" width="118" x="23" y="74.5"/><ellipse cx="38" cy="90.5" fill="#C2C2C2" rx="11" ry="11" style="stroke: #000000; stroke-width: 1.0;"/><path d="M40.4731,96.6431 Q39.8921,96.9419 39.2529,97.0913 Q38.6138,97.2407 37.9082,97.2407 Q35.4014,97.2407 34.0815,95.5889 Q32.7617,93.937 32.7617,90.8159 Q32.7617,87.6865 34.0815,86.0347 Q35.4014,84.3828 37.9082,84.3828 Q38.6138,84.3828 39.2612,84.5322 Q39.9087,84.6816 40.4731,84.9805 L40.4731,87.7031 Q39.8423,87.1221 39.2488,86.8523 Q38.6553,86.5825 38.0244,86.5825 Q36.6797,86.5825 35.9949,87.6492 Q35.3101,88.7158 35.3101,90.8159 Q35.3101,92.9077 35.9949,93.9744 Q36.6797,95.041 38.0244,95.041 Q38.6553,95.041 39.2488,94.7712 Q39.8423,94.5015 40.4731,93.9204 Z "/><text fill="#000000" font-family="Helvetica" font-size="12" lengthAdjust="spacingAndGlyphs" textLength="86" x="52" y="93.7402">DefaultMethods</text><line style="stroke: #000000; stroke-width: 1.5;" x1="24" x2="140" y1="106.5" y2="106.5"/><ellipse cx="34" cy="132.5" fill="#A6A6A6" rx="3" ry="3" style="stroke: #545454; stroke-width: 1.0;"/><text fill="#000000" font-family="Helvetica" font-size="11" lengthAdjust="spacingAndGlyphs" textLength="70" x="43" y="133.9702">help(methods)</text><ellipse cx="34" cy="143.5" fill="#A6A6A6" rx="3" ry="3" style="stroke: #545454; stroke-width: 1.0;"/><text fill="#000000" font-family="Helvetica" font-size="11" lengthAdjust="spacingAndGlyphs" textLength="44" x="43" y="144.9702">version()</text><line style="stroke: #000000; stroke-width: 1.0; stroke-dasharray: 1.0,2.0;" x1="24" x2="45" y1="120" y2="120"/><text fill="#000000" font-family="Helvetica" font-size="11" lengthAdjust="spacingAndGlyphs" textLength="74" x="45" y="122.4702">Public Methods</text><line style="stroke: #000000; stroke-width: 1.0; stroke-dasharray: 1.0,2.0;" x1="119" x2="140" y1="120" y2="120"/></a><!--MD5=[c8bb7040efe1fd7c5e6494e44dd85687]
class benchmarkstt.api.jsonrpc.MagicMethods--><a href="https://benchmarkstt.readthedocs.io/en/latest/modules/benchmarkstt.api.jsonrpc.html#benchmarkstt.api.jsonrpc.MagicMethods" target="_top" title="https://benchmarkstt.readthedocs.io/en/latest/modules/benchmarkstt.api.jsonrpc.html#benchmarkstt.api.jsonrpc.MagicMethods" xlink:actuate="onRequest" xlink:href="https://benchmarkstt.readthedocs.io/en/latest/modules/benchmarkstt.api.jsonrpc.html#benchmarkstt.api.jsonrpc.MagicMethods" xlink:show="new" xlink:title="https://benchmarkstt.readthedocs.io/en/latest/modules/benchmarkstt.api.jsonrpc.html#benchmarkstt.api.jsonrpc.MagicMethods" xlink:type="simple"><rect fill="#FFFFFF" filter="url(#fqc8asi73db9s)" height="110" id="benchmarkstt.api.jsonrpc.MagicMethods" style="stroke: #000000; stroke-width: 1.0;" width="144" x="176" y="58"/><ellipse cx="205.4" cy="74" fill="#C2C2C2" rx="11" ry="11" style="stroke: #000000; stroke-width: 1.0;"/><path d="M207.8731,80.1431 Q207.2921,80.4419 206.6529,80.5913 Q206.0138,80.7407 205.3082,80.7407 Q202.8014,80.7407 201.4815,79.0889 Q200.1617,77.437 200.1617,74.3159 Q200.1617,71.1865 201.4815,69.5347 Q202.8014,67.8828 205.3082,67.8828 Q206.0138,67.8828 206.6612,68.0322 Q207.3087,68.1816 207.8731,68.4805 L207.8731,71.2031 Q207.2423,70.6221 206.6488,70.3523 Q206.0553,70.0825 205.4244,70.0825 Q204.0797,70.0825 203.3949,71.1492 Q202.7101,72.2158 202.7101,74.3159 Q202.7101,76.4077 203.3949,77.4744 Q204.0797,78.541 205.4244,78.541 Q206.0553,78.541 206.6488,78.2712 Q207.2423,78.0015 207.8731,77.4204 Z "/><text fill="#000000" font-family="Helvetica" font-size="12" lengthAdjust="spacingAndGlyphs" textLength="80" x="222.6" y="77.2402">MagicMethods</text><line style="stroke: #000000; stroke-width: 1.5;" x1="177" x2="319" y1="90" y2="90"/><ellipse cx="187" cy="116" fill="#A6A6A6" rx="3" ry="3" style="stroke: #545454; stroke-width: 1.0;"/><text fill="#000000" font-family="Helvetica" font-size="11" lengthAdjust="spacingAndGlyphs" textLength="45" x="196" y="117.4702">__init__()</text><ellipse cx="187" cy="127" fill="#A6A6A6" rx="3" ry="3" style="stroke: #545454; stroke-width: 1.0;"/><text fill="#000000" font-family="Helvetica" font-size="11" lengthAdjust="spacingAndGlyphs" textLength="91" x="196" y="128.4702">is_safe_path(path)</text><ellipse cx="187" cy="138" fill="#A6A6A6" rx="3" ry="3" style="stroke: #545454; stroke-width: 1.0;"/><text fill="#000000" font-family="Helvetica" font-size="11" lengthAdjust="spacingAndGlyphs" textLength="96" x="196" y="139.4702">load(name, module)</text><ellipse cx="187" cy="149" fill="#A6A6A6" rx="3" ry="3" style="stroke: #545454; stroke-width: 1.0;"/><text fill="#000000" font-family="Helvetica" font-size="11" lengthAdjust="spacingAndGlyphs" textLength="118" x="196" y="150.4702">register(name, callback)</text><ellipse cx="187" cy="160" fill="#A6A6A6" rx="3" ry="3" style="stroke: #545454; stroke-width: 1.0;"/><text fill="#000000" font-family="Helvetica" font-size="11" lengthAdjust="spacingAndGlyphs" textLength="111" x="196" y="161.4702">serve(config, callback)</text><line style="stroke: #000000; stroke-width: 1.0; stroke-dasharray: 1.0,2.0;" x1="177" x2="211" y1="103.5" y2="103.5"/><text fill="#000000" font-family="Helvetica" font-size="11" lengthAdjust="spacingAndGlyphs" textLength="74" x="211" y="105.9702">Public Methods</text><line style="stroke: #000000; stroke-width: 1.0; stroke-dasharray: 1.0,2.0;" x1="285" x2="319" y1="103.5" y2="103.5"/></a><!--MD5=[6470523c0351eec356b65f21af912d4f]
class benchmarkstt.api.jsonrpc.SecurityError--><a href="https://benchmarkstt.readthedocs.io/en/latest/modules/benchmarkstt.api.jsonrpc.html#benchmarkstt.api.jsonrpc.SecurityError" target="_top" title="https://benchmarkstt.readthedocs.io/en/latest/modules/benchmarkstt.api.jsonrpc.html#benchmarkstt.api.jsonrpc.SecurityError" xlink:actuate="onRequest" xlink:href="https://benchmarkstt.readthedocs.io/en/latest/modules/benchmarkstt.api.jsonrpc.html#benchmarkstt.api.jsonrpc.SecurityError" xlink:show="new" xlink:title="https://benchmarkstt.readthedocs.io/en/latest/modules/benchmarkstt.api.jsonrpc.html#benchmarkstt.api.jsonrpc.SecurityError" xlink:type="simple"><rect fill="#FFFFFF" filter="url(#fqc8asi73db9s)" height="48" id="benchmarkstt.api.jsonrpc.SecurityError" style="stroke: #000000; stroke-width: 1.0;" width="103" x="30.5" y="228"/><ellipse cx="45.5" cy="244" fill="#C2C2C2" rx="11" ry="11" style="stroke: #000000; stroke-width: 1.0;"/><path d="M47.9731,250.1431 Q47.3921,250.4419 46.7529,250.5913 Q46.1138,250.7407 45.4082,250.7407 Q42.9014,250.7407 41.5815,249.0889 Q40.2617,247.437 40.2617,244.3159 Q40.2617,241.1865 41.5815,239.5347 Q42.9014,237.8828 45.4082,237.8828 Q46.1138,237.8828 46.7612,238.0322 Q47.4087,238.1816 47.9731,238.4805 L47.9731,241.2031 Q47.3423,240.6221 46.7488,240.3523 Q46.1553,240.0825 45.5244,240.0825 Q44.1797,240.0825 43.4949,241.1492 Q42.8101,242.2158 42.8101,244.3159 Q42.8101,246.4077 43.4949,247.4744 Q44.1797,248.541 45.5244,248.541 Q46.1553,248.541 46.7488,248.2712 Q47.3423,248.0015 47.9731,247.4204 Z "/><text fill="#000000" font-family="Helvetica" font-size="12" lengthAdjust="spacingAndGlyphs" textLength="71" x="59.5" y="247.2402">SecurityError</text><line style="stroke: #000000; stroke-width: 1.0;" x1="31.5" x2="132.5" y1="260" y2="260"/><line style="stroke: #000000; stroke-width: 1.0;" x1="31.5" x2="132.5" y1="268" y2="268"/></a><rect fill="#FFFFFF" filter="url(#fqc8asi73db9s)" height="48" style="stroke: #000000; stroke-width: 1.5;" width="205" x="529.5" y="89"/><path d="M724.5,90 L724.5,96 L714.5,106 L529.5,106 " fill="none" style="stroke: #000000; stroke-width: 1.5;"/><text fill="#000000" font-family="Helvetica" font-size="14" font-weight="bold" lengthAdjust="spacingAndGlyphs" textLength="185" x="532.5" y="100.7803">benchmarkstt.api.gunicorn</text><!--MD5=[38210c2b313ae7f3f7264e3dc5bb59b6]
link benchmarkstt.api.jsonrpc.DefaultMethods to benchmarkstt.api.jsonrpc.MagicMethods--><!--MD5=[538cb41533b0550692009be83806011f]
link benchmarkstt.api.jsonrpc.DefaultMethods to benchmarkstt.api.jsonrpc.SecurityError--><!--MD5=[9bf490da677dff158f8a4a31a22b1306]
@startuml

title benchmarkstt.api

skinparam packageStyle Frame
!includeurl https://raw.githubusercontent.com/matthewjosephtaylor/plantuml-style/master/style.pu
package benchmarkstt.api {
}

package benchmarkstt.api {
}

package benchmarkstt.api.jsonrpc {

	class benchmarkstt.api.jsonrpc.DefaultMethods [[https://benchmarkstt.readthedocs.io/en/latest/modules/benchmarkstt.api.jsonrpc.html#benchmarkstt.api.jsonrpc.DefaultMethods]] {
		.. Public Methods ..
		+help(methods)
		+version()
	}


	class benchmarkstt.api.jsonrpc.MagicMethods [[https://benchmarkstt.readthedocs.io/en/latest/modules/benchmarkstt.api.jsonrpc.html#benchmarkstt.api.jsonrpc.MagicMethods]] {
		.. Public Methods ..
		+__init__()
		+is_safe_path(path)
		+load(name, module)
		+register(name, callback)
		+serve(config, callback)
	}




	class benchmarkstt.api.jsonrpc.SecurityError [[https://benchmarkstt.readthedocs.io/en/latest/modules/benchmarkstt.api.jsonrpc.html#benchmarkstt.api.jsonrpc.SecurityError]] {
	}


}

package benchmarkstt.api.gunicorn {
}




@enduml

@startuml

title benchmarkstt.api

skinparam packageStyle Frame

skinparam defaultFontName  Helvetica
skinparam sequenceMessageAlign center
skinparam monochrome true

skinparam activity {
	ArrowColor Black
	BackgroundColor White
	BorderColor Black
	BorderThickness 1
}

skinparam actor {
	BackgroundColor White
	BorderColor Black
}

skinparam usecase {
	ArrowColor Black
	BackgroundColor White
	BorderColor Black
	BorderThickness 1
}

skinparam class {
	ArrowColor Black
	BackgroundColor White
	BorderColor Black
	BorderThickness 1
}


skinparam object {
	ArrowColor Black
	BackgroundColor White
	BorderColor Black
}

skinparam package {
	BackgroundColor White
	BorderColor Black
}


skinparam component {
	BackgroundColor White
	InterfaceBackgroundColor White
	BorderColor Black
	InterfaceBorderColor Black
}

skinparam note {
	BackgroundColor White
	BorderColor Black
}

skinparam state {
	ArrowColor Black
	BackgroundColor White
	BorderColor Black
}

skinparam sequence {
	ArrowColor Black
	BackgroundColor White
	ParticipantBackgroundColor White
	BorderColor Black
	LifeLineBorderColor Black
	ParticipantBorderColor Black
	BoxLineColor Black
}

skinparam interface {
	BackgroundColor White
	BorderColor Black
}
package benchmarkstt.api {
}

package benchmarkstt.api {
}

package benchmarkstt.api.jsonrpc {

	class benchmarkstt.api.jsonrpc.DefaultMethods [[https://benchmarkstt.readthedocs.io/en/latest/modules/benchmarkstt.api.jsonrpc.html#benchmarkstt.api.jsonrpc.DefaultMethods]] {
		.. Public Methods ..
		+help(methods)
		+version()
	}


	class benchmarkstt.api.jsonrpc.MagicMethods [[https://benchmarkstt.readthedocs.io/en/latest/modules/benchmarkstt.api.jsonrpc.html#benchmarkstt.api.jsonrpc.MagicMethods]] {
		.. Public Methods ..
		+__init__()
		+is_safe_path(path)
		+load(name, module)
		+register(name, callback)
		+serve(config, callback)
	}




	class benchmarkstt.api.jsonrpc.SecurityError [[https://benchmarkstt.readthedocs.io/en/latest/modules/benchmarkstt.api.jsonrpc.html#benchmarkstt.api.jsonrpc.SecurityError]] {
	}


}

package benchmarkstt.api.gunicorn {
}




@enduml

PlantUML version 1.2020.15(Sun Jun 28 13:39:45 CEST 2020)
(GPL source distribution)
Java Runtime: OpenJDK Runtime Environment
JVM: OpenJDK 64-Bit Server VM
Default Encoding: UTF-8
Language: en
Country: BE
--></g></svg>