<?xml version="1.0" encoding="UTF-8" standalone="no"?><svg xmlns="http://www.w3.org/2000/svg" xmlns:xlink="http://www.w3.org/1999/xlink" contentScriptType="application/ecmascript" contentStyleType="text/css" height="489px" preserveAspectRatio="none" style="width:543px;height:489px;" version="1.1" viewBox="0 0 543 489" width="543px" zoomAndPan="magnify"><defs><filter height="300%" id="f1lzccqfrlip55" width="300%" x="-1" y="-1"><feGaussianBlur result="blurOut" stdDeviation="2.0"/><feColorMatrix in="blurOut" result="blurOut2" type="matrix" values="0 0 0 0 0 0 0 0 0 0 0 0 0 0 0 0 0 0 .4 0"/><feOffset dx="4.0" dy="4.0" in="blurOut2" result="blurOut3"/><feBlend in="SourceGraphic" in2="blurOut3" mode="normal"/></filter></defs><g><text fill="#000000" font-family="Helvetica" font-size="18" lengthAdjust="spacingAndGlyphs" textLength="163" x="181" y="13.8604">benchmarkstt.output</text><!--MD5=[c2f5f1914e6a0fca7cbdb2b44310c20b]
cluster benchmarkstt.output--><rect fill="#FFFFFF" filter="url(#f1lzccqfrlip55)" height="130" style="stroke: #000000; stroke-width: 1.5;" width="258" x="137" y="25"/><path d="M291,26 L291,32 L281,42 L137,42 " fill="none" style="stroke: #000000; stroke-width: 1.5;"/><text fill="#000000" font-family="Helvetica" font-size="14" font-weight="bold" lengthAdjust="spacingAndGlyphs" textLength="144" x="140" y="36.7803">benchmarkstt.output</text><!--MD5=[847d3ee6f8e67faab7de214c96ed8267]
cluster benchmarkstt.output.core--><rect fill="#FFFFFF" filter="url(#f1lzccqfrlip55)" height="293" style="stroke: #000000; stroke-width: 1.5;" width="519" x="7" y="179"/><path d="M195,180 L195,186 L185,196 L7,196 " fill="none" style="stroke: #000000; stroke-width: 1.5;"/><text fill="#000000" font-family="Helvetica" font-size="14" font-weight="bold" lengthAdjust="spacingAndGlyphs" textLength="178" x="10" y="190.7803">benchmarkstt.output.core</text><!--MD5=[6bad0332cb50a567e063560f49fe1b05]
class benchmarkstt.output.Base--><a href="https://benchmarkstt.readthedocs.io/en/latest/modules/benchmarkstt.output.html#benchmarkstt.output.Base" target="_top" title="https://benchmarkstt.readthedocs.io/en/latest/modules/benchmarkstt.output.html#benchmarkstt.output.Base" xlink:actuate="onRequest" xlink:href="https://benchmarkstt.readthedocs.io/en/latest/modules/benchmarkstt.output.html#benchmarkstt.output.Base" xlink:show="new" xlink:title="https://benchmarkstt.readthedocs.io/en/latest/modules/benchmarkstt.output.html#benchmarkstt.output.Base" xlink:type="simple"><rect fill="#FFFFFF" filter="url(#f1lzccqfrlip55)" height="81" id="benchmarkstt.output.Base" style="stroke: #000000; stroke-width: 1.0;" width="226" x="153" y="58"/><ellipse cx="247.75" cy="74" fill="#C2C2C2" rx="11" ry="11" style="stroke: #000000; stroke-width: 1.0;"/><path d="M250.2231,80.1431 Q249.6421,80.4419 249.0029,80.5913 Q248.3638,80.7407 247.6582,80.7407 Q245.1514,80.7407 243.8315,79.0889 Q242.5117,77.437 242.5117,74.3159 Q242.5117,71.1865 243.8315,69.5347 Q245.1514,67.8828 247.6582,67.8828 Q248.3638,67.8828 249.0112,68.0322 Q249.6587,68.1816 250.2231,68.4805 L250.2231,71.2031 Q249.5923,70.6221 248.9988,70.3523 Q248.4053,70.0825 247.7744,70.0825 Q246.4297,70.0825 245.7449,71.1492 Q245.0601,72.2158 245.0601,74.3159 Q245.0601,76.4077 245.7449,77.4744 Q246.4297,78.541 247.7744,78.541 Q248.4053,78.541 248.9988,78.2712 Q249.5923,78.0015 250.2231,77.4204 Z "/><text fill="#000000" font-family="Helvetica" font-size="12" lengthAdjust="spacingAndGlyphs" textLength="28" x="268.25" y="77.2402">Base</text><line style="stroke: #000000; stroke-width: 1.0;" x1="154" x2="378" y1="90" y2="90"/><line style="stroke: #000000; stroke-width: 1.0;" x1="154" x2="378" y1="98" y2="98"/><ellipse cx="164" cy="109" fill="#A6A6A6" rx="3" ry="3" style="stroke: #545454; stroke-width: 1.0;"/><text fill="#000000" font-family="Helvetica" font-size="11" lengthAdjust="spacingAndGlyphs" textLength="74" x="173" y="110.4702">__enter__(self)</text><ellipse cx="164" cy="120" fill="#A6A6A6" rx="3" ry="3" style="stroke: #545454; stroke-width: 1.0;"/><text fill="#000000" font-family="Helvetica" font-size="11" lengthAdjust="spacingAndGlyphs" textLength="200" x="173" y="121.4702">__exit__(self, exc_type, exc_val, exc_tb)</text><ellipse cx="164" cy="131" fill="#A6A6A6" rx="3" ry="3" style="stroke: #545454; stroke-width: 1.0;"/><text fill="#000000" font-family="Helvetica" font-size="11" lengthAdjust="spacingAndGlyphs" textLength="107" x="173" y="132.4702">result(self, title, result)</text></a><!--MD5=[f736c00f8e3d82ae904e3d345ee15690]
class benchmarkstt.output.core.Json--><a href="https://benchmarkstt.readthedocs.io/en/latest/modules/benchmarkstt.output.core.html#benchmarkstt.output.core.Json" target="_top" title="https://benchmarkstt.readthedocs.io/en/latest/modules/benchmarkstt.output.core.html#benchmarkstt.output.core.Json" xlink:actuate="onRequest" xlink:href="https://benchmarkstt.readthedocs.io/en/latest/modules/benchmarkstt.output.core.html#benchmarkstt.output.core.Json" xlink:show="new" xlink:title="https://benchmarkstt.readthedocs.io/en/latest/modules/benchmarkstt.output.core.html#benchmarkstt.output.core.Json" xlink:type="simple"><rect fill="#FFFFFF" filter="url(#f1lzccqfrlip55)" height="92" id="benchmarkstt.output.core.Json" style="stroke: #000000; stroke-width: 1.0;" width="226" x="23" y="212"/><ellipse cx="118.75" cy="228" fill="#C2C2C2" rx="11" ry="11" style="stroke: #000000; stroke-width: 1.0;"/><path d="M121.2231,234.1431 Q120.6421,234.4419 120.0029,234.5913 Q119.3638,234.7407 118.6582,234.7407 Q116.1514,234.7407 114.8315,233.0889 Q113.5117,231.437 113.5117,228.3159 Q113.5117,225.1865 114.8315,223.5347 Q116.1514,221.8828 118.6582,221.8828 Q119.3638,221.8828 120.0112,222.0322 Q120.6587,222.1816 121.2231,222.4805 L121.2231,225.2031 Q120.5923,224.6221 119.9988,224.3523 Q119.4053,224.0825 118.7744,224.0825 Q117.4297,224.0825 116.7449,225.1492 Q116.0601,226.2158 116.0601,228.3159 Q116.0601,230.4077 116.7449,231.4744 Q117.4297,232.541 118.7744,232.541 Q119.4053,232.541 119.9988,232.2712 Q120.5923,232.0015 121.2231,231.4204 Z "/><text fill="#000000" font-family="Helvetica" font-size="12" lengthAdjust="spacingAndGlyphs" textLength="26" x="139.25" y="231.2402">Json</text><line style="stroke: #000000; stroke-width: 1.0;" x1="24" x2="248" y1="244" y2="244"/><line style="stroke: #000000; stroke-width: 1.0;" x1="24" x2="248" y1="252" y2="252"/><ellipse cx="34" cy="263" fill="#A6A6A6" rx="3" ry="3" style="stroke: #545454; stroke-width: 1.0;"/><text fill="#000000" font-family="Helvetica" font-size="11" lengthAdjust="spacingAndGlyphs" textLength="74" x="43" y="264.4702">__enter__(self)</text><ellipse cx="34" cy="274" fill="#A6A6A6" rx="3" ry="3" style="stroke: #545454; stroke-width: 1.0;"/><text fill="#000000" font-family="Helvetica" font-size="11" lengthAdjust="spacingAndGlyphs" textLength="200" x="43" y="275.4702">__exit__(self, exc_type, exc_val, exc_tb)</text><ellipse cx="34" cy="285" fill="#A6A6A6" rx="3" ry="3" style="stroke: #545454; stroke-width: 1.0;"/><text fill="#000000" font-family="Helvetica" font-size="11" lengthAdjust="spacingAndGlyphs" textLength="62" x="43" y="286.4702">__init__(self)</text><ellipse cx="34" cy="296" fill="#A6A6A6" rx="3" ry="3" style="stroke: #545454; stroke-width: 1.0;"/><text fill="#000000" font-family="Helvetica" font-size="11" lengthAdjust="spacingAndGlyphs" textLength="107" x="43" y="297.4702">result(self, title, result)</text></a><!--MD5=[1202924086ca6a88207a70c63baf9330]
class benchmarkstt.output.core.MarkDown--><a href="https://benchmarkstt.readthedocs.io/en/latest/modules/benchmarkstt.output.core.html#benchmarkstt.output.core.MarkDown" target="_top" title="https://benchmarkstt.readthedocs.io/en/latest/modules/benchmarkstt.output.core.html#benchmarkstt.output.core.MarkDown" xlink:actuate="onRequest" xlink:href="https://benchmarkstt.readthedocs.io/en/latest/modules/benchmarkstt.output.core.html#benchmarkstt.output.core.MarkDown" xlink:show="new" xlink:title="https://benchmarkstt.readthedocs.io/en/latest/modules/benchmarkstt.output.core.html#benchmarkstt.output.core.MarkDown" xlink:type="simple"><rect fill="#FFFFFF" filter="url(#f1lzccqfrlip55)" height="92" id="benchmarkstt.output.core.MarkDown" style="stroke: #000000; stroke-width: 1.0;" width="226" x="23" y="364"/><ellipse cx="102.25" cy="380" fill="#C2C2C2" rx="11" ry="11" style="stroke: #000000; stroke-width: 1.0;"/><path d="M104.7231,386.1431 Q104.1421,386.4419 103.5029,386.5913 Q102.8638,386.7407 102.1582,386.7407 Q99.6514,386.7407 98.3315,385.0889 Q97.0117,383.437 97.0117,380.3159 Q97.0117,377.1865 98.3315,375.5347 Q99.6514,373.8828 102.1582,373.8828 Q102.8638,373.8828 103.5112,374.0322 Q104.1587,374.1816 104.7231,374.4805 L104.7231,377.2031 Q104.0923,376.6221 103.4988,376.3523 Q102.9053,376.0825 102.2744,376.0825 Q100.9297,376.0825 100.2449,377.1492 Q99.5601,378.2158 99.5601,380.3159 Q99.5601,382.4077 100.2449,383.4744 Q100.9297,384.541 102.2744,384.541 Q102.9053,384.541 103.4988,384.2712 Q104.0923,384.0015 104.7231,383.4204 Z "/><text fill="#000000" font-family="Helvetica" font-size="12" lengthAdjust="spacingAndGlyphs" textLength="59" x="122.75" y="383.2402">MarkDown</text><line style="stroke: #000000; stroke-width: 1.0;" x1="24" x2="248" y1="396" y2="396"/><line style="stroke: #000000; stroke-width: 1.0;" x1="24" x2="248" y1="404" y2="404"/><ellipse cx="34" cy="415" fill="#A6A6A6" rx="3" ry="3" style="stroke: #545454; stroke-width: 1.0;"/><text fill="#000000" font-family="Helvetica" font-size="11" lengthAdjust="spacingAndGlyphs" textLength="74" x="43" y="416.4702">__enter__(self)</text><ellipse cx="34" cy="426" fill="#A6A6A6" rx="3" ry="3" style="stroke: #545454; stroke-width: 1.0;"/><text fill="#000000" font-family="Helvetica" font-size="11" lengthAdjust="spacingAndGlyphs" textLength="200" x="43" y="427.4702">__exit__(self, exc_type, exc_val, exc_tb)</text><ellipse cx="34" cy="437" fill="#A6A6A6" rx="3" ry="3" style="stroke: #545454; stroke-width: 1.0;"/><text fill="#000000" font-family="Helvetica" font-size="11" lengthAdjust="spacingAndGlyphs" textLength="79" x="43" y="438.4702">print(self, result)</text><ellipse cx="34" cy="448" fill="#A6A6A6" rx="3" ry="3" style="stroke: #545454; stroke-width: 1.0;"/><text fill="#000000" font-family="Helvetica" font-size="11" lengthAdjust="spacingAndGlyphs" textLength="107" x="43" y="449.4702">result(self, title, result)</text></a><!--MD5=[1b1c3484ac7c767612303980bbf618ed]
class benchmarkstt.output.core.ReStructuredText--><a href="https://benchmarkstt.readthedocs.io/en/latest/modules/benchmarkstt.output.core.html#benchmarkstt.output.core.ReStructuredText" target="_top" title="https://benchmarkstt.readthedocs.io/en/latest/modules/benchmarkstt.output.core.html#benchmarkstt.output.core.ReStructuredText" xlink:actuate="onRequest" xlink:href="https://benchmarkstt.readthedocs.io/en/latest/modules/benchmarkstt.output.core.html#benchmarkstt.output.core.ReStructuredText" xlink:show="new" xlink:title="https://benchmarkstt.readthedocs.io/en/latest/modules/benchmarkstt.output.core.html#benchmarkstt.output.core.ReStructuredText" xlink:type="simple"><rect fill="#FFFFFF" filter="url(#f1lzccqfrlip55)" height="92" id="benchmarkstt.output.core.ReStructuredText" style="stroke: #000000; stroke-width: 1.0;" width="226" x="284" y="364"/><ellipse cx="345.25" cy="380" fill="#C2C2C2" rx="11" ry="11" style="stroke: #000000; stroke-width: 1.0;"/><path d="M347.7231,386.1431 Q347.1421,386.4419 346.5029,386.5913 Q345.8638,386.7407 345.1582,386.7407 Q342.6514,386.7407 341.3315,385.0889 Q340.0117,383.437 340.0117,380.3159 Q340.0117,377.1865 341.3315,375.5347 Q342.6514,373.8828 345.1582,373.8828 Q345.8638,373.8828 346.5112,374.0322 Q347.1587,374.1816 347.7231,374.4805 L347.7231,377.2031 Q347.0923,376.6221 346.4988,376.3523 Q345.9053,376.0825 345.2744,376.0825 Q343.9297,376.0825 343.2449,377.1492 Q342.5601,378.2158 342.5601,380.3159 Q342.5601,382.4077 343.2449,383.4744 Q343.9297,384.541 345.2744,384.541 Q345.9053,384.541 346.4988,384.2712 Q347.0923,384.0015 347.7231,383.4204 Z "/><text fill="#000000" font-family="Helvetica" font-size="12" lengthAdjust="spacingAndGlyphs" textLength="95" x="365.75" y="383.2402">ReStructuredText</text><line style="stroke: #000000; stroke-width: 1.0;" x1="285" x2="509" y1="396" y2="396"/><line style="stroke: #000000; stroke-width: 1.0;" x1="285" x2="509" y1="404" y2="404"/><ellipse cx="295" cy="415" fill="#A6A6A6" rx="3" ry="3" style="stroke: #545454; stroke-width: 1.0;"/><text fill="#000000" font-family="Helvetica" font-size="11" lengthAdjust="spacingAndGlyphs" textLength="74" x="304" y="416.4702">__enter__(self)</text><ellipse cx="295" cy="426" fill="#A6A6A6" rx="3" ry="3" style="stroke: #545454; stroke-width: 1.0;"/><text fill="#000000" font-family="Helvetica" font-size="11" lengthAdjust="spacingAndGlyphs" textLength="200" x="304" y="427.4702">__exit__(self, exc_type, exc_val, exc_tb)</text><ellipse cx="295" cy="437" fill="#A6A6A6" rx="3" ry="3" style="stroke: #545454; stroke-width: 1.0;"/><text fill="#000000" font-family="Helvetica" font-size="11" lengthAdjust="spacingAndGlyphs" textLength="79" x="304" y="438.4702">print(self, result)</text><ellipse cx="295" cy="448" fill="#A6A6A6" rx="3" ry="3" style="stroke: #545454; stroke-width: 1.0;"/><text fill="#000000" font-family="Helvetica" font-size="11" lengthAdjust="spacingAndGlyphs" textLength="107" x="304" y="449.4702">result(self, title, result)</text></a><!--MD5=[ad472f876b41c377ab9c2f7fd723b528]
class benchmarkstt.output.core.SimpleTextBase--><a href="https://benchmarkstt.readthedocs.io/en/latest/modules/benchmarkstt.output.core.html#benchmarkstt.output.core.SimpleTextBase" target="_top" title="https://benchmarkstt.readthedocs.io/en/latest/modules/benchmarkstt.output.core.html#benchmarkstt.output.core.SimpleTextBase" xlink:actuate="onRequest" xlink:href="https://benchmarkstt.readthedocs.io/en/latest/modules/benchmarkstt.output.core.html#benchmarkstt.output.core.SimpleTextBase" xlink:show="new" xlink:title="https://benchmarkstt.readthedocs.io/en/latest/modules/benchmarkstt.output.core.html#benchmarkstt.output.core.SimpleTextBase" xlink:type="simple"><rect fill="#FFFFFF" filter="url(#f1lzccqfrlip55)" height="92" id="benchmarkstt.output.core.SimpleTextBase" style="stroke: #000000; stroke-width: 1.0;" width="226" x="284" y="212"/><ellipse cx="348.25" cy="228" fill="#C2C2C2" rx="11" ry="11" style="stroke: #000000; stroke-width: 1.0;"/><path d="M350.7231,234.1431 Q350.1421,234.4419 349.5029,234.5913 Q348.8638,234.7407 348.1582,234.7407 Q345.6514,234.7407 344.3315,233.0889 Q343.0117,231.437 343.0117,228.3159 Q343.0117,225.1865 344.3315,223.5347 Q345.6514,221.8828 348.1582,221.8828 Q348.8638,221.8828 349.5112,222.0322 Q350.1587,222.1816 350.7231,222.4805 L350.7231,225.2031 Q350.0923,224.6221 349.4988,224.3523 Q348.9053,224.0825 348.2744,224.0825 Q346.9297,224.0825 346.2449,225.1492 Q345.5601,226.2158 345.5601,228.3159 Q345.5601,230.4077 346.2449,231.4744 Q346.9297,232.541 348.2744,232.541 Q348.9053,232.541 349.4988,232.2712 Q350.0923,232.0015 350.7231,231.4204 Z "/><text fill="#000000" font-family="Helvetica" font-size="12" lengthAdjust="spacingAndGlyphs" textLength="89" x="368.75" y="231.2402">SimpleTextBase</text><line style="stroke: #000000; stroke-width: 1.0;" x1="285" x2="509" y1="244" y2="244"/><line style="stroke: #000000; stroke-width: 1.0;" x1="285" x2="509" y1="252" y2="252"/><ellipse cx="295" cy="263" fill="#A6A6A6" rx="3" ry="3" style="stroke: #545454; stroke-width: 1.0;"/><text fill="#000000" font-family="Helvetica" font-size="11" lengthAdjust="spacingAndGlyphs" textLength="74" x="304" y="264.4702">__enter__(self)</text><ellipse cx="295" cy="274" fill="#A6A6A6" rx="3" ry="3" style="stroke: #545454; stroke-width: 1.0;"/><text fill="#000000" font-family="Helvetica" font-size="11" lengthAdjust="spacingAndGlyphs" textLength="200" x="304" y="275.4702">__exit__(self, exc_type, exc_val, exc_tb)</text><ellipse cx="295" cy="285" fill="#A6A6A6" rx="3" ry="3" style="stroke: #545454; stroke-width: 1.0;"/><text fill="#000000" font-family="Helvetica" font-size="11" lengthAdjust="spacingAndGlyphs" textLength="79" x="304" y="286.4702">print(self, result)</text><ellipse cx="295" cy="296" fill="#A6A6A6" rx="3" ry="3" style="stroke: #545454; stroke-width: 1.0;"/><text fill="#000000" font-family="Helvetica" font-size="11" lengthAdjust="spacingAndGlyphs" textLength="107" x="304" y="297.4702">result(self, title, result)</text></a><!--MD5=[b4ba39b199d1ae7f900ea69508af4a3d]
reverse link benchmarkstt.output.Base to benchmarkstt.output.core.Json--><path d="M220.4,154.74 C204.95,173.47 187.88,194.15 173.16,211.98 " fill="none" id="benchmarkstt.output.Base&lt;-benchmarkstt.output.core.Json" style="stroke: #000000; stroke-width: 1.0;"/><polygon fill="none" points="215.07,150.21,233.2,139.24,225.86,159.12,215.07,150.21" style="stroke: #000000; stroke-width: 1.0;"/><!--MD5=[649e8d6b5a19579f64f6ff55d9b80603]
reverse link benchmarkstt.output.core.SimpleTextBase to benchmarkstt.output.core.MarkDown--><path d="M301.32,313.99 C272.84,330.36 241.97,348.1 214.7,363.77 " fill="none" id="benchmarkstt.output.core.SimpleTextBase&lt;-benchmarkstt.output.core.MarkDown" style="stroke: #000000; stroke-width: 1.0;"/><polygon fill="none" points="297.86,307.9,318.69,304,304.84,320.04,297.86,307.9" style="stroke: #000000; stroke-width: 1.0;"/><!--MD5=[0064dcd89a9c0ed1362beefa7e7418bc]
reverse link benchmarkstt.output.core.SimpleTextBase to benchmarkstt.output.core.ReStructuredText--><path d="M397,324.33 C397,337.63 397,351.35 397,363.77 " fill="none" id="benchmarkstt.output.core.SimpleTextBase&lt;-benchmarkstt.output.core.ReStructuredText" style="stroke: #000000; stroke-width: 1.0;"/><polygon fill="none" points="390,324,397,304,404,324,390,324" style="stroke: #000000; stroke-width: 1.0;"/><!--MD5=[ec4fe02a8646f37173536f5ee390896c]
reverse link benchmarkstt.output.Base to benchmarkstt.output.core.SimpleTextBase--><path d="M311.95,154.74 C327.52,173.47 344.72,194.15 359.55,211.98 " fill="none" id="benchmarkstt.output.Base&lt;-benchmarkstt.output.core.SimpleTextBase" style="stroke: #000000; stroke-width: 1.0;"/><polygon fill="none" points="306.46,159.1,299.06,139.24,317.23,150.14,306.46,159.1" style="stroke: #000000; stroke-width: 1.0;"/><!--MD5=[8a4c2f27a73cb1a9eacec9326bfbce52]
@startuml

title benchmarkstt.output

skinparam packageStyle Frame
!includeurl https://raw.githubusercontent.com/matthewjosephtaylor/plantuml-style/master/style.pu
package benchmarkstt.output {

	class benchmarkstt.output.Base [[https://benchmarkstt.readthedocs.io/en/latest/modules/benchmarkstt.output.html#benchmarkstt.output.Base]] {
		+__enter__(self)
		+__exit__(self, exc_type, exc_val, exc_tb)
		+result(self, title, result)
	}


}

package benchmarkstt.output.core {

	class benchmarkstt.output.core.Json [[https://benchmarkstt.readthedocs.io/en/latest/modules/benchmarkstt.output.core.html#benchmarkstt.output.core.Json]] {
		+__enter__(self)
		+__exit__(self, exc_type, exc_val, exc_tb)
		+__init__(self)
		+result(self, title, result)
	}


	class benchmarkstt.output.core.MarkDown [[https://benchmarkstt.readthedocs.io/en/latest/modules/benchmarkstt.output.core.html#benchmarkstt.output.core.MarkDown]] {
		+__enter__(self)
		+__exit__(self, exc_type, exc_val, exc_tb)
		+print(self, result)
		+result(self, title, result)
	}



	class benchmarkstt.output.core.ReStructuredText [[https://benchmarkstt.readthedocs.io/en/latest/modules/benchmarkstt.output.core.html#benchmarkstt.output.core.ReStructuredText]] {
		+__enter__(self)
		+__exit__(self, exc_type, exc_val, exc_tb)
		+print(self, result)
		+result(self, title, result)
	}



	class benchmarkstt.output.core.SimpleTextBase [[https://benchmarkstt.readthedocs.io/en/latest/modules/benchmarkstt.output.core.html#benchmarkstt.output.core.SimpleTextBase]] {
		+__enter__(self)
		+__exit__(self, exc_type, exc_val, exc_tb)
		+print(self, result)
		+result(self, title, result)
	}

}


benchmarkstt.output.core.Json -up-|> benchmarkstt.output.Base
benchmarkstt.output.core.MarkDown -up-|> benchmarkstt.output.core.SimpleTextBase
benchmarkstt.output.core.ReStructuredText -up-|> benchmarkstt.output.core.SimpleTextBase
benchmarkstt.output.core.SimpleTextBase -up-|> benchmarkstt.output.Base

@enduml

@startuml

title benchmarkstt.output

skinparam packageStyle Frame

skinparam defaultFontName  Helvetica
skinparam sequenceMessageAlign center
skinparam monochrome true

skinparam activity {
	ArrowColor Black
	BackgroundColor White
	BorderColor Black
	BorderThickness 1
}

skinparam actor {
	BackgroundColor White
	BorderColor Black
}

skinparam usecase {
	ArrowColor Black
	BackgroundColor White
	BorderColor Black
	BorderThickness 1
}

skinparam class {
	ArrowColor Black
	BackgroundColor White
	BorderColor Black
	BorderThickness 1
}


skinparam object {
	ArrowColor Black
	BackgroundColor White
	BorderColor Black
}

skinparam package {
	BackgroundColor White
	BorderColor Black
}


skinparam component {
	BackgroundColor White
	InterfaceBackgroundColor White
	BorderColor Black
	InterfaceBorderColor Black
}

skinparam note {
	BackgroundColor White
	BorderColor Black
}

skinparam state {
	ArrowColor Black
	BackgroundColor White
	BorderColor Black
}

skinparam sequence {
	ArrowColor Black
	BackgroundColor White
	ParticipantBackgroundColor White
	BorderColor Black
	LifeLineBorderColor Black
	ParticipantBorderColor Black
	BoxLineColor Black
}

skinparam interface {
	BackgroundColor White
	BorderColor Black
}
package benchmarkstt.output {

	class benchmarkstt.output.Base [[https://benchmarkstt.readthedocs.io/en/latest/modules/benchmarkstt.output.html#benchmarkstt.output.Base]] {
		+__enter__(self)
		+__exit__(self, exc_type, exc_val, exc_tb)
		+result(self, title, result)
	}


}

package benchmarkstt.output.core {

	class benchmarkstt.output.core.Json [[https://benchmarkstt.readthedocs.io/en/latest/modules/benchmarkstt.output.core.html#benchmarkstt.output.core.Json]] {
		+__enter__(self)
		+__exit__(self, exc_type, exc_val, exc_tb)
		+__init__(self)
		+result(self, title, result)
	}


	class benchmarkstt.output.core.MarkDown [[https://benchmarkstt.readthedocs.io/en/latest/modules/benchmarkstt.output.core.html#benchmarkstt.output.core.MarkDown]] {
		+__enter__(self)
		+__exit__(self, exc_type, exc_val, exc_tb)
		+print(self, result)
		+result(self, title, result)
	}



	class benchmarkstt.output.core.ReStructuredText [[https://benchmarkstt.readthedocs.io/en/latest/modules/benchmarkstt.output.core.html#benchmarkstt.output.core.ReStructuredText]] {
		+__enter__(self)
		+__exit__(self, exc_type, exc_val, exc_tb)
		+print(self, result)
		+result(self, title, result)
	}



	class benchmarkstt.output.core.SimpleTextBase [[https://benchmarkstt.readthedocs.io/en/latest/modules/benchmarkstt.output.core.html#benchmarkstt.output.core.SimpleTextBase]] {
		+__enter__(self)
		+__exit__(self, exc_type, exc_val, exc_tb)
		+print(self, result)
		+result(self, title, result)
	}

}


benchmarkstt.output.core.Json -up-|> benchmarkstt.output.Base
benchmarkstt.output.core.MarkDown -up-|> benchmarkstt.output.core.SimpleTextBase
benchmarkstt.output.core.ReStructuredText -up-|> benchmarkstt.output.core.SimpleTextBase
benchmarkstt.output.core.SimpleTextBase -up-|> benchmarkstt.output.Base

@enduml

PlantUML version 1.2020.15(Sun Jun 28 13:39:45 CEST 2020)
(GPL source distribution)
Java Runtime: OpenJDK Runtime Environment
JVM: OpenJDK 64-Bit Server VM
Default Encoding: UTF-8
Language: en
Country: BE
--></g></svg>