<?xml version="1.0" encoding="UTF-8" standalone="no"?><svg xmlns="http://www.w3.org/2000/svg" xmlns:xlink="http://www.w3.org/1999/xlink" contentScriptType="application/ecmascript" contentStyleType="text/css" height="935px" preserveAspectRatio="none" style="width:1438px;height:935px;" version="1.1" viewBox="0 0 1438 935" width="1438px" zoomAndPan="magnify"><defs><filter height="300%" id="f1h8oyvqrfayju" width="300%" x="-1" y="-1"><feGaussianBlur result="blurOut" stdDeviation="2.0"/><feColorMatrix in="blurOut" result="blurOut2" type="matrix" values="0 0 0 0 0 0 0 0 0 0 0 0 0 0 0 0 0 0 .4 0"/><feOffset dx="4.0" dy="4.0" in="blurOut2" result="blurOut3"/><feBlend in="SourceGraphic" in2="blurOut3" mode="normal"/></filter></defs><g><text fill="#000000" font-family="sans-serif" font-size="18" lengthAdjust="spacingAndGlyphs" textLength="156" x="632" y="17.4023">benchmarkstt.diff</text><!--MD5=[72b54bae2fb354191b48b6bdd2cdddb6]
cluster benchmarkstt.diff.formatter--><polygon fill="#FFFFFF" filter="url(#f1h8oyvqrfayju)" points="16,27.1992,222,27.1992,229,49.6875,1110,49.6875,1110,923.1992,16,923.1992,16,27.1992" style="stroke: #000000; stroke-width: 1.5;"/><line style="stroke: #000000; stroke-width: 1.5;" x1="16" x2="229" y1="49.6875" y2="49.6875"/><text fill="#000000" font-family="sans-serif" font-size="14" font-weight="bold" lengthAdjust="spacingAndGlyphs" textLength="200" x="20" y="42.7344">benchmarkstt.diff.formatter</text><!--MD5=[b21609c0e4e09564ea14466d1d899cfe]
cluster benchmarkstt.diff--><polygon fill="#FFFFFF" filter="url(#f1h8oyvqrfayju)" points="1184,40.1992,1318,40.1992,1325,62.6875,1366,62.6875,1366,165.1992,1184,165.1992,1184,40.1992" style="stroke: #000000; stroke-width: 1.5;"/><line style="stroke: #000000; stroke-width: 1.5;" x1="1184" x2="1325" y1="62.6875" y2="62.6875"/><text fill="#000000" font-family="sans-serif" font-size="14" font-weight="bold" lengthAdjust="spacingAndGlyphs" textLength="128" x="1188" y="55.7344">benchmarkstt.diff</text><!--MD5=[09ed425bc4f616bbad3d6f8b00541a65]
cluster benchmarkstt.diff.core--><polygon fill="#FFFFFF" filter="url(#f1h8oyvqrfayju)" points="1134,309.1992,1301,309.1992,1308,331.6875,1416,331.6875,1416,563.1992,1134,563.1992,1134,309.1992" style="stroke: #000000; stroke-width: 1.5;"/><line style="stroke: #000000; stroke-width: 1.5;" x1="1134" x2="1308" y1="331.6875" y2="331.6875"/><text fill="#000000" font-family="sans-serif" font-size="14" font-weight="bold" lengthAdjust="spacingAndGlyphs" textLength="161" x="1138" y="324.7344">benchmarkstt.diff.core</text><!--MD5=[3c662193fe25a144b7239b40297cb0df]
class benchmarkstt.diff.formatter.CLIDiffDialect--><a href="https://benchmarkstt.readthedocs.io/en/latest/modules/benchmarkstt.diff.formatter.html#benchmarkstt.diff.formatter.CLIDiffDialect" target="_top" title="https://benchmarkstt.readthedocs.io/en/latest/modules/benchmarkstt.diff.formatter.html#benchmarkstt.diff.formatter.CLIDiffDialect" xlink:actuate="onRequest" xlink:href="https://benchmarkstt.readthedocs.io/en/latest/modules/benchmarkstt.diff.formatter.html#benchmarkstt.diff.formatter.CLIDiffDialect" xlink:show="new" xlink:title="https://benchmarkstt.readthedocs.io/en/latest/modules/benchmarkstt.diff.formatter.html#benchmarkstt.diff.formatter.CLIDiffDialect" xlink:type="simple"><rect fill="#FEFECE" filter="url(#f1h8oyvqrfayju)" height="112.7754" id="benchmarkstt.diff.formatter.CLIDiffDialect" style="stroke: #A80036; stroke-width: 1.5;" width="239" x="32.5" y="389.1992"/><ellipse cx="109.75" cy="405.1992" fill="#ADD1B2" rx="11" ry="11" style="stroke: #A80036; stroke-width: 1.0;"/><path d="M112.2231,411.3423 Q111.6421,411.6411 111.0029,411.7905 Q110.3638,411.9399 109.6582,411.9399 Q107.1514,411.9399 105.8315,410.2881 Q104.5117,408.6362 104.5117,405.5151 Q104.5117,402.3857 105.8315,400.7339 Q107.1514,399.082 109.6582,399.082 Q110.3638,399.082 111.0112,399.2314 Q111.6587,399.3809 112.2231,399.6797 L112.2231,402.4023 Q111.5923,401.8213 110.9988,401.5515 Q110.4053,401.2817 109.7744,401.2817 Q108.4297,401.2817 107.7449,402.3484 Q107.0601,403.415 107.0601,405.5151 Q107.0601,407.6069 107.7449,408.6736 Q108.4297,409.7402 109.7744,409.7402 Q110.4053,409.7402 110.9988,409.4705 Q111.5923,409.2007 112.2231,408.6196 Z "/><text fill="#000000" font-family="sans-serif" font-size="12" lengthAdjust="spacingAndGlyphs" textLength="76" x="130.25" y="409.7344">CLIDiffDialect</text><line style="stroke: #A80036; stroke-width: 1.5;" x1="33.5" x2="270.5" y1="421.1992" y2="421.1992"/><line style="stroke: #A80036; stroke-width: 1.5;" x1="33.5" x2="270.5" y1="429.1992" y2="429.1992"/><ellipse cx="43.5" cy="440.1992" fill="#84BE84" rx="3" ry="3" style="stroke: #038048; stroke-width: 1.0;"/><text fill="#000000" font-family="sans-serif" font-size="11" lengthAdjust="spacingAndGlyphs" textLength="79" x="52.5" y="443.834">__enter__(self)</text><ellipse cx="43.5" cy="453.1543" fill="#84BE84" rx="3" ry="3" style="stroke: #038048; stroke-width: 1.0;"/><text fill="#000000" font-family="sans-serif" font-size="11" lengthAdjust="spacingAndGlyphs" textLength="213" x="52.5" y="456.7891">__exit__(self, exc_type, exc_val, exc_tb)</text><ellipse cx="43.5" cy="466.1094" fill="#84BE84" rx="3" ry="3" style="stroke: #038048; stroke-width: 1.0;"/><text fill="#000000" font-family="sans-serif" font-size="11" lengthAdjust="spacingAndGlyphs" textLength="197" x="52.5" y="469.7441">__init__(self, show_color_key=None)</text><ellipse cx="43.5" cy="479.0645" fill="#84BE84" rx="3" ry="3" style="stroke: #038048; stroke-width: 1.0;"/><text fill="#000000" font-family="sans-serif" font-size="11" lengthAdjust="spacingAndGlyphs" textLength="63" x="52.5" y="482.6992">output(self)</text><ellipse cx="43.5" cy="492.0195" fill="#84BE84" rx="3" ry="3" style="stroke: #038048; stroke-width: 1.0;"/><text fill="#000000" font-family="sans-serif" font-size="11" lengthAdjust="spacingAndGlyphs" textLength="96" x="52.5" y="495.6543">preprocessor(txt)</text></a><!--MD5=[df29a61f45d19c4e6d0ce3d05bdaff27]
class benchmarkstt.diff.formatter.Dialect--><a href="https://benchmarkstt.readthedocs.io/en/latest/modules/benchmarkstt.diff.formatter.html#benchmarkstt.diff.formatter.Dialect" target="_top" title="https://benchmarkstt.readthedocs.io/en/latest/modules/benchmarkstt.diff.formatter.html#benchmarkstt.diff.formatter.Dialect" xlink:actuate="onRequest" xlink:href="https://benchmarkstt.readthedocs.io/en/latest/modules/benchmarkstt.diff.formatter.html#benchmarkstt.diff.formatter.Dialect" xlink:show="new" xlink:title="https://benchmarkstt.readthedocs.io/en/latest/modules/benchmarkstt.diff.formatter.html#benchmarkstt.diff.formatter.Dialect" xlink:type="simple"><rect fill="#FEFECE" filter="url(#f1h8oyvqrfayju)" height="99.8203" id="benchmarkstt.diff.formatter.Dialect" style="stroke: #A80036; stroke-width: 1.5;" width="239" x="527.5" y="62.1992"/><ellipse cx="623.25" cy="78.1992" fill="#ADD1B2" rx="11" ry="11" style="stroke: #A80036; stroke-width: 1.0;"/><path d="M625.7231,84.3423 Q625.1421,84.6411 624.5029,84.7905 Q623.8638,84.9399 623.1582,84.9399 Q620.6514,84.9399 619.3315,83.2881 Q618.0117,81.6362 618.0117,78.5151 Q618.0117,75.3857 619.3315,73.7339 Q620.6514,72.082 623.1582,72.082 Q623.8638,72.082 624.5112,72.2314 Q625.1587,72.3809 625.7231,72.6797 L625.7231,75.4023 Q625.0923,74.8213 624.4988,74.5515 Q623.9053,74.2817 623.2744,74.2817 Q621.9297,74.2817 621.2449,75.3484 Q620.5601,76.415 620.5601,78.5151 Q620.5601,80.6069 621.2449,81.6736 Q621.9297,82.7402 623.2744,82.7402 Q623.9053,82.7402 624.4988,82.4705 Q625.0923,82.2007 625.7231,81.6196 Z "/><text fill="#000000" font-family="sans-serif" font-size="12" lengthAdjust="spacingAndGlyphs" textLength="39" x="643.75" y="82.7344">Dialect</text><line style="stroke: #A80036; stroke-width: 1.5;" x1="528.5" x2="765.5" y1="94.1992" y2="94.1992"/><line style="stroke: #A80036; stroke-width: 1.5;" x1="528.5" x2="765.5" y1="102.1992" y2="102.1992"/><ellipse cx="538.5" cy="113.1992" fill="#84BE84" rx="3" ry="3" style="stroke: #038048; stroke-width: 1.0;"/><text fill="#000000" font-family="sans-serif" font-size="11" lengthAdjust="spacingAndGlyphs" textLength="79" x="547.5" y="116.834">__enter__(self)</text><ellipse cx="538.5" cy="126.1543" fill="#84BE84" rx="3" ry="3" style="stroke: #038048; stroke-width: 1.0;"/><text fill="#000000" font-family="sans-serif" font-size="11" lengthAdjust="spacingAndGlyphs" textLength="213" x="547.5" y="129.7891">__exit__(self, exc_type, exc_val, exc_tb)</text><ellipse cx="538.5" cy="139.1094" fill="#84BE84" rx="3" ry="3" style="stroke: #038048; stroke-width: 1.0;"/><text fill="#000000" font-family="sans-serif" font-size="11" lengthAdjust="spacingAndGlyphs" textLength="68" x="547.5" y="142.7441">__init__(self)</text><ellipse cx="538.5" cy="152.0645" fill="#84BE84" rx="3" ry="3" style="stroke: #038048; stroke-width: 1.0;"/><text fill="#000000" font-family="sans-serif" font-size="11" lengthAdjust="spacingAndGlyphs" textLength="63" x="547.5" y="155.6992">output(self)</text></a><!--MD5=[3cef3a3f66db63f58bdcdbc71fd62980]
class benchmarkstt.diff.formatter.DiffFormatter--><a href="https://benchmarkstt.readthedocs.io/en/latest/modules/benchmarkstt.diff.formatter.html#benchmarkstt.diff.formatter.DiffFormatter" target="_top" title="https://benchmarkstt.readthedocs.io/en/latest/modules/benchmarkstt.diff.formatter.html#benchmarkstt.diff.formatter.DiffFormatter" xlink:actuate="onRequest" xlink:href="https://benchmarkstt.readthedocs.io/en/latest/modules/benchmarkstt.diff.formatter.html#benchmarkstt.diff.formatter.DiffFormatter" xlink:show="new" xlink:title="https://benchmarkstt.readthedocs.io/en/latest/modules/benchmarkstt.diff.formatter.html#benchmarkstt.diff.formatter.DiffFormatter" xlink:type="simple"><rect fill="#FEFECE" filter="url(#f1h8oyvqrfayju)" height="86.8652" id="benchmarkstt.diff.formatter.DiffFormatter" style="stroke: #A80036; stroke-width: 1.5;" width="301" x="138.5" y="68.6992"/><ellipse cx="246.75" cy="84.6992" fill="#ADD1B2" rx="11" ry="11" style="stroke: #A80036; stroke-width: 1.0;"/><path d="M249.2231,90.8423 Q248.6421,91.1411 248.0029,91.2905 Q247.3638,91.4399 246.6582,91.4399 Q244.1514,91.4399 242.8315,89.7881 Q241.5117,88.1362 241.5117,85.0151 Q241.5117,81.8857 242.8315,80.2339 Q244.1514,78.582 246.6582,78.582 Q247.3638,78.582 248.0112,78.7314 Q248.6587,78.8809 249.2231,79.1797 L249.2231,81.9023 Q248.5923,81.3213 247.9988,81.0515 Q247.4053,80.7817 246.7744,80.7817 Q245.4297,80.7817 244.7449,81.8484 Q244.0601,82.915 244.0601,85.0151 Q244.0601,87.1069 244.7449,88.1736 Q245.4297,89.2402 246.7744,89.2402 Q247.4053,89.2402 247.9988,88.9705 Q248.5923,88.7007 249.2231,88.1196 Z "/><text fill="#000000" font-family="sans-serif" font-size="12" lengthAdjust="spacingAndGlyphs" textLength="76" x="267.25" y="89.2344">DiffFormatter</text><line style="stroke: #A80036; stroke-width: 1.5;" x1="139.5" x2="438.5" y1="100.6992" y2="100.6992"/><line style="stroke: #A80036; stroke-width: 1.5;" x1="139.5" x2="438.5" y1="108.6992" y2="108.6992"/><ellipse cx="149.5" cy="119.6992" fill="#84BE84" rx="3" ry="3" style="stroke: #038048; stroke-width: 1.0;"/><text fill="#000000" font-family="sans-serif" font-size="11" lengthAdjust="spacingAndGlyphs" textLength="235" x="158.5" y="123.334">__init__(self, dialect=None, *args, **kwargs)</text><ellipse cx="149.5" cy="132.6543" fill="#84BE84" rx="3" ry="3" style="stroke: #038048; stroke-width: 1.0;"/><text fill="#000000" font-family="sans-serif" font-size="11" lengthAdjust="spacingAndGlyphs" textLength="275" x="158.5" y="136.2891">diff(self, a, b, opcodes=None, preprocessor=None)</text><ellipse cx="149.5" cy="145.6094" fill="#84BE84" rx="3" ry="3" style="stroke: #038048; stroke-width: 1.0;"/><text fill="#000000" font-family="sans-serif" font-size="11" lengthAdjust="spacingAndGlyphs" text-decoration="underline" textLength="103" x="158.5" y="149.2441">has_dialect(dialect)</text></a><!--MD5=[13567ef2ba7a355d45cc98cb3acfd770]
class benchmarkstt.diff.formatter.HTMLDiffDialect--><a href="https://benchmarkstt.readthedocs.io/en/latest/modules/benchmarkstt.diff.formatter.html#benchmarkstt.diff.formatter.HTMLDiffDialect" target="_top" title="https://benchmarkstt.readthedocs.io/en/latest/modules/benchmarkstt.diff.formatter.html#benchmarkstt.diff.formatter.HTMLDiffDialect" xlink:actuate="onRequest" xlink:href="https://benchmarkstt.readthedocs.io/en/latest/modules/benchmarkstt.diff.formatter.html#benchmarkstt.diff.formatter.HTMLDiffDialect" xlink:show="new" xlink:title="https://benchmarkstt.readthedocs.io/en/latest/modules/benchmarkstt.diff.formatter.html#benchmarkstt.diff.formatter.HTMLDiffDialect" xlink:type="simple"><rect fill="#FEFECE" filter="url(#f1h8oyvqrfayju)" height="112.7754" id="benchmarkstt.diff.formatter.HTMLDiffDialect" style="stroke: #A80036; stroke-width: 1.5;" width="239" x="580.5" y="389.1992"/><ellipse cx="649.75" cy="405.1992" fill="#ADD1B2" rx="11" ry="11" style="stroke: #A80036; stroke-width: 1.0;"/><path d="M652.2231,411.3423 Q651.6421,411.6411 651.0029,411.7905 Q650.3638,411.9399 649.6582,411.9399 Q647.1514,411.9399 645.8315,410.2881 Q644.5117,408.6362 644.5117,405.5151 Q644.5117,402.3857 645.8315,400.7339 Q647.1514,399.082 649.6582,399.082 Q650.3638,399.082 651.0112,399.2314 Q651.6587,399.3809 652.2231,399.6797 L652.2231,402.4023 Q651.5923,401.8213 650.9988,401.5515 Q650.4053,401.2817 649.7744,401.2817 Q648.4297,401.2817 647.7449,402.3484 Q647.0601,403.415 647.0601,405.5151 Q647.0601,407.6069 647.7449,408.6736 Q648.4297,409.7402 649.7744,409.7402 Q650.4053,409.7402 650.9988,409.4705 Q651.5923,409.2007 652.2231,408.6196 Z "/><text fill="#000000" font-family="sans-serif" font-size="12" lengthAdjust="spacingAndGlyphs" textLength="92" x="670.25" y="409.7344">HTMLDiffDialect</text><line style="stroke: #A80036; stroke-width: 1.5;" x1="581.5" x2="818.5" y1="421.1992" y2="421.1992"/><line style="stroke: #A80036; stroke-width: 1.5;" x1="581.5" x2="818.5" y1="429.1992" y2="429.1992"/><ellipse cx="591.5" cy="440.1992" fill="#84BE84" rx="3" ry="3" style="stroke: #038048; stroke-width: 1.0;"/><text fill="#000000" font-family="sans-serif" font-size="11" lengthAdjust="spacingAndGlyphs" textLength="79" x="600.5" y="443.834">__enter__(self)</text><ellipse cx="591.5" cy="453.1543" fill="#84BE84" rx="3" ry="3" style="stroke: #038048; stroke-width: 1.0;"/><text fill="#000000" font-family="sans-serif" font-size="11" lengthAdjust="spacingAndGlyphs" textLength="213" x="600.5" y="456.7891">__exit__(self, exc_type, exc_val, exc_tb)</text><ellipse cx="591.5" cy="466.1094" fill="#84BE84" rx="3" ry="3" style="stroke: #038048; stroke-width: 1.0;"/><text fill="#000000" font-family="sans-serif" font-size="11" lengthAdjust="spacingAndGlyphs" textLength="68" x="600.5" y="469.7441">__init__(self)</text><ellipse cx="591.5" cy="479.0645" fill="#84BE84" rx="3" ry="3" style="stroke: #038048; stroke-width: 1.0;"/><text fill="#000000" font-family="sans-serif" font-size="11" lengthAdjust="spacingAndGlyphs" textLength="63" x="600.5" y="482.6992">output(self)</text><ellipse cx="591.5" cy="492.0195" fill="#84BE84" rx="3" ry="3" style="stroke: #038048; stroke-width: 1.0;"/><text fill="#000000" font-family="sans-serif" font-size="11" lengthAdjust="spacingAndGlyphs" textLength="96" x="600.5" y="495.6543">preprocessor(txt)</text></a><!--MD5=[ad5da66f3bbb9ef0c526548f556f562e]
class benchmarkstt.diff.formatter.JSONDiffDialect--><a href="https://benchmarkstt.readthedocs.io/en/latest/modules/benchmarkstt.diff.formatter.html#benchmarkstt.diff.formatter.JSONDiffDialect" target="_top" title="https://benchmarkstt.readthedocs.io/en/latest/modules/benchmarkstt.diff.formatter.html#benchmarkstt.diff.formatter.JSONDiffDialect" xlink:actuate="onRequest" xlink:href="https://benchmarkstt.readthedocs.io/en/latest/modules/benchmarkstt.diff.formatter.html#benchmarkstt.diff.formatter.JSONDiffDialect" xlink:show="new" xlink:title="https://benchmarkstt.readthedocs.io/en/latest/modules/benchmarkstt.diff.formatter.html#benchmarkstt.diff.formatter.JSONDiffDialect" xlink:type="simple"><rect fill="#FEFECE" filter="url(#f1h8oyvqrfayju)" height="177.5508" id="benchmarkstt.diff.formatter.JSONDiffDialect" style="stroke: #A80036; stroke-width: 1.5;" width="239" x="306.5" y="729.1992"/><ellipse cx="378.25" cy="745.1992" fill="#ADD1B2" rx="11" ry="11" style="stroke: #A80036; stroke-width: 1.0;"/><path d="M380.7231,751.3423 Q380.1421,751.6411 379.5029,751.7905 Q378.8638,751.9399 378.1582,751.9399 Q375.6514,751.9399 374.3315,750.2881 Q373.0117,748.6362 373.0117,745.5151 Q373.0117,742.3857 374.3315,740.7339 Q375.6514,739.082 378.1582,739.082 Q378.8638,739.082 379.5112,739.2314 Q380.1587,739.3809 380.7231,739.6797 L380.7231,742.4023 Q380.0923,741.8213 379.4988,741.5515 Q378.9053,741.2817 378.2744,741.2817 Q376.9297,741.2817 376.2449,742.3484 Q375.5601,743.415 375.5601,745.5151 Q375.5601,747.6069 376.2449,748.6736 Q376.9297,749.7402 378.2744,749.7402 Q378.9053,749.7402 379.4988,749.4705 Q380.0923,749.2007 380.7231,748.6196 Z "/><text fill="#000000" font-family="sans-serif" font-size="12" lengthAdjust="spacingAndGlyphs" textLength="87" x="398.75" y="749.7344">JSONDiffDialect</text><line style="stroke: #A80036; stroke-width: 1.5;" x1="307.5" x2="544.5" y1="761.1992" y2="761.1992"/><line style="stroke: #A80036; stroke-width: 1.5;" x1="307.5" x2="544.5" y1="769.1992" y2="769.1992"/><ellipse cx="317.5" cy="780.1992" fill="#84BE84" rx="3" ry="3" style="stroke: #038048; stroke-width: 1.0;"/><text fill="#000000" font-family="sans-serif" font-size="11" lengthAdjust="spacingAndGlyphs" textLength="79" x="326.5" y="783.834">__enter__(self)</text><ellipse cx="317.5" cy="793.1543" fill="#84BE84" rx="3" ry="3" style="stroke: #038048; stroke-width: 1.0;"/><text fill="#000000" font-family="sans-serif" font-size="11" lengthAdjust="spacingAndGlyphs" textLength="213" x="326.5" y="796.7891">__exit__(self, exc_type, exc_val, exc_tb)</text><ellipse cx="317.5" cy="806.1094" fill="#84BE84" rx="3" ry="3" style="stroke: #038048; stroke-width: 1.0;"/><text fill="#000000" font-family="sans-serif" font-size="11" lengthAdjust="spacingAndGlyphs" textLength="68" x="326.5" y="809.7441">__init__(self)</text><rect fill="#F24D5C" height="6" style="stroke: #C82930; stroke-width: 1.0;" width="6" x="314.5" y="816.0645"/><text fill="#000000" font-family="sans-serif" font-size="11" lengthAdjust="spacingAndGlyphs" textLength="184" x="326.5" y="822.6992">_format(self, kind, txt, txt2=None)</text><ellipse cx="317.5" cy="832.0195" fill="#84BE84" rx="3" ry="3" style="stroke: #038048; stroke-width: 1.0;"/><text fill="#000000" font-family="sans-serif" font-size="11" lengthAdjust="spacingAndGlyphs" textLength="122" x="326.5" y="835.6543">delete_format(self, txt)</text><ellipse cx="317.5" cy="844.9746" fill="#84BE84" rx="3" ry="3" style="stroke: #038048; stroke-width: 1.0;"/><text fill="#000000" font-family="sans-serif" font-size="11" lengthAdjust="spacingAndGlyphs" textLength="119" x="326.5" y="848.6094">equal_format(self, txt)</text><ellipse cx="317.5" cy="857.9297" fill="#84BE84" rx="3" ry="3" style="stroke: #038048; stroke-width: 1.0;"/><text fill="#000000" font-family="sans-serif" font-size="11" lengthAdjust="spacingAndGlyphs" textLength="121" x="326.5" y="861.5645">insert_format(self, txt)</text><ellipse cx="317.5" cy="870.8848" fill="#84BE84" rx="3" ry="3" style="stroke: #038048; stroke-width: 1.0;"/><text fill="#000000" font-family="sans-serif" font-size="11" lengthAdjust="spacingAndGlyphs" textLength="63" x="326.5" y="874.5195">output(self)</text><ellipse cx="317.5" cy="883.8398" fill="#84BE84" rx="3" ry="3" style="stroke: #038048; stroke-width: 1.0;"/><text fill="#000000" font-family="sans-serif" font-size="11" lengthAdjust="spacingAndGlyphs" textLength="96" x="326.5" y="887.4746">preprocessor(txt)</text><ellipse cx="317.5" cy="896.7949" fill="#84BE84" rx="3" ry="3" style="stroke: #038048; stroke-width: 1.0;"/><text fill="#000000" font-family="sans-serif" font-size="11" lengthAdjust="spacingAndGlyphs" textLength="133" x="326.5" y="900.4297">replace_format(self, a, b)</text></a><!--MD5=[6cf5df66c86567a6b2395a7b84882531]
class benchmarkstt.diff.formatter.ListDialect--><a href="https://benchmarkstt.readthedocs.io/en/latest/modules/benchmarkstt.diff.formatter.html#benchmarkstt.diff.formatter.ListDialect" target="_top" title="https://benchmarkstt.readthedocs.io/en/latest/modules/benchmarkstt.diff.formatter.html#benchmarkstt.diff.formatter.ListDialect" xlink:actuate="onRequest" xlink:href="https://benchmarkstt.readthedocs.io/en/latest/modules/benchmarkstt.diff.formatter.html#benchmarkstt.diff.formatter.ListDialect" xlink:show="new" xlink:title="https://benchmarkstt.readthedocs.io/en/latest/modules/benchmarkstt.diff.formatter.html#benchmarkstt.diff.formatter.ListDialect" xlink:type="simple"><rect fill="#FEFECE" filter="url(#f1h8oyvqrfayju)" height="177.5508" id="benchmarkstt.diff.formatter.ListDialect" style="stroke: #A80036; stroke-width: 1.5;" width="239" x="306.5" y="356.6992"/><ellipse cx="392.75" cy="372.6992" fill="#ADD1B2" rx="11" ry="11" style="stroke: #A80036; stroke-width: 1.0;"/><path d="M395.2231,378.8423 Q394.6421,379.1411 394.0029,379.2905 Q393.3638,379.4399 392.6582,379.4399 Q390.1514,379.4399 388.8315,377.7881 Q387.5117,376.1362 387.5117,373.0151 Q387.5117,369.8857 388.8315,368.2339 Q390.1514,366.582 392.6582,366.582 Q393.3638,366.582 394.0112,366.7314 Q394.6587,366.8809 395.2231,367.1797 L395.2231,369.9023 Q394.5923,369.3213 393.9988,369.0515 Q393.4053,368.7817 392.7744,368.7817 Q391.4297,368.7817 390.7449,369.8484 Q390.0601,370.915 390.0601,373.0151 Q390.0601,375.1069 390.7449,376.1736 Q391.4297,377.2402 392.7744,377.2402 Q393.4053,377.2402 393.9988,376.9705 Q394.5923,376.7007 395.2231,376.1196 Z "/><text fill="#000000" font-family="sans-serif" font-size="12" lengthAdjust="spacingAndGlyphs" textLength="58" x="413.25" y="377.2344">ListDialect</text><line style="stroke: #A80036; stroke-width: 1.5;" x1="307.5" x2="544.5" y1="388.6992" y2="388.6992"/><line style="stroke: #A80036; stroke-width: 1.5;" x1="307.5" x2="544.5" y1="396.6992" y2="396.6992"/><ellipse cx="317.5" cy="407.6992" fill="#84BE84" rx="3" ry="3" style="stroke: #038048; stroke-width: 1.0;"/><text fill="#000000" font-family="sans-serif" font-size="11" lengthAdjust="spacingAndGlyphs" textLength="79" x="326.5" y="411.334">__enter__(self)</text><ellipse cx="317.5" cy="420.6543" fill="#84BE84" rx="3" ry="3" style="stroke: #038048; stroke-width: 1.0;"/><text fill="#000000" font-family="sans-serif" font-size="11" lengthAdjust="spacingAndGlyphs" textLength="213" x="326.5" y="424.2891">__exit__(self, exc_type, exc_val, exc_tb)</text><ellipse cx="317.5" cy="433.6094" fill="#84BE84" rx="3" ry="3" style="stroke: #038048; stroke-width: 1.0;"/><text fill="#000000" font-family="sans-serif" font-size="11" lengthAdjust="spacingAndGlyphs" textLength="68" x="326.5" y="437.2441">__init__(self)</text><rect fill="#F24D5C" height="6" style="stroke: #C82930; stroke-width: 1.0;" width="6" x="314.5" y="443.5645"/><text fill="#000000" font-family="sans-serif" font-size="11" lengthAdjust="spacingAndGlyphs" textLength="184" x="326.5" y="450.1992">_format(self, kind, txt, txt2=None)</text><ellipse cx="317.5" cy="459.5195" fill="#84BE84" rx="3" ry="3" style="stroke: #038048; stroke-width: 1.0;"/><text fill="#000000" font-family="sans-serif" font-size="11" lengthAdjust="spacingAndGlyphs" textLength="122" x="326.5" y="463.1543">delete_format(self, txt)</text><ellipse cx="317.5" cy="472.4746" fill="#84BE84" rx="3" ry="3" style="stroke: #038048; stroke-width: 1.0;"/><text fill="#000000" font-family="sans-serif" font-size="11" lengthAdjust="spacingAndGlyphs" textLength="119" x="326.5" y="476.1094">equal_format(self, txt)</text><ellipse cx="317.5" cy="485.4297" fill="#84BE84" rx="3" ry="3" style="stroke: #038048; stroke-width: 1.0;"/><text fill="#000000" font-family="sans-serif" font-size="11" lengthAdjust="spacingAndGlyphs" textLength="121" x="326.5" y="489.0645">insert_format(self, txt)</text><ellipse cx="317.5" cy="498.3848" fill="#84BE84" rx="3" ry="3" style="stroke: #038048; stroke-width: 1.0;"/><text fill="#000000" font-family="sans-serif" font-size="11" lengthAdjust="spacingAndGlyphs" textLength="63" x="326.5" y="502.0195">output(self)</text><ellipse cx="317.5" cy="511.3398" fill="#84BE84" rx="3" ry="3" style="stroke: #038048; stroke-width: 1.0;"/><text fill="#000000" font-family="sans-serif" font-size="11" lengthAdjust="spacingAndGlyphs" textLength="96" x="326.5" y="514.9746">preprocessor(txt)</text><ellipse cx="317.5" cy="524.2949" fill="#84BE84" rx="3" ry="3" style="stroke: #038048; stroke-width: 1.0;"/><text fill="#000000" font-family="sans-serif" font-size="11" lengthAdjust="spacingAndGlyphs" textLength="133" x="326.5" y="527.9297">replace_format(self, a, b)</text></a><!--MD5=[b5a1150753ccdd8cb32cc363de6d4f06]
class benchmarkstt.diff.formatter.RestructuredTextDialect--><a href="https://benchmarkstt.readthedocs.io/en/latest/modules/benchmarkstt.diff.formatter.html#benchmarkstt.diff.formatter.RestructuredTextDialect" target="_top" title="https://benchmarkstt.readthedocs.io/en/latest/modules/benchmarkstt.diff.formatter.html#benchmarkstt.diff.formatter.RestructuredTextDialect" xlink:actuate="onRequest" xlink:href="https://benchmarkstt.readthedocs.io/en/latest/modules/benchmarkstt.diff.formatter.html#benchmarkstt.diff.formatter.RestructuredTextDialect" xlink:show="new" xlink:title="https://benchmarkstt.readthedocs.io/en/latest/modules/benchmarkstt.diff.formatter.html#benchmarkstt.diff.formatter.RestructuredTextDialect" xlink:type="simple"><rect fill="#FEFECE" filter="url(#f1h8oyvqrfayju)" height="112.7754" id="benchmarkstt.diff.formatter.RestructuredTextDialect" style="stroke: #A80036; stroke-width: 1.5;" width="239" x="32.5" y="761.6992"/><ellipse cx="78.25" cy="777.6992" fill="#ADD1B2" rx="11" ry="11" style="stroke: #A80036; stroke-width: 1.0;"/><path d="M80.7231,783.8423 Q80.1421,784.1411 79.5029,784.2905 Q78.8638,784.4399 78.1582,784.4399 Q75.6514,784.4399 74.3315,782.7881 Q73.0117,781.1362 73.0117,778.0151 Q73.0117,774.8857 74.3315,773.2339 Q75.6514,771.582 78.1582,771.582 Q78.8638,771.582 79.5112,771.7314 Q80.1587,771.8809 80.7231,772.1797 L80.7231,774.9023 Q80.0923,774.3213 79.4988,774.0515 Q78.9053,773.7817 78.2744,773.7817 Q76.9297,773.7817 76.2449,774.8484 Q75.5601,775.915 75.5601,778.0151 Q75.5601,780.1069 76.2449,781.1736 Q76.9297,782.2402 78.2744,782.2402 Q78.9053,782.2402 79.4988,781.9705 Q80.0923,781.7007 80.7231,781.1196 Z "/><text fill="#000000" font-family="sans-serif" font-size="12" lengthAdjust="spacingAndGlyphs" textLength="139" x="98.75" y="782.2344">RestructuredTextDialect</text><line style="stroke: #A80036; stroke-width: 1.5;" x1="33.5" x2="270.5" y1="793.6992" y2="793.6992"/><line style="stroke: #A80036; stroke-width: 1.5;" x1="33.5" x2="270.5" y1="801.6992" y2="801.6992"/><ellipse cx="43.5" cy="812.6992" fill="#84BE84" rx="3" ry="3" style="stroke: #038048; stroke-width: 1.0;"/><text fill="#000000" font-family="sans-serif" font-size="11" lengthAdjust="spacingAndGlyphs" textLength="79" x="52.5" y="816.334">__enter__(self)</text><ellipse cx="43.5" cy="825.6543" fill="#84BE84" rx="3" ry="3" style="stroke: #038048; stroke-width: 1.0;"/><text fill="#000000" font-family="sans-serif" font-size="11" lengthAdjust="spacingAndGlyphs" textLength="213" x="52.5" y="829.2891">__exit__(self, exc_type, exc_val, exc_tb)</text><ellipse cx="43.5" cy="838.6094" fill="#84BE84" rx="3" ry="3" style="stroke: #038048; stroke-width: 1.0;"/><text fill="#000000" font-family="sans-serif" font-size="11" lengthAdjust="spacingAndGlyphs" textLength="197" x="52.5" y="842.2441">__init__(self, show_color_key=None)</text><ellipse cx="43.5" cy="851.5645" fill="#84BE84" rx="3" ry="3" style="stroke: #038048; stroke-width: 1.0;"/><text fill="#000000" font-family="sans-serif" font-size="11" lengthAdjust="spacingAndGlyphs" textLength="63" x="52.5" y="855.1992">output(self)</text><ellipse cx="43.5" cy="864.5195" fill="#84BE84" rx="3" ry="3" style="stroke: #038048; stroke-width: 1.0;"/><text fill="#000000" font-family="sans-serif" font-size="11" lengthAdjust="spacingAndGlyphs" textLength="96" x="52.5" y="868.1543">preprocessor(txt)</text></a><!--MD5=[e0d2253a58427e0d1251f683d337a24a]
class benchmarkstt.diff.formatter.UTF8Dialect--><a href="https://benchmarkstt.readthedocs.io/en/latest/modules/benchmarkstt.diff.formatter.html#benchmarkstt.diff.formatter.UTF8Dialect" target="_top" title="https://benchmarkstt.readthedocs.io/en/latest/modules/benchmarkstt.diff.formatter.html#benchmarkstt.diff.formatter.UTF8Dialect" xlink:actuate="onRequest" xlink:href="https://benchmarkstt.readthedocs.io/en/latest/modules/benchmarkstt.diff.formatter.html#benchmarkstt.diff.formatter.UTF8Dialect" xlink:show="new" xlink:title="https://benchmarkstt.readthedocs.io/en/latest/modules/benchmarkstt.diff.formatter.html#benchmarkstt.diff.formatter.UTF8Dialect" xlink:type="simple"><rect fill="#FEFECE" filter="url(#f1h8oyvqrfayju)" height="138.6855" id="benchmarkstt.diff.formatter.UTF8Dialect" style="stroke: #A80036; stroke-width: 1.5;" width="239" x="854.5" y="376.1992"/><ellipse cx="935.25" cy="392.1992" fill="#ADD1B2" rx="11" ry="11" style="stroke: #A80036; stroke-width: 1.0;"/><path d="M937.7231,398.3423 Q937.1421,398.6411 936.5029,398.7905 Q935.8638,398.9399 935.1582,398.9399 Q932.6514,398.9399 931.3315,397.2881 Q930.0117,395.6362 930.0117,392.5151 Q930.0117,389.3857 931.3315,387.7339 Q932.6514,386.082 935.1582,386.082 Q935.8638,386.082 936.5112,386.2314 Q937.1587,386.3809 937.7231,386.6797 L937.7231,389.4023 Q937.0923,388.8213 936.4988,388.5515 Q935.9053,388.2817 935.2744,388.2817 Q933.9297,388.2817 933.2449,389.3484 Q932.5601,390.415 932.5601,392.5151 Q932.5601,394.6069 933.2449,395.6736 Q933.9297,396.7402 935.2744,396.7402 Q935.9053,396.7402 936.4988,396.4705 Q937.0923,396.2007 937.7231,395.6196 Z "/><text fill="#000000" font-family="sans-serif" font-size="12" lengthAdjust="spacingAndGlyphs" textLength="69" x="955.75" y="396.7344">UTF8Dialect</text><line style="stroke: #A80036; stroke-width: 1.5;" x1="855.5" x2="1092.5" y1="408.1992" y2="408.1992"/><line style="stroke: #A80036; stroke-width: 1.5;" x1="855.5" x2="1092.5" y1="416.1992" y2="416.1992"/><ellipse cx="865.5" cy="427.1992" fill="#84BE84" rx="3" ry="3" style="stroke: #038048; stroke-width: 1.0;"/><text fill="#000000" font-family="sans-serif" font-size="11" lengthAdjust="spacingAndGlyphs" textLength="79" x="874.5" y="430.834">__enter__(self)</text><ellipse cx="865.5" cy="440.1543" fill="#84BE84" rx="3" ry="3" style="stroke: #038048; stroke-width: 1.0;"/><text fill="#000000" font-family="sans-serif" font-size="11" lengthAdjust="spacingAndGlyphs" textLength="213" x="874.5" y="443.7891">__exit__(self, exc_type, exc_val, exc_tb)</text><ellipse cx="865.5" cy="453.1094" fill="#84BE84" rx="3" ry="3" style="stroke: #038048; stroke-width: 1.0;"/><text fill="#000000" font-family="sans-serif" font-size="11" lengthAdjust="spacingAndGlyphs" textLength="68" x="874.5" y="456.7441">__init__(self)</text><ellipse cx="865.5" cy="466.0645" fill="#84BE84" rx="3" ry="3" style="stroke: #038048; stroke-width: 1.0;"/><text fill="#000000" font-family="sans-serif" font-size="11" lengthAdjust="spacingAndGlyphs" textLength="122" x="874.5" y="469.6992">delete_format(self, txt)</text><ellipse cx="865.5" cy="479.0195" fill="#84BE84" rx="3" ry="3" style="stroke: #038048; stroke-width: 1.0;"/><text fill="#000000" font-family="sans-serif" font-size="11" lengthAdjust="spacingAndGlyphs" textLength="121" x="874.5" y="482.6543">insert_format(self, txt)</text><ellipse cx="865.5" cy="491.9746" fill="#84BE84" rx="3" ry="3" style="stroke: #038048; stroke-width: 1.0;"/><text fill="#000000" font-family="sans-serif" font-size="11" lengthAdjust="spacingAndGlyphs" textLength="63" x="874.5" y="495.6094">output(self)</text><ellipse cx="865.5" cy="504.9297" fill="#84BE84" rx="3" ry="3" style="stroke: #038048; stroke-width: 1.0;"/><text fill="#000000" font-family="sans-serif" font-size="11" lengthAdjust="spacingAndGlyphs" textLength="96" x="874.5" y="508.5645">preprocessor(txt)</text></a><!--MD5=[6aa6ae3a879840a73b19fd2777afca9b]
class benchmarkstt.diff.Base--><a href="https://benchmarkstt.readthedocs.io/en/latest/modules/benchmarkstt.diff.html#benchmarkstt.diff.Base" target="_top" title="https://benchmarkstt.readthedocs.io/en/latest/modules/benchmarkstt.diff.html#benchmarkstt.diff.Base" xlink:actuate="onRequest" xlink:href="https://benchmarkstt.readthedocs.io/en/latest/modules/benchmarkstt.diff.html#benchmarkstt.diff.Base" xlink:show="new" xlink:title="https://benchmarkstt.readthedocs.io/en/latest/modules/benchmarkstt.diff.html#benchmarkstt.diff.Base" xlink:type="simple"><rect fill="#FEFECE" filter="url(#f1h8oyvqrfayju)" height="73.9102" id="benchmarkstt.diff.Base" style="stroke: #A80036; stroke-width: 1.5;" width="149" x="1200.5" y="75.1992"/><ellipse cx="1257.25" cy="91.1992" fill="#ADD1B2" rx="11" ry="11" style="stroke: #A80036; stroke-width: 1.0;"/><path d="M1259.7231,97.3423 Q1259.1421,97.6411 1258.5029,97.7905 Q1257.8638,97.9399 1257.1582,97.9399 Q1254.6514,97.9399 1253.3315,96.2881 Q1252.0117,94.6362 1252.0117,91.5151 Q1252.0117,88.3857 1253.3315,86.7339 Q1254.6514,85.082 1257.1582,85.082 Q1257.8638,85.082 1258.5112,85.2314 Q1259.1587,85.3809 1259.7231,85.6797 L1259.7231,88.4023 Q1259.0923,87.8213 1258.4988,87.5515 Q1257.9053,87.2817 1257.2744,87.2817 Q1255.9297,87.2817 1255.2449,88.3484 Q1254.5601,89.415 1254.5601,91.5151 Q1254.5601,93.6069 1255.2449,94.6736 Q1255.9297,95.7402 1257.2744,95.7402 Q1257.9053,95.7402 1258.4988,95.4705 Q1259.0923,95.2007 1259.7231,94.6196 Z "/><text fill="#000000" font-family="sans-serif" font-size="12" lengthAdjust="spacingAndGlyphs" textLength="27" x="1277.75" y="95.7344">Base</text><line style="stroke: #A80036; stroke-width: 1.5;" x1="1201.5" x2="1348.5" y1="107.1992" y2="107.1992"/><line style="stroke: #A80036; stroke-width: 1.5;" x1="1201.5" x2="1348.5" y1="115.1992" y2="115.1992"/><ellipse cx="1211.5" cy="126.1992" fill="#84BE84" rx="3" ry="3" style="stroke: #038048; stroke-width: 1.0;"/><text fill="#000000" font-family="sans-serif" font-size="11" lengthAdjust="spacingAndGlyphs" textLength="123" x="1220.5" y="129.834">__init__(self, a='', b='')</text><ellipse cx="1211.5" cy="139.1543" fill="#84BE84" rx="3" ry="3" style="stroke: #038048; stroke-width: 1.0;"/><text fill="#000000" font-family="sans-serif" font-size="11" lengthAdjust="spacingAndGlyphs" textLength="96" x="1220.5" y="142.7891">get_opcodes(self)</text></a><!--MD5=[5eef32e9538f5dcdb68c61d368837619]
class benchmarkstt.diff.core.RatcliffObershelp--><a href="https://benchmarkstt.readthedocs.io/en/latest/modules/benchmarkstt.diff.core.html#benchmarkstt.diff.core.RatcliffObershelp" target="_top" title="https://benchmarkstt.readthedocs.io/en/latest/modules/benchmarkstt.diff.core.html#benchmarkstt.diff.core.RatcliffObershelp" xlink:actuate="onRequest" xlink:href="https://benchmarkstt.readthedocs.io/en/latest/modules/benchmarkstt.diff.core.html#benchmarkstt.diff.core.RatcliffObershelp" xlink:show="new" xlink:title="https://benchmarkstt.readthedocs.io/en/latest/modules/benchmarkstt.diff.core.html#benchmarkstt.diff.core.RatcliffObershelp" xlink:type="simple"><rect fill="#FEFECE" filter="url(#f1h8oyvqrfayju)" height="203.4609" id="benchmarkstt.diff.core.RatcliffObershelp" style="stroke: #A80036; stroke-width: 1.5;" width="249" x="1150.5" y="344.1992"/><ellipse cx="1221.25" cy="360.1992" fill="#ADD1B2" rx="11" ry="11" style="stroke: #A80036; stroke-width: 1.0;"/><path d="M1223.7231,366.3423 Q1223.1421,366.6411 1222.5029,366.7905 Q1221.8638,366.9399 1221.1582,366.9399 Q1218.6514,366.9399 1217.3315,365.2881 Q1216.0117,363.6362 1216.0117,360.5151 Q1216.0117,357.3857 1217.3315,355.7339 Q1218.6514,354.082 1221.1582,354.082 Q1221.8638,354.082 1222.5112,354.2314 Q1223.1587,354.3809 1223.7231,354.6797 L1223.7231,357.4023 Q1223.0923,356.8213 1222.4988,356.5515 Q1221.9053,356.2817 1221.2744,356.2817 Q1219.9297,356.2817 1219.2449,357.3484 Q1218.5601,358.415 1218.5601,360.5151 Q1218.5601,362.6069 1219.2449,363.6736 Q1219.9297,364.7402 1221.2744,364.7402 Q1221.9053,364.7402 1222.4988,364.4705 Q1223.0923,364.2007 1223.7231,363.6196 Z "/><text fill="#000000" font-family="sans-serif" font-size="12" lengthAdjust="spacingAndGlyphs" textLength="99" x="1241.75" y="364.7344">RatcliffObershelp</text><line style="stroke: #A80036; stroke-width: 1.5;" x1="1151.5" x2="1398.5" y1="376.1992" y2="376.1992"/><line style="stroke: #A80036; stroke-width: 1.5;" x1="1151.5" x2="1398.5" y1="384.1992" y2="384.1992"/><rect fill="#F24D5C" height="6" style="stroke: #C82930; stroke-width: 1.0;" width="6" x="1158.5" y="392.1992"/><text fill="#000000" font-family="sans-serif" font-size="11" lengthAdjust="spacingAndGlyphs" textLength="181" x="1170.5" y="398.834">_SequenceMatcher__chain_b(self)</text><ellipse cx="1161.5" cy="408.1543" fill="#84BE84" rx="3" ry="3" style="stroke: #038048; stroke-width: 1.0;"/><text fill="#000000" font-family="sans-serif" font-size="11" lengthAdjust="spacingAndGlyphs" textLength="182" x="1170.5" y="411.7891">__init__(self, a, b, *args, **kwargs)</text><ellipse cx="1161.5" cy="421.1094" fill="#84BE84" rx="3" ry="3" style="stroke: #038048; stroke-width: 1.0;"/><text fill="#000000" font-family="sans-serif" font-size="11" lengthAdjust="spacingAndGlyphs" textLength="223" x="1170.5" y="424.7441">find_longest_match(self, alo, ahi, blo, bhi)</text><ellipse cx="1161.5" cy="434.0645" fill="#84BE84" rx="3" ry="3" style="stroke: #038048; stroke-width: 1.0;"/><text fill="#000000" font-family="sans-serif" font-size="11" lengthAdjust="spacingAndGlyphs" textLength="177" x="1170.5" y="437.6992">get_grouped_opcodes(self, n=3)</text><ellipse cx="1161.5" cy="447.0195" fill="#84BE84" rx="3" ry="3" style="stroke: #038048; stroke-width: 1.0;"/><text fill="#000000" font-family="sans-serif" font-size="11" lengthAdjust="spacingAndGlyphs" textLength="141" x="1170.5" y="450.6543">get_matching_blocks(self)</text><ellipse cx="1161.5" cy="459.9746" fill="#84BE84" rx="3" ry="3" style="stroke: #038048; stroke-width: 1.0;"/><text fill="#000000" font-family="sans-serif" font-size="11" lengthAdjust="spacingAndGlyphs" textLength="96" x="1170.5" y="463.6094">get_opcodes(self)</text><ellipse cx="1161.5" cy="472.9297" fill="#84BE84" rx="3" ry="3" style="stroke: #038048; stroke-width: 1.0;"/><text fill="#000000" font-family="sans-serif" font-size="11" lengthAdjust="spacingAndGlyphs" textLength="87" x="1170.5" y="476.5645">quick_ratio(self)</text><ellipse cx="1161.5" cy="485.8848" fill="#84BE84" rx="3" ry="3" style="stroke: #038048; stroke-width: 1.0;"/><text fill="#000000" font-family="sans-serif" font-size="11" lengthAdjust="spacingAndGlyphs" textLength="52" x="1170.5" y="489.5195">ratio(self)</text><ellipse cx="1161.5" cy="498.8398" fill="#84BE84" rx="3" ry="3" style="stroke: #038048; stroke-width: 1.0;"/><text fill="#000000" font-family="sans-serif" font-size="11" lengthAdjust="spacingAndGlyphs" textLength="113" x="1170.5" y="502.4746">real_quick_ratio(self)</text><ellipse cx="1161.5" cy="511.7949" fill="#84BE84" rx="3" ry="3" style="stroke: #038048; stroke-width: 1.0;"/><text fill="#000000" font-family="sans-serif" font-size="11" lengthAdjust="spacingAndGlyphs" textLength="87" x="1170.5" y="515.4297">set_seq1(self, a)</text><ellipse cx="1161.5" cy="524.75" fill="#84BE84" rx="3" ry="3" style="stroke: #038048; stroke-width: 1.0;"/><text fill="#000000" font-family="sans-serif" font-size="11" lengthAdjust="spacingAndGlyphs" textLength="88" x="1170.5" y="528.3848">set_seq2(self, b)</text><ellipse cx="1161.5" cy="537.7051" fill="#84BE84" rx="3" ry="3" style="stroke: #038048; stroke-width: 1.0;"/><text fill="#000000" font-family="sans-serif" font-size="11" lengthAdjust="spacingAndGlyphs" textLength="99" x="1170.5" y="541.3398">set_seqs(self, a, b)</text></a><!--MD5=[2db0c2459354a46506eaa1f007d56121]
reverse link benchmarkstt.diff.formatter.Dialect to benchmarkstt.diff.formatter.CLIDiffDialect--><path d="M512.57,170.9792 C442.66,204.1192 357.69,249.4092 289,301.1992 C255.31,326.5992 222.49,360.5492 197.43,389.0492 " fill="none" id="benchmarkstt.diff.formatter.Dialect&lt;-benchmarkstt.diff.formatter.CLIDiffDialect" style="stroke: #A80036; stroke-width: 1.0;"/><polygon fill="none" points="509.85,164.5192,530.93,162.3892,515.78,177.1992,509.85,164.5192" style="stroke: #A80036; stroke-width: 1.0;"/><!--MD5=[112058220c56443896afbf42f17a88fb]
reverse link benchmarkstt.diff.formatter.Dialect to benchmarkstt.diff.formatter.HTMLDiffDialect--><path d="M658.09,182.5492 C667.9,243.8992 682.02,332.2392 691.1,389.0592 " fill="none" id="benchmarkstt.diff.formatter.Dialect&lt;-benchmarkstt.diff.formatter.HTMLDiffDialect" style="stroke: #A80036; stroke-width: 1.0;"/><polygon fill="none" points="651.12,183.3292,654.88,162.4692,664.95,181.1092,651.12,183.3292" style="stroke: #A80036; stroke-width: 1.0;"/><!--MD5=[d18a5de9ed5cb9a1cce4fd0dce2b6adb]
reverse link benchmarkstt.diff.formatter.ListDialect to benchmarkstt.diff.formatter.JSONDiffDialect--><path d="M426,555.1792 C426,610.4692 426,676.8492 426,728.9592 " fill="none" id="benchmarkstt.diff.formatter.ListDialect&lt;-benchmarkstt.diff.formatter.JSONDiffDialect" style="stroke: #A80036; stroke-width: 1.0;"/><polygon fill="none" points="419,554.9692,426,534.9692,433,554.9692,419,554.9692" style="stroke: #A80036; stroke-width: 1.0;"/><!--MD5=[cd06825e171c0cb66bd892fe633a200a]
reverse link benchmarkstt.diff.formatter.Dialect to benchmarkstt.diff.formatter.ListDialect--><path d="M602.98,179.2292 C569.1,230.0492 521.94,300.7792 484.83,356.4592 " fill="none" id="benchmarkstt.diff.formatter.Dialect&lt;-benchmarkstt.diff.formatter.ListDialect" style="stroke: #A80036; stroke-width: 1.0;"/><polygon fill="none" points="597.23,175.2292,614.15,162.4692,608.88,182.9892,597.23,175.2292" style="stroke: #A80036; stroke-width: 1.0;"/><!--MD5=[42bef6836bc68c456f75427094de6c35]
reverse link benchmarkstt.diff.formatter.CLIDiffDialect to benchmarkstt.diff.formatter.RestructuredTextDialect--><path d="M152,522.9992 C152,593.9592 152,698.0192 152,761.4792 " fill="none" id="benchmarkstt.diff.formatter.CLIDiffDialect&lt;-benchmarkstt.diff.formatter.RestructuredTextDialect" style="stroke: #A80036; stroke-width: 1.0;"/><polygon fill="none" points="145,522.5692,152,502.5692,159,522.5692,145,522.5692" style="stroke: #A80036; stroke-width: 1.0;"/><!--MD5=[dab5b0c4d09e39186ea8a57da41e6cde]
reverse link benchmarkstt.diff.formatter.Dialect to benchmarkstt.diff.formatter.UTF8Dialect--><path d="M712.04,176.6492 C748.94,212.8792 795.84,259.2992 837,301.1992 C860.77,325.3992 886.54,352.2292 909.24,376.0692 " fill="none" id="benchmarkstt.diff.formatter.Dialect&lt;-benchmarkstt.diff.formatter.UTF8Dialect" style="stroke: #A80036; stroke-width: 1.0;"/><polygon fill="none" points="706.77,181.2892,697.39,162.2892,716.57,171.2992,706.77,181.2892" style="stroke: #A80036; stroke-width: 1.0;"/><!--MD5=[995a509b438cdc2d97b80485f82ea7f7]
reverse link benchmarkstt.diff.Base to benchmarkstt.diff.core.RatcliffObershelp--><path d="M1275,169.5792 C1275,217.3092 1275,286.9092 1275,344.1592 " fill="none" id="benchmarkstt.diff.Base&lt;-benchmarkstt.diff.core.RatcliffObershelp" style="stroke: #A80036; stroke-width: 1.0;"/><polygon fill="none" points="1268,169.3092,1275,149.3092,1282,169.3092,1268,169.3092" style="stroke: #A80036; stroke-width: 1.0;"/><!--MD5=[3a82a4f81906e0f60f22d3c5436a3877]
@startuml

title benchmarkstt.diff

package benchmarkstt.diff.formatter {

	class benchmarkstt.diff.formatter.CLIDiffDialect [[https://benchmarkstt.readthedocs.io/en/latest/modules/benchmarkstt.diff.formatter.html#benchmarkstt.diff.formatter.CLIDiffDialect]] {
		+__enter__(self)
		+__exit__(self, exc_type, exc_val, exc_tb)
		+__init__(self, show_color_key=None)
		+output(self)
		+preprocessor(txt)
	}


	class benchmarkstt.diff.formatter.Dialect [[https://benchmarkstt.readthedocs.io/en/latest/modules/benchmarkstt.diff.formatter.html#benchmarkstt.diff.formatter.Dialect]] {
		+__enter__(self)
		+__exit__(self, exc_type, exc_val, exc_tb)
		+__init__(self)
		+output(self)
	}


	class benchmarkstt.diff.formatter.DiffFormatter [[https://benchmarkstt.readthedocs.io/en/latest/modules/benchmarkstt.diff.formatter.html#benchmarkstt.diff.formatter.DiffFormatter]] {
		+__init__(self, dialect=None, *args, **kwargs)
		+diff(self, a, b, opcodes=None, preprocessor=None)
		{static} +has_dialect(dialect)
	}


	class benchmarkstt.diff.formatter.HTMLDiffDialect [[https://benchmarkstt.readthedocs.io/en/latest/modules/benchmarkstt.diff.formatter.html#benchmarkstt.diff.formatter.HTMLDiffDialect]] {
		+__enter__(self)
		+__exit__(self, exc_type, exc_val, exc_tb)
		+__init__(self)
		+output(self)
		+preprocessor(txt)
	}


	class benchmarkstt.diff.formatter.JSONDiffDialect [[https://benchmarkstt.readthedocs.io/en/latest/modules/benchmarkstt.diff.formatter.html#benchmarkstt.diff.formatter.JSONDiffDialect]] {
		+__enter__(self)
		+__exit__(self, exc_type, exc_val, exc_tb)
		+__init__(self)
		-_format(self, kind, txt, txt2=None)
		+delete_format(self, txt)
		+equal_format(self, txt)
		+insert_format(self, txt)
		+output(self)
		+preprocessor(txt)
		+replace_format(self, a, b)
	}


	class benchmarkstt.diff.formatter.ListDialect [[https://benchmarkstt.readthedocs.io/en/latest/modules/benchmarkstt.diff.formatter.html#benchmarkstt.diff.formatter.ListDialect]] {
		+__enter__(self)
		+__exit__(self, exc_type, exc_val, exc_tb)
		+__init__(self)
		-_format(self, kind, txt, txt2=None)
		+delete_format(self, txt)
		+equal_format(self, txt)
		+insert_format(self, txt)
		+output(self)
		+preprocessor(txt)
		+replace_format(self, a, b)
	}



	class benchmarkstt.diff.formatter.RestructuredTextDialect [[https://benchmarkstt.readthedocs.io/en/latest/modules/benchmarkstt.diff.formatter.html#benchmarkstt.diff.formatter.RestructuredTextDialect]] {
		+__enter__(self)
		+__exit__(self, exc_type, exc_val, exc_tb)
		+__init__(self, show_color_key=None)
		+output(self)
		+preprocessor(txt)
	}




	class benchmarkstt.diff.formatter.UTF8Dialect [[https://benchmarkstt.readthedocs.io/en/latest/modules/benchmarkstt.diff.formatter.html#benchmarkstt.diff.formatter.UTF8Dialect]] {
		+__enter__(self)
		+__exit__(self, exc_type, exc_val, exc_tb)
		+__init__(self)
		+delete_format(self, txt)
		+insert_format(self, txt)
		+output(self)
		+preprocessor(txt)
	}

}

package benchmarkstt.diff {

	class benchmarkstt.diff.Base [[https://benchmarkstt.readthedocs.io/en/latest/modules/benchmarkstt.diff.html#benchmarkstt.diff.Base]] {
		+__init__(self, a='', b='')
		+get_opcodes(self)
	}


}

package benchmarkstt.diff.core {


	class benchmarkstt.diff.core.RatcliffObershelp [[https://benchmarkstt.readthedocs.io/en/latest/modules/benchmarkstt.diff.core.html#benchmarkstt.diff.core.RatcliffObershelp]] {
		-_SequenceMatcher__chain_b(self)
		+__init__(self, a, b, *args, **kwargs)
		+find_longest_match(self, alo, ahi, blo, bhi)
		+get_grouped_opcodes(self, n=3)
		+get_matching_blocks(self)
		+get_opcodes(self)
		+quick_ratio(self)
		+ratio(self)
		+real_quick_ratio(self)
		+set_seq1(self, a)
		+set_seq2(self, b)
		+set_seqs(self, a, b)
	}


}


benchmarkstt.diff.formatter.CLIDiffDialect - -up- -|> benchmarkstt.diff.formatter.Dialect
benchmarkstt.diff.formatter.HTMLDiffDialect - -up- -|> benchmarkstt.diff.formatter.Dialect
benchmarkstt.diff.formatter.JSONDiffDialect - -up- -|> benchmarkstt.diff.formatter.ListDialect
benchmarkstt.diff.formatter.ListDialect - -up- -|> benchmarkstt.diff.formatter.Dialect
benchmarkstt.diff.formatter.RestructuredTextDialect - -up- -|> benchmarkstt.diff.formatter.CLIDiffDialect
benchmarkstt.diff.formatter.UTF8Dialect - -up- -|> benchmarkstt.diff.formatter.Dialect
benchmarkstt.diff.core.RatcliffObershelp - -up- -|> benchmarkstt.diff.Base

@enduml

PlantUML version 1.2020.15(Sun Jun 28 13:39:45 CEST 2020)
(GPL source distribution)
Java Runtime: OpenJDK Runtime Environment
JVM: OpenJDK 64-Bit Server VM
Default Encoding: UTF-8
Language: en
Country: BE
--></g></svg>