<?xml version="1.0" encoding="UTF-8" standalone="no"?><svg xmlns="http://www.w3.org/2000/svg" xmlns:xlink="http://www.w3.org/1999/xlink" contentScriptType="application/ecmascript" contentStyleType="text/css" height="304px" preserveAspectRatio="none" style="width:667px;height:304px;" version="1.1" viewBox="0 0 667 304" width="667px" zoomAndPan="magnify"><defs><filter height="300%" id="fgbd3ikrqri58" width="300%" x="-1" y="-1"><feGaussianBlur result="blurOut" stdDeviation="2.0"/><feColorMatrix in="blurOut" result="blurOut2" type="matrix" values="0 0 0 0 0 0 0 0 0 0 0 0 0 0 0 0 0 0 .4 0"/><feOffset dx="4.0" dy="4.0" in="blurOut2" result="blurOut3"/><feBlend in="SourceGraphic" in2="blurOut3" mode="normal"/></filter></defs><g><text fill="#000000" font-family="Helvetica" font-size="18" lengthAdjust="spacingAndGlyphs" textLength="152" x="248.5" y="13.8604">benchmarkstt.input</text><!--MD5=[94de2ef9dde389aecb44d7f232eba8a2]
cluster benchmarkstt.input--><rect fill="#FFFFFF" filter="url(#fgbd3ikrqri58)" height="108" style="stroke: #000000; stroke-width: 1.5;" width="150" x="255" y="25"/><path d="M399,26 L399,32 L389,42 L255,42 " fill="none" style="stroke: #000000; stroke-width: 1.5;"/><text fill="#000000" font-family="Helvetica" font-size="14" font-weight="bold" lengthAdjust="spacingAndGlyphs" textLength="134" x="258" y="36.7803">benchmarkstt.input</text><!--MD5=[5c7a64d73ca244446f0e70026cf5d0bf]
cluster benchmarkstt.input.core--><rect fill="#FFFFFF" filter="url(#fgbd3ikrqri58)" height="130" style="stroke: #000000; stroke-width: 1.5;" width="643" x="7" y="157"/><path d="M185,158 L185,164 L175,174 L7,174 " fill="none" style="stroke: #000000; stroke-width: 1.5;"/><text fill="#000000" font-family="Helvetica" font-size="14" font-weight="bold" lengthAdjust="spacingAndGlyphs" textLength="168" x="10" y="168.7803">benchmarkstt.input.core</text><!--MD5=[d1e904a0c11302288bad0868539b156c]
class benchmarkstt.input.Base--><a href="https://benchmarkstt.readthedocs.io/en/latest/modules/benchmarkstt.input.html#benchmarkstt.input.Base" target="_top" title="https://benchmarkstt.readthedocs.io/en/latest/modules/benchmarkstt.input.html#benchmarkstt.input.Base" xlink:actuate="onRequest" xlink:href="https://benchmarkstt.readthedocs.io/en/latest/modules/benchmarkstt.input.html#benchmarkstt.input.Base" xlink:show="new" xlink:title="https://benchmarkstt.readthedocs.io/en/latest/modules/benchmarkstt.input.html#benchmarkstt.input.Base" xlink:type="simple"><rect fill="#FFFFFF" filter="url(#fgbd3ikrqri58)" height="59" id="benchmarkstt.input.Base" style="stroke: #000000; stroke-width: 1.0;" width="90" x="285" y="58"/><ellipse cx="313.5" cy="74" fill="#C2C2C2" rx="11" ry="11" style="stroke: #000000; stroke-width: 1.0;"/><path d="M315.9731,80.1431 Q315.3921,80.4419 314.7529,80.5913 Q314.1138,80.7407 313.4082,80.7407 Q310.9014,80.7407 309.5815,79.0889 Q308.2617,77.437 308.2617,74.3159 Q308.2617,71.1865 309.5815,69.5347 Q310.9014,67.8828 313.4082,67.8828 Q314.1138,67.8828 314.7612,68.0322 Q315.4087,68.1816 315.9731,68.4805 L315.9731,71.2031 Q315.3423,70.6221 314.7488,70.3523 Q314.1553,70.0825 313.5244,70.0825 Q312.1797,70.0825 311.4949,71.1492 Q310.8101,72.2158 310.8101,74.3159 Q310.8101,76.4077 311.4949,77.4744 Q312.1797,78.541 313.5244,78.541 Q314.1553,78.541 314.7488,78.2712 Q315.3423,78.0015 315.9731,77.4204 Z "/><text fill="#000000" font-family="Helvetica" font-size="12" lengthAdjust="spacingAndGlyphs" textLength="28" x="330.5" y="77.2402">Base</text><line style="stroke: #000000; stroke-width: 1.0;" x1="286" x2="374" y1="90" y2="90"/><line style="stroke: #000000; stroke-width: 1.0;" x1="286" x2="374" y1="98" y2="98"/><ellipse cx="296" cy="109" fill="#A6A6A6" rx="3" ry="3" style="stroke: #545454; stroke-width: 1.0;"/><text fill="#000000" font-family="Helvetica" font-size="11" lengthAdjust="spacingAndGlyphs" textLength="64" x="305" y="110.4702">__iter__(self)</text></a><!--MD5=[4843f7accda627844ca340f5d1efa37d]
class benchmarkstt.input.core.File--><a href="https://benchmarkstt.readthedocs.io/en/latest/modules/benchmarkstt.input.core.html#benchmarkstt.input.core.File" target="_top" title="https://benchmarkstt.readthedocs.io/en/latest/modules/benchmarkstt.input.core.html#benchmarkstt.input.core.File" xlink:actuate="onRequest" xlink:href="https://benchmarkstt.readthedocs.io/en/latest/modules/benchmarkstt.input.core.html#benchmarkstt.input.core.File" xlink:show="new" xlink:title="https://benchmarkstt.readthedocs.io/en/latest/modules/benchmarkstt.input.core.html#benchmarkstt.input.core.File" xlink:type="simple"><rect fill="#FFFFFF" filter="url(#fgbd3ikrqri58)" height="81" id="benchmarkstt.input.core.File" style="stroke: #000000; stroke-width: 1.0;" width="284" x="350" y="190"/><ellipse cx="477.75" cy="206" fill="#C2C2C2" rx="11" ry="11" style="stroke: #000000; stroke-width: 1.0;"/><path d="M480.2231,212.1431 Q479.6421,212.4419 479.0029,212.5913 Q478.3638,212.7407 477.6582,212.7407 Q475.1514,212.7407 473.8315,211.0889 Q472.5117,209.437 472.5117,206.3159 Q472.5117,203.1865 473.8315,201.5347 Q475.1514,199.8828 477.6582,199.8828 Q478.3638,199.8828 479.0112,200.0322 Q479.6587,200.1816 480.2231,200.4805 L480.2231,203.2031 Q479.5923,202.6221 478.9988,202.3523 Q478.4053,202.0825 477.7744,202.0825 Q476.4297,202.0825 475.7449,203.1492 Q475.0601,204.2158 475.0601,206.3159 Q475.0601,208.4077 475.7449,209.4744 Q476.4297,210.541 477.7744,210.541 Q478.4053,210.541 478.9988,210.2712 Q479.5923,210.0015 480.2231,209.4204 Z "/><text fill="#000000" font-family="Helvetica" font-size="12" lengthAdjust="spacingAndGlyphs" textLength="20" x="498.25" y="209.2402">File</text><line style="stroke: #000000; stroke-width: 1.0;" x1="351" x2="633" y1="222" y2="222"/><line style="stroke: #000000; stroke-width: 1.0;" x1="351" x2="633" y1="230" y2="230"/><ellipse cx="361" cy="241" fill="#A6A6A6" rx="3" ry="3" style="stroke: #545454; stroke-width: 1.0;"/><text fill="#000000" font-family="Helvetica" font-size="11" lengthAdjust="spacingAndGlyphs" textLength="258" x="370" y="242.4702">__init__(self, file, input_type=None, normalizer=None)</text><ellipse cx="361" cy="252" fill="#A6A6A6" rx="3" ry="3" style="stroke: #545454; stroke-width: 1.0;"/><text fill="#000000" font-family="Helvetica" font-size="11" lengthAdjust="spacingAndGlyphs" textLength="64" x="370" y="253.4702">__iter__(self)</text><ellipse cx="361" cy="263" fill="#A6A6A6" rx="3" ry="3" style="stroke: #545454; stroke-width: 1.0;"/><text fill="#000000" font-family="Helvetica" font-size="11" lengthAdjust="spacingAndGlyphs" text-decoration="underline" textLength="83" x="370" y="264.4702">available_types()</text></a><!--MD5=[3edd34d35203ceb4dd4fa63a3b0c665d]
class benchmarkstt.input.core.PlainText--><a href="https://benchmarkstt.readthedocs.io/en/latest/modules/benchmarkstt.input.core.html#benchmarkstt.input.core.PlainText" target="_top" title="https://benchmarkstt.readthedocs.io/en/latest/modules/benchmarkstt.input.core.html#benchmarkstt.input.core.PlainText" xlink:actuate="onRequest" xlink:href="https://benchmarkstt.readthedocs.io/en/latest/modules/benchmarkstt.input.core.html#benchmarkstt.input.core.PlainText" xlink:show="new" xlink:title="https://benchmarkstt.readthedocs.io/en/latest/modules/benchmarkstt.input.core.html#benchmarkstt.input.core.PlainText" xlink:type="simple"><rect fill="#FFFFFF" filter="url(#fgbd3ikrqri58)" height="70" id="benchmarkstt.input.core.PlainText" style="stroke: #000000; stroke-width: 1.0;" width="291" x="23.5" y="195.5"/><ellipse cx="139.25" cy="211.5" fill="#C2C2C2" rx="11" ry="11" style="stroke: #000000; stroke-width: 1.0;"/><path d="M141.7231,217.6431 Q141.1421,217.9419 140.5029,218.0913 Q139.8638,218.2407 139.1582,218.2407 Q136.6514,218.2407 135.3315,216.5889 Q134.0117,214.937 134.0117,211.8159 Q134.0117,208.6865 135.3315,207.0347 Q136.6514,205.3828 139.1582,205.3828 Q139.8638,205.3828 140.5112,205.5322 Q141.1587,205.6816 141.7231,205.9805 L141.7231,208.7031 Q141.0923,208.1221 140.4988,207.8523 Q139.9053,207.5825 139.2744,207.5825 Q137.9297,207.5825 137.2449,208.6492 Q136.5601,209.7158 136.5601,211.8159 Q136.5601,213.9077 137.2449,214.9744 Q137.9297,216.041 139.2744,216.041 Q139.9053,216.041 140.4988,215.7712 Q141.0923,215.5015 141.7231,214.9204 Z "/><text fill="#000000" font-family="Helvetica" font-size="12" lengthAdjust="spacingAndGlyphs" textLength="51" x="159.75" y="214.7402">PlainText</text><line style="stroke: #000000; stroke-width: 1.0;" x1="24.5" x2="313.5" y1="227.5" y2="227.5"/><line style="stroke: #000000; stroke-width: 1.0;" x1="24.5" x2="313.5" y1="235.5" y2="235.5"/><ellipse cx="34.5" cy="246.5" fill="#A6A6A6" rx="3" ry="3" style="stroke: #545454; stroke-width: 1.0;"/><text fill="#000000" font-family="Helvetica" font-size="11" lengthAdjust="spacingAndGlyphs" textLength="265" x="43.5" y="247.9702">__init__(self, text, segmenter=None, normalizer=None)</text><ellipse cx="34.5" cy="257.5" fill="#A6A6A6" rx="3" ry="3" style="stroke: #545454; stroke-width: 1.0;"/><text fill="#000000" font-family="Helvetica" font-size="11" lengthAdjust="spacingAndGlyphs" textLength="64" x="43.5" y="258.9702">__iter__(self)</text></a><!--MD5=[065a416e4c33abf0dffdc83d6e1bf045]
reverse link benchmarkstt.input.Base to benchmarkstt.input.core.File--><path d="M378.09,130.36 C399.7,149.16 425.07,171.24 446.38,189.79 " fill="none" id="benchmarkstt.input.Base&lt;-benchmarkstt.input.core.File" style="stroke: #000000; stroke-width: 1.0;"/><polygon fill="none" points="373.27,135.44,362.78,117.03,382.46,124.88,373.27,135.44" style="stroke: #000000; stroke-width: 1.0;"/><!--MD5=[3d607d7f67fd018830fa1d9f070f3dcc]
reverse link benchmarkstt.input.Base to benchmarkstt.input.core.PlainText--><path d="M282.27,130.3 C258.62,151.01 230.41,175.71 208.07,195.29 " fill="none" id="benchmarkstt.input.Base&lt;-benchmarkstt.input.core.PlainText" style="stroke: #000000; stroke-width: 1.0;"/><polygon fill="none" points="277.76,124.94,297.42,117.03,286.99,135.48,277.76,124.94" style="stroke: #000000; stroke-width: 1.0;"/><!--MD5=[303626187ed0d24a8a04df16198569f4]
@startuml

title benchmarkstt.input

skinparam packageStyle Frame
!includeurl https://raw.githubusercontent.com/matthewjosephtaylor/plantuml-style/master/style.pu
package benchmarkstt.input {

	class benchmarkstt.input.Base [[https://benchmarkstt.readthedocs.io/en/latest/modules/benchmarkstt.input.html#benchmarkstt.input.Base]] {
		+__iter__(self)
	}


}

package benchmarkstt.input.core {

	class benchmarkstt.input.core.File [[https://benchmarkstt.readthedocs.io/en/latest/modules/benchmarkstt.input.core.html#benchmarkstt.input.core.File]] {
		+__init__(self, file, input_type=None, normalizer=None)
		+__iter__(self)
		{static} +available_types()
	}


	class benchmarkstt.input.core.PlainText [[https://benchmarkstt.readthedocs.io/en/latest/modules/benchmarkstt.input.core.html#benchmarkstt.input.core.PlainText]] {
		+__init__(self, text, segmenter=None, normalizer=None)
		+__iter__(self)
	}

}


benchmarkstt.input.core.File -up-|> benchmarkstt.input.Base
benchmarkstt.input.core.PlainText -up-|> benchmarkstt.input.Base

@enduml

@startuml

title benchmarkstt.input

skinparam packageStyle Frame

skinparam defaultFontName  Helvetica
skinparam sequenceMessageAlign center
skinparam monochrome true

skinparam activity {
	ArrowColor Black
	BackgroundColor White
	BorderColor Black
	BorderThickness 1
}

skinparam actor {
	BackgroundColor White
	BorderColor Black
}

skinparam usecase {
	ArrowColor Black
	BackgroundColor White
	BorderColor Black
	BorderThickness 1
}

skinparam class {
	ArrowColor Black
	BackgroundColor White
	BorderColor Black
	BorderThickness 1
}


skinparam object {
	ArrowColor Black
	BackgroundColor White
	BorderColor Black
}

skinparam package {
	BackgroundColor White
	BorderColor Black
}


skinparam component {
	BackgroundColor White
	InterfaceBackgroundColor White
	BorderColor Black
	InterfaceBorderColor Black
}

skinparam note {
	BackgroundColor White
	BorderColor Black
}

skinparam state {
	ArrowColor Black
	BackgroundColor White
	BorderColor Black
}

skinparam sequence {
	ArrowColor Black
	BackgroundColor White
	ParticipantBackgroundColor White
	BorderColor Black
	LifeLineBorderColor Black
	ParticipantBorderColor Black
	BoxLineColor Black
}

skinparam interface {
	BackgroundColor White
	BorderColor Black
}
package benchmarkstt.input {

	class benchmarkstt.input.Base [[https://benchmarkstt.readthedocs.io/en/latest/modules/benchmarkstt.input.html#benchmarkstt.input.Base]] {
		+__iter__(self)
	}


}

package benchmarkstt.input.core {

	class benchmarkstt.input.core.File [[https://benchmarkstt.readthedocs.io/en/latest/modules/benchmarkstt.input.core.html#benchmarkstt.input.core.File]] {
		+__init__(self, file, input_type=None, normalizer=None)
		+__iter__(self)
		{static} +available_types()
	}


	class benchmarkstt.input.core.PlainText [[https://benchmarkstt.readthedocs.io/en/latest/modules/benchmarkstt.input.core.html#benchmarkstt.input.core.PlainText]] {
		+__init__(self, text, segmenter=None, normalizer=None)
		+__iter__(self)
	}

}


benchmarkstt.input.core.File -up-|> benchmarkstt.input.Base
benchmarkstt.input.core.PlainText -up-|> benchmarkstt.input.Base

@enduml

PlantUML version 1.2020.15(Sun Jun 28 13:39:45 CEST 2020)
(GPL source distribution)
Java Runtime: OpenJDK Runtime Environment
JVM: OpenJDK 64-Bit Server VM
Default Encoding: UTF-8
Language: en
Country: BE
--></g></svg>