<?xml version="1.0" encoding="UTF-8" standalone="no"?><svg xmlns="http://www.w3.org/2000/svg" xmlns:xlink="http://www.w3.org/1999/xlink" contentScriptType="application/ecmascript" contentStyleType="text/css" height="337px" preserveAspectRatio="none" style="width:1762px;height:337px;" version="1.1" viewBox="0 0 1762 337" width="1762px" zoomAndPan="magnify"><defs><filter height="300%" id="f1r169jlf6h9p" width="300%" x="-1" y="-1"><feGaussianBlur result="blurOut" stdDeviation="2.0"/><feColorMatrix in="blurOut" result="blurOut2" type="matrix" values="0 0 0 0 0 0 0 0 0 0 0 0 0 0 0 0 0 0 .4 0"/><feOffset dx="4.0" dy="4.0" in="blurOut2" result="blurOut3"/><feBlend in="SourceGraphic" in2="blurOut3" mode="normal"/></filter></defs><g><text fill="#000000" font-family="Helvetica" font-size="18" lengthAdjust="spacingAndGlyphs" textLength="171" x="786.5" y="13.8604">benchmarkstt.metrics</text><!--MD5=[22ea792f0a86ed46e658ff5419811104]
cluster benchmarkstt.metrics--><rect fill="#FFFFFF" filter="url(#f1r169jlf6h9p)" height="108" style="stroke: #000000; stroke-width: 1.5;" width="486" x="495" y="25"/><path d="M653,26 L653,32 L643,42 L495,42 " fill="none" style="stroke: #000000; stroke-width: 1.5;"/><text fill="#000000" font-family="Helvetica" font-size="14" font-weight="bold" lengthAdjust="spacingAndGlyphs" textLength="148" x="498" y="36.7803">benchmarkstt.metrics</text><!--MD5=[144dc3a7777fd2b902a939eb9db82fdd]
cluster benchmarkstt.metrics.core--><rect fill="#FFFFFF" filter="url(#f1r169jlf6h9p)" height="163" style="stroke: #000000; stroke-width: 1.5;" width="1738" x="7" y="157"/><path d="M199,158 L199,164 L189,174 L7,174 " fill="none" style="stroke: #000000; stroke-width: 1.5;"/><text fill="#000000" font-family="Helvetica" font-size="14" font-weight="bold" lengthAdjust="spacingAndGlyphs" textLength="182" x="10" y="168.7803">benchmarkstt.metrics.core</text><!--MD5=[5df2e3f9a60f5e68627f199cfdd93bb0]
class benchmarkstt.metrics.Base--><a href="https://benchmarkstt.readthedocs.io/en/latest/modules/benchmarkstt.metrics.html#benchmarkstt.metrics.Base" target="_top" title="https://benchmarkstt.readthedocs.io/en/latest/modules/benchmarkstt.metrics.html#benchmarkstt.metrics.Base" xlink:actuate="onRequest" xlink:href="https://benchmarkstt.readthedocs.io/en/latest/modules/benchmarkstt.metrics.html#benchmarkstt.metrics.Base" xlink:show="new" xlink:title="https://benchmarkstt.readthedocs.io/en/latest/modules/benchmarkstt.metrics.html#benchmarkstt.metrics.Base" xlink:type="simple"><rect fill="#FFFFFF" filter="url(#f1r169jlf6h9p)" height="59" id="benchmarkstt.metrics.Base" style="stroke: #000000; stroke-width: 1.0;" width="453" x="511.5" y="58"/><ellipse cx="719.75" cy="74" fill="#C2C2C2" rx="11" ry="11" style="stroke: #000000; stroke-width: 1.0;"/><path d="M722.2231,80.1431 Q721.6421,80.4419 721.0029,80.5913 Q720.3638,80.7407 719.6582,80.7407 Q717.1514,80.7407 715.8315,79.0889 Q714.5117,77.437 714.5117,74.3159 Q714.5117,71.1865 715.8315,69.5347 Q717.1514,67.8828 719.6582,67.8828 Q720.3638,67.8828 721.0112,68.0322 Q721.6587,68.1816 722.2231,68.4805 L722.2231,71.2031 Q721.5923,70.6221 720.9988,70.3523 Q720.4053,70.0825 719.7744,70.0825 Q718.4297,70.0825 717.7449,71.1492 Q717.0601,72.2158 717.0601,74.3159 Q717.0601,76.4077 717.7449,77.4744 Q718.4297,78.541 719.7744,78.541 Q720.4053,78.541 720.9988,78.2712 Q721.5923,78.0015 722.2231,77.4204 Z "/><text fill="#000000" font-family="Helvetica" font-size="12" lengthAdjust="spacingAndGlyphs" textLength="28" x="740.25" y="77.2402">Base</text><line style="stroke: #000000; stroke-width: 1.0;" x1="512.5" x2="963.5" y1="90" y2="90"/><line style="stroke: #000000; stroke-width: 1.0;" x1="512.5" x2="963.5" y1="98" y2="98"/><ellipse cx="522.5" cy="109" fill="#A6A6A6" rx="3" ry="3" style="stroke: #545454; stroke-width: 1.0;"/><text fill="#000000" font-family="Helvetica" font-size="11" lengthAdjust="spacingAndGlyphs" textLength="427" x="531.5" y="110.4702">compare(self, ref: benchmarkstt.schema.Schema, hyp: benchmarkstt.schema.Schema)</text></a><!--MD5=[16641109c0e363d96d1ecc4c603e3de1]
class benchmarkstt.metrics.core.DiffCounts--><a href="https://benchmarkstt.readthedocs.io/en/latest/modules/benchmarkstt.metrics.core.html#benchmarkstt.metrics.core.DiffCounts" target="_top" title="https://benchmarkstt.readthedocs.io/en/latest/modules/benchmarkstt.metrics.core.html#benchmarkstt.metrics.core.DiffCounts" xlink:actuate="onRequest" xlink:href="https://benchmarkstt.readthedocs.io/en/latest/modules/benchmarkstt.metrics.core.html#benchmarkstt.metrics.core.DiffCounts" xlink:show="new" xlink:title="https://benchmarkstt.readthedocs.io/en/latest/modules/benchmarkstt.metrics.core.html#benchmarkstt.metrics.core.DiffCounts" xlink:type="simple"><rect fill="#FFFFFF" filter="url(#f1r169jlf6h9p)" height="70" id="benchmarkstt.metrics.core.DiffCounts" style="stroke: #000000; stroke-width: 1.0;" width="453" x="1275.5" y="212"/><ellipse cx="1469.25" cy="228" fill="#C2C2C2" rx="11" ry="11" style="stroke: #000000; stroke-width: 1.0;"/><path d="M1471.7231,234.1431 Q1471.1421,234.4419 1470.5029,234.5913 Q1469.8638,234.7407 1469.1582,234.7407 Q1466.6514,234.7407 1465.3315,233.0889 Q1464.0117,231.437 1464.0117,228.3159 Q1464.0117,225.1865 1465.3315,223.5347 Q1466.6514,221.8828 1469.1582,221.8828 Q1469.8638,221.8828 1470.5112,222.0322 Q1471.1587,222.1816 1471.7231,222.4805 L1471.7231,225.2031 Q1471.0923,224.6221 1470.4988,224.3523 Q1469.9053,224.0825 1469.2744,224.0825 Q1467.9297,224.0825 1467.2449,225.1492 Q1466.5601,226.2158 1466.5601,228.3159 Q1466.5601,230.4077 1467.2449,231.4744 Q1467.9297,232.541 1469.2744,232.541 Q1469.9053,232.541 1470.4988,232.2712 Q1471.0923,232.0015 1471.7231,231.4204 Z "/><text fill="#000000" font-family="Helvetica" font-size="12" lengthAdjust="spacingAndGlyphs" textLength="57" x="1489.75" y="231.2402">DiffCounts</text><line style="stroke: #000000; stroke-width: 1.0;" x1="1276.5" x2="1727.5" y1="244" y2="244"/><line style="stroke: #000000; stroke-width: 1.0;" x1="1276.5" x2="1727.5" y1="252" y2="252"/><ellipse cx="1286.5" cy="263" fill="#A6A6A6" rx="3" ry="3" style="stroke: #545454; stroke-width: 1.0;"/><text fill="#000000" font-family="Helvetica" font-size="11" lengthAdjust="spacingAndGlyphs" textLength="156" x="1295.5" y="264.4702">__init__(self, differ_class=None)</text><ellipse cx="1286.5" cy="274" fill="#A6A6A6" rx="3" ry="3" style="stroke: #545454; stroke-width: 1.0;"/><text fill="#000000" font-family="Helvetica" font-size="11" lengthAdjust="spacingAndGlyphs" textLength="427" x="1295.5" y="275.4702">compare(self, ref: benchmarkstt.schema.Schema, hyp: benchmarkstt.schema.Schema)</text></a><!--MD5=[acc3773e40c658ad934768473fb05324]
class benchmarkstt.metrics.core.OpcodeCounts--><a href="https://benchmarkstt.readthedocs.io/en/latest/modules/benchmarkstt.metrics.core.html#benchmarkstt.metrics.core.OpcodeCounts" target="_top" title="https://benchmarkstt.readthedocs.io/en/latest/modules/benchmarkstt.metrics.core.html#benchmarkstt.metrics.core.OpcodeCounts" xlink:actuate="onRequest" xlink:href="https://benchmarkstt.readthedocs.io/en/latest/modules/benchmarkstt.metrics.core.html#benchmarkstt.metrics.core.OpcodeCounts" xlink:show="new" xlink:title="https://benchmarkstt.readthedocs.io/en/latest/modules/benchmarkstt.metrics.core.html#benchmarkstt.metrics.core.OpcodeCounts" xlink:type="simple"><rect fill="#FFFFFF" filter="url(#f1r169jlf6h9p)" height="114" id="benchmarkstt.metrics.core.OpcodeCounts" style="stroke: #000000; stroke-width: 1.0;" width="240" x="1000" y="190"/><ellipse cx="1074.75" cy="206" fill="#C2C2C2" rx="11" ry="11" style="stroke: #000000; stroke-width: 1.0;"/><path d="M1077.2231,212.1431 Q1076.6421,212.4419 1076.0029,212.5913 Q1075.3638,212.7407 1074.6582,212.7407 Q1072.1514,212.7407 1070.8315,211.0889 Q1069.5117,209.437 1069.5117,206.3159 Q1069.5117,203.1865 1070.8315,201.5347 Q1072.1514,199.8828 1074.6582,199.8828 Q1075.3638,199.8828 1076.0112,200.0322 Q1076.6587,200.1816 1077.2231,200.4805 L1077.2231,203.2031 Q1076.5923,202.6221 1075.9988,202.3523 Q1075.4053,202.0825 1074.7744,202.0825 Q1073.4297,202.0825 1072.7449,203.1492 Q1072.0601,204.2158 1072.0601,206.3159 Q1072.0601,208.4077 1072.7449,209.4744 Q1073.4297,210.541 1074.7744,210.541 Q1075.4053,210.541 1075.9988,210.2712 Q1076.5923,210.0015 1077.2231,209.4204 Z "/><text fill="#000000" font-family="Helvetica" font-size="12" lengthAdjust="spacingAndGlyphs" textLength="82" x="1095.25" y="209.2402">OpcodeCounts</text><line style="stroke: #000000; stroke-width: 1.0;" x1="1001" x2="1239" y1="222" y2="222"/><line style="stroke: #000000; stroke-width: 1.0;" x1="1001" x2="1239" y1="230" y2="230"/><ellipse cx="1011" cy="241" fill="#A6A6A6" rx="3" ry="3" style="stroke: #545454; stroke-width: 1.0;"/><text fill="#000000" font-family="Helvetica" font-size="11" lengthAdjust="spacingAndGlyphs" textLength="106" x="1020" y="242.4702">__getnewargs__(self)</text><ellipse cx="1011" cy="252" fill="#A6A6A6" rx="3" ry="3" style="stroke: #545454; stroke-width: 1.0;"/><text fill="#000000" font-family="Helvetica" font-size="11" lengthAdjust="spacingAndGlyphs" textLength="214" x="1020" y="253.4702">__new__(_cls, equal, replace, insert, delete)</text><ellipse cx="1011" cy="263" fill="#A6A6A6" rx="3" ry="3" style="stroke: #545454; stroke-width: 1.0;"/><text fill="#000000" font-family="Helvetica" font-size="11" lengthAdjust="spacingAndGlyphs" textLength="69" x="1020" y="264.4702">__repr__(self)</text><rect fill="#808080" height="6" style="stroke: #595959; stroke-width: 1.0;" width="6" x="1008" y="271"/><text fill="#000000" font-family="Helvetica" font-size="11" lengthAdjust="spacingAndGlyphs" textLength="60" x="1020" y="275.4702">_asdict(self)</text><rect fill="#808080" height="6" style="stroke: #595959; stroke-width: 1.0;" width="6" x="1008" y="282"/><text fill="#000000" font-family="Helvetica" font-size="11" lengthAdjust="spacingAndGlyphs" text-decoration="underline" textLength="76" x="1020" y="286.4702">_make(iterable)</text><rect fill="#808080" height="6" style="stroke: #595959; stroke-width: 1.0;" width="6" x="1008" y="293"/><text fill="#000000" font-family="Helvetica" font-size="11" lengthAdjust="spacingAndGlyphs" textLength="116" x="1020" y="297.4702">_replace(self, /, **kwds)</text></a><!--MD5=[1b5fccb2ad4a9064da2e7d8609e9b4b6]
class benchmarkstt.metrics.core.WER--><a href="https://benchmarkstt.readthedocs.io/en/latest/modules/benchmarkstt.metrics.core.html#benchmarkstt.metrics.core.WER" target="_top" title="https://benchmarkstt.readthedocs.io/en/latest/modules/benchmarkstt.metrics.core.html#benchmarkstt.metrics.core.WER" xlink:actuate="onRequest" xlink:href="https://benchmarkstt.readthedocs.io/en/latest/modules/benchmarkstt.metrics.core.html#benchmarkstt.metrics.core.WER" xlink:show="new" xlink:title="https://benchmarkstt.readthedocs.io/en/latest/modules/benchmarkstt.metrics.core.html#benchmarkstt.metrics.core.WER" xlink:type="simple"><rect fill="#FFFFFF" filter="url(#f1r169jlf6h9p)" height="70" id="benchmarkstt.metrics.core.WER" style="stroke: #000000; stroke-width: 1.0;" width="453" x="511.5" y="212"/><ellipse cx="719.75" cy="228" fill="#C2C2C2" rx="11" ry="11" style="stroke: #000000; stroke-width: 1.0;"/><path d="M722.2231,234.1431 Q721.6421,234.4419 721.0029,234.5913 Q720.3638,234.7407 719.6582,234.7407 Q717.1514,234.7407 715.8315,233.0889 Q714.5117,231.437 714.5117,228.3159 Q714.5117,225.1865 715.8315,223.5347 Q717.1514,221.8828 719.6582,221.8828 Q720.3638,221.8828 721.0112,222.0322 Q721.6587,222.1816 722.2231,222.4805 L722.2231,225.2031 Q721.5923,224.6221 720.9988,224.3523 Q720.4053,224.0825 719.7744,224.0825 Q718.4297,224.0825 717.7449,225.1492 Q717.0601,226.2158 717.0601,228.3159 Q717.0601,230.4077 717.7449,231.4744 Q718.4297,232.541 719.7744,232.541 Q720.4053,232.541 720.9988,232.2712 Q721.5923,232.0015 722.2231,231.4204 Z "/><text fill="#000000" font-family="Helvetica" font-size="12" lengthAdjust="spacingAndGlyphs" textLength="28" x="740.25" y="231.2402">WER</text><line style="stroke: #000000; stroke-width: 1.0;" x1="512.5" x2="963.5" y1="244" y2="244"/><line style="stroke: #000000; stroke-width: 1.0;" x1="512.5" x2="963.5" y1="252" y2="252"/><ellipse cx="522.5" cy="263" fill="#A6A6A6" rx="3" ry="3" style="stroke: #545454; stroke-width: 1.0;"/><text fill="#000000" font-family="Helvetica" font-size="11" lengthAdjust="spacingAndGlyphs" textLength="221" x="531.5" y="264.4702">__init__(self, mode=None, differ_class=None)</text><ellipse cx="522.5" cy="274" fill="#A6A6A6" rx="3" ry="3" style="stroke: #545454; stroke-width: 1.0;"/><text fill="#000000" font-family="Helvetica" font-size="11" lengthAdjust="spacingAndGlyphs" textLength="427" x="531.5" y="275.4702">compare(self, ref: benchmarkstt.schema.Schema, hyp: benchmarkstt.schema.Schema)</text></a><!--MD5=[ef94872a4633e4f53c81dbb8c48f7a6f]
class benchmarkstt.metrics.core.WordDiffs--><a href="https://benchmarkstt.readthedocs.io/en/latest/modules/benchmarkstt.metrics.core.html#benchmarkstt.metrics.core.WordDiffs" target="_top" title="https://benchmarkstt.readthedocs.io/en/latest/modules/benchmarkstt.metrics.core.html#benchmarkstt.metrics.core.WordDiffs" xlink:actuate="onRequest" xlink:href="https://benchmarkstt.readthedocs.io/en/latest/modules/benchmarkstt.metrics.core.html#benchmarkstt.metrics.core.WordDiffs" xlink:show="new" xlink:title="https://benchmarkstt.readthedocs.io/en/latest/modules/benchmarkstt.metrics.core.html#benchmarkstt.metrics.core.WordDiffs" xlink:type="simple"><rect fill="#FFFFFF" filter="url(#f1r169jlf6h9p)" height="70" id="benchmarkstt.metrics.core.WordDiffs" style="stroke: #000000; stroke-width: 1.0;" width="453" x="23.5" y="212"/><ellipse cx="219.25" cy="228" fill="#C2C2C2" rx="11" ry="11" style="stroke: #000000; stroke-width: 1.0;"/><path d="M221.7231,234.1431 Q221.1421,234.4419 220.5029,234.5913 Q219.8638,234.7407 219.1582,234.7407 Q216.6514,234.7407 215.3315,233.0889 Q214.0117,231.437 214.0117,228.3159 Q214.0117,225.1865 215.3315,223.5347 Q216.6514,221.8828 219.1582,221.8828 Q219.8638,221.8828 220.5112,222.0322 Q221.1587,222.1816 221.7231,222.4805 L221.7231,225.2031 Q221.0923,224.6221 220.4988,224.3523 Q219.9053,224.0825 219.2744,224.0825 Q217.9297,224.0825 217.2449,225.1492 Q216.5601,226.2158 216.5601,228.3159 Q216.5601,230.4077 217.2449,231.4744 Q217.9297,232.541 219.2744,232.541 Q219.9053,232.541 220.4988,232.2712 Q221.0923,232.0015 221.7231,231.4204 Z "/><text fill="#000000" font-family="Helvetica" font-size="12" lengthAdjust="spacingAndGlyphs" textLength="53" x="239.75" y="231.2402">WordDiffs</text><line style="stroke: #000000; stroke-width: 1.0;" x1="24.5" x2="475.5" y1="244" y2="244"/><line style="stroke: #000000; stroke-width: 1.0;" x1="24.5" x2="475.5" y1="252" y2="252"/><ellipse cx="34.5" cy="263" fill="#A6A6A6" rx="3" ry="3" style="stroke: #545454; stroke-width: 1.0;"/><text fill="#000000" font-family="Helvetica" font-size="11" lengthAdjust="spacingAndGlyphs" textLength="225" x="43.5" y="264.4702">__init__(self, dialect=None, differ_class=None)</text><ellipse cx="34.5" cy="274" fill="#A6A6A6" rx="3" ry="3" style="stroke: #545454; stroke-width: 1.0;"/><text fill="#000000" font-family="Helvetica" font-size="11" lengthAdjust="spacingAndGlyphs" textLength="427" x="43.5" y="275.4702">compare(self, ref: benchmarkstt.schema.Schema, hyp: benchmarkstt.schema.Schema)</text></a><!--MD5=[0e20ec8c1c3e6f52fb3eaed392cf3205]
reverse link benchmarkstt.metrics.Base to benchmarkstt.metrics.core.DiffCounts--><path d="M984.79,103.86 C1072.01,112.78 1170.21,126.85 1258,149 C1318,164.14 1382.98,190.5 1430.78,211.92 " fill="none" id="benchmarkstt.metrics.Base&lt;-benchmarkstt.metrics.core.DiffCounts" style="stroke: #000000; stroke-width: 1.0;"/><polygon fill="none" points="983.83,110.79,964.62,101.86,985.21,96.86,983.83,110.79" style="stroke: #000000; stroke-width: 1.0;"/><!--MD5=[30299ce62ca518511ed25a5a2ec7aa2b]
reverse link benchmarkstt.metrics.Base to benchmarkstt.metrics.core.WER--><path d="M738,137.27 C738,161.48 738,190.12 738,211.93 " fill="none" id="benchmarkstt.metrics.Base&lt;-benchmarkstt.metrics.core.WER" style="stroke: #000000; stroke-width: 1.0;"/><polygon fill="none" points="731,137.02,738,117.02,745,137.02,731,137.02" style="stroke: #000000; stroke-width: 1.0;"/><!--MD5=[4985c6bdcdda9aa3aac1b42ffb8ef9ca]
reverse link benchmarkstt.metrics.Base to benchmarkstt.metrics.core.WordDiffs--><path d="M589.35,121.95 C557.66,130.03 524.54,139.19 494,149 C437.47,167.15 375.3,191.94 327.86,211.92 " fill="none" id="benchmarkstt.metrics.Base&lt;-benchmarkstt.metrics.core.WordDiffs" style="stroke: #000000; stroke-width: 1.0;"/><polygon fill="none" points="587.77,115.13,608.87,117.06,591.17,128.71,587.77,115.13" style="stroke: #000000; stroke-width: 1.0;"/><!--MD5=[bfc136db3461e2e3af7f68fb161b44cc]
@startuml

title benchmarkstt.metrics

skinparam packageStyle Frame
!includeurl https://raw.githubusercontent.com/matthewjosephtaylor/plantuml-style/master/style.pu
package benchmarkstt.metrics {

	class benchmarkstt.metrics.Base [[https://benchmarkstt.readthedocs.io/en/latest/modules/benchmarkstt.metrics.html#benchmarkstt.metrics.Base]] {
		+compare(self, ref: benchmarkstt.schema.Schema, hyp: benchmarkstt.schema.Schema)
	}



}

package benchmarkstt.metrics {



}

package benchmarkstt.metrics {



}

package benchmarkstt.metrics.core {


	class benchmarkstt.metrics.core.DiffCounts [[https://benchmarkstt.readthedocs.io/en/latest/modules/benchmarkstt.metrics.core.html#benchmarkstt.metrics.core.DiffCounts]] {
		+__init__(self, differ_class=None)
		+compare(self, ref: benchmarkstt.schema.Schema, hyp: benchmarkstt.schema.Schema)
	}


	class benchmarkstt.metrics.core.OpcodeCounts [[https://benchmarkstt.readthedocs.io/en/latest/modules/benchmarkstt.metrics.core.html#benchmarkstt.metrics.core.OpcodeCounts]] {
		+__getnewargs__(self)
		+__new__(_cls, equal, replace, insert, delete)
		+__repr__(self)
		-_asdict(self)
		{static} -_make(iterable)
		-_replace(self, /, **kwds)
	}




	class benchmarkstt.metrics.core.WER [[https://benchmarkstt.readthedocs.io/en/latest/modules/benchmarkstt.metrics.core.html#benchmarkstt.metrics.core.WER]] {
		+__init__(self, mode=None, differ_class=None)
		+compare(self, ref: benchmarkstt.schema.Schema, hyp: benchmarkstt.schema.Schema)
	}


	class benchmarkstt.metrics.core.WordDiffs [[https://benchmarkstt.readthedocs.io/en/latest/modules/benchmarkstt.metrics.core.html#benchmarkstt.metrics.core.WordDiffs]] {
		+__init__(self, dialect=None, differ_class=None)
		+compare(self, ref: benchmarkstt.schema.Schema, hyp: benchmarkstt.schema.Schema)
	}

}


benchmarkstt.metrics.core.DiffCounts -up-|> benchmarkstt.metrics.Base
benchmarkstt.metrics.core.WER -up-|> benchmarkstt.metrics.Base
benchmarkstt.metrics.core.WordDiffs -up-|> benchmarkstt.metrics.Base

@enduml

@startuml

title benchmarkstt.metrics

skinparam packageStyle Frame

skinparam defaultFontName  Helvetica
skinparam sequenceMessageAlign center
skinparam monochrome true

skinparam activity {
	ArrowColor Black
	BackgroundColor White
	BorderColor Black
	BorderThickness 1
}

skinparam actor {
	BackgroundColor White
	BorderColor Black
}

skinparam usecase {
	ArrowColor Black
	BackgroundColor White
	BorderColor Black
	BorderThickness 1
}

skinparam class {
	ArrowColor Black
	BackgroundColor White
	BorderColor Black
	BorderThickness 1
}


skinparam object {
	ArrowColor Black
	BackgroundColor White
	BorderColor Black
}

skinparam package {
	BackgroundColor White
	BorderColor Black
}


skinparam component {
	BackgroundColor White
	InterfaceBackgroundColor White
	BorderColor Black
	InterfaceBorderColor Black
}

skinparam note {
	BackgroundColor White
	BorderColor Black
}

skinparam state {
	ArrowColor Black
	BackgroundColor White
	BorderColor Black
}

skinparam sequence {
	ArrowColor Black
	BackgroundColor White
	ParticipantBackgroundColor White
	BorderColor Black
	LifeLineBorderColor Black
	ParticipantBorderColor Black
	BoxLineColor Black
}

skinparam interface {
	BackgroundColor White
	BorderColor Black
}
package benchmarkstt.metrics {

	class benchmarkstt.metrics.Base [[https://benchmarkstt.readthedocs.io/en/latest/modules/benchmarkstt.metrics.html#benchmarkstt.metrics.Base]] {
		+compare(self, ref: benchmarkstt.schema.Schema, hyp: benchmarkstt.schema.Schema)
	}



}

package benchmarkstt.metrics {



}

package benchmarkstt.metrics {



}

package benchmarkstt.metrics.core {


	class benchmarkstt.metrics.core.DiffCounts [[https://benchmarkstt.readthedocs.io/en/latest/modules/benchmarkstt.metrics.core.html#benchmarkstt.metrics.core.DiffCounts]] {
		+__init__(self, differ_class=None)
		+compare(self, ref: benchmarkstt.schema.Schema, hyp: benchmarkstt.schema.Schema)
	}


	class benchmarkstt.metrics.core.OpcodeCounts [[https://benchmarkstt.readthedocs.io/en/latest/modules/benchmarkstt.metrics.core.html#benchmarkstt.metrics.core.OpcodeCounts]] {
		+__getnewargs__(self)
		+__new__(_cls, equal, replace, insert, delete)
		+__repr__(self)
		-_asdict(self)
		{static} -_make(iterable)
		-_replace(self, /, **kwds)
	}




	class benchmarkstt.metrics.core.WER [[https://benchmarkstt.readthedocs.io/en/latest/modules/benchmarkstt.metrics.core.html#benchmarkstt.metrics.core.WER]] {
		+__init__(self, mode=None, differ_class=None)
		+compare(self, ref: benchmarkstt.schema.Schema, hyp: benchmarkstt.schema.Schema)
	}


	class benchmarkstt.metrics.core.WordDiffs [[https://benchmarkstt.readthedocs.io/en/latest/modules/benchmarkstt.metrics.core.html#benchmarkstt.metrics.core.WordDiffs]] {
		+__init__(self, dialect=None, differ_class=None)
		+compare(self, ref: benchmarkstt.schema.Schema, hyp: benchmarkstt.schema.Schema)
	}

}


benchmarkstt.metrics.core.DiffCounts -up-|> benchmarkstt.metrics.Base
benchmarkstt.metrics.core.WER -up-|> benchmarkstt.metrics.Base
benchmarkstt.metrics.core.WordDiffs -up-|> benchmarkstt.metrics.Base

@enduml

PlantUML version 1.2020.15(Sun Jun 28 13:39:45 CEST 2020)
(GPL source distribution)
Java Runtime: OpenJDK Runtime Environment
JVM: OpenJDK 64-Bit Server VM
Default Encoding: UTF-8
Language: en
Country: BE
--></g></svg>