<?xml version="1.0" encoding="UTF-8" standalone="no"?><svg xmlns="http://www.w3.org/2000/svg" xmlns:xlink="http://www.w3.org/1999/xlink" contentScriptType="application/ecmascript" contentStyleType="text/css" height="702px" preserveAspectRatio="none" style="width:584px;height:702px;" version="1.1" viewBox="0 0 584 702" width="584px" zoomAndPan="magnify"><defs><filter height="300%" id="fgtib3rdaiziv" width="300%" x="-1" y="-1"><feGaussianBlur result="blurOut" stdDeviation="2.0"/><feColorMatrix in="blurOut" result="blurOut2" type="matrix" values="0 0 0 0 0 0 0 0 0 0 0 0 0 0 0 0 0 0 .4 0"/><feOffset dx="4.0" dy="4.0" in="blurOut2" result="blurOut3"/><feBlend in="SourceGraphic" in2="blurOut3" mode="normal"/></filter></defs><g><text fill="#000000" font-family="sans-serif" font-size="18" lengthAdjust="spacingAndGlyphs" textLength="183" x="191.5" y="17.4023">Benchmarkstt.output</text><!--MD5=[847d3ee6f8e67faab7de214c96ed8267]
cluster benchmarkstt.output.core--><polygon fill="#FFFFFF" filter="url(#fgtib3rdaiziv)" points="16,257.1992,205,257.1992,212,279.6875,562,279.6875,562,690.1992,16,690.1992,16,257.1992" style="stroke: #000000; stroke-width: 1.5;"/><line style="stroke: #000000; stroke-width: 1.5;" x1="16" x2="212" y1="279.6875" y2="279.6875"/><text fill="#000000" font-family="sans-serif" font-size="14" font-weight="bold" lengthAdjust="spacingAndGlyphs" textLength="183" x="20" y="272.7344">benchmarkstt.output.core</text><!--MD5=[c2f5f1914e6a0fca7cbdb2b44310c20b]
cluster benchmarkstt.output--><polygon fill="#FFFFFF" filter="url(#fgtib3rdaiziv)" points="231,27.1992,387,27.1992,394,49.6875,397,49.6875,397,126.1992,231,126.1992,231,27.1992" style="stroke: #000000; stroke-width: 1.5;"/><line style="stroke: #000000; stroke-width: 1.5;" x1="231" x2="394" y1="49.6875" y2="49.6875"/><text fill="#000000" font-family="sans-serif" font-size="14" font-weight="bold" lengthAdjust="spacingAndGlyphs" textLength="150" x="235" y="42.7344">benchmarkstt.output</text><!--MD5=[f736c00f8e3d82ae904e3d345ee15690]
class benchmarkstt.output.core.Json--><a href="https://benchmarkstt.readthedocs.io/en/latest/modules/benchmarkstt.output.core.html#benchmarkstt.output.core.Json" target="_top" title="https://benchmarkstt.readthedocs.io/en/latest/modules/benchmarkstt.output.core.html#benchmarkstt.output.core.Json" xlink:actuate="onRequest" xlink:href="https://benchmarkstt.readthedocs.io/en/latest/modules/benchmarkstt.output.core.html#benchmarkstt.output.core.Json" xlink:show="new" xlink:title="https://benchmarkstt.readthedocs.io/en/latest/modules/benchmarkstt.output.core.html#benchmarkstt.output.core.Json" xlink:type="simple"><rect fill="#FEFECE" filter="url(#fgtib3rdaiziv)" height="99.8203" id="benchmarkstt.output.core.Json" style="stroke: #A80036; stroke-width: 1.5;" width="239" x="306.5" y="292.1992"/><ellipse cx="409.75" cy="308.1992" fill="#ADD1B2" rx="11" ry="11" style="stroke: #A80036; stroke-width: 1.0;"/><path d="M412.2231,314.3423 Q411.6421,314.6411 411.0029,314.7905 Q410.3638,314.9399 409.6582,314.9399 Q407.1514,314.9399 405.8315,313.2881 Q404.5117,311.6362 404.5117,308.5151 Q404.5117,305.3857 405.8315,303.7339 Q407.1514,302.082 409.6582,302.082 Q410.3638,302.082 411.0112,302.2314 Q411.6587,302.3809 412.2231,302.6797 L412.2231,305.4023 Q411.5923,304.8213 410.9988,304.5515 Q410.4053,304.2817 409.7744,304.2817 Q408.4297,304.2817 407.7449,305.3484 Q407.0601,306.415 407.0601,308.5151 Q407.0601,310.6069 407.7449,311.6736 Q408.4297,312.7402 409.7744,312.7402 Q410.4053,312.7402 410.9988,312.4705 Q411.5923,312.2007 412.2231,311.6196 Z "/><text fill="#000000" font-family="sans-serif" font-size="12" lengthAdjust="spacingAndGlyphs" textLength="24" x="430.25" y="312.7344">Json</text><line style="stroke: #A80036; stroke-width: 1.5;" x1="307.5" x2="544.5" y1="324.1992" y2="324.1992"/><line style="stroke: #A80036; stroke-width: 1.5;" x1="307.5" x2="544.5" y1="332.1992" y2="332.1992"/><ellipse cx="317.5" cy="343.1992" fill="#84BE84" rx="3" ry="3" style="stroke: #038048; stroke-width: 1.0;"/><text fill="#000000" font-family="sans-serif" font-size="11" lengthAdjust="spacingAndGlyphs" textLength="79" x="326.5" y="346.834">__enter__(self)</text><ellipse cx="317.5" cy="356.1543" fill="#84BE84" rx="3" ry="3" style="stroke: #038048; stroke-width: 1.0;"/><text fill="#000000" font-family="sans-serif" font-size="11" lengthAdjust="spacingAndGlyphs" textLength="213" x="326.5" y="359.7891">__exit__(self, exc_type, exc_val, exc_tb)</text><ellipse cx="317.5" cy="369.1094" fill="#84BE84" rx="3" ry="3" style="stroke: #038048; stroke-width: 1.0;"/><text fill="#000000" font-family="sans-serif" font-size="11" lengthAdjust="spacingAndGlyphs" textLength="68" x="326.5" y="372.7441">__init__(self)</text><ellipse cx="317.5" cy="382.0645" fill="#84BE84" rx="3" ry="3" style="stroke: #038048; stroke-width: 1.0;"/><text fill="#000000" font-family="sans-serif" font-size="11" lengthAdjust="spacingAndGlyphs" textLength="121" x="326.5" y="385.6992">result(self, title, result)</text></a><!--MD5=[1202924086ca6a88207a70c63baf9330]
class benchmarkstt.output.core.MarkDown--><a href="https://benchmarkstt.readthedocs.io/en/latest/modules/benchmarkstt.output.core.html#benchmarkstt.output.core.MarkDown" target="_top" title="https://benchmarkstt.readthedocs.io/en/latest/modules/benchmarkstt.output.core.html#benchmarkstt.output.core.MarkDown" xlink:actuate="onRequest" xlink:href="https://benchmarkstt.readthedocs.io/en/latest/modules/benchmarkstt.output.core.html#benchmarkstt.output.core.MarkDown" xlink:show="new" xlink:title="https://benchmarkstt.readthedocs.io/en/latest/modules/benchmarkstt.output.core.html#benchmarkstt.output.core.MarkDown" xlink:type="simple"><rect fill="#FEFECE" filter="url(#fgtib3rdaiziv)" height="99.8203" id="benchmarkstt.output.core.MarkDown" style="stroke: #A80036; stroke-width: 1.5;" width="239" x="32.5" y="574.1992"/><ellipse cx="117.25" cy="590.1992" fill="#ADD1B2" rx="11" ry="11" style="stroke: #A80036; stroke-width: 1.0;"/><path d="M119.7231,596.3423 Q119.1421,596.6411 118.5029,596.7905 Q117.8638,596.9399 117.1582,596.9399 Q114.6514,596.9399 113.3315,595.2881 Q112.0117,593.6362 112.0117,590.5151 Q112.0117,587.3857 113.3315,585.7339 Q114.6514,584.082 117.1582,584.082 Q117.8638,584.082 118.5112,584.2314 Q119.1587,584.3809 119.7231,584.6797 L119.7231,587.4023 Q119.0923,586.8213 118.4988,586.5515 Q117.9053,586.2817 117.2744,586.2817 Q115.9297,586.2817 115.2449,587.3484 Q114.5601,588.415 114.5601,590.5151 Q114.5601,592.6069 115.2449,593.6736 Q115.9297,594.7402 117.2744,594.7402 Q117.9053,594.7402 118.4988,594.4705 Q119.0923,594.2007 119.7231,593.6196 Z "/><text fill="#000000" font-family="sans-serif" font-size="12" lengthAdjust="spacingAndGlyphs" textLength="61" x="137.75" y="594.7344">MarkDown</text><line style="stroke: #A80036; stroke-width: 1.5;" x1="33.5" x2="270.5" y1="606.1992" y2="606.1992"/><line style="stroke: #A80036; stroke-width: 1.5;" x1="33.5" x2="270.5" y1="614.1992" y2="614.1992"/><ellipse cx="43.5" cy="625.1992" fill="#84BE84" rx="3" ry="3" style="stroke: #038048; stroke-width: 1.0;"/><text fill="#000000" font-family="sans-serif" font-size="11" lengthAdjust="spacingAndGlyphs" textLength="79" x="52.5" y="628.834">__enter__(self)</text><ellipse cx="43.5" cy="638.1543" fill="#84BE84" rx="3" ry="3" style="stroke: #038048; stroke-width: 1.0;"/><text fill="#000000" font-family="sans-serif" font-size="11" lengthAdjust="spacingAndGlyphs" textLength="213" x="52.5" y="641.7891">__exit__(self, exc_type, exc_val, exc_tb)</text><ellipse cx="43.5" cy="651.1094" fill="#84BE84" rx="3" ry="3" style="stroke: #038048; stroke-width: 1.0;"/><text fill="#000000" font-family="sans-serif" font-size="11" lengthAdjust="spacingAndGlyphs" textLength="90" x="52.5" y="654.7441">print(self, result)</text><ellipse cx="43.5" cy="664.0645" fill="#84BE84" rx="3" ry="3" style="stroke: #038048; stroke-width: 1.0;"/><text fill="#000000" font-family="sans-serif" font-size="11" lengthAdjust="spacingAndGlyphs" textLength="121" x="52.5" y="667.6992">result(self, title, result)</text></a><!--MD5=[1b1c3484ac7c767612303980bbf618ed]
class benchmarkstt.output.core.ReStructuredText--><a href="https://benchmarkstt.readthedocs.io/en/latest/modules/benchmarkstt.output.core.html#benchmarkstt.output.core.ReStructuredText" target="_top" title="https://benchmarkstt.readthedocs.io/en/latest/modules/benchmarkstt.output.core.html#benchmarkstt.output.core.ReStructuredText" xlink:actuate="onRequest" xlink:href="https://benchmarkstt.readthedocs.io/en/latest/modules/benchmarkstt.output.core.html#benchmarkstt.output.core.ReStructuredText" xlink:show="new" xlink:title="https://benchmarkstt.readthedocs.io/en/latest/modules/benchmarkstt.output.core.html#benchmarkstt.output.core.ReStructuredText" xlink:type="simple"><rect fill="#FEFECE" filter="url(#fgtib3rdaiziv)" height="99.8203" id="benchmarkstt.output.core.ReStructuredText" style="stroke: #A80036; stroke-width: 1.5;" width="239" x="306.5" y="574.1992"/><ellipse cx="371.75" cy="590.1992" fill="#ADD1B2" rx="11" ry="11" style="stroke: #A80036; stroke-width: 1.0;"/><path d="M374.2231,596.3423 Q373.6421,596.6411 373.0029,596.7905 Q372.3638,596.9399 371.6582,596.9399 Q369.1514,596.9399 367.8315,595.2881 Q366.5117,593.6362 366.5117,590.5151 Q366.5117,587.3857 367.8315,585.7339 Q369.1514,584.082 371.6582,584.082 Q372.3638,584.082 373.0112,584.2314 Q373.6587,584.3809 374.2231,584.6797 L374.2231,587.4023 Q373.5923,586.8213 372.9988,586.5515 Q372.4053,586.2817 371.7744,586.2817 Q370.4297,586.2817 369.7449,587.3484 Q369.0601,588.415 369.0601,590.5151 Q369.0601,592.6069 369.7449,593.6736 Q370.4297,594.7402 371.7744,594.7402 Q372.4053,594.7402 372.9988,594.4705 Q373.5923,594.2007 374.2231,593.6196 Z "/><text fill="#000000" font-family="sans-serif" font-size="12" lengthAdjust="spacingAndGlyphs" textLength="100" x="392.25" y="594.7344">ReStructuredText</text><line style="stroke: #A80036; stroke-width: 1.5;" x1="307.5" x2="544.5" y1="606.1992" y2="606.1992"/><line style="stroke: #A80036; stroke-width: 1.5;" x1="307.5" x2="544.5" y1="614.1992" y2="614.1992"/><ellipse cx="317.5" cy="625.1992" fill="#84BE84" rx="3" ry="3" style="stroke: #038048; stroke-width: 1.0;"/><text fill="#000000" font-family="sans-serif" font-size="11" lengthAdjust="spacingAndGlyphs" textLength="79" x="326.5" y="628.834">__enter__(self)</text><ellipse cx="317.5" cy="638.1543" fill="#84BE84" rx="3" ry="3" style="stroke: #038048; stroke-width: 1.0;"/><text fill="#000000" font-family="sans-serif" font-size="11" lengthAdjust="spacingAndGlyphs" textLength="213" x="326.5" y="641.7891">__exit__(self, exc_type, exc_val, exc_tb)</text><ellipse cx="317.5" cy="651.1094" fill="#84BE84" rx="3" ry="3" style="stroke: #038048; stroke-width: 1.0;"/><text fill="#000000" font-family="sans-serif" font-size="11" lengthAdjust="spacingAndGlyphs" textLength="90" x="326.5" y="654.7441">print(self, result)</text><ellipse cx="317.5" cy="664.0645" fill="#84BE84" rx="3" ry="3" style="stroke: #038048; stroke-width: 1.0;"/><text fill="#000000" font-family="sans-serif" font-size="11" lengthAdjust="spacingAndGlyphs" textLength="121" x="326.5" y="667.6992">result(self, title, result)</text></a><!--MD5=[ad472f876b41c377ab9c2f7fd723b528]
class benchmarkstt.output.core.SimpleTextBase--><a href="https://benchmarkstt.readthedocs.io/en/latest/modules/benchmarkstt.output.core.html#benchmarkstt.output.core.SimpleTextBase" target="_top" title="https://benchmarkstt.readthedocs.io/en/latest/modules/benchmarkstt.output.core.html#benchmarkstt.output.core.SimpleTextBase" xlink:actuate="onRequest" xlink:href="https://benchmarkstt.readthedocs.io/en/latest/modules/benchmarkstt.output.core.html#benchmarkstt.output.core.SimpleTextBase" xlink:show="new" xlink:title="https://benchmarkstt.readthedocs.io/en/latest/modules/benchmarkstt.output.core.html#benchmarkstt.output.core.SimpleTextBase" xlink:type="simple"><rect fill="#FEFECE" filter="url(#fgtib3rdaiziv)" height="99.8203" id="benchmarkstt.output.core.SimpleTextBase" style="stroke: #A80036; stroke-width: 1.5;" width="239" x="32.5" y="292.1992"/><ellipse cx="102.25" cy="308.1992" fill="#ADD1B2" rx="11" ry="11" style="stroke: #A80036; stroke-width: 1.0;"/><path d="M104.7231,314.3423 Q104.1421,314.6411 103.5029,314.7905 Q102.8638,314.9399 102.1582,314.9399 Q99.6514,314.9399 98.3315,313.2881 Q97.0117,311.6362 97.0117,308.5151 Q97.0117,305.3857 98.3315,303.7339 Q99.6514,302.082 102.1582,302.082 Q102.8638,302.082 103.5112,302.2314 Q104.1587,302.3809 104.7231,302.6797 L104.7231,305.4023 Q104.0923,304.8213 103.4988,304.5515 Q102.9053,304.2817 102.2744,304.2817 Q100.9297,304.2817 100.2449,305.3484 Q99.5601,306.415 99.5601,308.5151 Q99.5601,310.6069 100.2449,311.6736 Q100.9297,312.7402 102.2744,312.7402 Q102.9053,312.7402 103.4988,312.4705 Q104.0923,312.2007 104.7231,311.6196 Z "/><text fill="#000000" font-family="sans-serif" font-size="12" lengthAdjust="spacingAndGlyphs" textLength="91" x="122.75" y="312.7344">SimpleTextBase</text><line style="stroke: #A80036; stroke-width: 1.5;" x1="33.5" x2="270.5" y1="324.1992" y2="324.1992"/><line style="stroke: #A80036; stroke-width: 1.5;" x1="33.5" x2="270.5" y1="332.1992" y2="332.1992"/><ellipse cx="43.5" cy="343.1992" fill="#84BE84" rx="3" ry="3" style="stroke: #038048; stroke-width: 1.0;"/><text fill="#000000" font-family="sans-serif" font-size="11" lengthAdjust="spacingAndGlyphs" textLength="79" x="52.5" y="346.834">__enter__(self)</text><ellipse cx="43.5" cy="356.1543" fill="#84BE84" rx="3" ry="3" style="stroke: #038048; stroke-width: 1.0;"/><text fill="#000000" font-family="sans-serif" font-size="11" lengthAdjust="spacingAndGlyphs" textLength="213" x="52.5" y="359.7891">__exit__(self, exc_type, exc_val, exc_tb)</text><ellipse cx="43.5" cy="369.1094" fill="#84BE84" rx="3" ry="3" style="stroke: #038048; stroke-width: 1.0;"/><text fill="#000000" font-family="sans-serif" font-size="11" lengthAdjust="spacingAndGlyphs" textLength="90" x="52.5" y="372.7441">print(self, result)</text><ellipse cx="43.5" cy="382.0645" fill="#84BE84" rx="3" ry="3" style="stroke: #038048; stroke-width: 1.0;"/><text fill="#000000" font-family="sans-serif" font-size="11" lengthAdjust="spacingAndGlyphs" textLength="121" x="52.5" y="385.6992">result(self, title, result)</text></a><!--MD5=[6bad0332cb50a567e063560f49fe1b05]
class benchmarkstt.output.Base--><rect fill="#FEFECE" filter="url(#fgtib3rdaiziv)" height="48" id="benchmarkstt.output.Base" style="stroke: #A80036; stroke-width: 1.5;" width="59" x="284.5" y="62.1992"/><ellipse cx="299.5" cy="78.1992" fill="#ADD1B2" rx="11" ry="11" style="stroke: #A80036; stroke-width: 1.0;"/><path d="M301.9731,84.3423 Q301.3921,84.6411 300.7529,84.7905 Q300.1138,84.9399 299.4082,84.9399 Q296.9014,84.9399 295.5815,83.2881 Q294.2617,81.6362 294.2617,78.5151 Q294.2617,75.3857 295.5815,73.7339 Q296.9014,72.082 299.4082,72.082 Q300.1138,72.082 300.7612,72.2314 Q301.4087,72.3809 301.9731,72.6797 L301.9731,75.4023 Q301.3423,74.8213 300.7488,74.5515 Q300.1553,74.2817 299.5244,74.2817 Q298.1797,74.2817 297.4949,75.3484 Q296.8101,76.415 296.8101,78.5151 Q296.8101,80.6069 297.4949,81.6736 Q298.1797,82.7402 299.5244,82.7402 Q300.1553,82.7402 300.7488,82.4705 Q301.3423,82.2007 301.9731,81.6196 Z "/><text fill="#000000" font-family="sans-serif" font-size="12" lengthAdjust="spacingAndGlyphs" textLength="27" x="313.5" y="82.7344">Base</text><line style="stroke: #A80036; stroke-width: 1.5;" x1="285.5" x2="342.5" y1="94.1992" y2="94.1992"/><line style="stroke: #A80036; stroke-width: 1.5;" x1="285.5" x2="342.5" y1="102.1992" y2="102.1992"/><!--MD5=[b4ba39b199d1ae7f900ea69508af4a3d]
reverse link benchmarkstt.output.Base to benchmarkstt.output.core.Json--><path d="M332.51,129.1692 C352.21,173.8492 383.37,244.5192 404.24,291.8492 " fill="none" id="benchmarkstt.output.Base&lt;-benchmarkstt.output.core.Json" style="stroke: #A80036; stroke-width: 1.0;"/><polygon fill="none" points="326,131.7592,324.34,110.6392,338.81,126.1192,326,131.7592" style="stroke: #A80036; stroke-width: 1.0;"/><!--MD5=[649e8d6b5a19579f64f6ff55d9b80603]
reverse link benchmarkstt.output.core.SimpleTextBase to benchmarkstt.output.core.MarkDown--><path d="M152,412.3592 C152,462.5892 152,529.3392 152,574.1592 " fill="none" id="benchmarkstt.output.core.SimpleTextBase&lt;-benchmarkstt.output.core.MarkDown" style="stroke: #A80036; stroke-width: 1.0;"/><polygon fill="none" points="145,412.2892,152,392.2892,159,412.2892,145,412.2892" style="stroke: #A80036; stroke-width: 1.0;"/><!--MD5=[0064dcd89a9c0ed1362beefa7e7418bc]
reverse link benchmarkstt.output.core.SimpleTextBase to benchmarkstt.output.core.ReStructuredText--><path d="M214.16,406.7192 C263.85,457.4992 332.49,527.6492 378.01,574.1592 " fill="none" id="benchmarkstt.output.core.SimpleTextBase&lt;-benchmarkstt.output.core.ReStructuredText" style="stroke: #A80036; stroke-width: 1.0;"/><polygon fill="none" points="209.03,411.4792,200.04,392.2892,219.03,401.6892,209.03,411.4792" style="stroke: #A80036; stroke-width: 1.0;"/><!--MD5=[ec4fe02a8646f37173536f5ee390896c]
reverse link benchmarkstt.output.Base to benchmarkstt.output.core.SimpleTextBase--><path d="M288.19,127.6692 C259.75,172.2592 214,243.9892 183.48,291.8492 " fill="none" id="benchmarkstt.output.Base&lt;-benchmarkstt.output.core.SimpleTextBase" style="stroke: #A80036; stroke-width: 1.0;"/><polygon fill="none" points="282.39,123.7392,299.05,110.6392,294.2,131.2692,282.39,123.7392" style="stroke: #A80036; stroke-width: 1.0;"/><!--MD5=[00bd22e7aa14253ea31c5e30c35f9a91]
@startuml
title Benchmarkstt.output
		class benchmarkstt.output.core.Json [[https://benchmarkstt.readthedocs.io/en/latest/modules/benchmarkstt.output.core.html#benchmarkstt.output.core.Json]] {
			+__enter__(self)
			+__exit__(self, exc_type, exc_val, exc_tb)
			+__init__(self)
			+result(self, title, result)
		}
		class benchmarkstt.output.core.MarkDown [[https://benchmarkstt.readthedocs.io/en/latest/modules/benchmarkstt.output.core.html#benchmarkstt.output.core.MarkDown]] {
			+__enter__(self)
			+__exit__(self, exc_type, exc_val, exc_tb)
			+print(self, result)
			+result(self, title, result)
		}
		class benchmarkstt.output.core.ReStructuredText [[https://benchmarkstt.readthedocs.io/en/latest/modules/benchmarkstt.output.core.html#benchmarkstt.output.core.ReStructuredText]] {
			+__enter__(self)
			+__exit__(self, exc_type, exc_val, exc_tb)
			+print(self, result)
			+result(self, title, result)
		}
		class benchmarkstt.output.core.SimpleTextBase [[https://benchmarkstt.readthedocs.io/en/latest/modules/benchmarkstt.output.core.html#benchmarkstt.output.core.SimpleTextBase]] {
			+__enter__(self)
			+__exit__(self, exc_type, exc_val, exc_tb)
			+print(self, result)
			+result(self, title, result)
		}

benchmarkstt.output.core.Json - -up- -|> benchmarkstt.output.Base
benchmarkstt.output.core.MarkDown - -up- -|> benchmarkstt.output.core.SimpleTextBase
benchmarkstt.output.core.ReStructuredText - -up- -|> benchmarkstt.output.core.SimpleTextBase
benchmarkstt.output.core.SimpleTextBase - -up- -|> benchmarkstt.output.Base
@enduml

PlantUML version 1.2020.15(Sun Jun 28 11:39:45 UTC 2020)
(GPL source distribution)
Java Runtime: OpenJDK Runtime Environment
JVM: OpenJDK 64-Bit Server VM
Default Encoding: UTF-8
Language: en
Country: BE
--></g></svg>