<?xml version="1.0" encoding="UTF-8" standalone="no"?><svg xmlns="http://www.w3.org/2000/svg" xmlns:xlink="http://www.w3.org/1999/xlink" contentScriptType="application/ecmascript" contentStyleType="text/css" height="333px" preserveAspectRatio="none" style="width:621px;height:333px;" version="1.1" viewBox="0 0 621 333" width="621px" zoomAndPan="magnify"><defs><filter height="300%" id="fuxc9v8fmnuh9" width="300%" x="-1" y="-1"><feGaussianBlur result="blurOut" stdDeviation="2.0"/><feColorMatrix in="blurOut" result="blurOut2" type="matrix" values="0 0 0 0 0 0 0 0 0 0 0 0 0 0 0 0 0 0 .4 0"/><feOffset dx="4.0" dy="4.0" in="blurOut2" result="blurOut3"/><feBlend in="SourceGraphic" in2="blurOut3" mode="normal"/></filter></defs><g><text fill="#000000" font-family="Helvetica" font-size="18" lengthAdjust="spacingAndGlyphs" textLength="152" x="225.5" y="13.8604">benchmarkstt.input</text><!--MD5=[94de2ef9dde389aecb44d7f232eba8a2]
cluster benchmarkstt.input--><rect fill="#FFFFFF" filter="url(#fuxc9v8fmnuh9)" height="115" style="stroke: #000000; stroke-width: 1.5;" width="150" x="232" y="25"/><path d="M376,26 L376,32 L366,42 L232,42 " fill="none" style="stroke: #000000; stroke-width: 1.5;"/><text fill="#000000" font-family="Helvetica" font-size="14" font-weight="bold" lengthAdjust="spacingAndGlyphs" textLength="134" x="235" y="36.7803">benchmarkstt.input</text><!--MD5=[5c7a64d73ca244446f0e70026cf5d0bf]
cluster benchmarkstt.input.core--><rect fill="#FFFFFF" filter="url(#fuxc9v8fmnuh9)" height="152" style="stroke: #000000; stroke-width: 1.5;" width="597" x="7" y="164"/><path d="M185,165 L185,171 L175,181 L7,181 " fill="none" style="stroke: #000000; stroke-width: 1.5;"/><text fill="#000000" font-family="Helvetica" font-size="14" font-weight="bold" lengthAdjust="spacingAndGlyphs" textLength="168" x="10" y="175.7803">benchmarkstt.input.core</text><!--MD5=[d1e904a0c11302288bad0868539b156c]
class benchmarkstt.input.Base--><a href="https://benchmarkstt.readthedocs.io/en/latest/modules/benchmarkstt.input.html#benchmarkstt.input.Base" target="_top" title="https://benchmarkstt.readthedocs.io/en/latest/modules/benchmarkstt.input.html#benchmarkstt.input.Base" xlink:actuate="onRequest" xlink:href="https://benchmarkstt.readthedocs.io/en/latest/modules/benchmarkstt.input.html#benchmarkstt.input.Base" xlink:show="new" xlink:title="https://benchmarkstt.readthedocs.io/en/latest/modules/benchmarkstt.input.html#benchmarkstt.input.Base" xlink:type="simple"><rect fill="#FFFFFF" filter="url(#fuxc9v8fmnuh9)" height="66" id="benchmarkstt.input.Base" style="stroke: #000000; stroke-width: 1.0;" width="82" x="266" y="58"/><ellipse cx="290.9" cy="74" fill="#C2C2C2" rx="11" ry="11" style="stroke: #000000; stroke-width: 1.0;"/><path d="M293.3731,80.1431 Q292.7921,80.4419 292.1529,80.5913 Q291.5138,80.7407 290.8082,80.7407 Q288.3014,80.7407 286.9815,79.0889 Q285.6617,77.437 285.6617,74.3159 Q285.6617,71.1865 286.9815,69.5347 Q288.3014,67.8828 290.8082,67.8828 Q291.5138,67.8828 292.1612,68.0322 Q292.8087,68.1816 293.3731,68.4805 L293.3731,71.2031 Q292.7423,70.6221 292.1488,70.3523 Q291.5553,70.0825 290.9244,70.0825 Q289.5797,70.0825 288.8949,71.1492 Q288.2101,72.2158 288.2101,74.3159 Q288.2101,76.4077 288.8949,77.4744 Q289.5797,78.541 290.9244,78.541 Q291.5553,78.541 292.1488,78.2712 Q292.7423,78.0015 293.3731,77.4204 Z "/><text fill="#000000" font-family="Helvetica" font-size="12" lengthAdjust="spacingAndGlyphs" textLength="28" x="307.1" y="77.2402">Base</text><line style="stroke: #000000; stroke-width: 1.5;" x1="267" x2="347" y1="90" y2="90"/><ellipse cx="277" cy="116" fill="#A6A6A6" rx="3" ry="3" style="stroke: #545454; stroke-width: 1.0;"/><text fill="#000000" font-family="Helvetica" font-size="11" lengthAdjust="spacingAndGlyphs" textLength="47" x="286" y="117.4702">__iter__()</text><line style="stroke: #000000; stroke-width: 1.0; stroke-dasharray: 1.0,2.0;" x1="267" x2="270" y1="103.5" y2="103.5"/><text fill="#000000" font-family="Helvetica" font-size="11" lengthAdjust="spacingAndGlyphs" textLength="74" x="270" y="105.9702">Public Methods</text><line style="stroke: #000000; stroke-width: 1.0; stroke-dasharray: 1.0,2.0;" x1="344" x2="347" y1="103.5" y2="103.5"/></a><!--MD5=[4843f7accda627844ca340f5d1efa37d]
class benchmarkstt.input.core.File--><a href="https://benchmarkstt.readthedocs.io/en/latest/modules/benchmarkstt.input.core.html#benchmarkstt.input.core.File" target="_top" title="https://benchmarkstt.readthedocs.io/en/latest/modules/benchmarkstt.input.core.html#benchmarkstt.input.core.File" xlink:actuate="onRequest" xlink:href="https://benchmarkstt.readthedocs.io/en/latest/modules/benchmarkstt.input.core.html#benchmarkstt.input.core.File" xlink:show="new" xlink:title="https://benchmarkstt.readthedocs.io/en/latest/modules/benchmarkstt.input.core.html#benchmarkstt.input.core.File" xlink:type="simple"><rect fill="#FFFFFF" filter="url(#fuxc9v8fmnuh9)" height="103" id="benchmarkstt.input.core.File" style="stroke: #000000; stroke-width: 1.0;" width="261" x="326.5" y="197"/><ellipse cx="442.75" cy="213" fill="#C2C2C2" rx="11" ry="11" style="stroke: #000000; stroke-width: 1.0;"/><path d="M445.2231,219.1431 Q444.6421,219.4419 444.0029,219.5913 Q443.3638,219.7407 442.6582,219.7407 Q440.1514,219.7407 438.8315,218.0889 Q437.5117,216.437 437.5117,213.3159 Q437.5117,210.1865 438.8315,208.5347 Q440.1514,206.8828 442.6582,206.8828 Q443.3638,206.8828 444.0112,207.0322 Q444.6587,207.1816 445.2231,207.4805 L445.2231,210.2031 Q444.5923,209.6221 443.9988,209.3523 Q443.4053,209.0825 442.7744,209.0825 Q441.4297,209.0825 440.7449,210.1492 Q440.0601,211.2158 440.0601,213.3159 Q440.0601,215.4077 440.7449,216.4744 Q441.4297,217.541 442.7744,217.541 Q443.4053,217.541 443.9988,217.2712 Q444.5923,217.0015 445.2231,216.4204 Z "/><text fill="#000000" font-family="Helvetica" font-size="12" lengthAdjust="spacingAndGlyphs" textLength="20" x="463.25" y="216.2402">File</text><line style="stroke: #000000; stroke-width: 1.5;" x1="327.5" x2="586.5" y1="229" y2="229"/><ellipse cx="337.5" cy="255" fill="#A6A6A6" rx="3" ry="3" style="stroke: #545454; stroke-width: 1.0;"/><text fill="#000000" font-family="Helvetica" font-size="11" lengthAdjust="spacingAndGlyphs" textLength="235" x="346.5" y="256.4702">__init__(file, input_type=None, normalizer=None)</text><ellipse cx="337.5" cy="266" fill="#A6A6A6" rx="3" ry="3" style="stroke: #545454; stroke-width: 1.0;"/><text fill="#000000" font-family="Helvetica" font-size="11" lengthAdjust="spacingAndGlyphs" textLength="47" x="346.5" y="267.4702">__iter__()</text><line style="stroke: #000000; stroke-width: 1.0; stroke-dasharray: 1.0,2.0;" x1="327.5" x2="420" y1="242.5" y2="242.5"/><text fill="#000000" font-family="Helvetica" font-size="11" lengthAdjust="spacingAndGlyphs" textLength="74" x="420" y="244.9702">Public Methods</text><line style="stroke: #000000; stroke-width: 1.0; stroke-dasharray: 1.0,2.0;" x1="494" x2="586.5" y1="242.5" y2="242.5"/><ellipse cx="337.5" cy="292" fill="#A6A6A6" rx="3" ry="3" style="stroke: #545454; stroke-width: 1.0;"/><text fill="#000000" font-family="Helvetica" font-size="11" lengthAdjust="spacingAndGlyphs" text-decoration="underline" textLength="83" x="346.5" y="293.4702">available_types()</text><line style="stroke: #000000; stroke-width: 1.0; stroke-dasharray: 1.0,2.0;" x1="327.5" x2="421" y1="279.5" y2="279.5"/><text fill="#000000" font-family="Helvetica" font-size="11" lengthAdjust="spacingAndGlyphs" textLength="72" x="421" y="281.9702">Static Methods</text><line style="stroke: #000000; stroke-width: 1.0; stroke-dasharray: 1.0,2.0;" x1="493" x2="586.5" y1="279.5" y2="279.5"/></a><!--MD5=[3edd34d35203ceb4dd4fa63a3b0c665d]
class benchmarkstt.input.core.PlainText--><a href="https://benchmarkstt.readthedocs.io/en/latest/modules/benchmarkstt.input.core.html#benchmarkstt.input.core.PlainText" target="_top" title="https://benchmarkstt.readthedocs.io/en/latest/modules/benchmarkstt.input.core.html#benchmarkstt.input.core.PlainText" xlink:actuate="onRequest" xlink:href="https://benchmarkstt.readthedocs.io/en/latest/modules/benchmarkstt.input.core.html#benchmarkstt.input.core.PlainText" xlink:show="new" xlink:title="https://benchmarkstt.readthedocs.io/en/latest/modules/benchmarkstt.input.core.html#benchmarkstt.input.core.PlainText" xlink:type="simple"><rect fill="#FFFFFF" filter="url(#fuxc9v8fmnuh9)" height="77" id="benchmarkstt.input.core.PlainText" style="stroke: #000000; stroke-width: 1.0;" width="268" x="23" y="210"/><ellipse cx="127.25" cy="226" fill="#C2C2C2" rx="11" ry="11" style="stroke: #000000; stroke-width: 1.0;"/><path d="M129.7231,232.1431 Q129.1421,232.4419 128.5029,232.5913 Q127.8638,232.7407 127.1582,232.7407 Q124.6514,232.7407 123.3315,231.0889 Q122.0117,229.437 122.0117,226.3159 Q122.0117,223.1865 123.3315,221.5347 Q124.6514,219.8828 127.1582,219.8828 Q127.8638,219.8828 128.5112,220.0322 Q129.1587,220.1816 129.7231,220.4805 L129.7231,223.2031 Q129.0923,222.6221 128.4988,222.3523 Q127.9053,222.0825 127.2744,222.0825 Q125.9297,222.0825 125.2449,223.1492 Q124.5601,224.2158 124.5601,226.3159 Q124.5601,228.4077 125.2449,229.4744 Q125.9297,230.541 127.2744,230.541 Q127.9053,230.541 128.4988,230.2712 Q129.0923,230.0015 129.7231,229.4204 Z "/><text fill="#000000" font-family="Helvetica" font-size="12" lengthAdjust="spacingAndGlyphs" textLength="51" x="147.75" y="229.2402">PlainText</text><line style="stroke: #000000; stroke-width: 1.5;" x1="24" x2="290" y1="242" y2="242"/><ellipse cx="34" cy="268" fill="#A6A6A6" rx="3" ry="3" style="stroke: #545454; stroke-width: 1.0;"/><text fill="#000000" font-family="Helvetica" font-size="11" lengthAdjust="spacingAndGlyphs" textLength="242" x="43" y="269.4702">__init__(text, segmenter=None, normalizer=None)</text><ellipse cx="34" cy="279" fill="#A6A6A6" rx="3" ry="3" style="stroke: #545454; stroke-width: 1.0;"/><text fill="#000000" font-family="Helvetica" font-size="11" lengthAdjust="spacingAndGlyphs" textLength="47" x="43" y="280.4702">__iter__()</text><line style="stroke: #000000; stroke-width: 1.0; stroke-dasharray: 1.0,2.0;" x1="24" x2="120" y1="255.5" y2="255.5"/><text fill="#000000" font-family="Helvetica" font-size="11" lengthAdjust="spacingAndGlyphs" textLength="74" x="120" y="257.9702">Public Methods</text><line style="stroke: #000000; stroke-width: 1.0; stroke-dasharray: 1.0,2.0;" x1="194" x2="290" y1="255.5" y2="255.5"/></a><!--MD5=[065a416e4c33abf0dffdc83d6e1bf045]
reverse link benchmarkstt.input.Base to benchmarkstt.input.core.File--><path d="M352.21,138.87 C369.9,157.2 390.22,178.28 408.24,196.95 " fill="none" id="benchmarkstt.input.Base&lt;-benchmarkstt.input.core.File" style="stroke: #000000; stroke-width: 1.0;"/><polygon fill="none" points="346.93,143.47,338.08,124.22,357,133.75,346.93,143.47" style="stroke: #000000; stroke-width: 1.0;"/><!--MD5=[3d607d7f67fd018830fa1d9f070f3dcc]
reverse link benchmarkstt.input.Base to benchmarkstt.input.core.PlainText--><path d="M261.85,138.8 C239.93,161.53 213.94,188.47 193.32,209.85 " fill="none" id="benchmarkstt.input.Base&lt;-benchmarkstt.input.core.PlainText" style="stroke: #000000; stroke-width: 1.0;"/><polygon fill="none" points="257,133.75,275.92,124.22,267.07,143.47,257,133.75" style="stroke: #000000; stroke-width: 1.0;"/><!--MD5=[17c2c95ce0f2a15b36ecd0cbf9ec86cd]
@startuml

title benchmarkstt.input

skinparam packageStyle Frame
!includeurl https://raw.githubusercontent.com/matthewjosephtaylor/plantuml-style/master/style.pu
package benchmarkstt.input {

	class benchmarkstt.input.Base [[https://benchmarkstt.readthedocs.io/en/latest/modules/benchmarkstt.input.html#benchmarkstt.input.Base]] {
		.. Public Methods ..
		+__iter__()
	}


}

package benchmarkstt.input.core {

	class benchmarkstt.input.core.File [[https://benchmarkstt.readthedocs.io/en/latest/modules/benchmarkstt.input.core.html#benchmarkstt.input.core.File]] {
		.. Public Methods ..
		+__init__(file, input_type=None, normalizer=None)
		+__iter__()
		.. Static Methods ..
		{static} +available_types()
	}


	class benchmarkstt.input.core.PlainText [[https://benchmarkstt.readthedocs.io/en/latest/modules/benchmarkstt.input.core.html#benchmarkstt.input.core.PlainText]] {
		.. Public Methods ..
		+__init__(text, segmenter=None, normalizer=None)
		+__iter__()
	}

}


benchmarkstt.input.core.File -up-|> benchmarkstt.input.Base
benchmarkstt.input.core.PlainText -up-|> benchmarkstt.input.Base

@enduml

@startuml

title benchmarkstt.input

skinparam packageStyle Frame

skinparam defaultFontName  Helvetica
skinparam sequenceMessageAlign center
skinparam monochrome true

skinparam activity {
	ArrowColor Black
	BackgroundColor White
	BorderColor Black
	BorderThickness 1
}

skinparam actor {
	BackgroundColor White
	BorderColor Black
}

skinparam usecase {
	ArrowColor Black
	BackgroundColor White
	BorderColor Black
	BorderThickness 1
}

skinparam class {
	ArrowColor Black
	BackgroundColor White
	BorderColor Black
	BorderThickness 1
}


skinparam object {
	ArrowColor Black
	BackgroundColor White
	BorderColor Black
}

skinparam package {
	BackgroundColor White
	BorderColor Black
}


skinparam component {
	BackgroundColor White
	InterfaceBackgroundColor White
	BorderColor Black
	InterfaceBorderColor Black
}

skinparam note {
	BackgroundColor White
	BorderColor Black
}

skinparam state {
	ArrowColor Black
	BackgroundColor White
	BorderColor Black
}

skinparam sequence {
	ArrowColor Black
	BackgroundColor White
	ParticipantBackgroundColor White
	BorderColor Black
	LifeLineBorderColor Black
	ParticipantBorderColor Black
	BoxLineColor Black
}

skinparam interface {
	BackgroundColor White
	BorderColor Black
}
package benchmarkstt.input {

	class benchmarkstt.input.Base [[https://benchmarkstt.readthedocs.io/en/latest/modules/benchmarkstt.input.html#benchmarkstt.input.Base]] {
		.. Public Methods ..
		+__iter__()
	}


}

package benchmarkstt.input.core {

	class benchmarkstt.input.core.File [[https://benchmarkstt.readthedocs.io/en/latest/modules/benchmarkstt.input.core.html#benchmarkstt.input.core.File]] {
		.. Public Methods ..
		+__init__(file, input_type=None, normalizer=None)
		+__iter__()
		.. Static Methods ..
		{static} +available_types()
	}


	class benchmarkstt.input.core.PlainText [[https://benchmarkstt.readthedocs.io/en/latest/modules/benchmarkstt.input.core.html#benchmarkstt.input.core.PlainText]] {
		.. Public Methods ..
		+__init__(text, segmenter=None, normalizer=None)
		+__iter__()
	}

}


benchmarkstt.input.core.File -up-|> benchmarkstt.input.Base
benchmarkstt.input.core.PlainText -up-|> benchmarkstt.input.Base

@enduml

PlantUML version 1.2020.15(Sun Jun 28 13:39:45 CEST 2020)
(GPL source distribution)
Java Runtime: OpenJDK Runtime Environment
JVM: OpenJDK 64-Bit Server VM
Default Encoding: UTF-8
Language: en
Country: BE
--></g></svg>