<?xml version="1.0" encoding="UTF-8" standalone="no"?><svg xmlns="http://www.w3.org/2000/svg" xmlns:xlink="http://www.w3.org/1999/xlink" contentScriptType="application/ecmascript" contentStyleType="text/css" height="329px" preserveAspectRatio="none" style="width:1725px;height:329px;" version="1.1" viewBox="0 0 1725 329" width="1725px" zoomAndPan="magnify"><defs><filter height="300%" id="fv4z29cjnvgwy" width="300%" x="-1" y="-1"><feGaussianBlur result="blurOut" stdDeviation="2.0"/><feColorMatrix in="blurOut" result="blurOut2" type="matrix" values="0 0 0 0 0 0 0 0 0 0 0 0 0 0 0 0 0 0 .4 0"/><feOffset dx="4.0" dy="4.0" in="blurOut2" result="blurOut3"/><feBlend in="SourceGraphic" in2="blurOut3" mode="normal"/></filter></defs><g><!--MD5=[22ea792f0a86ed46e658ff5419811104]
cluster benchmarkstt.metrics--><a href="https://benchmarkstt.readthedocs.io/en/latest/modules/benchmarkstt.metrics.html#" target="_top" title="https://benchmarkstt.readthedocs.io/en/latest/modules/benchmarkstt.metrics.html#" xlink:actuate="onRequest" xlink:href="https://benchmarkstt.readthedocs.io/en/latest/modules/benchmarkstt.metrics.html#" xlink:show="new" xlink:title="https://benchmarkstt.readthedocs.io/en/latest/modules/benchmarkstt.metrics.html#" xlink:type="simple"><rect fill="#FFFFFF" filter="url(#fv4z29cjnvgwy)" height="121" style="stroke: #000000; stroke-width: 1.5;" width="490" x="500" y="7"/><path d="M666,8 L666,16.4883 L656,26.4883 L500,26.4883 " fill="none" style="stroke: #000000; stroke-width: 1.5;"/><text fill="#000000" font-family="sans-serif" font-size="14" font-weight="bold" lengthAdjust="spacingAndGlyphs" textLength="156" x="503" y="21.5352">benchmarkstt.metrics</text></a><!--MD5=[144dc3a7777fd2b902a939eb9db82fdd]
cluster benchmarkstt.metrics.core--><a href="https://benchmarkstt.readthedocs.io/en/latest/modules/benchmarkstt.metrics.core.html#" target="_top" title="https://benchmarkstt.readthedocs.io/en/latest/modules/benchmarkstt.metrics.core.html#" xlink:actuate="onRequest" xlink:href="https://benchmarkstt.readthedocs.io/en/latest/modules/benchmarkstt.metrics.core.html#" xlink:show="new" xlink:title="https://benchmarkstt.readthedocs.io/en/latest/modules/benchmarkstt.metrics.core.html#" xlink:type="simple"><rect fill="#FFFFFF" filter="url(#fv4z29cjnvgwy)" height="160" style="stroke: #000000; stroke-width: 1.5;" width="1701" x="7" y="152"/><path d="M206,153 L206,161.4883 L196,171.4883 L7,171.4883 " fill="none" style="stroke: #000000; stroke-width: 1.5;"/><text fill="#000000" font-family="sans-serif" font-size="14" font-weight="bold" lengthAdjust="spacingAndGlyphs" textLength="189" x="10" y="166.5352">benchmarkstt.metrics.core</text></a><!--MD5=[5df2e3f9a60f5e68627f199cfdd93bb0]
class benchmarkstt.metrics.Base--><a href="https://benchmarkstt.readthedocs.io/en/latest/modules/benchmarkstt.metrics.html#benchmarkstt.metrics.Base" target="_top" title="https://benchmarkstt.readthedocs.io/en/latest/modules/benchmarkstt.metrics.html#benchmarkstt.metrics.Base" xlink:actuate="onRequest" xlink:href="https://benchmarkstt.readthedocs.io/en/latest/modules/benchmarkstt.metrics.html#benchmarkstt.metrics.Base" xlink:show="new" xlink:title="https://benchmarkstt.readthedocs.io/en/latest/modules/benchmarkstt.metrics.html#benchmarkstt.metrics.Base" xlink:type="simple"><rect fill="#FEFECE" filter="url(#fv4z29cjnvgwy)" height="69.9102" id="benchmarkstt.metrics.Base" style="stroke: #A80036; stroke-width: 1.5;" width="458" x="516" y="42"/><ellipse cx="727.25" cy="58" fill="#ADD1B2" rx="11" ry="11" style="stroke: #A80036; stroke-width: 1.0;"/><path d="M729.7231,64.1431 Q729.1421,64.4419 728.5029,64.5913 Q727.8638,64.7407 727.1582,64.7407 Q724.6514,64.7407 723.3315,63.0889 Q722.0117,61.437 722.0117,58.3159 Q722.0117,55.1865 723.3315,53.5347 Q724.6514,51.8828 727.1582,51.8828 Q727.8638,51.8828 728.5112,52.0322 Q729.1587,52.1816 729.7231,52.4805 L729.7231,55.2031 Q729.0923,54.6221 728.4988,54.3523 Q727.9053,54.0825 727.2744,54.0825 Q725.9297,54.0825 725.2449,55.1492 Q724.5601,56.2158 724.5601,58.3159 Q724.5601,60.4077 725.2449,61.4744 Q725.9297,62.541 727.2744,62.541 Q727.9053,62.541 728.4988,62.2712 Q729.0923,62.0015 729.7231,61.4204 Z "/><text fill="#000000" font-family="sans-serif" font-size="12" lengthAdjust="spacingAndGlyphs" textLength="27" x="747.75" y="62.5352">Base</text><line style="stroke: #A80036; stroke-width: 1.5;" x1="517" x2="973" y1="74" y2="74"/><ellipse cx="527" cy="101.9551" fill="#84BE84" rx="3" ry="3" style="stroke: #038048; stroke-width: 1.0;"/><text fill="#000000" font-family="sans-serif" font-size="11" lengthAdjust="spacingAndGlyphs" textLength="432" x="536" y="105.5898">compare(ref: benchmarkstt.schema.Schema, hyp: benchmarkstt.schema.Schema)</text><line style="stroke: #A80036; stroke-width: 1.0; stroke-dasharray: 1.0,2.0;" x1="517" x2="704.5" y1="88.4775" y2="88.4775"/><text fill="#000000" font-family="sans-serif" font-size="11" lengthAdjust="spacingAndGlyphs" textLength="81" x="704.5" y="92.1348">Public Methods</text><line style="stroke: #A80036; stroke-width: 1.0; stroke-dasharray: 1.0,2.0;" x1="785.5" x2="973" y1="88.4775" y2="88.4775"/></a><!--MD5=[16641109c0e363d96d1ecc4c603e3de1]
class benchmarkstt.metrics.core.DiffCounts--><a href="https://benchmarkstt.readthedocs.io/en/latest/modules/benchmarkstt.metrics.core.html#benchmarkstt.metrics.core.DiffCounts" target="_top" title="https://benchmarkstt.readthedocs.io/en/latest/modules/benchmarkstt.metrics.core.html#benchmarkstt.metrics.core.DiffCounts" xlink:actuate="onRequest" xlink:href="https://benchmarkstt.readthedocs.io/en/latest/modules/benchmarkstt.metrics.core.html#benchmarkstt.metrics.core.DiffCounts" xlink:show="new" xlink:title="https://benchmarkstt.readthedocs.io/en/latest/modules/benchmarkstt.metrics.core.html#benchmarkstt.metrics.core.DiffCounts" xlink:type="simple"><rect fill="#FEFECE" filter="url(#fv4z29cjnvgwy)" height="82.8652" id="benchmarkstt.metrics.core.DiffCounts" style="stroke: #A80036; stroke-width: 1.5;" width="458" x="1234" y="200"/><ellipse cx="1429.25" cy="216" fill="#ADD1B2" rx="11" ry="11" style="stroke: #A80036; stroke-width: 1.0;"/><path d="M1431.7231,222.1431 Q1431.1421,222.4419 1430.5029,222.5913 Q1429.8638,222.7407 1429.1582,222.7407 Q1426.6514,222.7407 1425.3315,221.0889 Q1424.0117,219.437 1424.0117,216.3159 Q1424.0117,213.1865 1425.3315,211.5347 Q1426.6514,209.8828 1429.1582,209.8828 Q1429.8638,209.8828 1430.5112,210.0322 Q1431.1587,210.1816 1431.7231,210.4805 L1431.7231,213.2031 Q1431.0923,212.6221 1430.4988,212.3523 Q1429.9053,212.0825 1429.2744,212.0825 Q1427.9297,212.0825 1427.2449,213.1492 Q1426.5601,214.2158 1426.5601,216.3159 Q1426.5601,218.4077 1427.2449,219.4744 Q1427.9297,220.541 1429.2744,220.541 Q1429.9053,220.541 1430.4988,220.2712 Q1431.0923,220.0015 1431.7231,219.4204 Z "/><text fill="#000000" font-family="sans-serif" font-size="12" lengthAdjust="spacingAndGlyphs" textLength="59" x="1449.75" y="220.5352">DiffCounts</text><line style="stroke: #A80036; stroke-width: 1.5;" x1="1235" x2="1691" y1="232" y2="232"/><ellipse cx="1245" cy="259.9551" fill="#84BE84" rx="3" ry="3" style="stroke: #038048; stroke-width: 1.0;"/><text fill="#000000" font-family="sans-serif" font-size="11" lengthAdjust="spacingAndGlyphs" textLength="148" x="1254" y="263.5898">__init__(differ_class=None)</text><ellipse cx="1245" cy="272.9102" fill="#84BE84" rx="3" ry="3" style="stroke: #038048; stroke-width: 1.0;"/><text fill="#000000" font-family="sans-serif" font-size="11" lengthAdjust="spacingAndGlyphs" textLength="432" x="1254" y="276.5449">compare(ref: benchmarkstt.schema.Schema, hyp: benchmarkstt.schema.Schema)</text><line style="stroke: #A80036; stroke-width: 1.0; stroke-dasharray: 1.0,2.0;" x1="1235" x2="1422.5" y1="246.4775" y2="246.4775"/><text fill="#000000" font-family="sans-serif" font-size="11" lengthAdjust="spacingAndGlyphs" textLength="81" x="1422.5" y="250.1348">Public Methods</text><line style="stroke: #A80036; stroke-width: 1.0; stroke-dasharray: 1.0,2.0;" x1="1503.5" x2="1691" y1="246.4775" y2="246.4775"/></a><!--MD5=[acc3773e40c658ad934768473fb05324]
class benchmarkstt.metrics.core.OpcodeCounts--><a href="https://benchmarkstt.readthedocs.io/en/latest/modules/benchmarkstt.metrics.core.html#benchmarkstt.metrics.core.OpcodeCounts" target="_top" title="https://benchmarkstt.readthedocs.io/en/latest/modules/benchmarkstt.metrics.core.html#benchmarkstt.metrics.core.OpcodeCounts" xlink:actuate="onRequest" xlink:href="https://benchmarkstt.readthedocs.io/en/latest/modules/benchmarkstt.metrics.core.html#benchmarkstt.metrics.core.OpcodeCounts" xlink:show="new" xlink:title="https://benchmarkstt.readthedocs.io/en/latest/modules/benchmarkstt.metrics.core.html#benchmarkstt.metrics.core.OpcodeCounts" xlink:type="simple"><rect fill="#FEFECE" filter="url(#fv4z29cjnvgwy)" height="108.7754" id="benchmarkstt.metrics.core.OpcodeCounts" style="stroke: #A80036; stroke-width: 1.5;" width="189" x="1009.5" y="187"/><ellipse cx="1024.5" cy="203" fill="#FFFF00" rx="11" ry="11" style="stroke: #A80036; stroke-width: 1.0;"/><path d="M1025.8418,210.25 L1023.3931,210.25 L1023.3931,199.9985 L1020.2471,199.9985 L1020.2471,197.8569 L1028.9878,197.8569 L1028.9878,199.9985 L1025.8418,199.9985 Z "/><text fill="#000000" font-family="sans-serif" font-size="12" lengthAdjust="spacingAndGlyphs" textLength="84" x="1038.5" y="207.5352">OpcodeCounts</text><rect fill="#FFFFFF" height="16.1328" style="stroke: #000000; stroke-width: 1.0; stroke-dasharray: 2.0,2.0;" width="71" x="1130.5" y="184"/><text fill="#000000" font-family="sans-serif" font-size="12" font-style="italic" lengthAdjust="spacingAndGlyphs" textLength="69" x="1131.5" y="196.6016">namedtuple</text><line style="stroke: #A80036; stroke-width: 1.5;" x1="1010.5" x2="1197.5" y1="219" y2="219"/><ellipse cx="1020.5" cy="246.9551" fill="none" rx="3" ry="3" style="stroke: #038048; stroke-width: 1.0;"/><text fill="#000000" font-family="sans-serif" font-size="11" lengthAdjust="spacingAndGlyphs" textLength="29" x="1029.5" y="250.5898">equal</text><ellipse cx="1020.5" cy="259.9102" fill="none" rx="3" ry="3" style="stroke: #038048; stroke-width: 1.0;"/><text fill="#000000" font-family="sans-serif" font-size="11" lengthAdjust="spacingAndGlyphs" textLength="39" x="1029.5" y="263.5449">replace</text><ellipse cx="1020.5" cy="272.8652" fill="none" rx="3" ry="3" style="stroke: #038048; stroke-width: 1.0;"/><text fill="#000000" font-family="sans-serif" font-size="11" lengthAdjust="spacingAndGlyphs" textLength="31" x="1029.5" y="276.5">insert</text><ellipse cx="1020.5" cy="285.8203" fill="none" rx="3" ry="3" style="stroke: #038048; stroke-width: 1.0;"/><text fill="#000000" font-family="sans-serif" font-size="11" lengthAdjust="spacingAndGlyphs" textLength="32" x="1029.5" y="289.4551">delete</text><line style="stroke: #A80036; stroke-width: 1.0; stroke-dasharray: 1.0,2.0;" x1="1010.5" x2="1088.5" y1="233.4775" y2="233.4775"/><text fill="#000000" font-family="sans-serif" font-size="11" lengthAdjust="spacingAndGlyphs" textLength="31" x="1088.5" y="237.1348">Fields</text><line style="stroke: #A80036; stroke-width: 1.0; stroke-dasharray: 1.0,2.0;" x1="1119.5" x2="1197.5" y1="233.4775" y2="233.4775"/></a><!--MD5=[1b5fccb2ad4a9064da2e7d8609e9b4b6]
class benchmarkstt.metrics.core.WER--><a href="https://benchmarkstt.readthedocs.io/en/latest/modules/benchmarkstt.metrics.core.html#benchmarkstt.metrics.core.WER" target="_top" title="https://benchmarkstt.readthedocs.io/en/latest/modules/benchmarkstt.metrics.core.html#benchmarkstt.metrics.core.WER" xlink:actuate="onRequest" xlink:href="https://benchmarkstt.readthedocs.io/en/latest/modules/benchmarkstt.metrics.core.html#benchmarkstt.metrics.core.WER" xlink:show="new" xlink:title="https://benchmarkstt.readthedocs.io/en/latest/modules/benchmarkstt.metrics.core.html#benchmarkstt.metrics.core.WER" xlink:type="simple"><rect fill="#FEFECE" filter="url(#fv4z29cjnvgwy)" height="82.8652" id="benchmarkstt.metrics.core.WER" style="stroke: #A80036; stroke-width: 1.5;" width="458" x="516" y="200"/><ellipse cx="728.25" cy="216" fill="#ADD1B2" rx="11" ry="11" style="stroke: #A80036; stroke-width: 1.0;"/><path d="M730.7231,222.1431 Q730.1421,222.4419 729.5029,222.5913 Q728.8638,222.7407 728.1582,222.7407 Q725.6514,222.7407 724.3315,221.0889 Q723.0117,219.437 723.0117,216.3159 Q723.0117,213.1865 724.3315,211.5347 Q725.6514,209.8828 728.1582,209.8828 Q728.8638,209.8828 729.5112,210.0322 Q730.1587,210.1816 730.7231,210.4805 L730.7231,213.2031 Q730.0923,212.6221 729.4988,212.3523 Q728.9053,212.0825 728.2744,212.0825 Q726.9297,212.0825 726.2449,213.1492 Q725.5601,214.2158 725.5601,216.3159 Q725.5601,218.4077 726.2449,219.4744 Q726.9297,220.541 728.2744,220.541 Q728.9053,220.541 729.4988,220.2712 Q730.0923,220.0015 730.7231,219.4204 Z "/><text fill="#000000" font-family="sans-serif" font-size="12" lengthAdjust="spacingAndGlyphs" textLength="25" x="748.75" y="220.5352">WER</text><line style="stroke: #A80036; stroke-width: 1.5;" x1="517" x2="973" y1="232" y2="232"/><ellipse cx="527" cy="259.9551" fill="#84BE84" rx="3" ry="3" style="stroke: #038048; stroke-width: 1.0;"/><text fill="#000000" font-family="sans-serif" font-size="11" lengthAdjust="spacingAndGlyphs" textLength="221" x="536" y="263.5898">__init__(mode=None, differ_class=None)</text><ellipse cx="527" cy="272.9102" fill="#84BE84" rx="3" ry="3" style="stroke: #038048; stroke-width: 1.0;"/><text fill="#000000" font-family="sans-serif" font-size="11" lengthAdjust="spacingAndGlyphs" textLength="432" x="536" y="276.5449">compare(ref: benchmarkstt.schema.Schema, hyp: benchmarkstt.schema.Schema)</text><line style="stroke: #A80036; stroke-width: 1.0; stroke-dasharray: 1.0,2.0;" x1="517" x2="704.5" y1="246.4775" y2="246.4775"/><text fill="#000000" font-family="sans-serif" font-size="11" lengthAdjust="spacingAndGlyphs" textLength="81" x="704.5" y="250.1348">Public Methods</text><line style="stroke: #A80036; stroke-width: 1.0; stroke-dasharray: 1.0,2.0;" x1="785.5" x2="973" y1="246.4775" y2="246.4775"/></a><!--MD5=[ef94872a4633e4f53c81dbb8c48f7a6f]
class benchmarkstt.metrics.core.WordDiffs--><a href="https://benchmarkstt.readthedocs.io/en/latest/modules/benchmarkstt.metrics.core.html#benchmarkstt.metrics.core.WordDiffs" target="_top" title="https://benchmarkstt.readthedocs.io/en/latest/modules/benchmarkstt.metrics.core.html#benchmarkstt.metrics.core.WordDiffs" xlink:actuate="onRequest" xlink:href="https://benchmarkstt.readthedocs.io/en/latest/modules/benchmarkstt.metrics.core.html#benchmarkstt.metrics.core.WordDiffs" xlink:show="new" xlink:title="https://benchmarkstt.readthedocs.io/en/latest/modules/benchmarkstt.metrics.core.html#benchmarkstt.metrics.core.WordDiffs" xlink:type="simple"><rect fill="#FEFECE" filter="url(#fv4z29cjnvgwy)" height="82.8652" id="benchmarkstt.metrics.core.WordDiffs" style="stroke: #A80036; stroke-width: 1.5;" width="458" x="23" y="200"/><ellipse cx="219.75" cy="216" fill="#ADD1B2" rx="11" ry="11" style="stroke: #A80036; stroke-width: 1.0;"/><path d="M222.2231,222.1431 Q221.6421,222.4419 221.0029,222.5913 Q220.3638,222.7407 219.6582,222.7407 Q217.1514,222.7407 215.8315,221.0889 Q214.5117,219.437 214.5117,216.3159 Q214.5117,213.1865 215.8315,211.5347 Q217.1514,209.8828 219.6582,209.8828 Q220.3638,209.8828 221.0112,210.0322 Q221.6587,210.1816 222.2231,210.4805 L222.2231,213.2031 Q221.5923,212.6221 220.9988,212.3523 Q220.4053,212.0825 219.7744,212.0825 Q218.4297,212.0825 217.7449,213.1492 Q217.0601,214.2158 217.0601,216.3159 Q217.0601,218.4077 217.7449,219.4744 Q218.4297,220.541 219.7744,220.541 Q220.4053,220.541 220.9988,220.2712 Q221.5923,220.0015 222.2231,219.4204 Z "/><text fill="#000000" font-family="sans-serif" font-size="12" lengthAdjust="spacingAndGlyphs" textLength="56" x="240.25" y="220.5352">WordDiffs</text><line style="stroke: #A80036; stroke-width: 1.5;" x1="24" x2="480" y1="232" y2="232"/><ellipse cx="34" cy="259.9551" fill="#84BE84" rx="3" ry="3" style="stroke: #038048; stroke-width: 1.0;"/><text fill="#000000" font-family="sans-serif" font-size="11" lengthAdjust="spacingAndGlyphs" textLength="226" x="43" y="263.5898">__init__(dialect=None, differ_class=None)</text><ellipse cx="34" cy="272.9102" fill="#84BE84" rx="3" ry="3" style="stroke: #038048; stroke-width: 1.0;"/><text fill="#000000" font-family="sans-serif" font-size="11" lengthAdjust="spacingAndGlyphs" textLength="432" x="43" y="276.5449">compare(ref: benchmarkstt.schema.Schema, hyp: benchmarkstt.schema.Schema)</text><line style="stroke: #A80036; stroke-width: 1.0; stroke-dasharray: 1.0,2.0;" x1="24" x2="211.5" y1="246.4775" y2="246.4775"/><text fill="#000000" font-family="sans-serif" font-size="11" lengthAdjust="spacingAndGlyphs" textLength="81" x="211.5" y="250.1348">Public Methods</text><line style="stroke: #A80036; stroke-width: 1.0; stroke-dasharray: 1.0,2.0;" x1="292.5" x2="480" y1="246.4775" y2="246.4775"/></a><!--MD5=[0e20ec8c1c3e6f52fb3eaed392cf3205]
reverse link benchmarkstt.metrics.Base to benchmarkstt.metrics.core.DiffCounts--><path d="M994.3,101.91 C1066.51,111.79 1144.99,125.43 1216,144 C1269.78,158.07 1327.78,180.33 1374.05,199.93 " fill="none" id="benchmarkstt.metrics.Base&lt;-benchmarkstt.metrics.core.DiffCounts" style="stroke: #A80036; stroke-width: 1.0;"/><polygon fill="none" points="993.01,108.8,974.11,99.22,994.86,94.92,993.01,108.8" style="stroke: #A80036; stroke-width: 1.0;"/><!--MD5=[30299ce62ca518511ed25a5a2ec7aa2b]
reverse link benchmarkstt.metrics.Base to benchmarkstt.metrics.core.WER--><path d="M745,132.09 C745,154.21 745,179.36 745,199.87 " fill="none" id="benchmarkstt.metrics.Base&lt;-benchmarkstt.metrics.core.WER" style="stroke: #A80036; stroke-width: 1.0;"/><polygon fill="none" points="738,132.07,745,112.07,752,132.07,738,132.07" style="stroke: #A80036; stroke-width: 1.0;"/><!--MD5=[4985c6bdcdda9aa3aac1b42ffb8ef9ca]
reverse link benchmarkstt.metrics.Base to benchmarkstt.metrics.core.WordDiffs--><path d="M587.91,117.37 C558.21,125.6 527.52,134.64 499,144 C448.7,160.52 393.75,181.67 348.47,199.96 " fill="none" id="benchmarkstt.metrics.Base&lt;-benchmarkstt.metrics.core.WordDiffs" style="stroke: #A80036; stroke-width: 1.0;"/><polygon fill="none" points="586.12,110.6,607.26,112.08,589.81,124.11,586.12,110.6" style="stroke: #A80036; stroke-width: 1.0;"/><!--MD5=[5efeebaf006d869067dffd7ffa98c40f]
@startuml

skinparam packageStyle Frame
package benchmarkstt.metrics [[https://benchmarkstt.readthedocs.io/en/latest/modules/benchmarkstt.metrics.html#]] {

	class benchmarkstt.metrics.Base   [[https://benchmarkstt.readthedocs.io/en/latest/modules/benchmarkstt.metrics.html#benchmarkstt.metrics.Base]] {
		.. Public Methods ..
		+compare(ref: benchmarkstt.schema.Schema, hyp: benchmarkstt.schema.Schema)
	}
}

package benchmarkstt.metrics.core [[https://benchmarkstt.readthedocs.io/en/latest/modules/benchmarkstt.metrics.core.html#]] {

	class benchmarkstt.metrics.core.DiffCounts   [[https://benchmarkstt.readthedocs.io/en/latest/modules/benchmarkstt.metrics.core.html#benchmarkstt.metrics.core.DiffCounts]] extends benchmarkstt.metrics.Base {
		.. Public Methods ..
		+__init__(differ_class=None)
		+compare(ref: benchmarkstt.schema.Schema, hyp: benchmarkstt.schema.Schema)
	}

	class benchmarkstt.metrics.core.OpcodeCounts<namedtuple> << (T, yellow) >> [[https://benchmarkstt.readthedocs.io/en/latest/modules/benchmarkstt.metrics.core.html#benchmarkstt.metrics.core.OpcodeCounts]] {
		.. Fields ..
		+equal
		+replace
		+insert
		+delete
	}

	class benchmarkstt.metrics.core.WER   [[https://benchmarkstt.readthedocs.io/en/latest/modules/benchmarkstt.metrics.core.html#benchmarkstt.metrics.core.WER]] extends benchmarkstt.metrics.Base {
		.. Public Methods ..
		+__init__(mode=None, differ_class=None)
		+compare(ref: benchmarkstt.schema.Schema, hyp: benchmarkstt.schema.Schema)
	}

	class benchmarkstt.metrics.core.WordDiffs   [[https://benchmarkstt.readthedocs.io/en/latest/modules/benchmarkstt.metrics.core.html#benchmarkstt.metrics.core.WordDiffs]] extends benchmarkstt.metrics.Base {
		.. Public Methods ..
		+__init__(dialect=None, differ_class=None)
		+compare(ref: benchmarkstt.schema.Schema, hyp: benchmarkstt.schema.Schema)
	}
}




@enduml

PlantUML version 1.2020.15(Sun Jun 28 13:39:45 CEST 2020)
(GPL source distribution)
Java Runtime: OpenJDK Runtime Environment
JVM: OpenJDK 64-Bit Server VM
Default Encoding: UTF-8
Language: en
Country: BE
--></g></svg>