<?xml version="1.0" encoding="UTF-8" standalone="no"?><svg xmlns="http://www.w3.org/2000/svg" xmlns:xlink="http://www.w3.org/1999/xlink" contentScriptType="application/ecmascript" contentStyleType="text/css" height="458px" preserveAspectRatio="none" style="width:341px;height:458px;" version="1.1" viewBox="0 0 341 458" width="341px" zoomAndPan="magnify"><defs><filter height="300%" id="f1p1bj38fxmhbf" width="300%" x="-1" y="-1"><feGaussianBlur result="blurOut" stdDeviation="2.0"/><feColorMatrix in="blurOut" result="blurOut2" type="matrix" values="0 0 0 0 0 0 0 0 0 0 0 0 0 0 0 0 0 0 .4 0"/><feOffset dx="4.0" dy="4.0" in="blurOut2" result="blurOut3"/><feBlend in="SourceGraphic" in2="blurOut3" mode="normal"/></filter></defs><g><!--MD5=[c2f5f1914e6a0fca7cbdb2b44310c20b]
cluster benchmarkstt.output--><a href="https://benchmarkstt.readthedocs.io/en/latest/modules/benchmarkstt.output.html#" target="_top" title="https://benchmarkstt.readthedocs.io/en/latest/modules/benchmarkstt.output.html#" xlink:actuate="onRequest" xlink:href="https://benchmarkstt.readthedocs.io/en/latest/modules/benchmarkstt.output.html#" xlink:show="new" xlink:title="https://benchmarkstt.readthedocs.io/en/latest/modules/benchmarkstt.output.html#" xlink:type="simple"><rect fill="#FFFFFF" filter="url(#f1p1bj38fxmhbf)" height="125" style="stroke: #000000; stroke-width: 1.5;" width="166" x="82" y="7"/><path d="M242,8 L242,16.4883 L232,26.4883 L82,26.4883 " fill="none" style="stroke: #000000; stroke-width: 1.5;"/><text fill="#000000" font-family="sans-serif" font-size="14" font-weight="bold" lengthAdjust="spacingAndGlyphs" textLength="150" x="85" y="21.5352">benchmarkstt.output</text></a><!--MD5=[847d3ee6f8e67faab7de214c96ed8267]
cluster benchmarkstt.output.core--><a href="https://benchmarkstt.readthedocs.io/en/latest/modules/benchmarkstt.output.core.html#" target="_top" title="https://benchmarkstt.readthedocs.io/en/latest/modules/benchmarkstt.output.core.html#" xlink:actuate="onRequest" xlink:href="https://benchmarkstt.readthedocs.io/en/latest/modules/benchmarkstt.output.core.html#" xlink:show="new" xlink:title="https://benchmarkstt.readthedocs.io/en/latest/modules/benchmarkstt.output.core.html#" xlink:type="simple"><rect fill="#FFFFFF" filter="url(#f1p1bj38fxmhbf)" height="285" style="stroke: #000000; stroke-width: 1.5;" width="317" x="7" y="156"/><path d="M200,157 L200,165.4883 L190,175.4883 L7,175.4883 " fill="none" style="stroke: #000000; stroke-width: 1.5;"/><text fill="#000000" font-family="sans-serif" font-size="14" font-weight="bold" lengthAdjust="spacingAndGlyphs" textLength="183" x="10" y="170.5352">benchmarkstt.output.core</text></a><!--MD5=[6bad0332cb50a567e063560f49fe1b05]
class benchmarkstt.output.Base--><a href="https://benchmarkstt.readthedocs.io/en/latest/modules/benchmarkstt.output.html#benchmarkstt.output.Base" target="_top" title="https://benchmarkstt.readthedocs.io/en/latest/modules/benchmarkstt.output.html#benchmarkstt.output.Base" xlink:actuate="onRequest" xlink:href="https://benchmarkstt.readthedocs.io/en/latest/modules/benchmarkstt.output.html#benchmarkstt.output.Base" xlink:show="new" xlink:title="https://benchmarkstt.readthedocs.io/en/latest/modules/benchmarkstt.output.html#benchmarkstt.output.Base" xlink:type="simple"><rect fill="#CCCCCC" filter="url(#f1p1bj38fxmhbf)" height="74.2339" id="benchmarkstt.output.Base" style="stroke: #AAAAAA; stroke-width: 1.5;" width="123" x="103.5" y="42"/><ellipse cx="115.5" cy="60.1619" fill="#FF8800" rx="8" ry="8" style="stroke: #AAAAAA; stroke-width: 1.0;"/><path d="M115.6353,64.3176 Q114.7437,64.3176 113.989,64.0544 Q113.2344,63.7913 112.6919,63.2703 Q112.1494,62.7493 111.8513,61.9705 Q111.5532,61.1917 111.5532,60.1711 Q111.5532,59.2205 111.8379,58.447 Q112.1226,57.6736 112.665,57.1204 Q113.186,56.5886 113.9568,56.2986 Q114.7275,56.0085 115.6406,56.0085 Q116.1455,56.0085 116.551,56.0649 Q116.9565,56.1213 117.3003,56.2126 Q117.6602,56.3147 117.9529,56.4409 Q118.2456,56.5671 118.4658,56.6746 L118.4658,58.6135 L118.2295,58.6135 Q118.0791,58.4846 117.8508,58.3074 Q117.6226,58.1301 117.3325,57.9583 Q117.0371,57.7864 116.6934,57.6682 Q116.3496,57.55 115.9575,57.55 Q115.5225,57.55 115.1304,57.687 Q114.7383,57.824 114.4053,58.1409 Q114.0884,58.447 113.8923,58.9519 Q113.6963,59.4568 113.6963,60.1765 Q113.6963,60.9285 113.9084,61.4333 Q114.1206,61.9382 114.4429,62.2283 Q114.7705,62.5237 115.1733,62.6499 Q115.5762,62.7761 115.9683,62.7761 Q116.3442,62.7761 116.7122,62.6633 Q117.0801,62.5505 117.3916,62.3572 Q117.6548,62.2014 117.8804,62.0242 Q118.106,61.8469 118.251,61.718 L118.4658,61.718 L118.4658,63.6301 Q118.165,63.7644 117.8911,63.8826 Q117.6172,64.0007 117.3164,64.0867 Q116.9243,64.1995 116.5806,64.2585 Q116.2368,64.3176 115.6353,64.3176 Z "/><text fill="#333333" font-family="sans-serif" font-size="11" font-style="italic" lengthAdjust="spacingAndGlyphs" textLength="101" x="124.5" y="57.6348">«ContextManager»</text><text fill="#000000" font-family="Verdana" font-size="11" lengthAdjust="spacingAndGlyphs" textLength="28" x="161" y="71.0142">Base</text><line style="stroke: #AAAAAA; stroke-width: 1.5;" x1="104.5" x2="225.5" y1="78.3237" y2="78.3237"/><ellipse cx="114.5" cy="106.2788" fill="#84BE84" rx="3" ry="3" style="stroke: #038048; stroke-width: 1.0;"/><text fill="#333333" font-family="sans-serif" font-size="11" lengthAdjust="spacingAndGlyphs" textLength="96" x="120.5" y="109.9136">result(title, result)</text><line style="stroke: #AAAAAA; stroke-width: 1.0; stroke-dasharray: 1.0,2.0;" x1="104.5" x2="124.5" y1="92.8013" y2="92.8013"/><text fill="#333333" font-family="sans-serif" font-size="11" lengthAdjust="spacingAndGlyphs" textLength="81" x="124.5" y="96.4585">Public Methods</text><line style="stroke: #AAAAAA; stroke-width: 1.0; stroke-dasharray: 1.0,2.0;" x1="205.5" x2="225.5" y1="92.8013" y2="92.8013"/></a><!--MD5=[f736c00f8e3d82ae904e3d345ee15690]
class benchmarkstt.output.core.Json--><a href="https://benchmarkstt.readthedocs.io/en/latest/modules/benchmarkstt.output.core.html#benchmarkstt.output.core.Json" target="_top" title="https://benchmarkstt.readthedocs.io/en/latest/modules/benchmarkstt.output.core.html#benchmarkstt.output.core.Json" xlink:actuate="onRequest" xlink:href="https://benchmarkstt.readthedocs.io/en/latest/modules/benchmarkstt.output.core.html#benchmarkstt.output.core.Json" xlink:show="new" xlink:title="https://benchmarkstt.readthedocs.io/en/latest/modules/benchmarkstt.output.core.html#benchmarkstt.output.core.Json" xlink:type="simple"><rect fill="#CCCCCC" filter="url(#f1p1bj38fxmhbf)" height="87.189" id="benchmarkstt.output.core.Json" style="stroke: #AAAAAA; stroke-width: 1.5;" width="123" x="182.5" y="191"/><ellipse cx="194.5" cy="209.1619" fill="#FF8800" rx="8" ry="8" style="stroke: #AAAAAA; stroke-width: 1.0;"/><path d="M194.6353,213.3176 Q193.7437,213.3176 192.989,213.0544 Q192.2344,212.7913 191.6919,212.2703 Q191.1494,211.7493 190.8513,210.9705 Q190.5532,210.1917 190.5532,209.1711 Q190.5532,208.2205 190.8379,207.447 Q191.1226,206.6736 191.665,206.1204 Q192.186,205.5886 192.9568,205.2986 Q193.7275,205.0085 194.6406,205.0085 Q195.1455,205.0085 195.551,205.0649 Q195.9565,205.1213 196.3003,205.2126 Q196.6602,205.3147 196.9529,205.4409 Q197.2456,205.5671 197.4658,205.6746 L197.4658,207.6135 L197.2295,207.6135 Q197.0791,207.4846 196.8508,207.3074 Q196.6226,207.1301 196.3325,206.9583 Q196.0371,206.7864 195.6934,206.6682 Q195.3496,206.55 194.9575,206.55 Q194.5225,206.55 194.1304,206.687 Q193.7383,206.824 193.4053,207.1409 Q193.0884,207.447 192.8923,207.9519 Q192.6963,208.4568 192.6963,209.1765 Q192.6963,209.9285 192.9084,210.4333 Q193.1206,210.9382 193.4429,211.2283 Q193.7705,211.5237 194.1733,211.6499 Q194.5762,211.7761 194.9683,211.7761 Q195.3442,211.7761 195.7122,211.6633 Q196.0801,211.5505 196.3916,211.3572 Q196.6548,211.2014 196.8804,211.0242 Q197.106,210.8469 197.251,210.718 L197.4658,210.718 L197.4658,212.6301 Q197.165,212.7644 196.8911,212.8826 Q196.6172,213.0007 196.3164,213.0867 Q195.9243,213.1995 195.5806,213.2585 Q195.2368,213.3176 194.6353,213.3176 Z "/><text fill="#333333" font-family="sans-serif" font-size="11" font-style="italic" lengthAdjust="spacingAndGlyphs" textLength="101" x="203.5" y="206.6348">«ContextManager»</text><text fill="#000000" font-family="Verdana" font-size="11" lengthAdjust="spacingAndGlyphs" textLength="25" x="241.5" y="220.0142">Json</text><line style="stroke: #AAAAAA; stroke-width: 1.5;" x1="183.5" x2="304.5" y1="227.3237" y2="227.3237"/><ellipse cx="193.5" cy="255.2788" fill="#84BE84" rx="3" ry="3" style="stroke: #038048; stroke-width: 1.0;"/><text fill="#333333" font-family="sans-serif" font-size="11" lengthAdjust="spacingAndGlyphs" textLength="49" x="199.5" y="258.9136">__init__()</text><ellipse cx="193.5" cy="268.2339" fill="#84BE84" rx="3" ry="3" style="stroke: #038048; stroke-width: 1.0;"/><text fill="#333333" font-family="sans-serif" font-size="11" lengthAdjust="spacingAndGlyphs" textLength="96" x="199.5" y="271.8687">result(title, result)</text><line style="stroke: #AAAAAA; stroke-width: 1.0; stroke-dasharray: 1.0,2.0;" x1="183.5" x2="203.5" y1="241.8013" y2="241.8013"/><text fill="#333333" font-family="sans-serif" font-size="11" lengthAdjust="spacingAndGlyphs" textLength="81" x="203.5" y="245.4585">Public Methods</text><line style="stroke: #AAAAAA; stroke-width: 1.0; stroke-dasharray: 1.0,2.0;" x1="284.5" x2="304.5" y1="241.8013" y2="241.8013"/></a><!--MD5=[1202924086ca6a88207a70c63baf9330]
class benchmarkstt.output.core.MarkDown--><a href="https://benchmarkstt.readthedocs.io/en/latest/modules/benchmarkstt.output.core.html#benchmarkstt.output.core.MarkDown" target="_top" title="https://benchmarkstt.readthedocs.io/en/latest/modules/benchmarkstt.output.core.html#benchmarkstt.output.core.MarkDown" xlink:actuate="onRequest" xlink:href="https://benchmarkstt.readthedocs.io/en/latest/modules/benchmarkstt.output.core.html#benchmarkstt.output.core.MarkDown" xlink:show="new" xlink:title="https://benchmarkstt.readthedocs.io/en/latest/modules/benchmarkstt.output.core.html#benchmarkstt.output.core.MarkDown" xlink:type="simple"><rect fill="#CCCCCC" filter="url(#f1p1bj38fxmhbf)" height="87.189" id="benchmarkstt.output.core.MarkDown" style="stroke: #AAAAAA; stroke-width: 1.5;" width="123" x="23.5" y="338"/><ellipse cx="35.5" cy="356.1619" fill="#FF8800" rx="8" ry="8" style="stroke: #AAAAAA; stroke-width: 1.0;"/><path d="M35.6353,360.3176 Q34.7437,360.3176 33.989,360.0544 Q33.2344,359.7913 32.6919,359.2703 Q32.1494,358.7493 31.8513,357.9705 Q31.5532,357.1917 31.5532,356.1711 Q31.5532,355.2205 31.8379,354.447 Q32.1226,353.6736 32.665,353.1204 Q33.186,352.5886 33.9568,352.2986 Q34.7275,352.0085 35.6406,352.0085 Q36.1455,352.0085 36.551,352.0649 Q36.9565,352.1213 37.3003,352.2126 Q37.6602,352.3147 37.9529,352.4409 Q38.2456,352.5671 38.4658,352.6746 L38.4658,354.6135 L38.2295,354.6135 Q38.0791,354.4846 37.8508,354.3074 Q37.6226,354.1301 37.3325,353.9583 Q37.0371,353.7864 36.6934,353.6682 Q36.3496,353.55 35.9575,353.55 Q35.5225,353.55 35.1304,353.687 Q34.7383,353.824 34.4053,354.1409 Q34.0884,354.447 33.8923,354.9519 Q33.6963,355.4568 33.6963,356.1765 Q33.6963,356.9285 33.9084,357.4333 Q34.1206,357.9382 34.4429,358.2283 Q34.7705,358.5237 35.1733,358.6499 Q35.5762,358.7761 35.9683,358.7761 Q36.3442,358.7761 36.7122,358.6633 Q37.0801,358.5505 37.3916,358.3572 Q37.6548,358.2014 37.8804,358.0242 Q38.106,357.8469 38.251,357.718 L38.4658,357.718 L38.4658,359.6301 Q38.165,359.7644 37.8911,359.8826 Q37.6172,360.0007 37.3164,360.0867 Q36.9243,360.1995 36.5806,360.2585 Q36.2368,360.3176 35.6353,360.3176 Z "/><text fill="#333333" font-family="sans-serif" font-size="11" font-style="italic" lengthAdjust="spacingAndGlyphs" textLength="101" x="44.5" y="353.6348">«ContextManager»</text><text fill="#000000" font-family="Verdana" font-size="11" lengthAdjust="spacingAndGlyphs" textLength="59" x="65.5" y="367.0142">MarkDown</text><line style="stroke: #AAAAAA; stroke-width: 1.5;" x1="24.5" x2="145.5" y1="374.3237" y2="374.3237"/><ellipse cx="34.5" cy="402.2788" fill="#84BE84" rx="3" ry="3" style="stroke: #038048; stroke-width: 1.0;"/><text fill="#333333" font-family="sans-serif" font-size="11" lengthAdjust="spacingAndGlyphs" textLength="65" x="40.5" y="405.9136">print(result)</text><ellipse cx="34.5" cy="415.2339" fill="#84BE84" rx="3" ry="3" style="stroke: #038048; stroke-width: 1.0;"/><text fill="#333333" font-family="sans-serif" font-size="11" lengthAdjust="spacingAndGlyphs" textLength="96" x="40.5" y="418.8687">result(title, result)</text><line style="stroke: #AAAAAA; stroke-width: 1.0; stroke-dasharray: 1.0,2.0;" x1="24.5" x2="44.5" y1="388.8013" y2="388.8013"/><text fill="#333333" font-family="sans-serif" font-size="11" lengthAdjust="spacingAndGlyphs" textLength="81" x="44.5" y="392.4585">Public Methods</text><line style="stroke: #AAAAAA; stroke-width: 1.0; stroke-dasharray: 1.0,2.0;" x1="125.5" x2="145.5" y1="388.8013" y2="388.8013"/></a><!--MD5=[ad472f876b41c377ab9c2f7fd723b528]
class benchmarkstt.output.core.SimpleTextBase--><a href="https://benchmarkstt.readthedocs.io/en/latest/modules/benchmarkstt.output.core.html#benchmarkstt.output.core.SimpleTextBase" target="_top" title="https://benchmarkstt.readthedocs.io/en/latest/modules/benchmarkstt.output.core.html#benchmarkstt.output.core.SimpleTextBase" xlink:actuate="onRequest" xlink:href="https://benchmarkstt.readthedocs.io/en/latest/modules/benchmarkstt.output.core.html#benchmarkstt.output.core.SimpleTextBase" xlink:show="new" xlink:title="https://benchmarkstt.readthedocs.io/en/latest/modules/benchmarkstt.output.core.html#benchmarkstt.output.core.SimpleTextBase" xlink:type="simple"><rect fill="#CCCCCC" filter="url(#f1p1bj38fxmhbf)" height="87.189" id="benchmarkstt.output.core.SimpleTextBase" style="stroke: #AAAAAA; stroke-width: 1.5;" width="123" x="24.5" y="191"/><ellipse cx="36.5" cy="209.1619" fill="#FF8800" rx="8" ry="8" style="stroke: #AAAAAA; stroke-width: 1.0;"/><path d="M36.6353,213.3176 Q35.7437,213.3176 34.989,213.0544 Q34.2344,212.7913 33.6919,212.2703 Q33.1494,211.7493 32.8513,210.9705 Q32.5532,210.1917 32.5532,209.1711 Q32.5532,208.2205 32.8379,207.447 Q33.1226,206.6736 33.665,206.1204 Q34.186,205.5886 34.9568,205.2986 Q35.7275,205.0085 36.6406,205.0085 Q37.1455,205.0085 37.551,205.0649 Q37.9565,205.1213 38.3003,205.2126 Q38.6602,205.3147 38.9529,205.4409 Q39.2456,205.5671 39.4658,205.6746 L39.4658,207.6135 L39.2295,207.6135 Q39.0791,207.4846 38.8508,207.3074 Q38.6226,207.1301 38.3325,206.9583 Q38.0371,206.7864 37.6934,206.6682 Q37.3496,206.55 36.9575,206.55 Q36.5225,206.55 36.1304,206.687 Q35.7383,206.824 35.4053,207.1409 Q35.0884,207.447 34.8923,207.9519 Q34.6963,208.4568 34.6963,209.1765 Q34.6963,209.9285 34.9084,210.4333 Q35.1206,210.9382 35.4429,211.2283 Q35.7705,211.5237 36.1733,211.6499 Q36.5762,211.7761 36.9683,211.7761 Q37.3442,211.7761 37.7122,211.6633 Q38.0801,211.5505 38.3916,211.3572 Q38.6548,211.2014 38.8804,211.0242 Q39.106,210.8469 39.251,210.718 L39.4658,210.718 L39.4658,212.6301 Q39.165,212.7644 38.8911,212.8826 Q38.6172,213.0007 38.3164,213.0867 Q37.9243,213.1995 37.5806,213.2585 Q37.2368,213.3176 36.6353,213.3176 Z "/><text fill="#333333" font-family="sans-serif" font-size="11" font-style="italic" lengthAdjust="spacingAndGlyphs" textLength="101" x="45.5" y="206.6348">«ContextManager»</text><text fill="#000000" font-family="Verdana" font-size="11" lengthAdjust="spacingAndGlyphs" textLength="92" x="50" y="220.0142">SimpleTextBase</text><line style="stroke: #AAAAAA; stroke-width: 1.5;" x1="25.5" x2="146.5" y1="227.3237" y2="227.3237"/><ellipse cx="35.5" cy="255.2788" fill="#84BE84" rx="3" ry="3" style="stroke: #038048; stroke-width: 1.0;"/><text fill="#333333" font-family="sans-serif" font-size="11" lengthAdjust="spacingAndGlyphs" textLength="65" x="41.5" y="258.9136">print(result)</text><ellipse cx="35.5" cy="268.2339" fill="#84BE84" rx="3" ry="3" style="stroke: #038048; stroke-width: 1.0;"/><text fill="#333333" font-family="sans-serif" font-size="11" lengthAdjust="spacingAndGlyphs" textLength="96" x="41.5" y="271.8687">result(title, result)</text><line style="stroke: #AAAAAA; stroke-width: 1.0; stroke-dasharray: 1.0,2.0;" x1="25.5" x2="45.5" y1="241.8013" y2="241.8013"/><text fill="#333333" font-family="sans-serif" font-size="11" lengthAdjust="spacingAndGlyphs" textLength="81" x="45.5" y="245.4585">Public Methods</text><line style="stroke: #AAAAAA; stroke-width: 1.0; stroke-dasharray: 1.0,2.0;" x1="126.5" x2="146.5" y1="241.8013" y2="241.8013"/></a><!--MD5=[1b1c3484ac7c767612303980bbf618ed]
class benchmarkstt.output.core.ReStructuredText--><a href="https://benchmarkstt.readthedocs.io/en/latest/modules/benchmarkstt.output.core.html#benchmarkstt.output.core.ReStructuredText" target="_top" title="https://benchmarkstt.readthedocs.io/en/latest/modules/benchmarkstt.output.core.html#benchmarkstt.output.core.ReStructuredText" xlink:actuate="onRequest" xlink:href="https://benchmarkstt.readthedocs.io/en/latest/modules/benchmarkstt.output.core.html#benchmarkstt.output.core.ReStructuredText" xlink:show="new" xlink:title="https://benchmarkstt.readthedocs.io/en/latest/modules/benchmarkstt.output.core.html#benchmarkstt.output.core.ReStructuredText" xlink:type="simple"><rect fill="#CCCCCC" filter="url(#f1p1bj38fxmhbf)" height="87.189" id="benchmarkstt.output.core.ReStructuredText" style="stroke: #AAAAAA; stroke-width: 1.5;" width="126" x="182" y="338"/><ellipse cx="194" cy="356.1619" fill="#FF8800" rx="8" ry="8" style="stroke: #AAAAAA; stroke-width: 1.0;"/><path d="M194.1353,360.3176 Q193.2437,360.3176 192.489,360.0544 Q191.7344,359.7913 191.1919,359.2703 Q190.6494,358.7493 190.3513,357.9705 Q190.0532,357.1917 190.0532,356.1711 Q190.0532,355.2205 190.3379,354.447 Q190.6226,353.6736 191.165,353.1204 Q191.686,352.5886 192.4568,352.2986 Q193.2275,352.0085 194.1406,352.0085 Q194.6455,352.0085 195.051,352.0649 Q195.4565,352.1213 195.8003,352.2126 Q196.1602,352.3147 196.4529,352.4409 Q196.7456,352.5671 196.9658,352.6746 L196.9658,354.6135 L196.7295,354.6135 Q196.5791,354.4846 196.3508,354.3074 Q196.1226,354.1301 195.8325,353.9583 Q195.5371,353.7864 195.1934,353.6682 Q194.8496,353.55 194.4575,353.55 Q194.0225,353.55 193.6304,353.687 Q193.2383,353.824 192.9053,354.1409 Q192.5884,354.447 192.3923,354.9519 Q192.1963,355.4568 192.1963,356.1765 Q192.1963,356.9285 192.4084,357.4333 Q192.6206,357.9382 192.9429,358.2283 Q193.2705,358.5237 193.6733,358.6499 Q194.0762,358.7761 194.4683,358.7761 Q194.8442,358.7761 195.2122,358.6633 Q195.5801,358.5505 195.8916,358.3572 Q196.1548,358.2014 196.3804,358.0242 Q196.606,357.8469 196.751,357.718 L196.9658,357.718 L196.9658,359.6301 Q196.665,359.7644 196.3911,359.8826 Q196.1172,360.0007 195.8164,360.0867 Q195.4243,360.1995 195.0806,360.2585 Q194.7368,360.3176 194.1353,360.3176 Z "/><text fill="#333333" font-family="sans-serif" font-size="11" font-style="italic" lengthAdjust="spacingAndGlyphs" textLength="101" x="204.5" y="353.6348">«ContextManager»</text><text fill="#000000" font-family="Verdana" font-size="11" lengthAdjust="spacingAndGlyphs" textLength="100" x="205" y="367.0142">ReStructuredText</text><line style="stroke: #AAAAAA; stroke-width: 1.5;" x1="183" x2="307" y1="374.3237" y2="374.3237"/><ellipse cx="193" cy="402.2788" fill="#84BE84" rx="3" ry="3" style="stroke: #038048; stroke-width: 1.0;"/><text fill="#333333" font-family="sans-serif" font-size="11" lengthAdjust="spacingAndGlyphs" textLength="65" x="199" y="405.9136">print(result)</text><ellipse cx="193" cy="415.2339" fill="#84BE84" rx="3" ry="3" style="stroke: #038048; stroke-width: 1.0;"/><text fill="#333333" font-family="sans-serif" font-size="11" lengthAdjust="spacingAndGlyphs" textLength="96" x="199" y="418.8687">result(title, result)</text><line style="stroke: #AAAAAA; stroke-width: 1.0; stroke-dasharray: 1.0,2.0;" x1="183" x2="204.5" y1="388.8013" y2="388.8013"/><text fill="#333333" font-family="sans-serif" font-size="11" lengthAdjust="spacingAndGlyphs" textLength="81" x="204.5" y="392.4585">Public Methods</text><line style="stroke: #AAAAAA; stroke-width: 1.0; stroke-dasharray: 1.0,2.0;" x1="285.5" x2="307" y1="388.8013" y2="388.8013"/></a><!--MD5=[b4ba39b199d1ae7f900ea69508af4a3d]
reverse link benchmarkstt.output.Base to benchmarkstt.output.core.Json--><path d="M193.02,134.44 C202.55,152.96 213.06,173.38 222.05,190.85 " fill="none" id="benchmarkstt.output.Base&lt;-benchmarkstt.output.core.Json" style="stroke: #000000; stroke-width: 1.0;"/><polygon fill="none" points="186.65,137.36,183.72,116.38,199.1,130.96,186.65,137.36" style="stroke: #000000; stroke-width: 1.0;"/><!--MD5=[649e8d6b5a19579f64f6ff55d9b80603]
reverse link benchmarkstt.output.core.SimpleTextBase to benchmarkstt.output.core.MarkDown--><path d="M85.57,298.39 C85.48,311.62 85.38,325.29 85.3,337.58 " fill="none" id="benchmarkstt.output.core.SimpleTextBase&lt;-benchmarkstt.output.core.MarkDown" style="stroke: #000000; stroke-width: 1.0;"/><polygon fill="none" points="78.57,298.17,85.71,278.22,92.57,298.27,78.57,298.17" style="stroke: #000000; stroke-width: 1.0;"/><!--MD5=[0064dcd89a9c0ed1362beefa7e7418bc]
reverse link benchmarkstt.output.core.SimpleTextBase to benchmarkstt.output.core.ReStructuredText--><path d="M147.83,291.89 C164.58,307.16 182.44,323.45 198.22,337.83 " fill="none" id="benchmarkstt.output.core.SimpleTextBase&lt;-benchmarkstt.output.core.ReStructuredText" style="stroke: #000000; stroke-width: 1.0;"/><polygon fill="none" points="142.91,296.87,132.85,278.22,152.34,286.52,142.91,296.87" style="stroke: #000000; stroke-width: 1.0;"/><!--MD5=[ec4fe02a8646f37173536f5ee390896c]
reverse link benchmarkstt.output.Base to benchmarkstt.output.core.SimpleTextBase--><path d="M136.98,134.44 C127.45,152.96 116.94,173.38 107.95,190.85 " fill="none" id="benchmarkstt.output.Base&lt;-benchmarkstt.output.core.SimpleTextBase" style="stroke: #000000; stroke-width: 1.0;"/><polygon fill="none" points="130.9,130.96,146.28,116.38,143.35,137.36,130.9,130.96" style="stroke: #000000; stroke-width: 1.0;"/><!--MD5=[000740474c84d31259e5ffe71b4f01c3]
@startuml

skinparam packageStyle Frame
!define LIGHTORANGE
!includeurl https://raw.githubusercontent.com/Drakemor/RedDress-PlantUML/master/style.puml
package benchmarkstt.output [[https://benchmarkstt.readthedocs.io/en/latest/modules/benchmarkstt.output.html#]] {

	class benchmarkstt.output.Base << ContextManager >>  [[https://benchmarkstt.readthedocs.io/en/latest/modules/benchmarkstt.output.html#benchmarkstt.output.Base]] {
		.. Public Methods ..
		+result(title, result)
	}
}

package benchmarkstt.output.core [[https://benchmarkstt.readthedocs.io/en/latest/modules/benchmarkstt.output.core.html#]] {

	class benchmarkstt.output.core.Json << ContextManager >>  [[https://benchmarkstt.readthedocs.io/en/latest/modules/benchmarkstt.output.core.html#benchmarkstt.output.core.Json]] extends benchmarkstt.output.Base {
		.. Public Methods ..
		+__init__()
		+result(title, result)
	}

	class benchmarkstt.output.core.MarkDown << ContextManager >>  [[https://benchmarkstt.readthedocs.io/en/latest/modules/benchmarkstt.output.core.html#benchmarkstt.output.core.MarkDown]] extends benchmarkstt.output.core.SimpleTextBase {
		.. Public Methods ..
		+print(result)
		+result(title, result)
	}

	class benchmarkstt.output.core.ReStructuredText << ContextManager >>  [[https://benchmarkstt.readthedocs.io/en/latest/modules/benchmarkstt.output.core.html#benchmarkstt.output.core.ReStructuredText]] extends benchmarkstt.output.core.SimpleTextBase {
		.. Public Methods ..
		+print(result)
		+result(title, result)
	}

	class benchmarkstt.output.core.SimpleTextBase << ContextManager >>  [[https://benchmarkstt.readthedocs.io/en/latest/modules/benchmarkstt.output.core.html#benchmarkstt.output.core.SimpleTextBase]] extends benchmarkstt.output.Base {
		.. Public Methods ..
		+print(result)
		+result(title, result)
	}
}




@enduml

@startuml

skinparam packageStyle Frame










skinparam stereotypeCBackgroundColor FF8800

skinparam backgroundColor fff








skinparam circledCharacter {
  radius 8
  fontSize 11
  fontName Verdana
}

skinparam class {
    backgroundColor ccc
  borderColor aaa
    fontColor 000
  fontName Verdana
  fontSize 11
  stereotypeFontColor 333
  stereotypeFontSize 11
    arrowColor 000
  arrowFontName Verdana
  arrowFontColor 333
  arrowFontSize 11

  attributeFontColor 333
  attributeFontSize 11
  attributeIconSize 11
}


skinparam actor {
    backgroundColor FF8800
  borderColor BB6600
    fontColor 000
  fontName Verdana
  fontSize 11
  stereotypeFontColor 333
  stereotypeFontSize 11
}

skinparam participant {
    backgroundColor ccc
  borderColor aaa
    fontColor 000
  fontName Verdana
  fontSize 11
  stereotypeFontColor 333
  stereotypeFontSize 11
}

skinparam collections {
    backgroundColor ccc
  borderColor aaa
    fontColor 000
  fontName Verdana
  fontSize 11
  stereotypeFontColor 333
  stereotypeFontSize 11
}

skinparam SequenceBox{
    backgroundColor e0e0e0
  borderColor cccccc
    fontColor 000
  fontName Verdana
  fontSize 11
  stereotypeFontColor 333
  stereotypeFontSize 11
}


skinparam interface {
    backgroundColor FF8800
  borderColor BB6600
    fontColor 000
  fontName Verdana
  fontSize 11
  stereotypeFontColor 333
  stereotypeFontSize 11
}

skinparam component {
    backgroundColor ccc
  borderColor aaa
    fontColor 000
  fontName Verdana
  fontSize 11
  stereotypeFontColor 333
  stereotypeFontSize 11
}

skinparam node {
    backgroundColor ccc
  borderColor aaa
    fontColor 000
  fontName Verdana
  fontSize 11
  stereotypeFontColor 333
  stereotypeFontSize 11
}

skinparam database {
    backgroundColor ccc
  borderColor aaa
    fontColor 000
  fontName Verdana
  fontSize 11
  stereotypeFontColor 333
  stereotypeFontSize 11
}

skinparam queue {
    backgroundColor ccc
  borderColor aaa
    fontColor 000
  fontName Verdana
  fontSize 11
  stereotypeFontColor 333
  stereotypeFontSize 11
}


skinparam usecase {
    backgroundColor ccc
  borderColor aaa
    fontColor 000
  fontName Verdana
  fontSize 11
  stereotypeFontColor 333
  stereotypeFontSize 11
    arrowColor 000
  arrowFontName Verdana
  arrowFontColor 333
  arrowFontSize 11
}

skinparam activity {
    backgroundColor ccc
  borderColor aaa
    fontColor 000
  fontName Verdana
  fontSize 11
  stereotypeFontColor 333
  stereotypeFontSize 11
    arrowColor 000
  arrowFontName Verdana
  arrowFontColor 333
  arrowFontSize 11
}

skinparam sequence {
    fontColor 000
  fontName Verdana
  fontSize 11
  stereotypeFontColor 333
  stereotypeFontSize 11
    arrowColor 000
  arrowFontName Verdana
  arrowFontColor 333
  arrowFontSize 11

  lifeLineBorderColor FF8800
  lifeLineBackgroundColor e0e0e0
}

skinparam boundary {
    backgroundColor FF8800
  borderColor BB6600
    fontColor 000
  fontName Verdana
  fontSize 11
  stereotypeFontColor 333
  stereotypeFontSize 11
}

skinparam control {
    backgroundColor FF8800
  borderColor BB6600
    fontColor 000
  fontName Verdana
  fontSize 11
  stereotypeFontColor 333
  stereotypeFontSize 11
}

skinparam entity {
    backgroundColor FF8800
  borderColor BB6600
    fontColor 000
  fontName Verdana
  fontSize 11
  stereotypeFontColor 333
  stereotypeFontSize 11
}


skinparam state {
    backgroundColor ccc
  borderColor aaa
    fontColor 000
  fontName Verdana
  fontSize 11
  stereotypeFontColor 333
  stereotypeFontSize 11
    arrowColor 000
  arrowFontName Verdana
  arrowFontColor 333
  arrowFontSize 11
  startColor FF8800
  endColor BB6600
}


skinparam object {
    backgroundColor ccc
  borderColor aaa
    fontColor 000
  fontName Verdana
  fontSize 11
  stereotypeFontColor 333
  stereotypeFontSize 11
    arrowColor 000
  arrowFontName Verdana
  arrowFontColor 333
  arrowFontSize 11
}


skinparam note {
    backgroundColor FF8800
  borderColor BB6600
    fontColor 000
  fontName Verdana
  fontSize 11
  stereotypeFontColor 333
  stereotypeFontSize 11
}

skinparam cloud {
    backgroundColor ccc
  borderColor aaa
    fontColor 000
  fontName Verdana
  fontSize 11
  stereotypeFontColor 333
  stereotypeFontSize 11
    arrowColor 000
  arrowFontName Verdana
  arrowFontColor 333
  arrowFontSize 11
}

skinparam rectangle {
    backgroundColor ccc
  borderColor aaa
    fontColor 000
  fontName Verdana
  fontSize 11
  stereotypeFontColor 333
  stereotypeFontSize 11
}

skinparam storage {
    backgroundColor ccc
  borderColor aaa
    fontColor 000
  fontName Verdana
  fontSize 11
  stereotypeFontColor 333
  stereotypeFontSize 11
}

package benchmarkstt.output [[https://benchmarkstt.readthedocs.io/en/latest/modules/benchmarkstt.output.html#]] {

	class benchmarkstt.output.Base << ContextManager >>  [[https://benchmarkstt.readthedocs.io/en/latest/modules/benchmarkstt.output.html#benchmarkstt.output.Base]] {
		.. Public Methods ..
		+result(title, result)
	}
}

package benchmarkstt.output.core [[https://benchmarkstt.readthedocs.io/en/latest/modules/benchmarkstt.output.core.html#]] {

	class benchmarkstt.output.core.Json << ContextManager >>  [[https://benchmarkstt.readthedocs.io/en/latest/modules/benchmarkstt.output.core.html#benchmarkstt.output.core.Json]] extends benchmarkstt.output.Base {
		.. Public Methods ..
		+__init__()
		+result(title, result)
	}

	class benchmarkstt.output.core.MarkDown << ContextManager >>  [[https://benchmarkstt.readthedocs.io/en/latest/modules/benchmarkstt.output.core.html#benchmarkstt.output.core.MarkDown]] extends benchmarkstt.output.core.SimpleTextBase {
		.. Public Methods ..
		+print(result)
		+result(title, result)
	}

	class benchmarkstt.output.core.ReStructuredText << ContextManager >>  [[https://benchmarkstt.readthedocs.io/en/latest/modules/benchmarkstt.output.core.html#benchmarkstt.output.core.ReStructuredText]] extends benchmarkstt.output.core.SimpleTextBase {
		.. Public Methods ..
		+print(result)
		+result(title, result)
	}

	class benchmarkstt.output.core.SimpleTextBase << ContextManager >>  [[https://benchmarkstt.readthedocs.io/en/latest/modules/benchmarkstt.output.core.html#benchmarkstt.output.core.SimpleTextBase]] extends benchmarkstt.output.Base {
		.. Public Methods ..
		+print(result)
		+result(title, result)
	}
}




@enduml

PlantUML version 1.2020.15(Sun Jun 28 11:39:45 UTC 2020)
(GPL source distribution)
Java Runtime: OpenJDK Runtime Environment
JVM: OpenJDK 64-Bit Server VM
Default Encoding: UTF-8
Language: en
Country: BE
--></g></svg>