<?xml version="1.0" encoding="UTF-8" standalone="no"?><svg xmlns="http://www.w3.org/2000/svg" xmlns:xlink="http://www.w3.org/1999/xlink" contentScriptType="application/ecmascript" contentStyleType="text/css" height="510px" preserveAspectRatio="none" style="width:498px;height:510px;" version="1.1" viewBox="0 0 498 510" width="498px" zoomAndPan="magnify"><defs><filter height="300%" id="f1xzwgivaw7zdt" width="300%" x="-1" y="-1"><feGaussianBlur result="blurOut" stdDeviation="2.0"/><feColorMatrix in="blurOut" result="blurOut2" type="matrix" values="0 0 0 0 0 0 0 0 0 0 0 0 0 0 0 0 0 0 .4 0"/><feOffset dx="4.0" dy="4.0" in="blurOut2" result="blurOut3"/><feBlend in="SourceGraphic" in2="blurOut3" mode="normal"/></filter></defs><g><text fill="#000000" font-family="Helvetica" font-size="18" lengthAdjust="spacingAndGlyphs" textLength="163" x="158.5" y="13.8604">benchmarkstt.output</text><!--MD5=[c2f5f1914e6a0fca7cbdb2b44310c20b]
cluster benchmarkstt.output--><rect fill="#FFFFFF" filter="url(#f1xzwgivaw7zdt)" height="137" style="stroke: #000000; stroke-width: 1.5;" width="236" x="126" y="25"/><path d="M280,26 L280,32 L270,42 L126,42 " fill="none" style="stroke: #000000; stroke-width: 1.5;"/><text fill="#000000" font-family="Helvetica" font-size="14" font-weight="bold" lengthAdjust="spacingAndGlyphs" textLength="144" x="129" y="36.7803">benchmarkstt.output</text><!--MD5=[847d3ee6f8e67faab7de214c96ed8267]
cluster benchmarkstt.output.core--><rect fill="#FFFFFF" filter="url(#f1xzwgivaw7zdt)" height="307" style="stroke: #000000; stroke-width: 1.5;" width="474" x="7" y="186"/><path d="M195,187 L195,193 L185,203 L7,203 " fill="none" style="stroke: #000000; stroke-width: 1.5;"/><text fill="#000000" font-family="Helvetica" font-size="14" font-weight="bold" lengthAdjust="spacingAndGlyphs" textLength="178" x="10" y="197.7803">benchmarkstt.output.core</text><!--MD5=[6bad0332cb50a567e063560f49fe1b05]
class benchmarkstt.output.Base--><a href="https://benchmarkstt.readthedocs.io/en/latest/modules/benchmarkstt.output.html#benchmarkstt.output.Base" target="_top" title="https://benchmarkstt.readthedocs.io/en/latest/modules/benchmarkstt.output.html#benchmarkstt.output.Base" xlink:actuate="onRequest" xlink:href="https://benchmarkstt.readthedocs.io/en/latest/modules/benchmarkstt.output.html#benchmarkstt.output.Base" xlink:show="new" xlink:title="https://benchmarkstt.readthedocs.io/en/latest/modules/benchmarkstt.output.html#benchmarkstt.output.Base" xlink:type="simple"><rect fill="#FFFFFF" filter="url(#f1xzwgivaw7zdt)" height="88" id="benchmarkstt.output.Base" style="stroke: #000000; stroke-width: 1.0;" width="203" x="142.5" y="58"/><ellipse cx="225.75" cy="74" fill="#C2C2C2" rx="11" ry="11" style="stroke: #000000; stroke-width: 1.0;"/><path d="M228.2231,80.1431 Q227.6421,80.4419 227.0029,80.5913 Q226.3638,80.7407 225.6582,80.7407 Q223.1514,80.7407 221.8315,79.0889 Q220.5117,77.437 220.5117,74.3159 Q220.5117,71.1865 221.8315,69.5347 Q223.1514,67.8828 225.6582,67.8828 Q226.3638,67.8828 227.0112,68.0322 Q227.6587,68.1816 228.2231,68.4805 L228.2231,71.2031 Q227.5923,70.6221 226.9988,70.3523 Q226.4053,70.0825 225.7744,70.0825 Q224.4297,70.0825 223.7449,71.1492 Q223.0601,72.2158 223.0601,74.3159 Q223.0601,76.4077 223.7449,77.4744 Q224.4297,78.541 225.7744,78.541 Q226.4053,78.541 226.9988,78.2712 Q227.5923,78.0015 228.2231,77.4204 Z "/><text fill="#000000" font-family="Helvetica" font-size="12" lengthAdjust="spacingAndGlyphs" textLength="28" x="246.25" y="77.2402">Base</text><line style="stroke: #000000; stroke-width: 1.5;" x1="143.5" x2="344.5" y1="90" y2="90"/><ellipse cx="153.5" cy="116" fill="#A6A6A6" rx="3" ry="3" style="stroke: #545454; stroke-width: 1.0;"/><text fill="#000000" font-family="Helvetica" font-size="11" lengthAdjust="spacingAndGlyphs" textLength="57" x="162.5" y="117.4702">__enter__()</text><ellipse cx="153.5" cy="127" fill="#A6A6A6" rx="3" ry="3" style="stroke: #545454; stroke-width: 1.0;"/><text fill="#000000" font-family="Helvetica" font-size="11" lengthAdjust="spacingAndGlyphs" textLength="177" x="162.5" y="128.4702">__exit__(exc_type, exc_val, exc_tb)</text><ellipse cx="153.5" cy="138" fill="#A6A6A6" rx="3" ry="3" style="stroke: #545454; stroke-width: 1.0;"/><text fill="#000000" font-family="Helvetica" font-size="11" lengthAdjust="spacingAndGlyphs" textLength="84" x="162.5" y="139.4702">result(title, result)</text><line style="stroke: #000000; stroke-width: 1.0; stroke-dasharray: 1.0,2.0;" x1="143.5" x2="207" y1="103.5" y2="103.5"/><text fill="#000000" font-family="Helvetica" font-size="11" lengthAdjust="spacingAndGlyphs" textLength="74" x="207" y="105.9702">Public Methods</text><line style="stroke: #000000; stroke-width: 1.0; stroke-dasharray: 1.0,2.0;" x1="281" x2="344.5" y1="103.5" y2="103.5"/></a><!--MD5=[f736c00f8e3d82ae904e3d345ee15690]
class benchmarkstt.output.core.Json--><a href="https://benchmarkstt.readthedocs.io/en/latest/modules/benchmarkstt.output.core.html#benchmarkstt.output.core.Json" target="_top" title="https://benchmarkstt.readthedocs.io/en/latest/modules/benchmarkstt.output.core.html#benchmarkstt.output.core.Json" xlink:actuate="onRequest" xlink:href="https://benchmarkstt.readthedocs.io/en/latest/modules/benchmarkstt.output.core.html#benchmarkstt.output.core.Json" xlink:show="new" xlink:title="https://benchmarkstt.readthedocs.io/en/latest/modules/benchmarkstt.output.core.html#benchmarkstt.output.core.Json" xlink:type="simple"><rect fill="#FFFFFF" filter="url(#f1xzwgivaw7zdt)" height="99" id="benchmarkstt.output.core.Json" style="stroke: #000000; stroke-width: 1.0;" width="203" x="23.5" y="219"/><ellipse cx="107.75" cy="235" fill="#C2C2C2" rx="11" ry="11" style="stroke: #000000; stroke-width: 1.0;"/><path d="M110.2231,241.1431 Q109.6421,241.4419 109.0029,241.5913 Q108.3638,241.7407 107.6582,241.7407 Q105.1514,241.7407 103.8315,240.0889 Q102.5117,238.437 102.5117,235.3159 Q102.5117,232.1865 103.8315,230.5347 Q105.1514,228.8828 107.6582,228.8828 Q108.3638,228.8828 109.0112,229.0322 Q109.6587,229.1816 110.2231,229.4805 L110.2231,232.2031 Q109.5923,231.6221 108.9988,231.3523 Q108.4053,231.0825 107.7744,231.0825 Q106.4297,231.0825 105.7449,232.1492 Q105.0601,233.2158 105.0601,235.3159 Q105.0601,237.4077 105.7449,238.4744 Q106.4297,239.541 107.7744,239.541 Q108.4053,239.541 108.9988,239.2712 Q109.5923,239.0015 110.2231,238.4204 Z "/><text fill="#000000" font-family="Helvetica" font-size="12" lengthAdjust="spacingAndGlyphs" textLength="26" x="128.25" y="238.2402">Json</text><line style="stroke: #000000; stroke-width: 1.5;" x1="24.5" x2="225.5" y1="251" y2="251"/><ellipse cx="34.5" cy="277" fill="#A6A6A6" rx="3" ry="3" style="stroke: #545454; stroke-width: 1.0;"/><text fill="#000000" font-family="Helvetica" font-size="11" lengthAdjust="spacingAndGlyphs" textLength="57" x="43.5" y="278.4702">__enter__()</text><ellipse cx="34.5" cy="288" fill="#A6A6A6" rx="3" ry="3" style="stroke: #545454; stroke-width: 1.0;"/><text fill="#000000" font-family="Helvetica" font-size="11" lengthAdjust="spacingAndGlyphs" textLength="177" x="43.5" y="289.4702">__exit__(exc_type, exc_val, exc_tb)</text><ellipse cx="34.5" cy="299" fill="#A6A6A6" rx="3" ry="3" style="stroke: #545454; stroke-width: 1.0;"/><text fill="#000000" font-family="Helvetica" font-size="11" lengthAdjust="spacingAndGlyphs" textLength="45" x="43.5" y="300.4702">__init__()</text><ellipse cx="34.5" cy="310" fill="#A6A6A6" rx="3" ry="3" style="stroke: #545454; stroke-width: 1.0;"/><text fill="#000000" font-family="Helvetica" font-size="11" lengthAdjust="spacingAndGlyphs" textLength="84" x="43.5" y="311.4702">result(title, result)</text><line style="stroke: #000000; stroke-width: 1.0; stroke-dasharray: 1.0,2.0;" x1="24.5" x2="88" y1="264.5" y2="264.5"/><text fill="#000000" font-family="Helvetica" font-size="11" lengthAdjust="spacingAndGlyphs" textLength="74" x="88" y="266.9702">Public Methods</text><line style="stroke: #000000; stroke-width: 1.0; stroke-dasharray: 1.0,2.0;" x1="162" x2="225.5" y1="264.5" y2="264.5"/></a><!--MD5=[1202924086ca6a88207a70c63baf9330]
class benchmarkstt.output.core.MarkDown--><a href="https://benchmarkstt.readthedocs.io/en/latest/modules/benchmarkstt.output.core.html#benchmarkstt.output.core.MarkDown" target="_top" title="https://benchmarkstt.readthedocs.io/en/latest/modules/benchmarkstt.output.core.html#benchmarkstt.output.core.MarkDown" xlink:actuate="onRequest" xlink:href="https://benchmarkstt.readthedocs.io/en/latest/modules/benchmarkstt.output.core.html#benchmarkstt.output.core.MarkDown" xlink:show="new" xlink:title="https://benchmarkstt.readthedocs.io/en/latest/modules/benchmarkstt.output.core.html#benchmarkstt.output.core.MarkDown" xlink:type="simple"><rect fill="#FFFFFF" filter="url(#f1xzwgivaw7zdt)" height="99" id="benchmarkstt.output.core.MarkDown" style="stroke: #000000; stroke-width: 1.0;" width="203" x="23.5" y="378"/><ellipse cx="91.25" cy="394" fill="#C2C2C2" rx="11" ry="11" style="stroke: #000000; stroke-width: 1.0;"/><path d="M93.7231,400.1431 Q93.1421,400.4419 92.5029,400.5913 Q91.8638,400.7407 91.1582,400.7407 Q88.6514,400.7407 87.3315,399.0889 Q86.0117,397.437 86.0117,394.3159 Q86.0117,391.1865 87.3315,389.5347 Q88.6514,387.8828 91.1582,387.8828 Q91.8638,387.8828 92.5112,388.0322 Q93.1587,388.1816 93.7231,388.4805 L93.7231,391.2031 Q93.0923,390.6221 92.4988,390.3523 Q91.9053,390.0825 91.2744,390.0825 Q89.9297,390.0825 89.2449,391.1492 Q88.5601,392.2158 88.5601,394.3159 Q88.5601,396.4077 89.2449,397.4744 Q89.9297,398.541 91.2744,398.541 Q91.9053,398.541 92.4988,398.2712 Q93.0923,398.0015 93.7231,397.4204 Z "/><text fill="#000000" font-family="Helvetica" font-size="12" lengthAdjust="spacingAndGlyphs" textLength="59" x="111.75" y="397.2402">MarkDown</text><line style="stroke: #000000; stroke-width: 1.5;" x1="24.5" x2="225.5" y1="410" y2="410"/><ellipse cx="34.5" cy="436" fill="#A6A6A6" rx="3" ry="3" style="stroke: #545454; stroke-width: 1.0;"/><text fill="#000000" font-family="Helvetica" font-size="11" lengthAdjust="spacingAndGlyphs" textLength="57" x="43.5" y="437.4702">__enter__()</text><ellipse cx="34.5" cy="447" fill="#A6A6A6" rx="3" ry="3" style="stroke: #545454; stroke-width: 1.0;"/><text fill="#000000" font-family="Helvetica" font-size="11" lengthAdjust="spacingAndGlyphs" textLength="177" x="43.5" y="448.4702">__exit__(exc_type, exc_val, exc_tb)</text><ellipse cx="34.5" cy="458" fill="#A6A6A6" rx="3" ry="3" style="stroke: #545454; stroke-width: 1.0;"/><text fill="#000000" font-family="Helvetica" font-size="11" lengthAdjust="spacingAndGlyphs" textLength="56" x="43.5" y="459.4702">print(result)</text><ellipse cx="34.5" cy="469" fill="#A6A6A6" rx="3" ry="3" style="stroke: #545454; stroke-width: 1.0;"/><text fill="#000000" font-family="Helvetica" font-size="11" lengthAdjust="spacingAndGlyphs" textLength="84" x="43.5" y="470.4702">result(title, result)</text><line style="stroke: #000000; stroke-width: 1.0; stroke-dasharray: 1.0,2.0;" x1="24.5" x2="88" y1="423.5" y2="423.5"/><text fill="#000000" font-family="Helvetica" font-size="11" lengthAdjust="spacingAndGlyphs" textLength="74" x="88" y="425.9702">Public Methods</text><line style="stroke: #000000; stroke-width: 1.0; stroke-dasharray: 1.0,2.0;" x1="162" x2="225.5" y1="423.5" y2="423.5"/></a><!--MD5=[1b1c3484ac7c767612303980bbf618ed]
class benchmarkstt.output.core.ReStructuredText--><a href="https://benchmarkstt.readthedocs.io/en/latest/modules/benchmarkstt.output.core.html#benchmarkstt.output.core.ReStructuredText" target="_top" title="https://benchmarkstt.readthedocs.io/en/latest/modules/benchmarkstt.output.core.html#benchmarkstt.output.core.ReStructuredText" xlink:actuate="onRequest" xlink:href="https://benchmarkstt.readthedocs.io/en/latest/modules/benchmarkstt.output.core.html#benchmarkstt.output.core.ReStructuredText" xlink:show="new" xlink:title="https://benchmarkstt.readthedocs.io/en/latest/modules/benchmarkstt.output.core.html#benchmarkstt.output.core.ReStructuredText" xlink:type="simple"><rect fill="#FFFFFF" filter="url(#f1xzwgivaw7zdt)" height="99" id="benchmarkstt.output.core.ReStructuredText" style="stroke: #000000; stroke-width: 1.0;" width="203" x="261.5" y="378"/><ellipse cx="311.25" cy="394" fill="#C2C2C2" rx="11" ry="11" style="stroke: #000000; stroke-width: 1.0;"/><path d="M313.7231,400.1431 Q313.1421,400.4419 312.5029,400.5913 Q311.8638,400.7407 311.1582,400.7407 Q308.6514,400.7407 307.3315,399.0889 Q306.0117,397.437 306.0117,394.3159 Q306.0117,391.1865 307.3315,389.5347 Q308.6514,387.8828 311.1582,387.8828 Q311.8638,387.8828 312.5112,388.0322 Q313.1587,388.1816 313.7231,388.4805 L313.7231,391.2031 Q313.0923,390.6221 312.4988,390.3523 Q311.9053,390.0825 311.2744,390.0825 Q309.9297,390.0825 309.2449,391.1492 Q308.5601,392.2158 308.5601,394.3159 Q308.5601,396.4077 309.2449,397.4744 Q309.9297,398.541 311.2744,398.541 Q311.9053,398.541 312.4988,398.2712 Q313.0923,398.0015 313.7231,397.4204 Z "/><text fill="#000000" font-family="Helvetica" font-size="12" lengthAdjust="spacingAndGlyphs" textLength="95" x="331.75" y="397.2402">ReStructuredText</text><line style="stroke: #000000; stroke-width: 1.5;" x1="262.5" x2="463.5" y1="410" y2="410"/><ellipse cx="272.5" cy="436" fill="#A6A6A6" rx="3" ry="3" style="stroke: #545454; stroke-width: 1.0;"/><text fill="#000000" font-family="Helvetica" font-size="11" lengthAdjust="spacingAndGlyphs" textLength="57" x="281.5" y="437.4702">__enter__()</text><ellipse cx="272.5" cy="447" fill="#A6A6A6" rx="3" ry="3" style="stroke: #545454; stroke-width: 1.0;"/><text fill="#000000" font-family="Helvetica" font-size="11" lengthAdjust="spacingAndGlyphs" textLength="177" x="281.5" y="448.4702">__exit__(exc_type, exc_val, exc_tb)</text><ellipse cx="272.5" cy="458" fill="#A6A6A6" rx="3" ry="3" style="stroke: #545454; stroke-width: 1.0;"/><text fill="#000000" font-family="Helvetica" font-size="11" lengthAdjust="spacingAndGlyphs" textLength="56" x="281.5" y="459.4702">print(result)</text><ellipse cx="272.5" cy="469" fill="#A6A6A6" rx="3" ry="3" style="stroke: #545454; stroke-width: 1.0;"/><text fill="#000000" font-family="Helvetica" font-size="11" lengthAdjust="spacingAndGlyphs" textLength="84" x="281.5" y="470.4702">result(title, result)</text><line style="stroke: #000000; stroke-width: 1.0; stroke-dasharray: 1.0,2.0;" x1="262.5" x2="326" y1="423.5" y2="423.5"/><text fill="#000000" font-family="Helvetica" font-size="11" lengthAdjust="spacingAndGlyphs" textLength="74" x="326" y="425.9702">Public Methods</text><line style="stroke: #000000; stroke-width: 1.0; stroke-dasharray: 1.0,2.0;" x1="400" x2="463.5" y1="423.5" y2="423.5"/></a><!--MD5=[ad472f876b41c377ab9c2f7fd723b528]
class benchmarkstt.output.core.SimpleTextBase--><a href="https://benchmarkstt.readthedocs.io/en/latest/modules/benchmarkstt.output.core.html#benchmarkstt.output.core.SimpleTextBase" target="_top" title="https://benchmarkstt.readthedocs.io/en/latest/modules/benchmarkstt.output.core.html#benchmarkstt.output.core.SimpleTextBase" xlink:actuate="onRequest" xlink:href="https://benchmarkstt.readthedocs.io/en/latest/modules/benchmarkstt.output.core.html#benchmarkstt.output.core.SimpleTextBase" xlink:show="new" xlink:title="https://benchmarkstt.readthedocs.io/en/latest/modules/benchmarkstt.output.core.html#benchmarkstt.output.core.SimpleTextBase" xlink:type="simple"><rect fill="#FFFFFF" filter="url(#f1xzwgivaw7zdt)" height="99" id="benchmarkstt.output.core.SimpleTextBase" style="stroke: #000000; stroke-width: 1.0;" width="203" x="261.5" y="219"/><ellipse cx="314.25" cy="235" fill="#C2C2C2" rx="11" ry="11" style="stroke: #000000; stroke-width: 1.0;"/><path d="M316.7231,241.1431 Q316.1421,241.4419 315.5029,241.5913 Q314.8638,241.7407 314.1582,241.7407 Q311.6514,241.7407 310.3315,240.0889 Q309.0117,238.437 309.0117,235.3159 Q309.0117,232.1865 310.3315,230.5347 Q311.6514,228.8828 314.1582,228.8828 Q314.8638,228.8828 315.5112,229.0322 Q316.1587,229.1816 316.7231,229.4805 L316.7231,232.2031 Q316.0923,231.6221 315.4988,231.3523 Q314.9053,231.0825 314.2744,231.0825 Q312.9297,231.0825 312.2449,232.1492 Q311.5601,233.2158 311.5601,235.3159 Q311.5601,237.4077 312.2449,238.4744 Q312.9297,239.541 314.2744,239.541 Q314.9053,239.541 315.4988,239.2712 Q316.0923,239.0015 316.7231,238.4204 Z "/><text fill="#000000" font-family="Helvetica" font-size="12" lengthAdjust="spacingAndGlyphs" textLength="89" x="334.75" y="238.2402">SimpleTextBase</text><line style="stroke: #000000; stroke-width: 1.5;" x1="262.5" x2="463.5" y1="251" y2="251"/><ellipse cx="272.5" cy="277" fill="#A6A6A6" rx="3" ry="3" style="stroke: #545454; stroke-width: 1.0;"/><text fill="#000000" font-family="Helvetica" font-size="11" lengthAdjust="spacingAndGlyphs" textLength="57" x="281.5" y="278.4702">__enter__()</text><ellipse cx="272.5" cy="288" fill="#A6A6A6" rx="3" ry="3" style="stroke: #545454; stroke-width: 1.0;"/><text fill="#000000" font-family="Helvetica" font-size="11" lengthAdjust="spacingAndGlyphs" textLength="177" x="281.5" y="289.4702">__exit__(exc_type, exc_val, exc_tb)</text><ellipse cx="272.5" cy="299" fill="#A6A6A6" rx="3" ry="3" style="stroke: #545454; stroke-width: 1.0;"/><text fill="#000000" font-family="Helvetica" font-size="11" lengthAdjust="spacingAndGlyphs" textLength="56" x="281.5" y="300.4702">print(result)</text><ellipse cx="272.5" cy="310" fill="#A6A6A6" rx="3" ry="3" style="stroke: #545454; stroke-width: 1.0;"/><text fill="#000000" font-family="Helvetica" font-size="11" lengthAdjust="spacingAndGlyphs" textLength="84" x="281.5" y="311.4702">result(title, result)</text><line style="stroke: #000000; stroke-width: 1.0; stroke-dasharray: 1.0,2.0;" x1="262.5" x2="326" y1="264.5" y2="264.5"/><text fill="#000000" font-family="Helvetica" font-size="11" lengthAdjust="spacingAndGlyphs" textLength="74" x="326" y="266.9702">Public Methods</text><line style="stroke: #000000; stroke-width: 1.0; stroke-dasharray: 1.0,2.0;" x1="400" x2="463.5" y1="264.5" y2="264.5"/></a><!--MD5=[b4ba39b199d1ae7f900ea69508af4a3d]
reverse link benchmarkstt.output.Base to benchmarkstt.output.core.Json--><path d="M200.9,162.58 C187.55,181.04 173.01,201.14 160.26,218.76 " fill="none" id="benchmarkstt.output.Base&lt;-benchmarkstt.output.core.Json" style="stroke: #000000; stroke-width: 1.0;"/><polygon fill="none" points="195.34,158.32,212.73,146.22,206.68,166.53,195.34,158.32" style="stroke: #000000; stroke-width: 1.0;"/><!--MD5=[649e8d6b5a19579f64f6ff55d9b80603]
reverse link benchmarkstt.output.core.SimpleTextBase to benchmarkstt.output.core.MarkDown--><path d="M272.38,329.28 C248.05,345.33 222.03,362.49 198.74,377.86 " fill="none" id="benchmarkstt.output.core.SimpleTextBase&lt;-benchmarkstt.output.core.MarkDown" style="stroke: #000000; stroke-width: 1.0;"/><polygon fill="none" points="268.78,323.27,289.33,318.1,276.48,334.96,268.78,323.27" style="stroke: #000000; stroke-width: 1.0;"/><!--MD5=[0064dcd89a9c0ed1362beefa7e7418bc]
reverse link benchmarkstt.output.core.SimpleTextBase to benchmarkstt.output.core.ReStructuredText--><path d="M363,338.64 C363,351.91 363,365.54 363,377.98 " fill="none" id="benchmarkstt.output.core.SimpleTextBase&lt;-benchmarkstt.output.core.ReStructuredText" style="stroke: #000000; stroke-width: 1.0;"/><polygon fill="none" points="356,338.32,363,318.32,370,338.32,356,338.32" style="stroke: #000000; stroke-width: 1.0;"/><!--MD5=[ec4fe02a8646f37173536f5ee390896c]
reverse link benchmarkstt.output.Base to benchmarkstt.output.core.SimpleTextBase--><path d="M287.1,162.58 C300.45,181.04 314.99,201.14 327.74,218.76 " fill="none" id="benchmarkstt.output.Base&lt;-benchmarkstt.output.core.SimpleTextBase" style="stroke: #000000; stroke-width: 1.0;"/><polygon fill="none" points="281.32,166.53,275.27,146.22,292.66,158.32,281.32,166.53" style="stroke: #000000; stroke-width: 1.0;"/><!--MD5=[2e877862b1c706701f69253a1fa31c39]
@startuml

title benchmarkstt.output

skinparam packageStyle Frame
!includeurl https://raw.githubusercontent.com/matthewjosephtaylor/plantuml-style/master/style.pu
package benchmarkstt.output {

	class benchmarkstt.output.Base [[https://benchmarkstt.readthedocs.io/en/latest/modules/benchmarkstt.output.html#benchmarkstt.output.Base]] {
		.. Public Methods ..
		+__enter__()
		+__exit__(exc_type, exc_val, exc_tb)
		+result(title, result)
	}


}

package benchmarkstt.output.core {

	class benchmarkstt.output.core.Json [[https://benchmarkstt.readthedocs.io/en/latest/modules/benchmarkstt.output.core.html#benchmarkstt.output.core.Json]] {
		.. Public Methods ..
		+__enter__()
		+__exit__(exc_type, exc_val, exc_tb)
		+__init__()
		+result(title, result)
	}


	class benchmarkstt.output.core.MarkDown [[https://benchmarkstt.readthedocs.io/en/latest/modules/benchmarkstt.output.core.html#benchmarkstt.output.core.MarkDown]] {
		.. Public Methods ..
		+__enter__()
		+__exit__(exc_type, exc_val, exc_tb)
		+print(result)
		+result(title, result)
	}



	class benchmarkstt.output.core.ReStructuredText [[https://benchmarkstt.readthedocs.io/en/latest/modules/benchmarkstt.output.core.html#benchmarkstt.output.core.ReStructuredText]] {
		.. Public Methods ..
		+__enter__()
		+__exit__(exc_type, exc_val, exc_tb)
		+print(result)
		+result(title, result)
	}



	class benchmarkstt.output.core.SimpleTextBase [[https://benchmarkstt.readthedocs.io/en/latest/modules/benchmarkstt.output.core.html#benchmarkstt.output.core.SimpleTextBase]] {
		.. Public Methods ..
		+__enter__()
		+__exit__(exc_type, exc_val, exc_tb)
		+print(result)
		+result(title, result)
	}

}


benchmarkstt.output.core.Json -up-|> benchmarkstt.output.Base
benchmarkstt.output.core.MarkDown -up-|> benchmarkstt.output.core.SimpleTextBase
benchmarkstt.output.core.ReStructuredText -up-|> benchmarkstt.output.core.SimpleTextBase
benchmarkstt.output.core.SimpleTextBase -up-|> benchmarkstt.output.Base

@enduml

@startuml

title benchmarkstt.output

skinparam packageStyle Frame

skinparam defaultFontName  Helvetica
skinparam sequenceMessageAlign center
skinparam monochrome true

skinparam activity {
	ArrowColor Black
	BackgroundColor White
	BorderColor Black
	BorderThickness 1
}

skinparam actor {
	BackgroundColor White
	BorderColor Black
}

skinparam usecase {
	ArrowColor Black
	BackgroundColor White
	BorderColor Black
	BorderThickness 1
}

skinparam class {
	ArrowColor Black
	BackgroundColor White
	BorderColor Black
	BorderThickness 1
}


skinparam object {
	ArrowColor Black
	BackgroundColor White
	BorderColor Black
}

skinparam package {
	BackgroundColor White
	BorderColor Black
}


skinparam component {
	BackgroundColor White
	InterfaceBackgroundColor White
	BorderColor Black
	InterfaceBorderColor Black
}

skinparam note {
	BackgroundColor White
	BorderColor Black
}

skinparam state {
	ArrowColor Black
	BackgroundColor White
	BorderColor Black
}

skinparam sequence {
	ArrowColor Black
	BackgroundColor White
	ParticipantBackgroundColor White
	BorderColor Black
	LifeLineBorderColor Black
	ParticipantBorderColor Black
	BoxLineColor Black
}

skinparam interface {
	BackgroundColor White
	BorderColor Black
}
package benchmarkstt.output {

	class benchmarkstt.output.Base [[https://benchmarkstt.readthedocs.io/en/latest/modules/benchmarkstt.output.html#benchmarkstt.output.Base]] {
		.. Public Methods ..
		+__enter__()
		+__exit__(exc_type, exc_val, exc_tb)
		+result(title, result)
	}


}

package benchmarkstt.output.core {

	class benchmarkstt.output.core.Json [[https://benchmarkstt.readthedocs.io/en/latest/modules/benchmarkstt.output.core.html#benchmarkstt.output.core.Json]] {
		.. Public Methods ..
		+__enter__()
		+__exit__(exc_type, exc_val, exc_tb)
		+__init__()
		+result(title, result)
	}


	class benchmarkstt.output.core.MarkDown [[https://benchmarkstt.readthedocs.io/en/latest/modules/benchmarkstt.output.core.html#benchmarkstt.output.core.MarkDown]] {
		.. Public Methods ..
		+__enter__()
		+__exit__(exc_type, exc_val, exc_tb)
		+print(result)
		+result(title, result)
	}



	class benchmarkstt.output.core.ReStructuredText [[https://benchmarkstt.readthedocs.io/en/latest/modules/benchmarkstt.output.core.html#benchmarkstt.output.core.ReStructuredText]] {
		.. Public Methods ..
		+__enter__()
		+__exit__(exc_type, exc_val, exc_tb)
		+print(result)
		+result(title, result)
	}



	class benchmarkstt.output.core.SimpleTextBase [[https://benchmarkstt.readthedocs.io/en/latest/modules/benchmarkstt.output.core.html#benchmarkstt.output.core.SimpleTextBase]] {
		.. Public Methods ..
		+__enter__()
		+__exit__(exc_type, exc_val, exc_tb)
		+print(result)
		+result(title, result)
	}

}


benchmarkstt.output.core.Json -up-|> benchmarkstt.output.Base
benchmarkstt.output.core.MarkDown -up-|> benchmarkstt.output.core.SimpleTextBase
benchmarkstt.output.core.ReStructuredText -up-|> benchmarkstt.output.core.SimpleTextBase
benchmarkstt.output.core.SimpleTextBase -up-|> benchmarkstt.output.Base

@enduml

PlantUML version 1.2020.15(Sun Jun 28 13:39:45 CEST 2020)
(GPL source distribution)
Java Runtime: OpenJDK Runtime Environment
JVM: OpenJDK 64-Bit Server VM
Default Encoding: UTF-8
Language: en
Country: BE
--></g></svg>