<?xml version="1.0" encoding="UTF-8" standalone="no"?><svg xmlns="http://www.w3.org/2000/svg" xmlns:xlink="http://www.w3.org/1999/xlink" contentScriptType="application/ecmascript" contentStyleType="text/css" height="310px" preserveAspectRatio="none" style="width:681px;height:310px;" version="1.1" viewBox="0 0 681 310" width="681px" zoomAndPan="magnify"><defs><filter height="300%" id="f1eqea8cic44up" width="300%" x="-1" y="-1"><feGaussianBlur result="blurOut" stdDeviation="2.0"/><feColorMatrix in="blurOut" result="blurOut2" type="matrix" values="0 0 0 0 0 0 0 0 0 0 0 0 0 0 0 0 0 0 .4 0"/><feOffset dx="4.0" dy="4.0" in="blurOut2" result="blurOut3"/><feBlend in="SourceGraphic" in2="blurOut3" mode="normal"/></filter></defs><g><!--MD5=[94de2ef9dde389aecb44d7f232eba8a2]
cluster benchmarkstt.input--><a href="https://benchmarkstt.readthedocs.io/en/latest/modules/benchmarkstt.input.html#" target="_top" title="https://benchmarkstt.readthedocs.io/en/latest/modules/benchmarkstt.input.html#" xlink:actuate="onRequest" xlink:href="https://benchmarkstt.readthedocs.io/en/latest/modules/benchmarkstt.input.html#" xlink:show="new" xlink:title="https://benchmarkstt.readthedocs.io/en/latest/modules/benchmarkstt.input.html#" xlink:type="simple"><rect fill="#FFFFFF" filter="url(#f1eqea8cic44up)" height="105" style="stroke: #000000; stroke-width: 1.5;" width="156" x="259" y="7"/><path d="M409,8 L409,16.4883 L399,26.4883 L259,26.4883 " fill="none" style="stroke: #000000; stroke-width: 1.5;"/><text fill="#000000" font-family="sans-serif" font-size="14" font-weight="bold" lengthAdjust="spacingAndGlyphs" textLength="140" x="262" y="21.5352">benchmarkstt.input</text></a><!--MD5=[5c7a64d73ca244446f0e70026cf5d0bf]
cluster benchmarkstt.input.core--><a href="https://benchmarkstt.readthedocs.io/en/latest/modules/benchmarkstt.input.core.html#" target="_top" title="https://benchmarkstt.readthedocs.io/en/latest/modules/benchmarkstt.input.core.html#" xlink:actuate="onRequest" xlink:href="https://benchmarkstt.readthedocs.io/en/latest/modules/benchmarkstt.input.core.html#" xlink:show="new" xlink:title="https://benchmarkstt.readthedocs.io/en/latest/modules/benchmarkstt.input.core.html#" xlink:type="simple"><rect fill="#FFFFFF" filter="url(#f1eqea8cic44up)" height="157" style="stroke: #000000; stroke-width: 1.5;" width="657" x="7" y="136"/><path d="M190,137 L190,145.4883 L180,155.4883 L7,155.4883 " fill="none" style="stroke: #000000; stroke-width: 1.5;"/><text fill="#000000" font-family="sans-serif" font-size="14" font-weight="bold" lengthAdjust="spacingAndGlyphs" textLength="173" x="10" y="150.5352">benchmarkstt.input.core</text></a><!--MD5=[d1e904a0c11302288bad0868539b156c]
class benchmarkstt.input.Base--><a href="https://benchmarkstt.readthedocs.io/en/latest/modules/benchmarkstt.input.html#benchmarkstt.input.Base" target="_top" title="https://benchmarkstt.readthedocs.io/en/latest/modules/benchmarkstt.input.html#benchmarkstt.input.Base" xlink:actuate="onRequest" xlink:href="https://benchmarkstt.readthedocs.io/en/latest/modules/benchmarkstt.input.html#benchmarkstt.input.Base" xlink:show="new" xlink:title="https://benchmarkstt.readthedocs.io/en/latest/modules/benchmarkstt.input.html#benchmarkstt.input.Base" xlink:type="simple"><rect fill="#FEFECE" filter="url(#f1eqea8cic44up)" height="54.2656" id="benchmarkstt.input.Base" style="stroke: #A80036; stroke-width: 1.5;" width="84" x="295" y="42"/><ellipse cx="310" cy="61.1328" fill="#ADD1B2" rx="11" ry="11" style="stroke: #A80036; stroke-width: 1.0;"/><path d="M312.4731,67.2759 Q311.8921,67.5747 311.2529,67.7241 Q310.6138,67.8735 309.9082,67.8735 Q307.4014,67.8735 306.0815,66.2217 Q304.7617,64.5698 304.7617,61.4487 Q304.7617,58.3193 306.0815,56.6675 Q307.4014,55.0156 309.9082,55.0156 Q310.6138,55.0156 311.2612,55.165 Q311.9087,55.3145 312.4731,55.6133 L312.4731,58.3359 Q311.8423,57.7549 311.2488,57.4851 Q310.6553,57.2153 310.0244,57.2153 Q308.6797,57.2153 307.9949,58.282 Q307.3101,59.3486 307.3101,61.4487 Q307.3101,63.5405 307.9949,64.6072 Q308.6797,65.6738 310.0244,65.6738 Q310.6553,65.6738 311.2488,65.4041 Q311.8423,65.1343 312.4731,64.5532 Z "/><text fill="#000000" font-family="sans-serif" font-size="12" font-style="italic" lengthAdjust="spacingAndGlyphs" textLength="56" x="322" y="58.6016">«Iterable»</text><text fill="#000000" font-family="sans-serif" font-size="12" lengthAdjust="spacingAndGlyphs" textLength="27" x="336.5" y="72.7344">Base</text><line style="stroke: #A80036; stroke-width: 1.5;" x1="296" x2="378" y1="80.2656" y2="80.2656"/><line style="stroke: #A80036; stroke-width: 1.5;" x1="296" x2="378" y1="88.2656" y2="88.2656"/></a><!--MD5=[4843f7accda627844ca340f5d1efa37d]
class benchmarkstt.input.core.File--><a href="https://benchmarkstt.readthedocs.io/en/latest/modules/benchmarkstt.input.core.html#benchmarkstt.input.core.File" target="_top" title="https://benchmarkstt.readthedocs.io/en/latest/modules/benchmarkstt.input.core.html#benchmarkstt.input.core.File" xlink:actuate="onRequest" xlink:href="https://benchmarkstt.readthedocs.io/en/latest/modules/benchmarkstt.input.core.html#benchmarkstt.input.core.File" xlink:show="new" xlink:title="https://benchmarkstt.readthedocs.io/en/latest/modules/benchmarkstt.input.core.html#benchmarkstt.input.core.File" xlink:type="simple"><rect fill="#FEFECE" filter="url(#f1eqea8cic44up)" height="106.0859" id="benchmarkstt.input.core.File" style="stroke: #A80036; stroke-width: 1.5;" width="292" x="356" y="171"/><ellipse cx="471.75" cy="190.1328" fill="#ADD1B2" rx="11" ry="11" style="stroke: #A80036; stroke-width: 1.0;"/><path d="M474.2231,196.2759 Q473.6421,196.5747 473.0029,196.7241 Q472.3638,196.8735 471.6582,196.8735 Q469.1514,196.8735 467.8315,195.2217 Q466.5117,193.5698 466.5117,190.4487 Q466.5117,187.3193 467.8315,185.6675 Q469.1514,184.0156 471.6582,184.0156 Q472.3638,184.0156 473.0112,184.165 Q473.6587,184.3145 474.2231,184.6133 L474.2231,187.3359 Q473.5923,186.7549 472.9988,186.4851 Q472.4053,186.2153 471.7744,186.2153 Q470.4297,186.2153 469.7449,187.282 Q469.0601,188.3486 469.0601,190.4487 Q469.0601,192.5405 469.7449,193.6072 Q470.4297,194.6738 471.7744,194.6738 Q472.4053,194.6738 472.9988,194.4041 Q473.5923,194.1343 474.2231,193.5532 Z "/><text fill="#000000" font-family="sans-serif" font-size="12" font-style="italic" lengthAdjust="spacingAndGlyphs" textLength="56" x="490.25" y="187.6016">«Iterable»</text><text fill="#000000" font-family="sans-serif" font-size="12" lengthAdjust="spacingAndGlyphs" textLength="19" x="508.75" y="201.7344">File</text><line style="stroke: #A80036; stroke-width: 1.5;" x1="357" x2="647" y1="209.2656" y2="209.2656"/><ellipse cx="367" cy="237.2207" fill="#84BE84" rx="3" ry="3" style="stroke: #038048; stroke-width: 1.0;"/><text fill="#000000" font-family="sans-serif" font-size="11" lengthAdjust="spacingAndGlyphs" textLength="266" x="376" y="240.8555">__init__(file, input_type=None, normalizer=None)</text><line style="stroke: #A80036; stroke-width: 1.0; stroke-dasharray: 1.0,2.0;" x1="357" x2="461.5" y1="223.7432" y2="223.7432"/><text fill="#000000" font-family="sans-serif" font-size="11" lengthAdjust="spacingAndGlyphs" textLength="81" x="461.5" y="227.4004">Public Methods</text><line style="stroke: #A80036; stroke-width: 1.0; stroke-dasharray: 1.0,2.0;" x1="542.5" x2="647" y1="223.7432" y2="223.7432"/><ellipse cx="367" cy="267.1309" fill="#84BE84" rx="3" ry="3" style="stroke: #038048; stroke-width: 1.0;"/><text fill="#000000" font-family="sans-serif" font-size="11" lengthAdjust="spacingAndGlyphs" text-decoration="underline" textLength="89" x="376" y="270.7656">available_types()</text><line style="stroke: #A80036; stroke-width: 1.0; stroke-dasharray: 1.0,2.0;" x1="357" x2="463" y1="253.6533" y2="253.6533"/><text fill="#000000" font-family="sans-serif" font-size="11" lengthAdjust="spacingAndGlyphs" textLength="78" x="463" y="257.3105">Static Methods</text><line style="stroke: #A80036; stroke-width: 1.0; stroke-dasharray: 1.0,2.0;" x1="541" x2="647" y1="253.6533" y2="253.6533"/></a><!--MD5=[3edd34d35203ceb4dd4fa63a3b0c665d]
class benchmarkstt.input.core.PlainText--><a href="https://benchmarkstt.readthedocs.io/en/latest/modules/benchmarkstt.input.core.html#benchmarkstt.input.core.PlainText" target="_top" title="https://benchmarkstt.readthedocs.io/en/latest/modules/benchmarkstt.input.core.html#benchmarkstt.input.core.PlainText" xlink:actuate="onRequest" xlink:href="https://benchmarkstt.readthedocs.io/en/latest/modules/benchmarkstt.input.core.html#benchmarkstt.input.core.PlainText" xlink:show="new" xlink:title="https://benchmarkstt.readthedocs.io/en/latest/modules/benchmarkstt.input.core.html#benchmarkstt.input.core.PlainText" xlink:type="simple"><rect fill="#FEFECE" filter="url(#f1eqea8cic44up)" height="76.1758" id="benchmarkstt.input.core.PlainText" style="stroke: #A80036; stroke-width: 1.5;" width="297" x="23.5" y="186"/><ellipse cx="141.25" cy="205.1328" fill="#ADD1B2" rx="11" ry="11" style="stroke: #A80036; stroke-width: 1.0;"/><path d="M143.7231,211.2759 Q143.1421,211.5747 142.5029,211.7241 Q141.8638,211.8735 141.1582,211.8735 Q138.6514,211.8735 137.3315,210.2217 Q136.0117,208.5698 136.0117,205.4487 Q136.0117,202.3193 137.3315,200.6675 Q138.6514,199.0156 141.1582,199.0156 Q141.8638,199.0156 142.5112,199.165 Q143.1587,199.3145 143.7231,199.6133 L143.7231,202.3359 Q143.0923,201.7549 142.4988,201.4851 Q141.9053,201.2153 141.2744,201.2153 Q139.9297,201.2153 139.2449,202.282 Q138.5601,203.3486 138.5601,205.4487 Q138.5601,207.5405 139.2449,208.6072 Q139.9297,209.6738 141.2744,209.6738 Q141.9053,209.6738 142.4988,209.4041 Q143.0923,209.1343 143.7231,208.5532 Z "/><text fill="#000000" font-family="sans-serif" font-size="12" font-style="italic" lengthAdjust="spacingAndGlyphs" textLength="56" x="160.25" y="202.6016">«Iterable»</text><text fill="#000000" font-family="sans-serif" font-size="12" lengthAdjust="spacingAndGlyphs" textLength="53" x="161.75" y="216.7344">PlainText</text><line style="stroke: #A80036; stroke-width: 1.5;" x1="24.5" x2="319.5" y1="224.2656" y2="224.2656"/><ellipse cx="34.5" cy="252.2207" fill="#84BE84" rx="3" ry="3" style="stroke: #038048; stroke-width: 1.0;"/><text fill="#000000" font-family="sans-serif" font-size="11" lengthAdjust="spacingAndGlyphs" textLength="271" x="43.5" y="255.8555">__init__(text, segmenter=None, normalizer=None)</text><line style="stroke: #A80036; stroke-width: 1.0; stroke-dasharray: 1.0,2.0;" x1="24.5" x2="131.5" y1="238.7432" y2="238.7432"/><text fill="#000000" font-family="sans-serif" font-size="11" lengthAdjust="spacingAndGlyphs" textLength="81" x="131.5" y="242.4004">Public Methods</text><line style="stroke: #A80036; stroke-width: 1.0; stroke-dasharray: 1.0,2.0;" x1="212.5" x2="319.5" y1="238.7432" y2="238.7432"/></a><!--MD5=[065a416e4c33abf0dffdc83d6e1bf045]
reverse link benchmarkstt.input.Base to benchmarkstt.input.core.File--><path d="M380.11,109.97 C400.14,128.55 424.22,150.88 445.67,170.77 " fill="none" id="benchmarkstt.input.Base&lt;-benchmarkstt.input.core.File" style="stroke: #A80036; stroke-width: 1.0;"/><polygon fill="none" points="375.27,115.03,365.36,96.3,384.79,104.77,375.27,115.03" style="stroke: #A80036; stroke-width: 1.0;"/><!--MD5=[3d607d7f67fd018830fa1d9f070f3dcc]
reverse link benchmarkstt.input.Base to benchmarkstt.input.core.PlainText--><path d="M293.83,110.03 C268.52,133.5 236.77,162.94 212.03,185.88 " fill="none" id="benchmarkstt.input.Base&lt;-benchmarkstt.input.core.PlainText" style="stroke: #A80036; stroke-width: 1.0;"/><polygon fill="none" points="289.21,104.77,308.64,96.3,298.73,115.03,289.21,104.77" style="stroke: #A80036; stroke-width: 1.0;"/><!--MD5=[f5eee88e9072eb3bad30feb33645c6b5]
@startuml

skinparam packageStyle Frame
package benchmarkstt.input [[https://benchmarkstt.readthedocs.io/en/latest/modules/benchmarkstt.input.html#]] {

	class benchmarkstt.input.Base << Iterable >>  [[https://benchmarkstt.readthedocs.io/en/latest/modules/benchmarkstt.input.html#benchmarkstt.input.Base]] {
	}
}

package benchmarkstt.input.core [[https://benchmarkstt.readthedocs.io/en/latest/modules/benchmarkstt.input.core.html#]] {

	class benchmarkstt.input.core.File << Iterable >>  [[https://benchmarkstt.readthedocs.io/en/latest/modules/benchmarkstt.input.core.html#benchmarkstt.input.core.File]] extends benchmarkstt.input.Base {
		.. Public Methods ..
		+__init__(file, input_type=None, normalizer=None)
		.. Static Methods ..
		{static} +available_types()
	}

	class benchmarkstt.input.core.PlainText << Iterable >>  [[https://benchmarkstt.readthedocs.io/en/latest/modules/benchmarkstt.input.core.html#benchmarkstt.input.core.PlainText]] extends benchmarkstt.input.Base {
		.. Public Methods ..
		+__init__(text, segmenter=None, normalizer=None)
	}
}




@enduml

PlantUML version 1.2020.15(Sun Jun 28 13:39:45 CEST 2020)
(GPL source distribution)
Java Runtime: OpenJDK Runtime Environment
JVM: OpenJDK 64-Bit Server VM
Default Encoding: UTF-8
Language: en
Country: BE
--></g></svg>