<?xml version="1.0" encoding="UTF-8" standalone="no"?><svg xmlns="http://www.w3.org/2000/svg" xmlns:xlink="http://www.w3.org/1999/xlink" contentScriptType="application/ecmascript" contentStyleType="text/css" height="935px" preserveAspectRatio="none" style="width:1438px;height:935px;" version="1.1" viewBox="0 0 1438 935" width="1438px" zoomAndPan="magnify"><defs><filter height="300%" id="f1is959o0gdyku" width="300%" x="-1" y="-1"><feGaussianBlur result="blurOut" stdDeviation="2.0"/><feColorMatrix in="blurOut" result="blurOut2" type="matrix" values="0 0 0 0 0 0 0 0 0 0 0 0 0 0 0 0 0 0 .4 0"/><feOffset dx="4.0" dy="4.0" in="blurOut2" result="blurOut3"/><feBlend in="SourceGraphic" in2="blurOut3" mode="normal"/></filter></defs><g><text fill="#000000" font-family="sans-serif" font-size="18" lengthAdjust="spacingAndGlyphs" textLength="155" x="632.5" y="17.4023">Benchmarkstt.diff</text><!--MD5=[72b54bae2fb354191b48b6bdd2cdddb6]
cluster benchmarkstt.diff.formatter--><polygon fill="#FFFFFF" filter="url(#f1is959o0gdyku)" points="16,39.6992,222,39.6992,229,62.1875,1110,62.1875,1110,923.1992,16,923.1992,16,39.6992" style="stroke: #000000; stroke-width: 1.5;"/><line style="stroke: #000000; stroke-width: 1.5;" x1="16" x2="229" y1="62.1875" y2="62.1875"/><text fill="#000000" font-family="sans-serif" font-size="14" font-weight="bold" lengthAdjust="spacingAndGlyphs" textLength="200" x="20" y="55.2344">benchmarkstt.diff.formatter</text><!--MD5=[b21609c0e4e09564ea14466d1d899cfe]
cluster benchmarkstt.diff--><polygon fill="#FFFFFF" filter="url(#f1is959o0gdyku)" points="1184,464.1992,1318,464.1992,1325,486.6875,1366,486.6875,1366,589.1992,1184,589.1992,1184,464.1992" style="stroke: #000000; stroke-width: 1.5;"/><line style="stroke: #000000; stroke-width: 1.5;" x1="1184" x2="1325" y1="486.6875" y2="486.6875"/><text fill="#000000" font-family="sans-serif" font-size="14" font-weight="bold" lengthAdjust="spacingAndGlyphs" textLength="128" x="1188" y="479.7344">benchmarkstt.diff</text><!--MD5=[09ed425bc4f616bbad3d6f8b00541a65]
cluster benchmarkstt.diff.core--><polygon fill="#FFFFFF" filter="url(#f1is959o0gdyku)" points="1134,27.1992,1301,27.1992,1308,49.6875,1416,49.6875,1416,281.1992,1134,281.1992,1134,27.1992" style="stroke: #000000; stroke-width: 1.5;"/><line style="stroke: #000000; stroke-width: 1.5;" x1="1134" x2="1308" y1="49.6875" y2="49.6875"/><text fill="#000000" font-family="sans-serif" font-size="14" font-weight="bold" lengthAdjust="spacingAndGlyphs" textLength="161" x="1138" y="42.7344">benchmarkstt.diff.core</text><!--MD5=[3c662193fe25a144b7239b40297cb0df]
class benchmarkstt.diff.formatter.CLIDiffDialect--><a href="https://benchmarkstt.readthedocs.io/en/latest/modules/benchmarkstt.diff.formatter.html#benchmarkstt.diff.formatter.CLIDiffDialect" target="_top" title="https://benchmarkstt.readthedocs.io/en/latest/modules/benchmarkstt.diff.formatter.html#benchmarkstt.diff.formatter.CLIDiffDialect" xlink:actuate="onRequest" xlink:href="https://benchmarkstt.readthedocs.io/en/latest/modules/benchmarkstt.diff.formatter.html#benchmarkstt.diff.formatter.CLIDiffDialect" xlink:show="new" xlink:title="https://benchmarkstt.readthedocs.io/en/latest/modules/benchmarkstt.diff.formatter.html#benchmarkstt.diff.formatter.CLIDiffDialect" xlink:type="simple"><rect fill="#FEFECE" filter="url(#f1is959o0gdyku)" height="112.7754" id="benchmarkstt.diff.formatter.CLIDiffDialect" style="stroke: #A80036; stroke-width: 1.5;" width="239" x="306.5" y="479.6992"/><ellipse cx="383.75" cy="495.6992" fill="#ADD1B2" rx="11" ry="11" style="stroke: #A80036; stroke-width: 1.0;"/><path d="M386.2231,501.8423 Q385.6421,502.1411 385.0029,502.2905 Q384.3638,502.4399 383.6582,502.4399 Q381.1514,502.4399 379.8315,500.7881 Q378.5117,499.1362 378.5117,496.0151 Q378.5117,492.8857 379.8315,491.2339 Q381.1514,489.582 383.6582,489.582 Q384.3638,489.582 385.0112,489.7314 Q385.6587,489.8809 386.2231,490.1797 L386.2231,492.9023 Q385.5923,492.3213 384.9988,492.0515 Q384.4053,491.7817 383.7744,491.7817 Q382.4297,491.7817 381.7449,492.8484 Q381.0601,493.915 381.0601,496.0151 Q381.0601,498.1069 381.7449,499.1736 Q382.4297,500.2402 383.7744,500.2402 Q384.4053,500.2402 384.9988,499.9705 Q385.5923,499.7007 386.2231,499.1196 Z "/><text fill="#000000" font-family="sans-serif" font-size="12" lengthAdjust="spacingAndGlyphs" textLength="76" x="404.25" y="500.2344">CLIDiffDialect</text><line style="stroke: #A80036; stroke-width: 1.5;" x1="307.5" x2="544.5" y1="511.6992" y2="511.6992"/><line style="stroke: #A80036; stroke-width: 1.5;" x1="307.5" x2="544.5" y1="519.6992" y2="519.6992"/><ellipse cx="317.5" cy="530.6992" fill="#84BE84" rx="3" ry="3" style="stroke: #038048; stroke-width: 1.0;"/><text fill="#000000" font-family="sans-serif" font-size="11" lengthAdjust="spacingAndGlyphs" textLength="79" x="326.5" y="534.334">__enter__(self)</text><ellipse cx="317.5" cy="543.6543" fill="#84BE84" rx="3" ry="3" style="stroke: #038048; stroke-width: 1.0;"/><text fill="#000000" font-family="sans-serif" font-size="11" lengthAdjust="spacingAndGlyphs" textLength="213" x="326.5" y="547.2891">__exit__(self, exc_type, exc_val, exc_tb)</text><ellipse cx="317.5" cy="556.6094" fill="#84BE84" rx="3" ry="3" style="stroke: #038048; stroke-width: 1.0;"/><text fill="#000000" font-family="sans-serif" font-size="11" lengthAdjust="spacingAndGlyphs" textLength="197" x="326.5" y="560.2441">__init__(self, show_color_key=None)</text><ellipse cx="317.5" cy="569.5645" fill="#84BE84" rx="3" ry="3" style="stroke: #038048; stroke-width: 1.0;"/><text fill="#000000" font-family="sans-serif" font-size="11" lengthAdjust="spacingAndGlyphs" textLength="63" x="326.5" y="573.1992">output(self)</text><ellipse cx="317.5" cy="582.5195" fill="#84BE84" rx="3" ry="3" style="stroke: #038048; stroke-width: 1.0;"/><text fill="#000000" font-family="sans-serif" font-size="11" lengthAdjust="spacingAndGlyphs" textLength="96" x="326.5" y="586.1543">preprocessor(txt)</text></a><!--MD5=[df29a61f45d19c4e6d0ce3d05bdaff27]
class benchmarkstt.diff.formatter.Dialect--><a href="https://benchmarkstt.readthedocs.io/en/latest/modules/benchmarkstt.diff.formatter.html#benchmarkstt.diff.formatter.Dialect" target="_top" title="https://benchmarkstt.readthedocs.io/en/latest/modules/benchmarkstt.diff.formatter.html#benchmarkstt.diff.formatter.Dialect" xlink:actuate="onRequest" xlink:href="https://benchmarkstt.readthedocs.io/en/latest/modules/benchmarkstt.diff.formatter.html#benchmarkstt.diff.formatter.Dialect" xlink:show="new" xlink:title="https://benchmarkstt.readthedocs.io/en/latest/modules/benchmarkstt.diff.formatter.html#benchmarkstt.diff.formatter.Dialect" xlink:type="simple"><rect fill="#FEFECE" filter="url(#f1is959o0gdyku)" height="99.8203" id="benchmarkstt.diff.formatter.Dialect" style="stroke: #A80036; stroke-width: 1.5;" width="239" x="443.5" y="807.1992"/><ellipse cx="539.25" cy="823.1992" fill="#ADD1B2" rx="11" ry="11" style="stroke: #A80036; stroke-width: 1.0;"/><path d="M541.7231,829.3423 Q541.1421,829.6411 540.5029,829.7905 Q539.8638,829.9399 539.1582,829.9399 Q536.6514,829.9399 535.3315,828.2881 Q534.0117,826.6362 534.0117,823.5151 Q534.0117,820.3857 535.3315,818.7339 Q536.6514,817.082 539.1582,817.082 Q539.8638,817.082 540.5112,817.2314 Q541.1587,817.3809 541.7231,817.6797 L541.7231,820.4023 Q541.0923,819.8213 540.4988,819.5515 Q539.9053,819.2817 539.2744,819.2817 Q537.9297,819.2817 537.2449,820.3484 Q536.5601,821.415 536.5601,823.5151 Q536.5601,825.6069 537.2449,826.6736 Q537.9297,827.7402 539.2744,827.7402 Q539.9053,827.7402 540.4988,827.4705 Q541.0923,827.2007 541.7231,826.6196 Z "/><text fill="#000000" font-family="sans-serif" font-size="12" lengthAdjust="spacingAndGlyphs" textLength="39" x="559.75" y="827.7344">Dialect</text><line style="stroke: #A80036; stroke-width: 1.5;" x1="444.5" x2="681.5" y1="839.1992" y2="839.1992"/><line style="stroke: #A80036; stroke-width: 1.5;" x1="444.5" x2="681.5" y1="847.1992" y2="847.1992"/><ellipse cx="454.5" cy="858.1992" fill="#84BE84" rx="3" ry="3" style="stroke: #038048; stroke-width: 1.0;"/><text fill="#000000" font-family="sans-serif" font-size="11" lengthAdjust="spacingAndGlyphs" textLength="79" x="463.5" y="861.834">__enter__(self)</text><ellipse cx="454.5" cy="871.1543" fill="#84BE84" rx="3" ry="3" style="stroke: #038048; stroke-width: 1.0;"/><text fill="#000000" font-family="sans-serif" font-size="11" lengthAdjust="spacingAndGlyphs" textLength="213" x="463.5" y="874.7891">__exit__(self, exc_type, exc_val, exc_tb)</text><ellipse cx="454.5" cy="884.1094" fill="#84BE84" rx="3" ry="3" style="stroke: #038048; stroke-width: 1.0;"/><text fill="#000000" font-family="sans-serif" font-size="11" lengthAdjust="spacingAndGlyphs" textLength="68" x="463.5" y="887.7441">__init__(self)</text><ellipse cx="454.5" cy="897.0645" fill="#84BE84" rx="3" ry="3" style="stroke: #038048; stroke-width: 1.0;"/><text fill="#000000" font-family="sans-serif" font-size="11" lengthAdjust="spacingAndGlyphs" textLength="63" x="463.5" y="900.6992">output(self)</text></a><!--MD5=[3cef3a3f66db63f58bdcdbc71fd62980]
class benchmarkstt.diff.formatter.DiffFormatter--><a href="https://benchmarkstt.readthedocs.io/en/latest/modules/benchmarkstt.diff.formatter.html#benchmarkstt.diff.formatter.DiffFormatter" target="_top" title="https://benchmarkstt.readthedocs.io/en/latest/modules/benchmarkstt.diff.formatter.html#benchmarkstt.diff.formatter.DiffFormatter" xlink:actuate="onRequest" xlink:href="https://benchmarkstt.readthedocs.io/en/latest/modules/benchmarkstt.diff.formatter.html#benchmarkstt.diff.formatter.DiffFormatter" xlink:show="new" xlink:title="https://benchmarkstt.readthedocs.io/en/latest/modules/benchmarkstt.diff.formatter.html#benchmarkstt.diff.formatter.DiffFormatter" xlink:type="simple"><rect fill="#FEFECE" filter="url(#f1is959o0gdyku)" height="73.9102" id="benchmarkstt.diff.formatter.DiffFormatter" style="stroke: #A80036; stroke-width: 1.5;" width="301" x="792.5" y="126.6992"/><ellipse cx="900.75" cy="142.6992" fill="#ADD1B2" rx="11" ry="11" style="stroke: #A80036; stroke-width: 1.0;"/><path d="M903.2231,148.8423 Q902.6421,149.1411 902.0029,149.2905 Q901.3638,149.4399 900.6582,149.4399 Q898.1514,149.4399 896.8315,147.7881 Q895.5117,146.1362 895.5117,143.0151 Q895.5117,139.8857 896.8315,138.2339 Q898.1514,136.582 900.6582,136.582 Q901.3638,136.582 902.0112,136.7314 Q902.6587,136.8809 903.2231,137.1797 L903.2231,139.9023 Q902.5923,139.3213 901.9988,139.0515 Q901.4053,138.7817 900.7744,138.7817 Q899.4297,138.7817 898.7449,139.8484 Q898.0601,140.915 898.0601,143.0151 Q898.0601,145.1069 898.7449,146.1736 Q899.4297,147.2402 900.7744,147.2402 Q901.4053,147.2402 901.9988,146.9705 Q902.5923,146.7007 903.2231,146.1196 Z "/><text fill="#000000" font-family="sans-serif" font-size="12" lengthAdjust="spacingAndGlyphs" textLength="76" x="921.25" y="147.2344">DiffFormatter</text><line style="stroke: #A80036; stroke-width: 1.5;" x1="793.5" x2="1092.5" y1="158.6992" y2="158.6992"/><line style="stroke: #A80036; stroke-width: 1.5;" x1="793.5" x2="1092.5" y1="166.6992" y2="166.6992"/><ellipse cx="803.5" cy="177.6992" fill="#84BE84" rx="3" ry="3" style="stroke: #038048; stroke-width: 1.0;"/><text fill="#000000" font-family="sans-serif" font-size="11" lengthAdjust="spacingAndGlyphs" textLength="235" x="812.5" y="181.334">__init__(self, dialect=None, *args, **kwargs)</text><ellipse cx="803.5" cy="190.6543" fill="#84BE84" rx="3" ry="3" style="stroke: #038048; stroke-width: 1.0;"/><text fill="#000000" font-family="sans-serif" font-size="11" lengthAdjust="spacingAndGlyphs" textLength="275" x="812.5" y="194.2891">diff(self, a, b, opcodes=None, preprocessor=None)</text></a><!--MD5=[13567ef2ba7a355d45cc98cb3acfd770]
class benchmarkstt.diff.formatter.HTMLDiffDialect--><a href="https://benchmarkstt.readthedocs.io/en/latest/modules/benchmarkstt.diff.formatter.html#benchmarkstt.diff.formatter.HTMLDiffDialect" target="_top" title="https://benchmarkstt.readthedocs.io/en/latest/modules/benchmarkstt.diff.formatter.html#benchmarkstt.diff.formatter.HTMLDiffDialect" xlink:actuate="onRequest" xlink:href="https://benchmarkstt.readthedocs.io/en/latest/modules/benchmarkstt.diff.formatter.html#benchmarkstt.diff.formatter.HTMLDiffDialect" xlink:show="new" xlink:title="https://benchmarkstt.readthedocs.io/en/latest/modules/benchmarkstt.diff.formatter.html#benchmarkstt.diff.formatter.HTMLDiffDialect" xlink:type="simple"><rect fill="#FEFECE" filter="url(#f1is959o0gdyku)" height="112.7754" id="benchmarkstt.diff.formatter.HTMLDiffDialect" style="stroke: #A80036; stroke-width: 1.5;" width="239" x="854.5" y="479.6992"/><ellipse cx="923.75" cy="495.6992" fill="#ADD1B2" rx="11" ry="11" style="stroke: #A80036; stroke-width: 1.0;"/><path d="M926.2231,501.8423 Q925.6421,502.1411 925.0029,502.2905 Q924.3638,502.4399 923.6582,502.4399 Q921.1514,502.4399 919.8315,500.7881 Q918.5117,499.1362 918.5117,496.0151 Q918.5117,492.8857 919.8315,491.2339 Q921.1514,489.582 923.6582,489.582 Q924.3638,489.582 925.0112,489.7314 Q925.6587,489.8809 926.2231,490.1797 L926.2231,492.9023 Q925.5923,492.3213 924.9988,492.0515 Q924.4053,491.7817 923.7744,491.7817 Q922.4297,491.7817 921.7449,492.8484 Q921.0601,493.915 921.0601,496.0151 Q921.0601,498.1069 921.7449,499.1736 Q922.4297,500.2402 923.7744,500.2402 Q924.4053,500.2402 924.9988,499.9705 Q925.5923,499.7007 926.2231,499.1196 Z "/><text fill="#000000" font-family="sans-serif" font-size="12" lengthAdjust="spacingAndGlyphs" textLength="92" x="944.25" y="500.2344">HTMLDiffDialect</text><line style="stroke: #A80036; stroke-width: 1.5;" x1="855.5" x2="1092.5" y1="511.6992" y2="511.6992"/><line style="stroke: #A80036; stroke-width: 1.5;" x1="855.5" x2="1092.5" y1="519.6992" y2="519.6992"/><ellipse cx="865.5" cy="530.6992" fill="#84BE84" rx="3" ry="3" style="stroke: #038048; stroke-width: 1.0;"/><text fill="#000000" font-family="sans-serif" font-size="11" lengthAdjust="spacingAndGlyphs" textLength="79" x="874.5" y="534.334">__enter__(self)</text><ellipse cx="865.5" cy="543.6543" fill="#84BE84" rx="3" ry="3" style="stroke: #038048; stroke-width: 1.0;"/><text fill="#000000" font-family="sans-serif" font-size="11" lengthAdjust="spacingAndGlyphs" textLength="213" x="874.5" y="547.2891">__exit__(self, exc_type, exc_val, exc_tb)</text><ellipse cx="865.5" cy="556.6094" fill="#84BE84" rx="3" ry="3" style="stroke: #038048; stroke-width: 1.0;"/><text fill="#000000" font-family="sans-serif" font-size="11" lengthAdjust="spacingAndGlyphs" textLength="68" x="874.5" y="560.2441">__init__(self)</text><ellipse cx="865.5" cy="569.5645" fill="#84BE84" rx="3" ry="3" style="stroke: #038048; stroke-width: 1.0;"/><text fill="#000000" font-family="sans-serif" font-size="11" lengthAdjust="spacingAndGlyphs" textLength="63" x="874.5" y="573.1992">output(self)</text><ellipse cx="865.5" cy="582.5195" fill="#84BE84" rx="3" ry="3" style="stroke: #038048; stroke-width: 1.0;"/><text fill="#000000" font-family="sans-serif" font-size="11" lengthAdjust="spacingAndGlyphs" textLength="96" x="874.5" y="586.1543">preprocessor(txt)</text></a><!--MD5=[ad5da66f3bbb9ef0c526548f556f562e]
class benchmarkstt.diff.formatter.JSONDiffDialect--><a href="https://benchmarkstt.readthedocs.io/en/latest/modules/benchmarkstt.diff.formatter.html#benchmarkstt.diff.formatter.JSONDiffDialect" target="_top" title="https://benchmarkstt.readthedocs.io/en/latest/modules/benchmarkstt.diff.formatter.html#benchmarkstt.diff.formatter.JSONDiffDialect" xlink:actuate="onRequest" xlink:href="https://benchmarkstt.readthedocs.io/en/latest/modules/benchmarkstt.diff.formatter.html#benchmarkstt.diff.formatter.JSONDiffDialect" xlink:show="new" xlink:title="https://benchmarkstt.readthedocs.io/en/latest/modules/benchmarkstt.diff.formatter.html#benchmarkstt.diff.formatter.JSONDiffDialect" xlink:type="simple"><rect fill="#FEFECE" filter="url(#f1is959o0gdyku)" height="177.5508" id="benchmarkstt.diff.formatter.JSONDiffDialect" style="stroke: #A80036; stroke-width: 1.5;" width="239" x="518.5" y="74.6992"/><ellipse cx="590.25" cy="90.6992" fill="#ADD1B2" rx="11" ry="11" style="stroke: #A80036; stroke-width: 1.0;"/><path d="M592.7231,96.8423 Q592.1421,97.1411 591.5029,97.2905 Q590.8638,97.4399 590.1582,97.4399 Q587.6514,97.4399 586.3315,95.7881 Q585.0117,94.1362 585.0117,91.0151 Q585.0117,87.8857 586.3315,86.2339 Q587.6514,84.582 590.1582,84.582 Q590.8638,84.582 591.5112,84.7314 Q592.1587,84.8809 592.7231,85.1797 L592.7231,87.9023 Q592.0923,87.3213 591.4988,87.0515 Q590.9053,86.7817 590.2744,86.7817 Q588.9297,86.7817 588.2449,87.8484 Q587.5601,88.915 587.5601,91.0151 Q587.5601,93.1069 588.2449,94.1736 Q588.9297,95.2402 590.2744,95.2402 Q590.9053,95.2402 591.4988,94.9705 Q592.0923,94.7007 592.7231,94.1196 Z "/><text fill="#000000" font-family="sans-serif" font-size="12" lengthAdjust="spacingAndGlyphs" textLength="87" x="610.75" y="95.2344">JSONDiffDialect</text><line style="stroke: #A80036; stroke-width: 1.5;" x1="519.5" x2="756.5" y1="106.6992" y2="106.6992"/><line style="stroke: #A80036; stroke-width: 1.5;" x1="519.5" x2="756.5" y1="114.6992" y2="114.6992"/><ellipse cx="529.5" cy="125.6992" fill="#84BE84" rx="3" ry="3" style="stroke: #038048; stroke-width: 1.0;"/><text fill="#000000" font-family="sans-serif" font-size="11" lengthAdjust="spacingAndGlyphs" textLength="79" x="538.5" y="129.334">__enter__(self)</text><ellipse cx="529.5" cy="138.6543" fill="#84BE84" rx="3" ry="3" style="stroke: #038048; stroke-width: 1.0;"/><text fill="#000000" font-family="sans-serif" font-size="11" lengthAdjust="spacingAndGlyphs" textLength="213" x="538.5" y="142.2891">__exit__(self, exc_type, exc_val, exc_tb)</text><ellipse cx="529.5" cy="151.6094" fill="#84BE84" rx="3" ry="3" style="stroke: #038048; stroke-width: 1.0;"/><text fill="#000000" font-family="sans-serif" font-size="11" lengthAdjust="spacingAndGlyphs" textLength="68" x="538.5" y="155.2441">__init__(self)</text><ellipse cx="529.5" cy="164.5645" fill="#84BE84" rx="3" ry="3" style="stroke: #038048; stroke-width: 1.0;"/><text fill="#000000" font-family="sans-serif" font-size="11" lengthAdjust="spacingAndGlyphs" textLength="184" x="538.5" y="168.1992">_format(self, kind, txt, txt2=None)</text><ellipse cx="529.5" cy="177.5195" fill="#84BE84" rx="3" ry="3" style="stroke: #038048; stroke-width: 1.0;"/><text fill="#000000" font-family="sans-serif" font-size="11" lengthAdjust="spacingAndGlyphs" textLength="122" x="538.5" y="181.1543">delete_format(self, txt)</text><ellipse cx="529.5" cy="190.4746" fill="#84BE84" rx="3" ry="3" style="stroke: #038048; stroke-width: 1.0;"/><text fill="#000000" font-family="sans-serif" font-size="11" lengthAdjust="spacingAndGlyphs" textLength="119" x="538.5" y="194.1094">equal_format(self, txt)</text><ellipse cx="529.5" cy="203.4297" fill="#84BE84" rx="3" ry="3" style="stroke: #038048; stroke-width: 1.0;"/><text fill="#000000" font-family="sans-serif" font-size="11" lengthAdjust="spacingAndGlyphs" textLength="121" x="538.5" y="207.0645">insert_format(self, txt)</text><ellipse cx="529.5" cy="216.3848" fill="#84BE84" rx="3" ry="3" style="stroke: #038048; stroke-width: 1.0;"/><text fill="#000000" font-family="sans-serif" font-size="11" lengthAdjust="spacingAndGlyphs" textLength="63" x="538.5" y="220.0195">output(self)</text><ellipse cx="529.5" cy="229.3398" fill="#84BE84" rx="3" ry="3" style="stroke: #038048; stroke-width: 1.0;"/><text fill="#000000" font-family="sans-serif" font-size="11" lengthAdjust="spacingAndGlyphs" textLength="96" x="538.5" y="232.9746">preprocessor(txt)</text><ellipse cx="529.5" cy="242.2949" fill="#84BE84" rx="3" ry="3" style="stroke: #038048; stroke-width: 1.0;"/><text fill="#000000" font-family="sans-serif" font-size="11" lengthAdjust="spacingAndGlyphs" textLength="133" x="538.5" y="245.9297">replace_format(self, a, b)</text></a><!--MD5=[6cf5df66c86567a6b2395a7b84882531]
class benchmarkstt.diff.formatter.ListDialect--><a href="https://benchmarkstt.readthedocs.io/en/latest/modules/benchmarkstt.diff.formatter.html#benchmarkstt.diff.formatter.ListDialect" target="_top" title="https://benchmarkstt.readthedocs.io/en/latest/modules/benchmarkstt.diff.formatter.html#benchmarkstt.diff.formatter.ListDialect" xlink:actuate="onRequest" xlink:href="https://benchmarkstt.readthedocs.io/en/latest/modules/benchmarkstt.diff.formatter.html#benchmarkstt.diff.formatter.ListDialect" xlink:show="new" xlink:title="https://benchmarkstt.readthedocs.io/en/latest/modules/benchmarkstt.diff.formatter.html#benchmarkstt.diff.formatter.ListDialect" xlink:type="simple"><rect fill="#FEFECE" filter="url(#f1is959o0gdyku)" height="177.5508" id="benchmarkstt.diff.formatter.ListDialect" style="stroke: #A80036; stroke-width: 1.5;" width="239" x="580.5" y="447.1992"/><ellipse cx="666.75" cy="463.1992" fill="#ADD1B2" rx="11" ry="11" style="stroke: #A80036; stroke-width: 1.0;"/><path d="M669.2231,469.3423 Q668.6421,469.6411 668.0029,469.7905 Q667.3638,469.9399 666.6582,469.9399 Q664.1514,469.9399 662.8315,468.2881 Q661.5117,466.6362 661.5117,463.5151 Q661.5117,460.3857 662.8315,458.7339 Q664.1514,457.082 666.6582,457.082 Q667.3638,457.082 668.0112,457.2314 Q668.6587,457.3809 669.2231,457.6797 L669.2231,460.4023 Q668.5923,459.8213 667.9988,459.5515 Q667.4053,459.2817 666.7744,459.2817 Q665.4297,459.2817 664.7449,460.3484 Q664.0601,461.415 664.0601,463.5151 Q664.0601,465.6069 664.7449,466.6736 Q665.4297,467.7402 666.7744,467.7402 Q667.4053,467.7402 667.9988,467.4705 Q668.5923,467.2007 669.2231,466.6196 Z "/><text fill="#000000" font-family="sans-serif" font-size="12" lengthAdjust="spacingAndGlyphs" textLength="58" x="687.25" y="467.7344">ListDialect</text><line style="stroke: #A80036; stroke-width: 1.5;" x1="581.5" x2="818.5" y1="479.1992" y2="479.1992"/><line style="stroke: #A80036; stroke-width: 1.5;" x1="581.5" x2="818.5" y1="487.1992" y2="487.1992"/><ellipse cx="591.5" cy="498.1992" fill="#84BE84" rx="3" ry="3" style="stroke: #038048; stroke-width: 1.0;"/><text fill="#000000" font-family="sans-serif" font-size="11" lengthAdjust="spacingAndGlyphs" textLength="79" x="600.5" y="501.834">__enter__(self)</text><ellipse cx="591.5" cy="511.1543" fill="#84BE84" rx="3" ry="3" style="stroke: #038048; stroke-width: 1.0;"/><text fill="#000000" font-family="sans-serif" font-size="11" lengthAdjust="spacingAndGlyphs" textLength="213" x="600.5" y="514.7891">__exit__(self, exc_type, exc_val, exc_tb)</text><ellipse cx="591.5" cy="524.1094" fill="#84BE84" rx="3" ry="3" style="stroke: #038048; stroke-width: 1.0;"/><text fill="#000000" font-family="sans-serif" font-size="11" lengthAdjust="spacingAndGlyphs" textLength="68" x="600.5" y="527.7441">__init__(self)</text><ellipse cx="591.5" cy="537.0645" fill="#84BE84" rx="3" ry="3" style="stroke: #038048; stroke-width: 1.0;"/><text fill="#000000" font-family="sans-serif" font-size="11" lengthAdjust="spacingAndGlyphs" textLength="184" x="600.5" y="540.6992">_format(self, kind, txt, txt2=None)</text><ellipse cx="591.5" cy="550.0195" fill="#84BE84" rx="3" ry="3" style="stroke: #038048; stroke-width: 1.0;"/><text fill="#000000" font-family="sans-serif" font-size="11" lengthAdjust="spacingAndGlyphs" textLength="122" x="600.5" y="553.6543">delete_format(self, txt)</text><ellipse cx="591.5" cy="562.9746" fill="#84BE84" rx="3" ry="3" style="stroke: #038048; stroke-width: 1.0;"/><text fill="#000000" font-family="sans-serif" font-size="11" lengthAdjust="spacingAndGlyphs" textLength="119" x="600.5" y="566.6094">equal_format(self, txt)</text><ellipse cx="591.5" cy="575.9297" fill="#84BE84" rx="3" ry="3" style="stroke: #038048; stroke-width: 1.0;"/><text fill="#000000" font-family="sans-serif" font-size="11" lengthAdjust="spacingAndGlyphs" textLength="121" x="600.5" y="579.5645">insert_format(self, txt)</text><ellipse cx="591.5" cy="588.8848" fill="#84BE84" rx="3" ry="3" style="stroke: #038048; stroke-width: 1.0;"/><text fill="#000000" font-family="sans-serif" font-size="11" lengthAdjust="spacingAndGlyphs" textLength="63" x="600.5" y="592.5195">output(self)</text><ellipse cx="591.5" cy="601.8398" fill="#84BE84" rx="3" ry="3" style="stroke: #038048; stroke-width: 1.0;"/><text fill="#000000" font-family="sans-serif" font-size="11" lengthAdjust="spacingAndGlyphs" textLength="96" x="600.5" y="605.4746">preprocessor(txt)</text><ellipse cx="591.5" cy="614.7949" fill="#84BE84" rx="3" ry="3" style="stroke: #038048; stroke-width: 1.0;"/><text fill="#000000" font-family="sans-serif" font-size="11" lengthAdjust="spacingAndGlyphs" textLength="133" x="600.5" y="618.4297">replace_format(self, a, b)</text></a><!--MD5=[b5a1150753ccdd8cb32cc363de6d4f06]
class benchmarkstt.diff.formatter.RestructuredTextDialect--><a href="https://benchmarkstt.readthedocs.io/en/latest/modules/benchmarkstt.diff.formatter.html#benchmarkstt.diff.formatter.RestructuredTextDialect" target="_top" title="https://benchmarkstt.readthedocs.io/en/latest/modules/benchmarkstt.diff.formatter.html#benchmarkstt.diff.formatter.RestructuredTextDialect" xlink:actuate="onRequest" xlink:href="https://benchmarkstt.readthedocs.io/en/latest/modules/benchmarkstt.diff.formatter.html#benchmarkstt.diff.formatter.RestructuredTextDialect" xlink:show="new" xlink:title="https://benchmarkstt.readthedocs.io/en/latest/modules/benchmarkstt.diff.formatter.html#benchmarkstt.diff.formatter.RestructuredTextDialect" xlink:type="simple"><rect fill="#FEFECE" filter="url(#f1is959o0gdyku)" height="112.7754" id="benchmarkstt.diff.formatter.RestructuredTextDialect" style="stroke: #A80036; stroke-width: 1.5;" width="239" x="244.5" y="107.1992"/><ellipse cx="290.25" cy="123.1992" fill="#ADD1B2" rx="11" ry="11" style="stroke: #A80036; stroke-width: 1.0;"/><path d="M292.7231,129.3423 Q292.1421,129.6411 291.5029,129.7905 Q290.8638,129.9399 290.1582,129.9399 Q287.6514,129.9399 286.3315,128.2881 Q285.0117,126.6362 285.0117,123.5151 Q285.0117,120.3857 286.3315,118.7339 Q287.6514,117.082 290.1582,117.082 Q290.8638,117.082 291.5112,117.2314 Q292.1587,117.3809 292.7231,117.6797 L292.7231,120.4023 Q292.0923,119.8213 291.4988,119.5515 Q290.9053,119.2817 290.2744,119.2817 Q288.9297,119.2817 288.2449,120.3484 Q287.5601,121.415 287.5601,123.5151 Q287.5601,125.6069 288.2449,126.6736 Q288.9297,127.7402 290.2744,127.7402 Q290.9053,127.7402 291.4988,127.4705 Q292.0923,127.2007 292.7231,126.6196 Z "/><text fill="#000000" font-family="sans-serif" font-size="12" lengthAdjust="spacingAndGlyphs" textLength="139" x="310.75" y="127.7344">RestructuredTextDialect</text><line style="stroke: #A80036; stroke-width: 1.5;" x1="245.5" x2="482.5" y1="139.1992" y2="139.1992"/><line style="stroke: #A80036; stroke-width: 1.5;" x1="245.5" x2="482.5" y1="147.1992" y2="147.1992"/><ellipse cx="255.5" cy="158.1992" fill="#84BE84" rx="3" ry="3" style="stroke: #038048; stroke-width: 1.0;"/><text fill="#000000" font-family="sans-serif" font-size="11" lengthAdjust="spacingAndGlyphs" textLength="79" x="264.5" y="161.834">__enter__(self)</text><ellipse cx="255.5" cy="171.1543" fill="#84BE84" rx="3" ry="3" style="stroke: #038048; stroke-width: 1.0;"/><text fill="#000000" font-family="sans-serif" font-size="11" lengthAdjust="spacingAndGlyphs" textLength="213" x="264.5" y="174.7891">__exit__(self, exc_type, exc_val, exc_tb)</text><ellipse cx="255.5" cy="184.1094" fill="#84BE84" rx="3" ry="3" style="stroke: #038048; stroke-width: 1.0;"/><text fill="#000000" font-family="sans-serif" font-size="11" lengthAdjust="spacingAndGlyphs" textLength="197" x="264.5" y="187.7441">__init__(self, show_color_key=None)</text><ellipse cx="255.5" cy="197.0645" fill="#84BE84" rx="3" ry="3" style="stroke: #038048; stroke-width: 1.0;"/><text fill="#000000" font-family="sans-serif" font-size="11" lengthAdjust="spacingAndGlyphs" textLength="63" x="264.5" y="200.6992">output(self)</text><ellipse cx="255.5" cy="210.0195" fill="#84BE84" rx="3" ry="3" style="stroke: #038048; stroke-width: 1.0;"/><text fill="#000000" font-family="sans-serif" font-size="11" lengthAdjust="spacingAndGlyphs" textLength="96" x="264.5" y="213.6543">preprocessor(txt)</text></a><!--MD5=[e0d2253a58427e0d1251f683d337a24a]
class benchmarkstt.diff.formatter.UTF8Dialect--><a href="https://benchmarkstt.readthedocs.io/en/latest/modules/benchmarkstt.diff.formatter.html#benchmarkstt.diff.formatter.UTF8Dialect" target="_top" title="https://benchmarkstt.readthedocs.io/en/latest/modules/benchmarkstt.diff.formatter.html#benchmarkstt.diff.formatter.UTF8Dialect" xlink:actuate="onRequest" xlink:href="https://benchmarkstt.readthedocs.io/en/latest/modules/benchmarkstt.diff.formatter.html#benchmarkstt.diff.formatter.UTF8Dialect" xlink:show="new" xlink:title="https://benchmarkstt.readthedocs.io/en/latest/modules/benchmarkstt.diff.formatter.html#benchmarkstt.diff.formatter.UTF8Dialect" xlink:type="simple"><rect fill="#FEFECE" filter="url(#f1is959o0gdyku)" height="138.6855" id="benchmarkstt.diff.formatter.UTF8Dialect" style="stroke: #A80036; stroke-width: 1.5;" width="239" x="32.5" y="466.6992"/><ellipse cx="113.25" cy="482.6992" fill="#ADD1B2" rx="11" ry="11" style="stroke: #A80036; stroke-width: 1.0;"/><path d="M115.7231,488.8423 Q115.1421,489.1411 114.5029,489.2905 Q113.8638,489.4399 113.1582,489.4399 Q110.6514,489.4399 109.3315,487.7881 Q108.0117,486.1362 108.0117,483.0151 Q108.0117,479.8857 109.3315,478.2339 Q110.6514,476.582 113.1582,476.582 Q113.8638,476.582 114.5112,476.7314 Q115.1587,476.8809 115.7231,477.1797 L115.7231,479.9023 Q115.0923,479.3213 114.4988,479.0515 Q113.9053,478.7817 113.2744,478.7817 Q111.9297,478.7817 111.2449,479.8484 Q110.5601,480.915 110.5601,483.0151 Q110.5601,485.1069 111.2449,486.1736 Q111.9297,487.2402 113.2744,487.2402 Q113.9053,487.2402 114.4988,486.9705 Q115.0923,486.7007 115.7231,486.1196 Z "/><text fill="#000000" font-family="sans-serif" font-size="12" lengthAdjust="spacingAndGlyphs" textLength="69" x="133.75" y="487.2344">UTF8Dialect</text><line style="stroke: #A80036; stroke-width: 1.5;" x1="33.5" x2="270.5" y1="498.6992" y2="498.6992"/><line style="stroke: #A80036; stroke-width: 1.5;" x1="33.5" x2="270.5" y1="506.6992" y2="506.6992"/><ellipse cx="43.5" cy="517.6992" fill="#84BE84" rx="3" ry="3" style="stroke: #038048; stroke-width: 1.0;"/><text fill="#000000" font-family="sans-serif" font-size="11" lengthAdjust="spacingAndGlyphs" textLength="79" x="52.5" y="521.334">__enter__(self)</text><ellipse cx="43.5" cy="530.6543" fill="#84BE84" rx="3" ry="3" style="stroke: #038048; stroke-width: 1.0;"/><text fill="#000000" font-family="sans-serif" font-size="11" lengthAdjust="spacingAndGlyphs" textLength="213" x="52.5" y="534.2891">__exit__(self, exc_type, exc_val, exc_tb)</text><ellipse cx="43.5" cy="543.6094" fill="#84BE84" rx="3" ry="3" style="stroke: #038048; stroke-width: 1.0;"/><text fill="#000000" font-family="sans-serif" font-size="11" lengthAdjust="spacingAndGlyphs" textLength="68" x="52.5" y="547.2441">__init__(self)</text><ellipse cx="43.5" cy="556.5645" fill="#84BE84" rx="3" ry="3" style="stroke: #038048; stroke-width: 1.0;"/><text fill="#000000" font-family="sans-serif" font-size="11" lengthAdjust="spacingAndGlyphs" textLength="122" x="52.5" y="560.1992">delete_format(self, txt)</text><ellipse cx="43.5" cy="569.5195" fill="#84BE84" rx="3" ry="3" style="stroke: #038048; stroke-width: 1.0;"/><text fill="#000000" font-family="sans-serif" font-size="11" lengthAdjust="spacingAndGlyphs" textLength="121" x="52.5" y="573.1543">insert_format(self, txt)</text><ellipse cx="43.5" cy="582.4746" fill="#84BE84" rx="3" ry="3" style="stroke: #038048; stroke-width: 1.0;"/><text fill="#000000" font-family="sans-serif" font-size="11" lengthAdjust="spacingAndGlyphs" textLength="63" x="52.5" y="586.1094">output(self)</text><ellipse cx="43.5" cy="595.4297" fill="#84BE84" rx="3" ry="3" style="stroke: #038048; stroke-width: 1.0;"/><text fill="#000000" font-family="sans-serif" font-size="11" lengthAdjust="spacingAndGlyphs" textLength="96" x="52.5" y="599.0645">preprocessor(txt)</text></a><!--MD5=[6aa6ae3a879840a73b19fd2777afca9b]
class benchmarkstt.diff.Base--><a href="https://benchmarkstt.readthedocs.io/en/latest/modules/benchmarkstt.diff.html#benchmarkstt.diff.Base" target="_top" title="https://benchmarkstt.readthedocs.io/en/latest/modules/benchmarkstt.diff.html#benchmarkstt.diff.Base" xlink:actuate="onRequest" xlink:href="https://benchmarkstt.readthedocs.io/en/latest/modules/benchmarkstt.diff.html#benchmarkstt.diff.Base" xlink:show="new" xlink:title="https://benchmarkstt.readthedocs.io/en/latest/modules/benchmarkstt.diff.html#benchmarkstt.diff.Base" xlink:type="simple"><rect fill="#FEFECE" filter="url(#f1is959o0gdyku)" height="73.9102" id="benchmarkstt.diff.Base" style="stroke: #A80036; stroke-width: 1.5;" width="149" x="1200.5" y="499.1992"/><ellipse cx="1257.25" cy="515.1992" fill="#ADD1B2" rx="11" ry="11" style="stroke: #A80036; stroke-width: 1.0;"/><path d="M1259.7231,521.3423 Q1259.1421,521.6411 1258.5029,521.7905 Q1257.8638,521.9399 1257.1582,521.9399 Q1254.6514,521.9399 1253.3315,520.2881 Q1252.0117,518.6362 1252.0117,515.5151 Q1252.0117,512.3857 1253.3315,510.7339 Q1254.6514,509.082 1257.1582,509.082 Q1257.8638,509.082 1258.5112,509.2314 Q1259.1587,509.3809 1259.7231,509.6797 L1259.7231,512.4023 Q1259.0923,511.8213 1258.4988,511.5515 Q1257.9053,511.2817 1257.2744,511.2817 Q1255.9297,511.2817 1255.2449,512.3484 Q1254.5601,513.415 1254.5601,515.5151 Q1254.5601,517.6069 1255.2449,518.6736 Q1255.9297,519.7402 1257.2744,519.7402 Q1257.9053,519.7402 1258.4988,519.4705 Q1259.0923,519.2007 1259.7231,518.6196 Z "/><text fill="#000000" font-family="sans-serif" font-size="12" lengthAdjust="spacingAndGlyphs" textLength="27" x="1277.75" y="519.7344">Base</text><line style="stroke: #A80036; stroke-width: 1.5;" x1="1201.5" x2="1348.5" y1="531.1992" y2="531.1992"/><line style="stroke: #A80036; stroke-width: 1.5;" x1="1201.5" x2="1348.5" y1="539.1992" y2="539.1992"/><ellipse cx="1211.5" cy="550.1992" fill="#84BE84" rx="3" ry="3" style="stroke: #038048; stroke-width: 1.0;"/><text fill="#000000" font-family="sans-serif" font-size="11" lengthAdjust="spacingAndGlyphs" textLength="123" x="1220.5" y="553.834">__init__(self, a='', b='')</text><ellipse cx="1211.5" cy="563.1543" fill="#84BE84" rx="3" ry="3" style="stroke: #038048; stroke-width: 1.0;"/><text fill="#000000" font-family="sans-serif" font-size="11" lengthAdjust="spacingAndGlyphs" textLength="96" x="1220.5" y="566.7891">get_opcodes(self)</text></a><!--MD5=[5eef32e9538f5dcdb68c61d368837619]
class benchmarkstt.diff.core.RatcliffObershelp--><a href="https://benchmarkstt.readthedocs.io/en/latest/modules/benchmarkstt.diff.core.html#benchmarkstt.diff.core.RatcliffObershelp" target="_top" title="https://benchmarkstt.readthedocs.io/en/latest/modules/benchmarkstt.diff.core.html#benchmarkstt.diff.core.RatcliffObershelp" xlink:actuate="onRequest" xlink:href="https://benchmarkstt.readthedocs.io/en/latest/modules/benchmarkstt.diff.core.html#benchmarkstt.diff.core.RatcliffObershelp" xlink:show="new" xlink:title="https://benchmarkstt.readthedocs.io/en/latest/modules/benchmarkstt.diff.core.html#benchmarkstt.diff.core.RatcliffObershelp" xlink:type="simple"><rect fill="#FEFECE" filter="url(#f1is959o0gdyku)" height="203.4609" id="benchmarkstt.diff.core.RatcliffObershelp" style="stroke: #A80036; stroke-width: 1.5;" width="249" x="1150.5" y="62.1992"/><ellipse cx="1221.25" cy="78.1992" fill="#ADD1B2" rx="11" ry="11" style="stroke: #A80036; stroke-width: 1.0;"/><path d="M1223.7231,84.3423 Q1223.1421,84.6411 1222.5029,84.7905 Q1221.8638,84.9399 1221.1582,84.9399 Q1218.6514,84.9399 1217.3315,83.2881 Q1216.0117,81.6362 1216.0117,78.5151 Q1216.0117,75.3857 1217.3315,73.7339 Q1218.6514,72.082 1221.1582,72.082 Q1221.8638,72.082 1222.5112,72.2314 Q1223.1587,72.3809 1223.7231,72.6797 L1223.7231,75.4023 Q1223.0923,74.8213 1222.4988,74.5515 Q1221.9053,74.2817 1221.2744,74.2817 Q1219.9297,74.2817 1219.2449,75.3484 Q1218.5601,76.415 1218.5601,78.5151 Q1218.5601,80.6069 1219.2449,81.6736 Q1219.9297,82.7402 1221.2744,82.7402 Q1221.9053,82.7402 1222.4988,82.4705 Q1223.0923,82.2007 1223.7231,81.6196 Z "/><text fill="#000000" font-family="sans-serif" font-size="12" lengthAdjust="spacingAndGlyphs" textLength="99" x="1241.75" y="82.7344">RatcliffObershelp</text><line style="stroke: #A80036; stroke-width: 1.5;" x1="1151.5" x2="1398.5" y1="94.1992" y2="94.1992"/><line style="stroke: #A80036; stroke-width: 1.5;" x1="1151.5" x2="1398.5" y1="102.1992" y2="102.1992"/><ellipse cx="1161.5" cy="113.1992" fill="#84BE84" rx="3" ry="3" style="stroke: #038048; stroke-width: 1.0;"/><text fill="#000000" font-family="sans-serif" font-size="11" lengthAdjust="spacingAndGlyphs" textLength="181" x="1170.5" y="116.834">_SequenceMatcher__chain_b(self)</text><ellipse cx="1161.5" cy="126.1543" fill="#84BE84" rx="3" ry="3" style="stroke: #038048; stroke-width: 1.0;"/><text fill="#000000" font-family="sans-serif" font-size="11" lengthAdjust="spacingAndGlyphs" textLength="182" x="1170.5" y="129.7891">__init__(self, a, b, *args, **kwargs)</text><ellipse cx="1161.5" cy="139.1094" fill="#84BE84" rx="3" ry="3" style="stroke: #038048; stroke-width: 1.0;"/><text fill="#000000" font-family="sans-serif" font-size="11" lengthAdjust="spacingAndGlyphs" textLength="223" x="1170.5" y="142.7441">find_longest_match(self, alo, ahi, blo, bhi)</text><ellipse cx="1161.5" cy="152.0645" fill="#84BE84" rx="3" ry="3" style="stroke: #038048; stroke-width: 1.0;"/><text fill="#000000" font-family="sans-serif" font-size="11" lengthAdjust="spacingAndGlyphs" textLength="177" x="1170.5" y="155.6992">get_grouped_opcodes(self, n=3)</text><ellipse cx="1161.5" cy="165.0195" fill="#84BE84" rx="3" ry="3" style="stroke: #038048; stroke-width: 1.0;"/><text fill="#000000" font-family="sans-serif" font-size="11" lengthAdjust="spacingAndGlyphs" textLength="141" x="1170.5" y="168.6543">get_matching_blocks(self)</text><ellipse cx="1161.5" cy="177.9746" fill="#84BE84" rx="3" ry="3" style="stroke: #038048; stroke-width: 1.0;"/><text fill="#000000" font-family="sans-serif" font-size="11" lengthAdjust="spacingAndGlyphs" textLength="96" x="1170.5" y="181.6094">get_opcodes(self)</text><ellipse cx="1161.5" cy="190.9297" fill="#84BE84" rx="3" ry="3" style="stroke: #038048; stroke-width: 1.0;"/><text fill="#000000" font-family="sans-serif" font-size="11" lengthAdjust="spacingAndGlyphs" textLength="87" x="1170.5" y="194.5645">quick_ratio(self)</text><ellipse cx="1161.5" cy="203.8848" fill="#84BE84" rx="3" ry="3" style="stroke: #038048; stroke-width: 1.0;"/><text fill="#000000" font-family="sans-serif" font-size="11" lengthAdjust="spacingAndGlyphs" textLength="52" x="1170.5" y="207.5195">ratio(self)</text><ellipse cx="1161.5" cy="216.8398" fill="#84BE84" rx="3" ry="3" style="stroke: #038048; stroke-width: 1.0;"/><text fill="#000000" font-family="sans-serif" font-size="11" lengthAdjust="spacingAndGlyphs" textLength="113" x="1170.5" y="220.4746">real_quick_ratio(self)</text><ellipse cx="1161.5" cy="229.7949" fill="#84BE84" rx="3" ry="3" style="stroke: #038048; stroke-width: 1.0;"/><text fill="#000000" font-family="sans-serif" font-size="11" lengthAdjust="spacingAndGlyphs" textLength="87" x="1170.5" y="233.4297">set_seq1(self, a)</text><ellipse cx="1161.5" cy="242.75" fill="#84BE84" rx="3" ry="3" style="stroke: #038048; stroke-width: 1.0;"/><text fill="#000000" font-family="sans-serif" font-size="11" lengthAdjust="spacingAndGlyphs" textLength="88" x="1170.5" y="246.3848">set_seq2(self, b)</text><ellipse cx="1161.5" cy="255.7051" fill="#84BE84" rx="3" ry="3" style="stroke: #038048; stroke-width: 1.0;"/><text fill="#000000" font-family="sans-serif" font-size="11" lengthAdjust="spacingAndGlyphs" textLength="99" x="1170.5" y="259.3398">set_seqs(self, a, b)</text></a><!--MD5=[8c0038c7b5cc45af9ec7d11691f35db4]
link benchmarkstt.diff.formatter.CLIDiffDialect to benchmarkstt.diff.formatter.Dialect--><path d="M449.86,592.7692 C473.21,647.1292 508.82,730.0392 533.83,788.2892 " fill="none" id="benchmarkstt.diff.formatter.CLIDiffDialect-&gt;benchmarkstt.diff.formatter.Dialect" style="stroke: #A80036; stroke-width: 1.0;"/><polygon fill="none" points="540.42,785.8792,541.88,807.0192,527.56,791.4092,540.42,785.8792" style="stroke: #A80036; stroke-width: 1.0;"/><!--MD5=[97e56d9b6c0daad5b4b11075d0632d03]
link benchmarkstt.diff.formatter.HTMLDiffDialect to benchmarkstt.diff.formatter.Dialect--><path d="M902.41,592.7692 C829.77,649.1392 717.6,736.1992 642.31,794.6392 " fill="none" id="benchmarkstt.diff.formatter.HTMLDiffDialect-&gt;benchmarkstt.diff.formatter.Dialect" style="stroke: #A80036; stroke-width: 1.0;"/><polygon fill="none" points="646.45,800.2892,626.36,807.0192,637.87,789.2292,646.45,800.2892" style="stroke: #A80036; stroke-width: 1.0;"/><!--MD5=[536180058dc76f2aae1b121efd265944]
link benchmarkstt.diff.formatter.JSONDiffDialect to benchmarkstt.diff.formatter.ListDialect--><path d="M652.77,252.9692 C661.51,305.1992 672.65,371.7592 681.91,427.1192 " fill="none" id="benchmarkstt.diff.formatter.JSONDiffDialect-&gt;benchmarkstt.diff.formatter.ListDialect" style="stroke: #A80036; stroke-width: 1.0;"/><polygon fill="none" points="688.84,426.0792,685.23,446.9592,675.03,428.3892,688.84,426.0792" style="stroke: #A80036; stroke-width: 1.0;"/><!--MD5=[6a55309ecbe870a06b9e8139856f846a]
link benchmarkstt.diff.formatter.ListDialect to benchmarkstt.diff.formatter.Dialect--><path d="M662.2,625.2092 C640.07,676.7592 612.54,740.8592 592.1,788.4492 " fill="none" id="benchmarkstt.diff.formatter.ListDialect-&gt;benchmarkstt.diff.formatter.Dialect" style="stroke: #A80036; stroke-width: 1.0;"/><polygon fill="none" points="598.41,791.4892,584.09,807.0992,585.55,785.9592,598.41,791.4892" style="stroke: #A80036; stroke-width: 1.0;"/><!--MD5=[e0ba355ea5b26e19f4c773a1dd5e603a]
link benchmarkstt.diff.formatter.RestructuredTextDialect to benchmarkstt.diff.formatter.CLIDiffDialect--><path d="M373.35,220.5692 C384,284.2292 401.47,388.6092 413.34,459.5292 " fill="none" id="benchmarkstt.diff.formatter.RestructuredTextDialect-&gt;benchmarkstt.diff.formatter.CLIDiffDialect" style="stroke: #A80036; stroke-width: 1.0;"/><polygon fill="none" points="420.28,458.5992,416.68,479.4792,406.47,460.9092,420.28,458.5992" style="stroke: #A80036; stroke-width: 1.0;"/><!--MD5=[4abfa3ef7f8c405845464e649984d184]
link benchmarkstt.diff.formatter.UTF8Dialect to benchmarkstt.diff.formatter.Dialect--><path d="M240.42,605.8292 C312.72,661.9392 414.02,740.5692 483.72,794.6692 " fill="none" id="benchmarkstt.diff.formatter.UTF8Dialect-&gt;benchmarkstt.diff.formatter.Dialect" style="stroke: #A80036; stroke-width: 1.0;"/><polygon fill="none" points="488.33,789.3892,499.84,807.1792,479.75,800.4492,488.33,789.3892" style="stroke: #A80036; stroke-width: 1.0;"/><!--MD5=[e5fe7389425e8fa15ace28d51ff92339]
link benchmarkstt.diff.core.RatcliffObershelp to benchmarkstt.diff.Base--><path d="M1275,265.4492 C1275,334.0392 1275,422.3092 1275,478.8292 " fill="none" id="benchmarkstt.diff.core.RatcliffObershelp-&gt;benchmarkstt.diff.Base" style="stroke: #A80036; stroke-width: 1.0;"/><polygon fill="none" points="1282,478.8392,1275,498.8392,1268,478.8392,1282,478.8392" style="stroke: #A80036; stroke-width: 1.0;"/><!--MD5=[58e2a0d45f169e9d7ca750ea4d55ae6b]
@startuml
title Benchmarkstt.diff


class benchmarkstt.diff.formatter.CLIDiffDialect [[https://benchmarkstt.readthedocs.io/en/latest/modules/benchmarkstt.diff.formatter.html#benchmarkstt.diff.formatter.CLIDiffDialect]] {
	+__enter__(self)
	+__exit__(self, exc_type, exc_val, exc_tb)
	+__init__(self, show_color_key=None)
	+output(self)
	+preprocessor(txt)
}

class benchmarkstt.diff.formatter.Dialect [[https://benchmarkstt.readthedocs.io/en/latest/modules/benchmarkstt.diff.formatter.html#benchmarkstt.diff.formatter.Dialect]] {
	+__enter__(self)
	+__exit__(self, exc_type, exc_val, exc_tb)
	+__init__(self)
	+output(self)
}

class benchmarkstt.diff.formatter.DiffFormatter [[https://benchmarkstt.readthedocs.io/en/latest/modules/benchmarkstt.diff.formatter.html#benchmarkstt.diff.formatter.DiffFormatter]] {
	+__init__(self, dialect=None, *args, **kwargs)
	+diff(self, a, b, opcodes=None, preprocessor=None)
}

class benchmarkstt.diff.formatter.HTMLDiffDialect [[https://benchmarkstt.readthedocs.io/en/latest/modules/benchmarkstt.diff.formatter.html#benchmarkstt.diff.formatter.HTMLDiffDialect]] {
	+__enter__(self)
	+__exit__(self, exc_type, exc_val, exc_tb)
	+__init__(self)
	+output(self)
	+preprocessor(txt)
}

class benchmarkstt.diff.formatter.JSONDiffDialect [[https://benchmarkstt.readthedocs.io/en/latest/modules/benchmarkstt.diff.formatter.html#benchmarkstt.diff.formatter.JSONDiffDialect]] {
	+__enter__(self)
	+__exit__(self, exc_type, exc_val, exc_tb)
	+__init__(self)
	+_format(self, kind, txt, txt2=None)
	+delete_format(self, txt)
	+equal_format(self, txt)
	+insert_format(self, txt)
	+output(self)
	+preprocessor(txt)
	+replace_format(self, a, b)
}

class benchmarkstt.diff.formatter.ListDialect [[https://benchmarkstt.readthedocs.io/en/latest/modules/benchmarkstt.diff.formatter.html#benchmarkstt.diff.formatter.ListDialect]] {
	+__enter__(self)
	+__exit__(self, exc_type, exc_val, exc_tb)
	+__init__(self)
	+_format(self, kind, txt, txt2=None)
	+delete_format(self, txt)
	+equal_format(self, txt)
	+insert_format(self, txt)
	+output(self)
	+preprocessor(txt)
	+replace_format(self, a, b)
}

class benchmarkstt.diff.formatter.RestructuredTextDialect [[https://benchmarkstt.readthedocs.io/en/latest/modules/benchmarkstt.diff.formatter.html#benchmarkstt.diff.formatter.RestructuredTextDialect]] {
	+__enter__(self)
	+__exit__(self, exc_type, exc_val, exc_tb)
	+__init__(self, show_color_key=None)
	+output(self)
	+preprocessor(txt)
}

class benchmarkstt.diff.formatter.UTF8Dialect [[https://benchmarkstt.readthedocs.io/en/latest/modules/benchmarkstt.diff.formatter.html#benchmarkstt.diff.formatter.UTF8Dialect]] {
	+__enter__(self)
	+__exit__(self, exc_type, exc_val, exc_tb)
	+__init__(self)
	+delete_format(self, txt)
	+insert_format(self, txt)
	+output(self)
	+preprocessor(txt)
}

class benchmarkstt.diff.Base [[https://benchmarkstt.readthedocs.io/en/latest/modules/benchmarkstt.diff.html#benchmarkstt.diff.Base]] {
	+__init__(self, a='', b='')
	+get_opcodes(self)
}

class benchmarkstt.diff.core.RatcliffObershelp [[https://benchmarkstt.readthedocs.io/en/latest/modules/benchmarkstt.diff.core.html#benchmarkstt.diff.core.RatcliffObershelp]] {
	+_SequenceMatcher__chain_b(self)
	+__init__(self, a, b, *args, **kwargs)
	+find_longest_match(self, alo, ahi, blo, bhi)
	+get_grouped_opcodes(self, n=3)
	+get_matching_blocks(self)
	+get_opcodes(self)
	+quick_ratio(self)
	+ratio(self)
	+real_quick_ratio(self)
	+set_seq1(self, a)
	+set_seq2(self, b)
	+set_seqs(self, a, b)
}

benchmarkstt.diff.formatter.CLIDiffDialect - - - -|> benchmarkstt.diff.formatter.Dialect
benchmarkstt.diff.formatter.HTMLDiffDialect - - - -|> benchmarkstt.diff.formatter.Dialect
benchmarkstt.diff.formatter.JSONDiffDialect - - - -|> benchmarkstt.diff.formatter.ListDialect
benchmarkstt.diff.formatter.ListDialect - - - -|> benchmarkstt.diff.formatter.Dialect
benchmarkstt.diff.formatter.RestructuredTextDialect - - - -|> benchmarkstt.diff.formatter.CLIDiffDialect
benchmarkstt.diff.formatter.UTF8Dialect - - - -|> benchmarkstt.diff.formatter.Dialect
benchmarkstt.diff.core.RatcliffObershelp - - - -|> benchmarkstt.diff.Base
@enduml

PlantUML version 1.2020.15(Sun Jun 28 13:39:45 CEST 2020)
(GPL source distribution)
Java Runtime: OpenJDK Runtime Environment
JVM: OpenJDK 64-Bit Server VM
Default Encoding: UTF-8
Language: en
Country: BE
--></g></svg>