<?xml version="1.0" encoding="UTF-8" standalone="no"?><svg xmlns="http://www.w3.org/2000/svg" xmlns:xlink="http://www.w3.org/1999/xlink" contentScriptType="application/ecmascript" contentStyleType="text/css" height="381px" preserveAspectRatio="none" style="width:1691px;height:381px;" version="1.1" viewBox="0 0 1691 381" width="1691px" zoomAndPan="magnify"><defs><filter height="300%" id="f1gr6i391z8m82" width="300%" x="-1" y="-1"><feGaussianBlur result="blurOut" stdDeviation="2.0"/><feColorMatrix in="blurOut" result="blurOut2" type="matrix" values="0 0 0 0 0 0 0 0 0 0 0 0 0 0 0 0 0 0 .4 0"/><feOffset dx="4.0" dy="4.0" in="blurOut2" result="blurOut3"/><feBlend in="SourceGraphic" in2="blurOut3" mode="normal"/></filter></defs><g><text fill="#000000" font-family="Helvetica" font-size="18" lengthAdjust="spacingAndGlyphs" textLength="171" x="751" y="13.8604">benchmarkstt.metrics</text><!--MD5=[22ea792f0a86ed46e658ff5419811104]
cluster benchmarkstt.metrics--><rect fill="#FFFFFF" filter="url(#f1gr6i391z8m82)" height="115" style="stroke: #000000; stroke-width: 1.5;" width="462" x="472" y="25"/><path d="M630,26 L630,32 L620,42 L472,42 " fill="none" style="stroke: #000000; stroke-width: 1.5;"/><text fill="#000000" font-family="Helvetica" font-size="14" font-weight="bold" lengthAdjust="spacingAndGlyphs" textLength="148" x="475" y="36.7803">benchmarkstt.metrics</text><!--MD5=[144dc3a7777fd2b902a939eb9db82fdd]
cluster benchmarkstt.metrics.core--><rect fill="#FFFFFF" filter="url(#f1gr6i391z8m82)" height="200" style="stroke: #000000; stroke-width: 1.5;" width="1667" x="7" y="164"/><path d="M199,165 L199,171 L189,181 L7,181 " fill="none" style="stroke: #000000; stroke-width: 1.5;"/><text fill="#000000" font-family="Helvetica" font-size="14" font-weight="bold" lengthAdjust="spacingAndGlyphs" textLength="182" x="10" y="175.7803">benchmarkstt.metrics.core</text><!--MD5=[5df2e3f9a60f5e68627f199cfdd93bb0]
class benchmarkstt.metrics.Base--><a href="https://benchmarkstt.readthedocs.io/en/latest/modules/benchmarkstt.metrics.html#benchmarkstt.metrics.Base" target="_top" title="https://benchmarkstt.readthedocs.io/en/latest/modules/benchmarkstt.metrics.html#benchmarkstt.metrics.Base" xlink:actuate="onRequest" xlink:href="https://benchmarkstt.readthedocs.io/en/latest/modules/benchmarkstt.metrics.html#benchmarkstt.metrics.Base" xlink:show="new" xlink:title="https://benchmarkstt.readthedocs.io/en/latest/modules/benchmarkstt.metrics.html#benchmarkstt.metrics.Base" xlink:type="simple"><rect fill="#FFFFFF" filter="url(#f1gr6i391z8m82)" height="66" id="benchmarkstt.metrics.Base" style="stroke: #000000; stroke-width: 1.0;" width="430" x="488" y="58"/><ellipse cx="684.75" cy="74" fill="#C2C2C2" rx="11" ry="11" style="stroke: #000000; stroke-width: 1.0;"/><path d="M687.2231,80.1431 Q686.6421,80.4419 686.0029,80.5913 Q685.3638,80.7407 684.6582,80.7407 Q682.1514,80.7407 680.8315,79.0889 Q679.5117,77.437 679.5117,74.3159 Q679.5117,71.1865 680.8315,69.5347 Q682.1514,67.8828 684.6582,67.8828 Q685.3638,67.8828 686.0112,68.0322 Q686.6587,68.1816 687.2231,68.4805 L687.2231,71.2031 Q686.5923,70.6221 685.9988,70.3523 Q685.4053,70.0825 684.7744,70.0825 Q683.4297,70.0825 682.7449,71.1492 Q682.0601,72.2158 682.0601,74.3159 Q682.0601,76.4077 682.7449,77.4744 Q683.4297,78.541 684.7744,78.541 Q685.4053,78.541 685.9988,78.2712 Q686.5923,78.0015 687.2231,77.4204 Z "/><text fill="#000000" font-family="Helvetica" font-size="12" lengthAdjust="spacingAndGlyphs" textLength="28" x="705.25" y="77.2402">Base</text><line style="stroke: #000000; stroke-width: 1.5;" x1="489" x2="917" y1="90" y2="90"/><ellipse cx="499" cy="116" fill="#A6A6A6" rx="3" ry="3" style="stroke: #545454; stroke-width: 1.0;"/><text fill="#000000" font-family="Helvetica" font-size="11" lengthAdjust="spacingAndGlyphs" textLength="404" x="508" y="117.4702">compare(ref: benchmarkstt.schema.Schema, hyp: benchmarkstt.schema.Schema)</text><line style="stroke: #000000; stroke-width: 1.0; stroke-dasharray: 1.0,2.0;" x1="489" x2="666" y1="103.5" y2="103.5"/><text fill="#000000" font-family="Helvetica" font-size="11" lengthAdjust="spacingAndGlyphs" textLength="74" x="666" y="105.9702">Public Methods</text><line style="stroke: #000000; stroke-width: 1.0; stroke-dasharray: 1.0,2.0;" x1="740" x2="917" y1="103.5" y2="103.5"/></a><!--MD5=[16641109c0e363d96d1ecc4c603e3de1]
class benchmarkstt.metrics.core.DiffCounts--><a href="https://benchmarkstt.readthedocs.io/en/latest/modules/benchmarkstt.metrics.core.html#benchmarkstt.metrics.core.DiffCounts" target="_top" title="https://benchmarkstt.readthedocs.io/en/latest/modules/benchmarkstt.metrics.core.html#benchmarkstt.metrics.core.DiffCounts" xlink:actuate="onRequest" xlink:href="https://benchmarkstt.readthedocs.io/en/latest/modules/benchmarkstt.metrics.core.html#benchmarkstt.metrics.core.DiffCounts" xlink:show="new" xlink:title="https://benchmarkstt.readthedocs.io/en/latest/modules/benchmarkstt.metrics.core.html#benchmarkstt.metrics.core.DiffCounts" xlink:type="simple"><rect fill="#FFFFFF" filter="url(#f1gr6i391z8m82)" height="77" id="benchmarkstt.metrics.core.DiffCounts" style="stroke: #000000; stroke-width: 1.0;" width="430" x="1228" y="234"/><ellipse cx="1410.25" cy="250" fill="#C2C2C2" rx="11" ry="11" style="stroke: #000000; stroke-width: 1.0;"/><path d="M1412.7231,256.1431 Q1412.1421,256.4419 1411.5029,256.5913 Q1410.8638,256.7407 1410.1582,256.7407 Q1407.6514,256.7407 1406.3315,255.0889 Q1405.0117,253.437 1405.0117,250.3159 Q1405.0117,247.1865 1406.3315,245.5347 Q1407.6514,243.8828 1410.1582,243.8828 Q1410.8638,243.8828 1411.5112,244.0322 Q1412.1587,244.1816 1412.7231,244.4805 L1412.7231,247.2031 Q1412.0923,246.6221 1411.4988,246.3523 Q1410.9053,246.0825 1410.2744,246.0825 Q1408.9297,246.0825 1408.2449,247.1492 Q1407.5601,248.2158 1407.5601,250.3159 Q1407.5601,252.4077 1408.2449,253.4744 Q1408.9297,254.541 1410.2744,254.541 Q1410.9053,254.541 1411.4988,254.2712 Q1412.0923,254.0015 1412.7231,253.4204 Z "/><text fill="#000000" font-family="Helvetica" font-size="12" lengthAdjust="spacingAndGlyphs" textLength="57" x="1430.75" y="253.2402">DiffCounts</text><line style="stroke: #000000; stroke-width: 1.5;" x1="1229" x2="1657" y1="266" y2="266"/><ellipse cx="1239" cy="292" fill="#A6A6A6" rx="3" ry="3" style="stroke: #545454; stroke-width: 1.0;"/><text fill="#000000" font-family="Helvetica" font-size="11" lengthAdjust="spacingAndGlyphs" textLength="133" x="1248" y="293.4702">__init__(differ_class=None)</text><ellipse cx="1239" cy="303" fill="#A6A6A6" rx="3" ry="3" style="stroke: #545454; stroke-width: 1.0;"/><text fill="#000000" font-family="Helvetica" font-size="11" lengthAdjust="spacingAndGlyphs" textLength="404" x="1248" y="304.4702">compare(ref: benchmarkstt.schema.Schema, hyp: benchmarkstt.schema.Schema)</text><line style="stroke: #000000; stroke-width: 1.0; stroke-dasharray: 1.0,2.0;" x1="1229" x2="1406" y1="279.5" y2="279.5"/><text fill="#000000" font-family="Helvetica" font-size="11" lengthAdjust="spacingAndGlyphs" textLength="74" x="1406" y="281.9702">Public Methods</text><line style="stroke: #000000; stroke-width: 1.0; stroke-dasharray: 1.0,2.0;" x1="1480" x2="1657" y1="279.5" y2="279.5"/></a><!--MD5=[acc3773e40c658ad934768473fb05324]
class benchmarkstt.metrics.core.OpcodeCounts--><a href="https://benchmarkstt.readthedocs.io/en/latest/modules/benchmarkstt.metrics.core.html#benchmarkstt.metrics.core.OpcodeCounts" target="_top" title="https://benchmarkstt.readthedocs.io/en/latest/modules/benchmarkstt.metrics.core.html#benchmarkstt.metrics.core.OpcodeCounts" xlink:actuate="onRequest" xlink:href="https://benchmarkstt.readthedocs.io/en/latest/modules/benchmarkstt.metrics.core.html#benchmarkstt.metrics.core.OpcodeCounts" xlink:show="new" xlink:title="https://benchmarkstt.readthedocs.io/en/latest/modules/benchmarkstt.metrics.core.html#benchmarkstt.metrics.core.OpcodeCounts" xlink:type="simple"><rect fill="#FFFFFF" filter="url(#f1gr6i391z8m82)" height="151" id="benchmarkstt.metrics.core.OpcodeCounts" style="stroke: #000000; stroke-width: 1.0;" width="240" x="953" y="197"/><ellipse cx="1027.75" cy="213" fill="#C2C2C2" rx="11" ry="11" style="stroke: #000000; stroke-width: 1.0;"/><path d="M1030.2231,219.1431 Q1029.6421,219.4419 1029.0029,219.5913 Q1028.3638,219.7407 1027.6582,219.7407 Q1025.1514,219.7407 1023.8315,218.0889 Q1022.5117,216.437 1022.5117,213.3159 Q1022.5117,210.1865 1023.8315,208.5347 Q1025.1514,206.8828 1027.6582,206.8828 Q1028.3638,206.8828 1029.0112,207.0322 Q1029.6587,207.1816 1030.2231,207.4805 L1030.2231,210.2031 Q1029.5923,209.6221 1028.9988,209.3523 Q1028.4053,209.0825 1027.7744,209.0825 Q1026.4297,209.0825 1025.7449,210.1492 Q1025.0601,211.2158 1025.0601,213.3159 Q1025.0601,215.4077 1025.7449,216.4744 Q1026.4297,217.541 1027.7744,217.541 Q1028.4053,217.541 1028.9988,217.2712 Q1029.5923,217.0015 1030.2231,216.4204 Z "/><text fill="#000000" font-family="Helvetica" font-size="12" lengthAdjust="spacingAndGlyphs" textLength="82" x="1048.25" y="216.2402">OpcodeCounts</text><line style="stroke: #000000; stroke-width: 1.5;" x1="954" x2="1192" y1="229" y2="229"/><ellipse cx="964" cy="255" fill="#A6A6A6" rx="3" ry="3" style="stroke: #545454; stroke-width: 1.0;"/><text fill="#000000" font-family="Helvetica" font-size="11" lengthAdjust="spacingAndGlyphs" textLength="89" x="973" y="256.4702">__getnewargs__()</text><ellipse cx="964" cy="266" fill="#A6A6A6" rx="3" ry="3" style="stroke: #545454; stroke-width: 1.0;"/><text fill="#000000" font-family="Helvetica" font-size="11" lengthAdjust="spacingAndGlyphs" textLength="214" x="973" y="267.4702">__new__(_cls, equal, replace, insert, delete)</text><ellipse cx="964" cy="277" fill="#A6A6A6" rx="3" ry="3" style="stroke: #545454; stroke-width: 1.0;"/><text fill="#000000" font-family="Helvetica" font-size="11" lengthAdjust="spacingAndGlyphs" textLength="52" x="973" y="278.4702">__repr__()</text><line style="stroke: #000000; stroke-width: 1.0; stroke-dasharray: 1.0,2.0;" x1="954" x2="1036" y1="242.5" y2="242.5"/><text fill="#000000" font-family="Helvetica" font-size="11" lengthAdjust="spacingAndGlyphs" textLength="74" x="1036" y="244.9702">Public Methods</text><line style="stroke: #000000; stroke-width: 1.0; stroke-dasharray: 1.0,2.0;" x1="1110" x2="1192" y1="242.5" y2="242.5"/><rect fill="#808080" height="6" style="stroke: #595959; stroke-width: 1.0;" width="6" x="961" y="300"/><text fill="#000000" font-family="Helvetica" font-size="11" lengthAdjust="spacingAndGlyphs" textLength="43" x="973" y="304.4702">_asdict()</text><ellipse cx="964" cy="314" fill="#A6A6A6" rx="3" ry="3" style="stroke: #545454; stroke-width: 1.0;"/><text fill="#000000" font-family="Helvetica" font-size="11" lengthAdjust="spacingAndGlyphs" textLength="84" x="973" y="315.4702">_replace(**kwds)</text><line style="stroke: #000000; stroke-width: 1.0; stroke-dasharray: 1.0,2.0;" x1="954" x2="1027" y1="290.5" y2="290.5"/><text fill="#000000" font-family="Helvetica" font-size="11" lengthAdjust="spacingAndGlyphs" textLength="92" x="1027" y="292.9702">Protected Methods</text><line style="stroke: #000000; stroke-width: 1.0; stroke-dasharray: 1.0,2.0;" x1="1119" x2="1192" y1="290.5" y2="290.5"/><ellipse cx="964" cy="340" fill="#A6A6A6" rx="3" ry="3" style="stroke: #545454; stroke-width: 1.0;"/><text fill="#000000" font-family="Helvetica" font-size="11" lengthAdjust="spacingAndGlyphs" text-decoration="underline" textLength="76" x="973" y="341.4702">_make(iterable)</text><line style="stroke: #000000; stroke-width: 1.0; stroke-dasharray: 1.0,2.0;" x1="954" x2="1037" y1="327.5" y2="327.5"/><text fill="#000000" font-family="Helvetica" font-size="11" lengthAdjust="spacingAndGlyphs" textLength="72" x="1037" y="329.9702">Static Methods</text><line style="stroke: #000000; stroke-width: 1.0; stroke-dasharray: 1.0,2.0;" x1="1109" x2="1192" y1="327.5" y2="327.5"/></a><!--MD5=[1b5fccb2ad4a9064da2e7d8609e9b4b6]
class benchmarkstt.metrics.core.WER--><a href="https://benchmarkstt.readthedocs.io/en/latest/modules/benchmarkstt.metrics.core.html#benchmarkstt.metrics.core.WER" target="_top" title="https://benchmarkstt.readthedocs.io/en/latest/modules/benchmarkstt.metrics.core.html#benchmarkstt.metrics.core.WER" xlink:actuate="onRequest" xlink:href="https://benchmarkstt.readthedocs.io/en/latest/modules/benchmarkstt.metrics.core.html#benchmarkstt.metrics.core.WER" xlink:show="new" xlink:title="https://benchmarkstt.readthedocs.io/en/latest/modules/benchmarkstt.metrics.core.html#benchmarkstt.metrics.core.WER" xlink:type="simple"><rect fill="#FFFFFF" filter="url(#f1gr6i391z8m82)" height="77" id="benchmarkstt.metrics.core.WER" style="stroke: #000000; stroke-width: 1.0;" width="430" x="488" y="234"/><ellipse cx="684.75" cy="250" fill="#C2C2C2" rx="11" ry="11" style="stroke: #000000; stroke-width: 1.0;"/><path d="M687.2231,256.1431 Q686.6421,256.4419 686.0029,256.5913 Q685.3638,256.7407 684.6582,256.7407 Q682.1514,256.7407 680.8315,255.0889 Q679.5117,253.437 679.5117,250.3159 Q679.5117,247.1865 680.8315,245.5347 Q682.1514,243.8828 684.6582,243.8828 Q685.3638,243.8828 686.0112,244.0322 Q686.6587,244.1816 687.2231,244.4805 L687.2231,247.2031 Q686.5923,246.6221 685.9988,246.3523 Q685.4053,246.0825 684.7744,246.0825 Q683.4297,246.0825 682.7449,247.1492 Q682.0601,248.2158 682.0601,250.3159 Q682.0601,252.4077 682.7449,253.4744 Q683.4297,254.541 684.7744,254.541 Q685.4053,254.541 685.9988,254.2712 Q686.5923,254.0015 687.2231,253.4204 Z "/><text fill="#000000" font-family="Helvetica" font-size="12" lengthAdjust="spacingAndGlyphs" textLength="28" x="705.25" y="253.2402">WER</text><line style="stroke: #000000; stroke-width: 1.5;" x1="489" x2="917" y1="266" y2="266"/><ellipse cx="499" cy="292" fill="#A6A6A6" rx="3" ry="3" style="stroke: #545454; stroke-width: 1.0;"/><text fill="#000000" font-family="Helvetica" font-size="11" lengthAdjust="spacingAndGlyphs" textLength="198" x="508" y="293.4702">__init__(mode=None, differ_class=None)</text><ellipse cx="499" cy="303" fill="#A6A6A6" rx="3" ry="3" style="stroke: #545454; stroke-width: 1.0;"/><text fill="#000000" font-family="Helvetica" font-size="11" lengthAdjust="spacingAndGlyphs" textLength="404" x="508" y="304.4702">compare(ref: benchmarkstt.schema.Schema, hyp: benchmarkstt.schema.Schema)</text><line style="stroke: #000000; stroke-width: 1.0; stroke-dasharray: 1.0,2.0;" x1="489" x2="666" y1="279.5" y2="279.5"/><text fill="#000000" font-family="Helvetica" font-size="11" lengthAdjust="spacingAndGlyphs" textLength="74" x="666" y="281.9702">Public Methods</text><line style="stroke: #000000; stroke-width: 1.0; stroke-dasharray: 1.0,2.0;" x1="740" x2="917" y1="279.5" y2="279.5"/></a><!--MD5=[ef94872a4633e4f53c81dbb8c48f7a6f]
class benchmarkstt.metrics.core.WordDiffs--><a href="https://benchmarkstt.readthedocs.io/en/latest/modules/benchmarkstt.metrics.core.html#benchmarkstt.metrics.core.WordDiffs" target="_top" title="https://benchmarkstt.readthedocs.io/en/latest/modules/benchmarkstt.metrics.core.html#benchmarkstt.metrics.core.WordDiffs" xlink:actuate="onRequest" xlink:href="https://benchmarkstt.readthedocs.io/en/latest/modules/benchmarkstt.metrics.core.html#benchmarkstt.metrics.core.WordDiffs" xlink:show="new" xlink:title="https://benchmarkstt.readthedocs.io/en/latest/modules/benchmarkstt.metrics.core.html#benchmarkstt.metrics.core.WordDiffs" xlink:type="simple"><rect fill="#FFFFFF" filter="url(#f1gr6i391z8m82)" height="77" id="benchmarkstt.metrics.core.WordDiffs" style="stroke: #000000; stroke-width: 1.0;" width="430" x="23" y="234"/><ellipse cx="207.25" cy="250" fill="#C2C2C2" rx="11" ry="11" style="stroke: #000000; stroke-width: 1.0;"/><path d="M209.7231,256.1431 Q209.1421,256.4419 208.5029,256.5913 Q207.8638,256.7407 207.1582,256.7407 Q204.6514,256.7407 203.3315,255.0889 Q202.0117,253.437 202.0117,250.3159 Q202.0117,247.1865 203.3315,245.5347 Q204.6514,243.8828 207.1582,243.8828 Q207.8638,243.8828 208.5112,244.0322 Q209.1587,244.1816 209.7231,244.4805 L209.7231,247.2031 Q209.0923,246.6221 208.4988,246.3523 Q207.9053,246.0825 207.2744,246.0825 Q205.9297,246.0825 205.2449,247.1492 Q204.5601,248.2158 204.5601,250.3159 Q204.5601,252.4077 205.2449,253.4744 Q205.9297,254.541 207.2744,254.541 Q207.9053,254.541 208.4988,254.2712 Q209.0923,254.0015 209.7231,253.4204 Z "/><text fill="#000000" font-family="Helvetica" font-size="12" lengthAdjust="spacingAndGlyphs" textLength="53" x="227.75" y="253.2402">WordDiffs</text><line style="stroke: #000000; stroke-width: 1.5;" x1="24" x2="452" y1="266" y2="266"/><ellipse cx="34" cy="292" fill="#A6A6A6" rx="3" ry="3" style="stroke: #545454; stroke-width: 1.0;"/><text fill="#000000" font-family="Helvetica" font-size="11" lengthAdjust="spacingAndGlyphs" textLength="202" x="43" y="293.4702">__init__(dialect=None, differ_class=None)</text><ellipse cx="34" cy="303" fill="#A6A6A6" rx="3" ry="3" style="stroke: #545454; stroke-width: 1.0;"/><text fill="#000000" font-family="Helvetica" font-size="11" lengthAdjust="spacingAndGlyphs" textLength="404" x="43" y="304.4702">compare(ref: benchmarkstt.schema.Schema, hyp: benchmarkstt.schema.Schema)</text><line style="stroke: #000000; stroke-width: 1.0; stroke-dasharray: 1.0,2.0;" x1="24" x2="201" y1="279.5" y2="279.5"/><text fill="#000000" font-family="Helvetica" font-size="11" lengthAdjust="spacingAndGlyphs" textLength="74" x="201" y="281.9702">Public Methods</text><line style="stroke: #000000; stroke-width: 1.0; stroke-dasharray: 1.0,2.0;" x1="275" x2="452" y1="279.5" y2="279.5"/></a><!--MD5=[0e20ec8c1c3e6f52fb3eaed392cf3205]
reverse link benchmarkstt.metrics.Base to benchmarkstt.metrics.core.DiffCounts--><path d="M938.38,105.05 C1025.39,114.18 1123.97,129.69 1211,156 C1271.94,174.43 1336.39,207.77 1381.86,233.91 " fill="none" id="benchmarkstt.metrics.Base&lt;-benchmarkstt.metrics.core.DiffCounts" style="stroke: #000000; stroke-width: 1.0;"/><polygon fill="none" points="937.47,112,918.27,103.03,938.87,98.07,937.47,112" style="stroke: #000000; stroke-width: 1.0;"/><!--MD5=[30299ce62ca518511ed25a5a2ec7aa2b]
reverse link benchmarkstt.metrics.Base to benchmarkstt.metrics.core.WER--><path d="M703,144.1 C703,172.79 703,207.75 703,233.78 " fill="none" id="benchmarkstt.metrics.Base&lt;-benchmarkstt.metrics.core.WER" style="stroke: #000000; stroke-width: 1.0;"/><polygon fill="none" points="696,144.09,703,124.09,710,144.09,696,144.09" style="stroke: #000000; stroke-width: 1.0;"/><!--MD5=[4985c6bdcdda9aa3aac1b42ffb8ef9ca]
reverse link benchmarkstt.metrics.Base to benchmarkstt.metrics.core.WordDiffs--><path d="M550.37,129.62 C523.63,137.48 496.29,146.35 471,156 C413.32,178.02 350.78,209.47 305.02,234 " fill="none" id="benchmarkstt.metrics.Base&lt;-benchmarkstt.metrics.core.WordDiffs" style="stroke: #000000; stroke-width: 1.0;"/><polygon fill="none" points="548.54,122.86,569.7,124.08,552.4,136.32,548.54,122.86" style="stroke: #000000; stroke-width: 1.0;"/><!--MD5=[d9709dc0ae6ecc812f3822416a65746c]
@startuml

title benchmarkstt.metrics

skinparam packageStyle Frame
!includeurl https://raw.githubusercontent.com/matthewjosephtaylor/plantuml-style/master/style.pu
package benchmarkstt.metrics {

	class benchmarkstt.metrics.Base [[https://benchmarkstt.readthedocs.io/en/latest/modules/benchmarkstt.metrics.html#benchmarkstt.metrics.Base]] {
		.. Public Methods ..
		+compare(ref: benchmarkstt.schema.Schema, hyp: benchmarkstt.schema.Schema)
	}



}

package benchmarkstt.metrics {



}

package benchmarkstt.metrics {



}

package benchmarkstt.metrics.core {


	class benchmarkstt.metrics.core.DiffCounts [[https://benchmarkstt.readthedocs.io/en/latest/modules/benchmarkstt.metrics.core.html#benchmarkstt.metrics.core.DiffCounts]] {
		.. Public Methods ..
		+__init__(differ_class=None)
		+compare(ref: benchmarkstt.schema.Schema, hyp: benchmarkstt.schema.Schema)
	}


	class benchmarkstt.metrics.core.OpcodeCounts [[https://benchmarkstt.readthedocs.io/en/latest/modules/benchmarkstt.metrics.core.html#benchmarkstt.metrics.core.OpcodeCounts]] {
		.. Public Methods ..
		+__getnewargs__()
		+__new__(_cls, equal, replace, insert, delete)
		+__repr__()
		.. Protected Methods ..
		-_asdict()
		+_replace(**kwds)
		.. Static Methods ..
		{static} +_make(iterable)
	}




	class benchmarkstt.metrics.core.WER [[https://benchmarkstt.readthedocs.io/en/latest/modules/benchmarkstt.metrics.core.html#benchmarkstt.metrics.core.WER]] {
		.. Public Methods ..
		+__init__(mode=None, differ_class=None)
		+compare(ref: benchmarkstt.schema.Schema, hyp: benchmarkstt.schema.Schema)
	}


	class benchmarkstt.metrics.core.WordDiffs [[https://benchmarkstt.readthedocs.io/en/latest/modules/benchmarkstt.metrics.core.html#benchmarkstt.metrics.core.WordDiffs]] {
		.. Public Methods ..
		+__init__(dialect=None, differ_class=None)
		+compare(ref: benchmarkstt.schema.Schema, hyp: benchmarkstt.schema.Schema)
	}

}


benchmarkstt.metrics.core.DiffCounts -up-|> benchmarkstt.metrics.Base
benchmarkstt.metrics.core.WER -up-|> benchmarkstt.metrics.Base
benchmarkstt.metrics.core.WordDiffs -up-|> benchmarkstt.metrics.Base

@enduml

@startuml

title benchmarkstt.metrics

skinparam packageStyle Frame

skinparam defaultFontName  Helvetica
skinparam sequenceMessageAlign center
skinparam monochrome true

skinparam activity {
	ArrowColor Black
	BackgroundColor White
	BorderColor Black
	BorderThickness 1
}

skinparam actor {
	BackgroundColor White
	BorderColor Black
}

skinparam usecase {
	ArrowColor Black
	BackgroundColor White
	BorderColor Black
	BorderThickness 1
}

skinparam class {
	ArrowColor Black
	BackgroundColor White
	BorderColor Black
	BorderThickness 1
}


skinparam object {
	ArrowColor Black
	BackgroundColor White
	BorderColor Black
}

skinparam package {
	BackgroundColor White
	BorderColor Black
}


skinparam component {
	BackgroundColor White
	InterfaceBackgroundColor White
	BorderColor Black
	InterfaceBorderColor Black
}

skinparam note {
	BackgroundColor White
	BorderColor Black
}

skinparam state {
	ArrowColor Black
	BackgroundColor White
	BorderColor Black
}

skinparam sequence {
	ArrowColor Black
	BackgroundColor White
	ParticipantBackgroundColor White
	BorderColor Black
	LifeLineBorderColor Black
	ParticipantBorderColor Black
	BoxLineColor Black
}

skinparam interface {
	BackgroundColor White
	BorderColor Black
}
package benchmarkstt.metrics {

	class benchmarkstt.metrics.Base [[https://benchmarkstt.readthedocs.io/en/latest/modules/benchmarkstt.metrics.html#benchmarkstt.metrics.Base]] {
		.. Public Methods ..
		+compare(ref: benchmarkstt.schema.Schema, hyp: benchmarkstt.schema.Schema)
	}



}

package benchmarkstt.metrics {



}

package benchmarkstt.metrics {



}

package benchmarkstt.metrics.core {


	class benchmarkstt.metrics.core.DiffCounts [[https://benchmarkstt.readthedocs.io/en/latest/modules/benchmarkstt.metrics.core.html#benchmarkstt.metrics.core.DiffCounts]] {
		.. Public Methods ..
		+__init__(differ_class=None)
		+compare(ref: benchmarkstt.schema.Schema, hyp: benchmarkstt.schema.Schema)
	}


	class benchmarkstt.metrics.core.OpcodeCounts [[https://benchmarkstt.readthedocs.io/en/latest/modules/benchmarkstt.metrics.core.html#benchmarkstt.metrics.core.OpcodeCounts]] {
		.. Public Methods ..
		+__getnewargs__()
		+__new__(_cls, equal, replace, insert, delete)
		+__repr__()
		.. Protected Methods ..
		-_asdict()
		+_replace(**kwds)
		.. Static Methods ..
		{static} +_make(iterable)
	}




	class benchmarkstt.metrics.core.WER [[https://benchmarkstt.readthedocs.io/en/latest/modules/benchmarkstt.metrics.core.html#benchmarkstt.metrics.core.WER]] {
		.. Public Methods ..
		+__init__(mode=None, differ_class=None)
		+compare(ref: benchmarkstt.schema.Schema, hyp: benchmarkstt.schema.Schema)
	}


	class benchmarkstt.metrics.core.WordDiffs [[https://benchmarkstt.readthedocs.io/en/latest/modules/benchmarkstt.metrics.core.html#benchmarkstt.metrics.core.WordDiffs]] {
		.. Public Methods ..
		+__init__(dialect=None, differ_class=None)
		+compare(ref: benchmarkstt.schema.Schema, hyp: benchmarkstt.schema.Schema)
	}

}


benchmarkstt.metrics.core.DiffCounts -up-|> benchmarkstt.metrics.Base
benchmarkstt.metrics.core.WER -up-|> benchmarkstt.metrics.Base
benchmarkstt.metrics.core.WordDiffs -up-|> benchmarkstt.metrics.Base

@enduml

PlantUML version 1.2020.15(Sun Jun 28 13:39:45 CEST 2020)
(GPL source distribution)
Java Runtime: OpenJDK Runtime Environment
JVM: OpenJDK 64-Bit Server VM
Default Encoding: UTF-8
Language: en
Country: BE
--></g></svg>