<?xml version="1.0" encoding="UTF-8" standalone="no"?><svg xmlns="http://www.w3.org/2000/svg" xmlns:xlink="http://www.w3.org/1999/xlink" contentScriptType="application/ecmascript" contentStyleType="text/css" height="741px" preserveAspectRatio="none" style="width:584px;height:741px;" version="1.1" viewBox="0 0 584 741" width="584px" zoomAndPan="magnify"><defs><filter height="300%" id="fhdxd5jrcz4xk" width="300%" x="-1" y="-1"><feGaussianBlur result="blurOut" stdDeviation="2.0"/><feColorMatrix in="blurOut" result="blurOut2" type="matrix" values="0 0 0 0 0 0 0 0 0 0 0 0 0 0 0 0 0 0 .4 0"/><feOffset dx="4.0" dy="4.0" in="blurOut2" result="blurOut3"/><feBlend in="SourceGraphic" in2="blurOut3" mode="normal"/></filter></defs><g><text fill="#000000" font-family="sans-serif" font-size="18" lengthAdjust="spacingAndGlyphs" textLength="184" x="191" y="17.4023">benchmarkstt.output</text><!--MD5=[c2f5f1914e6a0fca7cbdb2b44310c20b]
cluster benchmarkstt.output--><polygon fill="#FFFFFF" filter="url(#fhdxd5jrcz4xk)" points="51,27.1992,207,27.1992,214,49.6875,323,49.6875,323,165.1992,51,165.1992,51,27.1992" style="stroke: #000000; stroke-width: 1.5;"/><line style="stroke: #000000; stroke-width: 1.5;" x1="51" x2="214" y1="49.6875" y2="49.6875"/><text fill="#000000" font-family="sans-serif" font-size="14" font-weight="bold" lengthAdjust="spacingAndGlyphs" textLength="150" x="55" y="42.7344">benchmarkstt.output</text><!--MD5=[847d3ee6f8e67faab7de214c96ed8267]
cluster benchmarkstt.output.core--><polygon fill="#FFFFFF" filter="url(#fhdxd5jrcz4xk)" points="16,296.1992,205,296.1992,212,318.6875,562,318.6875,562,729.1992,16,729.1992,16,296.1992" style="stroke: #000000; stroke-width: 1.5;"/><line style="stroke: #000000; stroke-width: 1.5;" x1="16" x2="212" y1="318.6875" y2="318.6875"/><text fill="#000000" font-family="sans-serif" font-size="14" font-weight="bold" lengthAdjust="spacingAndGlyphs" textLength="183" x="20" y="311.7344">benchmarkstt.output.core</text><!--MD5=[6bad0332cb50a567e063560f49fe1b05]
class benchmarkstt.output.Base--><a href="https://benchmarkstt.readthedocs.io/en/latest/modules/benchmarkstt.output.html#benchmarkstt.output.Base" target="_top" title="https://benchmarkstt.readthedocs.io/en/latest/modules/benchmarkstt.output.html#benchmarkstt.output.Base" xlink:actuate="onRequest" xlink:href="https://benchmarkstt.readthedocs.io/en/latest/modules/benchmarkstt.output.html#benchmarkstt.output.Base" xlink:show="new" xlink:title="https://benchmarkstt.readthedocs.io/en/latest/modules/benchmarkstt.output.html#benchmarkstt.output.Base" xlink:type="simple"><rect fill="#FEFECE" filter="url(#fhdxd5jrcz4xk)" height="86.8652" id="benchmarkstt.output.Base" style="stroke: #A80036; stroke-width: 1.5;" width="239" x="67.5" y="62.1992"/><ellipse cx="169.25" cy="78.1992" fill="#ADD1B2" rx="11" ry="11" style="stroke: #A80036; stroke-width: 1.0;"/><path d="M171.7231,84.3423 Q171.1421,84.6411 170.5029,84.7905 Q169.8638,84.9399 169.1582,84.9399 Q166.6514,84.9399 165.3315,83.2881 Q164.0117,81.6362 164.0117,78.5151 Q164.0117,75.3857 165.3315,73.7339 Q166.6514,72.082 169.1582,72.082 Q169.8638,72.082 170.5112,72.2314 Q171.1587,72.3809 171.7231,72.6797 L171.7231,75.4023 Q171.0923,74.8213 170.4988,74.5515 Q169.9053,74.2817 169.2744,74.2817 Q167.9297,74.2817 167.2449,75.3484 Q166.5601,76.415 166.5601,78.5151 Q166.5601,80.6069 167.2449,81.6736 Q167.9297,82.7402 169.2744,82.7402 Q169.9053,82.7402 170.4988,82.4705 Q171.0923,82.2007 171.7231,81.6196 Z "/><text fill="#000000" font-family="sans-serif" font-size="12" lengthAdjust="spacingAndGlyphs" textLength="27" x="189.75" y="82.7344">Base</text><line style="stroke: #A80036; stroke-width: 1.5;" x1="68.5" x2="305.5" y1="94.1992" y2="94.1992"/><line style="stroke: #A80036; stroke-width: 1.5;" x1="68.5" x2="305.5" y1="102.1992" y2="102.1992"/><ellipse cx="78.5" cy="113.1992" fill="#84BE84" rx="3" ry="3" style="stroke: #038048; stroke-width: 1.0;"/><text fill="#000000" font-family="sans-serif" font-size="11" lengthAdjust="spacingAndGlyphs" textLength="79" x="87.5" y="116.834">__enter__(self)</text><ellipse cx="78.5" cy="126.1543" fill="#84BE84" rx="3" ry="3" style="stroke: #038048; stroke-width: 1.0;"/><text fill="#000000" font-family="sans-serif" font-size="11" lengthAdjust="spacingAndGlyphs" textLength="213" x="87.5" y="129.7891">__exit__(self, exc_type, exc_val, exc_tb)</text><ellipse cx="78.5" cy="139.1094" fill="#84BE84" rx="3" ry="3" style="stroke: #038048; stroke-width: 1.0;"/><text fill="#000000" font-family="sans-serif" font-size="11" lengthAdjust="spacingAndGlyphs" textLength="121" x="87.5" y="142.7441">result(self, title, result)</text></a><!--MD5=[f736c00f8e3d82ae904e3d345ee15690]
class benchmarkstt.output.core.Json--><a href="https://benchmarkstt.readthedocs.io/en/latest/modules/benchmarkstt.output.core.html#benchmarkstt.output.core.Json" target="_top" title="https://benchmarkstt.readthedocs.io/en/latest/modules/benchmarkstt.output.core.html#benchmarkstt.output.core.Json" xlink:actuate="onRequest" xlink:href="https://benchmarkstt.readthedocs.io/en/latest/modules/benchmarkstt.output.core.html#benchmarkstt.output.core.Json" xlink:show="new" xlink:title="https://benchmarkstt.readthedocs.io/en/latest/modules/benchmarkstt.output.core.html#benchmarkstt.output.core.Json" xlink:type="simple"><rect fill="#FEFECE" filter="url(#fhdxd5jrcz4xk)" height="99.8203" id="benchmarkstt.output.core.Json" style="stroke: #A80036; stroke-width: 1.5;" width="239" x="306.5" y="331.1992"/><ellipse cx="409.75" cy="347.1992" fill="#ADD1B2" rx="11" ry="11" style="stroke: #A80036; stroke-width: 1.0;"/><path d="M412.2231,353.3423 Q411.6421,353.6411 411.0029,353.7905 Q410.3638,353.9399 409.6582,353.9399 Q407.1514,353.9399 405.8315,352.2881 Q404.5117,350.6362 404.5117,347.5151 Q404.5117,344.3857 405.8315,342.7339 Q407.1514,341.082 409.6582,341.082 Q410.3638,341.082 411.0112,341.2314 Q411.6587,341.3809 412.2231,341.6797 L412.2231,344.4023 Q411.5923,343.8213 410.9988,343.5515 Q410.4053,343.2817 409.7744,343.2817 Q408.4297,343.2817 407.7449,344.3484 Q407.0601,345.415 407.0601,347.5151 Q407.0601,349.6069 407.7449,350.6736 Q408.4297,351.7402 409.7744,351.7402 Q410.4053,351.7402 410.9988,351.4705 Q411.5923,351.2007 412.2231,350.6196 Z "/><text fill="#000000" font-family="sans-serif" font-size="12" lengthAdjust="spacingAndGlyphs" textLength="24" x="430.25" y="351.7344">Json</text><line style="stroke: #A80036; stroke-width: 1.5;" x1="307.5" x2="544.5" y1="363.1992" y2="363.1992"/><line style="stroke: #A80036; stroke-width: 1.5;" x1="307.5" x2="544.5" y1="371.1992" y2="371.1992"/><ellipse cx="317.5" cy="382.1992" fill="#84BE84" rx="3" ry="3" style="stroke: #038048; stroke-width: 1.0;"/><text fill="#000000" font-family="sans-serif" font-size="11" lengthAdjust="spacingAndGlyphs" textLength="79" x="326.5" y="385.834">__enter__(self)</text><ellipse cx="317.5" cy="395.1543" fill="#84BE84" rx="3" ry="3" style="stroke: #038048; stroke-width: 1.0;"/><text fill="#000000" font-family="sans-serif" font-size="11" lengthAdjust="spacingAndGlyphs" textLength="213" x="326.5" y="398.7891">__exit__(self, exc_type, exc_val, exc_tb)</text><ellipse cx="317.5" cy="408.1094" fill="#84BE84" rx="3" ry="3" style="stroke: #038048; stroke-width: 1.0;"/><text fill="#000000" font-family="sans-serif" font-size="11" lengthAdjust="spacingAndGlyphs" textLength="68" x="326.5" y="411.7441">__init__(self)</text><ellipse cx="317.5" cy="421.0645" fill="#84BE84" rx="3" ry="3" style="stroke: #038048; stroke-width: 1.0;"/><text fill="#000000" font-family="sans-serif" font-size="11" lengthAdjust="spacingAndGlyphs" textLength="121" x="326.5" y="424.6992">result(self, title, result)</text></a><!--MD5=[1202924086ca6a88207a70c63baf9330]
class benchmarkstt.output.core.MarkDown--><a href="https://benchmarkstt.readthedocs.io/en/latest/modules/benchmarkstt.output.core.html#benchmarkstt.output.core.MarkDown" target="_top" title="https://benchmarkstt.readthedocs.io/en/latest/modules/benchmarkstt.output.core.html#benchmarkstt.output.core.MarkDown" xlink:actuate="onRequest" xlink:href="https://benchmarkstt.readthedocs.io/en/latest/modules/benchmarkstt.output.core.html#benchmarkstt.output.core.MarkDown" xlink:show="new" xlink:title="https://benchmarkstt.readthedocs.io/en/latest/modules/benchmarkstt.output.core.html#benchmarkstt.output.core.MarkDown" xlink:type="simple"><rect fill="#FEFECE" filter="url(#fhdxd5jrcz4xk)" height="99.8203" id="benchmarkstt.output.core.MarkDown" style="stroke: #A80036; stroke-width: 1.5;" width="239" x="32.5" y="613.1992"/><ellipse cx="117.25" cy="629.1992" fill="#ADD1B2" rx="11" ry="11" style="stroke: #A80036; stroke-width: 1.0;"/><path d="M119.7231,635.3423 Q119.1421,635.6411 118.5029,635.7905 Q117.8638,635.9399 117.1582,635.9399 Q114.6514,635.9399 113.3315,634.2881 Q112.0117,632.6362 112.0117,629.5151 Q112.0117,626.3857 113.3315,624.7339 Q114.6514,623.082 117.1582,623.082 Q117.8638,623.082 118.5112,623.2314 Q119.1587,623.3809 119.7231,623.6797 L119.7231,626.4023 Q119.0923,625.8213 118.4988,625.5515 Q117.9053,625.2817 117.2744,625.2817 Q115.9297,625.2817 115.2449,626.3484 Q114.5601,627.415 114.5601,629.5151 Q114.5601,631.6069 115.2449,632.6736 Q115.9297,633.7402 117.2744,633.7402 Q117.9053,633.7402 118.4988,633.4705 Q119.0923,633.2007 119.7231,632.6196 Z "/><text fill="#000000" font-family="sans-serif" font-size="12" lengthAdjust="spacingAndGlyphs" textLength="61" x="137.75" y="633.7344">MarkDown</text><line style="stroke: #A80036; stroke-width: 1.5;" x1="33.5" x2="270.5" y1="645.1992" y2="645.1992"/><line style="stroke: #A80036; stroke-width: 1.5;" x1="33.5" x2="270.5" y1="653.1992" y2="653.1992"/><ellipse cx="43.5" cy="664.1992" fill="#84BE84" rx="3" ry="3" style="stroke: #038048; stroke-width: 1.0;"/><text fill="#000000" font-family="sans-serif" font-size="11" lengthAdjust="spacingAndGlyphs" textLength="79" x="52.5" y="667.834">__enter__(self)</text><ellipse cx="43.5" cy="677.1543" fill="#84BE84" rx="3" ry="3" style="stroke: #038048; stroke-width: 1.0;"/><text fill="#000000" font-family="sans-serif" font-size="11" lengthAdjust="spacingAndGlyphs" textLength="213" x="52.5" y="680.7891">__exit__(self, exc_type, exc_val, exc_tb)</text><ellipse cx="43.5" cy="690.1094" fill="#84BE84" rx="3" ry="3" style="stroke: #038048; stroke-width: 1.0;"/><text fill="#000000" font-family="sans-serif" font-size="11" lengthAdjust="spacingAndGlyphs" textLength="90" x="52.5" y="693.7441">print(self, result)</text><ellipse cx="43.5" cy="703.0645" fill="#84BE84" rx="3" ry="3" style="stroke: #038048; stroke-width: 1.0;"/><text fill="#000000" font-family="sans-serif" font-size="11" lengthAdjust="spacingAndGlyphs" textLength="121" x="52.5" y="706.6992">result(self, title, result)</text></a><!--MD5=[1b1c3484ac7c767612303980bbf618ed]
class benchmarkstt.output.core.ReStructuredText--><a href="https://benchmarkstt.readthedocs.io/en/latest/modules/benchmarkstt.output.core.html#benchmarkstt.output.core.ReStructuredText" target="_top" title="https://benchmarkstt.readthedocs.io/en/latest/modules/benchmarkstt.output.core.html#benchmarkstt.output.core.ReStructuredText" xlink:actuate="onRequest" xlink:href="https://benchmarkstt.readthedocs.io/en/latest/modules/benchmarkstt.output.core.html#benchmarkstt.output.core.ReStructuredText" xlink:show="new" xlink:title="https://benchmarkstt.readthedocs.io/en/latest/modules/benchmarkstt.output.core.html#benchmarkstt.output.core.ReStructuredText" xlink:type="simple"><rect fill="#FEFECE" filter="url(#fhdxd5jrcz4xk)" height="99.8203" id="benchmarkstt.output.core.ReStructuredText" style="stroke: #A80036; stroke-width: 1.5;" width="239" x="306.5" y="613.1992"/><ellipse cx="371.75" cy="629.1992" fill="#ADD1B2" rx="11" ry="11" style="stroke: #A80036; stroke-width: 1.0;"/><path d="M374.2231,635.3423 Q373.6421,635.6411 373.0029,635.7905 Q372.3638,635.9399 371.6582,635.9399 Q369.1514,635.9399 367.8315,634.2881 Q366.5117,632.6362 366.5117,629.5151 Q366.5117,626.3857 367.8315,624.7339 Q369.1514,623.082 371.6582,623.082 Q372.3638,623.082 373.0112,623.2314 Q373.6587,623.3809 374.2231,623.6797 L374.2231,626.4023 Q373.5923,625.8213 372.9988,625.5515 Q372.4053,625.2817 371.7744,625.2817 Q370.4297,625.2817 369.7449,626.3484 Q369.0601,627.415 369.0601,629.5151 Q369.0601,631.6069 369.7449,632.6736 Q370.4297,633.7402 371.7744,633.7402 Q372.4053,633.7402 372.9988,633.4705 Q373.5923,633.2007 374.2231,632.6196 Z "/><text fill="#000000" font-family="sans-serif" font-size="12" lengthAdjust="spacingAndGlyphs" textLength="100" x="392.25" y="633.7344">ReStructuredText</text><line style="stroke: #A80036; stroke-width: 1.5;" x1="307.5" x2="544.5" y1="645.1992" y2="645.1992"/><line style="stroke: #A80036; stroke-width: 1.5;" x1="307.5" x2="544.5" y1="653.1992" y2="653.1992"/><ellipse cx="317.5" cy="664.1992" fill="#84BE84" rx="3" ry="3" style="stroke: #038048; stroke-width: 1.0;"/><text fill="#000000" font-family="sans-serif" font-size="11" lengthAdjust="spacingAndGlyphs" textLength="79" x="326.5" y="667.834">__enter__(self)</text><ellipse cx="317.5" cy="677.1543" fill="#84BE84" rx="3" ry="3" style="stroke: #038048; stroke-width: 1.0;"/><text fill="#000000" font-family="sans-serif" font-size="11" lengthAdjust="spacingAndGlyphs" textLength="213" x="326.5" y="680.7891">__exit__(self, exc_type, exc_val, exc_tb)</text><ellipse cx="317.5" cy="690.1094" fill="#84BE84" rx="3" ry="3" style="stroke: #038048; stroke-width: 1.0;"/><text fill="#000000" font-family="sans-serif" font-size="11" lengthAdjust="spacingAndGlyphs" textLength="90" x="326.5" y="693.7441">print(self, result)</text><ellipse cx="317.5" cy="703.0645" fill="#84BE84" rx="3" ry="3" style="stroke: #038048; stroke-width: 1.0;"/><text fill="#000000" font-family="sans-serif" font-size="11" lengthAdjust="spacingAndGlyphs" textLength="121" x="326.5" y="706.6992">result(self, title, result)</text></a><!--MD5=[ad472f876b41c377ab9c2f7fd723b528]
class benchmarkstt.output.core.SimpleTextBase--><a href="https://benchmarkstt.readthedocs.io/en/latest/modules/benchmarkstt.output.core.html#benchmarkstt.output.core.SimpleTextBase" target="_top" title="https://benchmarkstt.readthedocs.io/en/latest/modules/benchmarkstt.output.core.html#benchmarkstt.output.core.SimpleTextBase" xlink:actuate="onRequest" xlink:href="https://benchmarkstt.readthedocs.io/en/latest/modules/benchmarkstt.output.core.html#benchmarkstt.output.core.SimpleTextBase" xlink:show="new" xlink:title="https://benchmarkstt.readthedocs.io/en/latest/modules/benchmarkstt.output.core.html#benchmarkstt.output.core.SimpleTextBase" xlink:type="simple"><rect fill="#FEFECE" filter="url(#fhdxd5jrcz4xk)" height="99.8203" id="benchmarkstt.output.core.SimpleTextBase" style="stroke: #A80036; stroke-width: 1.5;" width="239" x="32.5" y="331.1992"/><ellipse cx="102.25" cy="347.1992" fill="#ADD1B2" rx="11" ry="11" style="stroke: #A80036; stroke-width: 1.0;"/><path d="M104.7231,353.3423 Q104.1421,353.6411 103.5029,353.7905 Q102.8638,353.9399 102.1582,353.9399 Q99.6514,353.9399 98.3315,352.2881 Q97.0117,350.6362 97.0117,347.5151 Q97.0117,344.3857 98.3315,342.7339 Q99.6514,341.082 102.1582,341.082 Q102.8638,341.082 103.5112,341.2314 Q104.1587,341.3809 104.7231,341.6797 L104.7231,344.4023 Q104.0923,343.8213 103.4988,343.5515 Q102.9053,343.2817 102.2744,343.2817 Q100.9297,343.2817 100.2449,344.3484 Q99.5601,345.415 99.5601,347.5151 Q99.5601,349.6069 100.2449,350.6736 Q100.9297,351.7402 102.2744,351.7402 Q102.9053,351.7402 103.4988,351.4705 Q104.0923,351.2007 104.7231,350.6196 Z "/><text fill="#000000" font-family="sans-serif" font-size="12" lengthAdjust="spacingAndGlyphs" textLength="91" x="122.75" y="351.7344">SimpleTextBase</text><line style="stroke: #A80036; stroke-width: 1.5;" x1="33.5" x2="270.5" y1="363.1992" y2="363.1992"/><line style="stroke: #A80036; stroke-width: 1.5;" x1="33.5" x2="270.5" y1="371.1992" y2="371.1992"/><ellipse cx="43.5" cy="382.1992" fill="#84BE84" rx="3" ry="3" style="stroke: #038048; stroke-width: 1.0;"/><text fill="#000000" font-family="sans-serif" font-size="11" lengthAdjust="spacingAndGlyphs" textLength="79" x="52.5" y="385.834">__enter__(self)</text><ellipse cx="43.5" cy="395.1543" fill="#84BE84" rx="3" ry="3" style="stroke: #038048; stroke-width: 1.0;"/><text fill="#000000" font-family="sans-serif" font-size="11" lengthAdjust="spacingAndGlyphs" textLength="213" x="52.5" y="398.7891">__exit__(self, exc_type, exc_val, exc_tb)</text><ellipse cx="43.5" cy="408.1094" fill="#84BE84" rx="3" ry="3" style="stroke: #038048; stroke-width: 1.0;"/><text fill="#000000" font-family="sans-serif" font-size="11" lengthAdjust="spacingAndGlyphs" textLength="90" x="52.5" y="411.7441">print(self, result)</text><ellipse cx="43.5" cy="421.0645" fill="#84BE84" rx="3" ry="3" style="stroke: #038048; stroke-width: 1.0;"/><text fill="#000000" font-family="sans-serif" font-size="11" lengthAdjust="spacingAndGlyphs" textLength="121" x="52.5" y="424.6992">result(self, title, result)</text></a><!--MD5=[b4ba39b199d1ae7f900ea69508af4a3d]
reverse link benchmarkstt.output.Base to benchmarkstt.output.core.Json--><path d="M237.66,164.6692 C280.78,214.0092 342.04,284.1192 382.86,330.8292 " fill="none" id="benchmarkstt.output.Base&lt;-benchmarkstt.output.core.Json" style="stroke: #A80036; stroke-width: 1.0;"/><polygon fill="none" points="232.23,169.0992,224.34,149.4292,242.78,159.8892,232.23,169.0992" style="stroke: #A80036; stroke-width: 1.0;"/><!--MD5=[649e8d6b5a19579f64f6ff55d9b80603]
reverse link benchmarkstt.output.core.SimpleTextBase to benchmarkstt.output.core.MarkDown--><path d="M152,451.3592 C152,501.5892 152,568.3392 152,613.1592 " fill="none" id="benchmarkstt.output.core.SimpleTextBase&lt;-benchmarkstt.output.core.MarkDown" style="stroke: #A80036; stroke-width: 1.0;"/><polygon fill="none" points="145,451.2892,152,431.2892,159,451.2892,145,451.2892" style="stroke: #A80036; stroke-width: 1.0;"/><!--MD5=[0064dcd89a9c0ed1362beefa7e7418bc]
reverse link benchmarkstt.output.core.SimpleTextBase to benchmarkstt.output.core.ReStructuredText--><path d="M214.16,445.7192 C263.85,496.4992 332.49,566.6492 378.01,613.1592 " fill="none" id="benchmarkstt.output.core.SimpleTextBase&lt;-benchmarkstt.output.core.ReStructuredText" style="stroke: #A80036; stroke-width: 1.0;"/><polygon fill="none" points="209.03,450.4792,200.04,431.2892,219.03,440.6892,209.03,450.4792" style="stroke: #A80036; stroke-width: 1.0;"/><!--MD5=[ec4fe02a8646f37173536f5ee390896c]
reverse link benchmarkstt.output.Base to benchmarkstt.output.core.SimpleTextBase--><path d="M178.96,169.5392 C172.69,218.5392 164.1,285.6392 158.32,330.8292 " fill="none" id="benchmarkstt.output.Base&lt;-benchmarkstt.output.core.SimpleTextBase" style="stroke: #A80036; stroke-width: 1.0;"/><polygon fill="none" points="172.05,168.3792,181.53,149.4292,185.94,170.1592,172.05,168.3792" style="stroke: #A80036; stroke-width: 1.0;"/><!--MD5=[2ef48cb635b4700d51fe3ae3ed681e16]
@startuml

title benchmarkstt.output

package benchmarkstt.output {

	class benchmarkstt.output.Base [[https://benchmarkstt.readthedocs.io/en/latest/modules/benchmarkstt.output.html#benchmarkstt.output.Base]] {
		+__enter__(self)
		+__exit__(self, exc_type, exc_val, exc_tb)
		+result(self, title, result)
	}


}

package benchmarkstt.output.core {

	class benchmarkstt.output.core.Json [[https://benchmarkstt.readthedocs.io/en/latest/modules/benchmarkstt.output.core.html#benchmarkstt.output.core.Json]] {
		+__enter__(self)
		+__exit__(self, exc_type, exc_val, exc_tb)
		+__init__(self)
		+result(self, title, result)
	}


	class benchmarkstt.output.core.MarkDown [[https://benchmarkstt.readthedocs.io/en/latest/modules/benchmarkstt.output.core.html#benchmarkstt.output.core.MarkDown]] {
		+__enter__(self)
		+__exit__(self, exc_type, exc_val, exc_tb)
		+print(self, result)
		+result(self, title, result)
	}



	class benchmarkstt.output.core.ReStructuredText [[https://benchmarkstt.readthedocs.io/en/latest/modules/benchmarkstt.output.core.html#benchmarkstt.output.core.ReStructuredText]] {
		+__enter__(self)
		+__exit__(self, exc_type, exc_val, exc_tb)
		+print(self, result)
		+result(self, title, result)
	}



	class benchmarkstt.output.core.SimpleTextBase [[https://benchmarkstt.readthedocs.io/en/latest/modules/benchmarkstt.output.core.html#benchmarkstt.output.core.SimpleTextBase]] {
		+__enter__(self)
		+__exit__(self, exc_type, exc_val, exc_tb)
		+print(self, result)
		+result(self, title, result)
	}

}


benchmarkstt.output.core.Json - -up- -|> benchmarkstt.output.Base
benchmarkstt.output.core.MarkDown - -up- -|> benchmarkstt.output.core.SimpleTextBase
benchmarkstt.output.core.ReStructuredText - -up- -|> benchmarkstt.output.core.SimpleTextBase
benchmarkstt.output.core.SimpleTextBase - -up- -|> benchmarkstt.output.Base

@enduml

PlantUML version 1.2020.15(Sun Jun 28 13:39:45 CEST 2020)
(GPL source distribution)
Java Runtime: OpenJDK Runtime Environment
JVM: OpenJDK 64-Bit Server VM
Default Encoding: UTF-8
Language: en
Country: BE
--></g></svg>