<?xml version="1.0" encoding="UTF-8" standalone="no"?><svg xmlns="http://www.w3.org/2000/svg" xmlns:xlink="http://www.w3.org/1999/xlink" contentScriptType="application/ecmascript" contentStyleType="text/css" height="280px" preserveAspectRatio="none" style="width:386px;height:280px;" version="1.1" viewBox="0 0 386 280" width="386px" zoomAndPan="magnify"><defs><filter height="300%" id="f1qmeupk4eivrs" width="300%" x="-1" y="-1"><feGaussianBlur result="blurOut" stdDeviation="2.0"/><feColorMatrix in="blurOut" result="blurOut2" type="matrix" values="0 0 0 0 0 0 0 0 0 0 0 0 0 0 0 0 0 0 .4 0"/><feOffset dx="4.0" dy="4.0" in="blurOut2" result="blurOut3"/><feBlend in="SourceGraphic" in2="blurOut3" mode="normal"/></filter></defs><g><!--MD5=[65eb5fcee437765d99707c9196661bb6]
cluster benchmarkstt.segmentation--><a href="https://benchmarkstt.readthedocs.io/en/latest/modules/benchmarkstt.segmentation.html#" target="_top" title="https://benchmarkstt.readthedocs.io/en/latest/modules/benchmarkstt.segmentation.html#" xlink:actuate="onRequest" xlink:href="https://benchmarkstt.readthedocs.io/en/latest/modules/benchmarkstt.segmentation.html#" xlink:show="new" xlink:title="https://benchmarkstt.readthedocs.io/en/latest/modules/benchmarkstt.segmentation.html#" xlink:type="simple"><rect fill="#FFFFFF" filter="url(#f1qmeupk4eivrs)" height="105" style="stroke: #000000; stroke-width: 1.5;" width="217" x="80" y="7"/><path d="M291,8 L291,16.4883 L281,26.4883 L80,26.4883 " fill="none" style="stroke: #000000; stroke-width: 1.5;"/><text fill="#000000" font-family="sans-serif" font-size="14" font-weight="bold" lengthAdjust="spacingAndGlyphs" textLength="201" x="83" y="21.5352">benchmarkstt.segmentation</text></a><!--MD5=[bbd7f55af96c8522598147a787b5c5b9]
cluster benchmarkstt.segmentation.core--><a href="https://benchmarkstt.readthedocs.io/en/latest/modules/benchmarkstt.segmentation.core.html#" target="_top" title="https://benchmarkstt.readthedocs.io/en/latest/modules/benchmarkstt.segmentation.core.html#" xlink:actuate="onRequest" xlink:href="https://benchmarkstt.readthedocs.io/en/latest/modules/benchmarkstt.segmentation.core.html#" xlink:show="new" xlink:title="https://benchmarkstt.readthedocs.io/en/latest/modules/benchmarkstt.segmentation.core.html#" xlink:type="simple"><rect fill="#FFFFFF" filter="url(#f1qmeupk4eivrs)" height="127" style="stroke: #000000; stroke-width: 1.5;" width="362" x="7" y="136"/><path d="M251,137 L251,145.4883 L241,155.4883 L7,155.4883 " fill="none" style="stroke: #000000; stroke-width: 1.5;"/><text fill="#000000" font-family="sans-serif" font-size="14" font-weight="bold" lengthAdjust="spacingAndGlyphs" textLength="234" x="10" y="150.5352">benchmarkstt.segmentation.core</text></a><!--MD5=[002c34d32132957f7ddeee40910e80d3]
class benchmarkstt.segmentation.Base--><a href="https://benchmarkstt.readthedocs.io/en/latest/modules/benchmarkstt.segmentation.html#benchmarkstt.segmentation.Base" target="_top" title="https://benchmarkstt.readthedocs.io/en/latest/modules/benchmarkstt.segmentation.html#benchmarkstt.segmentation.Base" xlink:actuate="onRequest" xlink:href="https://benchmarkstt.readthedocs.io/en/latest/modules/benchmarkstt.segmentation.html#benchmarkstt.segmentation.Base" xlink:show="new" xlink:title="https://benchmarkstt.readthedocs.io/en/latest/modules/benchmarkstt.segmentation.html#benchmarkstt.segmentation.Base" xlink:type="simple"><rect fill="#FEFECE" filter="url(#f1qmeupk4eivrs)" height="54.2656" id="benchmarkstt.segmentation.Base" style="stroke: #A80036; stroke-width: 1.5;" width="84" x="146" y="42"/><ellipse cx="161" cy="61.1328" fill="#ADD1B2" rx="11" ry="11" style="stroke: #A80036; stroke-width: 1.0;"/><path d="M163.4731,67.2759 Q162.8921,67.5747 162.2529,67.7241 Q161.6138,67.8735 160.9082,67.8735 Q158.4014,67.8735 157.0815,66.2217 Q155.7617,64.5698 155.7617,61.4487 Q155.7617,58.3193 157.0815,56.6675 Q158.4014,55.0156 160.9082,55.0156 Q161.6138,55.0156 162.2612,55.165 Q162.9087,55.3145 163.4731,55.6133 L163.4731,58.3359 Q162.8423,57.7549 162.2488,57.4851 Q161.6553,57.2153 161.0244,57.2153 Q159.6797,57.2153 158.9949,58.282 Q158.3101,59.3486 158.3101,61.4487 Q158.3101,63.5405 158.9949,64.6072 Q159.6797,65.6738 161.0244,65.6738 Q161.6553,65.6738 162.2488,65.4041 Q162.8423,65.1343 163.4731,64.5532 Z "/><text fill="#000000" font-family="sans-serif" font-size="12" font-style="italic" lengthAdjust="spacingAndGlyphs" textLength="56" x="173" y="58.6016">«Iterable»</text><text fill="#000000" font-family="sans-serif" font-size="12" lengthAdjust="spacingAndGlyphs" textLength="27" x="187.5" y="72.7344">Base</text><line style="stroke: #A80036; stroke-width: 1.5;" x1="147" x2="229" y1="80.2656" y2="80.2656"/><line style="stroke: #A80036; stroke-width: 1.5;" x1="147" x2="229" y1="88.2656" y2="88.2656"/></a><!--MD5=[e6682fb9f1ffb38935fc3ffe4e96004d]
class benchmarkstt.segmentation.core.Simple--><a href="https://benchmarkstt.readthedocs.io/en/latest/modules/benchmarkstt.segmentation.core.html#benchmarkstt.segmentation.core.Simple" target="_top" title="https://benchmarkstt.readthedocs.io/en/latest/modules/benchmarkstt.segmentation.core.html#benchmarkstt.segmentation.core.Simple" xlink:actuate="onRequest" xlink:href="https://benchmarkstt.readthedocs.io/en/latest/modules/benchmarkstt.segmentation.core.html#benchmarkstt.segmentation.core.Simple" xlink:show="new" xlink:title="https://benchmarkstt.readthedocs.io/en/latest/modules/benchmarkstt.segmentation.core.html#benchmarkstt.segmentation.core.Simple" xlink:type="simple"><rect fill="#FEFECE" filter="url(#f1qmeupk4eivrs)" height="76.1758" id="benchmarkstt.segmentation.core.Simple" style="stroke: #A80036; stroke-width: 1.5;" width="330" x="23" y="171"/><ellipse cx="157.75" cy="190.1328" fill="#ADD1B2" rx="11" ry="11" style="stroke: #A80036; stroke-width: 1.0;"/><path d="M160.2231,196.2759 Q159.6421,196.5747 159.0029,196.7241 Q158.3638,196.8735 157.6582,196.8735 Q155.1514,196.8735 153.8315,195.2217 Q152.5117,193.5698 152.5117,190.4487 Q152.5117,187.3193 153.8315,185.6675 Q155.1514,184.0156 157.6582,184.0156 Q158.3638,184.0156 159.0112,184.165 Q159.6587,184.3145 160.2231,184.6133 L160.2231,187.3359 Q159.5923,186.7549 158.9988,186.4851 Q158.4053,186.2153 157.7744,186.2153 Q156.4297,186.2153 155.7449,187.282 Q155.0601,188.3486 155.0601,190.4487 Q155.0601,192.5405 155.7449,193.6072 Q156.4297,194.6738 157.7744,194.6738 Q158.4053,194.6738 158.9988,194.4041 Q159.5923,194.1343 160.2231,193.5532 Z "/><text fill="#000000" font-family="sans-serif" font-size="12" font-style="italic" lengthAdjust="spacingAndGlyphs" textLength="56" x="176.25" y="187.6016">«Iterable»</text><text fill="#000000" font-family="sans-serif" font-size="12" lengthAdjust="spacingAndGlyphs" textLength="38" x="185.25" y="201.7344">Simple</text><line style="stroke: #A80036; stroke-width: 1.5;" x1="24" x2="352" y1="209.2656" y2="209.2656"/><ellipse cx="34" cy="237.2207" fill="#84BE84" rx="3" ry="3" style="stroke: #038048; stroke-width: 1.0;"/><text fill="#000000" font-family="sans-serif" font-size="11" lengthAdjust="spacingAndGlyphs" textLength="304" x="43" y="240.8555">__init__(text: str, pattern='[\n\t\s]+', normalizer=None)</text><line style="stroke: #A80036; stroke-width: 1.0; stroke-dasharray: 1.0,2.0;" x1="24" x2="147.5" y1="223.7432" y2="223.7432"/><text fill="#000000" font-family="sans-serif" font-size="11" lengthAdjust="spacingAndGlyphs" textLength="81" x="147.5" y="227.4004">Public Methods</text><line style="stroke: #A80036; stroke-width: 1.0; stroke-dasharray: 1.0,2.0;" x1="228.5" x2="352" y1="223.7432" y2="223.7432"/></a><!--MD5=[ec6170c354b4ffc3f1d5dae0d39c7b48]
reverse link benchmarkstt.segmentation.Base to benchmarkstt.segmentation.core.Simple--><path d="M188,116.43 C188,134.16 188,154.12 188,170.87 " fill="none" id="benchmarkstt.segmentation.Base&lt;-benchmarkstt.segmentation.core.Simple" style="stroke: #A80036; stroke-width: 1.0;"/><polygon fill="none" points="181,116.28,188,96.28,195,116.28,181,116.28" style="stroke: #A80036; stroke-width: 1.0;"/><!--MD5=[115de13ec6096ca45a587261fb1737c4]
@startuml

skinparam packageStyle Frame
package benchmarkstt.segmentation [[https://benchmarkstt.readthedocs.io/en/latest/modules/benchmarkstt.segmentation.html#]] {

	class benchmarkstt.segmentation.Base << Iterable >>  [[https://benchmarkstt.readthedocs.io/en/latest/modules/benchmarkstt.segmentation.html#benchmarkstt.segmentation.Base]] {
	}
}

package benchmarkstt.segmentation.core [[https://benchmarkstt.readthedocs.io/en/latest/modules/benchmarkstt.segmentation.core.html#]] {

	class benchmarkstt.segmentation.core.Simple << Iterable >>  [[https://benchmarkstt.readthedocs.io/en/latest/modules/benchmarkstt.segmentation.core.html#benchmarkstt.segmentation.core.Simple]] extends benchmarkstt.segmentation.Base {
		.. Public Methods ..
		+__init__(text: str, pattern='[\\n\\t\\s]+', normalizer=None)
	}
}




@enduml

PlantUML version 1.2020.15(Sun Jun 28 13:39:45 CEST 2020)
(GPL source distribution)
Java Runtime: OpenJDK Runtime Environment
JVM: OpenJDK 64-Bit Server VM
Default Encoding: UTF-8
Language: en
Country: BE
--></g></svg>