<?xml version="1.0" encoding="UTF-8" standalone="no"?><svg xmlns="http://www.w3.org/2000/svg" xmlns:xlink="http://www.w3.org/1999/xlink" contentScriptType="application/ecmascript" contentStyleType="text/css" height="420px" preserveAspectRatio="none" style="width:1880px;height:420px;" version="1.1" viewBox="0 0 1880 420" width="1880px" zoomAndPan="magnify"><defs><filter height="300%" id="f162koi8zmsp7r" width="300%" x="-1" y="-1"><feGaussianBlur result="blurOut" stdDeviation="2.0"/><feColorMatrix in="blurOut" result="blurOut2" type="matrix" values="0 0 0 0 0 0 0 0 0 0 0 0 0 0 0 0 0 0 .4 0"/><feOffset dx="4.0" dy="4.0" in="blurOut2" result="blurOut3"/><feBlend in="SourceGraphic" in2="blurOut3" mode="normal"/></filter></defs><g><text fill="#000000" font-family="sans-serif" font-size="18" lengthAdjust="spacingAndGlyphs" textLength="189" x="836.5" y="17.4023">Benchmarkstt.metrics</text><!--MD5=[22ea792f0a86ed46e658ff5419811104]
cluster benchmarkstt.metrics--><polygon fill="#FFFFFF" filter="url(#f162koi8zmsp7r)" points="534,27.1992,696,27.1992,703,49.6875,1050,49.6875,1050,139.1992,534,139.1992,534,27.1992" style="stroke: #000000; stroke-width: 1.5;"/><line style="stroke: #000000; stroke-width: 1.5;" x1="534" x2="703" y1="49.6875" y2="49.6875"/><text fill="#000000" font-family="sans-serif" font-size="14" font-weight="bold" lengthAdjust="spacingAndGlyphs" textLength="156" x="538" y="42.7344">benchmarkstt.metrics</text><!--MD5=[144dc3a7777fd2b902a939eb9db82fdd]
cluster benchmarkstt.metrics.core--><polygon fill="#FFFFFF" filter="url(#f162koi8zmsp7r)" points="16,270.1992,211,270.1992,218,292.6875,1858,292.6875,1858,408.1992,16,408.1992,16,270.1992" style="stroke: #000000; stroke-width: 1.5;"/><line style="stroke: #000000; stroke-width: 1.5;" x1="16" x2="218" y1="292.6875" y2="292.6875"/><text fill="#000000" font-family="sans-serif" font-size="14" font-weight="bold" lengthAdjust="spacingAndGlyphs" textLength="189" x="20" y="285.7344">benchmarkstt.metrics.core</text><!--MD5=[5df2e3f9a60f5e68627f199cfdd93bb0]
class benchmarkstt.metrics.Base--><a href="https://benchmarkstt.readthedocs.io/en/latest/modules/benchmarkstt.metrics.html#benchmarkstt.metrics.Base" target="_top" title="https://benchmarkstt.readthedocs.io/en/latest/modules/benchmarkstt.metrics.html#benchmarkstt.metrics.Base" xlink:actuate="onRequest" xlink:href="https://benchmarkstt.readthedocs.io/en/latest/modules/benchmarkstt.metrics.html#benchmarkstt.metrics.Base" xlink:show="new" xlink:title="https://benchmarkstt.readthedocs.io/en/latest/modules/benchmarkstt.metrics.html#benchmarkstt.metrics.Base" xlink:type="simple"><rect fill="#FEFECE" filter="url(#f162koi8zmsp7r)" height="60.9551" id="benchmarkstt.metrics.Base" style="stroke: #A80036; stroke-width: 1.5;" width="483" x="550.5" y="62.1992"/><ellipse cx="774.25" cy="78.1992" fill="#ADD1B2" rx="11" ry="11" style="stroke: #A80036; stroke-width: 1.0;"/><path d="M776.7231,84.3423 Q776.1421,84.6411 775.5029,84.7905 Q774.8638,84.9399 774.1582,84.9399 Q771.6514,84.9399 770.3315,83.2881 Q769.0117,81.6362 769.0117,78.5151 Q769.0117,75.3857 770.3315,73.7339 Q771.6514,72.082 774.1582,72.082 Q774.8638,72.082 775.5112,72.2314 Q776.1587,72.3809 776.7231,72.6797 L776.7231,75.4023 Q776.0923,74.8213 775.4988,74.5515 Q774.9053,74.2817 774.2744,74.2817 Q772.9297,74.2817 772.2449,75.3484 Q771.5601,76.415 771.5601,78.5151 Q771.5601,80.6069 772.2449,81.6736 Q772.9297,82.7402 774.2744,82.7402 Q774.9053,82.7402 775.4988,82.4705 Q776.0923,82.2007 776.7231,81.6196 Z "/><text fill="#000000" font-family="sans-serif" font-size="12" lengthAdjust="spacingAndGlyphs" textLength="27" x="794.75" y="82.7344">Base</text><line style="stroke: #A80036; stroke-width: 1.5;" x1="551.5" x2="1032.5" y1="94.1992" y2="94.1992"/><line style="stroke: #A80036; stroke-width: 1.5;" x1="551.5" x2="1032.5" y1="102.1992" y2="102.1992"/><ellipse cx="561.5" cy="113.1992" fill="#84BE84" rx="3" ry="3" style="stroke: #038048; stroke-width: 1.0;"/><text fill="#000000" font-family="sans-serif" font-size="11" lengthAdjust="spacingAndGlyphs" textLength="457" x="570.5" y="116.834">compare(self, ref: benchmarkstt.schema.Schema, hyp: benchmarkstt.schema.Schema)</text></a><!--MD5=[16641109c0e363d96d1ecc4c603e3de1]
class benchmarkstt.metrics.core.DiffCounts--><a href="https://benchmarkstt.readthedocs.io/en/latest/modules/benchmarkstt.metrics.html#benchmarkstt.metrics.core.DiffCounts" target="_top" title="https://benchmarkstt.readthedocs.io/en/latest/modules/benchmarkstt.metrics.html#benchmarkstt.metrics.core.DiffCounts" xlink:actuate="onRequest" xlink:href="https://benchmarkstt.readthedocs.io/en/latest/modules/benchmarkstt.metrics.html#benchmarkstt.metrics.core.DiffCounts" xlink:show="new" xlink:title="https://benchmarkstt.readthedocs.io/en/latest/modules/benchmarkstt.metrics.html#benchmarkstt.metrics.core.DiffCounts" xlink:type="simple"><rect fill="#FEFECE" filter="url(#f162koi8zmsp7r)" height="73.9102" id="benchmarkstt.metrics.core.DiffCounts" style="stroke: #A80036; stroke-width: 1.5;" width="483" x="32.5" y="311.6992"/><ellipse cx="240.25" cy="327.6992" fill="#ADD1B2" rx="11" ry="11" style="stroke: #A80036; stroke-width: 1.0;"/><path d="M242.7231,333.8423 Q242.1421,334.1411 241.5029,334.2905 Q240.8638,334.4399 240.1582,334.4399 Q237.6514,334.4399 236.3315,332.7881 Q235.0117,331.1362 235.0117,328.0151 Q235.0117,324.8857 236.3315,323.2339 Q237.6514,321.582 240.1582,321.582 Q240.8638,321.582 241.5112,321.7314 Q242.1587,321.8809 242.7231,322.1797 L242.7231,324.9023 Q242.0923,324.3213 241.4988,324.0515 Q240.9053,323.7817 240.2744,323.7817 Q238.9297,323.7817 238.2449,324.8484 Q237.5601,325.915 237.5601,328.0151 Q237.5601,330.1069 238.2449,331.1736 Q238.9297,332.2402 240.2744,332.2402 Q240.9053,332.2402 241.4988,331.9705 Q242.0923,331.7007 242.7231,331.1196 Z "/><text fill="#000000" font-family="sans-serif" font-size="12" lengthAdjust="spacingAndGlyphs" textLength="59" x="260.75" y="332.2344">DiffCounts</text><line style="stroke: #A80036; stroke-width: 1.5;" x1="33.5" x2="514.5" y1="343.6992" y2="343.6992"/><line style="stroke: #A80036; stroke-width: 1.5;" x1="33.5" x2="514.5" y1="351.6992" y2="351.6992"/><ellipse cx="43.5" cy="362.6992" fill="#84BE84" rx="3" ry="3" style="stroke: #038048; stroke-width: 1.0;"/><text fill="#000000" font-family="sans-serif" font-size="11" lengthAdjust="spacingAndGlyphs" textLength="173" x="52.5" y="366.334">__init__(self, differ_class=None)</text><ellipse cx="43.5" cy="375.6543" fill="#84BE84" rx="3" ry="3" style="stroke: #038048; stroke-width: 1.0;"/><text fill="#000000" font-family="sans-serif" font-size="11" lengthAdjust="spacingAndGlyphs" textLength="457" x="52.5" y="379.2891">compare(self, ref: benchmarkstt.schema.Schema, hyp: benchmarkstt.schema.Schema)</text></a><!--MD5=[acc3773e40c658ad934768473fb05324]
class benchmarkstt.metrics.core.OpcodeCounts--><a href="https://benchmarkstt.readthedocs.io/en/latest/modules/benchmarkstt.metrics.html#benchmarkstt.metrics.core.OpcodeCounts" target="_top" title="https://benchmarkstt.readthedocs.io/en/latest/modules/benchmarkstt.metrics.html#benchmarkstt.metrics.core.OpcodeCounts" xlink:actuate="onRequest" xlink:href="https://benchmarkstt.readthedocs.io/en/latest/modules/benchmarkstt.metrics.html#benchmarkstt.metrics.core.OpcodeCounts" xlink:show="new" xlink:title="https://benchmarkstt.readthedocs.io/en/latest/modules/benchmarkstt.metrics.html#benchmarkstt.metrics.core.OpcodeCounts" xlink:type="simple"><rect fill="#FEFECE" filter="url(#f162koi8zmsp7r)" height="86.8652" id="benchmarkstt.metrics.core.OpcodeCounts" style="stroke: #A80036; stroke-width: 1.5;" width="255" x="1068.5" y="305.1992"/><ellipse cx="1149.75" cy="321.1992" fill="#ADD1B2" rx="11" ry="11" style="stroke: #A80036; stroke-width: 1.0;"/><path d="M1152.2231,327.3423 Q1151.6421,327.6411 1151.0029,327.7905 Q1150.3638,327.9399 1149.6582,327.9399 Q1147.1514,327.9399 1145.8315,326.2881 Q1144.5117,324.6362 1144.5117,321.5151 Q1144.5117,318.3857 1145.8315,316.7339 Q1147.1514,315.082 1149.6582,315.082 Q1150.3638,315.082 1151.0112,315.2314 Q1151.6587,315.3809 1152.2231,315.6797 L1152.2231,318.4023 Q1151.5923,317.8213 1150.9988,317.5515 Q1150.4053,317.2817 1149.7744,317.2817 Q1148.4297,317.2817 1147.7449,318.3484 Q1147.0601,319.415 1147.0601,321.5151 Q1147.0601,323.6069 1147.7449,324.6736 Q1148.4297,325.7402 1149.7744,325.7402 Q1150.4053,325.7402 1150.9988,325.4705 Q1151.5923,325.2007 1152.2231,324.6196 Z "/><text fill="#000000" font-family="sans-serif" font-size="12" lengthAdjust="spacingAndGlyphs" textLength="84" x="1170.25" y="325.7344">OpcodeCounts</text><line style="stroke: #A80036; stroke-width: 1.5;" x1="1069.5" x2="1322.5" y1="337.1992" y2="337.1992"/><line style="stroke: #A80036; stroke-width: 1.5;" x1="1069.5" x2="1322.5" y1="345.1992" y2="345.1992"/><ellipse cx="1079.5" cy="356.1992" fill="#84BE84" rx="3" ry="3" style="stroke: #038048; stroke-width: 1.0;"/><text fill="#000000" font-family="sans-serif" font-size="11" lengthAdjust="spacingAndGlyphs" textLength="113" x="1088.5" y="359.834">__getnewargs__(self)</text><ellipse cx="1079.5" cy="369.1543" fill="#84BE84" rx="3" ry="3" style="stroke: #038048; stroke-width: 1.0;"/><text fill="#000000" font-family="sans-serif" font-size="11" lengthAdjust="spacingAndGlyphs" textLength="229" x="1088.5" y="372.7891">__new__(_cls, equal, replace, insert, delete)</text><ellipse cx="1079.5" cy="382.1094" fill="#84BE84" rx="3" ry="3" style="stroke: #038048; stroke-width: 1.0;"/><text fill="#000000" font-family="sans-serif" font-size="11" lengthAdjust="spacingAndGlyphs" textLength="74" x="1088.5" y="385.7441">__repr__(self)</text></a><!--MD5=[1b5fccb2ad4a9064da2e7d8609e9b4b6]
class benchmarkstt.metrics.core.WER--><a href="https://benchmarkstt.readthedocs.io/en/latest/modules/benchmarkstt.metrics.html#benchmarkstt.metrics.core.WER" target="_top" title="https://benchmarkstt.readthedocs.io/en/latest/modules/benchmarkstt.metrics.html#benchmarkstt.metrics.core.WER" xlink:actuate="onRequest" xlink:href="https://benchmarkstt.readthedocs.io/en/latest/modules/benchmarkstt.metrics.html#benchmarkstt.metrics.core.WER" xlink:show="new" xlink:title="https://benchmarkstt.readthedocs.io/en/latest/modules/benchmarkstt.metrics.html#benchmarkstt.metrics.core.WER" xlink:type="simple"><rect fill="#FEFECE" filter="url(#f162koi8zmsp7r)" height="73.9102" id="benchmarkstt.metrics.core.WER" style="stroke: #A80036; stroke-width: 1.5;" width="483" x="550.5" y="311.6992"/><ellipse cx="775.25" cy="327.6992" fill="#ADD1B2" rx="11" ry="11" style="stroke: #A80036; stroke-width: 1.0;"/><path d="M777.7231,333.8423 Q777.1421,334.1411 776.5029,334.2905 Q775.8638,334.4399 775.1582,334.4399 Q772.6514,334.4399 771.3315,332.7881 Q770.0117,331.1362 770.0117,328.0151 Q770.0117,324.8857 771.3315,323.2339 Q772.6514,321.582 775.1582,321.582 Q775.8638,321.582 776.5112,321.7314 Q777.1587,321.8809 777.7231,322.1797 L777.7231,324.9023 Q777.0923,324.3213 776.4988,324.0515 Q775.9053,323.7817 775.2744,323.7817 Q773.9297,323.7817 773.2449,324.8484 Q772.5601,325.915 772.5601,328.0151 Q772.5601,330.1069 773.2449,331.1736 Q773.9297,332.2402 775.2744,332.2402 Q775.9053,332.2402 776.4988,331.9705 Q777.0923,331.7007 777.7231,331.1196 Z "/><text fill="#000000" font-family="sans-serif" font-size="12" lengthAdjust="spacingAndGlyphs" textLength="25" x="795.75" y="332.2344">WER</text><line style="stroke: #A80036; stroke-width: 1.5;" x1="551.5" x2="1032.5" y1="343.6992" y2="343.6992"/><line style="stroke: #A80036; stroke-width: 1.5;" x1="551.5" x2="1032.5" y1="351.6992" y2="351.6992"/><ellipse cx="561.5" cy="362.6992" fill="#84BE84" rx="3" ry="3" style="stroke: #038048; stroke-width: 1.0;"/><text fill="#000000" font-family="sans-serif" font-size="11" lengthAdjust="spacingAndGlyphs" textLength="246" x="570.5" y="366.334">__init__(self, mode=None, differ_class=None)</text><ellipse cx="561.5" cy="375.6543" fill="#84BE84" rx="3" ry="3" style="stroke: #038048; stroke-width: 1.0;"/><text fill="#000000" font-family="sans-serif" font-size="11" lengthAdjust="spacingAndGlyphs" textLength="457" x="570.5" y="379.2891">compare(self, ref: benchmarkstt.schema.Schema, hyp: benchmarkstt.schema.Schema)</text></a><!--MD5=[ef94872a4633e4f53c81dbb8c48f7a6f]
class benchmarkstt.metrics.core.WordDiffs--><a href="https://benchmarkstt.readthedocs.io/en/latest/modules/benchmarkstt.metrics.html#benchmarkstt.metrics.core.WordDiffs" target="_top" title="https://benchmarkstt.readthedocs.io/en/latest/modules/benchmarkstt.metrics.html#benchmarkstt.metrics.core.WordDiffs" xlink:actuate="onRequest" xlink:href="https://benchmarkstt.readthedocs.io/en/latest/modules/benchmarkstt.metrics.html#benchmarkstt.metrics.core.WordDiffs" xlink:show="new" xlink:title="https://benchmarkstt.readthedocs.io/en/latest/modules/benchmarkstt.metrics.html#benchmarkstt.metrics.core.WordDiffs" xlink:type="simple"><rect fill="#FEFECE" filter="url(#f162koi8zmsp7r)" height="73.9102" id="benchmarkstt.metrics.core.WordDiffs" style="stroke: #A80036; stroke-width: 1.5;" width="483" x="1358.5" y="311.6992"/><ellipse cx="1567.75" cy="327.6992" fill="#ADD1B2" rx="11" ry="11" style="stroke: #A80036; stroke-width: 1.0;"/><path d="M1570.2231,333.8423 Q1569.6421,334.1411 1569.0029,334.2905 Q1568.3638,334.4399 1567.6582,334.4399 Q1565.1514,334.4399 1563.8315,332.7881 Q1562.5117,331.1362 1562.5117,328.0151 Q1562.5117,324.8857 1563.8315,323.2339 Q1565.1514,321.582 1567.6582,321.582 Q1568.3638,321.582 1569.0112,321.7314 Q1569.6587,321.8809 1570.2231,322.1797 L1570.2231,324.9023 Q1569.5923,324.3213 1568.9988,324.0515 Q1568.4053,323.7817 1567.7744,323.7817 Q1566.4297,323.7817 1565.7449,324.8484 Q1565.0601,325.915 1565.0601,328.0151 Q1565.0601,330.1069 1565.7449,331.1736 Q1566.4297,332.2402 1567.7744,332.2402 Q1568.4053,332.2402 1568.9988,331.9705 Q1569.5923,331.7007 1570.2231,331.1196 Z "/><text fill="#000000" font-family="sans-serif" font-size="12" lengthAdjust="spacingAndGlyphs" textLength="56" x="1588.25" y="332.2344">WordDiffs</text><line style="stroke: #A80036; stroke-width: 1.5;" x1="1359.5" x2="1840.5" y1="343.6992" y2="343.6992"/><line style="stroke: #A80036; stroke-width: 1.5;" x1="1359.5" x2="1840.5" y1="351.6992" y2="351.6992"/><ellipse cx="1369.5" cy="362.6992" fill="#84BE84" rx="3" ry="3" style="stroke: #038048; stroke-width: 1.0;"/><text fill="#000000" font-family="sans-serif" font-size="11" lengthAdjust="spacingAndGlyphs" textLength="251" x="1378.5" y="366.334">__init__(self, dialect=None, differ_class=None)</text><ellipse cx="1369.5" cy="375.6543" fill="#84BE84" rx="3" ry="3" style="stroke: #038048; stroke-width: 1.0;"/><text fill="#000000" font-family="sans-serif" font-size="11" lengthAdjust="spacingAndGlyphs" textLength="457" x="1378.5" y="379.2891">compare(self, ref: benchmarkstt.schema.Schema, hyp: benchmarkstt.schema.Schema)</text></a><!--MD5=[0e20ec8c1c3e6f52fb3eaed392cf3205]
reverse link benchmarkstt.metrics.Base to benchmarkstt.metrics.core.DiffCounts--><path d="M713.84,132.0292 C614.53,180.7192 444.43,264.1292 347.44,311.6892 " fill="none" id="benchmarkstt.metrics.Base&lt;-benchmarkstt.metrics.core.DiffCounts" style="stroke: #A80036; stroke-width: 1.0;"/><polygon fill="none" points="710.78,125.7292,731.82,123.2092,716.94,138.2992,710.78,125.7292" style="stroke: #A80036; stroke-width: 1.0;"/><!--MD5=[30299ce62ca518511ed25a5a2ec7aa2b]
reverse link benchmarkstt.metrics.Base to benchmarkstt.metrics.core.WER--><path d="M792,143.4092 C792,192.7592 792,267.2292 792,311.3092 " fill="none" id="benchmarkstt.metrics.Base&lt;-benchmarkstt.metrics.core.WER" style="stroke: #A80036; stroke-width: 1.0;"/><polygon fill="none" points="785,143.3292,792,123.3292,799,143.3292,785,143.3292" style="stroke: #A80036; stroke-width: 1.0;"/><!--MD5=[4985c6bdcdda9aa3aac1b42ffb8ef9ca]
reverse link benchmarkstt.metrics.Base to benchmarkstt.metrics.core.WordDiffs--><path d="M909.76,129.0592 C1021.08,162.6692 1192.68,214.9592 1341,262.1992 C1390.86,278.0792 1445.93,296.1792 1492.42,311.6292 " fill="none" id="benchmarkstt.metrics.Base&lt;-benchmarkstt.metrics.core.WordDiffs" style="stroke: #A80036; stroke-width: 1.0;"/><polygon fill="none" points="907.5,135.6892,890.38,123.2092,911.54,122.2892,907.5,135.6892" style="stroke: #A80036; stroke-width: 1.0;"/><!--MD5=[4d3d762adf87831c57740bb39e3ecd73]
@startuml
title Benchmarkstt.metrics
		class benchmarkstt.metrics.Base [[https://benchmarkstt.readthedocs.io/en/latest/modules/benchmarkstt.metrics.html#benchmarkstt.metrics.Base]] {
			+compare(self, ref: benchmarkstt.schema.Schema, hyp: benchmarkstt.schema.Schema)
		}
		class benchmarkstt.metrics.core.DiffCounts [[https://benchmarkstt.readthedocs.io/en/latest/modules/benchmarkstt.metrics.html#benchmarkstt.metrics.core.DiffCounts]] {
			+__init__(self, differ_class=None)
			+compare(self, ref: benchmarkstt.schema.Schema, hyp: benchmarkstt.schema.Schema)
		}
		class benchmarkstt.metrics.core.OpcodeCounts [[https://benchmarkstt.readthedocs.io/en/latest/modules/benchmarkstt.metrics.html#benchmarkstt.metrics.core.OpcodeCounts]] {
			+__getnewargs__(self)
			+__new__(_cls, equal, replace, insert, delete)
			+__repr__(self)
		}
		class benchmarkstt.metrics.core.WER [[https://benchmarkstt.readthedocs.io/en/latest/modules/benchmarkstt.metrics.html#benchmarkstt.metrics.core.WER]] {
			+__init__(self, mode=None, differ_class=None)
			+compare(self, ref: benchmarkstt.schema.Schema, hyp: benchmarkstt.schema.Schema)
		}
		class benchmarkstt.metrics.core.WordDiffs [[https://benchmarkstt.readthedocs.io/en/latest/modules/benchmarkstt.metrics.html#benchmarkstt.metrics.core.WordDiffs]] {
			+__init__(self, dialect=None, differ_class=None)
			+compare(self, ref: benchmarkstt.schema.Schema, hyp: benchmarkstt.schema.Schema)
		}

benchmarkstt.metrics.core.DiffCounts - -up- -|> benchmarkstt.metrics.Base
benchmarkstt.metrics.core.WER - -up- -|> benchmarkstt.metrics.Base
benchmarkstt.metrics.core.WordDiffs - -up- -|> benchmarkstt.metrics.Base
@enduml

PlantUML version 1.2020.15(Sun Jun 28 11:39:45 UTC 2020)
(GPL source distribution)
Java Runtime: OpenJDK Runtime Environment
JVM: OpenJDK 64-Bit Server VM
Default Encoding: UTF-8
Language: en
Country: BE
--></g></svg>