<?xml version="1.0" encoding="UTF-8" standalone="no"?><svg xmlns="http://www.w3.org/2000/svg" xmlns:xlink="http://www.w3.org/1999/xlink" contentScriptType="application/ecmascript" contentStyleType="text/css" height="558px" preserveAspectRatio="none" style="width:2804px;height:558px;" version="1.1" viewBox="0 0 2804 558" width="2804px" zoomAndPan="magnify"><defs><filter height="300%" id="fbw0l2g67foyu" width="300%" x="-1" y="-1"><feGaussianBlur result="blurOut" stdDeviation="2.0"/><feColorMatrix in="blurOut" result="blurOut2" type="matrix" values="0 0 0 0 0 0 0 0 0 0 0 0 0 0 0 0 0 0 .4 0"/><feOffset dx="4.0" dy="4.0" in="blurOut2" result="blurOut3"/><feBlend in="SourceGraphic" in2="blurOut3" mode="normal"/></filter></defs><g><text fill="#000000" font-family="sans-serif" font-size="18" lengthAdjust="spacingAndGlyphs" textLength="245" x="1270.5" y="17.4023">Benchmarkstt.normalization</text><!--MD5=[21b0319e9060801d48106058fdfb14d4]
cluster benchmarkstt.normalization.logger--><polygon fill="#FFFFFF" filter="url(#fbw0l2g67foyu)" points="16,27.1992,274,27.1992,281,49.6875,806,49.6875,806,325.1992,16,325.1992,16,27.1992" style="stroke: #000000; stroke-width: 1.5;"/><line style="stroke: #000000; stroke-width: 1.5;" x1="16" x2="281" y1="49.6875" y2="49.6875"/><text fill="#000000" font-family="sans-serif" font-size="14" font-weight="bold" lengthAdjust="spacingAndGlyphs" textLength="252" x="20" y="42.7344">benchmarkstt.normalization.logger</text><!--MD5=[24f62e7049ba18d46b504c61d91c5470]
cluster benchmarkstt.normalization--><polygon fill="#FFFFFF" filter="url(#fbw0l2g67foyu)" points="830,72.6992,1039,72.6992,1046,95.1875,1104,95.1875,1104,546.1992,830,546.1992,830,72.6992" style="stroke: #000000; stroke-width: 1.5;"/><line style="stroke: #000000; stroke-width: 1.5;" x1="830" x2="1046" y1="95.1875" y2="95.1875"/><text fill="#000000" font-family="sans-serif" font-size="14" font-weight="bold" lengthAdjust="spacingAndGlyphs" textLength="203" x="834" y="88.2344">benchmarkstt.normalization</text><!--MD5=[32fbec9dac052c23fb29020cf729fbb3]
cluster benchmarkstt.normalization.core--><polygon fill="#FFFFFF" filter="url(#fbw0l2g67foyu)" points="1128,401.6992,1370,401.6992,1377,424.1875,2782,424.1875,2782,539.6992,1128,539.6992,1128,401.6992" style="stroke: #000000; stroke-width: 1.5;"/><line style="stroke: #000000; stroke-width: 1.5;" x1="1128" x2="1377" y1="424.1875" y2="424.1875"/><text fill="#000000" font-family="sans-serif" font-size="14" font-weight="bold" lengthAdjust="spacingAndGlyphs" textLength="236" x="1132" y="417.2344">benchmarkstt.normalization.core</text><!--MD5=[6dca48626f46c017664d0e7f9a8524a0]
class benchmarkstt.normalization.logger.LogCapturer--><a href="https://benchmarkstt.readthedocs.io/en/latest/modules/benchmarkstt.normalization.html#benchmarkstt.normalization.logger.LogCapturer" target="_top" title="https://benchmarkstt.readthedocs.io/en/latest/modules/benchmarkstt.normalization.html#benchmarkstt.normalization.logger.LogCapturer" xlink:actuate="onRequest" xlink:href="https://benchmarkstt.readthedocs.io/en/latest/modules/benchmarkstt.normalization.html#benchmarkstt.normalization.logger.LogCapturer" xlink:show="new" xlink:title="https://benchmarkstt.readthedocs.io/en/latest/modules/benchmarkstt.normalization.html#benchmarkstt.normalization.logger.LogCapturer" xlink:type="simple"><rect fill="#FEFECE" filter="url(#fbw0l2g67foyu)" height="86.8652" id="benchmarkstt.normalization.logger.LogCapturer" style="stroke: #A80036; stroke-width: 1.5;" width="239" x="32.5" y="88.1992"/><ellipse cx="112.25" cy="104.1992" fill="#ADD1B2" rx="11" ry="11" style="stroke: #A80036; stroke-width: 1.0;"/><path d="M114.7231,110.3423 Q114.1421,110.6411 113.5029,110.7905 Q112.8638,110.9399 112.1582,110.9399 Q109.6514,110.9399 108.3315,109.2881 Q107.0117,107.6362 107.0117,104.5151 Q107.0117,101.3857 108.3315,99.7339 Q109.6514,98.082 112.1582,98.082 Q112.8638,98.082 113.5112,98.2314 Q114.1587,98.3809 114.7231,98.6797 L114.7231,101.4023 Q114.0923,100.8213 113.4988,100.5515 Q112.9053,100.2817 112.2744,100.2817 Q110.9297,100.2817 110.2449,101.3484 Q109.5601,102.415 109.5601,104.5151 Q109.5601,106.6069 110.2449,107.6736 Q110.9297,108.7402 112.2744,108.7402 Q112.9053,108.7402 113.4988,108.4705 Q114.0923,108.2007 114.7231,107.6196 Z "/><text fill="#000000" font-family="sans-serif" font-size="12" lengthAdjust="spacingAndGlyphs" textLength="71" x="132.75" y="108.7344">LogCapturer</text><line style="stroke: #A80036; stroke-width: 1.5;" x1="33.5" x2="270.5" y1="120.1992" y2="120.1992"/><line style="stroke: #A80036; stroke-width: 1.5;" x1="33.5" x2="270.5" y1="128.1992" y2="128.1992"/><ellipse cx="43.5" cy="139.1992" fill="#84BE84" rx="3" ry="3" style="stroke: #038048; stroke-width: 1.0;"/><text fill="#000000" font-family="sans-serif" font-size="11" lengthAdjust="spacingAndGlyphs" textLength="79" x="52.5" y="142.834">__enter__(self)</text><ellipse cx="43.5" cy="152.1543" fill="#84BE84" rx="3" ry="3" style="stroke: #038048; stroke-width: 1.0;"/><text fill="#000000" font-family="sans-serif" font-size="11" lengthAdjust="spacingAndGlyphs" textLength="213" x="52.5" y="155.7891">__exit__(self, exc_type, exc_val, exc_tb)</text><ellipse cx="43.5" cy="165.1094" fill="#84BE84" rx="3" ry="3" style="stroke: #038048; stroke-width: 1.0;"/><text fill="#000000" font-family="sans-serif" font-size="11" lengthAdjust="spacingAndGlyphs" textLength="157" x="52.5" y="168.7441">__init__(self, *args, **kwargs)</text></a><!--MD5=[887df971b0ca8c310d60bf63900dceec]
class benchmarkstt.normalization.logger.DiffLoggingFormatter--><a href="https://benchmarkstt.readthedocs.io/en/latest/modules/benchmarkstt.normalization.html#benchmarkstt.normalization.logger.DiffLoggingFormatter" target="_top" title="https://benchmarkstt.readthedocs.io/en/latest/modules/benchmarkstt.normalization.html#benchmarkstt.normalization.logger.DiffLoggingFormatter" xlink:actuate="onRequest" xlink:href="https://benchmarkstt.readthedocs.io/en/latest/modules/benchmarkstt.normalization.html#benchmarkstt.normalization.logger.DiffLoggingFormatter" xlink:show="new" xlink:title="https://benchmarkstt.readthedocs.io/en/latest/modules/benchmarkstt.normalization.html#benchmarkstt.normalization.logger.DiffLoggingFormatter" xlink:type="simple"><rect fill="#FEFECE" filter="url(#fbw0l2g67foyu)" height="138.6855" id="benchmarkstt.normalization.logger.DiffLoggingFormatter" style="stroke: #A80036; stroke-width: 1.5;" width="483" x="306.5" y="62.1992"/><ellipse cx="483.75" cy="78.1992" fill="#ADD1B2" rx="11" ry="11" style="stroke: #A80036; stroke-width: 1.0;"/><path d="M486.2231,84.3423 Q485.6421,84.6411 485.0029,84.7905 Q484.3638,84.9399 483.6582,84.9399 Q481.1514,84.9399 479.8315,83.2881 Q478.5117,81.6362 478.5117,78.5151 Q478.5117,75.3857 479.8315,73.7339 Q481.1514,72.082 483.6582,72.082 Q484.3638,72.082 485.0112,72.2314 Q485.6587,72.3809 486.2231,72.6797 L486.2231,75.4023 Q485.5923,74.8213 484.9988,74.5515 Q484.4053,74.2817 483.7744,74.2817 Q482.4297,74.2817 481.7449,75.3484 Q481.0601,76.415 481.0601,78.5151 Q481.0601,80.6069 481.7449,81.6736 Q482.4297,82.7402 483.7744,82.7402 Q484.4053,82.7402 484.9988,82.4705 Q485.5923,82.2007 486.2231,81.6196 Z "/><text fill="#000000" font-family="sans-serif" font-size="12" lengthAdjust="spacingAndGlyphs" textLength="120" x="504.25" y="82.7344">DiffLoggingFormatter</text><line style="stroke: #A80036; stroke-width: 1.5;" x1="307.5" x2="788.5" y1="94.1992" y2="94.1992"/><line style="stroke: #A80036; stroke-width: 1.5;" x1="307.5" x2="788.5" y1="102.1992" y2="102.1992"/><ellipse cx="317.5" cy="113.1992" fill="#84BE84" rx="3" ry="3" style="stroke: #038048; stroke-width: 1.0;"/><text fill="#000000" font-family="sans-serif" font-size="11" lengthAdjust="spacingAndGlyphs" textLength="457" x="326.5" y="116.834">__init__(self, dialect=None, diff_formatter_dialect=None, title=None, *args, **kwargs)</text><ellipse cx="317.5" cy="126.1543" fill="#84BE84" rx="3" ry="3" style="stroke: #038048; stroke-width: 1.0;"/><text fill="#000000" font-family="sans-serif" font-size="11" lengthAdjust="spacingAndGlyphs" textLength="105" x="326.5" y="129.7891">format(self, record)</text><ellipse cx="317.5" cy="139.1094" fill="#84BE84" rx="3" ry="3" style="stroke: #038048; stroke-width: 1.0;"/><text fill="#000000" font-family="sans-serif" font-size="11" lengthAdjust="spacingAndGlyphs" textLength="131" x="326.5" y="142.7441">formatException(self, ei)</text><ellipse cx="317.5" cy="152.0645" fill="#84BE84" rx="3" ry="3" style="stroke: #038048; stroke-width: 1.0;"/><text fill="#000000" font-family="sans-serif" font-size="11" lengthAdjust="spacingAndGlyphs" textLength="151" x="326.5" y="155.6992">formatMessage(self, record)</text><ellipse cx="317.5" cy="165.0195" fill="#84BE84" rx="3" ry="3" style="stroke: #038048; stroke-width: 1.0;"/><text fill="#000000" font-family="sans-serif" font-size="11" lengthAdjust="spacingAndGlyphs" textLength="152" x="326.5" y="168.6543">formatStack(self, stack_info)</text><ellipse cx="317.5" cy="177.9746" fill="#84BE84" rx="3" ry="3" style="stroke: #038048; stroke-width: 1.0;"/><text fill="#000000" font-family="sans-serif" font-size="11" lengthAdjust="spacingAndGlyphs" textLength="215" x="326.5" y="181.6094">formatTime(self, record, datefmt=None)</text><ellipse cx="317.5" cy="190.9297" fill="#84BE84" rx="3" ry="3" style="stroke: #038048; stroke-width: 1.0;"/><text fill="#000000" font-family="sans-serif" font-size="11" lengthAdjust="spacingAndGlyphs" textLength="78" x="326.5" y="194.5645">usesTime(self)</text></a><!--MD5=[3c1bbf7157c3cc9587b197ddfb410dae]
class benchmarkstt.normalization.logger.Logger--><a href="https://benchmarkstt.readthedocs.io/en/latest/modules/benchmarkstt.normalization.html#benchmarkstt.normalization.logger.Logger" target="_top" title="https://benchmarkstt.readthedocs.io/en/latest/modules/benchmarkstt.normalization.html#benchmarkstt.normalization.logger.Logger" xlink:actuate="onRequest" xlink:href="https://benchmarkstt.readthedocs.io/en/latest/modules/benchmarkstt.normalization.html#benchmarkstt.normalization.logger.Logger" xlink:show="new" xlink:title="https://benchmarkstt.readthedocs.io/en/latest/modules/benchmarkstt.normalization.html#benchmarkstt.normalization.logger.Logger" xlink:type="simple"><rect fill="#FEFECE" filter="url(#fbw0l2g67foyu)" height="48" id="benchmarkstt.normalization.logger.Logger" style="stroke: #A80036; stroke-width: 1.5;" width="71" x="116.5" y="261.1992"/><ellipse cx="131.5" cy="277.1992" fill="#ADD1B2" rx="11" ry="11" style="stroke: #A80036; stroke-width: 1.0;"/><path d="M133.9731,283.3423 Q133.3921,283.6411 132.7529,283.7905 Q132.1138,283.9399 131.4082,283.9399 Q128.9014,283.9399 127.5815,282.2881 Q126.2617,280.6362 126.2617,277.5151 Q126.2617,274.3857 127.5815,272.7339 Q128.9014,271.082 131.4082,271.082 Q132.1138,271.082 132.7612,271.2314 Q133.4087,271.3809 133.9731,271.6797 L133.9731,274.4023 Q133.3423,273.8213 132.7488,273.5515 Q132.1553,273.2817 131.5244,273.2817 Q130.1797,273.2817 129.4949,274.3484 Q128.8101,275.415 128.8101,277.5151 Q128.8101,279.6069 129.4949,280.6736 Q130.1797,281.7402 131.5244,281.7402 Q132.1553,281.7402 132.7488,281.4705 Q133.3423,281.2007 133.9731,280.6196 Z "/><text fill="#000000" font-family="sans-serif" font-size="12" lengthAdjust="spacingAndGlyphs" textLength="39" x="145.5" y="281.7344">Logger</text><line style="stroke: #A80036; stroke-width: 1.5;" x1="117.5" x2="186.5" y1="293.1992" y2="293.1992"/><line style="stroke: #A80036; stroke-width: 1.5;" x1="117.5" x2="186.5" y1="301.1992" y2="301.1992"/></a><!--MD5=[de8f3446ad2e81fca4f3988b148f6ee4]
class benchmarkstt.normalization.NormalizationComposite--><a href="https://benchmarkstt.readthedocs.io/en/latest/modules/benchmarkstt.normalization.html#benchmarkstt.normalization.NormalizationComposite" target="_top" title="https://benchmarkstt.readthedocs.io/en/latest/modules/benchmarkstt.normalization.html#benchmarkstt.normalization.NormalizationComposite" xlink:actuate="onRequest" xlink:href="https://benchmarkstt.readthedocs.io/en/latest/modules/benchmarkstt.normalization.html#benchmarkstt.normalization.NormalizationComposite" xlink:show="new" xlink:title="https://benchmarkstt.readthedocs.io/en/latest/modules/benchmarkstt.normalization.html#benchmarkstt.normalization.NormalizationComposite" xlink:type="simple"><rect fill="#FEFECE" filter="url(#fbw0l2g67foyu)" height="99.8203" id="benchmarkstt.normalization.NormalizationComposite" style="stroke: #A80036; stroke-width: 1.5;" width="173" x="846.5" y="430.1992"/><ellipse cx="861.5" cy="446.1992" fill="#ADD1B2" rx="11" ry="11" style="stroke: #A80036; stroke-width: 1.0;"/><path d="M863.9731,452.3423 Q863.3921,452.6411 862.7529,452.7905 Q862.1138,452.9399 861.4082,452.9399 Q858.9014,452.9399 857.5815,451.2881 Q856.2617,449.6362 856.2617,446.5151 Q856.2617,443.3857 857.5815,441.7339 Q858.9014,440.082 861.4082,440.082 Q862.1138,440.082 862.7612,440.2314 Q863.4087,440.3809 863.9731,440.6797 L863.9731,443.4023 Q863.3423,442.8213 862.7488,442.5515 Q862.1553,442.2817 861.5244,442.2817 Q860.1797,442.2817 859.4949,443.3484 Q858.8101,444.415 858.8101,446.5151 Q858.8101,448.6069 859.4949,449.6736 Q860.1797,450.7402 861.5244,450.7402 Q862.1553,450.7402 862.7488,450.4705 Q863.3423,450.2007 863.9731,449.6196 Z "/><text fill="#000000" font-family="sans-serif" font-size="12" lengthAdjust="spacingAndGlyphs" textLength="141" x="875.5" y="450.7344">NormalizationComposite</text><line style="stroke: #A80036; stroke-width: 1.5;" x1="847.5" x2="1018.5" y1="462.1992" y2="462.1992"/><line style="stroke: #A80036; stroke-width: 1.5;" x1="847.5" x2="1018.5" y1="470.1992" y2="470.1992"/><ellipse cx="857.5" cy="481.1992" fill="#84BE84" rx="3" ry="3" style="stroke: #038048; stroke-width: 1.0;"/><text fill="#000000" font-family="sans-serif" font-size="11" lengthAdjust="spacingAndGlyphs" textLength="131" x="866.5" y="484.834">__init__(self, title=None)</text><ellipse cx="857.5" cy="494.1543" fill="#84BE84" rx="3" ry="3" style="stroke: #038048; stroke-width: 1.0;"/><text fill="#000000" font-family="sans-serif" font-size="11" lengthAdjust="spacingAndGlyphs" textLength="74" x="866.5" y="497.7891">__repr__(self)</text><ellipse cx="857.5" cy="507.1094" fill="#84BE84" rx="3" ry="3" style="stroke: #038048; stroke-width: 1.0;"/><text fill="#000000" font-family="sans-serif" font-size="11" lengthAdjust="spacingAndGlyphs" textLength="111" x="866.5" y="510.7441">add(self, normalizer)</text><ellipse cx="857.5" cy="520.0645" fill="#84BE84" rx="3" ry="3" style="stroke: #038048; stroke-width: 1.0;"/><text fill="#000000" font-family="sans-serif" font-size="11" lengthAdjust="spacingAndGlyphs" textLength="103" x="866.5" y="523.6992">normalize(cls, text)</text></a><!--MD5=[490ea28922b6507fe4f9ed69fc6567ac]
class benchmarkstt.normalization.Base--><rect fill="#FEFECE" filter="url(#fbw0l2g67foyu)" height="48" id="benchmarkstt.normalization.Base" style="stroke: #A80036; stroke-width: 1.5;" width="59" x="846.5" y="107.6992"/><ellipse cx="861.5" cy="123.6992" fill="#ADD1B2" rx="11" ry="11" style="stroke: #A80036; stroke-width: 1.0;"/><path d="M863.9731,129.8423 Q863.3921,130.1411 862.7529,130.2905 Q862.1138,130.4399 861.4082,130.4399 Q858.9014,130.4399 857.5815,128.7881 Q856.2617,127.1362 856.2617,124.0151 Q856.2617,120.8857 857.5815,119.2339 Q858.9014,117.582 861.4082,117.582 Q862.1138,117.582 862.7612,117.7314 Q863.4087,117.8809 863.9731,118.1797 L863.9731,120.9023 Q863.3423,120.3213 862.7488,120.0515 Q862.1553,119.7817 861.5244,119.7817 Q860.1797,119.7817 859.4949,120.8484 Q858.8101,121.915 858.8101,124.0151 Q858.8101,126.1069 859.4949,127.1736 Q860.1797,128.2402 861.5244,128.2402 Q862.1553,128.2402 862.7488,127.9705 Q863.3423,127.7007 863.9731,127.1196 Z "/><text fill="#000000" font-family="sans-serif" font-size="12" lengthAdjust="spacingAndGlyphs" textLength="27" x="875.5" y="128.2344">Base</text><line style="stroke: #A80036; stroke-width: 1.5;" x1="847.5" x2="904.5" y1="139.6992" y2="139.6992"/><line style="stroke: #A80036; stroke-width: 1.5;" x1="847.5" x2="904.5" y1="147.6992" y2="147.6992"/><!--MD5=[8731c9077ab4f00ce3929ee4866ad0a9]
class benchmarkstt.normalization.BaseWithFileSupport--><rect fill="#FEFECE" filter="url(#fbw0l2g67foyu)" height="48" id="benchmarkstt.normalization.BaseWithFileSupport" style="stroke: #A80036; stroke-width: 1.5;" width="147" x="940.5" y="107.6992"/><ellipse cx="955.5" cy="123.6992" fill="#ADD1B2" rx="11" ry="11" style="stroke: #A80036; stroke-width: 1.0;"/><path d="M957.9731,129.8423 Q957.3921,130.1411 956.7529,130.2905 Q956.1138,130.4399 955.4082,130.4399 Q952.9014,130.4399 951.5815,128.7881 Q950.2617,127.1362 950.2617,124.0151 Q950.2617,120.8857 951.5815,119.2339 Q952.9014,117.582 955.4082,117.582 Q956.1138,117.582 956.7612,117.7314 Q957.4087,117.8809 957.9731,118.1797 L957.9731,120.9023 Q957.3423,120.3213 956.7488,120.0515 Q956.1553,119.7817 955.5244,119.7817 Q954.1797,119.7817 953.4949,120.8484 Q952.8101,121.915 952.8101,124.0151 Q952.8101,126.1069 953.4949,127.1736 Q954.1797,128.2402 955.5244,128.2402 Q956.1553,128.2402 956.7488,127.9705 Q957.3423,127.7007 957.9731,127.1196 Z "/><text fill="#000000" font-family="sans-serif" font-size="12" lengthAdjust="spacingAndGlyphs" textLength="115" x="969.5" y="128.2344">BaseWithFileSupport</text><line style="stroke: #A80036; stroke-width: 1.5;" x1="941.5" x2="1086.5" y1="139.6992" y2="139.6992"/><line style="stroke: #A80036; stroke-width: 1.5;" x1="941.5" x2="1086.5" y1="147.6992" y2="147.6992"/><!--MD5=[ba2ead4b28f3a03c2b9b4db307c82486]
class benchmarkstt.normalization.core.Config--><a href="https://benchmarkstt.readthedocs.io/en/latest/modules/benchmarkstt.normalization.html#benchmarkstt.normalization.core.Config" target="_top" title="https://benchmarkstt.readthedocs.io/en/latest/modules/benchmarkstt.normalization.html#benchmarkstt.normalization.core.Config" xlink:actuate="onRequest" xlink:href="https://benchmarkstt.readthedocs.io/en/latest/modules/benchmarkstt.normalization.html#benchmarkstt.normalization.core.Config" xlink:show="new" xlink:title="https://benchmarkstt.readthedocs.io/en/latest/modules/benchmarkstt.normalization.html#benchmarkstt.normalization.core.Config" xlink:type="simple"><rect fill="#FEFECE" filter="url(#fbw0l2g67foyu)" height="86.8652" id="benchmarkstt.normalization.core.Config" style="stroke: #A80036; stroke-width: 1.5;" width="291" x="1144.5" y="436.6992"/><ellipse cx="1267.75" cy="452.6992" fill="#ADD1B2" rx="11" ry="11" style="stroke: #A80036; stroke-width: 1.0;"/><path d="M1270.2231,458.8423 Q1269.6421,459.1411 1269.0029,459.2905 Q1268.3638,459.4399 1267.6582,459.4399 Q1265.1514,459.4399 1263.8315,457.7881 Q1262.5117,456.1362 1262.5117,453.0151 Q1262.5117,449.8857 1263.8315,448.2339 Q1265.1514,446.582 1267.6582,446.582 Q1268.3638,446.582 1269.0112,446.7314 Q1269.6587,446.8809 1270.2231,447.1797 L1270.2231,449.9023 Q1269.5923,449.3213 1268.9988,449.0515 Q1268.4053,448.7817 1267.7744,448.7817 Q1266.4297,448.7817 1265.7449,449.8484 Q1265.0601,450.915 1265.0601,453.0151 Q1265.0601,455.1069 1265.7449,456.1736 Q1266.4297,457.2402 1267.7744,457.2402 Q1268.4053,457.2402 1268.9988,456.9705 Q1269.5923,456.7007 1270.2231,456.1196 Z "/><text fill="#000000" font-family="sans-serif" font-size="12" lengthAdjust="spacingAndGlyphs" textLength="36" x="1288.25" y="457.2344">Config</text><line style="stroke: #A80036; stroke-width: 1.5;" x1="1145.5" x2="1434.5" y1="468.6992" y2="468.6992"/><line style="stroke: #A80036; stroke-width: 1.5;" x1="1145.5" x2="1434.5" y1="476.6992" y2="476.6992"/><ellipse cx="1155.5" cy="487.6992" fill="#84BE84" rx="3" ry="3" style="stroke: #038048; stroke-width: 1.0;"/><text fill="#000000" font-family="sans-serif" font-size="11" lengthAdjust="spacingAndGlyphs" textLength="265" x="1164.5" y="491.334">__init__(self, file, section=None, encoding=None)</text><ellipse cx="1155.5" cy="500.6543" fill="#84BE84" rx="3" ry="3" style="stroke: #038048; stroke-width: 1.0;"/><text fill="#000000" font-family="sans-serif" font-size="11" lengthAdjust="spacingAndGlyphs" textLength="74" x="1164.5" y="504.2891">__repr__(self)</text><ellipse cx="1155.5" cy="513.6094" fill="#84BE84" rx="3" ry="3" style="stroke: #038048; stroke-width: 1.0;"/><text fill="#000000" font-family="sans-serif" font-size="11" lengthAdjust="spacingAndGlyphs" textLength="103" x="1164.5" y="517.2441">normalize(cls, text)</text></a><!--MD5=[841e2f44bbd27ac1178e39d82e80884d]
class benchmarkstt.normalization.core.ConfigSectionNotFoundError--><a href="https://benchmarkstt.readthedocs.io/en/latest/modules/benchmarkstt.normalization.html#benchmarkstt.normalization.core.ConfigSectionNotFoundError" target="_top" title="https://benchmarkstt.readthedocs.io/en/latest/modules/benchmarkstt.normalization.html#benchmarkstt.normalization.core.ConfigSectionNotFoundError" xlink:actuate="onRequest" xlink:href="https://benchmarkstt.readthedocs.io/en/latest/modules/benchmarkstt.normalization.html#benchmarkstt.normalization.core.ConfigSectionNotFoundError" xlink:show="new" xlink:title="https://benchmarkstt.readthedocs.io/en/latest/modules/benchmarkstt.normalization.html#benchmarkstt.normalization.core.ConfigSectionNotFoundError" xlink:type="simple"><rect fill="#FEFECE" filter="url(#fbw0l2g67foyu)" height="48" id="benchmarkstt.normalization.core.ConfigSectionNotFoundError" style="stroke: #A80036; stroke-width: 1.5;" width="192" x="2315" y="456.1992"/><ellipse cx="2330" cy="472.1992" fill="#ADD1B2" rx="11" ry="11" style="stroke: #A80036; stroke-width: 1.0;"/><path d="M2332.4731,478.3423 Q2331.8921,478.6411 2331.2529,478.7905 Q2330.6138,478.9399 2329.9082,478.9399 Q2327.4014,478.9399 2326.0815,477.2881 Q2324.7617,475.6362 2324.7617,472.5151 Q2324.7617,469.3857 2326.0815,467.7339 Q2327.4014,466.082 2329.9082,466.082 Q2330.6138,466.082 2331.2612,466.2314 Q2331.9087,466.3809 2332.4731,466.6797 L2332.4731,469.4023 Q2331.8423,468.8213 2331.2488,468.5515 Q2330.6553,468.2817 2330.0244,468.2817 Q2328.6797,468.2817 2327.9949,469.3484 Q2327.3101,470.415 2327.3101,472.5151 Q2327.3101,474.6069 2327.9949,475.6736 Q2328.6797,476.7402 2330.0244,476.7402 Q2330.6553,476.7402 2331.2488,476.4705 Q2331.8423,476.2007 2332.4731,475.6196 Z "/><text fill="#000000" font-family="sans-serif" font-size="12" lengthAdjust="spacingAndGlyphs" textLength="160" x="2344" y="476.7344">ConfigSectionNotFoundError</text><line style="stroke: #A80036; stroke-width: 1.5;" x1="2316" x2="2506" y1="488.1992" y2="488.1992"/><line style="stroke: #A80036; stroke-width: 1.5;" x1="2316" x2="2506" y1="496.1992" y2="496.1992"/></a><!--MD5=[3386d7986a9642d77be9dbce485d3f6c]
class benchmarkstt.normalization.core.Lowercase--><a href="https://benchmarkstt.readthedocs.io/en/latest/modules/benchmarkstt.normalization.html#benchmarkstt.normalization.core.Lowercase" target="_top" title="https://benchmarkstt.readthedocs.io/en/latest/modules/benchmarkstt.normalization.html#benchmarkstt.normalization.core.Lowercase" xlink:actuate="onRequest" xlink:href="https://benchmarkstt.readthedocs.io/en/latest/modules/benchmarkstt.normalization.html#benchmarkstt.normalization.core.Lowercase" xlink:show="new" xlink:title="https://benchmarkstt.readthedocs.io/en/latest/modules/benchmarkstt.normalization.html#benchmarkstt.normalization.core.Lowercase" xlink:type="simple"><rect fill="#FEFECE" filter="url(#fbw0l2g67foyu)" height="73.9102" id="benchmarkstt.normalization.core.Lowercase" style="stroke: #A80036; stroke-width: 1.5;" width="129" x="1470.5" y="443.1992"/><ellipse cx="1502.15" cy="459.1992" fill="#ADD1B2" rx="11" ry="11" style="stroke: #A80036; stroke-width: 1.0;"/><path d="M1504.6231,465.3423 Q1504.0421,465.6411 1503.4029,465.7905 Q1502.7638,465.9399 1502.0582,465.9399 Q1499.5514,465.9399 1498.2315,464.2881 Q1496.9117,462.6362 1496.9117,459.5151 Q1496.9117,456.3857 1498.2315,454.7339 Q1499.5514,453.082 1502.0582,453.082 Q1502.7638,453.082 1503.4112,453.2314 Q1504.0587,453.3809 1504.6231,453.6797 L1504.6231,456.4023 Q1503.9923,455.8213 1503.3988,455.5515 Q1502.8053,455.2817 1502.1744,455.2817 Q1500.8297,455.2817 1500.1449,456.3484 Q1499.4601,457.415 1499.4601,459.5151 Q1499.4601,461.6069 1500.1449,462.6736 Q1500.8297,463.7402 1502.1744,463.7402 Q1502.8053,463.7402 1503.3988,463.4705 Q1503.9923,463.2007 1504.6231,462.6196 Z "/><text fill="#000000" font-family="sans-serif" font-size="12" lengthAdjust="spacingAndGlyphs" textLength="60" x="1519.85" y="463.7344">Lowercase</text><line style="stroke: #A80036; stroke-width: 1.5;" x1="1471.5" x2="1598.5" y1="475.1992" y2="475.1992"/><line style="stroke: #A80036; stroke-width: 1.5;" x1="1471.5" x2="1598.5" y1="483.1992" y2="483.1992"/><ellipse cx="1481.5" cy="494.1992" fill="#84BE84" rx="3" ry="3" style="stroke: #038048; stroke-width: 1.0;"/><text fill="#000000" font-family="sans-serif" font-size="11" lengthAdjust="spacingAndGlyphs" textLength="74" x="1490.5" y="497.834">__repr__(self)</text><ellipse cx="1481.5" cy="507.1543" fill="#84BE84" rx="3" ry="3" style="stroke: #038048; stroke-width: 1.0;"/><text fill="#000000" font-family="sans-serif" font-size="11" lengthAdjust="spacingAndGlyphs" textLength="103" x="1490.5" y="510.7891">normalize(cls, text)</text></a><!--MD5=[9863ad7347765ee3ae7c7138982b6157]
class benchmarkstt.normalization.core.Regex--><a href="https://benchmarkstt.readthedocs.io/en/latest/modules/benchmarkstt.normalization.html#benchmarkstt.normalization.core.Regex" target="_top" title="https://benchmarkstt.readthedocs.io/en/latest/modules/benchmarkstt.normalization.html#benchmarkstt.normalization.core.Regex" xlink:actuate="onRequest" xlink:href="https://benchmarkstt.readthedocs.io/en/latest/modules/benchmarkstt.normalization.html#benchmarkstt.normalization.core.Regex" xlink:show="new" xlink:title="https://benchmarkstt.readthedocs.io/en/latest/modules/benchmarkstt.normalization.html#benchmarkstt.normalization.core.Regex" xlink:type="simple"><rect fill="#FEFECE" filter="url(#fbw0l2g67foyu)" height="86.8652" id="benchmarkstt.normalization.core.Regex" style="stroke: #A80036; stroke-width: 1.5;" width="223" x="1798.5" y="436.6992"/><ellipse cx="1887.75" cy="452.6992" fill="#ADD1B2" rx="11" ry="11" style="stroke: #A80036; stroke-width: 1.0;"/><path d="M1890.2231,458.8423 Q1889.6421,459.1411 1889.0029,459.2905 Q1888.3638,459.4399 1887.6582,459.4399 Q1885.1514,459.4399 1883.8315,457.7881 Q1882.5117,456.1362 1882.5117,453.0151 Q1882.5117,449.8857 1883.8315,448.2339 Q1885.1514,446.582 1887.6582,446.582 Q1888.3638,446.582 1889.0112,446.7314 Q1889.6587,446.8809 1890.2231,447.1797 L1890.2231,449.9023 Q1889.5923,449.3213 1888.9988,449.0515 Q1888.4053,448.7817 1887.7744,448.7817 Q1886.4297,448.7817 1885.7449,449.8484 Q1885.0601,450.915 1885.0601,453.0151 Q1885.0601,455.1069 1885.7449,456.1736 Q1886.4297,457.2402 1887.7744,457.2402 Q1888.4053,457.2402 1888.9988,456.9705 Q1889.5923,456.7007 1890.2231,456.1196 Z "/><text fill="#000000" font-family="sans-serif" font-size="12" lengthAdjust="spacingAndGlyphs" textLength="36" x="1908.25" y="457.2344">Regex</text><line style="stroke: #A80036; stroke-width: 1.5;" x1="1799.5" x2="2020.5" y1="468.6992" y2="468.6992"/><line style="stroke: #A80036; stroke-width: 1.5;" x1="1799.5" x2="2020.5" y1="476.6992" y2="476.6992"/><ellipse cx="1809.5" cy="487.6992" fill="#84BE84" rx="3" ry="3" style="stroke: #038048; stroke-width: 1.0;"/><text fill="#000000" font-family="sans-serif" font-size="11" lengthAdjust="spacingAndGlyphs" textLength="197" x="1818.5" y="491.334">__init__(self, search: str, replace: str)</text><ellipse cx="1809.5" cy="500.6543" fill="#84BE84" rx="3" ry="3" style="stroke: #038048; stroke-width: 1.0;"/><text fill="#000000" font-family="sans-serif" font-size="11" lengthAdjust="spacingAndGlyphs" textLength="74" x="1818.5" y="504.2891">__repr__(self)</text><ellipse cx="1809.5" cy="513.6094" fill="#84BE84" rx="3" ry="3" style="stroke: #038048; stroke-width: 1.0;"/><text fill="#000000" font-family="sans-serif" font-size="11" lengthAdjust="spacingAndGlyphs" textLength="103" x="1818.5" y="517.2441">normalize(cls, text)</text></a><!--MD5=[326f7cb5384862347dd44d6872a19065]
class benchmarkstt.normalization.core.Replace--><a href="https://benchmarkstt.readthedocs.io/en/latest/modules/benchmarkstt.normalization.html#benchmarkstt.normalization.core.Replace" target="_top" title="https://benchmarkstt.readthedocs.io/en/latest/modules/benchmarkstt.normalization.html#benchmarkstt.normalization.core.Replace" xlink:actuate="onRequest" xlink:href="https://benchmarkstt.readthedocs.io/en/latest/modules/benchmarkstt.normalization.html#benchmarkstt.normalization.core.Replace" xlink:show="new" xlink:title="https://benchmarkstt.readthedocs.io/en/latest/modules/benchmarkstt.normalization.html#benchmarkstt.normalization.core.Replace" xlink:type="simple"><rect fill="#FEFECE" filter="url(#fbw0l2g67foyu)" height="86.8652" id="benchmarkstt.normalization.core.Replace" style="stroke: #A80036; stroke-width: 1.5;" width="223" x="2056.5" y="436.6992"/><ellipse cx="2140.75" cy="452.6992" fill="#ADD1B2" rx="11" ry="11" style="stroke: #A80036; stroke-width: 1.0;"/><path d="M2143.2231,458.8423 Q2142.6421,459.1411 2142.0029,459.2905 Q2141.3638,459.4399 2140.6582,459.4399 Q2138.1514,459.4399 2136.8315,457.7881 Q2135.5117,456.1362 2135.5117,453.0151 Q2135.5117,449.8857 2136.8315,448.2339 Q2138.1514,446.582 2140.6582,446.582 Q2141.3638,446.582 2142.0112,446.7314 Q2142.6587,446.8809 2143.2231,447.1797 L2143.2231,449.9023 Q2142.5923,449.3213 2141.9988,449.0515 Q2141.4053,448.7817 2140.7744,448.7817 Q2139.4297,448.7817 2138.7449,449.8484 Q2138.0601,450.915 2138.0601,453.0151 Q2138.0601,455.1069 2138.7449,456.1736 Q2139.4297,457.2402 2140.7744,457.2402 Q2141.4053,457.2402 2141.9988,456.9705 Q2142.5923,456.7007 2143.2231,456.1196 Z "/><text fill="#000000" font-family="sans-serif" font-size="12" lengthAdjust="spacingAndGlyphs" textLength="46" x="2161.25" y="457.2344">Replace</text><line style="stroke: #A80036; stroke-width: 1.5;" x1="2057.5" x2="2278.5" y1="468.6992" y2="468.6992"/><line style="stroke: #A80036; stroke-width: 1.5;" x1="2057.5" x2="2278.5" y1="476.6992" y2="476.6992"/><ellipse cx="2067.5" cy="487.6992" fill="#84BE84" rx="3" ry="3" style="stroke: #038048; stroke-width: 1.0;"/><text fill="#000000" font-family="sans-serif" font-size="11" lengthAdjust="spacingAndGlyphs" textLength="197" x="2076.5" y="491.334">__init__(self, search: str, replace: str)</text><ellipse cx="2067.5" cy="500.6543" fill="#84BE84" rx="3" ry="3" style="stroke: #038048; stroke-width: 1.0;"/><text fill="#000000" font-family="sans-serif" font-size="11" lengthAdjust="spacingAndGlyphs" textLength="74" x="2076.5" y="504.2891">__repr__(self)</text><ellipse cx="2067.5" cy="513.6094" fill="#84BE84" rx="3" ry="3" style="stroke: #038048; stroke-width: 1.0;"/><text fill="#000000" font-family="sans-serif" font-size="11" lengthAdjust="spacingAndGlyphs" textLength="103" x="2076.5" y="517.2441">normalize(cls, text)</text></a><!--MD5=[c72470e852d6ce02f480301e3573e0d1]
class benchmarkstt.normalization.core.ReplaceWords--><a href="https://benchmarkstt.readthedocs.io/en/latest/modules/benchmarkstt.normalization.html#benchmarkstt.normalization.core.ReplaceWords" target="_top" title="https://benchmarkstt.readthedocs.io/en/latest/modules/benchmarkstt.normalization.html#benchmarkstt.normalization.core.ReplaceWords" xlink:actuate="onRequest" xlink:href="https://benchmarkstt.readthedocs.io/en/latest/modules/benchmarkstt.normalization.html#benchmarkstt.normalization.core.ReplaceWords" xlink:show="new" xlink:title="https://benchmarkstt.readthedocs.io/en/latest/modules/benchmarkstt.normalization.html#benchmarkstt.normalization.core.ReplaceWords" xlink:type="simple"><rect fill="#FEFECE" filter="url(#fbw0l2g67foyu)" height="86.8652" id="benchmarkstt.normalization.core.ReplaceWords" style="stroke: #A80036; stroke-width: 1.5;" width="223" x="2542.5" y="436.6992"/><ellipse cx="2608.75" cy="452.6992" fill="#ADD1B2" rx="11" ry="11" style="stroke: #A80036; stroke-width: 1.0;"/><path d="M2611.2231,458.8423 Q2610.6421,459.1411 2610.0029,459.2905 Q2609.3638,459.4399 2608.6582,459.4399 Q2606.1514,459.4399 2604.8315,457.7881 Q2603.5117,456.1362 2603.5117,453.0151 Q2603.5117,449.8857 2604.8315,448.2339 Q2606.1514,446.582 2608.6582,446.582 Q2609.3638,446.582 2610.0112,446.7314 Q2610.6587,446.8809 2611.2231,447.1797 L2611.2231,449.9023 Q2610.5923,449.3213 2609.9988,449.0515 Q2609.4053,448.7817 2608.7744,448.7817 Q2607.4297,448.7817 2606.7449,449.8484 Q2606.0601,450.915 2606.0601,453.0151 Q2606.0601,455.1069 2606.7449,456.1736 Q2607.4297,457.2402 2608.7744,457.2402 Q2609.4053,457.2402 2609.9988,456.9705 Q2610.5923,456.7007 2611.2231,456.1196 Z "/><text fill="#000000" font-family="sans-serif" font-size="12" lengthAdjust="spacingAndGlyphs" textLength="82" x="2629.25" y="457.2344">ReplaceWords</text><line style="stroke: #A80036; stroke-width: 1.5;" x1="2543.5" x2="2764.5" y1="468.6992" y2="468.6992"/><line style="stroke: #A80036; stroke-width: 1.5;" x1="2543.5" x2="2764.5" y1="476.6992" y2="476.6992"/><ellipse cx="2553.5" cy="487.6992" fill="#84BE84" rx="3" ry="3" style="stroke: #038048; stroke-width: 1.0;"/><text fill="#000000" font-family="sans-serif" font-size="11" lengthAdjust="spacingAndGlyphs" textLength="197" x="2562.5" y="491.334">__init__(self, search: str, replace: str)</text><ellipse cx="2553.5" cy="500.6543" fill="#84BE84" rx="3" ry="3" style="stroke: #038048; stroke-width: 1.0;"/><text fill="#000000" font-family="sans-serif" font-size="11" lengthAdjust="spacingAndGlyphs" textLength="74" x="2562.5" y="504.2891">__repr__(self)</text><ellipse cx="2553.5" cy="513.6094" fill="#84BE84" rx="3" ry="3" style="stroke: #038048; stroke-width: 1.0;"/><text fill="#000000" font-family="sans-serif" font-size="11" lengthAdjust="spacingAndGlyphs" textLength="103" x="2562.5" y="517.2441">normalize(cls, text)</text></a><!--MD5=[361c1c4989d33e751f8f1a8124b4d3c8]
class benchmarkstt.normalization.core.Unidecode--><a href="https://benchmarkstt.readthedocs.io/en/latest/modules/benchmarkstt.normalization.html#benchmarkstt.normalization.core.Unidecode" target="_top" title="https://benchmarkstt.readthedocs.io/en/latest/modules/benchmarkstt.normalization.html#benchmarkstt.normalization.core.Unidecode" xlink:actuate="onRequest" xlink:href="https://benchmarkstt.readthedocs.io/en/latest/modules/benchmarkstt.normalization.html#benchmarkstt.normalization.core.Unidecode" xlink:show="new" xlink:title="https://benchmarkstt.readthedocs.io/en/latest/modules/benchmarkstt.normalization.html#benchmarkstt.normalization.core.Unidecode" xlink:type="simple"><rect fill="#FEFECE" filter="url(#fbw0l2g67foyu)" height="73.9102" id="benchmarkstt.normalization.core.Unidecode" style="stroke: #A80036; stroke-width: 1.5;" width="129" x="1634.5" y="443.1992"/><ellipse cx="1665.7" cy="459.1992" fill="#ADD1B2" rx="11" ry="11" style="stroke: #A80036; stroke-width: 1.0;"/><path d="M1668.1731,465.3423 Q1667.5921,465.6411 1666.9529,465.7905 Q1666.3138,465.9399 1665.6082,465.9399 Q1663.1014,465.9399 1661.7815,464.2881 Q1660.4617,462.6362 1660.4617,459.5151 Q1660.4617,456.3857 1661.7815,454.7339 Q1663.1014,453.082 1665.6082,453.082 Q1666.3138,453.082 1666.9612,453.2314 Q1667.6087,453.3809 1668.1731,453.6797 L1668.1731,456.4023 Q1667.5423,455.8213 1666.9488,455.5515 Q1666.3553,455.2817 1665.7244,455.2817 Q1664.3797,455.2817 1663.6949,456.3484 Q1663.0101,457.415 1663.0101,459.5151 Q1663.0101,461.6069 1663.6949,462.6736 Q1664.3797,463.7402 1665.7244,463.7402 Q1666.3553,463.7402 1666.9488,463.4705 Q1667.5423,463.2007 1668.1731,462.6196 Z "/><text fill="#000000" font-family="sans-serif" font-size="12" lengthAdjust="spacingAndGlyphs" textLength="61" x="1683.3" y="463.7344">Unidecode</text><line style="stroke: #A80036; stroke-width: 1.5;" x1="1635.5" x2="1762.5" y1="475.1992" y2="475.1992"/><line style="stroke: #A80036; stroke-width: 1.5;" x1="1635.5" x2="1762.5" y1="483.1992" y2="483.1992"/><ellipse cx="1645.5" cy="494.1992" fill="#84BE84" rx="3" ry="3" style="stroke: #038048; stroke-width: 1.0;"/><text fill="#000000" font-family="sans-serif" font-size="11" lengthAdjust="spacingAndGlyphs" textLength="74" x="1654.5" y="497.834">__repr__(self)</text><ellipse cx="1645.5" cy="507.1543" fill="#84BE84" rx="3" ry="3" style="stroke: #038048; stroke-width: 1.0;"/><text fill="#000000" font-family="sans-serif" font-size="11" lengthAdjust="spacingAndGlyphs" textLength="103" x="1654.5" y="510.7891">normalize(cls, text)</text></a><!--MD5=[4002a7e727d35a405f517db3ff42843b]
reverse link benchmarkstt.normalization.Base to benchmarkstt.normalization.NormalizationComposite--><path d="M883.06,175.6092 C893.68,240.1692 913.72,361.9692 924.91,430.0292 " fill="none" id="benchmarkstt.normalization.Base&lt;-benchmarkstt.normalization.NormalizationComposite" style="stroke: #A80036; stroke-width: 1.0;"/><polygon fill="none" points="876.12,176.5692,879.78,155.6992,889.94,174.2992,876.12,176.5692" style="stroke: #A80036; stroke-width: 1.0;"/><!--MD5=[5061374c777a9754aae33fd446b51956]
reverse link benchmarkstt.normalization.Base to benchmarkstt.normalization.core.Config--><path d="M900.34,172.7992 C907.1,182.5692 914.85,192.6592 923,201.1992 C1015.01,297.6292 1142.87,386.3892 1220.83,436.5492 " fill="none" id="benchmarkstt.normalization.Base&lt;-benchmarkstt.normalization.core.Config" style="stroke: #A80036; stroke-width: 1.0;"/><polygon fill="none" points="894.42,176.5392,889.35,155.9692,906.14,168.8892,894.42,176.5392" style="stroke: #A80036; stroke-width: 1.0;"/><!--MD5=[d8d26d3f93abbb7999e5fa4853678912]
reverse link benchmarkstt.normalization.Base to benchmarkstt.normalization.core.Lowercase--><path d="M898.12,172.9792 C905.09,183.1392 913.49,193.3692 923,201.1992 C932.14,208.7192 1302.65,366.8392 1314,370.1992 C1374.08,387.9792 1397.63,364.3892 1453,393.6992 C1475.18,405.4392 1494.84,425.4092 1509.35,443.0992 " fill="none" id="benchmarkstt.normalization.Base&lt;-benchmarkstt.normalization.core.Lowercase" style="stroke: #A80036; stroke-width: 1.0;"/><polygon fill="none" points="892.09,176.5392,887.5,155.8492,903.99,169.1592,892.09,176.5392" style="stroke: #A80036; stroke-width: 1.0;"/><!--MD5=[18301e1660a763973f9de9a55f906421]
reverse link benchmarkstt.normalization.BaseWithFileSupport to benchmarkstt.normalization.core.Regex--><path d="M1106.95,155.9892 C1254.36,194.7492 1548.81,279.6292 1781,393.6992 C1805.48,405.7292 1830.82,421.6592 1852.5,436.4992 " fill="none" id="benchmarkstt.normalization.BaseWithFileSupport&lt;-benchmarkstt.normalization.core.Regex" style="stroke: #A80036; stroke-width: 1.0;"/><polygon fill="none" points="1105.16,162.7592,1087.58,150.9392,1108.7,149.2092,1105.16,162.7592" style="stroke: #A80036; stroke-width: 1.0;"/><!--MD5=[fa04abb703e3e86a020d8fc2134feb88]
reverse link benchmarkstt.normalization.BaseWithFileSupport to benchmarkstt.normalization.core.Replace--><path d="M1107.63,144.8492 C1292.63,171.3392 1715.13,244.2592 2039,393.6992 C2064.13,405.2892 2089.92,421.3992 2111.77,436.5092 " fill="none" id="benchmarkstt.normalization.BaseWithFileSupport&lt;-benchmarkstt.normalization.core.Replace" style="stroke: #A80036; stroke-width: 1.0;"/><polygon fill="none" points="1106.41,151.7492,1087.58,142.0292,1108.36,137.8792,1106.41,151.7492" style="stroke: #A80036; stroke-width: 1.0;"/><!--MD5=[e0de21ea5ed787e4d9bd1e18c36da4dd]
reverse link benchmarkstt.normalization.BaseWithFileSupport to benchmarkstt.normalization.core.ReplaceWords--><path d="M1107.94,135.2492 C1351.14,144.6992 2017.71,188.8592 2525,393.6992 C2551.41,404.3592 2578.06,420.8592 2600.24,436.5192 " fill="none" id="benchmarkstt.normalization.BaseWithFileSupport&lt;-benchmarkstt.normalization.core.ReplaceWords" style="stroke: #A80036; stroke-width: 1.0;"/><polygon fill="none" points="1107.5,142.2392,1087.77,134.5092,1108.01,128.2492,1107.5,142.2392" style="stroke: #A80036; stroke-width: 1.0;"/><!--MD5=[c25f46be65441ad90754122994e70604]
reverse link benchmarkstt.normalization.Base to benchmarkstt.normalization.core.Unidecode--><path d="M896.57,173.0092 C903.67,183.5292 912.51,193.9492 923,201.1992 C1014.84,264.7392 1059.19,232.0892 1167,261.1992 C1368.28,315.5492 1438.86,285.3792 1617,393.6992 C1637.91,406.4192 1657.1,425.7792 1671.65,442.8692 " fill="none" id="benchmarkstt.normalization.Base&lt;-benchmarkstt.normalization.core.Unidecode" style="stroke: #A80036; stroke-width: 1.0;"/><polygon fill="none" points="890.51,176.4992,886.32,155.7292,902.55,169.3492,890.51,176.4992" style="stroke: #A80036; stroke-width: 1.0;"/><!--MD5=[169976a233403bb0e710d02f2e8de026]
link benchmarkstt.normalization.logger.LogCapturer to benchmarkstt.normalization.logger.DiffLoggingFormatter--><!--MD5=[abf3e274aa8510a1af30bbb21490bbd2]
link benchmarkstt.normalization.logger.LogCapturer to benchmarkstt.normalization.logger.Logger--><!--MD5=[7ff45055722173c5d48c86ab65b1667b]
@startuml
title Benchmarkstt.normalization
		class benchmarkstt.normalization.logger.LogCapturer [[https://benchmarkstt.readthedocs.io/en/latest/modules/benchmarkstt.normalization.html#benchmarkstt.normalization.logger.LogCapturer]] {
			+__enter__(self)
			+__exit__(self, exc_type, exc_val, exc_tb)
			+__init__(self, *args, **kwargs)
		}
		class benchmarkstt.normalization.logger.DiffLoggingFormatter [[https://benchmarkstt.readthedocs.io/en/latest/modules/benchmarkstt.normalization.html#benchmarkstt.normalization.logger.DiffLoggingFormatter]] {
			+__init__(self, dialect=None, diff_formatter_dialect=None, title=None, *args, **kwargs)
			+format(self, record)
			+formatException(self, ei)
			+formatMessage(self, record)
			+formatStack(self, stack_info)
			+formatTime(self, record, datefmt=None)
			+usesTime(self)
		}
		class benchmarkstt.normalization.logger.Logger [[https://benchmarkstt.readthedocs.io/en/latest/modules/benchmarkstt.normalization.html#benchmarkstt.normalization.logger.Logger]] {
		}
		class benchmarkstt.normalization.NormalizationComposite [[https://benchmarkstt.readthedocs.io/en/latest/modules/benchmarkstt.normalization.html#benchmarkstt.normalization.NormalizationComposite]] {
			+__init__(self, title=None)
			+__repr__(self)
			+add(self, normalizer)
			+normalize(cls, text)
		}
		class benchmarkstt.normalization.core.Config [[https://benchmarkstt.readthedocs.io/en/latest/modules/benchmarkstt.normalization.html#benchmarkstt.normalization.core.Config]] {
			+__init__(self, file, section=None, encoding=None)
			+__repr__(self)
			+normalize(cls, text)
		}
		class benchmarkstt.normalization.core.ConfigSectionNotFoundError [[https://benchmarkstt.readthedocs.io/en/latest/modules/benchmarkstt.normalization.html#benchmarkstt.normalization.core.ConfigSectionNotFoundError]] {
		}
		class benchmarkstt.normalization.core.Lowercase [[https://benchmarkstt.readthedocs.io/en/latest/modules/benchmarkstt.normalization.html#benchmarkstt.normalization.core.Lowercase]] {
			+__repr__(self)
			+normalize(cls, text)
		}
		class benchmarkstt.normalization.core.Regex [[https://benchmarkstt.readthedocs.io/en/latest/modules/benchmarkstt.normalization.html#benchmarkstt.normalization.core.Regex]] {
			+__init__(self, search: str, replace: str)
			+__repr__(self)
			+normalize(cls, text)
		}
		class benchmarkstt.normalization.core.Replace [[https://benchmarkstt.readthedocs.io/en/latest/modules/benchmarkstt.normalization.html#benchmarkstt.normalization.core.Replace]] {
			+__init__(self, search: str, replace: str)
			+__repr__(self)
			+normalize(cls, text)
		}
		class benchmarkstt.normalization.core.ReplaceWords [[https://benchmarkstt.readthedocs.io/en/latest/modules/benchmarkstt.normalization.html#benchmarkstt.normalization.core.ReplaceWords]] {
			+__init__(self, search: str, replace: str)
			+__repr__(self)
			+normalize(cls, text)
		}
		class benchmarkstt.normalization.core.Unidecode [[https://benchmarkstt.readthedocs.io/en/latest/modules/benchmarkstt.normalization.html#benchmarkstt.normalization.core.Unidecode]] {
			+__repr__(self)
			+normalize(cls, text)
		}

benchmarkstt.normalization.NormalizationComposite - -up- -|> benchmarkstt.normalization.Base
benchmarkstt.normalization.core.Config - -up- -|> benchmarkstt.normalization.Base
benchmarkstt.normalization.core.Lowercase - -up- -|> benchmarkstt.normalization.Base
benchmarkstt.normalization.core.Regex - -up- -|> benchmarkstt.normalization.BaseWithFileSupport
benchmarkstt.normalization.core.Replace - -up- -|> benchmarkstt.normalization.BaseWithFileSupport
benchmarkstt.normalization.core.ReplaceWords - -up- -|> benchmarkstt.normalization.BaseWithFileSupport
benchmarkstt.normalization.core.Unidecode - -up- -|> benchmarkstt.normalization.Base
@enduml

PlantUML version 1.2020.15(Sun Jun 28 11:39:45 UTC 2020)
(GPL source distribution)
Java Runtime: OpenJDK Runtime Environment
JVM: OpenJDK 64-Bit Server VM
Default Encoding: UTF-8
Language: en
Country: BE
--></g></svg>