<?xml version="1.0" encoding="UTF-8" standalone="no"?><svg xmlns="http://www.w3.org/2000/svg" xmlns:xlink="http://www.w3.org/1999/xlink" contentScriptType="application/ecmascript" contentStyleType="text/css" height="407px" preserveAspectRatio="none" style="width:426px;height:407px;" version="1.1" viewBox="0 0 426 407" width="426px" zoomAndPan="magnify"><defs><filter height="300%" id="f150a7zlw1v34h" width="300%" x="-1" y="-1"><feGaussianBlur result="blurOut" stdDeviation="2.0"/><feColorMatrix in="blurOut" result="blurOut2" type="matrix" values="0 0 0 0 0 0 0 0 0 0 0 0 0 0 0 0 0 0 .4 0"/><feOffset dx="4.0" dy="4.0" in="blurOut2" result="blurOut3"/><feBlend in="SourceGraphic" in2="blurOut3" mode="normal"/></filter></defs><g><text fill="#000000" font-family="sans-serif" font-size="18" lengthAdjust="spacingAndGlyphs" textLength="245" x="81.5" y="17.4023">benchmarkstt.segmentation</text><!--MD5=[65eb5fcee437765d99707c9196661bb6]
cluster benchmarkstt.segmentation--><polygon fill="#FFFFFF" filter="url(#f150a7zlw1v34h)" points="102,283.1992,309,283.1992,316,305.6875,319,305.6875,319,395.1992,102,395.1992,102,283.1992" style="stroke: #000000; stroke-width: 1.5;"/><line style="stroke: #000000; stroke-width: 1.5;" x1="102" x2="316" y1="305.6875" y2="305.6875"/><text fill="#000000" font-family="sans-serif" font-size="14" font-weight="bold" lengthAdjust="spacingAndGlyphs" textLength="201" x="106" y="298.7344">benchmarkstt.segmentation</text><!--MD5=[bbd7f55af96c8522598147a787b5c5b9]
cluster benchmarkstt.segmentation.core--><polygon fill="#FFFFFF" filter="url(#f150a7zlw1v34h)" points="16,27.1992,256,27.1992,263,49.6875,404,49.6875,404,152.1992,16,152.1992,16,27.1992" style="stroke: #000000; stroke-width: 1.5;"/><line style="stroke: #000000; stroke-width: 1.5;" x1="16" x2="263" y1="49.6875" y2="49.6875"/><text fill="#000000" font-family="sans-serif" font-size="14" font-weight="bold" lengthAdjust="spacingAndGlyphs" textLength="234" x="20" y="42.7344">benchmarkstt.segmentation.core</text><!--MD5=[002c34d32132957f7ddeee40910e80d3]
class benchmarkstt.segmentation.Base--><a href="https://benchmarkstt.readthedocs.io/en/latest/modules/benchmarkstt.segmentation.html#benchmarkstt.segmentation.Base" target="_top" title="https://benchmarkstt.readthedocs.io/en/latest/modules/benchmarkstt.segmentation.html#benchmarkstt.segmentation.Base" xlink:actuate="onRequest" xlink:href="https://benchmarkstt.readthedocs.io/en/latest/modules/benchmarkstt.segmentation.html#benchmarkstt.segmentation.Base" xlink:show="new" xlink:title="https://benchmarkstt.readthedocs.io/en/latest/modules/benchmarkstt.segmentation.html#benchmarkstt.segmentation.Base" xlink:type="simple"><rect fill="#FEFECE" filter="url(#f150a7zlw1v34h)" height="60.9551" id="benchmarkstt.segmentation.Base" style="stroke: #A80036; stroke-width: 1.5;" width="95" x="162.5" y="318.1992"/><ellipse cx="193.7" cy="334.1992" fill="#ADD1B2" rx="11" ry="11" style="stroke: #A80036; stroke-width: 1.0;"/><path d="M196.1731,340.3423 Q195.5921,340.6411 194.9529,340.7905 Q194.3138,340.9399 193.6082,340.9399 Q191.1014,340.9399 189.7815,339.2881 Q188.4617,337.6362 188.4617,334.5151 Q188.4617,331.3857 189.7815,329.7339 Q191.1014,328.082 193.6082,328.082 Q194.3138,328.082 194.9612,328.2314 Q195.6087,328.3809 196.1731,328.6797 L196.1731,331.4023 Q195.5423,330.8213 194.9488,330.5515 Q194.3553,330.2817 193.7244,330.2817 Q192.3797,330.2817 191.6949,331.3484 Q191.0101,332.415 191.0101,334.5151 Q191.0101,336.6069 191.6949,337.6736 Q192.3797,338.7402 193.7244,338.7402 Q194.3553,338.7402 194.9488,338.4705 Q195.5423,338.2007 196.1731,337.6196 Z "/><text fill="#000000" font-family="sans-serif" font-size="12" lengthAdjust="spacingAndGlyphs" textLength="27" x="211.3" y="338.7344">Base</text><line style="stroke: #A80036; stroke-width: 1.5;" x1="163.5" x2="256.5" y1="350.1992" y2="350.1992"/><line style="stroke: #A80036; stroke-width: 1.5;" x1="163.5" x2="256.5" y1="358.1992" y2="358.1992"/><ellipse cx="173.5" cy="369.1992" fill="#84BE84" rx="3" ry="3" style="stroke: #038048; stroke-width: 1.0;"/><text fill="#000000" font-family="sans-serif" font-size="11" lengthAdjust="spacingAndGlyphs" textLength="69" x="182.5" y="372.834">__iter__(self)</text></a><!--MD5=[e6682fb9f1ffb38935fc3ffe4e96004d]
class benchmarkstt.segmentation.core.Simple--><a href="https://benchmarkstt.readthedocs.io/en/latest/modules/benchmarkstt.segmentation.core.html#benchmarkstt.segmentation.core.Simple" target="_top" title="https://benchmarkstt.readthedocs.io/en/latest/modules/benchmarkstt.segmentation.core.html#benchmarkstt.segmentation.core.Simple" xlink:actuate="onRequest" xlink:href="https://benchmarkstt.readthedocs.io/en/latest/modules/benchmarkstt.segmentation.core.html#benchmarkstt.segmentation.core.Simple" xlink:show="new" xlink:title="https://benchmarkstt.readthedocs.io/en/latest/modules/benchmarkstt.segmentation.core.html#benchmarkstt.segmentation.core.Simple" xlink:type="simple"><rect fill="#FEFECE" filter="url(#f150a7zlw1v34h)" height="73.9102" id="benchmarkstt.segmentation.core.Simple" style="stroke: #A80036; stroke-width: 1.5;" width="355" x="32.5" y="62.1992"/><ellipse cx="186.75" cy="78.1992" fill="#ADD1B2" rx="11" ry="11" style="stroke: #A80036; stroke-width: 1.0;"/><path d="M189.2231,84.3423 Q188.6421,84.6411 188.0029,84.7905 Q187.3638,84.9399 186.6582,84.9399 Q184.1514,84.9399 182.8315,83.2881 Q181.5117,81.6362 181.5117,78.5151 Q181.5117,75.3857 182.8315,73.7339 Q184.1514,72.082 186.6582,72.082 Q187.3638,72.082 188.0112,72.2314 Q188.6587,72.3809 189.2231,72.6797 L189.2231,75.4023 Q188.5923,74.8213 187.9988,74.5515 Q187.4053,74.2817 186.7744,74.2817 Q185.4297,74.2817 184.7449,75.3484 Q184.0601,76.415 184.0601,78.5151 Q184.0601,80.6069 184.7449,81.6736 Q185.4297,82.7402 186.7744,82.7402 Q187.4053,82.7402 187.9988,82.4705 Q188.5923,82.2007 189.2231,81.6196 Z "/><text fill="#000000" font-family="sans-serif" font-size="12" lengthAdjust="spacingAndGlyphs" textLength="38" x="207.25" y="82.7344">Simple</text><line style="stroke: #A80036; stroke-width: 1.5;" x1="33.5" x2="386.5" y1="94.1992" y2="94.1992"/><line style="stroke: #A80036; stroke-width: 1.5;" x1="33.5" x2="386.5" y1="102.1992" y2="102.1992"/><ellipse cx="43.5" cy="113.1992" fill="#84BE84" rx="3" ry="3" style="stroke: #038048; stroke-width: 1.0;"/><text fill="#000000" font-family="sans-serif" font-size="11" lengthAdjust="spacingAndGlyphs" textLength="329" x="52.5" y="116.834">__init__(self, text: str, pattern='[\n\t\s]+', normalizer=None)</text><ellipse cx="43.5" cy="126.1543" fill="#84BE84" rx="3" ry="3" style="stroke: #038048; stroke-width: 1.0;"/><text fill="#000000" font-family="sans-serif" font-size="11" lengthAdjust="spacingAndGlyphs" textLength="69" x="52.5" y="129.7891">__iter__(self)</text></a><!--MD5=[38c47d21492b1cc4a827009b25b5ec84]
link benchmarkstt.segmentation.core.Simple to benchmarkstt.segmentation.Base--><path d="M210,136.4492 C210,179.0692 210,250.0292 210,297.8092 " fill="none" id="benchmarkstt.segmentation.core.Simple-&gt;benchmarkstt.segmentation.Base" style="stroke: #A80036; stroke-width: 1.0;"/><polygon fill="none" points="217,297.9492,210,317.9492,203,297.9492,217,297.9492" style="stroke: #A80036; stroke-width: 1.0;"/><!--MD5=[f459e65e01d5a57c88802753436f3db2]
@startuml
title benchmarkstt.segmentation

package benchmarkstt.segmentation {

	class benchmarkstt.segmentation.Base [[https://benchmarkstt.readthedocs.io/en/latest/modules/benchmarkstt.segmentation.html#benchmarkstt.segmentation.Base]] {
	+__iter__(self)
	}
}
package benchmarkstt.segmentation.core {

	class benchmarkstt.segmentation.core.Simple [[https://benchmarkstt.readthedocs.io/en/latest/modules/benchmarkstt.segmentation.core.html#benchmarkstt.segmentation.core.Simple]] {
	+__init__(self, text: str, pattern='[\\n\\t\\s]+', normalizer=None)
	+__iter__(self)
	}
}

benchmarkstt.segmentation.core.Simple - - - -|> benchmarkstt.segmentation.Base
@enduml

PlantUML version 1.2020.15(Sun Jun 28 13:39:45 CEST 2020)
(GPL source distribution)
Java Runtime: OpenJDK Runtime Environment
JVM: OpenJDK 64-Bit Server VM
Default Encoding: UTF-8
Language: en
Country: BE
--></g></svg>