<?xml version="1.0" encoding="UTF-8" standalone="no"?><svg xmlns="http://www.w3.org/2000/svg" xmlns:xlink="http://www.w3.org/1999/xlink" contentScriptType="application/ecmascript" contentStyleType="text/css" height="338px" preserveAspectRatio="none" style="width:1702px;height:338px;" version="1.1" viewBox="0 0 1702 338" width="1702px" zoomAndPan="magnify"><defs><filter height="300%" id="faem0u6uobxjp" width="300%" x="-1" y="-1"><feGaussianBlur result="blurOut" stdDeviation="2.0"/><feColorMatrix in="blurOut" result="blurOut2" type="matrix" values="0 0 0 0 0 0 0 0 0 0 0 0 0 0 0 0 0 0 .4 0"/><feOffset dx="4.0" dy="4.0" in="blurOut2" result="blurOut3"/><feBlend in="SourceGraphic" in2="blurOut3" mode="normal"/></filter></defs><g><text fill="#000000" font-family="sans-serif" font-size="18" lengthAdjust="spacingAndGlyphs" textLength="190" x="747" y="17.4023">benchmarkstt.metrics</text><!--MD5=[22ea792f0a86ed46e658ff5419811104]
cluster benchmarkstt.metrics--><rect fill="#FFFFFF" filter="url(#faem0u6uobxjp)" height="115" style="stroke: #000000; stroke-width: 1.5;" width="488" x="497" y="28.1992"/><path d="M663,29.1992 L663,37.6875 L653,47.6875 L497,47.6875 " fill="none" style="stroke: #000000; stroke-width: 1.5;"/><text fill="#000000" font-family="sans-serif" font-size="14" font-weight="bold" lengthAdjust="spacingAndGlyphs" textLength="156" x="500" y="42.7344">benchmarkstt.metrics</text><!--MD5=[144dc3a7777fd2b902a939eb9db82fdd]
cluster benchmarkstt.metrics.core--><rect fill="#FFFFFF" filter="url(#faem0u6uobxjp)" height="154" style="stroke: #000000; stroke-width: 1.5;" width="1678" x="7" y="167.1992"/><path d="M206,168.1992 L206,176.6875 L196,186.6875 L7,186.6875 " fill="none" style="stroke: #000000; stroke-width: 1.5;"/><text fill="#000000" font-family="sans-serif" font-size="14" font-weight="bold" lengthAdjust="spacingAndGlyphs" textLength="189" x="10" y="181.7344">benchmarkstt.metrics.core</text><!--MD5=[5df2e3f9a60f5e68627f199cfdd93bb0]
class benchmarkstt.metrics.Base--><a href="https://benchmarkstt.readthedocs.io/en/latest/modules/benchmarkstt.metrics.html#benchmarkstt.metrics.Base" target="_top" title="https://benchmarkstt.readthedocs.io/en/latest/modules/benchmarkstt.metrics.html#benchmarkstt.metrics.Base" xlink:actuate="onRequest" xlink:href="https://benchmarkstt.readthedocs.io/en/latest/modules/benchmarkstt.metrics.html#benchmarkstt.metrics.Base" xlink:show="new" xlink:title="https://benchmarkstt.readthedocs.io/en/latest/modules/benchmarkstt.metrics.html#benchmarkstt.metrics.Base" xlink:type="simple"><rect fill="#CCCCCC" filter="url(#faem0u6uobxjp)" height="63.9102" id="benchmarkstt.metrics.Base" style="stroke: #AAAAAA; stroke-width: 1.5;" width="455" x="513.5" y="63.1992"/><ellipse cx="723.5" cy="76.1992" fill="#FF8800" rx="8" ry="8" style="stroke: #AAAAAA; stroke-width: 1.0;"/><path d="M723.6353,80.355 Q722.7437,80.355 721.989,80.0918 Q721.2344,79.8286 720.6919,79.3076 Q720.1494,78.7866 719.8513,78.0078 Q719.5532,77.229 719.5532,76.2085 Q719.5532,75.2578 719.8379,74.4844 Q720.1226,73.7109 720.665,73.1577 Q721.186,72.626 721.9568,72.3359 Q722.7275,72.0459 723.6406,72.0459 Q724.1455,72.0459 724.551,72.1023 Q724.9565,72.1587 725.3003,72.25 Q725.6602,72.3521 725.9529,72.4783 Q726.2456,72.6045 726.4658,72.7119 L726.4658,74.6509 L726.2295,74.6509 Q726.0791,74.522 725.8508,74.3447 Q725.6226,74.1675 725.3325,73.9956 Q725.0371,73.8237 724.6934,73.7056 Q724.3496,73.5874 723.9575,73.5874 Q723.5225,73.5874 723.1304,73.7244 Q722.7383,73.8613 722.4053,74.1782 Q722.0884,74.4844 721.8923,74.9893 Q721.6963,75.4941 721.6963,76.2139 Q721.6963,76.9658 721.9084,77.4707 Q722.1206,77.9756 722.4429,78.2656 Q722.7705,78.561 723.1733,78.6873 Q723.5762,78.8135 723.9683,78.8135 Q724.3442,78.8135 724.7122,78.7007 Q725.0801,78.5879 725.3916,78.3945 Q725.6548,78.2388 725.8804,78.0615 Q726.106,77.8843 726.251,77.7554 L726.4658,77.7554 L726.4658,79.6675 Q726.165,79.8018 725.8911,79.9199 Q725.6172,80.0381 725.3164,80.124 Q724.9243,80.2368 724.5806,80.2959 Q724.2368,80.355 723.6353,80.355 Z "/><text fill="#000000" font-family="Verdana" font-size="11" lengthAdjust="spacingAndGlyphs" textLength="28" x="739.5" y="80.574">Base</text><line style="stroke: #AAAAAA; stroke-width: 1.5;" x1="514.5" x2="967.5" y1="89.1992" y2="89.1992"/><ellipse cx="524.5" cy="117.1543" fill="#84BE84" rx="3" ry="3" style="stroke: #038048; stroke-width: 1.0;"/><text fill="#333333" font-family="sans-serif" font-size="11" lengthAdjust="spacingAndGlyphs" textLength="432" x="530.5" y="120.7891">compare(ref: benchmarkstt.schema.Schema, hyp: benchmarkstt.schema.Schema)</text><line style="stroke: #AAAAAA; stroke-width: 1.0; stroke-dasharray: 1.0,2.0;" x1="514.5" x2="700.5" y1="103.6768" y2="103.6768"/><text fill="#333333" font-family="sans-serif" font-size="11" lengthAdjust="spacingAndGlyphs" textLength="81" x="700.5" y="107.334">Public Methods</text><line style="stroke: #AAAAAA; stroke-width: 1.0; stroke-dasharray: 1.0,2.0;" x1="781.5" x2="967.5" y1="103.6768" y2="103.6768"/></a><!--MD5=[16641109c0e363d96d1ecc4c603e3de1]
class benchmarkstt.metrics.core.DiffCounts--><a href="https://benchmarkstt.readthedocs.io/en/latest/modules/benchmarkstt.metrics.core.html#benchmarkstt.metrics.core.DiffCounts" target="_top" title="https://benchmarkstt.readthedocs.io/en/latest/modules/benchmarkstt.metrics.core.html#benchmarkstt.metrics.core.DiffCounts" xlink:actuate="onRequest" xlink:href="https://benchmarkstt.readthedocs.io/en/latest/modules/benchmarkstt.metrics.core.html#benchmarkstt.metrics.core.DiffCounts" xlink:show="new" xlink:title="https://benchmarkstt.readthedocs.io/en/latest/modules/benchmarkstt.metrics.core.html#benchmarkstt.metrics.core.DiffCounts" xlink:type="simple"><rect fill="#CCCCCC" filter="url(#faem0u6uobxjp)" height="76.8652" id="benchmarkstt.metrics.core.DiffCounts" style="stroke: #AAAAAA; stroke-width: 1.5;" width="455" x="1213.5" y="215.1992"/><ellipse cx="1408.5" cy="228.1992" fill="#FF8800" rx="8" ry="8" style="stroke: #AAAAAA; stroke-width: 1.0;"/><path d="M1408.6353,232.355 Q1407.7437,232.355 1406.989,232.0918 Q1406.2344,231.8286 1405.6919,231.3076 Q1405.1494,230.7866 1404.8513,230.0078 Q1404.5532,229.229 1404.5532,228.2085 Q1404.5532,227.2578 1404.8379,226.4844 Q1405.1226,225.7109 1405.665,225.1577 Q1406.186,224.626 1406.9568,224.3359 Q1407.7275,224.0459 1408.6406,224.0459 Q1409.1455,224.0459 1409.551,224.1023 Q1409.9565,224.1587 1410.3003,224.25 Q1410.6602,224.3521 1410.9529,224.4783 Q1411.2456,224.6045 1411.4658,224.7119 L1411.4658,226.6509 L1411.2295,226.6509 Q1411.0791,226.522 1410.8508,226.3447 Q1410.6226,226.1675 1410.3325,225.9956 Q1410.0371,225.8237 1409.6934,225.7056 Q1409.3496,225.5874 1408.9575,225.5874 Q1408.5225,225.5874 1408.1304,225.7244 Q1407.7383,225.8613 1407.4053,226.1782 Q1407.0884,226.4844 1406.8923,226.9893 Q1406.6963,227.4941 1406.6963,228.2139 Q1406.6963,228.9658 1406.9084,229.4707 Q1407.1206,229.9756 1407.4429,230.2656 Q1407.7705,230.561 1408.1733,230.6873 Q1408.5762,230.8135 1408.9683,230.8135 Q1409.3442,230.8135 1409.7122,230.7007 Q1410.0801,230.5879 1410.3916,230.3945 Q1410.6548,230.2388 1410.8804,230.0615 Q1411.106,229.8843 1411.251,229.7554 L1411.4658,229.7554 L1411.4658,231.6675 Q1411.165,231.8018 1410.8911,231.9199 Q1410.6172,232.0381 1410.3164,232.124 Q1409.9243,232.2368 1409.5806,232.2959 Q1409.2368,232.355 1408.6353,232.355 Z "/><text fill="#000000" font-family="Verdana" font-size="11" lengthAdjust="spacingAndGlyphs" textLength="58" x="1424.5" y="232.574">DiffCounts</text><line style="stroke: #AAAAAA; stroke-width: 1.5;" x1="1214.5" x2="1667.5" y1="241.1992" y2="241.1992"/><ellipse cx="1224.5" cy="269.1543" fill="#84BE84" rx="3" ry="3" style="stroke: #038048; stroke-width: 1.0;"/><text fill="#333333" font-family="sans-serif" font-size="11" lengthAdjust="spacingAndGlyphs" textLength="148" x="1230.5" y="272.7891">__init__(differ_class=None)</text><ellipse cx="1224.5" cy="282.1094" fill="#84BE84" rx="3" ry="3" style="stroke: #038048; stroke-width: 1.0;"/><text fill="#333333" font-family="sans-serif" font-size="11" lengthAdjust="spacingAndGlyphs" textLength="432" x="1230.5" y="285.7441">compare(ref: benchmarkstt.schema.Schema, hyp: benchmarkstt.schema.Schema)</text><line style="stroke: #AAAAAA; stroke-width: 1.0; stroke-dasharray: 1.0,2.0;" x1="1214.5" x2="1400.5" y1="255.6768" y2="255.6768"/><text fill="#333333" font-family="sans-serif" font-size="11" lengthAdjust="spacingAndGlyphs" textLength="81" x="1400.5" y="259.334">Public Methods</text><line style="stroke: #AAAAAA; stroke-width: 1.0; stroke-dasharray: 1.0,2.0;" x1="1481.5" x2="1667.5" y1="255.6768" y2="255.6768"/></a><!--MD5=[acc3773e40c658ad934768473fb05324]
class benchmarkstt.metrics.core.OpcodeCounts--><a href="https://benchmarkstt.readthedocs.io/en/latest/modules/benchmarkstt.metrics.core.html#benchmarkstt.metrics.core.OpcodeCounts" target="_top" title="https://benchmarkstt.readthedocs.io/en/latest/modules/benchmarkstt.metrics.core.html#benchmarkstt.metrics.core.OpcodeCounts" xlink:actuate="onRequest" xlink:href="https://benchmarkstt.readthedocs.io/en/latest/modules/benchmarkstt.metrics.core.html#benchmarkstt.metrics.core.OpcodeCounts" xlink:show="new" xlink:title="https://benchmarkstt.readthedocs.io/en/latest/modules/benchmarkstt.metrics.core.html#benchmarkstt.metrics.core.OpcodeCounts" xlink:type="simple"><rect fill="#CCCCCC" filter="url(#faem0u6uobxjp)" height="102.7754" id="benchmarkstt.metrics.core.OpcodeCounts" style="stroke: #AAAAAA; stroke-width: 1.5;" width="175" x="1003.5" y="202.1992"/><ellipse cx="1015.5" cy="215.1992" fill="#FFFF00" rx="8" ry="8" style="stroke: #AAAAAA; stroke-width: 1.0;"/><path d="M1018.7778,213.4985 L1016.2803,213.4985 L1016.2803,219.9492 L1014.2178,219.9492 L1014.2178,213.4985 L1011.7202,213.4985 L1011.7202,211.9517 L1018.7778,211.9517 Z "/><text fill="#000000" font-family="Verdana" font-size="11" lengthAdjust="spacingAndGlyphs" textLength="82" x="1026.5" y="219.574">OpcodeCounts</text><rect fill="#FFFFFF" height="14.9551" style="stroke: #333333; stroke-width: 1.0; stroke-dasharray: 2.0,2.0;" width="65" x="1116.5" y="199.1992"/><text fill="#333333" font-family="sans-serif" font-size="11" font-style="italic" lengthAdjust="spacingAndGlyphs" textLength="63" x="1117.5" y="210.834">namedtuple</text><line style="stroke: #AAAAAA; stroke-width: 1.5;" x1="1004.5" x2="1177.5" y1="228.1992" y2="228.1992"/><ellipse cx="1014.5" cy="256.1543" fill="none" rx="3" ry="3" style="stroke: #038048; stroke-width: 1.0;"/><text fill="#333333" font-family="sans-serif" font-size="11" lengthAdjust="spacingAndGlyphs" textLength="29" x="1020.5" y="259.7891">equal</text><ellipse cx="1014.5" cy="269.1094" fill="none" rx="3" ry="3" style="stroke: #038048; stroke-width: 1.0;"/><text fill="#333333" font-family="sans-serif" font-size="11" lengthAdjust="spacingAndGlyphs" textLength="39" x="1020.5" y="272.7441">replace</text><ellipse cx="1014.5" cy="282.0645" fill="none" rx="3" ry="3" style="stroke: #038048; stroke-width: 1.0;"/><text fill="#333333" font-family="sans-serif" font-size="11" lengthAdjust="spacingAndGlyphs" textLength="31" x="1020.5" y="285.6992">insert</text><ellipse cx="1014.5" cy="295.0195" fill="none" rx="3" ry="3" style="stroke: #038048; stroke-width: 1.0;"/><text fill="#333333" font-family="sans-serif" font-size="11" lengthAdjust="spacingAndGlyphs" textLength="32" x="1020.5" y="298.6543">delete</text><line style="stroke: #AAAAAA; stroke-width: 1.0; stroke-dasharray: 1.0,2.0;" x1="1004.5" x2="1075.5" y1="242.6768" y2="242.6768"/><text fill="#333333" font-family="sans-serif" font-size="11" lengthAdjust="spacingAndGlyphs" textLength="31" x="1075.5" y="246.334">Fields</text><line style="stroke: #AAAAAA; stroke-width: 1.0; stroke-dasharray: 1.0,2.0;" x1="1106.5" x2="1177.5" y1="242.6768" y2="242.6768"/></a><!--MD5=[1b5fccb2ad4a9064da2e7d8609e9b4b6]
class benchmarkstt.metrics.core.WER--><a href="https://benchmarkstt.readthedocs.io/en/latest/modules/benchmarkstt.metrics.core.html#benchmarkstt.metrics.core.WER" target="_top" title="https://benchmarkstt.readthedocs.io/en/latest/modules/benchmarkstt.metrics.core.html#benchmarkstt.metrics.core.WER" xlink:actuate="onRequest" xlink:href="https://benchmarkstt.readthedocs.io/en/latest/modules/benchmarkstt.metrics.core.html#benchmarkstt.metrics.core.WER" xlink:show="new" xlink:title="https://benchmarkstt.readthedocs.io/en/latest/modules/benchmarkstt.metrics.core.html#benchmarkstt.metrics.core.WER" xlink:type="simple"><rect fill="#CCCCCC" filter="url(#faem0u6uobxjp)" height="76.8652" id="benchmarkstt.metrics.core.WER" style="stroke: #AAAAAA; stroke-width: 1.5;" width="455" x="513.5" y="215.1992"/><ellipse cx="724.5" cy="228.1992" fill="#FF8800" rx="8" ry="8" style="stroke: #AAAAAA; stroke-width: 1.0;"/><path d="M724.6353,232.355 Q723.7437,232.355 722.989,232.0918 Q722.2344,231.8286 721.6919,231.3076 Q721.1494,230.7866 720.8513,230.0078 Q720.5532,229.229 720.5532,228.2085 Q720.5532,227.2578 720.8379,226.4844 Q721.1226,225.7109 721.665,225.1577 Q722.186,224.626 722.9568,224.3359 Q723.7275,224.0459 724.6406,224.0459 Q725.1455,224.0459 725.551,224.1023 Q725.9565,224.1587 726.3003,224.25 Q726.6602,224.3521 726.9529,224.4783 Q727.2456,224.6045 727.4658,224.7119 L727.4658,226.6509 L727.2295,226.6509 Q727.0791,226.522 726.8508,226.3447 Q726.6226,226.1675 726.3325,225.9956 Q726.0371,225.8237 725.6934,225.7056 Q725.3496,225.5874 724.9575,225.5874 Q724.5225,225.5874 724.1304,225.7244 Q723.7383,225.8613 723.4053,226.1782 Q723.0884,226.4844 722.8923,226.9893 Q722.6963,227.4941 722.6963,228.2139 Q722.6963,228.9658 722.9084,229.4707 Q723.1206,229.9756 723.4429,230.2656 Q723.7705,230.561 724.1733,230.6873 Q724.5762,230.8135 724.9683,230.8135 Q725.3442,230.8135 725.7122,230.7007 Q726.0801,230.5879 726.3916,230.3945 Q726.6548,230.2388 726.8804,230.0615 Q727.106,229.8843 727.251,229.7554 L727.4658,229.7554 L727.4658,231.6675 Q727.165,231.8018 726.8911,231.9199 Q726.6172,232.0381 726.3164,232.124 Q725.9243,232.2368 725.5806,232.2959 Q725.2368,232.355 724.6353,232.355 Z "/><text fill="#000000" font-family="Verdana" font-size="11" lengthAdjust="spacingAndGlyphs" textLength="26" x="740.5" y="232.574">WER</text><line style="stroke: #AAAAAA; stroke-width: 1.5;" x1="514.5" x2="967.5" y1="241.1992" y2="241.1992"/><ellipse cx="524.5" cy="269.1543" fill="#84BE84" rx="3" ry="3" style="stroke: #038048; stroke-width: 1.0;"/><text fill="#333333" font-family="sans-serif" font-size="11" lengthAdjust="spacingAndGlyphs" textLength="221" x="530.5" y="272.7891">__init__(mode=None, differ_class=None)</text><ellipse cx="524.5" cy="282.1094" fill="#84BE84" rx="3" ry="3" style="stroke: #038048; stroke-width: 1.0;"/><text fill="#333333" font-family="sans-serif" font-size="11" lengthAdjust="spacingAndGlyphs" textLength="432" x="530.5" y="285.7441">compare(ref: benchmarkstt.schema.Schema, hyp: benchmarkstt.schema.Schema)</text><line style="stroke: #AAAAAA; stroke-width: 1.0; stroke-dasharray: 1.0,2.0;" x1="514.5" x2="700.5" y1="255.6768" y2="255.6768"/><text fill="#333333" font-family="sans-serif" font-size="11" lengthAdjust="spacingAndGlyphs" textLength="81" x="700.5" y="259.334">Public Methods</text><line style="stroke: #AAAAAA; stroke-width: 1.0; stroke-dasharray: 1.0,2.0;" x1="781.5" x2="967.5" y1="255.6768" y2="255.6768"/></a><!--MD5=[ef94872a4633e4f53c81dbb8c48f7a6f]
class benchmarkstt.metrics.core.WordDiffs--><a href="https://benchmarkstt.readthedocs.io/en/latest/modules/benchmarkstt.metrics.core.html#benchmarkstt.metrics.core.WordDiffs" target="_top" title="https://benchmarkstt.readthedocs.io/en/latest/modules/benchmarkstt.metrics.core.html#benchmarkstt.metrics.core.WordDiffs" xlink:actuate="onRequest" xlink:href="https://benchmarkstt.readthedocs.io/en/latest/modules/benchmarkstt.metrics.core.html#benchmarkstt.metrics.core.WordDiffs" xlink:show="new" xlink:title="https://benchmarkstt.readthedocs.io/en/latest/modules/benchmarkstt.metrics.core.html#benchmarkstt.metrics.core.WordDiffs" xlink:type="simple"><rect fill="#CCCCCC" filter="url(#faem0u6uobxjp)" height="76.8652" id="benchmarkstt.metrics.core.WordDiffs" style="stroke: #AAAAAA; stroke-width: 1.5;" width="455" x="23.5" y="215.1992"/><ellipse cx="220" cy="228.1992" fill="#FF8800" rx="8" ry="8" style="stroke: #AAAAAA; stroke-width: 1.0;"/><path d="M220.1353,232.355 Q219.2437,232.355 218.489,232.0918 Q217.7344,231.8286 217.1919,231.3076 Q216.6494,230.7866 216.3513,230.0078 Q216.0532,229.229 216.0532,228.2085 Q216.0532,227.2578 216.3379,226.4844 Q216.6226,225.7109 217.165,225.1577 Q217.686,224.626 218.4568,224.3359 Q219.2275,224.0459 220.1406,224.0459 Q220.6455,224.0459 221.051,224.1023 Q221.4565,224.1587 221.8003,224.25 Q222.1602,224.3521 222.4529,224.4783 Q222.7456,224.6045 222.9658,224.7119 L222.9658,226.6509 L222.7295,226.6509 Q222.5791,226.522 222.3508,226.3447 Q222.1226,226.1675 221.8325,225.9956 Q221.5371,225.8237 221.1934,225.7056 Q220.8496,225.5874 220.4575,225.5874 Q220.0225,225.5874 219.6304,225.7244 Q219.2383,225.8613 218.9053,226.1782 Q218.5884,226.4844 218.3923,226.9893 Q218.1963,227.4941 218.1963,228.2139 Q218.1963,228.9658 218.4084,229.4707 Q218.6206,229.9756 218.9429,230.2656 Q219.2705,230.561 219.6733,230.6873 Q220.0762,230.8135 220.4683,230.8135 Q220.8442,230.8135 221.2122,230.7007 Q221.5801,230.5879 221.8916,230.3945 Q222.1548,230.2388 222.3804,230.0615 Q222.606,229.8843 222.751,229.7554 L222.9658,229.7554 L222.9658,231.6675 Q222.665,231.8018 222.3911,231.9199 Q222.1172,232.0381 221.8164,232.124 Q221.4243,232.2368 221.0806,232.2959 Q220.7368,232.355 220.1353,232.355 Z "/><text fill="#000000" font-family="Verdana" font-size="11" lengthAdjust="spacingAndGlyphs" textLength="55" x="236" y="232.574">WordDiffs</text><line style="stroke: #AAAAAA; stroke-width: 1.5;" x1="24.5" x2="477.5" y1="241.1992" y2="241.1992"/><ellipse cx="34.5" cy="269.1543" fill="#84BE84" rx="3" ry="3" style="stroke: #038048; stroke-width: 1.0;"/><text fill="#333333" font-family="sans-serif" font-size="11" lengthAdjust="spacingAndGlyphs" textLength="226" x="40.5" y="272.7891">__init__(dialect=None, differ_class=None)</text><ellipse cx="34.5" cy="282.1094" fill="#84BE84" rx="3" ry="3" style="stroke: #038048; stroke-width: 1.0;"/><text fill="#333333" font-family="sans-serif" font-size="11" lengthAdjust="spacingAndGlyphs" textLength="432" x="40.5" y="285.7441">compare(ref: benchmarkstt.schema.Schema, hyp: benchmarkstt.schema.Schema)</text><line style="stroke: #AAAAAA; stroke-width: 1.0; stroke-dasharray: 1.0,2.0;" x1="24.5" x2="210.5" y1="255.6768" y2="255.6768"/><text fill="#333333" font-family="sans-serif" font-size="11" lengthAdjust="spacingAndGlyphs" textLength="81" x="210.5" y="259.334">Public Methods</text><line style="stroke: #AAAAAA; stroke-width: 1.0; stroke-dasharray: 1.0,2.0;" x1="291.5" x2="477.5" y1="255.6768" y2="255.6768"/></a><!--MD5=[0e20ec8c1c3e6f52fb3eaed392cf3205]
reverse link benchmarkstt.metrics.Base to benchmarkstt.metrics.core.DiffCounts--><path d="M988.55,120.0992 C1056.41,129.4592 1129.56,142.1592 1196,159.1992 C1250.9,173.2792 1310.35,195.7792 1356.94,215.1792 " fill="none" id="benchmarkstt.metrics.Base&lt;-benchmarkstt.metrics.core.DiffCounts" style="stroke: #000000; stroke-width: 1.0;"/><polygon fill="none" points="987.51,127.0292,968.62,117.4292,989.37,113.1492,987.51,127.0292" style="stroke: #000000; stroke-width: 1.0;"/><!--MD5=[30299ce62ca518511ed25a5a2ec7aa2b]
reverse link benchmarkstt.metrics.Base to benchmarkstt.metrics.core.WER--><path d="M741,147.7292 C741,169.7192 741,194.9192 741,215.1092 " fill="none" id="benchmarkstt.metrics.Base&lt;-benchmarkstt.metrics.core.WER" style="stroke: #000000; stroke-width: 1.0;"/><polygon fill="none" points="734,147.4892,741,127.4892,748,147.4892,734,147.4892" style="stroke: #000000; stroke-width: 1.0;"/><!--MD5=[4985c6bdcdda9aa3aac1b42ffb8ef9ca]
reverse link benchmarkstt.metrics.Base to benchmarkstt.metrics.core.WordDiffs--><path d="M589.29,132.3592 C558.24,140.5592 525.92,149.6792 496,159.1992 C444.37,175.6292 387.81,196.9892 342.04,215.1392 " fill="none" id="benchmarkstt.metrics.Base&lt;-benchmarkstt.metrics.core.WordDiffs" style="stroke: #000000; stroke-width: 1.0;"/><polygon fill="none" points="587.82,125.5092,608.94,127.2492,591.35,139.0592,587.82,125.5092" style="stroke: #000000; stroke-width: 1.0;"/><!--MD5=[44f9ac9dc5fad2eaabd2c009cc5c0478]
@startuml

title benchmarkstt.metrics

skinparam packageStyle Frame
!define LIGHTORANGE
!includeurl https://raw.githubusercontent.com/Drakemor/RedDress-PlantUML/master/style.puml
package benchmarkstt.metrics {

	class benchmarkstt.metrics.Base  [[https://benchmarkstt.readthedocs.io/en/latest/modules/benchmarkstt.metrics.html#benchmarkstt.metrics.Base]] {
		.. Public Methods ..
		+compare(ref: benchmarkstt.schema.Schema, hyp: benchmarkstt.schema.Schema)
	}



}

package benchmarkstt.metrics {



}

package benchmarkstt.metrics {



}

package benchmarkstt.metrics.core {


	class benchmarkstt.metrics.core.DiffCounts  [[https://benchmarkstt.readthedocs.io/en/latest/modules/benchmarkstt.metrics.core.html#benchmarkstt.metrics.core.DiffCounts]] extends benchmarkstt.metrics.Base {
		.. Public Methods ..
		+__init__(differ_class=None)
		+compare(ref: benchmarkstt.schema.Schema, hyp: benchmarkstt.schema.Schema)
	}


	class benchmarkstt.metrics.core.OpcodeCounts<namedtuple> << (T, yellow) >> [[https://benchmarkstt.readthedocs.io/en/latest/modules/benchmarkstt.metrics.core.html#benchmarkstt.metrics.core.OpcodeCounts]] {
		.. Fields ..
		+equal
		+replace
		+insert
		+delete
	}




	class benchmarkstt.metrics.core.WER  [[https://benchmarkstt.readthedocs.io/en/latest/modules/benchmarkstt.metrics.core.html#benchmarkstt.metrics.core.WER]] extends benchmarkstt.metrics.Base {
		.. Public Methods ..
		+__init__(mode=None, differ_class=None)
		+compare(ref: benchmarkstt.schema.Schema, hyp: benchmarkstt.schema.Schema)
	}


	class benchmarkstt.metrics.core.WordDiffs  [[https://benchmarkstt.readthedocs.io/en/latest/modules/benchmarkstt.metrics.core.html#benchmarkstt.metrics.core.WordDiffs]] extends benchmarkstt.metrics.Base {
		.. Public Methods ..
		+__init__(dialect=None, differ_class=None)
		+compare(ref: benchmarkstt.schema.Schema, hyp: benchmarkstt.schema.Schema)
	}

}




@enduml

@startuml

title benchmarkstt.metrics

skinparam packageStyle Frame










skinparam stereotypeCBackgroundColor FF8800

skinparam backgroundColor fff








skinparam circledCharacter {
  radius 8
  fontSize 11
  fontName Verdana
}

skinparam class {
    backgroundColor ccc
  borderColor aaa
    fontColor 000
  fontName Verdana
  fontSize 11
  stereotypeFontColor 333
  stereotypeFontSize 11
    arrowColor 000
  arrowFontName Verdana
  arrowFontColor 333
  arrowFontSize 11

  attributeFontColor 333
  attributeFontSize 11
  attributeIconSize 11
}


skinparam actor {
    backgroundColor FF8800
  borderColor BB6600
    fontColor 000
  fontName Verdana
  fontSize 11
  stereotypeFontColor 333
  stereotypeFontSize 11
}

skinparam participant {
    backgroundColor ccc
  borderColor aaa
    fontColor 000
  fontName Verdana
  fontSize 11
  stereotypeFontColor 333
  stereotypeFontSize 11
}

skinparam collections {
    backgroundColor ccc
  borderColor aaa
    fontColor 000
  fontName Verdana
  fontSize 11
  stereotypeFontColor 333
  stereotypeFontSize 11
}

skinparam SequenceBox{
    backgroundColor e0e0e0
  borderColor cccccc
    fontColor 000
  fontName Verdana
  fontSize 11
  stereotypeFontColor 333
  stereotypeFontSize 11
}


skinparam interface {
    backgroundColor FF8800
  borderColor BB6600
    fontColor 000
  fontName Verdana
  fontSize 11
  stereotypeFontColor 333
  stereotypeFontSize 11
}

skinparam component {
    backgroundColor ccc
  borderColor aaa
    fontColor 000
  fontName Verdana
  fontSize 11
  stereotypeFontColor 333
  stereotypeFontSize 11
}

skinparam node {
    backgroundColor ccc
  borderColor aaa
    fontColor 000
  fontName Verdana
  fontSize 11
  stereotypeFontColor 333
  stereotypeFontSize 11
}

skinparam database {
    backgroundColor ccc
  borderColor aaa
    fontColor 000
  fontName Verdana
  fontSize 11
  stereotypeFontColor 333
  stereotypeFontSize 11
}

skinparam queue {
    backgroundColor ccc
  borderColor aaa
    fontColor 000
  fontName Verdana
  fontSize 11
  stereotypeFontColor 333
  stereotypeFontSize 11
}


skinparam usecase {
    backgroundColor ccc
  borderColor aaa
    fontColor 000
  fontName Verdana
  fontSize 11
  stereotypeFontColor 333
  stereotypeFontSize 11
    arrowColor 000
  arrowFontName Verdana
  arrowFontColor 333
  arrowFontSize 11
}

skinparam activity {
    backgroundColor ccc
  borderColor aaa
    fontColor 000
  fontName Verdana
  fontSize 11
  stereotypeFontColor 333
  stereotypeFontSize 11
    arrowColor 000
  arrowFontName Verdana
  arrowFontColor 333
  arrowFontSize 11
}

skinparam sequence {
    fontColor 000
  fontName Verdana
  fontSize 11
  stereotypeFontColor 333
  stereotypeFontSize 11
    arrowColor 000
  arrowFontName Verdana
  arrowFontColor 333
  arrowFontSize 11

  lifeLineBorderColor FF8800
  lifeLineBackgroundColor e0e0e0
}

skinparam boundary {
    backgroundColor FF8800
  borderColor BB6600
    fontColor 000
  fontName Verdana
  fontSize 11
  stereotypeFontColor 333
  stereotypeFontSize 11
}

skinparam control {
    backgroundColor FF8800
  borderColor BB6600
    fontColor 000
  fontName Verdana
  fontSize 11
  stereotypeFontColor 333
  stereotypeFontSize 11
}

skinparam entity {
    backgroundColor FF8800
  borderColor BB6600
    fontColor 000
  fontName Verdana
  fontSize 11
  stereotypeFontColor 333
  stereotypeFontSize 11
}


skinparam state {
    backgroundColor ccc
  borderColor aaa
    fontColor 000
  fontName Verdana
  fontSize 11
  stereotypeFontColor 333
  stereotypeFontSize 11
    arrowColor 000
  arrowFontName Verdana
  arrowFontColor 333
  arrowFontSize 11
  startColor FF8800
  endColor BB6600
}


skinparam object {
    backgroundColor ccc
  borderColor aaa
    fontColor 000
  fontName Verdana
  fontSize 11
  stereotypeFontColor 333
  stereotypeFontSize 11
    arrowColor 000
  arrowFontName Verdana
  arrowFontColor 333
  arrowFontSize 11
}


skinparam note {
    backgroundColor FF8800
  borderColor BB6600
    fontColor 000
  fontName Verdana
  fontSize 11
  stereotypeFontColor 333
  stereotypeFontSize 11
}

skinparam cloud {
    backgroundColor ccc
  borderColor aaa
    fontColor 000
  fontName Verdana
  fontSize 11
  stereotypeFontColor 333
  stereotypeFontSize 11
    arrowColor 000
  arrowFontName Verdana
  arrowFontColor 333
  arrowFontSize 11
}

skinparam rectangle {
    backgroundColor ccc
  borderColor aaa
    fontColor 000
  fontName Verdana
  fontSize 11
  stereotypeFontColor 333
  stereotypeFontSize 11
}

skinparam storage {
    backgroundColor ccc
  borderColor aaa
    fontColor 000
  fontName Verdana
  fontSize 11
  stereotypeFontColor 333
  stereotypeFontSize 11
}

package benchmarkstt.metrics {

	class benchmarkstt.metrics.Base  [[https://benchmarkstt.readthedocs.io/en/latest/modules/benchmarkstt.metrics.html#benchmarkstt.metrics.Base]] {
		.. Public Methods ..
		+compare(ref: benchmarkstt.schema.Schema, hyp: benchmarkstt.schema.Schema)
	}



}

package benchmarkstt.metrics {



}

package benchmarkstt.metrics {



}

package benchmarkstt.metrics.core {


	class benchmarkstt.metrics.core.DiffCounts  [[https://benchmarkstt.readthedocs.io/en/latest/modules/benchmarkstt.metrics.core.html#benchmarkstt.metrics.core.DiffCounts]] extends benchmarkstt.metrics.Base {
		.. Public Methods ..
		+__init__(differ_class=None)
		+compare(ref: benchmarkstt.schema.Schema, hyp: benchmarkstt.schema.Schema)
	}


	class benchmarkstt.metrics.core.OpcodeCounts<namedtuple> << (T, yellow) >> [[https://benchmarkstt.readthedocs.io/en/latest/modules/benchmarkstt.metrics.core.html#benchmarkstt.metrics.core.OpcodeCounts]] {
		.. Fields ..
		+equal
		+replace
		+insert
		+delete
	}




	class benchmarkstt.metrics.core.WER  [[https://benchmarkstt.readthedocs.io/en/latest/modules/benchmarkstt.metrics.core.html#benchmarkstt.metrics.core.WER]] extends benchmarkstt.metrics.Base {
		.. Public Methods ..
		+__init__(mode=None, differ_class=None)
		+compare(ref: benchmarkstt.schema.Schema, hyp: benchmarkstt.schema.Schema)
	}


	class benchmarkstt.metrics.core.WordDiffs  [[https://benchmarkstt.readthedocs.io/en/latest/modules/benchmarkstt.metrics.core.html#benchmarkstt.metrics.core.WordDiffs]] extends benchmarkstt.metrics.Base {
		.. Public Methods ..
		+__init__(dialect=None, differ_class=None)
		+compare(ref: benchmarkstt.schema.Schema, hyp: benchmarkstt.schema.Schema)
	}

}




@enduml

PlantUML version 1.2020.15(Sun Jun 28 13:39:45 CEST 2020)
(GPL source distribution)
Java Runtime: OpenJDK Runtime Environment
JVM: OpenJDK 64-Bit Server VM
Default Encoding: UTF-8
Language: en
Country: BE
--></g></svg>