<?xml version="1.0" encoding="UTF-8" standalone="no"?><svg xmlns="http://www.w3.org/2000/svg" xmlns:xlink="http://www.w3.org/1999/xlink" contentScriptType="application/ecmascript" contentStyleType="text/css" height="306px" preserveAspectRatio="none" style="width:675px;height:306px;" version="1.1" viewBox="0 0 675 306" width="675px" zoomAndPan="magnify"><defs><filter height="300%" id="f11uep44t157mw" width="300%" x="-1" y="-1"><feGaussianBlur result="blurOut" stdDeviation="2.0"/><feColorMatrix in="blurOut" result="blurOut2" type="matrix" values="0 0 0 0 0 0 0 0 0 0 0 0 0 0 0 0 0 0 .4 0"/><feOffset dx="4.0" dy="4.0" in="blurOut2" result="blurOut3"/><feBlend in="SourceGraphic" in2="blurOut3" mode="normal"/></filter></defs><g><!--MD5=[94de2ef9dde389aecb44d7f232eba8a2]
cluster benchmarkstt.input--><a href="https://benchmarkstt.readthedocs.io/en/latest/modules/benchmarkstt.input.html#" target="_top" title="https://benchmarkstt.readthedocs.io/en/latest/modules/benchmarkstt.input.html#" xlink:actuate="onRequest" xlink:href="https://benchmarkstt.readthedocs.io/en/latest/modules/benchmarkstt.input.html#" xlink:show="new" xlink:title="https://benchmarkstt.readthedocs.io/en/latest/modules/benchmarkstt.input.html#" xlink:type="simple"><rect fill="#FFFFFF" filter="url(#f11uep44t157mw)" height="103" style="stroke: #000000; stroke-width: 1.5;" width="156" x="255" y="7"/><path d="M405,8 L405,16.4883 L395,26.4883 L255,26.4883 " fill="none" style="stroke: #000000; stroke-width: 1.5;"/><text fill="#000000" font-family="sans-serif" font-size="14" font-weight="bold" lengthAdjust="spacingAndGlyphs" textLength="140" x="258" y="21.5352">benchmarkstt.input</text></a><!--MD5=[5c7a64d73ca244446f0e70026cf5d0bf]
cluster benchmarkstt.input.core--><a href="https://benchmarkstt.readthedocs.io/en/latest/modules/benchmarkstt.input.core.html#" target="_top" title="https://benchmarkstt.readthedocs.io/en/latest/modules/benchmarkstt.input.core.html#" xlink:actuate="onRequest" xlink:href="https://benchmarkstt.readthedocs.io/en/latest/modules/benchmarkstt.input.core.html#" xlink:show="new" xlink:title="https://benchmarkstt.readthedocs.io/en/latest/modules/benchmarkstt.input.core.html#" xlink:type="simple"><rect fill="#FFFFFF" filter="url(#f11uep44t157mw)" height="155" style="stroke: #000000; stroke-width: 1.5;" width="651" x="7" y="134"/><path d="M190,135 L190,143.4883 L180,153.4883 L7,153.4883 " fill="none" style="stroke: #000000; stroke-width: 1.5;"/><text fill="#000000" font-family="sans-serif" font-size="14" font-weight="bold" lengthAdjust="spacingAndGlyphs" textLength="173" x="10" y="148.5352">benchmarkstt.input.core</text></a><!--MD5=[d1e904a0c11302288bad0868539b156c]
class benchmarkstt.input.Base--><a href="https://benchmarkstt.readthedocs.io/en/latest/modules/benchmarkstt.input.html#benchmarkstt.input.Base" target="_top" title="https://benchmarkstt.readthedocs.io/en/latest/modules/benchmarkstt.input.html#benchmarkstt.input.Base" xlink:actuate="onRequest" xlink:href="https://benchmarkstt.readthedocs.io/en/latest/modules/benchmarkstt.input.html#benchmarkstt.input.Base" xlink:show="new" xlink:title="https://benchmarkstt.readthedocs.io/en/latest/modules/benchmarkstt.input.html#benchmarkstt.input.Base" xlink:type="simple"><rect fill="#CCCCCC" filter="url(#f11uep44t157mw)" height="52.3237" id="benchmarkstt.input.Base" style="stroke: #AAAAAA; stroke-width: 1.5;" width="74" x="296" y="42"/><ellipse cx="308" cy="60.1619" fill="#FF8800" rx="8" ry="8" style="stroke: #AAAAAA; stroke-width: 1.0;"/><path d="M308.1353,64.3176 Q307.2437,64.3176 306.489,64.0544 Q305.7344,63.7913 305.1919,63.2703 Q304.6494,62.7493 304.3513,61.9705 Q304.0532,61.1917 304.0532,60.1711 Q304.0532,59.2205 304.3379,58.447 Q304.6226,57.6736 305.165,57.1204 Q305.686,56.5886 306.4568,56.2986 Q307.2275,56.0085 308.1406,56.0085 Q308.6455,56.0085 309.051,56.0649 Q309.4565,56.1213 309.8003,56.2126 Q310.1602,56.3147 310.4529,56.4409 Q310.7456,56.5671 310.9658,56.6746 L310.9658,58.6135 L310.7295,58.6135 Q310.5791,58.4846 310.3508,58.3074 Q310.1226,58.1301 309.8325,57.9583 Q309.5371,57.7864 309.1934,57.6682 Q308.8496,57.55 308.4575,57.55 Q308.0225,57.55 307.6304,57.687 Q307.2383,57.824 306.9053,58.1409 Q306.5884,58.447 306.3923,58.9519 Q306.1963,59.4568 306.1963,60.1765 Q306.1963,60.9285 306.4084,61.4333 Q306.6206,61.9382 306.9429,62.2283 Q307.2705,62.5237 307.6733,62.6499 Q308.0762,62.7761 308.4683,62.7761 Q308.8442,62.7761 309.2122,62.6633 Q309.5801,62.5505 309.8916,62.3572 Q310.1548,62.2014 310.3804,62.0242 Q310.606,61.8469 310.751,61.718 L310.9658,61.718 L310.9658,63.6301 Q310.665,63.7644 310.3911,63.8826 Q310.1172,64.0007 309.8164,64.0867 Q309.4243,64.1995 309.0806,64.2585 Q308.7368,64.3176 308.1353,64.3176 Z "/><text fill="#333333" font-family="sans-serif" font-size="11" font-style="italic" lengthAdjust="spacingAndGlyphs" textLength="52" x="317" y="57.6348">«Iterable»</text><text fill="#000000" font-family="Verdana" font-size="11" lengthAdjust="spacingAndGlyphs" textLength="28" x="329" y="71.0142">Base</text><line style="stroke: #AAAAAA; stroke-width: 1.5;" x1="297" x2="369" y1="78.3237" y2="78.3237"/><line style="stroke: #AAAAAA; stroke-width: 1.5;" x1="297" x2="369" y1="86.3237" y2="86.3237"/></a><!--MD5=[4843f7accda627844ca340f5d1efa37d]
class benchmarkstt.input.core.File--><a href="https://benchmarkstt.readthedocs.io/en/latest/modules/benchmarkstt.input.core.html#benchmarkstt.input.core.File" target="_top" title="https://benchmarkstt.readthedocs.io/en/latest/modules/benchmarkstt.input.core.html#benchmarkstt.input.core.File" xlink:actuate="onRequest" xlink:href="https://benchmarkstt.readthedocs.io/en/latest/modules/benchmarkstt.input.core.html#benchmarkstt.input.core.File" xlink:show="new" xlink:title="https://benchmarkstt.readthedocs.io/en/latest/modules/benchmarkstt.input.core.html#benchmarkstt.input.core.File" xlink:type="simple"><rect fill="#CCCCCC" filter="url(#f11uep44t157mw)" height="104.144" id="benchmarkstt.input.core.File" style="stroke: #AAAAAA; stroke-width: 1.5;" width="289" x="352.5" y="169"/><ellipse cx="469.5" cy="187.1619" fill="#FF8800" rx="8" ry="8" style="stroke: #AAAAAA; stroke-width: 1.0;"/><path d="M469.6353,191.3176 Q468.7437,191.3176 467.989,191.0544 Q467.2344,190.7913 466.6919,190.2703 Q466.1494,189.7493 465.8513,188.9705 Q465.5532,188.1917 465.5532,187.1711 Q465.5532,186.2205 465.8379,185.447 Q466.1226,184.6736 466.665,184.1204 Q467.186,183.5886 467.9568,183.2986 Q468.7275,183.0085 469.6406,183.0085 Q470.1455,183.0085 470.551,183.0649 Q470.9565,183.1213 471.3003,183.2126 Q471.6602,183.3147 471.9529,183.4409 Q472.2456,183.5671 472.4658,183.6746 L472.4658,185.6135 L472.2295,185.6135 Q472.0791,185.4846 471.8508,185.3074 Q471.6226,185.1301 471.3325,184.9583 Q471.0371,184.7864 470.6934,184.6682 Q470.3496,184.55 469.9575,184.55 Q469.5225,184.55 469.1304,184.687 Q468.7383,184.824 468.4053,185.1409 Q468.0884,185.447 467.8923,185.9519 Q467.6963,186.4568 467.6963,187.1765 Q467.6963,187.9285 467.9084,188.4333 Q468.1206,188.9382 468.4429,189.2283 Q468.7705,189.5237 469.1733,189.6499 Q469.5762,189.7761 469.9683,189.7761 Q470.3442,189.7761 470.7122,189.6633 Q471.0801,189.5505 471.3916,189.3572 Q471.6548,189.2014 471.8804,189.0242 Q472.106,188.8469 472.251,188.718 L472.4658,188.718 L472.4658,190.6301 Q472.165,190.7644 471.8911,190.8826 Q471.6172,191.0007 471.3164,191.0867 Q470.9243,191.1995 470.5806,191.2585 Q470.2368,191.3176 469.6353,191.3176 Z "/><text fill="#333333" font-family="sans-serif" font-size="11" font-style="italic" lengthAdjust="spacingAndGlyphs" textLength="52" x="483.5" y="184.6348">«Iterable»</text><text fill="#000000" font-family="Verdana" font-size="11" lengthAdjust="spacingAndGlyphs" textLength="19" x="500" y="198.0142">File</text><line style="stroke: #AAAAAA; stroke-width: 1.5;" x1="353.5" x2="640.5" y1="205.3237" y2="205.3237"/><ellipse cx="363.5" cy="233.2788" fill="#84BE84" rx="3" ry="3" style="stroke: #038048; stroke-width: 1.0;"/><text fill="#333333" font-family="sans-serif" font-size="11" lengthAdjust="spacingAndGlyphs" textLength="266" x="369.5" y="236.9136">__init__(file, input_type=None, normalizer=None)</text><line style="stroke: #AAAAAA; stroke-width: 1.0; stroke-dasharray: 1.0,2.0;" x1="353.5" x2="456.5" y1="219.8013" y2="219.8013"/><text fill="#333333" font-family="sans-serif" font-size="11" lengthAdjust="spacingAndGlyphs" textLength="81" x="456.5" y="223.4585">Public Methods</text><line style="stroke: #AAAAAA; stroke-width: 1.0; stroke-dasharray: 1.0,2.0;" x1="537.5" x2="640.5" y1="219.8013" y2="219.8013"/><ellipse cx="363.5" cy="263.189" fill="#84BE84" rx="3" ry="3" style="stroke: #038048; stroke-width: 1.0;"/><text fill="#333333" font-family="sans-serif" font-size="11" lengthAdjust="spacingAndGlyphs" text-decoration="underline" textLength="89" x="369.5" y="266.8237">available_types()</text><line style="stroke: #AAAAAA; stroke-width: 1.0; stroke-dasharray: 1.0,2.0;" x1="353.5" x2="458" y1="249.7114" y2="249.7114"/><text fill="#333333" font-family="sans-serif" font-size="11" lengthAdjust="spacingAndGlyphs" textLength="78" x="458" y="253.3687">Static Methods</text><line style="stroke: #AAAAAA; stroke-width: 1.0; stroke-dasharray: 1.0,2.0;" x1="536" x2="640.5" y1="249.7114" y2="249.7114"/></a><!--MD5=[3edd34d35203ceb4dd4fa63a3b0c665d]
class benchmarkstt.input.core.PlainText--><a href="https://benchmarkstt.readthedocs.io/en/latest/modules/benchmarkstt.input.core.html#benchmarkstt.input.core.PlainText" target="_top" title="https://benchmarkstt.readthedocs.io/en/latest/modules/benchmarkstt.input.core.html#benchmarkstt.input.core.PlainText" xlink:actuate="onRequest" xlink:href="https://benchmarkstt.readthedocs.io/en/latest/modules/benchmarkstt.input.core.html#benchmarkstt.input.core.PlainText" xlink:show="new" xlink:title="https://benchmarkstt.readthedocs.io/en/latest/modules/benchmarkstt.input.core.html#benchmarkstt.input.core.PlainText" xlink:type="simple"><rect fill="#CCCCCC" filter="url(#f11uep44t157mw)" height="74.2339" id="benchmarkstt.input.core.PlainText" style="stroke: #AAAAAA; stroke-width: 1.5;" width="294" x="23" y="184"/><ellipse cx="140.5" cy="202.1619" fill="#FF8800" rx="8" ry="8" style="stroke: #AAAAAA; stroke-width: 1.0;"/><path d="M140.6353,206.3176 Q139.7437,206.3176 138.989,206.0544 Q138.2344,205.7913 137.6919,205.2703 Q137.1494,204.7493 136.8513,203.9705 Q136.5532,203.1917 136.5532,202.1711 Q136.5532,201.2205 136.8379,200.447 Q137.1226,199.6736 137.665,199.1204 Q138.186,198.5886 138.9568,198.2986 Q139.7275,198.0085 140.6406,198.0085 Q141.1455,198.0085 141.551,198.0649 Q141.9565,198.1213 142.3003,198.2126 Q142.6602,198.3147 142.9529,198.4409 Q143.2456,198.5671 143.4658,198.6746 L143.4658,200.6135 L143.2295,200.6135 Q143.0791,200.4846 142.8508,200.3074 Q142.6226,200.1301 142.3325,199.9583 Q142.0371,199.7864 141.6934,199.6682 Q141.3496,199.55 140.9575,199.55 Q140.5225,199.55 140.1304,199.687 Q139.7383,199.824 139.4053,200.1409 Q139.0884,200.447 138.8923,200.9519 Q138.6963,201.4568 138.6963,202.1765 Q138.6963,202.9285 138.9084,203.4333 Q139.1206,203.9382 139.4429,204.2283 Q139.7705,204.5237 140.1733,204.6499 Q140.5762,204.7761 140.9683,204.7761 Q141.3442,204.7761 141.7122,204.6633 Q142.0801,204.5505 142.3916,204.3572 Q142.6548,204.2014 142.8804,204.0242 Q143.106,203.8469 143.251,203.718 L143.4658,203.718 L143.4658,205.6301 Q143.165,205.7644 142.8911,205.8826 Q142.6172,206.0007 142.3164,206.0867 Q141.9243,206.1995 141.5806,206.2585 Q141.2368,206.3176 140.6353,206.3176 Z "/><text fill="#333333" font-family="sans-serif" font-size="11" font-style="italic" lengthAdjust="spacingAndGlyphs" textLength="52" x="156.5" y="199.6348">«Iterable»</text><text fill="#000000" font-family="Verdana" font-size="11" lengthAdjust="spacingAndGlyphs" textLength="52" x="156.5" y="213.0142">PlainText</text><line style="stroke: #AAAAAA; stroke-width: 1.5;" x1="24" x2="316" y1="220.3237" y2="220.3237"/><ellipse cx="34" cy="248.2788" fill="#84BE84" rx="3" ry="3" style="stroke: #038048; stroke-width: 1.0;"/><text fill="#333333" font-family="sans-serif" font-size="11" lengthAdjust="spacingAndGlyphs" textLength="271" x="40" y="251.9136">__init__(text, segmenter=None, normalizer=None)</text><line style="stroke: #AAAAAA; stroke-width: 1.0; stroke-dasharray: 1.0,2.0;" x1="24" x2="129.5" y1="234.8013" y2="234.8013"/><text fill="#333333" font-family="sans-serif" font-size="11" lengthAdjust="spacingAndGlyphs" textLength="81" x="129.5" y="238.4585">Public Methods</text><line style="stroke: #AAAAAA; stroke-width: 1.0; stroke-dasharray: 1.0,2.0;" x1="210.5" x2="316" y1="234.8013" y2="234.8013"/></a><!--MD5=[065a416e4c33abf0dffdc83d6e1bf045]
reverse link benchmarkstt.input.Base to benchmarkstt.input.core.File--><path d="M375.27,107.92 C395.46,126.51 419.88,149 441.54,168.94 " fill="none" id="benchmarkstt.input.Base&lt;-benchmarkstt.input.core.File" style="stroke: #000000; stroke-width: 1.0;"/><polygon fill="none" points="370.42,112.97,360.45,94.27,379.9,102.67,370.42,112.97" style="stroke: #000000; stroke-width: 1.0;"/><!--MD5=[3d607d7f67fd018830fa1d9f070f3dcc]
reverse link benchmarkstt.input.Base to benchmarkstt.input.core.PlainText--><path d="M290.96,107.95 C265.67,131.37 233.7,160.99 208.98,183.89 " fill="none" id="benchmarkstt.input.Base&lt;-benchmarkstt.input.core.PlainText" style="stroke: #000000; stroke-width: 1.0;"/><polygon fill="none" points="286.29,102.73,305.72,94.27,295.8,113,286.29,102.73" style="stroke: #000000; stroke-width: 1.0;"/><!--MD5=[d56652c65d9804f1a12ec3e5b67a6915]
@startuml

skinparam packageStyle Frame
!define LIGHTORANGE
!includeurl https://raw.githubusercontent.com/Drakemor/RedDress-PlantUML/master/style.puml
package benchmarkstt.input [[https://benchmarkstt.readthedocs.io/en/latest/modules/benchmarkstt.input.html#]] {

	class benchmarkstt.input.Base << Iterable >>  [[https://benchmarkstt.readthedocs.io/en/latest/modules/benchmarkstt.input.html#benchmarkstt.input.Base]] {
	}
}

package benchmarkstt.input.core [[https://benchmarkstt.readthedocs.io/en/latest/modules/benchmarkstt.input.core.html#]] {

	class benchmarkstt.input.core.File << Iterable >>  [[https://benchmarkstt.readthedocs.io/en/latest/modules/benchmarkstt.input.core.html#benchmarkstt.input.core.File]] extends benchmarkstt.input.Base {
		.. Public Methods ..
		+__init__(file, input_type=None, normalizer=None)
		.. Static Methods ..
		{static} +available_types()
	}

	class benchmarkstt.input.core.PlainText << Iterable >>  [[https://benchmarkstt.readthedocs.io/en/latest/modules/benchmarkstt.input.core.html#benchmarkstt.input.core.PlainText]] extends benchmarkstt.input.Base {
		.. Public Methods ..
		+__init__(text, segmenter=None, normalizer=None)
	}
}




@enduml

@startuml

skinparam packageStyle Frame










skinparam stereotypeCBackgroundColor FF8800

skinparam backgroundColor fff








skinparam circledCharacter {
  radius 8
  fontSize 11
  fontName Verdana
}

skinparam class {
    backgroundColor ccc
  borderColor aaa
    fontColor 000
  fontName Verdana
  fontSize 11
  stereotypeFontColor 333
  stereotypeFontSize 11
    arrowColor 000
  arrowFontName Verdana
  arrowFontColor 333
  arrowFontSize 11

  attributeFontColor 333
  attributeFontSize 11
  attributeIconSize 11
}


skinparam actor {
    backgroundColor FF8800
  borderColor BB6600
    fontColor 000
  fontName Verdana
  fontSize 11
  stereotypeFontColor 333
  stereotypeFontSize 11
}

skinparam participant {
    backgroundColor ccc
  borderColor aaa
    fontColor 000
  fontName Verdana
  fontSize 11
  stereotypeFontColor 333
  stereotypeFontSize 11
}

skinparam collections {
    backgroundColor ccc
  borderColor aaa
    fontColor 000
  fontName Verdana
  fontSize 11
  stereotypeFontColor 333
  stereotypeFontSize 11
}

skinparam SequenceBox{
    backgroundColor e0e0e0
  borderColor cccccc
    fontColor 000
  fontName Verdana
  fontSize 11
  stereotypeFontColor 333
  stereotypeFontSize 11
}


skinparam interface {
    backgroundColor FF8800
  borderColor BB6600
    fontColor 000
  fontName Verdana
  fontSize 11
  stereotypeFontColor 333
  stereotypeFontSize 11
}

skinparam component {
    backgroundColor ccc
  borderColor aaa
    fontColor 000
  fontName Verdana
  fontSize 11
  stereotypeFontColor 333
  stereotypeFontSize 11
}

skinparam node {
    backgroundColor ccc
  borderColor aaa
    fontColor 000
  fontName Verdana
  fontSize 11
  stereotypeFontColor 333
  stereotypeFontSize 11
}

skinparam database {
    backgroundColor ccc
  borderColor aaa
    fontColor 000
  fontName Verdana
  fontSize 11
  stereotypeFontColor 333
  stereotypeFontSize 11
}

skinparam queue {
    backgroundColor ccc
  borderColor aaa
    fontColor 000
  fontName Verdana
  fontSize 11
  stereotypeFontColor 333
  stereotypeFontSize 11
}


skinparam usecase {
    backgroundColor ccc
  borderColor aaa
    fontColor 000
  fontName Verdana
  fontSize 11
  stereotypeFontColor 333
  stereotypeFontSize 11
    arrowColor 000
  arrowFontName Verdana
  arrowFontColor 333
  arrowFontSize 11
}

skinparam activity {
    backgroundColor ccc
  borderColor aaa
    fontColor 000
  fontName Verdana
  fontSize 11
  stereotypeFontColor 333
  stereotypeFontSize 11
    arrowColor 000
  arrowFontName Verdana
  arrowFontColor 333
  arrowFontSize 11
}

skinparam sequence {
    fontColor 000
  fontName Verdana
  fontSize 11
  stereotypeFontColor 333
  stereotypeFontSize 11
    arrowColor 000
  arrowFontName Verdana
  arrowFontColor 333
  arrowFontSize 11

  lifeLineBorderColor FF8800
  lifeLineBackgroundColor e0e0e0
}

skinparam boundary {
    backgroundColor FF8800
  borderColor BB6600
    fontColor 000
  fontName Verdana
  fontSize 11
  stereotypeFontColor 333
  stereotypeFontSize 11
}

skinparam control {
    backgroundColor FF8800
  borderColor BB6600
    fontColor 000
  fontName Verdana
  fontSize 11
  stereotypeFontColor 333
  stereotypeFontSize 11
}

skinparam entity {
    backgroundColor FF8800
  borderColor BB6600
    fontColor 000
  fontName Verdana
  fontSize 11
  stereotypeFontColor 333
  stereotypeFontSize 11
}


skinparam state {
    backgroundColor ccc
  borderColor aaa
    fontColor 000
  fontName Verdana
  fontSize 11
  stereotypeFontColor 333
  stereotypeFontSize 11
    arrowColor 000
  arrowFontName Verdana
  arrowFontColor 333
  arrowFontSize 11
  startColor FF8800
  endColor BB6600
}


skinparam object {
    backgroundColor ccc
  borderColor aaa
    fontColor 000
  fontName Verdana
  fontSize 11
  stereotypeFontColor 333
  stereotypeFontSize 11
    arrowColor 000
  arrowFontName Verdana
  arrowFontColor 333
  arrowFontSize 11
}


skinparam note {
    backgroundColor FF8800
  borderColor BB6600
    fontColor 000
  fontName Verdana
  fontSize 11
  stereotypeFontColor 333
  stereotypeFontSize 11
}

skinparam cloud {
    backgroundColor ccc
  borderColor aaa
    fontColor 000
  fontName Verdana
  fontSize 11
  stereotypeFontColor 333
  stereotypeFontSize 11
    arrowColor 000
  arrowFontName Verdana
  arrowFontColor 333
  arrowFontSize 11
}

skinparam rectangle {
    backgroundColor ccc
  borderColor aaa
    fontColor 000
  fontName Verdana
  fontSize 11
  stereotypeFontColor 333
  stereotypeFontSize 11
}

skinparam storage {
    backgroundColor ccc
  borderColor aaa
    fontColor 000
  fontName Verdana
  fontSize 11
  stereotypeFontColor 333
  stereotypeFontSize 11
}

package benchmarkstt.input [[https://benchmarkstt.readthedocs.io/en/latest/modules/benchmarkstt.input.html#]] {

	class benchmarkstt.input.Base << Iterable >>  [[https://benchmarkstt.readthedocs.io/en/latest/modules/benchmarkstt.input.html#benchmarkstt.input.Base]] {
	}
}

package benchmarkstt.input.core [[https://benchmarkstt.readthedocs.io/en/latest/modules/benchmarkstt.input.core.html#]] {

	class benchmarkstt.input.core.File << Iterable >>  [[https://benchmarkstt.readthedocs.io/en/latest/modules/benchmarkstt.input.core.html#benchmarkstt.input.core.File]] extends benchmarkstt.input.Base {
		.. Public Methods ..
		+__init__(file, input_type=None, normalizer=None)
		.. Static Methods ..
		{static} +available_types()
	}

	class benchmarkstt.input.core.PlainText << Iterable >>  [[https://benchmarkstt.readthedocs.io/en/latest/modules/benchmarkstt.input.core.html#benchmarkstt.input.core.PlainText]] extends benchmarkstt.input.Base {
		.. Public Methods ..
		+__init__(text, segmenter=None, normalizer=None)
	}
}




@enduml

PlantUML version 1.2020.15(Sun Jun 28 11:39:45 UTC 2020)
(GPL source distribution)
Java Runtime: OpenJDK Runtime Environment
JVM: OpenJDK 64-Bit Server VM
Default Encoding: UTF-8
Language: en
Country: BE
--></g></svg>