<?xml version="1.0" encoding="UTF-8" standalone="no"?><svg xmlns="http://www.w3.org/2000/svg" xmlns:xlink="http://www.w3.org/1999/xlink" contentScriptType="application/ecmascript" contentStyleType="text/css" height="506px" preserveAspectRatio="none" style="width:514px;height:506px;" version="1.1" viewBox="0 0 514 506" width="514px" zoomAndPan="magnify"><defs><filter height="300%" id="fxk1jrkmp69jv" width="300%" x="-1" y="-1"><feGaussianBlur result="blurOut" stdDeviation="2.0"/><feColorMatrix in="blurOut" result="blurOut2" type="matrix" values="0 0 0 0 0 0 0 0 0 0 0 0 0 0 0 0 0 0 .4 0"/><feOffset dx="4.0" dy="4.0" in="blurOut2" result="blurOut3"/><feBlend in="SourceGraphic" in2="blurOut3" mode="normal"/></filter></defs><g><!--MD5=[c2f5f1914e6a0fca7cbdb2b44310c20b]
cluster benchmarkstt.output--><a href="https://benchmarkstt.readthedocs.io/en/latest/modules/benchmarkstt.output.html#" target="_top" title="https://benchmarkstt.readthedocs.io/en/latest/modules/benchmarkstt.output.html#" xlink:actuate="onRequest" xlink:href="https://benchmarkstt.readthedocs.io/en/latest/modules/benchmarkstt.output.html#" xlink:show="new" xlink:title="https://benchmarkstt.readthedocs.io/en/latest/modules/benchmarkstt.output.html#" xlink:type="simple"><rect fill="#FFFFFF" filter="url(#fxk1jrkmp69jv)" height="141" style="stroke: #000000; stroke-width: 1.5;" width="244" x="130" y="7"/><path d="M290,8 L290,16.4883 L280,26.4883 L130,26.4883 " fill="none" style="stroke: #000000; stroke-width: 1.5;"/><text fill="#000000" font-family="sans-serif" font-size="14" font-weight="bold" lengthAdjust="spacingAndGlyphs" textLength="150" x="133" y="21.5352">benchmarkstt.output</text></a><!--MD5=[847d3ee6f8e67faab7de214c96ed8267]
cluster benchmarkstt.output.core--><a href="https://benchmarkstt.readthedocs.io/en/latest/modules/benchmarkstt.output.core.html#" target="_top" title="https://benchmarkstt.readthedocs.io/en/latest/modules/benchmarkstt.output.core.html#" xlink:actuate="onRequest" xlink:href="https://benchmarkstt.readthedocs.io/en/latest/modules/benchmarkstt.output.core.html#" xlink:show="new" xlink:title="https://benchmarkstt.readthedocs.io/en/latest/modules/benchmarkstt.output.core.html#" xlink:type="simple"><rect fill="#FFFFFF" filter="url(#fxk1jrkmp69jv)" height="317" style="stroke: #000000; stroke-width: 1.5;" width="490" x="7" y="172"/><path d="M200,173 L200,181.4883 L190,191.4883 L7,191.4883 " fill="none" style="stroke: #000000; stroke-width: 1.5;"/><text fill="#000000" font-family="sans-serif" font-size="14" font-weight="bold" lengthAdjust="spacingAndGlyphs" textLength="183" x="10" y="186.5352">benchmarkstt.output.core</text></a><!--MD5=[6bad0332cb50a567e063560f49fe1b05]
class benchmarkstt.output.Base--><a href="https://benchmarkstt.readthedocs.io/en/latest/modules/benchmarkstt.output.html#benchmarkstt.output.Base" target="_top" title="https://benchmarkstt.readthedocs.io/en/latest/modules/benchmarkstt.output.html#benchmarkstt.output.Base" xlink:actuate="onRequest" xlink:href="https://benchmarkstt.readthedocs.io/en/latest/modules/benchmarkstt.output.html#benchmarkstt.output.Base" xlink:show="new" xlink:title="https://benchmarkstt.readthedocs.io/en/latest/modules/benchmarkstt.output.html#benchmarkstt.output.Base" xlink:type="simple"><rect fill="#CCCCCC" filter="url(#fxk1jrkmp69jv)" height="89.8203" id="benchmarkstt.output.Base" style="stroke: #AAAAAA; stroke-width: 1.5;" width="211" x="146.5" y="42"/><ellipse cx="234.5" cy="55" fill="#FF8800" rx="8" ry="8" style="stroke: #AAAAAA; stroke-width: 1.0;"/><path d="M234.6353,59.1558 Q233.7437,59.1558 232.989,58.8926 Q232.2344,58.6294 231.6919,58.1084 Q231.1494,57.5874 230.8513,56.8086 Q230.5532,56.0298 230.5532,55.0093 Q230.5532,54.0586 230.8379,53.2852 Q231.1226,52.5117 231.665,51.9585 Q232.186,51.4268 232.9568,51.1367 Q233.7275,50.8467 234.6406,50.8467 Q235.1455,50.8467 235.551,50.9031 Q235.9565,50.9595 236.3003,51.0508 Q236.6602,51.1528 236.9529,51.2791 Q237.2456,51.4053 237.4658,51.5127 L237.4658,53.4517 L237.2295,53.4517 Q237.0791,53.3228 236.8508,53.1455 Q236.6226,52.9683 236.3325,52.7964 Q236.0371,52.6245 235.6934,52.5063 Q235.3496,52.3882 234.9575,52.3882 Q234.5225,52.3882 234.1304,52.5251 Q233.7383,52.6621 233.4053,52.979 Q233.0884,53.2852 232.8923,53.79 Q232.6963,54.2949 232.6963,55.0146 Q232.6963,55.7666 232.9084,56.2715 Q233.1206,56.7764 233.4429,57.0664 Q233.7705,57.3618 234.1733,57.488 Q234.5762,57.6143 234.9683,57.6143 Q235.3442,57.6143 235.7122,57.5015 Q236.0801,57.3887 236.3916,57.1953 Q236.6548,57.0396 236.8804,56.8623 Q237.106,56.6851 237.251,56.5562 L237.4658,56.5562 L237.4658,58.4683 Q237.165,58.6025 236.8911,58.7207 Q236.6172,58.8389 236.3164,58.9248 Q235.9243,59.0376 235.5806,59.0967 Q235.2368,59.1558 234.6353,59.1558 Z "/><text fill="#000000" font-family="Verdana" font-size="11" lengthAdjust="spacingAndGlyphs" textLength="28" x="250.5" y="59.3748">Base</text><line style="stroke: #AAAAAA; stroke-width: 1.5;" x1="147.5" x2="356.5" y1="68" y2="68"/><ellipse cx="157.5" cy="95.9551" fill="#84BE84" rx="3" ry="3" style="stroke: #038048; stroke-width: 1.0;"/><text fill="#333333" font-family="sans-serif" font-size="11" lengthAdjust="spacingAndGlyphs" textLength="60" x="163.5" y="99.5898">__enter__()</text><ellipse cx="157.5" cy="108.9102" fill="#84BE84" rx="3" ry="3" style="stroke: #038048; stroke-width: 1.0;"/><text fill="#333333" font-family="sans-serif" font-size="11" lengthAdjust="spacingAndGlyphs" textLength="188" x="163.5" y="112.5449">__exit__(exc_type, exc_val, exc_tb)</text><ellipse cx="157.5" cy="121.8652" fill="#84BE84" rx="3" ry="3" style="stroke: #038048; stroke-width: 1.0;"/><text fill="#333333" font-family="sans-serif" font-size="11" lengthAdjust="spacingAndGlyphs" textLength="96" x="163.5" y="125.5">result(title, result)</text><line style="stroke: #AAAAAA; stroke-width: 1.0; stroke-dasharray: 1.0,2.0;" x1="147.5" x2="211.5" y1="82.4775" y2="82.4775"/><text fill="#333333" font-family="sans-serif" font-size="11" lengthAdjust="spacingAndGlyphs" textLength="81" x="211.5" y="86.1348">Public Methods</text><line style="stroke: #AAAAAA; stroke-width: 1.0; stroke-dasharray: 1.0,2.0;" x1="292.5" x2="356.5" y1="82.4775" y2="82.4775"/></a><!--MD5=[f736c00f8e3d82ae904e3d345ee15690]
class benchmarkstt.output.core.Json--><a href="https://benchmarkstt.readthedocs.io/en/latest/modules/benchmarkstt.output.core.html#benchmarkstt.output.core.Json" target="_top" title="https://benchmarkstt.readthedocs.io/en/latest/modules/benchmarkstt.output.core.html#benchmarkstt.output.core.Json" xlink:actuate="onRequest" xlink:href="https://benchmarkstt.readthedocs.io/en/latest/modules/benchmarkstt.output.core.html#benchmarkstt.output.core.Json" xlink:show="new" xlink:title="https://benchmarkstt.readthedocs.io/en/latest/modules/benchmarkstt.output.core.html#benchmarkstt.output.core.Json" xlink:type="simple"><rect fill="#CCCCCC" filter="url(#fxk1jrkmp69jv)" height="102.7754" id="benchmarkstt.output.core.Json" style="stroke: #AAAAAA; stroke-width: 1.5;" width="211" x="269.5" y="207"/><ellipse cx="359" cy="220" fill="#FF8800" rx="8" ry="8" style="stroke: #AAAAAA; stroke-width: 1.0;"/><path d="M359.1353,224.1558 Q358.2437,224.1558 357.489,223.8926 Q356.7344,223.6294 356.1919,223.1084 Q355.6494,222.5874 355.3513,221.8086 Q355.0532,221.0298 355.0532,220.0093 Q355.0532,219.0586 355.3379,218.2852 Q355.6226,217.5117 356.165,216.9585 Q356.686,216.4268 357.4568,216.1367 Q358.2275,215.8467 359.1406,215.8467 Q359.6455,215.8467 360.051,215.9031 Q360.4565,215.9595 360.8003,216.0508 Q361.1602,216.1528 361.4529,216.2791 Q361.7456,216.4053 361.9658,216.5127 L361.9658,218.4517 L361.7295,218.4517 Q361.5791,218.3228 361.3508,218.1455 Q361.1226,217.9683 360.8325,217.7964 Q360.5371,217.6245 360.1934,217.5063 Q359.8496,217.3882 359.4575,217.3882 Q359.0225,217.3882 358.6304,217.5251 Q358.2383,217.6621 357.9053,217.979 Q357.5884,218.2852 357.3923,218.79 Q357.1963,219.2949 357.1963,220.0146 Q357.1963,220.7666 357.4084,221.2715 Q357.6206,221.7764 357.9429,222.0664 Q358.2705,222.3618 358.6733,222.488 Q359.0762,222.6143 359.4683,222.6143 Q359.8442,222.6143 360.2122,222.5015 Q360.5801,222.3887 360.8916,222.1953 Q361.1548,222.0396 361.3804,221.8623 Q361.606,221.6851 361.751,221.5562 L361.9658,221.5562 L361.9658,223.4683 Q361.665,223.6025 361.3911,223.7207 Q361.1172,223.8389 360.8164,223.9248 Q360.4243,224.0376 360.0806,224.0967 Q359.7368,224.1558 359.1353,224.1558 Z "/><text fill="#000000" font-family="Verdana" font-size="11" lengthAdjust="spacingAndGlyphs" textLength="25" x="375" y="224.3748">Json</text><line style="stroke: #AAAAAA; stroke-width: 1.5;" x1="270.5" x2="479.5" y1="233" y2="233"/><ellipse cx="280.5" cy="260.9551" fill="#84BE84" rx="3" ry="3" style="stroke: #038048; stroke-width: 1.0;"/><text fill="#333333" font-family="sans-serif" font-size="11" lengthAdjust="spacingAndGlyphs" textLength="60" x="286.5" y="264.5898">__enter__()</text><ellipse cx="280.5" cy="273.9102" fill="#84BE84" rx="3" ry="3" style="stroke: #038048; stroke-width: 1.0;"/><text fill="#333333" font-family="sans-serif" font-size="11" lengthAdjust="spacingAndGlyphs" textLength="188" x="286.5" y="277.5449">__exit__(exc_type, exc_val, exc_tb)</text><ellipse cx="280.5" cy="286.8652" fill="#84BE84" rx="3" ry="3" style="stroke: #038048; stroke-width: 1.0;"/><text fill="#333333" font-family="sans-serif" font-size="11" lengthAdjust="spacingAndGlyphs" textLength="49" x="286.5" y="290.5">__init__()</text><ellipse cx="280.5" cy="299.8203" fill="#84BE84" rx="3" ry="3" style="stroke: #038048; stroke-width: 1.0;"/><text fill="#333333" font-family="sans-serif" font-size="11" lengthAdjust="spacingAndGlyphs" textLength="96" x="286.5" y="303.4551">result(title, result)</text><line style="stroke: #AAAAAA; stroke-width: 1.0; stroke-dasharray: 1.0,2.0;" x1="270.5" x2="334.5" y1="247.4775" y2="247.4775"/><text fill="#333333" font-family="sans-serif" font-size="11" lengthAdjust="spacingAndGlyphs" textLength="81" x="334.5" y="251.1348">Public Methods</text><line style="stroke: #AAAAAA; stroke-width: 1.0; stroke-dasharray: 1.0,2.0;" x1="415.5" x2="479.5" y1="247.4775" y2="247.4775"/></a><!--MD5=[1202924086ca6a88207a70c63baf9330]
class benchmarkstt.output.core.MarkDown--><a href="https://benchmarkstt.readthedocs.io/en/latest/modules/benchmarkstt.output.core.html#benchmarkstt.output.core.MarkDown" target="_top" title="https://benchmarkstt.readthedocs.io/en/latest/modules/benchmarkstt.output.core.html#benchmarkstt.output.core.MarkDown" xlink:actuate="onRequest" xlink:href="https://benchmarkstt.readthedocs.io/en/latest/modules/benchmarkstt.output.core.html#benchmarkstt.output.core.MarkDown" xlink:show="new" xlink:title="https://benchmarkstt.readthedocs.io/en/latest/modules/benchmarkstt.output.core.html#benchmarkstt.output.core.MarkDown" xlink:type="simple"><rect fill="#CCCCCC" filter="url(#fxk1jrkmp69jv)" height="102.7754" id="benchmarkstt.output.core.MarkDown" style="stroke: #AAAAAA; stroke-width: 1.5;" width="211" x="23.5" y="370"/><ellipse cx="96" cy="383" fill="#FF8800" rx="8" ry="8" style="stroke: #AAAAAA; stroke-width: 1.0;"/><path d="M96.1353,387.1558 Q95.2437,387.1558 94.489,386.8926 Q93.7344,386.6294 93.1919,386.1084 Q92.6494,385.5874 92.3513,384.8086 Q92.0532,384.0298 92.0532,383.0093 Q92.0532,382.0586 92.3379,381.2852 Q92.6226,380.5117 93.165,379.9585 Q93.686,379.4268 94.4568,379.1367 Q95.2275,378.8467 96.1406,378.8467 Q96.6455,378.8467 97.051,378.9031 Q97.4565,378.9595 97.8003,379.0508 Q98.1602,379.1528 98.4529,379.2791 Q98.7456,379.4053 98.9658,379.5127 L98.9658,381.4517 L98.7295,381.4517 Q98.5791,381.3228 98.3508,381.1455 Q98.1226,380.9683 97.8325,380.7964 Q97.5371,380.6245 97.1934,380.5063 Q96.8496,380.3882 96.4575,380.3882 Q96.0225,380.3882 95.6304,380.5251 Q95.2383,380.6621 94.9053,380.979 Q94.5884,381.2852 94.3923,381.79 Q94.1963,382.2949 94.1963,383.0146 Q94.1963,383.7666 94.4084,384.2715 Q94.6206,384.7764 94.9429,385.0664 Q95.2705,385.3618 95.6733,385.488 Q96.0762,385.6143 96.4683,385.6143 Q96.8442,385.6143 97.2122,385.5015 Q97.5801,385.3887 97.8916,385.1953 Q98.1548,385.0396 98.3804,384.8623 Q98.606,384.6851 98.751,384.5562 L98.9658,384.5562 L98.9658,386.4683 Q98.665,386.6025 98.3911,386.7207 Q98.1172,386.8389 97.8164,386.9248 Q97.4243,387.0376 97.0806,387.0967 Q96.7368,387.1558 96.1353,387.1558 Z "/><text fill="#000000" font-family="Verdana" font-size="11" lengthAdjust="spacingAndGlyphs" textLength="59" x="112" y="387.3748">MarkDown</text><line style="stroke: #AAAAAA; stroke-width: 1.5;" x1="24.5" x2="233.5" y1="396" y2="396"/><ellipse cx="34.5" cy="423.9551" fill="#84BE84" rx="3" ry="3" style="stroke: #038048; stroke-width: 1.0;"/><text fill="#333333" font-family="sans-serif" font-size="11" lengthAdjust="spacingAndGlyphs" textLength="60" x="40.5" y="427.5898">__enter__()</text><ellipse cx="34.5" cy="436.9102" fill="#84BE84" rx="3" ry="3" style="stroke: #038048; stroke-width: 1.0;"/><text fill="#333333" font-family="sans-serif" font-size="11" lengthAdjust="spacingAndGlyphs" textLength="188" x="40.5" y="440.5449">__exit__(exc_type, exc_val, exc_tb)</text><ellipse cx="34.5" cy="449.8652" fill="#84BE84" rx="3" ry="3" style="stroke: #038048; stroke-width: 1.0;"/><text fill="#333333" font-family="sans-serif" font-size="11" lengthAdjust="spacingAndGlyphs" textLength="65" x="40.5" y="453.5">print(result)</text><ellipse cx="34.5" cy="462.8203" fill="#84BE84" rx="3" ry="3" style="stroke: #038048; stroke-width: 1.0;"/><text fill="#333333" font-family="sans-serif" font-size="11" lengthAdjust="spacingAndGlyphs" textLength="96" x="40.5" y="466.4551">result(title, result)</text><line style="stroke: #AAAAAA; stroke-width: 1.0; stroke-dasharray: 1.0,2.0;" x1="24.5" x2="88.5" y1="410.4775" y2="410.4775"/><text fill="#333333" font-family="sans-serif" font-size="11" lengthAdjust="spacingAndGlyphs" textLength="81" x="88.5" y="414.1348">Public Methods</text><line style="stroke: #AAAAAA; stroke-width: 1.0; stroke-dasharray: 1.0,2.0;" x1="169.5" x2="233.5" y1="410.4775" y2="410.4775"/></a><!--MD5=[ad472f876b41c377ab9c2f7fd723b528]
class benchmarkstt.output.core.SimpleTextBase--><a href="https://benchmarkstt.readthedocs.io/en/latest/modules/benchmarkstt.output.core.html#benchmarkstt.output.core.SimpleTextBase" target="_top" title="https://benchmarkstt.readthedocs.io/en/latest/modules/benchmarkstt.output.core.html#benchmarkstt.output.core.SimpleTextBase" xlink:actuate="onRequest" xlink:href="https://benchmarkstt.readthedocs.io/en/latest/modules/benchmarkstt.output.core.html#benchmarkstt.output.core.SimpleTextBase" xlink:show="new" xlink:title="https://benchmarkstt.readthedocs.io/en/latest/modules/benchmarkstt.output.core.html#benchmarkstt.output.core.SimpleTextBase" xlink:type="simple"><rect fill="#CCCCCC" filter="url(#fxk1jrkmp69jv)" height="102.7754" id="benchmarkstt.output.core.SimpleTextBase" style="stroke: #AAAAAA; stroke-width: 1.5;" width="211" x="23.5" y="207"/><ellipse cx="79.5" cy="220" fill="#FF8800" rx="8" ry="8" style="stroke: #AAAAAA; stroke-width: 1.0;"/><path d="M79.6353,224.1558 Q78.7437,224.1558 77.989,223.8926 Q77.2344,223.6294 76.6919,223.1084 Q76.1494,222.5874 75.8513,221.8086 Q75.5532,221.0298 75.5532,220.0093 Q75.5532,219.0586 75.8379,218.2852 Q76.1226,217.5117 76.665,216.9585 Q77.186,216.4268 77.9568,216.1367 Q78.7275,215.8467 79.6406,215.8467 Q80.1455,215.8467 80.551,215.9031 Q80.9565,215.9595 81.3003,216.0508 Q81.6602,216.1528 81.9529,216.2791 Q82.2456,216.4053 82.4658,216.5127 L82.4658,218.4517 L82.2295,218.4517 Q82.0791,218.3228 81.8508,218.1455 Q81.6226,217.9683 81.3325,217.7964 Q81.0371,217.6245 80.6934,217.5063 Q80.3496,217.3882 79.9575,217.3882 Q79.5225,217.3882 79.1304,217.5251 Q78.7383,217.6621 78.4053,217.979 Q78.0884,218.2852 77.8923,218.79 Q77.6963,219.2949 77.6963,220.0146 Q77.6963,220.7666 77.9084,221.2715 Q78.1206,221.7764 78.4429,222.0664 Q78.7705,222.3618 79.1733,222.488 Q79.5762,222.6143 79.9683,222.6143 Q80.3442,222.6143 80.7122,222.5015 Q81.0801,222.3887 81.3916,222.1953 Q81.6548,222.0396 81.8804,221.8623 Q82.106,221.6851 82.251,221.5562 L82.4658,221.5562 L82.4658,223.4683 Q82.165,223.6025 81.8911,223.7207 Q81.6172,223.8389 81.3164,223.9248 Q80.9243,224.0376 80.5806,224.0967 Q80.2368,224.1558 79.6353,224.1558 Z "/><text fill="#000000" font-family="Verdana" font-size="11" lengthAdjust="spacingAndGlyphs" textLength="92" x="95.5" y="224.3748">SimpleTextBase</text><line style="stroke: #AAAAAA; stroke-width: 1.5;" x1="24.5" x2="233.5" y1="233" y2="233"/><ellipse cx="34.5" cy="260.9551" fill="#84BE84" rx="3" ry="3" style="stroke: #038048; stroke-width: 1.0;"/><text fill="#333333" font-family="sans-serif" font-size="11" lengthAdjust="spacingAndGlyphs" textLength="60" x="40.5" y="264.5898">__enter__()</text><ellipse cx="34.5" cy="273.9102" fill="#84BE84" rx="3" ry="3" style="stroke: #038048; stroke-width: 1.0;"/><text fill="#333333" font-family="sans-serif" font-size="11" lengthAdjust="spacingAndGlyphs" textLength="188" x="40.5" y="277.5449">__exit__(exc_type, exc_val, exc_tb)</text><ellipse cx="34.5" cy="286.8652" fill="#84BE84" rx="3" ry="3" style="stroke: #038048; stroke-width: 1.0;"/><text fill="#333333" font-family="sans-serif" font-size="11" lengthAdjust="spacingAndGlyphs" textLength="65" x="40.5" y="290.5">print(result)</text><ellipse cx="34.5" cy="299.8203" fill="#84BE84" rx="3" ry="3" style="stroke: #038048; stroke-width: 1.0;"/><text fill="#333333" font-family="sans-serif" font-size="11" lengthAdjust="spacingAndGlyphs" textLength="96" x="40.5" y="303.4551">result(title, result)</text><line style="stroke: #AAAAAA; stroke-width: 1.0; stroke-dasharray: 1.0,2.0;" x1="24.5" x2="88.5" y1="247.4775" y2="247.4775"/><text fill="#333333" font-family="sans-serif" font-size="11" lengthAdjust="spacingAndGlyphs" textLength="81" x="88.5" y="251.1348">Public Methods</text><line style="stroke: #AAAAAA; stroke-width: 1.0; stroke-dasharray: 1.0,2.0;" x1="169.5" x2="233.5" y1="247.4775" y2="247.4775"/></a><!--MD5=[1b1c3484ac7c767612303980bbf618ed]
class benchmarkstt.output.core.ReStructuredText--><a href="https://benchmarkstt.readthedocs.io/en/latest/modules/benchmarkstt.output.core.html#benchmarkstt.output.core.ReStructuredText" target="_top" title="https://benchmarkstt.readthedocs.io/en/latest/modules/benchmarkstt.output.core.html#benchmarkstt.output.core.ReStructuredText" xlink:actuate="onRequest" xlink:href="https://benchmarkstt.readthedocs.io/en/latest/modules/benchmarkstt.output.core.html#benchmarkstt.output.core.ReStructuredText" xlink:show="new" xlink:title="https://benchmarkstt.readthedocs.io/en/latest/modules/benchmarkstt.output.core.html#benchmarkstt.output.core.ReStructuredText" xlink:type="simple"><rect fill="#CCCCCC" filter="url(#fxk1jrkmp69jv)" height="102.7754" id="benchmarkstt.output.core.ReStructuredText" style="stroke: #AAAAAA; stroke-width: 1.5;" width="211" x="269.5" y="370"/><ellipse cx="321.5" cy="383" fill="#FF8800" rx="8" ry="8" style="stroke: #AAAAAA; stroke-width: 1.0;"/><path d="M321.6353,387.1558 Q320.7437,387.1558 319.989,386.8926 Q319.2344,386.6294 318.6919,386.1084 Q318.1494,385.5874 317.8513,384.8086 Q317.5532,384.0298 317.5532,383.0093 Q317.5532,382.0586 317.8379,381.2852 Q318.1226,380.5117 318.665,379.9585 Q319.186,379.4268 319.9568,379.1367 Q320.7275,378.8467 321.6406,378.8467 Q322.1455,378.8467 322.551,378.9031 Q322.9565,378.9595 323.3003,379.0508 Q323.6602,379.1528 323.9529,379.2791 Q324.2456,379.4053 324.4658,379.5127 L324.4658,381.4517 L324.2295,381.4517 Q324.0791,381.3228 323.8508,381.1455 Q323.6226,380.9683 323.3325,380.7964 Q323.0371,380.6245 322.6934,380.5063 Q322.3496,380.3882 321.9575,380.3882 Q321.5225,380.3882 321.1304,380.5251 Q320.7383,380.6621 320.4053,380.979 Q320.0884,381.2852 319.8923,381.79 Q319.6963,382.2949 319.6963,383.0146 Q319.6963,383.7666 319.9084,384.2715 Q320.1206,384.7764 320.4429,385.0664 Q320.7705,385.3618 321.1733,385.488 Q321.5762,385.6143 321.9683,385.6143 Q322.3442,385.6143 322.7122,385.5015 Q323.0801,385.3887 323.3916,385.1953 Q323.6548,385.0396 323.8804,384.8623 Q324.106,384.6851 324.251,384.5562 L324.4658,384.5562 L324.4658,386.4683 Q324.165,386.6025 323.8911,386.7207 Q323.6172,386.8389 323.3164,386.9248 Q322.9243,387.0376 322.5806,387.0967 Q322.2368,387.1558 321.6353,387.1558 Z "/><text fill="#000000" font-family="Verdana" font-size="11" lengthAdjust="spacingAndGlyphs" textLength="100" x="337.5" y="387.3748">ReStructuredText</text><line style="stroke: #AAAAAA; stroke-width: 1.5;" x1="270.5" x2="479.5" y1="396" y2="396"/><ellipse cx="280.5" cy="423.9551" fill="#84BE84" rx="3" ry="3" style="stroke: #038048; stroke-width: 1.0;"/><text fill="#333333" font-family="sans-serif" font-size="11" lengthAdjust="spacingAndGlyphs" textLength="60" x="286.5" y="427.5898">__enter__()</text><ellipse cx="280.5" cy="436.9102" fill="#84BE84" rx="3" ry="3" style="stroke: #038048; stroke-width: 1.0;"/><text fill="#333333" font-family="sans-serif" font-size="11" lengthAdjust="spacingAndGlyphs" textLength="188" x="286.5" y="440.5449">__exit__(exc_type, exc_val, exc_tb)</text><ellipse cx="280.5" cy="449.8652" fill="#84BE84" rx="3" ry="3" style="stroke: #038048; stroke-width: 1.0;"/><text fill="#333333" font-family="sans-serif" font-size="11" lengthAdjust="spacingAndGlyphs" textLength="65" x="286.5" y="453.5">print(result)</text><ellipse cx="280.5" cy="462.8203" fill="#84BE84" rx="3" ry="3" style="stroke: #038048; stroke-width: 1.0;"/><text fill="#333333" font-family="sans-serif" font-size="11" lengthAdjust="spacingAndGlyphs" textLength="96" x="286.5" y="466.4551">result(title, result)</text><line style="stroke: #AAAAAA; stroke-width: 1.0; stroke-dasharray: 1.0,2.0;" x1="270.5" x2="334.5" y1="410.4775" y2="410.4775"/><text fill="#333333" font-family="sans-serif" font-size="11" lengthAdjust="spacingAndGlyphs" textLength="81" x="334.5" y="414.1348">Public Methods</text><line style="stroke: #AAAAAA; stroke-width: 1.0; stroke-dasharray: 1.0,2.0;" x1="415.5" x2="479.5" y1="410.4775" y2="410.4775"/></a><!--MD5=[b4ba39b199d1ae7f900ea69508af4a3d]
reverse link benchmarkstt.output.Base to benchmarkstt.output.core.Json--><path d="M295.77,148.31 C309.64,167.43 324.82,188.35 338.16,206.73 " fill="none" id="benchmarkstt.output.Base&lt;-benchmarkstt.output.core.Json" style="stroke: #000000; stroke-width: 1.0;"/><polygon fill="none" points="290.08,152.39,284,132.09,301.41,144.17,290.08,152.39" style="stroke: #000000; stroke-width: 1.0;"/><!--MD5=[649e8d6b5a19579f64f6ff55d9b80603]
reverse link benchmarkstt.output.core.SimpleTextBase to benchmarkstt.output.core.MarkDown--><path d="M129,330.71 C129,343.91 129,357.46 129,369.89 " fill="none" id="benchmarkstt.output.core.SimpleTextBase&lt;-benchmarkstt.output.core.MarkDown" style="stroke: #000000; stroke-width: 1.0;"/><polygon fill="none" points="122,330.44,129,310.44,136,330.44,122,330.44" style="stroke: #000000; stroke-width: 1.0;"/><!--MD5=[0064dcd89a9c0ed1362beefa7e7418bc]
reverse link benchmarkstt.output.core.SimpleTextBase to benchmarkstt.output.core.ReStructuredText--><path d="M223.53,321.37 C247.98,337.37 274.01,354.4 297.47,369.76 " fill="none" id="benchmarkstt.output.core.SimpleTextBase&lt;-benchmarkstt.output.core.ReStructuredText" style="stroke: #000000; stroke-width: 1.0;"/><polygon fill="none" points="219.4,327.03,206.5,310.22,227.07,315.32,219.4,327.03" style="stroke: #000000; stroke-width: 1.0;"/><!--MD5=[ec4fe02a8646f37173536f5ee390896c]
reverse link benchmarkstt.output.Base to benchmarkstt.output.core.SimpleTextBase--><path d="M208.23,148.31 C194.36,167.43 179.18,188.35 165.84,206.73 " fill="none" id="benchmarkstt.output.Base&lt;-benchmarkstt.output.core.SimpleTextBase" style="stroke: #000000; stroke-width: 1.0;"/><polygon fill="none" points="202.59,144.17,220,132.09,213.92,152.39,202.59,144.17" style="stroke: #000000; stroke-width: 1.0;"/><!--MD5=[df998d3d620008ad2e067d4a32d02fbe]
@startuml

skinparam packageStyle Frame
!define LIGHTORANGE
!includeurl https://raw.githubusercontent.com/Drakemor/RedDress-PlantUML/master/style.puml
package benchmarkstt.output [[https://benchmarkstt.readthedocs.io/en/latest/modules/benchmarkstt.output.html#]] {

	class benchmarkstt.output.Base  [[https://benchmarkstt.readthedocs.io/en/latest/modules/benchmarkstt.output.html#benchmarkstt.output.Base]] {
		.. Public Methods ..
		+__enter__()
		+__exit__(exc_type, exc_val, exc_tb)
		+result(title, result)
	}
}

package benchmarkstt.output.core [[https://benchmarkstt.readthedocs.io/en/latest/modules/benchmarkstt.output.core.html#]] {

	class benchmarkstt.output.core.Json  [[https://benchmarkstt.readthedocs.io/en/latest/modules/benchmarkstt.output.core.html#benchmarkstt.output.core.Json]] extends benchmarkstt.output.Base {
		.. Public Methods ..
		+__enter__()
		+__exit__(exc_type, exc_val, exc_tb)
		+__init__()
		+result(title, result)
	}

	class benchmarkstt.output.core.MarkDown  [[https://benchmarkstt.readthedocs.io/en/latest/modules/benchmarkstt.output.core.html#benchmarkstt.output.core.MarkDown]] extends benchmarkstt.output.core.SimpleTextBase {
		.. Public Methods ..
		+__enter__()
		+__exit__(exc_type, exc_val, exc_tb)
		+print(result)
		+result(title, result)
	}

	class benchmarkstt.output.core.ReStructuredText  [[https://benchmarkstt.readthedocs.io/en/latest/modules/benchmarkstt.output.core.html#benchmarkstt.output.core.ReStructuredText]] extends benchmarkstt.output.core.SimpleTextBase {
		.. Public Methods ..
		+__enter__()
		+__exit__(exc_type, exc_val, exc_tb)
		+print(result)
		+result(title, result)
	}

	class benchmarkstt.output.core.SimpleTextBase  [[https://benchmarkstt.readthedocs.io/en/latest/modules/benchmarkstt.output.core.html#benchmarkstt.output.core.SimpleTextBase]] extends benchmarkstt.output.Base {
		.. Public Methods ..
		+__enter__()
		+__exit__(exc_type, exc_val, exc_tb)
		+print(result)
		+result(title, result)
	}
}




@enduml

@startuml

skinparam packageStyle Frame










skinparam stereotypeCBackgroundColor FF8800

skinparam backgroundColor fff








skinparam circledCharacter {
  radius 8
  fontSize 11
  fontName Verdana
}

skinparam class {
    backgroundColor ccc
  borderColor aaa
    fontColor 000
  fontName Verdana
  fontSize 11
  stereotypeFontColor 333
  stereotypeFontSize 11
    arrowColor 000
  arrowFontName Verdana
  arrowFontColor 333
  arrowFontSize 11

  attributeFontColor 333
  attributeFontSize 11
  attributeIconSize 11
}


skinparam actor {
    backgroundColor FF8800
  borderColor BB6600
    fontColor 000
  fontName Verdana
  fontSize 11
  stereotypeFontColor 333
  stereotypeFontSize 11
}

skinparam participant {
    backgroundColor ccc
  borderColor aaa
    fontColor 000
  fontName Verdana
  fontSize 11
  stereotypeFontColor 333
  stereotypeFontSize 11
}

skinparam collections {
    backgroundColor ccc
  borderColor aaa
    fontColor 000
  fontName Verdana
  fontSize 11
  stereotypeFontColor 333
  stereotypeFontSize 11
}

skinparam SequenceBox{
    backgroundColor e0e0e0
  borderColor cccccc
    fontColor 000
  fontName Verdana
  fontSize 11
  stereotypeFontColor 333
  stereotypeFontSize 11
}


skinparam interface {
    backgroundColor FF8800
  borderColor BB6600
    fontColor 000
  fontName Verdana
  fontSize 11
  stereotypeFontColor 333
  stereotypeFontSize 11
}

skinparam component {
    backgroundColor ccc
  borderColor aaa
    fontColor 000
  fontName Verdana
  fontSize 11
  stereotypeFontColor 333
  stereotypeFontSize 11
}

skinparam node {
    backgroundColor ccc
  borderColor aaa
    fontColor 000
  fontName Verdana
  fontSize 11
  stereotypeFontColor 333
  stereotypeFontSize 11
}

skinparam database {
    backgroundColor ccc
  borderColor aaa
    fontColor 000
  fontName Verdana
  fontSize 11
  stereotypeFontColor 333
  stereotypeFontSize 11
}

skinparam queue {
    backgroundColor ccc
  borderColor aaa
    fontColor 000
  fontName Verdana
  fontSize 11
  stereotypeFontColor 333
  stereotypeFontSize 11
}


skinparam usecase {
    backgroundColor ccc
  borderColor aaa
    fontColor 000
  fontName Verdana
  fontSize 11
  stereotypeFontColor 333
  stereotypeFontSize 11
    arrowColor 000
  arrowFontName Verdana
  arrowFontColor 333
  arrowFontSize 11
}

skinparam activity {
    backgroundColor ccc
  borderColor aaa
    fontColor 000
  fontName Verdana
  fontSize 11
  stereotypeFontColor 333
  stereotypeFontSize 11
    arrowColor 000
  arrowFontName Verdana
  arrowFontColor 333
  arrowFontSize 11
}

skinparam sequence {
    fontColor 000
  fontName Verdana
  fontSize 11
  stereotypeFontColor 333
  stereotypeFontSize 11
    arrowColor 000
  arrowFontName Verdana
  arrowFontColor 333
  arrowFontSize 11

  lifeLineBorderColor FF8800
  lifeLineBackgroundColor e0e0e0
}

skinparam boundary {
    backgroundColor FF8800
  borderColor BB6600
    fontColor 000
  fontName Verdana
  fontSize 11
  stereotypeFontColor 333
  stereotypeFontSize 11
}

skinparam control {
    backgroundColor FF8800
  borderColor BB6600
    fontColor 000
  fontName Verdana
  fontSize 11
  stereotypeFontColor 333
  stereotypeFontSize 11
}

skinparam entity {
    backgroundColor FF8800
  borderColor BB6600
    fontColor 000
  fontName Verdana
  fontSize 11
  stereotypeFontColor 333
  stereotypeFontSize 11
}


skinparam state {
    backgroundColor ccc
  borderColor aaa
    fontColor 000
  fontName Verdana
  fontSize 11
  stereotypeFontColor 333
  stereotypeFontSize 11
    arrowColor 000
  arrowFontName Verdana
  arrowFontColor 333
  arrowFontSize 11
  startColor FF8800
  endColor BB6600
}


skinparam object {
    backgroundColor ccc
  borderColor aaa
    fontColor 000
  fontName Verdana
  fontSize 11
  stereotypeFontColor 333
  stereotypeFontSize 11
    arrowColor 000
  arrowFontName Verdana
  arrowFontColor 333
  arrowFontSize 11
}


skinparam note {
    backgroundColor FF8800
  borderColor BB6600
    fontColor 000
  fontName Verdana
  fontSize 11
  stereotypeFontColor 333
  stereotypeFontSize 11
}

skinparam cloud {
    backgroundColor ccc
  borderColor aaa
    fontColor 000
  fontName Verdana
  fontSize 11
  stereotypeFontColor 333
  stereotypeFontSize 11
    arrowColor 000
  arrowFontName Verdana
  arrowFontColor 333
  arrowFontSize 11
}

skinparam rectangle {
    backgroundColor ccc
  borderColor aaa
    fontColor 000
  fontName Verdana
  fontSize 11
  stereotypeFontColor 333
  stereotypeFontSize 11
}

skinparam storage {
    backgroundColor ccc
  borderColor aaa
    fontColor 000
  fontName Verdana
  fontSize 11
  stereotypeFontColor 333
  stereotypeFontSize 11
}

package benchmarkstt.output [[https://benchmarkstt.readthedocs.io/en/latest/modules/benchmarkstt.output.html#]] {

	class benchmarkstt.output.Base  [[https://benchmarkstt.readthedocs.io/en/latest/modules/benchmarkstt.output.html#benchmarkstt.output.Base]] {
		.. Public Methods ..
		+__enter__()
		+__exit__(exc_type, exc_val, exc_tb)
		+result(title, result)
	}
}

package benchmarkstt.output.core [[https://benchmarkstt.readthedocs.io/en/latest/modules/benchmarkstt.output.core.html#]] {

	class benchmarkstt.output.core.Json  [[https://benchmarkstt.readthedocs.io/en/latest/modules/benchmarkstt.output.core.html#benchmarkstt.output.core.Json]] extends benchmarkstt.output.Base {
		.. Public Methods ..
		+__enter__()
		+__exit__(exc_type, exc_val, exc_tb)
		+__init__()
		+result(title, result)
	}

	class benchmarkstt.output.core.MarkDown  [[https://benchmarkstt.readthedocs.io/en/latest/modules/benchmarkstt.output.core.html#benchmarkstt.output.core.MarkDown]] extends benchmarkstt.output.core.SimpleTextBase {
		.. Public Methods ..
		+__enter__()
		+__exit__(exc_type, exc_val, exc_tb)
		+print(result)
		+result(title, result)
	}

	class benchmarkstt.output.core.ReStructuredText  [[https://benchmarkstt.readthedocs.io/en/latest/modules/benchmarkstt.output.core.html#benchmarkstt.output.core.ReStructuredText]] extends benchmarkstt.output.core.SimpleTextBase {
		.. Public Methods ..
		+__enter__()
		+__exit__(exc_type, exc_val, exc_tb)
		+print(result)
		+result(title, result)
	}

	class benchmarkstt.output.core.SimpleTextBase  [[https://benchmarkstt.readthedocs.io/en/latest/modules/benchmarkstt.output.core.html#benchmarkstt.output.core.SimpleTextBase]] extends benchmarkstt.output.Base {
		.. Public Methods ..
		+__enter__()
		+__exit__(exc_type, exc_val, exc_tb)
		+print(result)
		+result(title, result)
	}
}




@enduml

PlantUML version 1.2020.15(Sun Jun 28 11:39:45 UTC 2020)
(GPL source distribution)
Java Runtime: OpenJDK Runtime Environment
JVM: OpenJDK 64-Bit Server VM
Default Encoding: UTF-8
Language: en
Country: BE
--></g></svg>