<?xml version="1.0" encoding="UTF-8" standalone="no"?><svg xmlns="http://www.w3.org/2000/svg" xmlns:xlink="http://www.w3.org/1999/xlink" contentScriptType="application/ecmascript" contentStyleType="text/css" height="464px" preserveAspectRatio="none" style="width:359px;height:464px;" version="1.1" viewBox="0 0 359 464" width="359px" zoomAndPan="magnify"><defs><filter height="300%" id="f1n8albgd8q9xa" width="300%" x="-1" y="-1"><feGaussianBlur result="blurOut" stdDeviation="2.0"/><feColorMatrix in="blurOut" result="blurOut2" type="matrix" values="0 0 0 0 0 0 0 0 0 0 0 0 0 0 0 0 0 0 .4 0"/><feOffset dx="4.0" dy="4.0" in="blurOut2" result="blurOut3"/><feBlend in="SourceGraphic" in2="blurOut3" mode="normal"/></filter></defs><g><!--MD5=[c2f5f1914e6a0fca7cbdb2b44310c20b]
cluster benchmarkstt.output--><a href="https://benchmarkstt.readthedocs.io/en/latest/modules/benchmarkstt.output.html#" target="_top" title="https://benchmarkstt.readthedocs.io/en/latest/modules/benchmarkstt.output.html#" xlink:actuate="onRequest" xlink:href="https://benchmarkstt.readthedocs.io/en/latest/modules/benchmarkstt.output.html#" xlink:show="new" xlink:title="https://benchmarkstt.readthedocs.io/en/latest/modules/benchmarkstt.output.html#" xlink:type="simple"><rect fill="#FFFFFF" filter="url(#f1n8albgd8q9xa)" height="127" style="stroke: #000000; stroke-width: 1.5;" width="166" x="91" y="7"/><path d="M251,8 L251,16.4883 L241,26.4883 L91,26.4883 " fill="none" style="stroke: #000000; stroke-width: 1.5;"/><text fill="#000000" font-family="sans-serif" font-size="14" font-weight="bold" lengthAdjust="spacingAndGlyphs" textLength="150" x="94" y="21.5352">benchmarkstt.output</text></a><!--MD5=[847d3ee6f8e67faab7de214c96ed8267]
cluster benchmarkstt.output.core--><a href="https://benchmarkstt.readthedocs.io/en/latest/modules/benchmarkstt.output.core.html#" target="_top" title="https://benchmarkstt.readthedocs.io/en/latest/modules/benchmarkstt.output.core.html#" xlink:actuate="onRequest" xlink:href="https://benchmarkstt.readthedocs.io/en/latest/modules/benchmarkstt.output.core.html#" xlink:show="new" xlink:title="https://benchmarkstt.readthedocs.io/en/latest/modules/benchmarkstt.output.core.html#" xlink:type="simple"><rect fill="#FFFFFF" filter="url(#f1n8albgd8q9xa)" height="289" style="stroke: #000000; stroke-width: 1.5;" width="335" x="7" y="158"/><path d="M200,159 L200,167.4883 L190,177.4883 L7,177.4883 " fill="none" style="stroke: #000000; stroke-width: 1.5;"/><text fill="#000000" font-family="sans-serif" font-size="14" font-weight="bold" lengthAdjust="spacingAndGlyphs" textLength="183" x="10" y="172.5352">benchmarkstt.output.core</text></a><!--MD5=[6bad0332cb50a567e063560f49fe1b05]
class benchmarkstt.output.Base--><a href="https://benchmarkstt.readthedocs.io/en/latest/modules/benchmarkstt.output.html#benchmarkstt.output.Base" target="_top" title="https://benchmarkstt.readthedocs.io/en/latest/modules/benchmarkstt.output.html#benchmarkstt.output.Base" xlink:actuate="onRequest" xlink:href="https://benchmarkstt.readthedocs.io/en/latest/modules/benchmarkstt.output.html#benchmarkstt.output.Base" xlink:show="new" xlink:title="https://benchmarkstt.readthedocs.io/en/latest/modules/benchmarkstt.output.html#benchmarkstt.output.Base" xlink:type="simple"><rect fill="#FEFECE" filter="url(#f1n8albgd8q9xa)" height="76.1758" id="benchmarkstt.output.Base" style="stroke: #A80036; stroke-width: 1.5;" width="134" x="107" y="42"/><ellipse cx="122" cy="61.1328" fill="#ADD1B2" rx="11" ry="11" style="stroke: #A80036; stroke-width: 1.0;"/><path d="M124.4731,67.2759 Q123.8921,67.5747 123.2529,67.7241 Q122.6138,67.8735 121.9082,67.8735 Q119.4014,67.8735 118.0815,66.2217 Q116.7617,64.5698 116.7617,61.4487 Q116.7617,58.3193 118.0815,56.6675 Q119.4014,55.0156 121.9082,55.0156 Q122.6138,55.0156 123.2612,55.165 Q123.9087,55.3145 124.4731,55.6133 L124.4731,58.3359 Q123.8423,57.7549 123.2488,57.4851 Q122.6553,57.2153 122.0244,57.2153 Q120.6797,57.2153 119.9949,58.282 Q119.3101,59.3486 119.3101,61.4487 Q119.3101,63.5405 119.9949,64.6072 Q120.6797,65.6738 122.0244,65.6738 Q122.6553,65.6738 123.2488,65.4041 Q123.8423,65.1343 124.4731,64.5532 Z "/><text fill="#000000" font-family="sans-serif" font-size="12" font-style="italic" lengthAdjust="spacingAndGlyphs" textLength="106" x="134" y="58.6016">«ContextManager»</text><text fill="#000000" font-family="sans-serif" font-size="12" lengthAdjust="spacingAndGlyphs" textLength="27" x="173.5" y="72.7344">Base</text><line style="stroke: #A80036; stroke-width: 1.5;" x1="108" x2="240" y1="80.2656" y2="80.2656"/><ellipse cx="118" cy="108.2207" fill="#84BE84" rx="3" ry="3" style="stroke: #038048; stroke-width: 1.0;"/><text fill="#000000" font-family="sans-serif" font-size="11" lengthAdjust="spacingAndGlyphs" textLength="96" x="127" y="111.8555">result(title, result)</text><line style="stroke: #A80036; stroke-width: 1.0; stroke-dasharray: 1.0,2.0;" x1="108" x2="133.5" y1="94.7432" y2="94.7432"/><text fill="#000000" font-family="sans-serif" font-size="11" lengthAdjust="spacingAndGlyphs" textLength="81" x="133.5" y="98.4004">Public Methods</text><line style="stroke: #A80036; stroke-width: 1.0; stroke-dasharray: 1.0,2.0;" x1="214.5" x2="240" y1="94.7432" y2="94.7432"/></a><!--MD5=[f736c00f8e3d82ae904e3d345ee15690]
class benchmarkstt.output.core.Json--><a href="https://benchmarkstt.readthedocs.io/en/latest/modules/benchmarkstt.output.core.html#benchmarkstt.output.core.Json" target="_top" title="https://benchmarkstt.readthedocs.io/en/latest/modules/benchmarkstt.output.core.html#benchmarkstt.output.core.Json" xlink:actuate="onRequest" xlink:href="https://benchmarkstt.readthedocs.io/en/latest/modules/benchmarkstt.output.core.html#benchmarkstt.output.core.Json" xlink:show="new" xlink:title="https://benchmarkstt.readthedocs.io/en/latest/modules/benchmarkstt.output.core.html#benchmarkstt.output.core.Json" xlink:type="simple"><rect fill="#FEFECE" filter="url(#f1n8albgd8q9xa)" height="89.1309" id="benchmarkstt.output.core.Json" style="stroke: #A80036; stroke-width: 1.5;" width="134" x="192" y="193"/><ellipse cx="207" cy="212.1328" fill="#ADD1B2" rx="11" ry="11" style="stroke: #A80036; stroke-width: 1.0;"/><path d="M209.4731,218.2759 Q208.8921,218.5747 208.2529,218.7241 Q207.6138,218.8735 206.9082,218.8735 Q204.4014,218.8735 203.0815,217.2217 Q201.7617,215.5698 201.7617,212.4487 Q201.7617,209.3193 203.0815,207.6675 Q204.4014,206.0156 206.9082,206.0156 Q207.6138,206.0156 208.2612,206.165 Q208.9087,206.3145 209.4731,206.6133 L209.4731,209.3359 Q208.8423,208.7549 208.2488,208.4851 Q207.6553,208.2153 207.0244,208.2153 Q205.6797,208.2153 204.9949,209.282 Q204.3101,210.3486 204.3101,212.4487 Q204.3101,214.5405 204.9949,215.6072 Q205.6797,216.6738 207.0244,216.6738 Q207.6553,216.6738 208.2488,216.4041 Q208.8423,216.1343 209.4731,215.5532 Z "/><text fill="#000000" font-family="sans-serif" font-size="12" font-style="italic" lengthAdjust="spacingAndGlyphs" textLength="106" x="219" y="209.6016">«ContextManager»</text><text fill="#000000" font-family="sans-serif" font-size="12" lengthAdjust="spacingAndGlyphs" textLength="24" x="260" y="223.7344">Json</text><line style="stroke: #A80036; stroke-width: 1.5;" x1="193" x2="325" y1="231.2656" y2="231.2656"/><ellipse cx="203" cy="259.2207" fill="#84BE84" rx="3" ry="3" style="stroke: #038048; stroke-width: 1.0;"/><text fill="#000000" font-family="sans-serif" font-size="11" lengthAdjust="spacingAndGlyphs" textLength="49" x="212" y="262.8555">__init__()</text><ellipse cx="203" cy="272.1758" fill="#84BE84" rx="3" ry="3" style="stroke: #038048; stroke-width: 1.0;"/><text fill="#000000" font-family="sans-serif" font-size="11" lengthAdjust="spacingAndGlyphs" textLength="96" x="212" y="275.8105">result(title, result)</text><line style="stroke: #A80036; stroke-width: 1.0; stroke-dasharray: 1.0,2.0;" x1="193" x2="218.5" y1="245.7432" y2="245.7432"/><text fill="#000000" font-family="sans-serif" font-size="11" lengthAdjust="spacingAndGlyphs" textLength="81" x="218.5" y="249.4004">Public Methods</text><line style="stroke: #A80036; stroke-width: 1.0; stroke-dasharray: 1.0,2.0;" x1="299.5" x2="325" y1="245.7432" y2="245.7432"/></a><!--MD5=[1202924086ca6a88207a70c63baf9330]
class benchmarkstt.output.core.MarkDown--><a href="https://benchmarkstt.readthedocs.io/en/latest/modules/benchmarkstt.output.core.html#benchmarkstt.output.core.MarkDown" target="_top" title="https://benchmarkstt.readthedocs.io/en/latest/modules/benchmarkstt.output.core.html#benchmarkstt.output.core.MarkDown" xlink:actuate="onRequest" xlink:href="https://benchmarkstt.readthedocs.io/en/latest/modules/benchmarkstt.output.core.html#benchmarkstt.output.core.MarkDown" xlink:show="new" xlink:title="https://benchmarkstt.readthedocs.io/en/latest/modules/benchmarkstt.output.core.html#benchmarkstt.output.core.MarkDown" xlink:type="simple"><rect fill="#FEFECE" filter="url(#f1n8albgd8q9xa)" height="89.1309" id="benchmarkstt.output.core.MarkDown" style="stroke: #A80036; stroke-width: 1.5;" width="134" x="23" y="342"/><ellipse cx="38" cy="361.1328" fill="#ADD1B2" rx="11" ry="11" style="stroke: #A80036; stroke-width: 1.0;"/><path d="M40.4731,367.2759 Q39.8921,367.5747 39.2529,367.7241 Q38.6138,367.8735 37.9082,367.8735 Q35.4014,367.8735 34.0815,366.2217 Q32.7617,364.5698 32.7617,361.4487 Q32.7617,358.3193 34.0815,356.6675 Q35.4014,355.0156 37.9082,355.0156 Q38.6138,355.0156 39.2612,355.165 Q39.9087,355.3145 40.4731,355.6133 L40.4731,358.3359 Q39.8423,357.7549 39.2488,357.4851 Q38.6553,357.2153 38.0244,357.2153 Q36.6797,357.2153 35.9949,358.282 Q35.3101,359.3486 35.3101,361.4487 Q35.3101,363.5405 35.9949,364.6072 Q36.6797,365.6738 38.0244,365.6738 Q38.6553,365.6738 39.2488,365.4041 Q39.8423,365.1343 40.4731,364.5532 Z "/><text fill="#000000" font-family="sans-serif" font-size="12" font-style="italic" lengthAdjust="spacingAndGlyphs" textLength="106" x="50" y="358.6016">«ContextManager»</text><text fill="#000000" font-family="sans-serif" font-size="12" lengthAdjust="spacingAndGlyphs" textLength="61" x="72.5" y="372.7344">MarkDown</text><line style="stroke: #A80036; stroke-width: 1.5;" x1="24" x2="156" y1="380.2656" y2="380.2656"/><ellipse cx="34" cy="408.2207" fill="#84BE84" rx="3" ry="3" style="stroke: #038048; stroke-width: 1.0;"/><text fill="#000000" font-family="sans-serif" font-size="11" lengthAdjust="spacingAndGlyphs" textLength="65" x="43" y="411.8555">print(result)</text><ellipse cx="34" cy="421.1758" fill="#84BE84" rx="3" ry="3" style="stroke: #038048; stroke-width: 1.0;"/><text fill="#000000" font-family="sans-serif" font-size="11" lengthAdjust="spacingAndGlyphs" textLength="96" x="43" y="424.8105">result(title, result)</text><line style="stroke: #A80036; stroke-width: 1.0; stroke-dasharray: 1.0,2.0;" x1="24" x2="49.5" y1="394.7432" y2="394.7432"/><text fill="#000000" font-family="sans-serif" font-size="11" lengthAdjust="spacingAndGlyphs" textLength="81" x="49.5" y="398.4004">Public Methods</text><line style="stroke: #A80036; stroke-width: 1.0; stroke-dasharray: 1.0,2.0;" x1="130.5" x2="156" y1="394.7432" y2="394.7432"/></a><!--MD5=[ad472f876b41c377ab9c2f7fd723b528]
class benchmarkstt.output.core.SimpleTextBase--><a href="https://benchmarkstt.readthedocs.io/en/latest/modules/benchmarkstt.output.core.html#benchmarkstt.output.core.SimpleTextBase" target="_top" title="https://benchmarkstt.readthedocs.io/en/latest/modules/benchmarkstt.output.core.html#benchmarkstt.output.core.SimpleTextBase" xlink:actuate="onRequest" xlink:href="https://benchmarkstt.readthedocs.io/en/latest/modules/benchmarkstt.output.core.html#benchmarkstt.output.core.SimpleTextBase" xlink:show="new" xlink:title="https://benchmarkstt.readthedocs.io/en/latest/modules/benchmarkstt.output.core.html#benchmarkstt.output.core.SimpleTextBase" xlink:type="simple"><rect fill="#FEFECE" filter="url(#f1n8albgd8q9xa)" height="89.1309" id="benchmarkstt.output.core.SimpleTextBase" style="stroke: #A80036; stroke-width: 1.5;" width="134" x="23" y="193"/><ellipse cx="38" cy="212.1328" fill="#ADD1B2" rx="11" ry="11" style="stroke: #A80036; stroke-width: 1.0;"/><path d="M40.4731,218.2759 Q39.8921,218.5747 39.2529,218.7241 Q38.6138,218.8735 37.9082,218.8735 Q35.4014,218.8735 34.0815,217.2217 Q32.7617,215.5698 32.7617,212.4487 Q32.7617,209.3193 34.0815,207.6675 Q35.4014,206.0156 37.9082,206.0156 Q38.6138,206.0156 39.2612,206.165 Q39.9087,206.3145 40.4731,206.6133 L40.4731,209.3359 Q39.8423,208.7549 39.2488,208.4851 Q38.6553,208.2153 38.0244,208.2153 Q36.6797,208.2153 35.9949,209.282 Q35.3101,210.3486 35.3101,212.4487 Q35.3101,214.5405 35.9949,215.6072 Q36.6797,216.6738 38.0244,216.6738 Q38.6553,216.6738 39.2488,216.4041 Q39.8423,216.1343 40.4731,215.5532 Z "/><text fill="#000000" font-family="sans-serif" font-size="12" font-style="italic" lengthAdjust="spacingAndGlyphs" textLength="106" x="50" y="209.6016">«ContextManager»</text><text fill="#000000" font-family="sans-serif" font-size="12" lengthAdjust="spacingAndGlyphs" textLength="91" x="57.5" y="223.7344">SimpleTextBase</text><line style="stroke: #A80036; stroke-width: 1.5;" x1="24" x2="156" y1="231.2656" y2="231.2656"/><ellipse cx="34" cy="259.2207" fill="#84BE84" rx="3" ry="3" style="stroke: #038048; stroke-width: 1.0;"/><text fill="#000000" font-family="sans-serif" font-size="11" lengthAdjust="spacingAndGlyphs" textLength="65" x="43" y="262.8555">print(result)</text><ellipse cx="34" cy="272.1758" fill="#84BE84" rx="3" ry="3" style="stroke: #038048; stroke-width: 1.0;"/><text fill="#000000" font-family="sans-serif" font-size="11" lengthAdjust="spacingAndGlyphs" textLength="96" x="43" y="275.8105">result(title, result)</text><line style="stroke: #A80036; stroke-width: 1.0; stroke-dasharray: 1.0,2.0;" x1="24" x2="49.5" y1="245.7432" y2="245.7432"/><text fill="#000000" font-family="sans-serif" font-size="11" lengthAdjust="spacingAndGlyphs" textLength="81" x="49.5" y="249.4004">Public Methods</text><line style="stroke: #A80036; stroke-width: 1.0; stroke-dasharray: 1.0,2.0;" x1="130.5" x2="156" y1="245.7432" y2="245.7432"/></a><!--MD5=[1b1c3484ac7c767612303980bbf618ed]
class benchmarkstt.output.core.ReStructuredText--><a href="https://benchmarkstt.readthedocs.io/en/latest/modules/benchmarkstt.output.core.html#benchmarkstt.output.core.ReStructuredText" target="_top" title="https://benchmarkstt.readthedocs.io/en/latest/modules/benchmarkstt.output.core.html#benchmarkstt.output.core.ReStructuredText" xlink:actuate="onRequest" xlink:href="https://benchmarkstt.readthedocs.io/en/latest/modules/benchmarkstt.output.core.html#benchmarkstt.output.core.ReStructuredText" xlink:show="new" xlink:title="https://benchmarkstt.readthedocs.io/en/latest/modules/benchmarkstt.output.core.html#benchmarkstt.output.core.ReStructuredText" xlink:type="simple"><rect fill="#FEFECE" filter="url(#f1n8albgd8q9xa)" height="89.1309" id="benchmarkstt.output.core.ReStructuredText" style="stroke: #A80036; stroke-width: 1.5;" width="134" x="192" y="342"/><ellipse cx="207" cy="361.1328" fill="#ADD1B2" rx="11" ry="11" style="stroke: #A80036; stroke-width: 1.0;"/><path d="M209.4731,367.2759 Q208.8921,367.5747 208.2529,367.7241 Q207.6138,367.8735 206.9082,367.8735 Q204.4014,367.8735 203.0815,366.2217 Q201.7617,364.5698 201.7617,361.4487 Q201.7617,358.3193 203.0815,356.6675 Q204.4014,355.0156 206.9082,355.0156 Q207.6138,355.0156 208.2612,355.165 Q208.9087,355.3145 209.4731,355.6133 L209.4731,358.3359 Q208.8423,357.7549 208.2488,357.4851 Q207.6553,357.2153 207.0244,357.2153 Q205.6797,357.2153 204.9949,358.282 Q204.3101,359.3486 204.3101,361.4487 Q204.3101,363.5405 204.9949,364.6072 Q205.6797,365.6738 207.0244,365.6738 Q207.6553,365.6738 208.2488,365.4041 Q208.8423,365.1343 209.4731,364.5532 Z "/><text fill="#000000" font-family="sans-serif" font-size="12" font-style="italic" lengthAdjust="spacingAndGlyphs" textLength="106" x="219" y="358.6016">«ContextManager»</text><text fill="#000000" font-family="sans-serif" font-size="12" lengthAdjust="spacingAndGlyphs" textLength="100" x="222" y="372.7344">ReStructuredText</text><line style="stroke: #A80036; stroke-width: 1.5;" x1="193" x2="325" y1="380.2656" y2="380.2656"/><ellipse cx="203" cy="408.2207" fill="#84BE84" rx="3" ry="3" style="stroke: #038048; stroke-width: 1.0;"/><text fill="#000000" font-family="sans-serif" font-size="11" lengthAdjust="spacingAndGlyphs" textLength="65" x="212" y="411.8555">print(result)</text><ellipse cx="203" cy="421.1758" fill="#84BE84" rx="3" ry="3" style="stroke: #038048; stroke-width: 1.0;"/><text fill="#000000" font-family="sans-serif" font-size="11" lengthAdjust="spacingAndGlyphs" textLength="96" x="212" y="424.8105">result(title, result)</text><line style="stroke: #A80036; stroke-width: 1.0; stroke-dasharray: 1.0,2.0;" x1="193" x2="218.5" y1="394.7432" y2="394.7432"/><text fill="#000000" font-family="sans-serif" font-size="11" lengthAdjust="spacingAndGlyphs" textLength="81" x="218.5" y="398.4004">Public Methods</text><line style="stroke: #A80036; stroke-width: 1.0; stroke-dasharray: 1.0,2.0;" x1="299.5" x2="325" y1="394.7432" y2="394.7432"/></a><!--MD5=[b4ba39b199d1ae7f900ea69508af4a3d]
reverse link benchmarkstt.output.Base to benchmarkstt.output.core.Json--><path d="M203.95,135.8 C214.19,154.53 225.5,175.22 235.19,192.94 " fill="none" id="benchmarkstt.output.Base&lt;-benchmarkstt.output.core.Json" style="stroke: #A80036; stroke-width: 1.0;"/><polygon fill="none" points="197.81,139.15,194.36,118.25,210.09,132.44,197.81,139.15" style="stroke: #A80036; stroke-width: 1.0;"/><!--MD5=[649e8d6b5a19579f64f6ff55d9b80603]
reverse link benchmarkstt.output.core.SimpleTextBase to benchmarkstt.output.core.MarkDown--><path d="M90,302.53 C90,315.85 90,329.59 90,341.96 " fill="none" id="benchmarkstt.output.core.SimpleTextBase&lt;-benchmarkstt.output.core.MarkDown" style="stroke: #A80036; stroke-width: 1.0;"/><polygon fill="none" points="83,302.21,90,282.21,97,302.21,83,302.21" style="stroke: #A80036; stroke-width: 1.0;"/><!--MD5=[0064dcd89a9c0ed1362beefa7e7418bc]
reverse link benchmarkstt.output.core.SimpleTextBase to benchmarkstt.output.core.ReStructuredText--><path d="M155.47,295.45 C173.23,310.9 192.18,327.38 208.95,341.96 " fill="none" id="benchmarkstt.output.core.SimpleTextBase&lt;-benchmarkstt.output.core.ReStructuredText" style="stroke: #A80036; stroke-width: 1.0;"/><polygon fill="none" points="150.74,300.61,140.25,282.21,159.93,290.05,150.74,300.61" style="stroke: #A80036; stroke-width: 1.0;"/><!--MD5=[ec4fe02a8646f37173536f5ee390896c]
reverse link benchmarkstt.output.Base to benchmarkstt.output.core.SimpleTextBase--><path d="M144.24,136.09 C134.16,154.74 123.06,175.31 113.53,192.94 " fill="none" id="benchmarkstt.output.Base&lt;-benchmarkstt.output.core.SimpleTextBase" style="stroke: #A80036; stroke-width: 1.0;"/><polygon fill="none" points="138.22,132.52,153.88,118.25,150.53,139.17,138.22,132.52" style="stroke: #A80036; stroke-width: 1.0;"/><!--MD5=[3d2e376c8150cab33b6748c147548da8]
@startuml

skinparam packageStyle Frame
package benchmarkstt.output [[https://benchmarkstt.readthedocs.io/en/latest/modules/benchmarkstt.output.html#]] {

	class benchmarkstt.output.Base << ContextManager >>  [[https://benchmarkstt.readthedocs.io/en/latest/modules/benchmarkstt.output.html#benchmarkstt.output.Base]] {
		.. Public Methods ..
		+result(title, result)
	}
}

package benchmarkstt.output.core [[https://benchmarkstt.readthedocs.io/en/latest/modules/benchmarkstt.output.core.html#]] {

	class benchmarkstt.output.core.Json << ContextManager >>  [[https://benchmarkstt.readthedocs.io/en/latest/modules/benchmarkstt.output.core.html#benchmarkstt.output.core.Json]] extends benchmarkstt.output.Base {
		.. Public Methods ..
		+__init__()
		+result(title, result)
	}

	class benchmarkstt.output.core.MarkDown << ContextManager >>  [[https://benchmarkstt.readthedocs.io/en/latest/modules/benchmarkstt.output.core.html#benchmarkstt.output.core.MarkDown]] extends benchmarkstt.output.core.SimpleTextBase {
		.. Public Methods ..
		+print(result)
		+result(title, result)
	}

	class benchmarkstt.output.core.ReStructuredText << ContextManager >>  [[https://benchmarkstt.readthedocs.io/en/latest/modules/benchmarkstt.output.core.html#benchmarkstt.output.core.ReStructuredText]] extends benchmarkstt.output.core.SimpleTextBase {
		.. Public Methods ..
		+print(result)
		+result(title, result)
	}

	class benchmarkstt.output.core.SimpleTextBase << ContextManager >>  [[https://benchmarkstt.readthedocs.io/en/latest/modules/benchmarkstt.output.core.html#benchmarkstt.output.core.SimpleTextBase]] extends benchmarkstt.output.Base {
		.. Public Methods ..
		+print(result)
		+result(title, result)
	}
}




@enduml

PlantUML version 1.2020.15(Sun Jun 28 13:39:45 CEST 2020)
(GPL source distribution)
Java Runtime: OpenJDK Runtime Environment
JVM: OpenJDK 64-Bit Server VM
Default Encoding: UTF-8
Language: en
Country: BE
--></g></svg>