<?xml version="1.0" encoding="UTF-8" standalone="no"?><svg xmlns="http://www.w3.org/2000/svg" xmlns:xlink="http://www.w3.org/1999/xlink" contentScriptType="application/ecmascript" contentStyleType="text/css" height="305px" preserveAspectRatio="none" style="width:367px;height:305px;" version="1.1" viewBox="0 0 367 305" width="367px" zoomAndPan="magnify"><defs><filter height="300%" id="f1mvh07cmjpkjq" width="300%" x="-1" y="-1"><feGaussianBlur result="blurOut" stdDeviation="2.0"/><feColorMatrix in="blurOut" result="blurOut2" type="matrix" values="0 0 0 0 0 0 0 0 0 0 0 0 0 0 0 0 0 0 .4 0"/><feOffset dx="4.0" dy="4.0" in="blurOut2" result="blurOut3"/><feBlend in="SourceGraphic" in2="blurOut3" mode="normal"/></filter></defs><g><!--MD5=[be3e0801209626b11d7e8a88e82d4cf3]
cluster benchmarkstt.api.jsonrpc--><a href="https://benchmarkstt.readthedocs.io/en/latest/modules/benchmarkstt.api.jsonrpc.html#" target="_top" title="https://benchmarkstt.readthedocs.io/en/latest/modules/benchmarkstt.api.jsonrpc.html#" xlink:actuate="onRequest" xlink:href="https://benchmarkstt.readthedocs.io/en/latest/modules/benchmarkstt.api.jsonrpc.html#" xlink:show="new" xlink:title="https://benchmarkstt.readthedocs.io/en/latest/modules/benchmarkstt.api.jsonrpc.html#" xlink:type="simple"><rect fill="#FFFFFF" filter="url(#f1mvh07cmjpkjq)" height="281" style="stroke: #000000; stroke-width: 1.5;" width="343" x="7" y="7"/><path d="M197,8 L197,16.4883 L187,26.4883 L7,26.4883 " fill="none" style="stroke: #000000; stroke-width: 1.5;"/><text fill="#000000" font-family="sans-serif" font-size="14" font-weight="bold" lengthAdjust="spacingAndGlyphs" textLength="180" x="10" y="21.5352">benchmarkstt.api.jsonrpc</text></a><!--MD5=[a3634c026b9e43f971e19b80aea52223]
class benchmarkstt.api.jsonrpc.DefaultMethods--><a href="https://benchmarkstt.readthedocs.io/en/latest/modules/benchmarkstt.api.jsonrpc.html#benchmarkstt.api.jsonrpc.DefaultMethods" target="_top" title="https://benchmarkstt.readthedocs.io/en/latest/modules/benchmarkstt.api.jsonrpc.html#benchmarkstt.api.jsonrpc.DefaultMethods" xlink:actuate="onRequest" xlink:href="https://benchmarkstt.readthedocs.io/en/latest/modules/benchmarkstt.api.jsonrpc.html#benchmarkstt.api.jsonrpc.DefaultMethods" xlink:show="new" xlink:title="https://benchmarkstt.readthedocs.io/en/latest/modules/benchmarkstt.api.jsonrpc.html#benchmarkstt.api.jsonrpc.DefaultMethods" xlink:type="simple"><rect fill="#FEFECE" filter="url(#f1mvh07cmjpkjq)" height="82.8652" id="benchmarkstt.api.jsonrpc.DefaultMethods" style="stroke: #A80036; stroke-width: 1.5;" width="122" x="23" y="61.5"/><ellipse cx="38" cy="77.5" fill="#ADD1B2" rx="11" ry="11" style="stroke: #A80036; stroke-width: 1.0;"/><path d="M40.4731,83.6431 Q39.8921,83.9419 39.2529,84.0913 Q38.6138,84.2407 37.9082,84.2407 Q35.4014,84.2407 34.0815,82.5889 Q32.7617,80.937 32.7617,77.8159 Q32.7617,74.6865 34.0815,73.0347 Q35.4014,71.3828 37.9082,71.3828 Q38.6138,71.3828 39.2612,71.5322 Q39.9087,71.6816 40.4731,71.9805 L40.4731,74.7031 Q39.8423,74.1221 39.2488,73.8523 Q38.6553,73.5825 38.0244,73.5825 Q36.6797,73.5825 35.9949,74.6492 Q35.3101,75.7158 35.3101,77.8159 Q35.3101,79.9077 35.9949,80.9744 Q36.6797,82.041 38.0244,82.041 Q38.6553,82.041 39.2488,81.7712 Q39.8423,81.5015 40.4731,80.9204 Z "/><text fill="#000000" font-family="sans-serif" font-size="12" lengthAdjust="spacingAndGlyphs" textLength="90" x="52" y="82.0352">DefaultMethods</text><line style="stroke: #A80036; stroke-width: 1.5;" x1="24" x2="144" y1="93.5" y2="93.5"/><ellipse cx="34" cy="121.4551" fill="#84BE84" rx="3" ry="3" style="stroke: #038048; stroke-width: 1.0;"/><text fill="#000000" font-family="sans-serif" font-size="11" lengthAdjust="spacingAndGlyphs" textLength="78" x="43" y="125.0898">help(methods)</text><ellipse cx="34" cy="134.4102" fill="#84BE84" rx="3" ry="3" style="stroke: #038048; stroke-width: 1.0;"/><text fill="#000000" font-family="sans-serif" font-size="11" lengthAdjust="spacingAndGlyphs" textLength="48" x="43" y="138.0449">version()</text><line style="stroke: #A80036; stroke-width: 1.0; stroke-dasharray: 1.0,2.0;" x1="24" x2="43.5" y1="107.9775" y2="107.9775"/><text fill="#000000" font-family="sans-serif" font-size="11" lengthAdjust="spacingAndGlyphs" textLength="81" x="43.5" y="111.6348">Public Methods</text><line style="stroke: #A80036; stroke-width: 1.0; stroke-dasharray: 1.0,2.0;" x1="124.5" x2="144" y1="107.9775" y2="107.9775"/></a><!--MD5=[c8bb7040efe1fd7c5e6494e44dd85687]
class benchmarkstt.api.jsonrpc.MagicMethods--><a href="https://benchmarkstt.readthedocs.io/en/latest/modules/benchmarkstt.api.jsonrpc.html#benchmarkstt.api.jsonrpc.MagicMethods" target="_top" title="https://benchmarkstt.readthedocs.io/en/latest/modules/benchmarkstt.api.jsonrpc.html#benchmarkstt.api.jsonrpc.MagicMethods" xlink:actuate="onRequest" xlink:href="https://benchmarkstt.readthedocs.io/en/latest/modules/benchmarkstt.api.jsonrpc.html#benchmarkstt.api.jsonrpc.MagicMethods" xlink:show="new" xlink:title="https://benchmarkstt.readthedocs.io/en/latest/modules/benchmarkstt.api.jsonrpc.html#benchmarkstt.api.jsonrpc.MagicMethods" xlink:type="simple"><rect fill="#FEFECE" filter="url(#f1mvh07cmjpkjq)" height="121.7305" id="benchmarkstt.api.jsonrpc.MagicMethods" style="stroke: #A80036; stroke-width: 1.5;" width="154" x="180" y="42"/><ellipse cx="213" cy="58" fill="#ADD1B2" rx="11" ry="11" style="stroke: #A80036; stroke-width: 1.0;"/><path d="M215.4731,64.1431 Q214.8921,64.4419 214.2529,64.5913 Q213.6138,64.7407 212.9082,64.7407 Q210.4014,64.7407 209.0815,63.0889 Q207.7617,61.437 207.7617,58.3159 Q207.7617,55.1865 209.0815,53.5347 Q210.4014,51.8828 212.9082,51.8828 Q213.6138,51.8828 214.2612,52.0322 Q214.9087,52.1816 215.4731,52.4805 L215.4731,55.2031 Q214.8423,54.6221 214.2488,54.3523 Q213.6553,54.0825 213.0244,54.0825 Q211.6797,54.0825 210.9949,55.1492 Q210.3101,56.2158 210.3101,58.3159 Q210.3101,60.4077 210.9949,61.4744 Q211.6797,62.541 213.0244,62.541 Q213.6553,62.541 214.2488,62.2712 Q214.8423,62.0015 215.4731,61.4204 Z "/><text fill="#000000" font-family="sans-serif" font-size="12" lengthAdjust="spacingAndGlyphs" textLength="82" x="231" y="62.5352">MagicMethods</text><line style="stroke: #A80036; stroke-width: 1.5;" x1="181" x2="333" y1="74" y2="74"/><ellipse cx="191" cy="101.9551" fill="#84BE84" rx="3" ry="3" style="stroke: #038048; stroke-width: 1.0;"/><text fill="#000000" font-family="sans-serif" font-size="11" lengthAdjust="spacingAndGlyphs" textLength="49" x="200" y="105.5898">__init__()</text><ellipse cx="191" cy="114.9102" fill="#84BE84" rx="3" ry="3" style="stroke: #038048; stroke-width: 1.0;"/><text fill="#000000" font-family="sans-serif" font-size="11" lengthAdjust="spacingAndGlyphs" textLength="99" x="200" y="118.5449">is_safe_path(path)</text><ellipse cx="191" cy="127.8652" fill="#84BE84" rx="3" ry="3" style="stroke: #038048; stroke-width: 1.0;"/><text fill="#000000" font-family="sans-serif" font-size="11" lengthAdjust="spacingAndGlyphs" textLength="106" x="200" y="131.5">load(name, module)</text><ellipse cx="191" cy="140.8203" fill="#84BE84" rx="3" ry="3" style="stroke: #038048; stroke-width: 1.0;"/><text fill="#000000" font-family="sans-serif" font-size="11" lengthAdjust="spacingAndGlyphs" textLength="128" x="200" y="144.4551">register(name, callback)</text><ellipse cx="191" cy="153.7754" fill="#84BE84" rx="3" ry="3" style="stroke: #038048; stroke-width: 1.0;"/><text fill="#000000" font-family="sans-serif" font-size="11" lengthAdjust="spacingAndGlyphs" textLength="120" x="200" y="157.4102">serve(config, callback)</text><line style="stroke: #A80036; stroke-width: 1.0; stroke-dasharray: 1.0,2.0;" x1="181" x2="216.5" y1="88.4775" y2="88.4775"/><text fill="#000000" font-family="sans-serif" font-size="11" lengthAdjust="spacingAndGlyphs" textLength="81" x="216.5" y="92.1348">Public Methods</text><line style="stroke: #A80036; stroke-width: 1.0; stroke-dasharray: 1.0,2.0;" x1="297.5" x2="333" y1="88.4775" y2="88.4775"/></a><!--MD5=[6470523c0351eec356b65f21af912d4f]
class benchmarkstt.api.jsonrpc.SecurityError--><a href="https://benchmarkstt.readthedocs.io/en/latest/modules/benchmarkstt.api.jsonrpc.html#benchmarkstt.api.jsonrpc.SecurityError" target="_top" title="https://benchmarkstt.readthedocs.io/en/latest/modules/benchmarkstt.api.jsonrpc.html#benchmarkstt.api.jsonrpc.SecurityError" xlink:actuate="onRequest" xlink:href="https://benchmarkstt.readthedocs.io/en/latest/modules/benchmarkstt.api.jsonrpc.html#benchmarkstt.api.jsonrpc.SecurityError" xlink:show="new" xlink:title="https://benchmarkstt.readthedocs.io/en/latest/modules/benchmarkstt.api.jsonrpc.html#benchmarkstt.api.jsonrpc.SecurityError" xlink:type="simple"><rect fill="#FEFECE" filter="url(#f1mvh07cmjpkjq)" height="48" id="benchmarkstt.api.jsonrpc.SecurityError" style="stroke: #A80036; stroke-width: 1.5;" width="105" x="31.5" y="224"/><ellipse cx="46.5" cy="240" fill="#FF0000" rx="11" ry="11" style="stroke: #A80036; stroke-width: 1.0;"/><path d="M50.1143,246.5 L42.3945,246.5 L42.3945,234.1069 L50.1143,234.1069 L50.1143,236.2651 L44.8433,236.2651 L44.8433,238.938 L49.6162,238.938 L49.6162,241.0962 L44.8433,241.0962 L44.8433,244.3418 L50.1143,244.3418 Z "/><text fill="#000000" font-family="sans-serif" font-size="12" lengthAdjust="spacingAndGlyphs" textLength="73" x="60.5" y="244.5352">SecurityError</text><line style="stroke: #A80036; stroke-width: 1.5;" x1="32.5" x2="135.5" y1="256" y2="256"/><line style="stroke: #A80036; stroke-width: 1.5;" x1="32.5" x2="135.5" y1="264" y2="264"/></a><!--MD5=[38210c2b313ae7f3f7264e3dc5bb59b6]
link benchmarkstt.api.jsonrpc.DefaultMethods to benchmarkstt.api.jsonrpc.MagicMethods--><!--MD5=[538cb41533b0550692009be83806011f]
link benchmarkstt.api.jsonrpc.DefaultMethods to benchmarkstt.api.jsonrpc.SecurityError--><!--MD5=[daf06eb15f6d7cabfca51ebc43dc3d97]
@startuml

skinparam packageStyle Frame
package benchmarkstt.api.jsonrpc [[https://benchmarkstt.readthedocs.io/en/latest/modules/benchmarkstt.api.jsonrpc.html#]] {

	class benchmarkstt.api.jsonrpc.DefaultMethods   [[https://benchmarkstt.readthedocs.io/en/latest/modules/benchmarkstt.api.jsonrpc.html#benchmarkstt.api.jsonrpc.DefaultMethods]] {
		.. Public Methods ..
		+help(methods)
		+version()
	}

	class benchmarkstt.api.jsonrpc.MagicMethods   [[https://benchmarkstt.readthedocs.io/en/latest/modules/benchmarkstt.api.jsonrpc.html#benchmarkstt.api.jsonrpc.MagicMethods]] {
		.. Public Methods ..
		+__init__()
		+is_safe_path(path)
		+load(name, module)
		+register(name, callback)
		+serve(config, callback)
	}

	class benchmarkstt.api.jsonrpc.SecurityError  << (E,red) >> [[https://benchmarkstt.readthedocs.io/en/latest/modules/benchmarkstt.api.jsonrpc.html#benchmarkstt.api.jsonrpc.SecurityError]] {
	}
}




@enduml

PlantUML version 1.2020.15(Sun Jun 28 13:39:45 CEST 2020)
(GPL source distribution)
Java Runtime: OpenJDK Runtime Environment
JVM: OpenJDK 64-Bit Server VM
Default Encoding: UTF-8
Language: en
Country: BE
--></g></svg>