<?xml version="1.0" encoding="UTF-8" standalone="no"?><svg xmlns="http://www.w3.org/2000/svg" xmlns:xlink="http://www.w3.org/1999/xlink" contentScriptType="application/ecmascript" contentStyleType="text/css" height="311px" preserveAspectRatio="none" style="width:407px;height:311px;" version="1.1" viewBox="0 0 407 311" width="407px" zoomAndPan="magnify"><defs><filter height="300%" id="f12nqhgkfqlpft" width="300%" x="-1" y="-1"><feGaussianBlur result="blurOut" stdDeviation="2.0"/><feColorMatrix in="blurOut" result="blurOut2" type="matrix" values="0 0 0 0 0 0 0 0 0 0 0 0 0 0 0 0 0 0 .4 0"/><feOffset dx="4.0" dy="4.0" in="blurOut2" result="blurOut3"/><feBlend in="SourceGraphic" in2="blurOut3" mode="normal"/></filter></defs><g><text fill="#000000" font-family="sans-serif" font-size="18" lengthAdjust="spacingAndGlyphs" textLength="151" x="119" y="17.4023">Benchmarkstt.api</text><!--MD5=[be3e0801209626b11d7e8a88e82d4cf3]
cluster benchmarkstt.api.jsonrpc--><polygon fill="#FFFFFF" filter="url(#f12nqhgkfqlpft)" points="16,27.1992,202,27.1992,209,49.6875,385,49.6875,385,299.1992,16,299.1992,16,27.1992" style="stroke: #000000; stroke-width: 1.5;"/><line style="stroke: #000000; stroke-width: 1.5;" x1="16" x2="209" y1="49.6875" y2="49.6875"/><text fill="#000000" font-family="sans-serif" font-size="14" font-weight="bold" lengthAdjust="spacingAndGlyphs" textLength="180" x="20" y="42.7344">benchmarkstt.api.jsonrpc</text><!--MD5=[a3634c026b9e43f971e19b80aea52223]
class benchmarkstt.api.jsonrpc.DefaultMethods--><a href="https://benchmarkstt.readthedocs.io/en/latest/modules/benchmarkstt.api.html#benchmarkstt.api.jsonrpc.DefaultMethods" target="_top" title="https://benchmarkstt.readthedocs.io/en/latest/modules/benchmarkstt.api.html#benchmarkstt.api.jsonrpc.DefaultMethods" xlink:actuate="onRequest" xlink:href="https://benchmarkstt.readthedocs.io/en/latest/modules/benchmarkstt.api.html#benchmarkstt.api.jsonrpc.DefaultMethods" xlink:show="new" xlink:title="https://benchmarkstt.readthedocs.io/en/latest/modules/benchmarkstt.api.html#benchmarkstt.api.jsonrpc.DefaultMethods" xlink:type="simple"><rect fill="#FEFECE" filter="url(#f12nqhgkfqlpft)" height="73.9102" id="benchmarkstt.api.jsonrpc.DefaultMethods" style="stroke: #A80036; stroke-width: 1.5;" width="122" x="32" y="81.6992"/><ellipse cx="47" cy="97.6992" fill="#ADD1B2" rx="11" ry="11" style="stroke: #A80036; stroke-width: 1.0;"/><path d="M49.4731,103.8423 Q48.8921,104.1411 48.2529,104.2905 Q47.6138,104.4399 46.9082,104.4399 Q44.4014,104.4399 43.0815,102.7881 Q41.7617,101.1362 41.7617,98.0151 Q41.7617,94.8857 43.0815,93.2339 Q44.4014,91.582 46.9082,91.582 Q47.6138,91.582 48.2612,91.7314 Q48.9087,91.8809 49.4731,92.1797 L49.4731,94.9023 Q48.8423,94.3213 48.2488,94.0515 Q47.6553,93.7817 47.0244,93.7817 Q45.6797,93.7817 44.9949,94.8484 Q44.3101,95.915 44.3101,98.0151 Q44.3101,100.1069 44.9949,101.1736 Q45.6797,102.2402 47.0244,102.2402 Q47.6553,102.2402 48.2488,101.9705 Q48.8423,101.7007 49.4731,101.1196 Z "/><text fill="#000000" font-family="sans-serif" font-size="12" lengthAdjust="spacingAndGlyphs" textLength="90" x="61" y="102.2344">DefaultMethods</text><line style="stroke: #A80036; stroke-width: 1.5;" x1="33" x2="153" y1="113.6992" y2="113.6992"/><line style="stroke: #A80036; stroke-width: 1.5;" x1="33" x2="153" y1="121.6992" y2="121.6992"/><ellipse cx="43" cy="132.6992" fill="#84BE84" rx="3" ry="3" style="stroke: #038048; stroke-width: 1.0;"/><text fill="#000000" font-family="sans-serif" font-size="11" lengthAdjust="spacingAndGlyphs" textLength="78" x="52" y="136.334">help(methods)</text><ellipse cx="43" cy="145.6543" fill="#84BE84" rx="3" ry="3" style="stroke: #038048; stroke-width: 1.0;"/><text fill="#000000" font-family="sans-serif" font-size="11" lengthAdjust="spacingAndGlyphs" textLength="48" x="52" y="149.2891">version()</text></a><!--MD5=[c8bb7040efe1fd7c5e6494e44dd85687]
class benchmarkstt.api.jsonrpc.MagicMethods--><a href="https://benchmarkstt.readthedocs.io/en/latest/modules/benchmarkstt.api.html#benchmarkstt.api.jsonrpc.MagicMethods" target="_top" title="https://benchmarkstt.readthedocs.io/en/latest/modules/benchmarkstt.api.html#benchmarkstt.api.jsonrpc.MagicMethods" xlink:actuate="onRequest" xlink:href="https://benchmarkstt.readthedocs.io/en/latest/modules/benchmarkstt.api.html#benchmarkstt.api.jsonrpc.MagicMethods" xlink:show="new" xlink:title="https://benchmarkstt.readthedocs.io/en/latest/modules/benchmarkstt.api.html#benchmarkstt.api.jsonrpc.MagicMethods" xlink:type="simple"><rect fill="#FEFECE" filter="url(#f12nqhgkfqlpft)" height="112.7754" id="benchmarkstt.api.jsonrpc.MagicMethods" style="stroke: #A80036; stroke-width: 1.5;" width="179" x="189.5" y="62.1992"/><ellipse cx="233.75" cy="78.1992" fill="#ADD1B2" rx="11" ry="11" style="stroke: #A80036; stroke-width: 1.0;"/><path d="M236.2231,84.3423 Q235.6421,84.6411 235.0029,84.7905 Q234.3638,84.9399 233.6582,84.9399 Q231.1514,84.9399 229.8315,83.2881 Q228.5117,81.6362 228.5117,78.5151 Q228.5117,75.3857 229.8315,73.7339 Q231.1514,72.082 233.6582,72.082 Q234.3638,72.082 235.0112,72.2314 Q235.6587,72.3809 236.2231,72.6797 L236.2231,75.4023 Q235.5923,74.8213 234.9988,74.5515 Q234.4053,74.2817 233.7744,74.2817 Q232.4297,74.2817 231.7449,75.3484 Q231.0601,76.415 231.0601,78.5151 Q231.0601,80.6069 231.7449,81.6736 Q232.4297,82.7402 233.7744,82.7402 Q234.4053,82.7402 234.9988,82.4705 Q235.5923,82.2007 236.2231,81.6196 Z "/><text fill="#000000" font-family="sans-serif" font-size="12" lengthAdjust="spacingAndGlyphs" textLength="82" x="254.25" y="82.7344">MagicMethods</text><line style="stroke: #A80036; stroke-width: 1.5;" x1="190.5" x2="367.5" y1="94.1992" y2="94.1992"/><line style="stroke: #A80036; stroke-width: 1.5;" x1="190.5" x2="367.5" y1="102.1992" y2="102.1992"/><ellipse cx="200.5" cy="113.1992" fill="#84BE84" rx="3" ry="3" style="stroke: #038048; stroke-width: 1.0;"/><text fill="#000000" font-family="sans-serif" font-size="11" lengthAdjust="spacingAndGlyphs" textLength="68" x="209.5" y="116.834">__init__(self)</text><ellipse cx="200.5" cy="126.1543" fill="#84BE84" rx="3" ry="3" style="stroke: #038048; stroke-width: 1.0;"/><text fill="#000000" font-family="sans-serif" font-size="11" lengthAdjust="spacingAndGlyphs" textLength="99" x="209.5" y="129.7891">is_safe_path(path)</text><ellipse cx="200.5" cy="139.1094" fill="#84BE84" rx="3" ry="3" style="stroke: #038048; stroke-width: 1.0;"/><text fill="#000000" font-family="sans-serif" font-size="11" lengthAdjust="spacingAndGlyphs" textLength="131" x="209.5" y="142.7441">load(self, name, module)</text><ellipse cx="200.5" cy="152.0645" fill="#84BE84" rx="3" ry="3" style="stroke: #038048; stroke-width: 1.0;"/><text fill="#000000" font-family="sans-serif" font-size="11" lengthAdjust="spacingAndGlyphs" textLength="153" x="209.5" y="155.6992">register(self, name, callback)</text><ellipse cx="200.5" cy="165.0195" fill="#84BE84" rx="3" ry="3" style="stroke: #038048; stroke-width: 1.0;"/><text fill="#000000" font-family="sans-serif" font-size="11" lengthAdjust="spacingAndGlyphs" textLength="145" x="209.5" y="168.6543">serve(self, config, callback)</text></a><!--MD5=[6470523c0351eec356b65f21af912d4f]
class benchmarkstt.api.jsonrpc.SecurityError--><a href="https://benchmarkstt.readthedocs.io/en/latest/modules/benchmarkstt.api.html#benchmarkstt.api.jsonrpc.SecurityError" target="_top" title="https://benchmarkstt.readthedocs.io/en/latest/modules/benchmarkstt.api.html#benchmarkstt.api.jsonrpc.SecurityError" xlink:actuate="onRequest" xlink:href="https://benchmarkstt.readthedocs.io/en/latest/modules/benchmarkstt.api.html#benchmarkstt.api.jsonrpc.SecurityError" xlink:show="new" xlink:title="https://benchmarkstt.readthedocs.io/en/latest/modules/benchmarkstt.api.html#benchmarkstt.api.jsonrpc.SecurityError" xlink:type="simple"><rect fill="#FEFECE" filter="url(#f12nqhgkfqlpft)" height="48" id="benchmarkstt.api.jsonrpc.SecurityError" style="stroke: #A80036; stroke-width: 1.5;" width="105" x="40.5" y="235.1992"/><ellipse cx="55.5" cy="251.1992" fill="#ADD1B2" rx="11" ry="11" style="stroke: #A80036; stroke-width: 1.0;"/><path d="M57.9731,257.3423 Q57.3921,257.6411 56.7529,257.7905 Q56.1138,257.9399 55.4082,257.9399 Q52.9014,257.9399 51.5815,256.2881 Q50.2617,254.6362 50.2617,251.5151 Q50.2617,248.3857 51.5815,246.7339 Q52.9014,245.082 55.4082,245.082 Q56.1138,245.082 56.7612,245.2314 Q57.4087,245.3809 57.9731,245.6797 L57.9731,248.4023 Q57.3423,247.8213 56.7488,247.5515 Q56.1553,247.2817 55.5244,247.2817 Q54.1797,247.2817 53.4949,248.3484 Q52.8101,249.415 52.8101,251.5151 Q52.8101,253.6069 53.4949,254.6736 Q54.1797,255.7402 55.5244,255.7402 Q56.1553,255.7402 56.7488,255.4705 Q57.3423,255.2007 57.9731,254.6196 Z "/><text fill="#000000" font-family="sans-serif" font-size="12" lengthAdjust="spacingAndGlyphs" textLength="73" x="69.5" y="255.7344">SecurityError</text><line style="stroke: #A80036; stroke-width: 1.5;" x1="41.5" x2="144.5" y1="267.1992" y2="267.1992"/><line style="stroke: #A80036; stroke-width: 1.5;" x1="41.5" x2="144.5" y1="275.1992" y2="275.1992"/></a><!--MD5=[38210c2b313ae7f3f7264e3dc5bb59b6]
link benchmarkstt.api.jsonrpc.DefaultMethods to benchmarkstt.api.jsonrpc.MagicMethods--><!--MD5=[538cb41533b0550692009be83806011f]
link benchmarkstt.api.jsonrpc.DefaultMethods to benchmarkstt.api.jsonrpc.SecurityError--><!--MD5=[65c5a56d102278c91d79d5ad4a258170]
@startuml
title Benchmarkstt.api
		class benchmarkstt.api.jsonrpc.DefaultMethods [[https://benchmarkstt.readthedocs.io/en/latest/modules/benchmarkstt.api.html#benchmarkstt.api.jsonrpc.DefaultMethods]] {
			+help(methods)
			+version()
		}
		class benchmarkstt.api.jsonrpc.MagicMethods [[https://benchmarkstt.readthedocs.io/en/latest/modules/benchmarkstt.api.html#benchmarkstt.api.jsonrpc.MagicMethods]] {
			+__init__(self)
			+is_safe_path(path)
			+load(self, name, module)
			+register(self, name, callback)
			+serve(self, config, callback)
		}
		class benchmarkstt.api.jsonrpc.SecurityError [[https://benchmarkstt.readthedocs.io/en/latest/modules/benchmarkstt.api.html#benchmarkstt.api.jsonrpc.SecurityError]] {
		}


@enduml

PlantUML version 1.2020.15(Sun Jun 28 11:39:45 UTC 2020)
(GPL source distribution)
Java Runtime: OpenJDK Runtime Environment
JVM: OpenJDK 64-Bit Server VM
Default Encoding: UTF-8
Language: en
Country: BE
--></g></svg>