<?xml version="1.0" encoding="UTF-8" standalone="no"?><svg xmlns="http://www.w3.org/2000/svg" xmlns:xlink="http://www.w3.org/1999/xlink" contentScriptType="application/ecmascript" contentStyleType="text/css" height="407px" preserveAspectRatio="none" style="width:745px;height:407px;" version="1.1" viewBox="0 0 745 407" width="745px" zoomAndPan="magnify"><defs><filter height="300%" id="f9hlh5nr017l3" width="300%" x="-1" y="-1"><feGaussianBlur result="blurOut" stdDeviation="2.0"/><feColorMatrix in="blurOut" result="blurOut2" type="matrix" values="0 0 0 0 0 0 0 0 0 0 0 0 0 0 0 0 0 0 .4 0"/><feOffset dx="4.0" dy="4.0" in="blurOut2" result="blurOut3"/><feBlend in="SourceGraphic" in2="blurOut3" mode="normal"/></filter></defs><g><text fill="#000000" font-family="sans-serif" font-size="18" lengthAdjust="spacingAndGlyphs" textLength="170" x="278.5" y="17.4023">Benchmarkstt.input</text><!--MD5=[94de2ef9dde389aecb44d7f232eba8a2]
cluster benchmarkstt.input--><polygon fill="#FFFFFF" filter="url(#f9hlh5nr017l3)" points="326,283.1992,472,283.1992,479,305.6875,482,305.6875,482,395.1992,326,395.1992,326,283.1992" style="stroke: #000000; stroke-width: 1.5;"/><line style="stroke: #000000; stroke-width: 1.5;" x1="326" x2="479" y1="305.6875" y2="305.6875"/><text fill="#000000" font-family="sans-serif" font-size="14" font-weight="bold" lengthAdjust="spacingAndGlyphs" textLength="140" x="330" y="298.7344">benchmarkstt.input</text><!--MD5=[5c7a64d73ca244446f0e70026cf5d0bf]
cluster benchmarkstt.input.core--><polygon fill="#FFFFFF" filter="url(#f9hlh5nr017l3)" points="16,27.1992,195,27.1992,202,49.6875,723,49.6875,723,152.1992,16,152.1992,16,27.1992" style="stroke: #000000; stroke-width: 1.5;"/><line style="stroke: #000000; stroke-width: 1.5;" x1="16" x2="202" y1="49.6875" y2="49.6875"/><text fill="#000000" font-family="sans-serif" font-size="14" font-weight="bold" lengthAdjust="spacingAndGlyphs" textLength="173" x="20" y="42.7344">benchmarkstt.input.core</text><!--MD5=[d1e904a0c11302288bad0868539b156c]
class benchmarkstt.input.Base--><a href="https://benchmarkstt.readthedocs.io/en/latest/modules/benchmarkstt.input.html#benchmarkstt.input.Base" target="_top" title="https://benchmarkstt.readthedocs.io/en/latest/modules/benchmarkstt.input.html#benchmarkstt.input.Base" xlink:actuate="onRequest" xlink:href="https://benchmarkstt.readthedocs.io/en/latest/modules/benchmarkstt.input.html#benchmarkstt.input.Base" xlink:show="new" xlink:title="https://benchmarkstt.readthedocs.io/en/latest/modules/benchmarkstt.input.html#benchmarkstt.input.Base" xlink:type="simple"><rect fill="#FEFECE" filter="url(#f9hlh5nr017l3)" height="60.9551" id="benchmarkstt.input.Base" style="stroke: #A80036; stroke-width: 1.5;" width="95" x="356.5" y="318.1992"/><ellipse cx="387.7" cy="334.1992" fill="#ADD1B2" rx="11" ry="11" style="stroke: #A80036; stroke-width: 1.0;"/><path d="M390.1731,340.3423 Q389.5921,340.6411 388.9529,340.7905 Q388.3138,340.9399 387.6082,340.9399 Q385.1014,340.9399 383.7815,339.2881 Q382.4617,337.6362 382.4617,334.5151 Q382.4617,331.3857 383.7815,329.7339 Q385.1014,328.082 387.6082,328.082 Q388.3138,328.082 388.9612,328.2314 Q389.6087,328.3809 390.1731,328.6797 L390.1731,331.4023 Q389.5423,330.8213 388.9488,330.5515 Q388.3553,330.2817 387.7244,330.2817 Q386.3797,330.2817 385.6949,331.3484 Q385.0101,332.415 385.0101,334.5151 Q385.0101,336.6069 385.6949,337.6736 Q386.3797,338.7402 387.7244,338.7402 Q388.3553,338.7402 388.9488,338.4705 Q389.5423,338.2007 390.1731,337.6196 Z "/><text fill="#000000" font-family="sans-serif" font-size="12" lengthAdjust="spacingAndGlyphs" textLength="27" x="405.3" y="338.7344">Base</text><line style="stroke: #A80036; stroke-width: 1.5;" x1="357.5" x2="450.5" y1="350.1992" y2="350.1992"/><line style="stroke: #A80036; stroke-width: 1.5;" x1="357.5" x2="450.5" y1="358.1992" y2="358.1992"/><ellipse cx="367.5" cy="369.1992" fill="#84BE84" rx="3" ry="3" style="stroke: #038048; stroke-width: 1.0;"/><text fill="#000000" font-family="sans-serif" font-size="11" lengthAdjust="spacingAndGlyphs" textLength="69" x="376.5" y="372.834">__iter__(self)</text></a><!--MD5=[4843f7accda627844ca340f5d1efa37d]
class benchmarkstt.input.core.File--><a href="https://benchmarkstt.readthedocs.io/en/latest/modules/benchmarkstt.input.core.html#benchmarkstt.input.core.File" target="_top" title="https://benchmarkstt.readthedocs.io/en/latest/modules/benchmarkstt.input.core.html#benchmarkstt.input.core.File" xlink:actuate="onRequest" xlink:href="https://benchmarkstt.readthedocs.io/en/latest/modules/benchmarkstt.input.core.html#benchmarkstt.input.core.File" xlink:show="new" xlink:title="https://benchmarkstt.readthedocs.io/en/latest/modules/benchmarkstt.input.core.html#benchmarkstt.input.core.File" xlink:type="simple"><rect fill="#FEFECE" filter="url(#f9hlh5nr017l3)" height="73.9102" id="benchmarkstt.input.core.File" style="stroke: #A80036; stroke-width: 1.5;" width="317" x="32.5" y="62.1992"/><ellipse cx="177.25" cy="78.1992" fill="#ADD1B2" rx="11" ry="11" style="stroke: #A80036; stroke-width: 1.0;"/><path d="M179.7231,84.3423 Q179.1421,84.6411 178.5029,84.7905 Q177.8638,84.9399 177.1582,84.9399 Q174.6514,84.9399 173.3315,83.2881 Q172.0117,81.6362 172.0117,78.5151 Q172.0117,75.3857 173.3315,73.7339 Q174.6514,72.082 177.1582,72.082 Q177.8638,72.082 178.5112,72.2314 Q179.1587,72.3809 179.7231,72.6797 L179.7231,75.4023 Q179.0923,74.8213 178.4988,74.5515 Q177.9053,74.2817 177.2744,74.2817 Q175.9297,74.2817 175.2449,75.3484 Q174.5601,76.415 174.5601,78.5151 Q174.5601,80.6069 175.2449,81.6736 Q175.9297,82.7402 177.2744,82.7402 Q177.9053,82.7402 178.4988,82.4705 Q179.0923,82.2007 179.7231,81.6196 Z "/><text fill="#000000" font-family="sans-serif" font-size="12" lengthAdjust="spacingAndGlyphs" textLength="19" x="197.75" y="82.7344">File</text><line style="stroke: #A80036; stroke-width: 1.5;" x1="33.5" x2="348.5" y1="94.1992" y2="94.1992"/><line style="stroke: #A80036; stroke-width: 1.5;" x1="33.5" x2="348.5" y1="102.1992" y2="102.1992"/><ellipse cx="43.5" cy="113.1992" fill="#84BE84" rx="3" ry="3" style="stroke: #038048; stroke-width: 1.0;"/><text fill="#000000" font-family="sans-serif" font-size="11" lengthAdjust="spacingAndGlyphs" textLength="291" x="52.5" y="116.834">__init__(self, file, input_type=None, normalizer=None)</text><ellipse cx="43.5" cy="126.1543" fill="#84BE84" rx="3" ry="3" style="stroke: #038048; stroke-width: 1.0;"/><text fill="#000000" font-family="sans-serif" font-size="11" lengthAdjust="spacingAndGlyphs" textLength="69" x="52.5" y="129.7891">__iter__(self)</text></a><!--MD5=[3edd34d35203ceb4dd4fa63a3b0c665d]
class benchmarkstt.input.core.PlainText--><a href="https://benchmarkstt.readthedocs.io/en/latest/modules/benchmarkstt.input.core.html#benchmarkstt.input.core.PlainText" target="_top" title="https://benchmarkstt.readthedocs.io/en/latest/modules/benchmarkstt.input.core.html#benchmarkstt.input.core.PlainText" xlink:actuate="onRequest" xlink:href="https://benchmarkstt.readthedocs.io/en/latest/modules/benchmarkstt.input.core.html#benchmarkstt.input.core.PlainText" xlink:show="new" xlink:title="https://benchmarkstt.readthedocs.io/en/latest/modules/benchmarkstt.input.core.html#benchmarkstt.input.core.PlainText" xlink:type="simple"><rect fill="#FEFECE" filter="url(#f9hlh5nr017l3)" height="73.9102" id="benchmarkstt.input.core.PlainText" style="stroke: #A80036; stroke-width: 1.5;" width="322" x="385" y="62.1992"/><ellipse cx="515.25" cy="78.1992" fill="#ADD1B2" rx="11" ry="11" style="stroke: #A80036; stroke-width: 1.0;"/><path d="M517.7231,84.3423 Q517.1421,84.6411 516.5029,84.7905 Q515.8638,84.9399 515.1582,84.9399 Q512.6514,84.9399 511.3315,83.2881 Q510.0117,81.6362 510.0117,78.5151 Q510.0117,75.3857 511.3315,73.7339 Q512.6514,72.082 515.1582,72.082 Q515.8638,72.082 516.5112,72.2314 Q517.1587,72.3809 517.7231,72.6797 L517.7231,75.4023 Q517.0923,74.8213 516.4988,74.5515 Q515.9053,74.2817 515.2744,74.2817 Q513.9297,74.2817 513.2449,75.3484 Q512.5601,76.415 512.5601,78.5151 Q512.5601,80.6069 513.2449,81.6736 Q513.9297,82.7402 515.2744,82.7402 Q515.9053,82.7402 516.4988,82.4705 Q517.0923,82.2007 517.7231,81.6196 Z "/><text fill="#000000" font-family="sans-serif" font-size="12" lengthAdjust="spacingAndGlyphs" textLength="53" x="535.75" y="82.7344">PlainText</text><line style="stroke: #A80036; stroke-width: 1.5;" x1="386" x2="706" y1="94.1992" y2="94.1992"/><line style="stroke: #A80036; stroke-width: 1.5;" x1="386" x2="706" y1="102.1992" y2="102.1992"/><ellipse cx="396" cy="113.1992" fill="#84BE84" rx="3" ry="3" style="stroke: #038048; stroke-width: 1.0;"/><text fill="#000000" font-family="sans-serif" font-size="11" lengthAdjust="spacingAndGlyphs" textLength="296" x="405" y="116.834">__init__(self, text, segmenter=None, normalizer=None)</text><ellipse cx="396" cy="126.1543" fill="#84BE84" rx="3" ry="3" style="stroke: #038048; stroke-width: 1.0;"/><text fill="#000000" font-family="sans-serif" font-size="11" lengthAdjust="spacingAndGlyphs" textLength="69" x="405" y="129.7891">__iter__(self)</text></a><!--MD5=[771004f418eb3c217d1e55052c84e8c1]
link benchmarkstt.input.core.File to benchmarkstt.input.Base--><path d="M222.2,136.4492 C260.11,180.5092 324.1,254.8492 365.16,302.5692 " fill="none" id="benchmarkstt.input.core.File-&gt;benchmarkstt.input.Base" style="stroke: #A80036; stroke-width: 1.0;"/><polygon fill="none" points="370.66,298.2292,378.4,317.9492,360.05,307.3592,370.66,298.2292" style="stroke: #A80036; stroke-width: 1.0;"/><!--MD5=[4e4728c8a7b19202f6baadb11a4abb1d]
link benchmarkstt.input.core.PlainText to benchmarkstt.input.Base--><path d="M525.2,136.4492 C500.31,179.8392 458.57,252.5892 431.15,300.3692 " fill="none" id="benchmarkstt.input.core.PlainText-&gt;benchmarkstt.input.Base" style="stroke: #A80036; stroke-width: 1.0;"/><polygon fill="none" points="437.09,304.0892,421.07,317.9492,424.95,297.1192,437.09,304.0892" style="stroke: #A80036; stroke-width: 1.0;"/><!--MD5=[d424c0c959b4f2c6f026275847a04793]
@startuml
title Benchmarkstt.input


class benchmarkstt.input.Base [[https://benchmarkstt.readthedocs.io/en/latest/modules/benchmarkstt.input.html#benchmarkstt.input.Base]] {
	+__iter__(self)
}

class benchmarkstt.input.core.File [[https://benchmarkstt.readthedocs.io/en/latest/modules/benchmarkstt.input.core.html#benchmarkstt.input.core.File]] {
	+__init__(self, file, input_type=None, normalizer=None)
	+__iter__(self)
}

class benchmarkstt.input.core.PlainText [[https://benchmarkstt.readthedocs.io/en/latest/modules/benchmarkstt.input.core.html#benchmarkstt.input.core.PlainText]] {
	+__init__(self, text, segmenter=None, normalizer=None)
	+__iter__(self)
}

benchmarkstt.input.core.File - - - -|> benchmarkstt.input.Base
benchmarkstt.input.core.PlainText - - - -|> benchmarkstt.input.Base
@enduml

PlantUML version 1.2020.15(Sun Jun 28 13:39:45 CEST 2020)
(GPL source distribution)
Java Runtime: OpenJDK Runtime Environment
JVM: OpenJDK 64-Bit Server VM
Default Encoding: UTF-8
Language: en
Country: BE
--></g></svg>