<?xml version="1.0" encoding="UTF-8" standalone="no"?><svg xmlns="http://www.w3.org/2000/svg" xmlns:xlink="http://www.w3.org/1999/xlink" contentScriptType="application/ecmascript" contentStyleType="text/css" height="302px" preserveAspectRatio="none" style="width:774px;height:302px;" version="1.1" viewBox="0 0 774 302" width="774px" zoomAndPan="magnify"><defs><filter height="300%" id="f16ox4vb483jeg" width="300%" x="-1" y="-1"><feGaussianBlur result="blurOut" stdDeviation="2.0"/><feColorMatrix in="blurOut" result="blurOut2" type="matrix" values="0 0 0 0 0 0 0 0 0 0 0 0 0 0 0 0 0 0 .4 0"/><feOffset dx="4.0" dy="4.0" in="blurOut2" result="blurOut3"/><feBlend in="SourceGraphic" in2="blurOut3" mode="normal"/></filter></defs><g><text fill="#000000" font-family="Helvetica" font-size="18" lengthAdjust="spacingAndGlyphs" textLength="137" x="309.75" y="13.8604">benchmarkstt.api</text><!--MD5=[be3e0801209626b11d7e8a88e82d4cf3]
cluster benchmarkstt.api.jsonrpc--><rect fill="#FFFFFF" filter="url(#f16ox4vb483jeg)" height="260" style="stroke: #000000; stroke-width: 1.5;" width="353" x="7" y="25"/><path d="M192,26 L192,32 L182,42 L7,42 " fill="none" style="stroke: #000000; stroke-width: 1.5;"/><text fill="#000000" font-family="Helvetica" font-size="14" font-weight="bold" lengthAdjust="spacingAndGlyphs" textLength="175" x="10" y="36.7803">benchmarkstt.api.jsonrpc</text><rect fill="#FFFFFF" filter="url(#f16ox4vb483jeg)" height="48" style="stroke: #000000; stroke-width: 1.5;" width="139" x="378.5" y="85.5"/><path d="M507.5,86.5 L507.5,92.5 L497.5,102.5 L378.5,102.5 " fill="none" style="stroke: #000000; stroke-width: 1.5;"/><text fill="#000000" font-family="Helvetica" font-size="14" font-weight="bold" lengthAdjust="spacingAndGlyphs" textLength="119" x="381.5" y="97.2803">benchmarkstt.api</text><!--MD5=[a3634c026b9e43f971e19b80aea52223]
class benchmarkstt.api.jsonrpc.DefaultMethods--><a href="https://benchmarkstt.readthedocs.io/en/latest/modules/benchmarkstt.api.jsonrpc.html#benchmarkstt.api.jsonrpc.DefaultMethods" target="_top" title="https://benchmarkstt.readthedocs.io/en/latest/modules/benchmarkstt.api.jsonrpc.html#benchmarkstt.api.jsonrpc.DefaultMethods" xlink:actuate="onRequest" xlink:href="https://benchmarkstt.readthedocs.io/en/latest/modules/benchmarkstt.api.jsonrpc.html#benchmarkstt.api.jsonrpc.DefaultMethods" xlink:show="new" xlink:title="https://benchmarkstt.readthedocs.io/en/latest/modules/benchmarkstt.api.jsonrpc.html#benchmarkstt.api.jsonrpc.DefaultMethods" xlink:type="simple"><rect fill="#FFFFFF" filter="url(#f16ox4vb483jeg)" height="70" id="benchmarkstt.api.jsonrpc.DefaultMethods" style="stroke: #000000; stroke-width: 1.0;" width="118" x="23" y="74.5"/><ellipse cx="38" cy="90.5" fill="#C2C2C2" rx="11" ry="11" style="stroke: #000000; stroke-width: 1.0;"/><path d="M40.4731,96.6431 Q39.8921,96.9419 39.2529,97.0913 Q38.6138,97.2407 37.9082,97.2407 Q35.4014,97.2407 34.0815,95.5889 Q32.7617,93.937 32.7617,90.8159 Q32.7617,87.6865 34.0815,86.0347 Q35.4014,84.3828 37.9082,84.3828 Q38.6138,84.3828 39.2612,84.5322 Q39.9087,84.6816 40.4731,84.9805 L40.4731,87.7031 Q39.8423,87.1221 39.2488,86.8523 Q38.6553,86.5825 38.0244,86.5825 Q36.6797,86.5825 35.9949,87.6492 Q35.3101,88.7158 35.3101,90.8159 Q35.3101,92.9077 35.9949,93.9744 Q36.6797,95.041 38.0244,95.041 Q38.6553,95.041 39.2488,94.7712 Q39.8423,94.5015 40.4731,93.9204 Z "/><text fill="#000000" font-family="Helvetica" font-size="12" lengthAdjust="spacingAndGlyphs" textLength="86" x="52" y="93.7402">DefaultMethods</text><line style="stroke: #000000; stroke-width: 1.0;" x1="24" x2="140" y1="106.5" y2="106.5"/><line style="stroke: #000000; stroke-width: 1.0;" x1="24" x2="140" y1="114.5" y2="114.5"/><ellipse cx="34" cy="125.5" fill="#A6A6A6" rx="3" ry="3" style="stroke: #545454; stroke-width: 1.0;"/><text fill="#000000" font-family="Helvetica" font-size="11" lengthAdjust="spacingAndGlyphs" textLength="70" x="43" y="126.9702">help(methods)</text><ellipse cx="34" cy="136.5" fill="#A6A6A6" rx="3" ry="3" style="stroke: #545454; stroke-width: 1.0;"/><text fill="#000000" font-family="Helvetica" font-size="11" lengthAdjust="spacingAndGlyphs" textLength="44" x="43" y="137.9702">version()</text></a><!--MD5=[c8bb7040efe1fd7c5e6494e44dd85687]
class benchmarkstt.api.jsonrpc.MagicMethods--><a href="https://benchmarkstt.readthedocs.io/en/latest/modules/benchmarkstt.api.jsonrpc.html#benchmarkstt.api.jsonrpc.MagicMethods" target="_top" title="https://benchmarkstt.readthedocs.io/en/latest/modules/benchmarkstt.api.jsonrpc.html#benchmarkstt.api.jsonrpc.MagicMethods" xlink:actuate="onRequest" xlink:href="https://benchmarkstt.readthedocs.io/en/latest/modules/benchmarkstt.api.jsonrpc.html#benchmarkstt.api.jsonrpc.MagicMethods" xlink:show="new" xlink:title="https://benchmarkstt.readthedocs.io/en/latest/modules/benchmarkstt.api.jsonrpc.html#benchmarkstt.api.jsonrpc.MagicMethods" xlink:type="simple"><rect fill="#FFFFFF" filter="url(#f16ox4vb483jeg)" height="103" id="benchmarkstt.api.jsonrpc.MagicMethods" style="stroke: #000000; stroke-width: 1.0;" width="167" x="176.5" y="58"/><ellipse cx="216.25" cy="74" fill="#C2C2C2" rx="11" ry="11" style="stroke: #000000; stroke-width: 1.0;"/><path d="M218.7231,80.1431 Q218.1421,80.4419 217.5029,80.5913 Q216.8638,80.7407 216.1582,80.7407 Q213.6514,80.7407 212.3315,79.0889 Q211.0117,77.437 211.0117,74.3159 Q211.0117,71.1865 212.3315,69.5347 Q213.6514,67.8828 216.1582,67.8828 Q216.8638,67.8828 217.5112,68.0322 Q218.1587,68.1816 218.7231,68.4805 L218.7231,71.2031 Q218.0923,70.6221 217.4988,70.3523 Q216.9053,70.0825 216.2744,70.0825 Q214.9297,70.0825 214.2449,71.1492 Q213.5601,72.2158 213.5601,74.3159 Q213.5601,76.4077 214.2449,77.4744 Q214.9297,78.541 216.2744,78.541 Q216.9053,78.541 217.4988,78.2712 Q218.0923,78.0015 218.7231,77.4204 Z "/><text fill="#000000" font-family="Helvetica" font-size="12" lengthAdjust="spacingAndGlyphs" textLength="80" x="235.75" y="77.2402">MagicMethods</text><line style="stroke: #000000; stroke-width: 1.0;" x1="177.5" x2="342.5" y1="90" y2="90"/><line style="stroke: #000000; stroke-width: 1.0;" x1="177.5" x2="342.5" y1="98" y2="98"/><ellipse cx="187.5" cy="109" fill="#A6A6A6" rx="3" ry="3" style="stroke: #545454; stroke-width: 1.0;"/><text fill="#000000" font-family="Helvetica" font-size="11" lengthAdjust="spacingAndGlyphs" textLength="62" x="196.5" y="110.4702">__init__(self)</text><ellipse cx="187.5" cy="120" fill="#A6A6A6" rx="3" ry="3" style="stroke: #545454; stroke-width: 1.0;"/><text fill="#000000" font-family="Helvetica" font-size="11" lengthAdjust="spacingAndGlyphs" textLength="91" x="196.5" y="121.4702">is_safe_path(path)</text><ellipse cx="187.5" cy="131" fill="#A6A6A6" rx="3" ry="3" style="stroke: #545454; stroke-width: 1.0;"/><text fill="#000000" font-family="Helvetica" font-size="11" lengthAdjust="spacingAndGlyphs" textLength="119" x="196.5" y="132.4702">load(self, name, module)</text><ellipse cx="187.5" cy="142" fill="#A6A6A6" rx="3" ry="3" style="stroke: #545454; stroke-width: 1.0;"/><text fill="#000000" font-family="Helvetica" font-size="11" lengthAdjust="spacingAndGlyphs" textLength="141" x="196.5" y="143.4702">register(self, name, callback)</text><ellipse cx="187.5" cy="153" fill="#A6A6A6" rx="3" ry="3" style="stroke: #545454; stroke-width: 1.0;"/><text fill="#000000" font-family="Helvetica" font-size="11" lengthAdjust="spacingAndGlyphs" textLength="134" x="196.5" y="154.4702">serve(self, config, callback)</text></a><!--MD5=[6470523c0351eec356b65f21af912d4f]
class benchmarkstt.api.jsonrpc.SecurityError--><a href="https://benchmarkstt.readthedocs.io/en/latest/modules/benchmarkstt.api.jsonrpc.html#benchmarkstt.api.jsonrpc.SecurityError" target="_top" title="https://benchmarkstt.readthedocs.io/en/latest/modules/benchmarkstt.api.jsonrpc.html#benchmarkstt.api.jsonrpc.SecurityError" xlink:actuate="onRequest" xlink:href="https://benchmarkstt.readthedocs.io/en/latest/modules/benchmarkstt.api.jsonrpc.html#benchmarkstt.api.jsonrpc.SecurityError" xlink:show="new" xlink:title="https://benchmarkstt.readthedocs.io/en/latest/modules/benchmarkstt.api.jsonrpc.html#benchmarkstt.api.jsonrpc.SecurityError" xlink:type="simple"><rect fill="#FFFFFF" filter="url(#f16ox4vb483jeg)" height="48" id="benchmarkstt.api.jsonrpc.SecurityError" style="stroke: #000000; stroke-width: 1.0;" width="103" x="30.5" y="221"/><ellipse cx="45.5" cy="237" fill="#C2C2C2" rx="11" ry="11" style="stroke: #000000; stroke-width: 1.0;"/><path d="M47.9731,243.1431 Q47.3921,243.4419 46.7529,243.5913 Q46.1138,243.7407 45.4082,243.7407 Q42.9014,243.7407 41.5815,242.0889 Q40.2617,240.437 40.2617,237.3159 Q40.2617,234.1865 41.5815,232.5347 Q42.9014,230.8828 45.4082,230.8828 Q46.1138,230.8828 46.7612,231.0322 Q47.4087,231.1816 47.9731,231.4805 L47.9731,234.2031 Q47.3423,233.6221 46.7488,233.3523 Q46.1553,233.0825 45.5244,233.0825 Q44.1797,233.0825 43.4949,234.1492 Q42.8101,235.2158 42.8101,237.3159 Q42.8101,239.4077 43.4949,240.4744 Q44.1797,241.541 45.5244,241.541 Q46.1553,241.541 46.7488,241.2712 Q47.3423,241.0015 47.9731,240.4204 Z "/><text fill="#000000" font-family="Helvetica" font-size="12" lengthAdjust="spacingAndGlyphs" textLength="71" x="59.5" y="240.2402">SecurityError</text><line style="stroke: #000000; stroke-width: 1.0;" x1="31.5" x2="132.5" y1="253" y2="253"/><line style="stroke: #000000; stroke-width: 1.0;" x1="31.5" x2="132.5" y1="261" y2="261"/></a><rect fill="#FFFFFF" filter="url(#f16ox4vb483jeg)" height="48" style="stroke: #000000; stroke-width: 1.5;" width="205" x="552.5" y="85.5"/><path d="M747.5,86.5 L747.5,92.5 L737.5,102.5 L552.5,102.5 " fill="none" style="stroke: #000000; stroke-width: 1.5;"/><text fill="#000000" font-family="Helvetica" font-size="14" font-weight="bold" lengthAdjust="spacingAndGlyphs" textLength="185" x="555.5" y="97.2803">benchmarkstt.api.gunicorn</text><!--MD5=[38210c2b313ae7f3f7264e3dc5bb59b6]
link benchmarkstt.api.jsonrpc.DefaultMethods to benchmarkstt.api.jsonrpc.MagicMethods--><!--MD5=[538cb41533b0550692009be83806011f]
link benchmarkstt.api.jsonrpc.DefaultMethods to benchmarkstt.api.jsonrpc.SecurityError--><!--MD5=[0bcbc9c2e83efa2b608c8a0fe227f353]
@startuml

title benchmarkstt.api

skinparam packageStyle Frame
!includeurl https://raw.githubusercontent.com/matthewjosephtaylor/plantuml-style/master/style.pu
package benchmarkstt.api {
}

package benchmarkstt.api {
}

package benchmarkstt.api.jsonrpc {

	class benchmarkstt.api.jsonrpc.DefaultMethods [[https://benchmarkstt.readthedocs.io/en/latest/modules/benchmarkstt.api.jsonrpc.html#benchmarkstt.api.jsonrpc.DefaultMethods]] {
		+help(methods)
		+version()
	}


	class benchmarkstt.api.jsonrpc.MagicMethods [[https://benchmarkstt.readthedocs.io/en/latest/modules/benchmarkstt.api.jsonrpc.html#benchmarkstt.api.jsonrpc.MagicMethods]] {
		+__init__(self)
		+is_safe_path(path)
		+load(self, name, module)
		+register(self, name, callback)
		+serve(self, config, callback)
	}




	class benchmarkstt.api.jsonrpc.SecurityError [[https://benchmarkstt.readthedocs.io/en/latest/modules/benchmarkstt.api.jsonrpc.html#benchmarkstt.api.jsonrpc.SecurityError]] {
	}


}

package benchmarkstt.api.gunicorn {
}




@enduml

@startuml

title benchmarkstt.api

skinparam packageStyle Frame

skinparam defaultFontName  Helvetica
skinparam sequenceMessageAlign center
skinparam monochrome true

skinparam activity {
	ArrowColor Black
	BackgroundColor White
	BorderColor Black
	BorderThickness 1
}

skinparam actor {
	BackgroundColor White
	BorderColor Black
}

skinparam usecase {
	ArrowColor Black
	BackgroundColor White
	BorderColor Black
	BorderThickness 1
}

skinparam class {
	ArrowColor Black
	BackgroundColor White
	BorderColor Black
	BorderThickness 1
}


skinparam object {
	ArrowColor Black
	BackgroundColor White
	BorderColor Black
}

skinparam package {
	BackgroundColor White
	BorderColor Black
}


skinparam component {
	BackgroundColor White
	InterfaceBackgroundColor White
	BorderColor Black
	InterfaceBorderColor Black
}

skinparam note {
	BackgroundColor White
	BorderColor Black
}

skinparam state {
	ArrowColor Black
	BackgroundColor White
	BorderColor Black
}

skinparam sequence {
	ArrowColor Black
	BackgroundColor White
	ParticipantBackgroundColor White
	BorderColor Black
	LifeLineBorderColor Black
	ParticipantBorderColor Black
	BoxLineColor Black
}

skinparam interface {
	BackgroundColor White
	BorderColor Black
}
package benchmarkstt.api {
}

package benchmarkstt.api {
}

package benchmarkstt.api.jsonrpc {

	class benchmarkstt.api.jsonrpc.DefaultMethods [[https://benchmarkstt.readthedocs.io/en/latest/modules/benchmarkstt.api.jsonrpc.html#benchmarkstt.api.jsonrpc.DefaultMethods]] {
		+help(methods)
		+version()
	}


	class benchmarkstt.api.jsonrpc.MagicMethods [[https://benchmarkstt.readthedocs.io/en/latest/modules/benchmarkstt.api.jsonrpc.html#benchmarkstt.api.jsonrpc.MagicMethods]] {
		+__init__(self)
		+is_safe_path(path)
		+load(self, name, module)
		+register(self, name, callback)
		+serve(self, config, callback)
	}




	class benchmarkstt.api.jsonrpc.SecurityError [[https://benchmarkstt.readthedocs.io/en/latest/modules/benchmarkstt.api.jsonrpc.html#benchmarkstt.api.jsonrpc.SecurityError]] {
	}


}

package benchmarkstt.api.gunicorn {
}




@enduml

PlantUML version 1.2020.15(Sun Jun 28 13:39:45 CEST 2020)
(GPL source distribution)
Java Runtime: OpenJDK Runtime Environment
JVM: OpenJDK 64-Bit Server VM
Default Encoding: UTF-8
Language: en
Country: BE
--></g></svg>