<?xml version="1.0" encoding="UTF-8" standalone="no"?><svg xmlns="http://www.w3.org/2000/svg" xmlns:xlink="http://www.w3.org/1999/xlink" contentScriptType="application/ecmascript" contentStyleType="text/css" height="910px" preserveAspectRatio="none" style="width:1438px;height:910px;" version="1.1" viewBox="0 0 1438 910" width="1438px" zoomAndPan="magnify"><defs><filter height="300%" id="f1sf3nkjssbxom" width="300%" x="-1" y="-1"><feGaussianBlur result="blurOut" stdDeviation="2.0"/><feColorMatrix in="blurOut" result="blurOut2" type="matrix" values="0 0 0 0 0 0 0 0 0 0 0 0 0 0 0 0 0 0 .4 0"/><feOffset dx="4.0" dy="4.0" in="blurOut2" result="blurOut3"/><feBlend in="SourceGraphic" in2="blurOut3" mode="normal"/></filter></defs><g><text fill="#000000" font-family="sans-serif" font-size="18" lengthAdjust="spacingAndGlyphs" textLength="155" x="632.5" y="17.4023">Benchmarkstt.diff</text><!--MD5=[72b54bae2fb354191b48b6bdd2cdddb6]
cluster benchmarkstt.diff.formatter--><polygon fill="#FFFFFF" filter="url(#f1sf3nkjssbxom)" points="16,27.1992,222,27.1992,229,49.6875,1110,49.6875,1110,898.1992,16,898.1992,16,27.1992" style="stroke: #000000; stroke-width: 1.5;"/><line style="stroke: #000000; stroke-width: 1.5;" x1="16" x2="229" y1="49.6875" y2="49.6875"/><text fill="#000000" font-family="sans-serif" font-size="14" font-weight="bold" lengthAdjust="spacingAndGlyphs" textLength="200" x="20" y="42.7344">benchmarkstt.diff.formatter</text><!--MD5=[b21609c0e4e09564ea14466d1d899cfe]
cluster benchmarkstt.diff--><polygon fill="#FFFFFF" filter="url(#f1sf3nkjssbxom)" points="1184,40.1992,1318,40.1992,1325,62.6875,1366,62.6875,1366,165.1992,1184,165.1992,1184,40.1992" style="stroke: #000000; stroke-width: 1.5;"/><line style="stroke: #000000; stroke-width: 1.5;" x1="1184" x2="1325" y1="62.6875" y2="62.6875"/><text fill="#000000" font-family="sans-serif" font-size="14" font-weight="bold" lengthAdjust="spacingAndGlyphs" textLength="128" x="1188" y="55.7344">benchmarkstt.diff</text><!--MD5=[09ed425bc4f616bbad3d6f8b00541a65]
cluster benchmarkstt.diff.core--><polygon fill="#FFFFFF" filter="url(#f1sf3nkjssbxom)" points="1134,309.1992,1301,309.1992,1308,331.6875,1416,331.6875,1416,551.1992,1134,551.1992,1134,309.1992" style="stroke: #000000; stroke-width: 1.5;"/><line style="stroke: #000000; stroke-width: 1.5;" x1="1134" x2="1308" y1="331.6875" y2="331.6875"/><text fill="#000000" font-family="sans-serif" font-size="14" font-weight="bold" lengthAdjust="spacingAndGlyphs" textLength="161" x="1138" y="324.7344">benchmarkstt.diff.core</text><!--MD5=[3c662193fe25a144b7239b40297cb0df]
class benchmarkstt.diff.formatter.CLIDiffDialect--><a href="https://benchmarkstt.readthedocs.io/en/latest/modules/benchmarkstt.diff.formatter.html#benchmarkstt.diff.formatter.CLIDiffDialect" target="_top" title="https://benchmarkstt.readthedocs.io/en/latest/modules/benchmarkstt.diff.formatter.html#benchmarkstt.diff.formatter.CLIDiffDialect" xlink:actuate="onRequest" xlink:href="https://benchmarkstt.readthedocs.io/en/latest/modules/benchmarkstt.diff.formatter.html#benchmarkstt.diff.formatter.CLIDiffDialect" xlink:show="new" xlink:title="https://benchmarkstt.readthedocs.io/en/latest/modules/benchmarkstt.diff.formatter.html#benchmarkstt.diff.formatter.CLIDiffDialect" xlink:type="simple"><rect fill="#FEFECE" filter="url(#f1sf3nkjssbxom)" height="112.7754" id="benchmarkstt.diff.formatter.CLIDiffDialect" style="stroke: #A80036; stroke-width: 1.5;" width="239" x="32.5" y="383.1992"/><ellipse cx="109.75" cy="399.1992" fill="#ADD1B2" rx="11" ry="11" style="stroke: #A80036; stroke-width: 1.0;"/><path d="M112.2231,405.3423 Q111.6421,405.6411 111.0029,405.7905 Q110.3638,405.9399 109.6582,405.9399 Q107.1514,405.9399 105.8315,404.2881 Q104.5117,402.6362 104.5117,399.5151 Q104.5117,396.3857 105.8315,394.7339 Q107.1514,393.082 109.6582,393.082 Q110.3638,393.082 111.0112,393.2314 Q111.6587,393.3809 112.2231,393.6797 L112.2231,396.4023 Q111.5923,395.8213 110.9988,395.5515 Q110.4053,395.2817 109.7744,395.2817 Q108.4297,395.2817 107.7449,396.3484 Q107.0601,397.415 107.0601,399.5151 Q107.0601,401.6069 107.7449,402.6736 Q108.4297,403.7402 109.7744,403.7402 Q110.4053,403.7402 110.9988,403.4705 Q111.5923,403.2007 112.2231,402.6196 Z "/><text fill="#000000" font-family="sans-serif" font-size="12" lengthAdjust="spacingAndGlyphs" textLength="76" x="130.25" y="403.7344">CLIDiffDialect</text><line style="stroke: #A80036; stroke-width: 1.5;" x1="33.5" x2="270.5" y1="415.1992" y2="415.1992"/><line style="stroke: #A80036; stroke-width: 1.5;" x1="33.5" x2="270.5" y1="423.1992" y2="423.1992"/><ellipse cx="43.5" cy="434.1992" fill="#84BE84" rx="3" ry="3" style="stroke: #038048; stroke-width: 1.0;"/><text fill="#000000" font-family="sans-serif" font-size="11" lengthAdjust="spacingAndGlyphs" textLength="79" x="52.5" y="437.834">__enter__(self)</text><ellipse cx="43.5" cy="447.1543" fill="#84BE84" rx="3" ry="3" style="stroke: #038048; stroke-width: 1.0;"/><text fill="#000000" font-family="sans-serif" font-size="11" lengthAdjust="spacingAndGlyphs" textLength="213" x="52.5" y="450.7891">__exit__(self, exc_type, exc_val, exc_tb)</text><ellipse cx="43.5" cy="460.1094" fill="#84BE84" rx="3" ry="3" style="stroke: #038048; stroke-width: 1.0;"/><text fill="#000000" font-family="sans-serif" font-size="11" lengthAdjust="spacingAndGlyphs" textLength="197" x="52.5" y="463.7441">__init__(self, show_color_key=None)</text><ellipse cx="43.5" cy="473.0645" fill="#84BE84" rx="3" ry="3" style="stroke: #038048; stroke-width: 1.0;"/><text fill="#000000" font-family="sans-serif" font-size="11" lengthAdjust="spacingAndGlyphs" textLength="63" x="52.5" y="476.6992">output(self)</text><ellipse cx="43.5" cy="486.0195" fill="#84BE84" rx="3" ry="3" style="stroke: #038048; stroke-width: 1.0;"/><text fill="#000000" font-family="sans-serif" font-size="11" lengthAdjust="spacingAndGlyphs" textLength="96" x="52.5" y="489.6543">preprocessor(txt)</text></a><!--MD5=[df29a61f45d19c4e6d0ce3d05bdaff27]
class benchmarkstt.diff.formatter.Dialect--><a href="https://benchmarkstt.readthedocs.io/en/latest/modules/benchmarkstt.diff.formatter.html#benchmarkstt.diff.formatter.Dialect" target="_top" title="https://benchmarkstt.readthedocs.io/en/latest/modules/benchmarkstt.diff.formatter.html#benchmarkstt.diff.formatter.Dialect" xlink:actuate="onRequest" xlink:href="https://benchmarkstt.readthedocs.io/en/latest/modules/benchmarkstt.diff.formatter.html#benchmarkstt.diff.formatter.Dialect" xlink:show="new" xlink:title="https://benchmarkstt.readthedocs.io/en/latest/modules/benchmarkstt.diff.formatter.html#benchmarkstt.diff.formatter.Dialect" xlink:type="simple"><rect fill="#FEFECE" filter="url(#f1sf3nkjssbxom)" height="99.8203" id="benchmarkstt.diff.formatter.Dialect" style="stroke: #A80036; stroke-width: 1.5;" width="239" x="527.5" y="62.1992"/><ellipse cx="623.25" cy="78.1992" fill="#ADD1B2" rx="11" ry="11" style="stroke: #A80036; stroke-width: 1.0;"/><path d="M625.7231,84.3423 Q625.1421,84.6411 624.5029,84.7905 Q623.8638,84.9399 623.1582,84.9399 Q620.6514,84.9399 619.3315,83.2881 Q618.0117,81.6362 618.0117,78.5151 Q618.0117,75.3857 619.3315,73.7339 Q620.6514,72.082 623.1582,72.082 Q623.8638,72.082 624.5112,72.2314 Q625.1587,72.3809 625.7231,72.6797 L625.7231,75.4023 Q625.0923,74.8213 624.4988,74.5515 Q623.9053,74.2817 623.2744,74.2817 Q621.9297,74.2817 621.2449,75.3484 Q620.5601,76.415 620.5601,78.5151 Q620.5601,80.6069 621.2449,81.6736 Q621.9297,82.7402 623.2744,82.7402 Q623.9053,82.7402 624.4988,82.4705 Q625.0923,82.2007 625.7231,81.6196 Z "/><text fill="#000000" font-family="sans-serif" font-size="12" lengthAdjust="spacingAndGlyphs" textLength="39" x="643.75" y="82.7344">Dialect</text><line style="stroke: #A80036; stroke-width: 1.5;" x1="528.5" x2="765.5" y1="94.1992" y2="94.1992"/><line style="stroke: #A80036; stroke-width: 1.5;" x1="528.5" x2="765.5" y1="102.1992" y2="102.1992"/><ellipse cx="538.5" cy="113.1992" fill="#84BE84" rx="3" ry="3" style="stroke: #038048; stroke-width: 1.0;"/><text fill="#000000" font-family="sans-serif" font-size="11" lengthAdjust="spacingAndGlyphs" textLength="79" x="547.5" y="116.834">__enter__(self)</text><ellipse cx="538.5" cy="126.1543" fill="#84BE84" rx="3" ry="3" style="stroke: #038048; stroke-width: 1.0;"/><text fill="#000000" font-family="sans-serif" font-size="11" lengthAdjust="spacingAndGlyphs" textLength="213" x="547.5" y="129.7891">__exit__(self, exc_type, exc_val, exc_tb)</text><ellipse cx="538.5" cy="139.1094" fill="#84BE84" rx="3" ry="3" style="stroke: #038048; stroke-width: 1.0;"/><text fill="#000000" font-family="sans-serif" font-size="11" lengthAdjust="spacingAndGlyphs" textLength="68" x="547.5" y="142.7441">__init__(self)</text><ellipse cx="538.5" cy="152.0645" fill="#84BE84" rx="3" ry="3" style="stroke: #038048; stroke-width: 1.0;"/><text fill="#000000" font-family="sans-serif" font-size="11" lengthAdjust="spacingAndGlyphs" textLength="63" x="547.5" y="155.6992">output(self)</text></a><!--MD5=[3cef3a3f66db63f58bdcdbc71fd62980]
class benchmarkstt.diff.formatter.DiffFormatter--><a href="https://benchmarkstt.readthedocs.io/en/latest/modules/benchmarkstt.diff.formatter.html#benchmarkstt.diff.formatter.DiffFormatter" target="_top" title="https://benchmarkstt.readthedocs.io/en/latest/modules/benchmarkstt.diff.formatter.html#benchmarkstt.diff.formatter.DiffFormatter" xlink:actuate="onRequest" xlink:href="https://benchmarkstt.readthedocs.io/en/latest/modules/benchmarkstt.diff.formatter.html#benchmarkstt.diff.formatter.DiffFormatter" xlink:show="new" xlink:title="https://benchmarkstt.readthedocs.io/en/latest/modules/benchmarkstt.diff.formatter.html#benchmarkstt.diff.formatter.DiffFormatter" xlink:type="simple"><rect fill="#FEFECE" filter="url(#f1sf3nkjssbxom)" height="73.9102" id="benchmarkstt.diff.formatter.DiffFormatter" style="stroke: #A80036; stroke-width: 1.5;" width="301" x="138.5" y="75.1992"/><ellipse cx="246.75" cy="91.1992" fill="#ADD1B2" rx="11" ry="11" style="stroke: #A80036; stroke-width: 1.0;"/><path d="M249.2231,97.3423 Q248.6421,97.6411 248.0029,97.7905 Q247.3638,97.9399 246.6582,97.9399 Q244.1514,97.9399 242.8315,96.2881 Q241.5117,94.6362 241.5117,91.5151 Q241.5117,88.3857 242.8315,86.7339 Q244.1514,85.082 246.6582,85.082 Q247.3638,85.082 248.0112,85.2314 Q248.6587,85.3809 249.2231,85.6797 L249.2231,88.4023 Q248.5923,87.8213 247.9988,87.5515 Q247.4053,87.2817 246.7744,87.2817 Q245.4297,87.2817 244.7449,88.3484 Q244.0601,89.415 244.0601,91.5151 Q244.0601,93.6069 244.7449,94.6736 Q245.4297,95.7402 246.7744,95.7402 Q247.4053,95.7402 247.9988,95.4705 Q248.5923,95.2007 249.2231,94.6196 Z "/><text fill="#000000" font-family="sans-serif" font-size="12" lengthAdjust="spacingAndGlyphs" textLength="76" x="267.25" y="95.7344">DiffFormatter</text><line style="stroke: #A80036; stroke-width: 1.5;" x1="139.5" x2="438.5" y1="107.1992" y2="107.1992"/><line style="stroke: #A80036; stroke-width: 1.5;" x1="139.5" x2="438.5" y1="115.1992" y2="115.1992"/><ellipse cx="149.5" cy="126.1992" fill="#84BE84" rx="3" ry="3" style="stroke: #038048; stroke-width: 1.0;"/><text fill="#000000" font-family="sans-serif" font-size="11" lengthAdjust="spacingAndGlyphs" textLength="235" x="158.5" y="129.834">__init__(self, dialect=None, *args, **kwargs)</text><ellipse cx="149.5" cy="139.1543" fill="#84BE84" rx="3" ry="3" style="stroke: #038048; stroke-width: 1.0;"/><text fill="#000000" font-family="sans-serif" font-size="11" lengthAdjust="spacingAndGlyphs" textLength="275" x="158.5" y="142.7891">diff(self, a, b, opcodes=None, preprocessor=None)</text></a><!--MD5=[13567ef2ba7a355d45cc98cb3acfd770]
class benchmarkstt.diff.formatter.HTMLDiffDialect--><a href="https://benchmarkstt.readthedocs.io/en/latest/modules/benchmarkstt.diff.formatter.html#benchmarkstt.diff.formatter.HTMLDiffDialect" target="_top" title="https://benchmarkstt.readthedocs.io/en/latest/modules/benchmarkstt.diff.formatter.html#benchmarkstt.diff.formatter.HTMLDiffDialect" xlink:actuate="onRequest" xlink:href="https://benchmarkstt.readthedocs.io/en/latest/modules/benchmarkstt.diff.formatter.html#benchmarkstt.diff.formatter.HTMLDiffDialect" xlink:show="new" xlink:title="https://benchmarkstt.readthedocs.io/en/latest/modules/benchmarkstt.diff.formatter.html#benchmarkstt.diff.formatter.HTMLDiffDialect" xlink:type="simple"><rect fill="#FEFECE" filter="url(#f1sf3nkjssbxom)" height="112.7754" id="benchmarkstt.diff.formatter.HTMLDiffDialect" style="stroke: #A80036; stroke-width: 1.5;" width="239" x="580.5" y="383.1992"/><ellipse cx="649.75" cy="399.1992" fill="#ADD1B2" rx="11" ry="11" style="stroke: #A80036; stroke-width: 1.0;"/><path d="M652.2231,405.3423 Q651.6421,405.6411 651.0029,405.7905 Q650.3638,405.9399 649.6582,405.9399 Q647.1514,405.9399 645.8315,404.2881 Q644.5117,402.6362 644.5117,399.5151 Q644.5117,396.3857 645.8315,394.7339 Q647.1514,393.082 649.6582,393.082 Q650.3638,393.082 651.0112,393.2314 Q651.6587,393.3809 652.2231,393.6797 L652.2231,396.4023 Q651.5923,395.8213 650.9988,395.5515 Q650.4053,395.2817 649.7744,395.2817 Q648.4297,395.2817 647.7449,396.3484 Q647.0601,397.415 647.0601,399.5151 Q647.0601,401.6069 647.7449,402.6736 Q648.4297,403.7402 649.7744,403.7402 Q650.4053,403.7402 650.9988,403.4705 Q651.5923,403.2007 652.2231,402.6196 Z "/><text fill="#000000" font-family="sans-serif" font-size="12" lengthAdjust="spacingAndGlyphs" textLength="92" x="670.25" y="403.7344">HTMLDiffDialect</text><line style="stroke: #A80036; stroke-width: 1.5;" x1="581.5" x2="818.5" y1="415.1992" y2="415.1992"/><line style="stroke: #A80036; stroke-width: 1.5;" x1="581.5" x2="818.5" y1="423.1992" y2="423.1992"/><ellipse cx="591.5" cy="434.1992" fill="#84BE84" rx="3" ry="3" style="stroke: #038048; stroke-width: 1.0;"/><text fill="#000000" font-family="sans-serif" font-size="11" lengthAdjust="spacingAndGlyphs" textLength="79" x="600.5" y="437.834">__enter__(self)</text><ellipse cx="591.5" cy="447.1543" fill="#84BE84" rx="3" ry="3" style="stroke: #038048; stroke-width: 1.0;"/><text fill="#000000" font-family="sans-serif" font-size="11" lengthAdjust="spacingAndGlyphs" textLength="213" x="600.5" y="450.7891">__exit__(self, exc_type, exc_val, exc_tb)</text><ellipse cx="591.5" cy="460.1094" fill="#84BE84" rx="3" ry="3" style="stroke: #038048; stroke-width: 1.0;"/><text fill="#000000" font-family="sans-serif" font-size="11" lengthAdjust="spacingAndGlyphs" textLength="68" x="600.5" y="463.7441">__init__(self)</text><ellipse cx="591.5" cy="473.0645" fill="#84BE84" rx="3" ry="3" style="stroke: #038048; stroke-width: 1.0;"/><text fill="#000000" font-family="sans-serif" font-size="11" lengthAdjust="spacingAndGlyphs" textLength="63" x="600.5" y="476.6992">output(self)</text><ellipse cx="591.5" cy="486.0195" fill="#84BE84" rx="3" ry="3" style="stroke: #038048; stroke-width: 1.0;"/><text fill="#000000" font-family="sans-serif" font-size="11" lengthAdjust="spacingAndGlyphs" textLength="96" x="600.5" y="489.6543">preprocessor(txt)</text></a><!--MD5=[ad5da66f3bbb9ef0c526548f556f562e]
class benchmarkstt.diff.formatter.JSONDiffDialect--><a href="https://benchmarkstt.readthedocs.io/en/latest/modules/benchmarkstt.diff.formatter.html#benchmarkstt.diff.formatter.JSONDiffDialect" target="_top" title="https://benchmarkstt.readthedocs.io/en/latest/modules/benchmarkstt.diff.formatter.html#benchmarkstt.diff.formatter.JSONDiffDialect" xlink:actuate="onRequest" xlink:href="https://benchmarkstt.readthedocs.io/en/latest/modules/benchmarkstt.diff.formatter.html#benchmarkstt.diff.formatter.JSONDiffDialect" xlink:show="new" xlink:title="https://benchmarkstt.readthedocs.io/en/latest/modules/benchmarkstt.diff.formatter.html#benchmarkstt.diff.formatter.JSONDiffDialect" xlink:type="simple"><rect fill="#FEFECE" filter="url(#f1sf3nkjssbxom)" height="164.5957" id="benchmarkstt.diff.formatter.JSONDiffDialect" style="stroke: #A80036; stroke-width: 1.5;" width="239" x="306.5" y="717.1992"/><ellipse cx="378.25" cy="733.1992" fill="#ADD1B2" rx="11" ry="11" style="stroke: #A80036; stroke-width: 1.0;"/><path d="M380.7231,739.3423 Q380.1421,739.6411 379.5029,739.7905 Q378.8638,739.9399 378.1582,739.9399 Q375.6514,739.9399 374.3315,738.2881 Q373.0117,736.6362 373.0117,733.5151 Q373.0117,730.3857 374.3315,728.7339 Q375.6514,727.082 378.1582,727.082 Q378.8638,727.082 379.5112,727.2314 Q380.1587,727.3809 380.7231,727.6797 L380.7231,730.4023 Q380.0923,729.8213 379.4988,729.5515 Q378.9053,729.2817 378.2744,729.2817 Q376.9297,729.2817 376.2449,730.3484 Q375.5601,731.415 375.5601,733.5151 Q375.5601,735.6069 376.2449,736.6736 Q376.9297,737.7402 378.2744,737.7402 Q378.9053,737.7402 379.4988,737.4705 Q380.0923,737.2007 380.7231,736.6196 Z "/><text fill="#000000" font-family="sans-serif" font-size="12" lengthAdjust="spacingAndGlyphs" textLength="87" x="398.75" y="737.7344">JSONDiffDialect</text><line style="stroke: #A80036; stroke-width: 1.5;" x1="307.5" x2="544.5" y1="749.1992" y2="749.1992"/><line style="stroke: #A80036; stroke-width: 1.5;" x1="307.5" x2="544.5" y1="757.1992" y2="757.1992"/><ellipse cx="317.5" cy="768.1992" fill="#84BE84" rx="3" ry="3" style="stroke: #038048; stroke-width: 1.0;"/><text fill="#000000" font-family="sans-serif" font-size="11" lengthAdjust="spacingAndGlyphs" textLength="79" x="326.5" y="771.834">__enter__(self)</text><ellipse cx="317.5" cy="781.1543" fill="#84BE84" rx="3" ry="3" style="stroke: #038048; stroke-width: 1.0;"/><text fill="#000000" font-family="sans-serif" font-size="11" lengthAdjust="spacingAndGlyphs" textLength="213" x="326.5" y="784.7891">__exit__(self, exc_type, exc_val, exc_tb)</text><ellipse cx="317.5" cy="794.1094" fill="#84BE84" rx="3" ry="3" style="stroke: #038048; stroke-width: 1.0;"/><text fill="#000000" font-family="sans-serif" font-size="11" lengthAdjust="spacingAndGlyphs" textLength="68" x="326.5" y="797.7441">__init__(self)</text><ellipse cx="317.5" cy="807.0645" fill="#84BE84" rx="3" ry="3" style="stroke: #038048; stroke-width: 1.0;"/><text fill="#000000" font-family="sans-serif" font-size="11" lengthAdjust="spacingAndGlyphs" textLength="122" x="326.5" y="810.6992">delete_format(self, txt)</text><ellipse cx="317.5" cy="820.0195" fill="#84BE84" rx="3" ry="3" style="stroke: #038048; stroke-width: 1.0;"/><text fill="#000000" font-family="sans-serif" font-size="11" lengthAdjust="spacingAndGlyphs" textLength="119" x="326.5" y="823.6543">equal_format(self, txt)</text><ellipse cx="317.5" cy="832.9746" fill="#84BE84" rx="3" ry="3" style="stroke: #038048; stroke-width: 1.0;"/><text fill="#000000" font-family="sans-serif" font-size="11" lengthAdjust="spacingAndGlyphs" textLength="121" x="326.5" y="836.6094">insert_format(self, txt)</text><ellipse cx="317.5" cy="845.9297" fill="#84BE84" rx="3" ry="3" style="stroke: #038048; stroke-width: 1.0;"/><text fill="#000000" font-family="sans-serif" font-size="11" lengthAdjust="spacingAndGlyphs" textLength="63" x="326.5" y="849.5645">output(self)</text><ellipse cx="317.5" cy="858.8848" fill="#84BE84" rx="3" ry="3" style="stroke: #038048; stroke-width: 1.0;"/><text fill="#000000" font-family="sans-serif" font-size="11" lengthAdjust="spacingAndGlyphs" textLength="96" x="326.5" y="862.5195">preprocessor(txt)</text><ellipse cx="317.5" cy="871.8398" fill="#84BE84" rx="3" ry="3" style="stroke: #038048; stroke-width: 1.0;"/><text fill="#000000" font-family="sans-serif" font-size="11" lengthAdjust="spacingAndGlyphs" textLength="133" x="326.5" y="875.4746">replace_format(self, a, b)</text></a><!--MD5=[6cf5df66c86567a6b2395a7b84882531]
class benchmarkstt.diff.formatter.ListDialect--><a href="https://benchmarkstt.readthedocs.io/en/latest/modules/benchmarkstt.diff.formatter.html#benchmarkstt.diff.formatter.ListDialect" target="_top" title="https://benchmarkstt.readthedocs.io/en/latest/modules/benchmarkstt.diff.formatter.html#benchmarkstt.diff.formatter.ListDialect" xlink:actuate="onRequest" xlink:href="https://benchmarkstt.readthedocs.io/en/latest/modules/benchmarkstt.diff.formatter.html#benchmarkstt.diff.formatter.ListDialect" xlink:show="new" xlink:title="https://benchmarkstt.readthedocs.io/en/latest/modules/benchmarkstt.diff.formatter.html#benchmarkstt.diff.formatter.ListDialect" xlink:type="simple"><rect fill="#FEFECE" filter="url(#f1sf3nkjssbxom)" height="164.5957" id="benchmarkstt.diff.formatter.ListDialect" style="stroke: #A80036; stroke-width: 1.5;" width="239" x="306.5" y="357.1992"/><ellipse cx="392.75" cy="373.1992" fill="#ADD1B2" rx="11" ry="11" style="stroke: #A80036; stroke-width: 1.0;"/><path d="M395.2231,379.3423 Q394.6421,379.6411 394.0029,379.7905 Q393.3638,379.9399 392.6582,379.9399 Q390.1514,379.9399 388.8315,378.2881 Q387.5117,376.6362 387.5117,373.5151 Q387.5117,370.3857 388.8315,368.7339 Q390.1514,367.082 392.6582,367.082 Q393.3638,367.082 394.0112,367.2314 Q394.6587,367.3809 395.2231,367.6797 L395.2231,370.4023 Q394.5923,369.8213 393.9988,369.5515 Q393.4053,369.2817 392.7744,369.2817 Q391.4297,369.2817 390.7449,370.3484 Q390.0601,371.415 390.0601,373.5151 Q390.0601,375.6069 390.7449,376.6736 Q391.4297,377.7402 392.7744,377.7402 Q393.4053,377.7402 393.9988,377.4705 Q394.5923,377.2007 395.2231,376.6196 Z "/><text fill="#000000" font-family="sans-serif" font-size="12" lengthAdjust="spacingAndGlyphs" textLength="58" x="413.25" y="377.7344">ListDialect</text><line style="stroke: #A80036; stroke-width: 1.5;" x1="307.5" x2="544.5" y1="389.1992" y2="389.1992"/><line style="stroke: #A80036; stroke-width: 1.5;" x1="307.5" x2="544.5" y1="397.1992" y2="397.1992"/><ellipse cx="317.5" cy="408.1992" fill="#84BE84" rx="3" ry="3" style="stroke: #038048; stroke-width: 1.0;"/><text fill="#000000" font-family="sans-serif" font-size="11" lengthAdjust="spacingAndGlyphs" textLength="79" x="326.5" y="411.834">__enter__(self)</text><ellipse cx="317.5" cy="421.1543" fill="#84BE84" rx="3" ry="3" style="stroke: #038048; stroke-width: 1.0;"/><text fill="#000000" font-family="sans-serif" font-size="11" lengthAdjust="spacingAndGlyphs" textLength="213" x="326.5" y="424.7891">__exit__(self, exc_type, exc_val, exc_tb)</text><ellipse cx="317.5" cy="434.1094" fill="#84BE84" rx="3" ry="3" style="stroke: #038048; stroke-width: 1.0;"/><text fill="#000000" font-family="sans-serif" font-size="11" lengthAdjust="spacingAndGlyphs" textLength="68" x="326.5" y="437.7441">__init__(self)</text><ellipse cx="317.5" cy="447.0645" fill="#84BE84" rx="3" ry="3" style="stroke: #038048; stroke-width: 1.0;"/><text fill="#000000" font-family="sans-serif" font-size="11" lengthAdjust="spacingAndGlyphs" textLength="122" x="326.5" y="450.6992">delete_format(self, txt)</text><ellipse cx="317.5" cy="460.0195" fill="#84BE84" rx="3" ry="3" style="stroke: #038048; stroke-width: 1.0;"/><text fill="#000000" font-family="sans-serif" font-size="11" lengthAdjust="spacingAndGlyphs" textLength="119" x="326.5" y="463.6543">equal_format(self, txt)</text><ellipse cx="317.5" cy="472.9746" fill="#84BE84" rx="3" ry="3" style="stroke: #038048; stroke-width: 1.0;"/><text fill="#000000" font-family="sans-serif" font-size="11" lengthAdjust="spacingAndGlyphs" textLength="121" x="326.5" y="476.6094">insert_format(self, txt)</text><ellipse cx="317.5" cy="485.9297" fill="#84BE84" rx="3" ry="3" style="stroke: #038048; stroke-width: 1.0;"/><text fill="#000000" font-family="sans-serif" font-size="11" lengthAdjust="spacingAndGlyphs" textLength="63" x="326.5" y="489.5645">output(self)</text><ellipse cx="317.5" cy="498.8848" fill="#84BE84" rx="3" ry="3" style="stroke: #038048; stroke-width: 1.0;"/><text fill="#000000" font-family="sans-serif" font-size="11" lengthAdjust="spacingAndGlyphs" textLength="96" x="326.5" y="502.5195">preprocessor(txt)</text><ellipse cx="317.5" cy="511.8398" fill="#84BE84" rx="3" ry="3" style="stroke: #038048; stroke-width: 1.0;"/><text fill="#000000" font-family="sans-serif" font-size="11" lengthAdjust="spacingAndGlyphs" textLength="133" x="326.5" y="515.4746">replace_format(self, a, b)</text></a><!--MD5=[b5a1150753ccdd8cb32cc363de6d4f06]
class benchmarkstt.diff.formatter.RestructuredTextDialect--><a href="https://benchmarkstt.readthedocs.io/en/latest/modules/benchmarkstt.diff.formatter.html#benchmarkstt.diff.formatter.RestructuredTextDialect" target="_top" title="https://benchmarkstt.readthedocs.io/en/latest/modules/benchmarkstt.diff.formatter.html#benchmarkstt.diff.formatter.RestructuredTextDialect" xlink:actuate="onRequest" xlink:href="https://benchmarkstt.readthedocs.io/en/latest/modules/benchmarkstt.diff.formatter.html#benchmarkstt.diff.formatter.RestructuredTextDialect" xlink:show="new" xlink:title="https://benchmarkstt.readthedocs.io/en/latest/modules/benchmarkstt.diff.formatter.html#benchmarkstt.diff.formatter.RestructuredTextDialect" xlink:type="simple"><rect fill="#FEFECE" filter="url(#f1sf3nkjssbxom)" height="112.7754" id="benchmarkstt.diff.formatter.RestructuredTextDialect" style="stroke: #A80036; stroke-width: 1.5;" width="239" x="32.5" y="743.1992"/><ellipse cx="78.25" cy="759.1992" fill="#ADD1B2" rx="11" ry="11" style="stroke: #A80036; stroke-width: 1.0;"/><path d="M80.7231,765.3423 Q80.1421,765.6411 79.5029,765.7905 Q78.8638,765.9399 78.1582,765.9399 Q75.6514,765.9399 74.3315,764.2881 Q73.0117,762.6362 73.0117,759.5151 Q73.0117,756.3857 74.3315,754.7339 Q75.6514,753.082 78.1582,753.082 Q78.8638,753.082 79.5112,753.2314 Q80.1587,753.3809 80.7231,753.6797 L80.7231,756.4023 Q80.0923,755.8213 79.4988,755.5515 Q78.9053,755.2817 78.2744,755.2817 Q76.9297,755.2817 76.2449,756.3484 Q75.5601,757.415 75.5601,759.5151 Q75.5601,761.6069 76.2449,762.6736 Q76.9297,763.7402 78.2744,763.7402 Q78.9053,763.7402 79.4988,763.4705 Q80.0923,763.2007 80.7231,762.6196 Z "/><text fill="#000000" font-family="sans-serif" font-size="12" lengthAdjust="spacingAndGlyphs" textLength="139" x="98.75" y="763.7344">RestructuredTextDialect</text><line style="stroke: #A80036; stroke-width: 1.5;" x1="33.5" x2="270.5" y1="775.1992" y2="775.1992"/><line style="stroke: #A80036; stroke-width: 1.5;" x1="33.5" x2="270.5" y1="783.1992" y2="783.1992"/><ellipse cx="43.5" cy="794.1992" fill="#84BE84" rx="3" ry="3" style="stroke: #038048; stroke-width: 1.0;"/><text fill="#000000" font-family="sans-serif" font-size="11" lengthAdjust="spacingAndGlyphs" textLength="79" x="52.5" y="797.834">__enter__(self)</text><ellipse cx="43.5" cy="807.1543" fill="#84BE84" rx="3" ry="3" style="stroke: #038048; stroke-width: 1.0;"/><text fill="#000000" font-family="sans-serif" font-size="11" lengthAdjust="spacingAndGlyphs" textLength="213" x="52.5" y="810.7891">__exit__(self, exc_type, exc_val, exc_tb)</text><ellipse cx="43.5" cy="820.1094" fill="#84BE84" rx="3" ry="3" style="stroke: #038048; stroke-width: 1.0;"/><text fill="#000000" font-family="sans-serif" font-size="11" lengthAdjust="spacingAndGlyphs" textLength="197" x="52.5" y="823.7441">__init__(self, show_color_key=None)</text><ellipse cx="43.5" cy="833.0645" fill="#84BE84" rx="3" ry="3" style="stroke: #038048; stroke-width: 1.0;"/><text fill="#000000" font-family="sans-serif" font-size="11" lengthAdjust="spacingAndGlyphs" textLength="63" x="52.5" y="836.6992">output(self)</text><ellipse cx="43.5" cy="846.0195" fill="#84BE84" rx="3" ry="3" style="stroke: #038048; stroke-width: 1.0;"/><text fill="#000000" font-family="sans-serif" font-size="11" lengthAdjust="spacingAndGlyphs" textLength="96" x="52.5" y="849.6543">preprocessor(txt)</text></a><!--MD5=[e0d2253a58427e0d1251f683d337a24a]
class benchmarkstt.diff.formatter.UTF8Dialect--><a href="https://benchmarkstt.readthedocs.io/en/latest/modules/benchmarkstt.diff.formatter.html#benchmarkstt.diff.formatter.UTF8Dialect" target="_top" title="https://benchmarkstt.readthedocs.io/en/latest/modules/benchmarkstt.diff.formatter.html#benchmarkstt.diff.formatter.UTF8Dialect" xlink:actuate="onRequest" xlink:href="https://benchmarkstt.readthedocs.io/en/latest/modules/benchmarkstt.diff.formatter.html#benchmarkstt.diff.formatter.UTF8Dialect" xlink:show="new" xlink:title="https://benchmarkstt.readthedocs.io/en/latest/modules/benchmarkstt.diff.formatter.html#benchmarkstt.diff.formatter.UTF8Dialect" xlink:type="simple"><rect fill="#FEFECE" filter="url(#f1sf3nkjssbxom)" height="138.6855" id="benchmarkstt.diff.formatter.UTF8Dialect" style="stroke: #A80036; stroke-width: 1.5;" width="239" x="854.5" y="370.1992"/><ellipse cx="935.25" cy="386.1992" fill="#ADD1B2" rx="11" ry="11" style="stroke: #A80036; stroke-width: 1.0;"/><path d="M937.7231,392.3423 Q937.1421,392.6411 936.5029,392.7905 Q935.8638,392.9399 935.1582,392.9399 Q932.6514,392.9399 931.3315,391.2881 Q930.0117,389.6362 930.0117,386.5151 Q930.0117,383.3857 931.3315,381.7339 Q932.6514,380.082 935.1582,380.082 Q935.8638,380.082 936.5112,380.2314 Q937.1587,380.3809 937.7231,380.6797 L937.7231,383.4023 Q937.0923,382.8213 936.4988,382.5515 Q935.9053,382.2817 935.2744,382.2817 Q933.9297,382.2817 933.2449,383.3484 Q932.5601,384.415 932.5601,386.5151 Q932.5601,388.6069 933.2449,389.6736 Q933.9297,390.7402 935.2744,390.7402 Q935.9053,390.7402 936.4988,390.4705 Q937.0923,390.2007 937.7231,389.6196 Z "/><text fill="#000000" font-family="sans-serif" font-size="12" lengthAdjust="spacingAndGlyphs" textLength="69" x="955.75" y="390.7344">UTF8Dialect</text><line style="stroke: #A80036; stroke-width: 1.5;" x1="855.5" x2="1092.5" y1="402.1992" y2="402.1992"/><line style="stroke: #A80036; stroke-width: 1.5;" x1="855.5" x2="1092.5" y1="410.1992" y2="410.1992"/><ellipse cx="865.5" cy="421.1992" fill="#84BE84" rx="3" ry="3" style="stroke: #038048; stroke-width: 1.0;"/><text fill="#000000" font-family="sans-serif" font-size="11" lengthAdjust="spacingAndGlyphs" textLength="79" x="874.5" y="424.834">__enter__(self)</text><ellipse cx="865.5" cy="434.1543" fill="#84BE84" rx="3" ry="3" style="stroke: #038048; stroke-width: 1.0;"/><text fill="#000000" font-family="sans-serif" font-size="11" lengthAdjust="spacingAndGlyphs" textLength="213" x="874.5" y="437.7891">__exit__(self, exc_type, exc_val, exc_tb)</text><ellipse cx="865.5" cy="447.1094" fill="#84BE84" rx="3" ry="3" style="stroke: #038048; stroke-width: 1.0;"/><text fill="#000000" font-family="sans-serif" font-size="11" lengthAdjust="spacingAndGlyphs" textLength="68" x="874.5" y="450.7441">__init__(self)</text><ellipse cx="865.5" cy="460.0645" fill="#84BE84" rx="3" ry="3" style="stroke: #038048; stroke-width: 1.0;"/><text fill="#000000" font-family="sans-serif" font-size="11" lengthAdjust="spacingAndGlyphs" textLength="122" x="874.5" y="463.6992">delete_format(self, txt)</text><ellipse cx="865.5" cy="473.0195" fill="#84BE84" rx="3" ry="3" style="stroke: #038048; stroke-width: 1.0;"/><text fill="#000000" font-family="sans-serif" font-size="11" lengthAdjust="spacingAndGlyphs" textLength="121" x="874.5" y="476.6543">insert_format(self, txt)</text><ellipse cx="865.5" cy="485.9746" fill="#84BE84" rx="3" ry="3" style="stroke: #038048; stroke-width: 1.0;"/><text fill="#000000" font-family="sans-serif" font-size="11" lengthAdjust="spacingAndGlyphs" textLength="63" x="874.5" y="489.6094">output(self)</text><ellipse cx="865.5" cy="498.9297" fill="#84BE84" rx="3" ry="3" style="stroke: #038048; stroke-width: 1.0;"/><text fill="#000000" font-family="sans-serif" font-size="11" lengthAdjust="spacingAndGlyphs" textLength="96" x="874.5" y="502.5645">preprocessor(txt)</text></a><!--MD5=[6aa6ae3a879840a73b19fd2777afca9b]
class benchmarkstt.diff.Base--><a href="https://benchmarkstt.readthedocs.io/en/latest/modules/benchmarkstt.diff.html#benchmarkstt.diff.Base" target="_top" title="https://benchmarkstt.readthedocs.io/en/latest/modules/benchmarkstt.diff.html#benchmarkstt.diff.Base" xlink:actuate="onRequest" xlink:href="https://benchmarkstt.readthedocs.io/en/latest/modules/benchmarkstt.diff.html#benchmarkstt.diff.Base" xlink:show="new" xlink:title="https://benchmarkstt.readthedocs.io/en/latest/modules/benchmarkstt.diff.html#benchmarkstt.diff.Base" xlink:type="simple"><rect fill="#FEFECE" filter="url(#f1sf3nkjssbxom)" height="73.9102" id="benchmarkstt.diff.Base" style="stroke: #A80036; stroke-width: 1.5;" width="149" x="1200.5" y="75.1992"/><ellipse cx="1257.25" cy="91.1992" fill="#ADD1B2" rx="11" ry="11" style="stroke: #A80036; stroke-width: 1.0;"/><path d="M1259.7231,97.3423 Q1259.1421,97.6411 1258.5029,97.7905 Q1257.8638,97.9399 1257.1582,97.9399 Q1254.6514,97.9399 1253.3315,96.2881 Q1252.0117,94.6362 1252.0117,91.5151 Q1252.0117,88.3857 1253.3315,86.7339 Q1254.6514,85.082 1257.1582,85.082 Q1257.8638,85.082 1258.5112,85.2314 Q1259.1587,85.3809 1259.7231,85.6797 L1259.7231,88.4023 Q1259.0923,87.8213 1258.4988,87.5515 Q1257.9053,87.2817 1257.2744,87.2817 Q1255.9297,87.2817 1255.2449,88.3484 Q1254.5601,89.415 1254.5601,91.5151 Q1254.5601,93.6069 1255.2449,94.6736 Q1255.9297,95.7402 1257.2744,95.7402 Q1257.9053,95.7402 1258.4988,95.4705 Q1259.0923,95.2007 1259.7231,94.6196 Z "/><text fill="#000000" font-family="sans-serif" font-size="12" lengthAdjust="spacingAndGlyphs" textLength="27" x="1277.75" y="95.7344">Base</text><line style="stroke: #A80036; stroke-width: 1.5;" x1="1201.5" x2="1348.5" y1="107.1992" y2="107.1992"/><line style="stroke: #A80036; stroke-width: 1.5;" x1="1201.5" x2="1348.5" y1="115.1992" y2="115.1992"/><ellipse cx="1211.5" cy="126.1992" fill="#84BE84" rx="3" ry="3" style="stroke: #038048; stroke-width: 1.0;"/><text fill="#000000" font-family="sans-serif" font-size="11" lengthAdjust="spacingAndGlyphs" textLength="123" x="1220.5" y="129.834">__init__(self, a='', b='')</text><ellipse cx="1211.5" cy="139.1543" fill="#84BE84" rx="3" ry="3" style="stroke: #038048; stroke-width: 1.0;"/><text fill="#000000" font-family="sans-serif" font-size="11" lengthAdjust="spacingAndGlyphs" textLength="96" x="1220.5" y="142.7891">get_opcodes(self)</text></a><!--MD5=[5eef32e9538f5dcdb68c61d368837619]
class benchmarkstt.diff.core.RatcliffObershelp--><a href="https://benchmarkstt.readthedocs.io/en/latest/modules/benchmarkstt.diff.core.html#benchmarkstt.diff.core.RatcliffObershelp" target="_top" title="https://benchmarkstt.readthedocs.io/en/latest/modules/benchmarkstt.diff.core.html#benchmarkstt.diff.core.RatcliffObershelp" xlink:actuate="onRequest" xlink:href="https://benchmarkstt.readthedocs.io/en/latest/modules/benchmarkstt.diff.core.html#benchmarkstt.diff.core.RatcliffObershelp" xlink:show="new" xlink:title="https://benchmarkstt.readthedocs.io/en/latest/modules/benchmarkstt.diff.core.html#benchmarkstt.diff.core.RatcliffObershelp" xlink:type="simple"><rect fill="#FEFECE" filter="url(#f1sf3nkjssbxom)" height="190.5059" id="benchmarkstt.diff.core.RatcliffObershelp" style="stroke: #A80036; stroke-width: 1.5;" width="249" x="1150.5" y="344.1992"/><ellipse cx="1221.25" cy="360.1992" fill="#ADD1B2" rx="11" ry="11" style="stroke: #A80036; stroke-width: 1.0;"/><path d="M1223.7231,366.3423 Q1223.1421,366.6411 1222.5029,366.7905 Q1221.8638,366.9399 1221.1582,366.9399 Q1218.6514,366.9399 1217.3315,365.2881 Q1216.0117,363.6362 1216.0117,360.5151 Q1216.0117,357.3857 1217.3315,355.7339 Q1218.6514,354.082 1221.1582,354.082 Q1221.8638,354.082 1222.5112,354.2314 Q1223.1587,354.3809 1223.7231,354.6797 L1223.7231,357.4023 Q1223.0923,356.8213 1222.4988,356.5515 Q1221.9053,356.2817 1221.2744,356.2817 Q1219.9297,356.2817 1219.2449,357.3484 Q1218.5601,358.415 1218.5601,360.5151 Q1218.5601,362.6069 1219.2449,363.6736 Q1219.9297,364.7402 1221.2744,364.7402 Q1221.9053,364.7402 1222.4988,364.4705 Q1223.0923,364.2007 1223.7231,363.6196 Z "/><text fill="#000000" font-family="sans-serif" font-size="12" lengthAdjust="spacingAndGlyphs" textLength="99" x="1241.75" y="364.7344">RatcliffObershelp</text><line style="stroke: #A80036; stroke-width: 1.5;" x1="1151.5" x2="1398.5" y1="376.1992" y2="376.1992"/><line style="stroke: #A80036; stroke-width: 1.5;" x1="1151.5" x2="1398.5" y1="384.1992" y2="384.1992"/><ellipse cx="1161.5" cy="395.1992" fill="#84BE84" rx="3" ry="3" style="stroke: #038048; stroke-width: 1.0;"/><text fill="#000000" font-family="sans-serif" font-size="11" lengthAdjust="spacingAndGlyphs" textLength="182" x="1170.5" y="398.834">__init__(self, a, b, *args, **kwargs)</text><ellipse cx="1161.5" cy="408.1543" fill="#84BE84" rx="3" ry="3" style="stroke: #038048; stroke-width: 1.0;"/><text fill="#000000" font-family="sans-serif" font-size="11" lengthAdjust="spacingAndGlyphs" textLength="223" x="1170.5" y="411.7891">find_longest_match(self, alo, ahi, blo, bhi)</text><ellipse cx="1161.5" cy="421.1094" fill="#84BE84" rx="3" ry="3" style="stroke: #038048; stroke-width: 1.0;"/><text fill="#000000" font-family="sans-serif" font-size="11" lengthAdjust="spacingAndGlyphs" textLength="177" x="1170.5" y="424.7441">get_grouped_opcodes(self, n=3)</text><ellipse cx="1161.5" cy="434.0645" fill="#84BE84" rx="3" ry="3" style="stroke: #038048; stroke-width: 1.0;"/><text fill="#000000" font-family="sans-serif" font-size="11" lengthAdjust="spacingAndGlyphs" textLength="141" x="1170.5" y="437.6992">get_matching_blocks(self)</text><ellipse cx="1161.5" cy="447.0195" fill="#84BE84" rx="3" ry="3" style="stroke: #038048; stroke-width: 1.0;"/><text fill="#000000" font-family="sans-serif" font-size="11" lengthAdjust="spacingAndGlyphs" textLength="96" x="1170.5" y="450.6543">get_opcodes(self)</text><ellipse cx="1161.5" cy="459.9746" fill="#84BE84" rx="3" ry="3" style="stroke: #038048; stroke-width: 1.0;"/><text fill="#000000" font-family="sans-serif" font-size="11" lengthAdjust="spacingAndGlyphs" textLength="87" x="1170.5" y="463.6094">quick_ratio(self)</text><ellipse cx="1161.5" cy="472.9297" fill="#84BE84" rx="3" ry="3" style="stroke: #038048; stroke-width: 1.0;"/><text fill="#000000" font-family="sans-serif" font-size="11" lengthAdjust="spacingAndGlyphs" textLength="52" x="1170.5" y="476.5645">ratio(self)</text><ellipse cx="1161.5" cy="485.8848" fill="#84BE84" rx="3" ry="3" style="stroke: #038048; stroke-width: 1.0;"/><text fill="#000000" font-family="sans-serif" font-size="11" lengthAdjust="spacingAndGlyphs" textLength="113" x="1170.5" y="489.5195">real_quick_ratio(self)</text><ellipse cx="1161.5" cy="498.8398" fill="#84BE84" rx="3" ry="3" style="stroke: #038048; stroke-width: 1.0;"/><text fill="#000000" font-family="sans-serif" font-size="11" lengthAdjust="spacingAndGlyphs" textLength="87" x="1170.5" y="502.4746">set_seq1(self, a)</text><ellipse cx="1161.5" cy="511.7949" fill="#84BE84" rx="3" ry="3" style="stroke: #038048; stroke-width: 1.0;"/><text fill="#000000" font-family="sans-serif" font-size="11" lengthAdjust="spacingAndGlyphs" textLength="88" x="1170.5" y="515.4297">set_seq2(self, b)</text><ellipse cx="1161.5" cy="524.75" fill="#84BE84" rx="3" ry="3" style="stroke: #038048; stroke-width: 1.0;"/><text fill="#000000" font-family="sans-serif" font-size="11" lengthAdjust="spacingAndGlyphs" textLength="99" x="1170.5" y="528.3848">set_seqs(self, a, b)</text></a><!--MD5=[2db0c2459354a46506eaa1f007d56121]
reverse link benchmarkstt.diff.formatter.Dialect to benchmarkstt.diff.formatter.CLIDiffDialect--><path d="M514.2,171.0192 C444.18,204.3792 358.63,249.8492 289,301.1992 C256.73,324.9992 224.85,356.3792 199.98,383.1592 " fill="none" id="benchmarkstt.diff.formatter.Dialect&lt;-benchmarkstt.diff.formatter.CLIDiffDialect" style="stroke: #A80036; stroke-width: 1.0;"/><polygon fill="none" points="511.49,164.5492,532.57,162.3692,517.46,177.2192,511.49,164.5492" style="stroke: #A80036; stroke-width: 1.0;"/><!--MD5=[112058220c56443896afbf42f17a88fb]
reverse link benchmarkstt.diff.formatter.Dialect to benchmarkstt.diff.formatter.HTMLDiffDialect--><path d="M658.25,182.2692 C667.98,242.0492 681.88,327.4092 690.92,382.9292 " fill="none" id="benchmarkstt.diff.formatter.Dialect&lt;-benchmarkstt.diff.formatter.HTMLDiffDialect" style="stroke: #A80036; stroke-width: 1.0;"/><polygon fill="none" points="651.3,183.1492,654.99,162.2792,665.12,180.8992,651.3,183.1492" style="stroke: #A80036; stroke-width: 1.0;"/><!--MD5=[d18a5de9ed5cb9a1cce4fd0dce2b6adb]
reverse link benchmarkstt.diff.formatter.ListDialect to benchmarkstt.diff.formatter.JSONDiffDialect--><path d="M426,542.5392 C426,597.8192 426,665.2592 426,717.0592 " fill="none" id="benchmarkstt.diff.formatter.ListDialect&lt;-benchmarkstt.diff.formatter.JSONDiffDialect" style="stroke: #A80036; stroke-width: 1.0;"/><polygon fill="none" points="419,542.3792,426,522.3792,433,542.3792,419,542.3792" style="stroke: #A80036; stroke-width: 1.0;"/><!--MD5=[cd06825e171c0cb66bd892fe633a200a]
reverse link benchmarkstt.diff.formatter.Dialect to benchmarkstt.diff.formatter.ListDialect--><path d="M602.42,178.8592 C567.56,230.1992 518.91,301.8492 481.53,356.9092 " fill="none" id="benchmarkstt.diff.formatter.Dialect&lt;-benchmarkstt.diff.formatter.ListDialect" style="stroke: #A80036; stroke-width: 1.0;"/><polygon fill="none" points="596.65,174.8992,613.67,162.2792,608.23,182.7592,596.65,174.8992" style="stroke: #A80036; stroke-width: 1.0;"/><!--MD5=[42bef6836bc68c456f75427094de6c35]
reverse link benchmarkstt.diff.formatter.CLIDiffDialect to benchmarkstt.diff.formatter.RestructuredTextDialect--><path d="M152,516.2492 C152,584.0892 152,682.0992 152,743.0192 " fill="none" id="benchmarkstt.diff.formatter.CLIDiffDialect&lt;-benchmarkstt.diff.formatter.RestructuredTextDialect" style="stroke: #A80036; stroke-width: 1.0;"/><polygon fill="none" points="145,516.2392,152,496.2392,159,516.2392,145,516.2392" style="stroke: #A80036; stroke-width: 1.0;"/><!--MD5=[dab5b0c4d09e39186ea8a57da41e6cde]
reverse link benchmarkstt.diff.formatter.Dialect to benchmarkstt.diff.formatter.UTF8Dialect--><path d="M711.69,176.9892 C748.49,213.3292 795.4,259.7392 837,301.1992 C859.44,323.5592 883.87,348.0392 905.8,370.0592 " fill="none" id="benchmarkstt.diff.formatter.Dialect&lt;-benchmarkstt.diff.formatter.UTF8Dialect" style="stroke: #A80036; stroke-width: 1.0;"/><polygon fill="none" points="706.42,181.6092,697.1,162.5792,716.25,171.6492,706.42,181.6092" style="stroke: #A80036; stroke-width: 1.0;"/><!--MD5=[995a509b438cdc2d97b80485f82ea7f7]
reverse link benchmarkstt.diff.Base to benchmarkstt.diff.core.RatcliffObershelp--><path d="M1275,169.3092 C1275,217.2492 1275,287.2492 1275,343.8692 " fill="none" id="benchmarkstt.diff.Base&lt;-benchmarkstt.diff.core.RatcliffObershelp" style="stroke: #A80036; stroke-width: 1.0;"/><polygon fill="none" points="1268,169.2792,1275,149.2792,1282,169.2792,1268,169.2792" style="stroke: #A80036; stroke-width: 1.0;"/><!--MD5=[356ec3b692e399a136ffa09e423c477b]
@startuml
title Benchmarkstt.diff
		class benchmarkstt.diff.formatter.CLIDiffDialect [[https://benchmarkstt.readthedocs.io/en/latest/modules/benchmarkstt.diff.formatter.html#benchmarkstt.diff.formatter.CLIDiffDialect]] {
			+__enter__(self)
			+__exit__(self, exc_type, exc_val, exc_tb)
			+__init__(self, show_color_key=None)
			+output(self)
			+preprocessor(txt)
		}
		class benchmarkstt.diff.formatter.Dialect [[https://benchmarkstt.readthedocs.io/en/latest/modules/benchmarkstt.diff.formatter.html#benchmarkstt.diff.formatter.Dialect]] {
			+__enter__(self)
			+__exit__(self, exc_type, exc_val, exc_tb)
			+__init__(self)
			+output(self)
		}
		class benchmarkstt.diff.formatter.DiffFormatter [[https://benchmarkstt.readthedocs.io/en/latest/modules/benchmarkstt.diff.formatter.html#benchmarkstt.diff.formatter.DiffFormatter]] {
			+__init__(self, dialect=None, *args, **kwargs)
			+diff(self, a, b, opcodes=None, preprocessor=None)
		}
		class benchmarkstt.diff.formatter.HTMLDiffDialect [[https://benchmarkstt.readthedocs.io/en/latest/modules/benchmarkstt.diff.formatter.html#benchmarkstt.diff.formatter.HTMLDiffDialect]] {
			+__enter__(self)
			+__exit__(self, exc_type, exc_val, exc_tb)
			+__init__(self)
			+output(self)
			+preprocessor(txt)
		}
		class benchmarkstt.diff.formatter.JSONDiffDialect [[https://benchmarkstt.readthedocs.io/en/latest/modules/benchmarkstt.diff.formatter.html#benchmarkstt.diff.formatter.JSONDiffDialect]] {
			+__enter__(self)
			+__exit__(self, exc_type, exc_val, exc_tb)
			+__init__(self)
			+delete_format(self, txt)
			+equal_format(self, txt)
			+insert_format(self, txt)
			+output(self)
			+preprocessor(txt)
			+replace_format(self, a, b)
		}
		class benchmarkstt.diff.formatter.ListDialect [[https://benchmarkstt.readthedocs.io/en/latest/modules/benchmarkstt.diff.formatter.html#benchmarkstt.diff.formatter.ListDialect]] {
			+__enter__(self)
			+__exit__(self, exc_type, exc_val, exc_tb)
			+__init__(self)
			+delete_format(self, txt)
			+equal_format(self, txt)
			+insert_format(self, txt)
			+output(self)
			+preprocessor(txt)
			+replace_format(self, a, b)
		}
		class benchmarkstt.diff.formatter.RestructuredTextDialect [[https://benchmarkstt.readthedocs.io/en/latest/modules/benchmarkstt.diff.formatter.html#benchmarkstt.diff.formatter.RestructuredTextDialect]] {
			+__enter__(self)
			+__exit__(self, exc_type, exc_val, exc_tb)
			+__init__(self, show_color_key=None)
			+output(self)
			+preprocessor(txt)
		}
		class benchmarkstt.diff.formatter.UTF8Dialect [[https://benchmarkstt.readthedocs.io/en/latest/modules/benchmarkstt.diff.formatter.html#benchmarkstt.diff.formatter.UTF8Dialect]] {
			+__enter__(self)
			+__exit__(self, exc_type, exc_val, exc_tb)
			+__init__(self)
			+delete_format(self, txt)
			+insert_format(self, txt)
			+output(self)
			+preprocessor(txt)
		}
		class benchmarkstt.diff.Base [[https://benchmarkstt.readthedocs.io/en/latest/modules/benchmarkstt.diff.html#benchmarkstt.diff.Base]] {
			+__init__(self, a='', b='')
			+get_opcodes(self)
		}
		class benchmarkstt.diff.core.RatcliffObershelp [[https://benchmarkstt.readthedocs.io/en/latest/modules/benchmarkstt.diff.core.html#benchmarkstt.diff.core.RatcliffObershelp]] {
			+__init__(self, a, b, *args, **kwargs)
			+find_longest_match(self, alo, ahi, blo, bhi)
			+get_grouped_opcodes(self, n=3)
			+get_matching_blocks(self)
			+get_opcodes(self)
			+quick_ratio(self)
			+ratio(self)
			+real_quick_ratio(self)
			+set_seq1(self, a)
			+set_seq2(self, b)
			+set_seqs(self, a, b)
		}

benchmarkstt.diff.formatter.CLIDiffDialect - -up- -|> benchmarkstt.diff.formatter.Dialect
benchmarkstt.diff.formatter.HTMLDiffDialect - -up- -|> benchmarkstt.diff.formatter.Dialect
benchmarkstt.diff.formatter.JSONDiffDialect - -up- -|> benchmarkstt.diff.formatter.ListDialect
benchmarkstt.diff.formatter.ListDialect - -up- -|> benchmarkstt.diff.formatter.Dialect
benchmarkstt.diff.formatter.RestructuredTextDialect - -up- -|> benchmarkstt.diff.formatter.CLIDiffDialect
benchmarkstt.diff.formatter.UTF8Dialect - -up- -|> benchmarkstt.diff.formatter.Dialect
benchmarkstt.diff.core.RatcliffObershelp - -up- -|> benchmarkstt.diff.Base
@enduml

PlantUML version 1.2020.15(Sun Jun 28 11:39:45 UTC 2020)
(GPL source distribution)
Java Runtime: OpenJDK Runtime Environment
JVM: OpenJDK 64-Bit Server VM
Default Encoding: UTF-8
Language: en
Country: BE
--></g></svg>