<?xml version="1.0" encoding="UTF-8" standalone="no"?><svg xmlns="http://www.w3.org/2000/svg" xmlns:xlink="http://www.w3.org/1999/xlink" contentScriptType="application/ecmascript" contentStyleType="text/css" height="321px" preserveAspectRatio="none" style="width:675px;height:321px;" version="1.1" viewBox="0 0 675 321" width="675px" zoomAndPan="magnify"><defs><filter height="300%" id="fkxp0f60wko5m" width="300%" x="-1" y="-1"><feGaussianBlur result="blurOut" stdDeviation="2.0"/><feColorMatrix in="blurOut" result="blurOut2" type="matrix" values="0 0 0 0 0 0 0 0 0 0 0 0 0 0 0 0 0 0 .4 0"/><feOffset dx="4.0" dy="4.0" in="blurOut2" result="blurOut3"/><feBlend in="SourceGraphic" in2="blurOut3" mode="normal"/></filter></defs><g><!--MD5=[94de2ef9dde389aecb44d7f232eba8a2]
cluster benchmarkstt.input--><rect fill="#FFFFFF" filter="url(#fkxp0f60wko5m)" height="115" style="stroke: #000000; stroke-width: 1.5;" width="156" x="255" y="7"/><path d="M405,8 L405,16.4883 L395,26.4883 L255,26.4883 " fill="none" style="stroke: #000000; stroke-width: 1.5;"/><text fill="#000000" font-family="sans-serif" font-size="14" font-weight="bold" lengthAdjust="spacingAndGlyphs" textLength="140" x="258" y="21.5352">benchmarkstt.input</text><!--MD5=[5c7a64d73ca244446f0e70026cf5d0bf]
cluster benchmarkstt.input.core--><rect fill="#FFFFFF" filter="url(#fkxp0f60wko5m)" height="158" style="stroke: #000000; stroke-width: 1.5;" width="651" x="7" y="146"/><path d="M190,147 L190,155.4883 L180,165.4883 L7,165.4883 " fill="none" style="stroke: #000000; stroke-width: 1.5;"/><text fill="#000000" font-family="sans-serif" font-size="14" font-weight="bold" lengthAdjust="spacingAndGlyphs" textLength="173" x="10" y="160.5352">benchmarkstt.input.core</text><!--MD5=[d1e904a0c11302288bad0868539b156c]
class benchmarkstt.input.Base--><a href="https://benchmarkstt.readthedocs.io/en/latest/modules/benchmarkstt.input.html#benchmarkstt.input.Base" target="_top" title="https://benchmarkstt.readthedocs.io/en/latest/modules/benchmarkstt.input.html#benchmarkstt.input.Base" xlink:actuate="onRequest" xlink:href="https://benchmarkstt.readthedocs.io/en/latest/modules/benchmarkstt.input.html#benchmarkstt.input.Base" xlink:show="new" xlink:title="https://benchmarkstt.readthedocs.io/en/latest/modules/benchmarkstt.input.html#benchmarkstt.input.Base" xlink:type="simple"><rect fill="#CCCCCC" filter="url(#fkxp0f60wko5m)" height="63.9102" id="benchmarkstt.input.Base" style="stroke: #AAAAAA; stroke-width: 1.5;" width="89" x="288.5" y="42"/><ellipse cx="316.25" cy="55" fill="#FF8800" rx="8" ry="8" style="stroke: #AAAAAA; stroke-width: 1.0;"/><path d="M316.3853,59.1558 Q315.4937,59.1558 314.739,58.8926 Q313.9844,58.6294 313.4419,58.1084 Q312.8994,57.5874 312.6013,56.8086 Q312.3032,56.0298 312.3032,55.0093 Q312.3032,54.0586 312.5879,53.2852 Q312.8726,52.5117 313.415,51.9585 Q313.936,51.4268 314.7068,51.1367 Q315.4775,50.8467 316.3906,50.8467 Q316.8955,50.8467 317.301,50.9031 Q317.7065,50.9595 318.0503,51.0508 Q318.4102,51.1528 318.7029,51.2791 Q318.9956,51.4053 319.2158,51.5127 L319.2158,53.4517 L318.9795,53.4517 Q318.8291,53.3228 318.6008,53.1455 Q318.3726,52.9683 318.0825,52.7964 Q317.7871,52.6245 317.4434,52.5063 Q317.0996,52.3882 316.7075,52.3882 Q316.2725,52.3882 315.8804,52.5251 Q315.4883,52.6621 315.1553,52.979 Q314.8384,53.2852 314.6423,53.79 Q314.4463,54.2949 314.4463,55.0146 Q314.4463,55.7666 314.6584,56.2715 Q314.8706,56.7764 315.1929,57.0664 Q315.5205,57.3618 315.9233,57.488 Q316.3262,57.6143 316.7183,57.6143 Q317.0942,57.6143 317.4622,57.5015 Q317.8301,57.3887 318.1416,57.1953 Q318.4048,57.0396 318.6304,56.8623 Q318.856,56.6851 319.001,56.5562 L319.2158,56.5562 L319.2158,58.4683 Q318.915,58.6025 318.6411,58.7207 Q318.3672,58.8389 318.0664,58.9248 Q317.6743,59.0376 317.3306,59.0967 Q316.9868,59.1558 316.3853,59.1558 Z "/><text fill="#000000" font-family="Verdana" font-size="11" lengthAdjust="spacingAndGlyphs" textLength="28" x="330.75" y="59.3748">Base</text><line style="stroke: #AAAAAA; stroke-width: 1.5;" x1="289.5" x2="376.5" y1="68" y2="68"/><ellipse cx="299.5" cy="95.9551" fill="#84BE84" rx="3" ry="3" style="stroke: #038048; stroke-width: 1.0;"/><text fill="#333333" font-family="sans-serif" font-size="11" lengthAdjust="spacingAndGlyphs" textLength="50" x="305.5" y="99.5898">__iter__()</text><line style="stroke: #AAAAAA; stroke-width: 1.0; stroke-dasharray: 1.0,2.0;" x1="289.5" x2="292.5" y1="82.4775" y2="82.4775"/><text fill="#333333" font-family="sans-serif" font-size="11" lengthAdjust="spacingAndGlyphs" textLength="81" x="292.5" y="86.1348">Public Methods</text><line style="stroke: #AAAAAA; stroke-width: 1.0; stroke-dasharray: 1.0,2.0;" x1="373.5" x2="376.5" y1="82.4775" y2="82.4775"/></a><!--MD5=[4843f7accda627844ca340f5d1efa37d]
class benchmarkstt.input.core.File--><a href="https://benchmarkstt.readthedocs.io/en/latest/modules/benchmarkstt.input.core.html#benchmarkstt.input.core.File" target="_top" title="https://benchmarkstt.readthedocs.io/en/latest/modules/benchmarkstt.input.core.html#benchmarkstt.input.core.File" xlink:actuate="onRequest" xlink:href="https://benchmarkstt.readthedocs.io/en/latest/modules/benchmarkstt.input.core.html#benchmarkstt.input.core.File" xlink:show="new" xlink:title="https://benchmarkstt.readthedocs.io/en/latest/modules/benchmarkstt.input.core.html#benchmarkstt.input.core.File" xlink:type="simple"><rect fill="#CCCCCC" filter="url(#fkxp0f60wko5m)" height="106.7754" id="benchmarkstt.input.core.File" style="stroke: #AAAAAA; stroke-width: 1.5;" width="289" x="352.5" y="181"/><ellipse cx="484" cy="194" fill="#FF8800" rx="8" ry="8" style="stroke: #AAAAAA; stroke-width: 1.0;"/><path d="M484.1353,198.1558 Q483.2437,198.1558 482.489,197.8926 Q481.7344,197.6294 481.1919,197.1084 Q480.6494,196.5874 480.3513,195.8086 Q480.0532,195.0298 480.0532,194.0093 Q480.0532,193.0586 480.3379,192.2852 Q480.6226,191.5117 481.165,190.9585 Q481.686,190.4268 482.4568,190.1367 Q483.2275,189.8467 484.1406,189.8467 Q484.6455,189.8467 485.051,189.9031 Q485.4565,189.9595 485.8003,190.0508 Q486.1602,190.1528 486.4529,190.2791 Q486.7456,190.4053 486.9658,190.5127 L486.9658,192.4517 L486.7295,192.4517 Q486.5791,192.3228 486.3508,192.1455 Q486.1226,191.9683 485.8325,191.7964 Q485.5371,191.6245 485.1934,191.5063 Q484.8496,191.3882 484.4575,191.3882 Q484.0225,191.3882 483.6304,191.5251 Q483.2383,191.6621 482.9053,191.979 Q482.5884,192.2852 482.3923,192.79 Q482.1963,193.2949 482.1963,194.0146 Q482.1963,194.7666 482.4084,195.2715 Q482.6206,195.7764 482.9429,196.0664 Q483.2705,196.3618 483.6733,196.488 Q484.0762,196.6143 484.4683,196.6143 Q484.8442,196.6143 485.2122,196.5015 Q485.5801,196.3887 485.8916,196.1953 Q486.1548,196.0396 486.3804,195.8623 Q486.606,195.6851 486.751,195.5562 L486.9658,195.5562 L486.9658,197.4683 Q486.665,197.6025 486.3911,197.7207 Q486.1172,197.8389 485.8164,197.9248 Q485.4243,198.0376 485.0806,198.0967 Q484.7368,198.1558 484.1353,198.1558 Z "/><text fill="#000000" font-family="Verdana" font-size="11" lengthAdjust="spacingAndGlyphs" textLength="19" x="500" y="198.3748">File</text><line style="stroke: #AAAAAA; stroke-width: 1.5;" x1="353.5" x2="640.5" y1="207" y2="207"/><ellipse cx="363.5" cy="234.9551" fill="#84BE84" rx="3" ry="3" style="stroke: #038048; stroke-width: 1.0;"/><text fill="#333333" font-family="sans-serif" font-size="11" lengthAdjust="spacingAndGlyphs" textLength="266" x="369.5" y="238.5898">__init__(file, input_type=None, normalizer=None)</text><ellipse cx="363.5" cy="247.9102" fill="#84BE84" rx="3" ry="3" style="stroke: #038048; stroke-width: 1.0;"/><text fill="#333333" font-family="sans-serif" font-size="11" lengthAdjust="spacingAndGlyphs" textLength="50" x="369.5" y="251.5449">__iter__()</text><line style="stroke: #AAAAAA; stroke-width: 1.0; stroke-dasharray: 1.0,2.0;" x1="353.5" x2="456.5" y1="221.4775" y2="221.4775"/><text fill="#333333" font-family="sans-serif" font-size="11" lengthAdjust="spacingAndGlyphs" textLength="81" x="456.5" y="225.1348">Public Methods</text><line style="stroke: #AAAAAA; stroke-width: 1.0; stroke-dasharray: 1.0,2.0;" x1="537.5" x2="640.5" y1="221.4775" y2="221.4775"/><ellipse cx="363.5" cy="277.8203" fill="#84BE84" rx="3" ry="3" style="stroke: #038048; stroke-width: 1.0;"/><text fill="#333333" font-family="sans-serif" font-size="11" lengthAdjust="spacingAndGlyphs" text-decoration="underline" textLength="89" x="369.5" y="281.4551">available_types()</text><line style="stroke: #AAAAAA; stroke-width: 1.0; stroke-dasharray: 1.0,2.0;" x1="353.5" x2="458" y1="264.3428" y2="264.3428"/><text fill="#333333" font-family="sans-serif" font-size="11" lengthAdjust="spacingAndGlyphs" textLength="78" x="458" y="268">Static Methods</text><line style="stroke: #AAAAAA; stroke-width: 1.0; stroke-dasharray: 1.0,2.0;" x1="536" x2="640.5" y1="264.3428" y2="264.3428"/></a><!--MD5=[3edd34d35203ceb4dd4fa63a3b0c665d]
class benchmarkstt.input.core.PlainText--><a href="https://benchmarkstt.readthedocs.io/en/latest/modules/benchmarkstt.input.core.html#benchmarkstt.input.core.PlainText" target="_top" title="https://benchmarkstt.readthedocs.io/en/latest/modules/benchmarkstt.input.core.html#benchmarkstt.input.core.PlainText" xlink:actuate="onRequest" xlink:href="https://benchmarkstt.readthedocs.io/en/latest/modules/benchmarkstt.input.core.html#benchmarkstt.input.core.PlainText" xlink:show="new" xlink:title="https://benchmarkstt.readthedocs.io/en/latest/modules/benchmarkstt.input.core.html#benchmarkstt.input.core.PlainText" xlink:type="simple"><rect fill="#CCCCCC" filter="url(#fkxp0f60wko5m)" height="76.8652" id="benchmarkstt.input.core.PlainText" style="stroke: #AAAAAA; stroke-width: 1.5;" width="294" x="23" y="196"/><ellipse cx="140.5" cy="209" fill="#FF8800" rx="8" ry="8" style="stroke: #AAAAAA; stroke-width: 1.0;"/><path d="M140.6353,213.1558 Q139.7437,213.1558 138.989,212.8926 Q138.2344,212.6294 137.6919,212.1084 Q137.1494,211.5874 136.8513,210.8086 Q136.5532,210.0298 136.5532,209.0093 Q136.5532,208.0586 136.8379,207.2852 Q137.1226,206.5117 137.665,205.9585 Q138.186,205.4268 138.9568,205.1367 Q139.7275,204.8467 140.6406,204.8467 Q141.1455,204.8467 141.551,204.9031 Q141.9565,204.9595 142.3003,205.0508 Q142.6602,205.1528 142.9529,205.2791 Q143.2456,205.4053 143.4658,205.5127 L143.4658,207.4517 L143.2295,207.4517 Q143.0791,207.3228 142.8508,207.1455 Q142.6226,206.9683 142.3325,206.7964 Q142.0371,206.6245 141.6934,206.5063 Q141.3496,206.3882 140.9575,206.3882 Q140.5225,206.3882 140.1304,206.5251 Q139.7383,206.6621 139.4053,206.979 Q139.0884,207.2852 138.8923,207.79 Q138.6963,208.2949 138.6963,209.0146 Q138.6963,209.7666 138.9084,210.2715 Q139.1206,210.7764 139.4429,211.0664 Q139.7705,211.3618 140.1733,211.488 Q140.5762,211.6143 140.9683,211.6143 Q141.3442,211.6143 141.7122,211.5015 Q142.0801,211.3887 142.3916,211.1953 Q142.6548,211.0396 142.8804,210.8623 Q143.106,210.6851 143.251,210.5562 L143.4658,210.5562 L143.4658,212.4683 Q143.165,212.6025 142.8911,212.7207 Q142.6172,212.8389 142.3164,212.9248 Q141.9243,213.0376 141.5806,213.0967 Q141.2368,213.1558 140.6353,213.1558 Z "/><text fill="#000000" font-family="Verdana" font-size="11" lengthAdjust="spacingAndGlyphs" textLength="52" x="156.5" y="213.3748">PlainText</text><line style="stroke: #AAAAAA; stroke-width: 1.5;" x1="24" x2="316" y1="222" y2="222"/><ellipse cx="34" cy="249.9551" fill="#84BE84" rx="3" ry="3" style="stroke: #038048; stroke-width: 1.0;"/><text fill="#333333" font-family="sans-serif" font-size="11" lengthAdjust="spacingAndGlyphs" textLength="271" x="40" y="253.5898">__init__(text, segmenter=None, normalizer=None)</text><ellipse cx="34" cy="262.9102" fill="#84BE84" rx="3" ry="3" style="stroke: #038048; stroke-width: 1.0;"/><text fill="#333333" font-family="sans-serif" font-size="11" lengthAdjust="spacingAndGlyphs" textLength="50" x="40" y="266.5449">__iter__()</text><line style="stroke: #AAAAAA; stroke-width: 1.0; stroke-dasharray: 1.0,2.0;" x1="24" x2="129.5" y1="236.4775" y2="236.4775"/><text fill="#333333" font-family="sans-serif" font-size="11" lengthAdjust="spacingAndGlyphs" textLength="81" x="129.5" y="240.1348">Public Methods</text><line style="stroke: #AAAAAA; stroke-width: 1.0; stroke-dasharray: 1.0,2.0;" x1="210.5" x2="316" y1="236.4775" y2="236.4775"/></a><!--MD5=[065a416e4c33abf0dffdc83d6e1bf045]
reverse link benchmarkstt.input.Base to benchmarkstt.input.core.File--><path d="M379.9,120.33 C399.39,139.16 422.15,161.16 442.39,180.72 " fill="none" id="benchmarkstt.input.Base&lt;-benchmarkstt.input.core.File" style="stroke: #000000; stroke-width: 1.0;"/><polygon fill="none" points="374.92,125.25,365.4,106.31,384.65,115.18,374.92,125.25" style="stroke: #000000; stroke-width: 1.0;"/><!--MD5=[3d607d7f67fd018830fa1d9f070f3dcc]
reverse link benchmarkstt.input.Base to benchmarkstt.input.core.PlainText--><path d="M286.28,120.43 C261.73,144.3 232,173.22 208.74,195.83 " fill="none" id="benchmarkstt.input.Base&lt;-benchmarkstt.input.core.PlainText" style="stroke: #000000; stroke-width: 1.0;"/><polygon fill="none" points="281.58,115.24,300.8,106.31,291.34,125.28,281.58,115.24" style="stroke: #000000; stroke-width: 1.0;"/><!--MD5=[f46aac6d6b66904925f65e60a96868bc]
@startuml

skinparam packageStyle Frame
!define LIGHTORANGE
!includeurl https://raw.githubusercontent.com/Drakemor/RedDress-PlantUML/master/style.puml
package benchmarkstt.input {

	class benchmarkstt.input.Base  [[https://benchmarkstt.readthedocs.io/en/latest/modules/benchmarkstt.input.html#benchmarkstt.input.Base]] {
		.. Public Methods ..
		+__iter__()
	}


}

package benchmarkstt.input.core {

	class benchmarkstt.input.core.File  [[https://benchmarkstt.readthedocs.io/en/latest/modules/benchmarkstt.input.core.html#benchmarkstt.input.core.File]] extends benchmarkstt.input.Base {
		.. Public Methods ..
		+__init__(file, input_type=None, normalizer=None)
		+__iter__()
		.. Static Methods ..
		{static} +available_types()
	}


	class benchmarkstt.input.core.PlainText  [[https://benchmarkstt.readthedocs.io/en/latest/modules/benchmarkstt.input.core.html#benchmarkstt.input.core.PlainText]] extends benchmarkstt.input.Base {
		.. Public Methods ..
		+__init__(text, segmenter=None, normalizer=None)
		+__iter__()
	}

}




@enduml

@startuml

skinparam packageStyle Frame










skinparam stereotypeCBackgroundColor FF8800

skinparam backgroundColor fff








skinparam circledCharacter {
  radius 8
  fontSize 11
  fontName Verdana
}

skinparam class {
    backgroundColor ccc
  borderColor aaa
    fontColor 000
  fontName Verdana
  fontSize 11
  stereotypeFontColor 333
  stereotypeFontSize 11
    arrowColor 000
  arrowFontName Verdana
  arrowFontColor 333
  arrowFontSize 11

  attributeFontColor 333
  attributeFontSize 11
  attributeIconSize 11
}


skinparam actor {
    backgroundColor FF8800
  borderColor BB6600
    fontColor 000
  fontName Verdana
  fontSize 11
  stereotypeFontColor 333
  stereotypeFontSize 11
}

skinparam participant {
    backgroundColor ccc
  borderColor aaa
    fontColor 000
  fontName Verdana
  fontSize 11
  stereotypeFontColor 333
  stereotypeFontSize 11
}

skinparam collections {
    backgroundColor ccc
  borderColor aaa
    fontColor 000
  fontName Verdana
  fontSize 11
  stereotypeFontColor 333
  stereotypeFontSize 11
}

skinparam SequenceBox{
    backgroundColor e0e0e0
  borderColor cccccc
    fontColor 000
  fontName Verdana
  fontSize 11
  stereotypeFontColor 333
  stereotypeFontSize 11
}


skinparam interface {
    backgroundColor FF8800
  borderColor BB6600
    fontColor 000
  fontName Verdana
  fontSize 11
  stereotypeFontColor 333
  stereotypeFontSize 11
}

skinparam component {
    backgroundColor ccc
  borderColor aaa
    fontColor 000
  fontName Verdana
  fontSize 11
  stereotypeFontColor 333
  stereotypeFontSize 11
}

skinparam node {
    backgroundColor ccc
  borderColor aaa
    fontColor 000
  fontName Verdana
  fontSize 11
  stereotypeFontColor 333
  stereotypeFontSize 11
}

skinparam database {
    backgroundColor ccc
  borderColor aaa
    fontColor 000
  fontName Verdana
  fontSize 11
  stereotypeFontColor 333
  stereotypeFontSize 11
}

skinparam queue {
    backgroundColor ccc
  borderColor aaa
    fontColor 000
  fontName Verdana
  fontSize 11
  stereotypeFontColor 333
  stereotypeFontSize 11
}


skinparam usecase {
    backgroundColor ccc
  borderColor aaa
    fontColor 000
  fontName Verdana
  fontSize 11
  stereotypeFontColor 333
  stereotypeFontSize 11
    arrowColor 000
  arrowFontName Verdana
  arrowFontColor 333
  arrowFontSize 11
}

skinparam activity {
    backgroundColor ccc
  borderColor aaa
    fontColor 000
  fontName Verdana
  fontSize 11
  stereotypeFontColor 333
  stereotypeFontSize 11
    arrowColor 000
  arrowFontName Verdana
  arrowFontColor 333
  arrowFontSize 11
}

skinparam sequence {
    fontColor 000
  fontName Verdana
  fontSize 11
  stereotypeFontColor 333
  stereotypeFontSize 11
    arrowColor 000
  arrowFontName Verdana
  arrowFontColor 333
  arrowFontSize 11

  lifeLineBorderColor FF8800
  lifeLineBackgroundColor e0e0e0
}

skinparam boundary {
    backgroundColor FF8800
  borderColor BB6600
    fontColor 000
  fontName Verdana
  fontSize 11
  stereotypeFontColor 333
  stereotypeFontSize 11
}

skinparam control {
    backgroundColor FF8800
  borderColor BB6600
    fontColor 000
  fontName Verdana
  fontSize 11
  stereotypeFontColor 333
  stereotypeFontSize 11
}

skinparam entity {
    backgroundColor FF8800
  borderColor BB6600
    fontColor 000
  fontName Verdana
  fontSize 11
  stereotypeFontColor 333
  stereotypeFontSize 11
}


skinparam state {
    backgroundColor ccc
  borderColor aaa
    fontColor 000
  fontName Verdana
  fontSize 11
  stereotypeFontColor 333
  stereotypeFontSize 11
    arrowColor 000
  arrowFontName Verdana
  arrowFontColor 333
  arrowFontSize 11
  startColor FF8800
  endColor BB6600
}


skinparam object {
    backgroundColor ccc
  borderColor aaa
    fontColor 000
  fontName Verdana
  fontSize 11
  stereotypeFontColor 333
  stereotypeFontSize 11
    arrowColor 000
  arrowFontName Verdana
  arrowFontColor 333
  arrowFontSize 11
}


skinparam note {
    backgroundColor FF8800
  borderColor BB6600
    fontColor 000
  fontName Verdana
  fontSize 11
  stereotypeFontColor 333
  stereotypeFontSize 11
}

skinparam cloud {
    backgroundColor ccc
  borderColor aaa
    fontColor 000
  fontName Verdana
  fontSize 11
  stereotypeFontColor 333
  stereotypeFontSize 11
    arrowColor 000
  arrowFontName Verdana
  arrowFontColor 333
  arrowFontSize 11
}

skinparam rectangle {
    backgroundColor ccc
  borderColor aaa
    fontColor 000
  fontName Verdana
  fontSize 11
  stereotypeFontColor 333
  stereotypeFontSize 11
}

skinparam storage {
    backgroundColor ccc
  borderColor aaa
    fontColor 000
  fontName Verdana
  fontSize 11
  stereotypeFontColor 333
  stereotypeFontSize 11
}

package benchmarkstt.input {

	class benchmarkstt.input.Base  [[https://benchmarkstt.readthedocs.io/en/latest/modules/benchmarkstt.input.html#benchmarkstt.input.Base]] {
		.. Public Methods ..
		+__iter__()
	}


}

package benchmarkstt.input.core {

	class benchmarkstt.input.core.File  [[https://benchmarkstt.readthedocs.io/en/latest/modules/benchmarkstt.input.core.html#benchmarkstt.input.core.File]] extends benchmarkstt.input.Base {
		.. Public Methods ..
		+__init__(file, input_type=None, normalizer=None)
		+__iter__()
		.. Static Methods ..
		{static} +available_types()
	}


	class benchmarkstt.input.core.PlainText  [[https://benchmarkstt.readthedocs.io/en/latest/modules/benchmarkstt.input.core.html#benchmarkstt.input.core.PlainText]] extends benchmarkstt.input.Base {
		.. Public Methods ..
		+__init__(text, segmenter=None, normalizer=None)
		+__iter__()
	}

}




@enduml

PlantUML version 1.2020.15(Sun Jun 28 13:39:45 CEST 2020)
(GPL source distribution)
Java Runtime: OpenJDK Runtime Environment
JVM: OpenJDK 64-Bit Server VM
Default Encoding: UTF-8
Language: en
Country: BE
--></g></svg>