<?xml version="1.0" encoding="UTF-8" standalone="no"?><svg xmlns="http://www.w3.org/2000/svg" xmlns:xlink="http://www.w3.org/1999/xlink" contentScriptType="application/ecmascript" contentStyleType="text/css" height="342px" preserveAspectRatio="none" style="width:675px;height:342px;" version="1.1" viewBox="0 0 675 342" width="675px" zoomAndPan="magnify"><defs><filter height="300%" id="f1we6iuxqarurm" width="300%" x="-1" y="-1"><feGaussianBlur result="blurOut" stdDeviation="2.0"/><feColorMatrix in="blurOut" result="blurOut2" type="matrix" values="0 0 0 0 0 0 0 0 0 0 0 0 0 0 0 0 0 0 .4 0"/><feOffset dx="4.0" dy="4.0" in="blurOut2" result="blurOut3"/><feBlend in="SourceGraphic" in2="blurOut3" mode="normal"/></filter></defs><g><text fill="#000000" font-family="sans-serif" font-size="18" lengthAdjust="spacingAndGlyphs" textLength="171" x="243" y="17.4023">benchmarkstt.input</text><!--MD5=[94de2ef9dde389aecb44d7f232eba8a2]
cluster benchmarkstt.input--><rect fill="#FFFFFF" filter="url(#f1we6iuxqarurm)" height="115" style="stroke: #000000; stroke-width: 1.5;" width="156" x="255" y="28.1992"/><path d="M405,29.1992 L405,37.6875 L395,47.6875 L255,47.6875 " fill="none" style="stroke: #000000; stroke-width: 1.5;"/><text fill="#000000" font-family="sans-serif" font-size="14" font-weight="bold" lengthAdjust="spacingAndGlyphs" textLength="140" x="258" y="42.7344">benchmarkstt.input</text><!--MD5=[5c7a64d73ca244446f0e70026cf5d0bf]
cluster benchmarkstt.input.core--><rect fill="#FFFFFF" filter="url(#f1we6iuxqarurm)" height="158" style="stroke: #000000; stroke-width: 1.5;" width="651" x="7" y="167.1992"/><path d="M190,168.1992 L190,176.6875 L180,186.6875 L7,186.6875 " fill="none" style="stroke: #000000; stroke-width: 1.5;"/><text fill="#000000" font-family="sans-serif" font-size="14" font-weight="bold" lengthAdjust="spacingAndGlyphs" textLength="173" x="10" y="181.7344">benchmarkstt.input.core</text><!--MD5=[d1e904a0c11302288bad0868539b156c]
class benchmarkstt.input.Base--><a href="https://benchmarkstt.readthedocs.io/en/latest/modules/benchmarkstt.input.html#benchmarkstt.input.Base" target="_top" title="https://benchmarkstt.readthedocs.io/en/latest/modules/benchmarkstt.input.html#benchmarkstt.input.Base" xlink:actuate="onRequest" xlink:href="https://benchmarkstt.readthedocs.io/en/latest/modules/benchmarkstt.input.html#benchmarkstt.input.Base" xlink:show="new" xlink:title="https://benchmarkstt.readthedocs.io/en/latest/modules/benchmarkstt.input.html#benchmarkstt.input.Base" xlink:type="simple"><rect fill="#CCCCCC" filter="url(#f1we6iuxqarurm)" height="63.9102" id="benchmarkstt.input.Base" style="stroke: #AAAAAA; stroke-width: 1.5;" width="89" x="288.5" y="63.1992"/><ellipse cx="316.25" cy="76.1992" fill="#FF8800" rx="8" ry="8" style="stroke: #AAAAAA; stroke-width: 1.0;"/><path d="M316.3853,80.355 Q315.4937,80.355 314.739,80.0918 Q313.9844,79.8286 313.4419,79.3076 Q312.8994,78.7866 312.6013,78.0078 Q312.3032,77.229 312.3032,76.2085 Q312.3032,75.2578 312.5879,74.4844 Q312.8726,73.7109 313.415,73.1577 Q313.936,72.626 314.7068,72.3359 Q315.4775,72.0459 316.3906,72.0459 Q316.8955,72.0459 317.301,72.1023 Q317.7065,72.1587 318.0503,72.25 Q318.4102,72.3521 318.7029,72.4783 Q318.9956,72.6045 319.2158,72.7119 L319.2158,74.6509 L318.9795,74.6509 Q318.8291,74.522 318.6008,74.3447 Q318.3726,74.1675 318.0825,73.9956 Q317.7871,73.8237 317.4434,73.7056 Q317.0996,73.5874 316.7075,73.5874 Q316.2725,73.5874 315.8804,73.7244 Q315.4883,73.8613 315.1553,74.1782 Q314.8384,74.4844 314.6423,74.9893 Q314.4463,75.4941 314.4463,76.2139 Q314.4463,76.9658 314.6584,77.4707 Q314.8706,77.9756 315.1929,78.2656 Q315.5205,78.561 315.9233,78.6873 Q316.3262,78.8135 316.7183,78.8135 Q317.0942,78.8135 317.4622,78.7007 Q317.8301,78.5879 318.1416,78.3945 Q318.4048,78.2388 318.6304,78.0615 Q318.856,77.8843 319.001,77.7554 L319.2158,77.7554 L319.2158,79.6675 Q318.915,79.8018 318.6411,79.9199 Q318.3672,80.0381 318.0664,80.124 Q317.6743,80.2368 317.3306,80.2959 Q316.9868,80.355 316.3853,80.355 Z "/><text fill="#000000" font-family="Verdana" font-size="11" lengthAdjust="spacingAndGlyphs" textLength="28" x="330.75" y="80.574">Base</text><line style="stroke: #AAAAAA; stroke-width: 1.5;" x1="289.5" x2="376.5" y1="89.1992" y2="89.1992"/><ellipse cx="299.5" cy="117.1543" fill="#84BE84" rx="3" ry="3" style="stroke: #038048; stroke-width: 1.0;"/><text fill="#333333" font-family="sans-serif" font-size="11" lengthAdjust="spacingAndGlyphs" textLength="50" x="305.5" y="120.7891">__iter__()</text><line style="stroke: #AAAAAA; stroke-width: 1.0; stroke-dasharray: 1.0,2.0;" x1="289.5" x2="292.5" y1="103.6768" y2="103.6768"/><text fill="#333333" font-family="sans-serif" font-size="11" lengthAdjust="spacingAndGlyphs" textLength="81" x="292.5" y="107.334">Public Methods</text><line style="stroke: #AAAAAA; stroke-width: 1.0; stroke-dasharray: 1.0,2.0;" x1="373.5" x2="376.5" y1="103.6768" y2="103.6768"/></a><!--MD5=[4843f7accda627844ca340f5d1efa37d]
class benchmarkstt.input.core.File--><a href="https://benchmarkstt.readthedocs.io/en/latest/modules/benchmarkstt.input.core.html#benchmarkstt.input.core.File" target="_top" title="https://benchmarkstt.readthedocs.io/en/latest/modules/benchmarkstt.input.core.html#benchmarkstt.input.core.File" xlink:actuate="onRequest" xlink:href="https://benchmarkstt.readthedocs.io/en/latest/modules/benchmarkstt.input.core.html#benchmarkstt.input.core.File" xlink:show="new" xlink:title="https://benchmarkstt.readthedocs.io/en/latest/modules/benchmarkstt.input.core.html#benchmarkstt.input.core.File" xlink:type="simple"><rect fill="#CCCCCC" filter="url(#f1we6iuxqarurm)" height="106.7754" id="benchmarkstt.input.core.File" style="stroke: #AAAAAA; stroke-width: 1.5;" width="289" x="352.5" y="202.1992"/><ellipse cx="484" cy="215.1992" fill="#FF8800" rx="8" ry="8" style="stroke: #AAAAAA; stroke-width: 1.0;"/><path d="M484.1353,219.355 Q483.2437,219.355 482.489,219.0918 Q481.7344,218.8286 481.1919,218.3076 Q480.6494,217.7866 480.3513,217.0078 Q480.0532,216.229 480.0532,215.2085 Q480.0532,214.2578 480.3379,213.4844 Q480.6226,212.7109 481.165,212.1577 Q481.686,211.626 482.4568,211.3359 Q483.2275,211.0459 484.1406,211.0459 Q484.6455,211.0459 485.051,211.1023 Q485.4565,211.1587 485.8003,211.25 Q486.1602,211.3521 486.4529,211.4783 Q486.7456,211.6045 486.9658,211.7119 L486.9658,213.6509 L486.7295,213.6509 Q486.5791,213.522 486.3508,213.3447 Q486.1226,213.1675 485.8325,212.9956 Q485.5371,212.8237 485.1934,212.7056 Q484.8496,212.5874 484.4575,212.5874 Q484.0225,212.5874 483.6304,212.7244 Q483.2383,212.8613 482.9053,213.1782 Q482.5884,213.4844 482.3923,213.9893 Q482.1963,214.4941 482.1963,215.2139 Q482.1963,215.9658 482.4084,216.4707 Q482.6206,216.9756 482.9429,217.2656 Q483.2705,217.561 483.6733,217.6873 Q484.0762,217.8135 484.4683,217.8135 Q484.8442,217.8135 485.2122,217.7007 Q485.5801,217.5879 485.8916,217.3945 Q486.1548,217.2388 486.3804,217.0615 Q486.606,216.8843 486.751,216.7554 L486.9658,216.7554 L486.9658,218.6675 Q486.665,218.8018 486.3911,218.9199 Q486.1172,219.0381 485.8164,219.124 Q485.4243,219.2368 485.0806,219.2959 Q484.7368,219.355 484.1353,219.355 Z "/><text fill="#000000" font-family="Verdana" font-size="11" lengthAdjust="spacingAndGlyphs" textLength="19" x="500" y="219.574">File</text><line style="stroke: #AAAAAA; stroke-width: 1.5;" x1="353.5" x2="640.5" y1="228.1992" y2="228.1992"/><ellipse cx="363.5" cy="256.1543" fill="#84BE84" rx="3" ry="3" style="stroke: #038048; stroke-width: 1.0;"/><text fill="#333333" font-family="sans-serif" font-size="11" lengthAdjust="spacingAndGlyphs" textLength="266" x="369.5" y="259.7891">__init__(file, input_type=None, normalizer=None)</text><ellipse cx="363.5" cy="269.1094" fill="#84BE84" rx="3" ry="3" style="stroke: #038048; stroke-width: 1.0;"/><text fill="#333333" font-family="sans-serif" font-size="11" lengthAdjust="spacingAndGlyphs" textLength="50" x="369.5" y="272.7441">__iter__()</text><line style="stroke: #AAAAAA; stroke-width: 1.0; stroke-dasharray: 1.0,2.0;" x1="353.5" x2="456.5" y1="242.6768" y2="242.6768"/><text fill="#333333" font-family="sans-serif" font-size="11" lengthAdjust="spacingAndGlyphs" textLength="81" x="456.5" y="246.334">Public Methods</text><line style="stroke: #AAAAAA; stroke-width: 1.0; stroke-dasharray: 1.0,2.0;" x1="537.5" x2="640.5" y1="242.6768" y2="242.6768"/><ellipse cx="363.5" cy="299.0195" fill="#84BE84" rx="3" ry="3" style="stroke: #038048; stroke-width: 1.0;"/><text fill="#333333" font-family="sans-serif" font-size="11" lengthAdjust="spacingAndGlyphs" text-decoration="underline" textLength="89" x="369.5" y="302.6543">available_types()</text><line style="stroke: #AAAAAA; stroke-width: 1.0; stroke-dasharray: 1.0,2.0;" x1="353.5" x2="458" y1="285.542" y2="285.542"/><text fill="#333333" font-family="sans-serif" font-size="11" lengthAdjust="spacingAndGlyphs" textLength="78" x="458" y="289.1992">Static Methods</text><line style="stroke: #AAAAAA; stroke-width: 1.0; stroke-dasharray: 1.0,2.0;" x1="536" x2="640.5" y1="285.542" y2="285.542"/></a><!--MD5=[3edd34d35203ceb4dd4fa63a3b0c665d]
class benchmarkstt.input.core.PlainText--><a href="https://benchmarkstt.readthedocs.io/en/latest/modules/benchmarkstt.input.core.html#benchmarkstt.input.core.PlainText" target="_top" title="https://benchmarkstt.readthedocs.io/en/latest/modules/benchmarkstt.input.core.html#benchmarkstt.input.core.PlainText" xlink:actuate="onRequest" xlink:href="https://benchmarkstt.readthedocs.io/en/latest/modules/benchmarkstt.input.core.html#benchmarkstt.input.core.PlainText" xlink:show="new" xlink:title="https://benchmarkstt.readthedocs.io/en/latest/modules/benchmarkstt.input.core.html#benchmarkstt.input.core.PlainText" xlink:type="simple"><rect fill="#CCCCCC" filter="url(#f1we6iuxqarurm)" height="76.8652" id="benchmarkstt.input.core.PlainText" style="stroke: #AAAAAA; stroke-width: 1.5;" width="294" x="23" y="217.1992"/><ellipse cx="140.5" cy="230.1992" fill="#FF8800" rx="8" ry="8" style="stroke: #AAAAAA; stroke-width: 1.0;"/><path d="M140.6353,234.355 Q139.7437,234.355 138.989,234.0918 Q138.2344,233.8286 137.6919,233.3076 Q137.1494,232.7866 136.8513,232.0078 Q136.5532,231.229 136.5532,230.2085 Q136.5532,229.2578 136.8379,228.4844 Q137.1226,227.7109 137.665,227.1577 Q138.186,226.626 138.9568,226.3359 Q139.7275,226.0459 140.6406,226.0459 Q141.1455,226.0459 141.551,226.1023 Q141.9565,226.1587 142.3003,226.25 Q142.6602,226.3521 142.9529,226.4783 Q143.2456,226.6045 143.4658,226.7119 L143.4658,228.6509 L143.2295,228.6509 Q143.0791,228.522 142.8508,228.3447 Q142.6226,228.1675 142.3325,227.9956 Q142.0371,227.8237 141.6934,227.7056 Q141.3496,227.5874 140.9575,227.5874 Q140.5225,227.5874 140.1304,227.7244 Q139.7383,227.8613 139.4053,228.1782 Q139.0884,228.4844 138.8923,228.9893 Q138.6963,229.4941 138.6963,230.2139 Q138.6963,230.9658 138.9084,231.4707 Q139.1206,231.9756 139.4429,232.2656 Q139.7705,232.561 140.1733,232.6873 Q140.5762,232.8135 140.9683,232.8135 Q141.3442,232.8135 141.7122,232.7007 Q142.0801,232.5879 142.3916,232.3945 Q142.6548,232.2388 142.8804,232.0615 Q143.106,231.8843 143.251,231.7554 L143.4658,231.7554 L143.4658,233.6675 Q143.165,233.8018 142.8911,233.9199 Q142.6172,234.0381 142.3164,234.124 Q141.9243,234.2368 141.5806,234.2959 Q141.2368,234.355 140.6353,234.355 Z "/><text fill="#000000" font-family="Verdana" font-size="11" lengthAdjust="spacingAndGlyphs" textLength="52" x="156.5" y="234.574">PlainText</text><line style="stroke: #AAAAAA; stroke-width: 1.5;" x1="24" x2="316" y1="243.1992" y2="243.1992"/><ellipse cx="34" cy="271.1543" fill="#84BE84" rx="3" ry="3" style="stroke: #038048; stroke-width: 1.0;"/><text fill="#333333" font-family="sans-serif" font-size="11" lengthAdjust="spacingAndGlyphs" textLength="271" x="40" y="274.7891">__init__(text, segmenter=None, normalizer=None)</text><ellipse cx="34" cy="284.1094" fill="#84BE84" rx="3" ry="3" style="stroke: #038048; stroke-width: 1.0;"/><text fill="#333333" font-family="sans-serif" font-size="11" lengthAdjust="spacingAndGlyphs" textLength="50" x="40" y="287.7441">__iter__()</text><line style="stroke: #AAAAAA; stroke-width: 1.0; stroke-dasharray: 1.0,2.0;" x1="24" x2="129.5" y1="257.6768" y2="257.6768"/><text fill="#333333" font-family="sans-serif" font-size="11" lengthAdjust="spacingAndGlyphs" textLength="81" x="129.5" y="261.334">Public Methods</text><line style="stroke: #AAAAAA; stroke-width: 1.0; stroke-dasharray: 1.0,2.0;" x1="210.5" x2="316" y1="257.6768" y2="257.6768"/></a><!--MD5=[065a416e4c33abf0dffdc83d6e1bf045]
reverse link benchmarkstt.input.Base to benchmarkstt.input.core.File--><path d="M379.9,141.5292 C399.39,160.3592 422.15,182.3592 442.39,201.9192 " fill="none" id="benchmarkstt.input.Base&lt;-benchmarkstt.input.core.File" style="stroke: #000000; stroke-width: 1.0;"/><polygon fill="none" points="374.92,146.4492,365.4,127.5092,384.65,136.3792,374.92,146.4492" style="stroke: #000000; stroke-width: 1.0;"/><!--MD5=[3d607d7f67fd018830fa1d9f070f3dcc]
reverse link benchmarkstt.input.Base to benchmarkstt.input.core.PlainText--><path d="M286.28,141.6292 C261.73,165.4992 232,194.4192 208.74,217.0292 " fill="none" id="benchmarkstt.input.Base&lt;-benchmarkstt.input.core.PlainText" style="stroke: #000000; stroke-width: 1.0;"/><polygon fill="none" points="281.58,136.4392,300.8,127.5092,291.34,146.4792,281.58,136.4392" style="stroke: #000000; stroke-width: 1.0;"/><!--MD5=[0c80c0180765f708047500273bb6004d]
@startuml

title benchmarkstt.input

skinparam packageStyle Frame
!define LIGHTORANGE
!includeurl https://raw.githubusercontent.com/Drakemor/RedDress-PlantUML/master/style.puml
package benchmarkstt.input {

	class benchmarkstt.input.Base  [[https://benchmarkstt.readthedocs.io/en/latest/modules/benchmarkstt.input.html#benchmarkstt.input.Base]] {
		.. Public Methods ..
		+__iter__()
	}


}

package benchmarkstt.input.core {

	class benchmarkstt.input.core.File  [[https://benchmarkstt.readthedocs.io/en/latest/modules/benchmarkstt.input.core.html#benchmarkstt.input.core.File]] extends benchmarkstt.input.Base {
		.. Public Methods ..
		+__init__(file, input_type=None, normalizer=None)
		+__iter__()
		.. Static Methods ..
		{static} +available_types()
	}


	class benchmarkstt.input.core.PlainText  [[https://benchmarkstt.readthedocs.io/en/latest/modules/benchmarkstt.input.core.html#benchmarkstt.input.core.PlainText]] extends benchmarkstt.input.Base {
		.. Public Methods ..
		+__init__(text, segmenter=None, normalizer=None)
		+__iter__()
	}

}




@enduml

@startuml

title benchmarkstt.input

skinparam packageStyle Frame










skinparam stereotypeCBackgroundColor FF8800

skinparam backgroundColor fff








skinparam circledCharacter {
  radius 8
  fontSize 11
  fontName Verdana
}

skinparam class {
    backgroundColor ccc
  borderColor aaa
    fontColor 000
  fontName Verdana
  fontSize 11
  stereotypeFontColor 333
  stereotypeFontSize 11
    arrowColor 000
  arrowFontName Verdana
  arrowFontColor 333
  arrowFontSize 11

  attributeFontColor 333
  attributeFontSize 11
  attributeIconSize 11
}


skinparam actor {
    backgroundColor FF8800
  borderColor BB6600
    fontColor 000
  fontName Verdana
  fontSize 11
  stereotypeFontColor 333
  stereotypeFontSize 11
}

skinparam participant {
    backgroundColor ccc
  borderColor aaa
    fontColor 000
  fontName Verdana
  fontSize 11
  stereotypeFontColor 333
  stereotypeFontSize 11
}

skinparam collections {
    backgroundColor ccc
  borderColor aaa
    fontColor 000
  fontName Verdana
  fontSize 11
  stereotypeFontColor 333
  stereotypeFontSize 11
}

skinparam SequenceBox{
    backgroundColor e0e0e0
  borderColor cccccc
    fontColor 000
  fontName Verdana
  fontSize 11
  stereotypeFontColor 333
  stereotypeFontSize 11
}


skinparam interface {
    backgroundColor FF8800
  borderColor BB6600
    fontColor 000
  fontName Verdana
  fontSize 11
  stereotypeFontColor 333
  stereotypeFontSize 11
}

skinparam component {
    backgroundColor ccc
  borderColor aaa
    fontColor 000
  fontName Verdana
  fontSize 11
  stereotypeFontColor 333
  stereotypeFontSize 11
}

skinparam node {
    backgroundColor ccc
  borderColor aaa
    fontColor 000
  fontName Verdana
  fontSize 11
  stereotypeFontColor 333
  stereotypeFontSize 11
}

skinparam database {
    backgroundColor ccc
  borderColor aaa
    fontColor 000
  fontName Verdana
  fontSize 11
  stereotypeFontColor 333
  stereotypeFontSize 11
}

skinparam queue {
    backgroundColor ccc
  borderColor aaa
    fontColor 000
  fontName Verdana
  fontSize 11
  stereotypeFontColor 333
  stereotypeFontSize 11
}


skinparam usecase {
    backgroundColor ccc
  borderColor aaa
    fontColor 000
  fontName Verdana
  fontSize 11
  stereotypeFontColor 333
  stereotypeFontSize 11
    arrowColor 000
  arrowFontName Verdana
  arrowFontColor 333
  arrowFontSize 11
}

skinparam activity {
    backgroundColor ccc
  borderColor aaa
    fontColor 000
  fontName Verdana
  fontSize 11
  stereotypeFontColor 333
  stereotypeFontSize 11
    arrowColor 000
  arrowFontName Verdana
  arrowFontColor 333
  arrowFontSize 11
}

skinparam sequence {
    fontColor 000
  fontName Verdana
  fontSize 11
  stereotypeFontColor 333
  stereotypeFontSize 11
    arrowColor 000
  arrowFontName Verdana
  arrowFontColor 333
  arrowFontSize 11

  lifeLineBorderColor FF8800
  lifeLineBackgroundColor e0e0e0
}

skinparam boundary {
    backgroundColor FF8800
  borderColor BB6600
    fontColor 000
  fontName Verdana
  fontSize 11
  stereotypeFontColor 333
  stereotypeFontSize 11
}

skinparam control {
    backgroundColor FF8800
  borderColor BB6600
    fontColor 000
  fontName Verdana
  fontSize 11
  stereotypeFontColor 333
  stereotypeFontSize 11
}

skinparam entity {
    backgroundColor FF8800
  borderColor BB6600
    fontColor 000
  fontName Verdana
  fontSize 11
  stereotypeFontColor 333
  stereotypeFontSize 11
}


skinparam state {
    backgroundColor ccc
  borderColor aaa
    fontColor 000
  fontName Verdana
  fontSize 11
  stereotypeFontColor 333
  stereotypeFontSize 11
    arrowColor 000
  arrowFontName Verdana
  arrowFontColor 333
  arrowFontSize 11
  startColor FF8800
  endColor BB6600
}


skinparam object {
    backgroundColor ccc
  borderColor aaa
    fontColor 000
  fontName Verdana
  fontSize 11
  stereotypeFontColor 333
  stereotypeFontSize 11
    arrowColor 000
  arrowFontName Verdana
  arrowFontColor 333
  arrowFontSize 11
}


skinparam note {
    backgroundColor FF8800
  borderColor BB6600
    fontColor 000
  fontName Verdana
  fontSize 11
  stereotypeFontColor 333
  stereotypeFontSize 11
}

skinparam cloud {
    backgroundColor ccc
  borderColor aaa
    fontColor 000
  fontName Verdana
  fontSize 11
  stereotypeFontColor 333
  stereotypeFontSize 11
    arrowColor 000
  arrowFontName Verdana
  arrowFontColor 333
  arrowFontSize 11
}

skinparam rectangle {
    backgroundColor ccc
  borderColor aaa
    fontColor 000
  fontName Verdana
  fontSize 11
  stereotypeFontColor 333
  stereotypeFontSize 11
}

skinparam storage {
    backgroundColor ccc
  borderColor aaa
    fontColor 000
  fontName Verdana
  fontSize 11
  stereotypeFontColor 333
  stereotypeFontSize 11
}

package benchmarkstt.input {

	class benchmarkstt.input.Base  [[https://benchmarkstt.readthedocs.io/en/latest/modules/benchmarkstt.input.html#benchmarkstt.input.Base]] {
		.. Public Methods ..
		+__iter__()
	}


}

package benchmarkstt.input.core {

	class benchmarkstt.input.core.File  [[https://benchmarkstt.readthedocs.io/en/latest/modules/benchmarkstt.input.core.html#benchmarkstt.input.core.File]] extends benchmarkstt.input.Base {
		.. Public Methods ..
		+__init__(file, input_type=None, normalizer=None)
		+__iter__()
		.. Static Methods ..
		{static} +available_types()
	}


	class benchmarkstt.input.core.PlainText  [[https://benchmarkstt.readthedocs.io/en/latest/modules/benchmarkstt.input.core.html#benchmarkstt.input.core.PlainText]] extends benchmarkstt.input.Base {
		.. Public Methods ..
		+__init__(text, segmenter=None, normalizer=None)
		+__iter__()
	}

}




@enduml

PlantUML version 1.2020.15(Sun Jun 28 13:39:45 CEST 2020)
(GPL source distribution)
Java Runtime: OpenJDK Runtime Environment
JVM: OpenJDK 64-Bit Server VM
Default Encoding: UTF-8
Language: en
Country: BE
--></g></svg>