<?xml version="1.0" encoding="UTF-8" standalone="no"?><svg xmlns="http://www.w3.org/2000/svg" xmlns:xlink="http://www.w3.org/1999/xlink" contentScriptType="application/ecmascript" contentStyleType="text/css" height="394px" preserveAspectRatio="none" style="width:745px;height:394px;" version="1.1" viewBox="0 0 745 394" width="745px" zoomAndPan="magnify"><defs><filter height="300%" id="f1i8bpvau4elov" width="300%" x="-1" y="-1"><feGaussianBlur result="blurOut" stdDeviation="2.0"/><feColorMatrix in="blurOut" result="blurOut2" type="matrix" values="0 0 0 0 0 0 0 0 0 0 0 0 0 0 0 0 0 0 .4 0"/><feOffset dx="4.0" dy="4.0" in="blurOut2" result="blurOut3"/><feBlend in="SourceGraphic" in2="blurOut3" mode="normal"/></filter></defs><g><text fill="#000000" font-family="sans-serif" font-size="18" lengthAdjust="spacingAndGlyphs" textLength="170" x="278.5" y="17.4023">Benchmarkstt.input</text><!--MD5=[5c7a64d73ca244446f0e70026cf5d0bf]
cluster benchmarkstt.input.core--><polygon fill="#FFFFFF" filter="url(#f1i8bpvau4elov)" points="16,257.1992,195,257.1992,202,279.6875,723,279.6875,723,382.1992,16,382.1992,16,257.1992" style="stroke: #000000; stroke-width: 1.5;"/><line style="stroke: #000000; stroke-width: 1.5;" x1="16" x2="202" y1="279.6875" y2="279.6875"/><text fill="#000000" font-family="sans-serif" font-size="14" font-weight="bold" lengthAdjust="spacingAndGlyphs" textLength="173" x="20" y="272.7344">benchmarkstt.input.core</text><!--MD5=[94de2ef9dde389aecb44d7f232eba8a2]
cluster benchmarkstt.input--><polygon fill="#FFFFFF" filter="url(#f1i8bpvau4elov)" points="326,27.1992,472,27.1992,479,49.6875,482,49.6875,482,126.1992,326,126.1992,326,27.1992" style="stroke: #000000; stroke-width: 1.5;"/><line style="stroke: #000000; stroke-width: 1.5;" x1="326" x2="479" y1="49.6875" y2="49.6875"/><text fill="#000000" font-family="sans-serif" font-size="14" font-weight="bold" lengthAdjust="spacingAndGlyphs" textLength="140" x="330" y="42.7344">benchmarkstt.input</text><!--MD5=[4843f7accda627844ca340f5d1efa37d]
class benchmarkstt.input.core.File--><a href="https://benchmarkstt.readthedocs.io/en/latest/modules/benchmarkstt.input.core.html#benchmarkstt.input.core.File" target="_top" title="https://benchmarkstt.readthedocs.io/en/latest/modules/benchmarkstt.input.core.html#benchmarkstt.input.core.File" xlink:actuate="onRequest" xlink:href="https://benchmarkstt.readthedocs.io/en/latest/modules/benchmarkstt.input.core.html#benchmarkstt.input.core.File" xlink:show="new" xlink:title="https://benchmarkstt.readthedocs.io/en/latest/modules/benchmarkstt.input.core.html#benchmarkstt.input.core.File" xlink:type="simple"><rect fill="#FEFECE" filter="url(#f1i8bpvau4elov)" height="73.9102" id="benchmarkstt.input.core.File" style="stroke: #A80036; stroke-width: 1.5;" width="317" x="32.5" y="292.1992"/><ellipse cx="177.25" cy="308.1992" fill="#ADD1B2" rx="11" ry="11" style="stroke: #A80036; stroke-width: 1.0;"/><path d="M179.7231,314.3423 Q179.1421,314.6411 178.5029,314.7905 Q177.8638,314.9399 177.1582,314.9399 Q174.6514,314.9399 173.3315,313.2881 Q172.0117,311.6362 172.0117,308.5151 Q172.0117,305.3857 173.3315,303.7339 Q174.6514,302.082 177.1582,302.082 Q177.8638,302.082 178.5112,302.2314 Q179.1587,302.3809 179.7231,302.6797 L179.7231,305.4023 Q179.0923,304.8213 178.4988,304.5515 Q177.9053,304.2817 177.2744,304.2817 Q175.9297,304.2817 175.2449,305.3484 Q174.5601,306.415 174.5601,308.5151 Q174.5601,310.6069 175.2449,311.6736 Q175.9297,312.7402 177.2744,312.7402 Q177.9053,312.7402 178.4988,312.4705 Q179.0923,312.2007 179.7231,311.6196 Z "/><text fill="#000000" font-family="sans-serif" font-size="12" lengthAdjust="spacingAndGlyphs" textLength="19" x="197.75" y="312.7344">File</text><line style="stroke: #A80036; stroke-width: 1.5;" x1="33.5" x2="348.5" y1="324.1992" y2="324.1992"/><line style="stroke: #A80036; stroke-width: 1.5;" x1="33.5" x2="348.5" y1="332.1992" y2="332.1992"/><ellipse cx="43.5" cy="343.1992" fill="#84BE84" rx="3" ry="3" style="stroke: #038048; stroke-width: 1.0;"/><text fill="#000000" font-family="sans-serif" font-size="11" lengthAdjust="spacingAndGlyphs" textLength="291" x="52.5" y="346.834">__init__(self, file, input_type=None, normalizer=None)</text><ellipse cx="43.5" cy="356.1543" fill="#84BE84" rx="3" ry="3" style="stroke: #038048; stroke-width: 1.0;"/><text fill="#000000" font-family="sans-serif" font-size="11" lengthAdjust="spacingAndGlyphs" textLength="69" x="52.5" y="359.7891">__iter__(self)</text></a><!--MD5=[3edd34d35203ceb4dd4fa63a3b0c665d]
class benchmarkstt.input.core.PlainText--><a href="https://benchmarkstt.readthedocs.io/en/latest/modules/benchmarkstt.input.core.html#benchmarkstt.input.core.PlainText" target="_top" title="https://benchmarkstt.readthedocs.io/en/latest/modules/benchmarkstt.input.core.html#benchmarkstt.input.core.PlainText" xlink:actuate="onRequest" xlink:href="https://benchmarkstt.readthedocs.io/en/latest/modules/benchmarkstt.input.core.html#benchmarkstt.input.core.PlainText" xlink:show="new" xlink:title="https://benchmarkstt.readthedocs.io/en/latest/modules/benchmarkstt.input.core.html#benchmarkstt.input.core.PlainText" xlink:type="simple"><rect fill="#FEFECE" filter="url(#f1i8bpvau4elov)" height="73.9102" id="benchmarkstt.input.core.PlainText" style="stroke: #A80036; stroke-width: 1.5;" width="322" x="385" y="292.1992"/><ellipse cx="515.25" cy="308.1992" fill="#ADD1B2" rx="11" ry="11" style="stroke: #A80036; stroke-width: 1.0;"/><path d="M517.7231,314.3423 Q517.1421,314.6411 516.5029,314.7905 Q515.8638,314.9399 515.1582,314.9399 Q512.6514,314.9399 511.3315,313.2881 Q510.0117,311.6362 510.0117,308.5151 Q510.0117,305.3857 511.3315,303.7339 Q512.6514,302.082 515.1582,302.082 Q515.8638,302.082 516.5112,302.2314 Q517.1587,302.3809 517.7231,302.6797 L517.7231,305.4023 Q517.0923,304.8213 516.4988,304.5515 Q515.9053,304.2817 515.2744,304.2817 Q513.9297,304.2817 513.2449,305.3484 Q512.5601,306.415 512.5601,308.5151 Q512.5601,310.6069 513.2449,311.6736 Q513.9297,312.7402 515.2744,312.7402 Q515.9053,312.7402 516.4988,312.4705 Q517.0923,312.2007 517.7231,311.6196 Z "/><text fill="#000000" font-family="sans-serif" font-size="12" lengthAdjust="spacingAndGlyphs" textLength="53" x="535.75" y="312.7344">PlainText</text><line style="stroke: #A80036; stroke-width: 1.5;" x1="386" x2="706" y1="324.1992" y2="324.1992"/><line style="stroke: #A80036; stroke-width: 1.5;" x1="386" x2="706" y1="332.1992" y2="332.1992"/><ellipse cx="396" cy="343.1992" fill="#84BE84" rx="3" ry="3" style="stroke: #038048; stroke-width: 1.0;"/><text fill="#000000" font-family="sans-serif" font-size="11" lengthAdjust="spacingAndGlyphs" textLength="296" x="405" y="346.834">__init__(self, text, segmenter=None, normalizer=None)</text><ellipse cx="396" cy="356.1543" fill="#84BE84" rx="3" ry="3" style="stroke: #038048; stroke-width: 1.0;"/><text fill="#000000" font-family="sans-serif" font-size="11" lengthAdjust="spacingAndGlyphs" textLength="69" x="405" y="359.7891">__iter__(self)</text></a><!--MD5=[d1e904a0c11302288bad0868539b156c]
class benchmarkstt.input.Base--><rect fill="#FEFECE" filter="url(#f1i8bpvau4elov)" height="48" id="benchmarkstt.input.Base" style="stroke: #A80036; stroke-width: 1.5;" width="59" x="374.5" y="62.1992"/><ellipse cx="389.5" cy="78.1992" fill="#ADD1B2" rx="11" ry="11" style="stroke: #A80036; stroke-width: 1.0;"/><path d="M391.9731,84.3423 Q391.3921,84.6411 390.7529,84.7905 Q390.1138,84.9399 389.4082,84.9399 Q386.9014,84.9399 385.5815,83.2881 Q384.2617,81.6362 384.2617,78.5151 Q384.2617,75.3857 385.5815,73.7339 Q386.9014,72.082 389.4082,72.082 Q390.1138,72.082 390.7612,72.2314 Q391.4087,72.3809 391.9731,72.6797 L391.9731,75.4023 Q391.3423,74.8213 390.7488,74.5515 Q390.1553,74.2817 389.5244,74.2817 Q388.1797,74.2817 387.4949,75.3484 Q386.8101,76.415 386.8101,78.5151 Q386.8101,80.6069 387.4949,81.6736 Q388.1797,82.7402 389.5244,82.7402 Q390.1553,82.7402 390.7488,82.4705 Q391.3423,82.2007 391.9731,81.6196 Z "/><text fill="#000000" font-family="sans-serif" font-size="12" lengthAdjust="spacingAndGlyphs" textLength="27" x="403.5" y="82.7344">Base</text><line style="stroke: #A80036; stroke-width: 1.5;" x1="375.5" x2="432.5" y1="94.1992" y2="94.1992"/><line style="stroke: #A80036; stroke-width: 1.5;" x1="375.5" x2="432.5" y1="102.1992" y2="102.1992"/><!--MD5=[065a416e4c33abf0dffdc83d6e1bf045]
reverse link benchmarkstt.input.Base to benchmarkstt.input.core.File--><path d="M370.25,125.3892 C329.84,171.1092 262.67,247.0992 223.04,291.9492 " fill="none" id="benchmarkstt.input.Base&lt;-benchmarkstt.input.core.File" style="stroke: #A80036; stroke-width: 1.0;"/><polygon fill="none" points="365.09,120.6592,383.58,110.3092,375.58,129.9292,365.09,120.6592" style="stroke: #A80036; stroke-width: 1.0;"/><!--MD5=[3d607d7f67fd018830fa1d9f070f3dcc]
reverse link benchmarkstt.input.Base to benchmarkstt.input.core.PlainText--><path d="M427.93,127.8192 C455,173.7592 498.68,247.8892 524.64,291.9492 " fill="none" id="benchmarkstt.input.Base&lt;-benchmarkstt.input.core.PlainText" style="stroke: #A80036; stroke-width: 1.0;"/><polygon fill="none" points="421.74,131.0892,417.62,110.3092,433.8,123.9892,421.74,131.0892" style="stroke: #A80036; stroke-width: 1.0;"/><!--MD5=[d29039489d08bdd3ba62f73b7536add5]
@startuml
title Benchmarkstt.input
		class benchmarkstt.input.core.File [[https://benchmarkstt.readthedocs.io/en/latest/modules/benchmarkstt.input.core.html#benchmarkstt.input.core.File]] {
			+__init__(self, file, input_type=None, normalizer=None)
			+__iter__(self)
		}
		class benchmarkstt.input.core.PlainText [[https://benchmarkstt.readthedocs.io/en/latest/modules/benchmarkstt.input.core.html#benchmarkstt.input.core.PlainText]] {
			+__init__(self, text, segmenter=None, normalizer=None)
			+__iter__(self)
		}

benchmarkstt.input.core.File - -up- -|> benchmarkstt.input.Base
benchmarkstt.input.core.PlainText - -up- -|> benchmarkstt.input.Base
@enduml

PlantUML version 1.2020.15(Sun Jun 28 11:39:45 UTC 2020)
(GPL source distribution)
Java Runtime: OpenJDK Runtime Environment
JVM: OpenJDK 64-Bit Server VM
Default Encoding: UTF-8
Language: en
Country: BE
--></g></svg>