<?xml version="1.0" encoding="UTF-8" standalone="no"?><svg xmlns="http://www.w3.org/2000/svg" xmlns:xlink="http://www.w3.org/1999/xlink" contentScriptType="application/ecmascript" contentStyleType="text/css" height="239px" preserveAspectRatio="none" style="width:601px;height:239px;" version="1.1" viewBox="0 0 601 239" width="601px" zoomAndPan="magnify"><defs><filter height="300%" id="f4ynzwlsvbofa" width="300%" x="-1" y="-1"><feGaussianBlur result="blurOut" stdDeviation="2.0"/><feColorMatrix in="blurOut" result="blurOut2" type="matrix" values="0 0 0 0 0 0 0 0 0 0 0 0 0 0 0 0 0 0 .4 0"/><feOffset dx="4.0" dy="4.0" in="blurOut2" result="blurOut3"/><feBlend in="SourceGraphic" in2="blurOut3" mode="normal"/></filter></defs><g><text fill="#000000" font-family="sans-serif" font-size="18" lengthAdjust="spacingAndGlyphs" textLength="277" x="153" y="16.708">'BenchmarkSTT Structure: cli'</text><!--MD5=[58255496c193ae65606a5643ea2e65fa]
cluster benchmarkstt.cli--><polygon fill="#FFFFFF" filter="url(#f4ynzwlsvbofa)" points="16,26.9531,160,26.9531,167,49.25,579,49.25,579,227.9531,16,227.9531,16,26.9531" style="stroke: #000000; stroke-width: 1.5;"/><line style="stroke: #000000; stroke-width: 1.5;" x1="16" x2="167" y1="49.25" y2="49.25"/><text fill="#000000" font-family="sans-serif" font-size="14" font-weight="bold" lengthAdjust="spacingAndGlyphs" textLength="138" x="20" y="41.9482">benchmarkstt.cli</text><!--MD5=[afa07787cfa658dedd1e0c29f3d17a37]
class benchmarkstt.cli.HelpFormatter--><rect codeLine="2" fill="#FEFECE" filter="url(#f4ynzwlsvbofa)" height="150.4375" id="benchmarkstt.cli.HelpFormatter" style="stroke: #A80036; stroke-width: 1.5;" width="330" x="233" y="61.9531"/><ellipse cx="350.25" cy="77.9531" fill="#ADD1B2" rx="11" ry="11" style="stroke: #A80036; stroke-width: 1.0;"/><path d="M352.5938,73.625 C351.6563,73.1875 351.0625,73.0469 350.1875,73.0469 C347.5625,73.0469 345.5625,75.125 345.5625,77.8438 L345.5625,78.9688 C345.5625,81.5469 347.6719,83.4375 350.5625,83.4375 C351.7813,83.4375 352.9375,83.1406 353.6875,82.5938 C354.2656,82.1875 354.5938,81.7344 354.5938,81.3438 C354.5938,80.8906 354.2031,80.5 353.7344,80.5 C353.5156,80.5 353.3125,80.5781 353.125,80.7656 C352.6719,81.25 352.6719,81.25 352.4844,81.3438 C352.0625,81.6094 351.375,81.7344 350.6094,81.7344 C348.5625,81.7344 347.2656,80.6406 347.2656,78.9375 L347.2656,77.8438 C347.2656,76.0625 348.5156,74.75 350.25,74.75 C350.8281,74.75 351.4375,74.9063 351.9063,75.1563 C352.3906,75.4375 352.5625,75.6563 352.6563,76.0625 C352.7188,76.4688 352.75,76.5938 352.8906,76.7188 C353.0313,76.8594 353.2656,76.9688 353.4844,76.9688 C353.75,76.9688 354.0156,76.8281 354.1875,76.6094 C354.2969,76.4531 354.3281,76.2656 354.3281,75.8438 L354.3281,74.4219 C354.3281,73.9844 354.3125,73.8594 354.2188,73.7031 C354.0625,73.4375 353.7813,73.2969 353.4844,73.2969 C353.1875,73.2969 352.9844,73.3906 352.7656,73.7031 L352.5938,73.625 Z "/><text fill="#000000" font-family="sans-serif" font-size="12" lengthAdjust="spacingAndGlyphs" textLength="87" x="370.75" y="82.1074">HelpFormatter</text><line style="stroke: #A80036; stroke-width: 1.5;" x1="234" x2="562" y1="93.9531" y2="93.9531"/><line style="stroke: #A80036; stroke-width: 1.5;" x1="234" x2="562" y1="101.9531" y2="101.9531"/><ellipse cx="244" cy="112.9531" fill="#84BE84" rx="3" ry="3" style="stroke: #038048; stroke-width: 1.0;"/><text fill="#000000" font-family="sans-serif" font-size="11" lengthAdjust="spacingAndGlyphs" textLength="165" x="253" y="116.1636">__init__(self, *args, **kwargs)</text><ellipse cx="244" cy="125.7578" fill="#84BE84" rx="3" ry="3" style="stroke: #038048; stroke-width: 1.0;"/><text fill="#000000" font-family="sans-serif" font-size="11" lengthAdjust="spacingAndGlyphs" textLength="152" x="253" y="128.9683">add_argument(self, action)</text><ellipse cx="244" cy="138.5625" fill="#84BE84" rx="3" ry="3" style="stroke: #038048; stroke-width: 1.0;"/><text fill="#000000" font-family="sans-serif" font-size="11" lengthAdjust="spacingAndGlyphs" textLength="164" x="253" y="141.7729">add_arguments(self, actions)</text><ellipse cx="244" cy="151.3672" fill="#84BE84" rx="3" ry="3" style="stroke: #038048; stroke-width: 1.0;"/><text fill="#000000" font-family="sans-serif" font-size="11" lengthAdjust="spacingAndGlyphs" textLength="109" x="253" y="154.5776">add_text(self, text)</text><ellipse cx="244" cy="164.1719" fill="#84BE84" rx="3" ry="3" style="stroke: #038048; stroke-width: 1.0;"/><text fill="#000000" font-family="sans-serif" font-size="11" lengthAdjust="spacingAndGlyphs" textLength="304" x="253" y="167.3823">add_usage(self, usage, actions, groups, prefix=None)</text><ellipse cx="244" cy="176.9766" fill="#84BE84" rx="3" ry="3" style="stroke: #038048; stroke-width: 1.0;"/><text fill="#000000" font-family="sans-serif" font-size="11" lengthAdjust="spacingAndGlyphs" textLength="98" x="253" y="180.187">end_section(self)</text><ellipse cx="244" cy="189.7813" fill="#84BE84" rx="3" ry="3" style="stroke: #038048; stroke-width: 1.0;"/><text fill="#000000" font-family="sans-serif" font-size="11" lengthAdjust="spacingAndGlyphs" textLength="97" x="253" y="192.9917">format_help(self)</text><ellipse cx="244" cy="202.5859" fill="#84BE84" rx="3" ry="3" style="stroke: #038048; stroke-width: 1.0;"/><text fill="#000000" font-family="sans-serif" font-size="11" lengthAdjust="spacingAndGlyphs" textLength="154" x="253" y="205.7964">start_section(self, heading)</text><!--MD5=[22a8d8bb0a0d14fd43b7d63aa2a63875]
class benchmarkstt.cli._ActionWithArguments--><rect codeLine="12" fill="#FEFECE" filter="url(#f4ynzwlsvbofa)" height="48" id="benchmarkstt.cli._ActionWithArguments" style="stroke: #A80036; stroke-width: 1.5;" width="166" x="32" y="112.9531"/><ellipse cx="47" cy="128.9531" fill="#ADD1B2" rx="11" ry="11" style="stroke: #A80036; stroke-width: 1.0;"/><path d="M49.3438,124.625 C48.4063,124.1875 47.8125,124.0469 46.9375,124.0469 C44.3125,124.0469 42.3125,126.125 42.3125,128.8438 L42.3125,129.9688 C42.3125,132.5469 44.4219,134.4375 47.3125,134.4375 C48.5313,134.4375 49.6875,134.1406 50.4375,133.5938 C51.0156,133.1875 51.3438,132.7344 51.3438,132.3438 C51.3438,131.8906 50.9531,131.5 50.4844,131.5 C50.2656,131.5 50.0625,131.5781 49.875,131.7656 C49.4219,132.25 49.4219,132.25 49.2344,132.3438 C48.8125,132.6094 48.125,132.7344 47.3594,132.7344 C45.3125,132.7344 44.0156,131.6406 44.0156,129.9375 L44.0156,128.8438 C44.0156,127.0625 45.2656,125.75 47,125.75 C47.5781,125.75 48.1875,125.9063 48.6563,126.1563 C49.1406,126.4375 49.3125,126.6563 49.4063,127.0625 C49.4688,127.4688 49.5,127.5938 49.6406,127.7188 C49.7813,127.8594 50.0156,127.9688 50.2344,127.9688 C50.5,127.9688 50.7656,127.8281 50.9375,127.6094 C51.0469,127.4531 51.0781,127.2656 51.0781,126.8438 L51.0781,125.4219 C51.0781,124.9844 51.0625,124.8594 50.9688,124.7031 C50.8125,124.4375 50.5313,124.2969 50.2344,124.2969 C49.9375,124.2969 49.7344,124.3906 49.5156,124.7031 L49.3438,124.625 Z "/><text fill="#000000" font-family="sans-serif" font-size="12" lengthAdjust="spacingAndGlyphs" textLength="134" x="61" y="133.1074">_ActionWithArguments</text><line style="stroke: #A80036; stroke-width: 1.5;" x1="33" x2="197" y1="144.9531" y2="144.9531"/><line style="stroke: #A80036; stroke-width: 1.5;" x1="33" x2="197" y1="152.9531" y2="152.9531"/><!--MD5=[e4666279a6614c683413b6f821340168]
@startuml
title 'BenchmarkSTT Structure: cli'
		class benchmarkstt.cli.HelpFormatter {
			+__init__(self, *args, **kwargs)
			+add_argument(self, action)
			+add_arguments(self, actions)
			+add_text(self, text)
			+add_usage(self, usage, actions, groups, prefix=None)
			+end_section(self)
			+format_help(self)
			+start_section(self, heading)
		}
		class benchmarkstt.cli._ActionWithArguments {
		}
@enduml

PlantUML version 1.2020.16beta7(Unknown compile time)
(GPL source distribution)
Java Runtime: Java(TM) SE Runtime Environment
JVM: Java HotSpot(TM) 64-Bit Server VM
Default Encoding: UTF-8
Language: en
Country: US
--></g></svg>