<?xml version="1.0" encoding="UTF-8" standalone="no"?><svg xmlns="http://www.w3.org/2000/svg" xmlns:xlink="http://www.w3.org/1999/xlink" contentScriptType="application/ecmascript" contentStyleType="text/css" height="827px" preserveAspectRatio="none" style="width:5335px;height:827px;" version="1.1" viewBox="0 0 5335 827" width="5335px" zoomAndPan="magnify"><defs><filter height="300%" id="f2zu61i1rtsew" width="300%" x="-1" y="-1"><feGaussianBlur result="blurOut" stdDeviation="2.0"/><feColorMatrix in="blurOut" result="blurOut2" type="matrix" values="0 0 0 0 0 0 0 0 0 0 0 0 0 0 0 0 0 0 .4 0"/><feOffset dx="4.0" dy="4.0" in="blurOut2" result="blurOut3"/><feBlend in="SourceGraphic" in2="blurOut3" mode="normal"/></filter></defs><g><text fill="#000000" font-family="sans-serif" font-size="18" lengthAdjust="spacingAndGlyphs" textLength="294" x="2511.5" y="16.708">'Core BenchmarkSTT Structure'</text><!--MD5=[32fbec9dac052c23fb29020cf729fbb3]
cluster benchmarkstt.normalization.core--><polygon fill="#FFFFFF" filter="url(#f2zu61i1rtsew)" points="836,346.4531,1115,346.4531,1122,368.75,1516,368.75,1516,483.4531,836,483.4531,836,346.4531" style="stroke: #000000; stroke-width: 1.5;"/><line style="stroke: #000000; stroke-width: 1.5;" x1="836" x2="1122" y1="368.75" y2="368.75"/><text fill="#000000" font-family="sans-serif" font-size="14" font-weight="bold" lengthAdjust="spacingAndGlyphs" textLength="273" x="840" y="361.4482">benchmarkstt.normalization.core</text><!--MD5=[5c7a64d73ca244446f0e70026cf5d0bf]
cluster benchmarkstt.input.core--><polygon fill="#FFFFFF" filter="url(#f2zu61i1rtsew)" points="1540,352.4531,1748,352.4531,1755,374.75,2283,374.75,2283,477.4531,1540,477.4531,1540,352.4531" style="stroke: #000000; stroke-width: 1.5;"/><line style="stroke: #000000; stroke-width: 1.5;" x1="1540" x2="1755" y1="374.75" y2="374.75"/><text fill="#000000" font-family="sans-serif" font-size="14" font-weight="bold" lengthAdjust="spacingAndGlyphs" textLength="202" x="1544" y="367.4482">benchmarkstt.input.core</text><!--MD5=[22ea792f0a86ed46e658ff5419811104]
cluster benchmarkstt.metrics--><polygon fill="#FFFFFF" filter="url(#f2zu61i1rtsew)" points="2862,39.4531,3049,39.4531,3056,61.75,3414,61.75,3414,151.4531,2862,151.4531,2862,39.4531" style="stroke: #000000; stroke-width: 1.5;"/><line style="stroke: #000000; stroke-width: 1.5;" x1="2862" x2="3056" y1="61.75" y2="61.75"/><text fill="#000000" font-family="sans-serif" font-size="14" font-weight="bold" lengthAdjust="spacingAndGlyphs" textLength="181" x="2866" y="54.4482">benchmarkstt.metrics</text><!--MD5=[144dc3a7777fd2b902a939eb9db82fdd]
cluster benchmarkstt.metrics.core--><polygon fill="#FFFFFF" filter="url(#f2zu61i1rtsew)" points="2307,352.4531,2534,352.4531,2541,374.75,3969,374.75,3969,477.4531,2307,477.4531,2307,352.4531" style="stroke: #000000; stroke-width: 1.5;"/><line style="stroke: #000000; stroke-width: 1.5;" x1="2307" x2="2541" y1="374.75" y2="374.75"/><text fill="#000000" font-family="sans-serif" font-size="14" font-weight="bold" lengthAdjust="spacingAndGlyphs" textLength="221" x="2311" y="367.4482">benchmarkstt.metrics.core</text><!--MD5=[09ed425bc4f616bbad3d6f8b00541a65]
cluster benchmarkstt.diff.core--><polygon fill="#FFFFFF" filter="url(#f2zu61i1rtsew)" points="3993,294.9531,4187,294.9531,4194,317.25,4287,317.25,4287,534.9531,3993,534.9531,3993,294.9531" style="stroke: #000000; stroke-width: 1.5;"/><line style="stroke: #000000; stroke-width: 1.5;" x1="3993" x2="4194" y1="317.25" y2="317.25"/><text fill="#000000" font-family="sans-serif" font-size="14" font-weight="bold" lengthAdjust="spacingAndGlyphs" textLength="188" x="3997" y="309.9482">benchmarkstt.diff.core</text><!--MD5=[24f62e7049ba18d46b504c61d91c5470]
cluster benchmarkstt.normalization--><polygon fill="#FFFFFF" filter="url(#f2zu61i1rtsew)" points="16,32.9531,255,32.9531,262,55.25,812,55.25,812,489.9531,16,489.9531,16,32.9531" style="stroke: #000000; stroke-width: 1.5;"/><line style="stroke: #000000; stroke-width: 1.5;" x1="16" x2="262" y1="55.25" y2="55.25"/><text fill="#000000" font-family="sans-serif" font-size="14" font-weight="bold" lengthAdjust="spacingAndGlyphs" textLength="233" x="20" y="47.9482">benchmarkstt.normalization</text><!--MD5=[94de2ef9dde389aecb44d7f232eba8a2]
cluster benchmarkstt.input--><polygon fill="#FFFFFF" filter="url(#f2zu61i1rtsew)" points="1749,39.4531,1917,39.4531,1924,61.75,1927,61.75,1927,151.4531,1749,151.4531,1749,39.4531" style="stroke: #000000; stroke-width: 1.5;"/><line style="stroke: #000000; stroke-width: 1.5;" x1="1749" x2="1924" y1="61.75" y2="61.75"/><text fill="#000000" font-family="sans-serif" font-size="14" font-weight="bold" lengthAdjust="spacingAndGlyphs" textLength="162" x="1753" y="54.4482">benchmarkstt.input</text><!--MD5=[65eb5fcee437765d99707c9196661bb6]
cluster benchmarkstt.segmentation--><polygon fill="#FFFFFF" filter="url(#f2zu61i1rtsew)" points="4385,39.4531,4623,39.4531,4630,61.75,4633,61.75,4633,151.4531,4385,151.4531,4385,39.4531" style="stroke: #000000; stroke-width: 1.5;"/><line style="stroke: #000000; stroke-width: 1.5;" x1="4385" x2="4630" y1="61.75" y2="61.75"/><text fill="#000000" font-family="sans-serif" font-size="14" font-weight="bold" lengthAdjust="spacingAndGlyphs" textLength="232" x="4389" y="54.4482">benchmarkstt.segmentation</text><!--MD5=[bbd7f55af96c8522598147a787b5c5b9]
cluster benchmarkstt.segmentation.core--><polygon fill="#FFFFFF" filter="url(#f2zu61i1rtsew)" points="4311,352.4531,4589,352.4531,4596,374.75,4707,374.75,4707,477.4531,4311,477.4531,4311,352.4531" style="stroke: #000000; stroke-width: 1.5;"/><line style="stroke: #000000; stroke-width: 1.5;" x1="4311" x2="4596" y1="374.75" y2="374.75"/><text fill="#000000" font-family="sans-serif" font-size="14" font-weight="bold" lengthAdjust="spacingAndGlyphs" textLength="272" x="4315" y="367.4482">benchmarkstt.segmentation.core</text><!--MD5=[c2f5f1914e6a0fca7cbdb2b44310c20b]
cluster benchmarkstt.output--><polygon fill="#FFFFFF" filter="url(#f2zu61i1rtsew)" points="4821,26.9531,5002,26.9531,5009,49.25,5111,49.25,5111,163.9531,4821,163.9531,4821,26.9531" style="stroke: #000000; stroke-width: 1.5;"/><line style="stroke: #000000; stroke-width: 1.5;" x1="4821" x2="5009" y1="49.25" y2="49.25"/><text fill="#000000" font-family="sans-serif" font-size="14" font-weight="bold" lengthAdjust="spacingAndGlyphs" textLength="175" x="4825" y="41.9482">benchmarkstt.output</text><!--MD5=[847d3ee6f8e67faab7de214c96ed8267]
cluster benchmarkstt.output.core--><polygon fill="#FFFFFF" filter="url(#f2zu61i1rtsew)" points="4731,339.9531,4952,339.9531,4959,362.25,5313,362.25,5313,815.9531,4731,815.9531,4731,339.9531" style="stroke: #000000; stroke-width: 1.5;"/><line style="stroke: #000000; stroke-width: 1.5;" x1="4731" x2="4959" y1="362.25" y2="362.25"/><text fill="#000000" font-family="sans-serif" font-size="14" font-weight="bold" lengthAdjust="spacingAndGlyphs" textLength="215" x="4735" y="354.9482">benchmarkstt.output.core</text><!--MD5=[b21609c0e4e09564ea14466d1d899cfe]
cluster benchmarkstt.diff--><polygon fill="#FFFFFF" filter="url(#f2zu61i1rtsew)" points="4047,32.9531,4201,32.9531,4208,55.25,4233,55.25,4233,157.9531,4047,157.9531,4047,32.9531" style="stroke: #000000; stroke-width: 1.5;"/><line style="stroke: #000000; stroke-width: 1.5;" x1="4047" x2="4208" y1="55.25" y2="55.25"/><text fill="#000000" font-family="sans-serif" font-size="14" font-weight="bold" lengthAdjust="spacingAndGlyphs" textLength="148" x="4051" y="47.9482">benchmarkstt.diff</text><!--MD5=[ba2ead4b28f3a03c2b9b4db307c82486]
class benchmarkstt.normalization.core.Config--><rect codeLine="2" fill="#FEFECE" filter="url(#f2zu61i1rtsew)" height="86.4141" id="benchmarkstt.normalization.core.Config" style="stroke: #A80036; stroke-width: 1.5;" width="306" x="852" y="381.4531"/><ellipse cx="981.75" cy="397.4531" fill="#ADD1B2" rx="11" ry="11" style="stroke: #A80036; stroke-width: 1.0;"/><path d="M984.0938,393.125 C983.1563,392.6875 982.5625,392.5469 981.6875,392.5469 C979.0625,392.5469 977.0625,394.625 977.0625,397.3438 L977.0625,398.4688 C977.0625,401.0469 979.1719,402.9375 982.0625,402.9375 C983.2813,402.9375 984.4375,402.6406 985.1875,402.0938 C985.7656,401.6875 986.0938,401.2344 986.0938,400.8438 C986.0938,400.3906 985.7031,400 985.2344,400 C985.0156,400 984.8125,400.0781 984.625,400.2656 C984.1719,400.75 984.1719,400.75 983.9844,400.8438 C983.5625,401.1094 982.875,401.2344 982.1094,401.2344 C980.0625,401.2344 978.7656,400.1406 978.7656,398.4375 L978.7656,397.3438 C978.7656,395.5625 980.0156,394.25 981.75,394.25 C982.3281,394.25 982.9375,394.4063 983.4063,394.6563 C983.8906,394.9375 984.0625,395.1563 984.1563,395.5625 C984.2188,395.9688 984.25,396.0938 984.3906,396.2188 C984.5313,396.3594 984.7656,396.4688 984.9844,396.4688 C985.25,396.4688 985.5156,396.3281 985.6875,396.1094 C985.7969,395.9531 985.8281,395.7656 985.8281,395.3438 L985.8281,393.9219 C985.8281,393.4844 985.8125,393.3594 985.7188,393.2031 C985.5625,392.9375 985.2813,392.7969 984.9844,392.7969 C984.6875,392.7969 984.4844,392.8906 984.2656,393.2031 L984.0938,393.125 Z "/><text fill="#000000" font-family="sans-serif" font-size="12" lengthAdjust="spacingAndGlyphs" textLength="38" x="1002.25" y="401.6074">Config</text><line style="stroke: #A80036; stroke-width: 1.5;" x1="853" x2="1157" y1="413.4531" y2="413.4531"/><line style="stroke: #A80036; stroke-width: 1.5;" x1="853" x2="1157" y1="421.4531" y2="421.4531"/><ellipse cx="863" cy="432.4531" fill="#84BE84" rx="3" ry="3" style="stroke: #038048; stroke-width: 1.0;"/><text fill="#000000" font-family="sans-serif" font-size="11" lengthAdjust="spacingAndGlyphs" textLength="280" x="872" y="435.6636">__init__(self, file, section=None, encoding=None)</text><ellipse cx="863" cy="445.2578" fill="#84BE84" rx="3" ry="3" style="stroke: #038048; stroke-width: 1.0;"/><text fill="#000000" font-family="sans-serif" font-size="11" lengthAdjust="spacingAndGlyphs" textLength="76" x="872" y="448.4683">__repr__(self)</text><ellipse cx="863" cy="458.0625" fill="#84BE84" rx="3" ry="3" style="stroke: #038048; stroke-width: 1.0;"/><text fill="#000000" font-family="sans-serif" font-size="11" lengthAdjust="spacingAndGlyphs" textLength="110" x="872" y="461.2729">normalize(cls, text)</text><!--MD5=[3386d7986a9642d77be9dbce485d3f6c]
class benchmarkstt.normalization.core.Lowercase--><rect codeLine="58" fill="#FEFECE" filter="url(#f2zu61i1rtsew)" height="73.6094" id="benchmarkstt.normalization.core.Lowercase" style="stroke: #A80036; stroke-width: 1.5;" width="136" x="1193" y="387.4531"/><ellipse cx="1225.1" cy="403.4531" fill="#ADD1B2" rx="11" ry="11" style="stroke: #A80036; stroke-width: 1.0;"/><path d="M1227.4438,399.125 C1226.5063,398.6875 1225.9125,398.5469 1225.0375,398.5469 C1222.4125,398.5469 1220.4125,400.625 1220.4125,403.3438 L1220.4125,404.4688 C1220.4125,407.0469 1222.5219,408.9375 1225.4125,408.9375 C1226.6313,408.9375 1227.7875,408.6406 1228.5375,408.0938 C1229.1156,407.6875 1229.4438,407.2344 1229.4438,406.8438 C1229.4438,406.3906 1229.0531,406 1228.5844,406 C1228.3656,406 1228.1625,406.0781 1227.975,406.2656 C1227.5219,406.75 1227.5219,406.75 1227.3344,406.8438 C1226.9125,407.1094 1226.225,407.2344 1225.4594,407.2344 C1223.4125,407.2344 1222.1156,406.1406 1222.1156,404.4375 L1222.1156,403.3438 C1222.1156,401.5625 1223.3656,400.25 1225.1,400.25 C1225.6781,400.25 1226.2875,400.4063 1226.7563,400.6563 C1227.2406,400.9375 1227.4125,401.1563 1227.5063,401.5625 C1227.5688,401.9688 1227.6,402.0938 1227.7406,402.2188 C1227.8813,402.3594 1228.1156,402.4688 1228.3344,402.4688 C1228.6,402.4688 1228.8656,402.3281 1229.0375,402.1094 C1229.1469,401.9531 1229.1781,401.7656 1229.1781,401.3438 L1229.1781,399.9219 C1229.1781,399.4844 1229.1625,399.3594 1229.0688,399.2031 C1228.9125,398.9375 1228.6313,398.7969 1228.3344,398.7969 C1228.0375,398.7969 1227.8344,398.8906 1227.6156,399.2031 L1227.4438,399.125 Z "/><text fill="#000000" font-family="sans-serif" font-size="12" lengthAdjust="spacingAndGlyphs" textLength="66" x="1242.9" y="407.6074">Lowercase</text><line style="stroke: #A80036; stroke-width: 1.5;" x1="1194" x2="1328" y1="419.4531" y2="419.4531"/><line style="stroke: #A80036; stroke-width: 1.5;" x1="1194" x2="1328" y1="427.4531" y2="427.4531"/><ellipse cx="1204" cy="438.4531" fill="#84BE84" rx="3" ry="3" style="stroke: #038048; stroke-width: 1.0;"/><text fill="#000000" font-family="sans-serif" font-size="11" lengthAdjust="spacingAndGlyphs" textLength="76" x="1213" y="441.6636">__repr__(self)</text><ellipse cx="1204" cy="451.2578" fill="#84BE84" rx="3" ry="3" style="stroke: #038048; stroke-width: 1.0;"/><text fill="#000000" font-family="sans-serif" font-size="11" lengthAdjust="spacingAndGlyphs" textLength="110" x="1213" y="454.4683">normalize(cls, text)</text><!--MD5=[361c1c4989d33e751f8f1a8124b4d3c8]
class benchmarkstt.normalization.core.Unidecode--><rect codeLine="62" fill="#FEFECE" filter="url(#f2zu61i1rtsew)" height="73.6094" id="benchmarkstt.normalization.core.Unidecode" style="stroke: #A80036; stroke-width: 1.5;" width="136" x="1364" y="387.4531"/><ellipse cx="1396.1" cy="403.4531" fill="#ADD1B2" rx="11" ry="11" style="stroke: #A80036; stroke-width: 1.0;"/><path d="M1398.4438,399.125 C1397.5063,398.6875 1396.9125,398.5469 1396.0375,398.5469 C1393.4125,398.5469 1391.4125,400.625 1391.4125,403.3438 L1391.4125,404.4688 C1391.4125,407.0469 1393.5219,408.9375 1396.4125,408.9375 C1397.6313,408.9375 1398.7875,408.6406 1399.5375,408.0938 C1400.1156,407.6875 1400.4438,407.2344 1400.4438,406.8438 C1400.4438,406.3906 1400.0531,406 1399.5844,406 C1399.3656,406 1399.1625,406.0781 1398.975,406.2656 C1398.5219,406.75 1398.5219,406.75 1398.3344,406.8438 C1397.9125,407.1094 1397.225,407.2344 1396.4594,407.2344 C1394.4125,407.2344 1393.1156,406.1406 1393.1156,404.4375 L1393.1156,403.3438 C1393.1156,401.5625 1394.3656,400.25 1396.1,400.25 C1396.6781,400.25 1397.2875,400.4063 1397.7563,400.6563 C1398.2406,400.9375 1398.4125,401.1563 1398.5063,401.5625 C1398.5688,401.9688 1398.6,402.0938 1398.7406,402.2188 C1398.8813,402.3594 1399.1156,402.4688 1399.3344,402.4688 C1399.6,402.4688 1399.8656,402.3281 1400.0375,402.1094 C1400.1469,401.9531 1400.1781,401.7656 1400.1781,401.3438 L1400.1781,399.9219 C1400.1781,399.4844 1400.1625,399.3594 1400.0688,399.2031 C1399.9125,398.9375 1399.6313,398.7969 1399.3344,398.7969 C1399.0375,398.7969 1398.8344,398.8906 1398.6156,399.2031 L1398.4438,399.125 Z "/><text fill="#000000" font-family="sans-serif" font-size="12" lengthAdjust="spacingAndGlyphs" textLength="66" x="1413.9" y="407.6074">Unidecode</text><line style="stroke: #A80036; stroke-width: 1.5;" x1="1365" x2="1499" y1="419.4531" y2="419.4531"/><line style="stroke: #A80036; stroke-width: 1.5;" x1="1365" x2="1499" y1="427.4531" y2="427.4531"/><ellipse cx="1375" cy="438.4531" fill="#84BE84" rx="3" ry="3" style="stroke: #038048; stroke-width: 1.0;"/><text fill="#000000" font-family="sans-serif" font-size="11" lengthAdjust="spacingAndGlyphs" textLength="76" x="1384" y="441.6636">__repr__(self)</text><ellipse cx="1375" cy="451.2578" fill="#84BE84" rx="3" ry="3" style="stroke: #038048; stroke-width: 1.0;"/><text fill="#000000" font-family="sans-serif" font-size="11" lengthAdjust="spacingAndGlyphs" textLength="110" x="1384" y="454.4683">normalize(cls, text)</text><!--MD5=[3edd34d35203ceb4dd4fa63a3b0c665d]
class benchmarkstt.input.core.PlainText--><rect codeLine="7" fill="#FEFECE" filter="url(#f2zu61i1rtsew)" height="73.6094" id="benchmarkstt.input.core.PlainText" style="stroke: #A80036; stroke-width: 1.5;" width="342" x="1556" y="387.4531"/><ellipse cx="1696.75" cy="403.4531" fill="#ADD1B2" rx="11" ry="11" style="stroke: #A80036; stroke-width: 1.0;"/><path d="M1699.0938,399.125 C1698.1563,398.6875 1697.5625,398.5469 1696.6875,398.5469 C1694.0625,398.5469 1692.0625,400.625 1692.0625,403.3438 L1692.0625,404.4688 C1692.0625,407.0469 1694.1719,408.9375 1697.0625,408.9375 C1698.2813,408.9375 1699.4375,408.6406 1700.1875,408.0938 C1700.7656,407.6875 1701.0938,407.2344 1701.0938,406.8438 C1701.0938,406.3906 1700.7031,406 1700.2344,406 C1700.0156,406 1699.8125,406.0781 1699.625,406.2656 C1699.1719,406.75 1699.1719,406.75 1698.9844,406.8438 C1698.5625,407.1094 1697.875,407.2344 1697.1094,407.2344 C1695.0625,407.2344 1693.7656,406.1406 1693.7656,404.4375 L1693.7656,403.3438 C1693.7656,401.5625 1695.0156,400.25 1696.75,400.25 C1697.3281,400.25 1697.9375,400.4063 1698.4063,400.6563 C1698.8906,400.9375 1699.0625,401.1563 1699.1563,401.5625 C1699.2188,401.9688 1699.25,402.0938 1699.3906,402.2188 C1699.5313,402.3594 1699.7656,402.4688 1699.9844,402.4688 C1700.25,402.4688 1700.5156,402.3281 1700.6875,402.1094 C1700.7969,401.9531 1700.8281,401.7656 1700.8281,401.3438 L1700.8281,399.9219 C1700.8281,399.4844 1700.8125,399.3594 1700.7188,399.2031 C1700.5625,398.9375 1700.2813,398.7969 1699.9844,398.7969 C1699.6875,398.7969 1699.4844,398.8906 1699.2656,399.2031 L1699.0938,399.125 Z "/><text fill="#000000" font-family="sans-serif" font-size="12" lengthAdjust="spacingAndGlyphs" textLength="52" x="1717.25" y="407.6074">PlainText</text><line style="stroke: #A80036; stroke-width: 1.5;" x1="1557" x2="1897" y1="419.4531" y2="419.4531"/><line style="stroke: #A80036; stroke-width: 1.5;" x1="1557" x2="1897" y1="427.4531" y2="427.4531"/><ellipse cx="1567" cy="438.4531" fill="#84BE84" rx="3" ry="3" style="stroke: #038048; stroke-width: 1.0;"/><text fill="#000000" font-family="sans-serif" font-size="11" lengthAdjust="spacingAndGlyphs" textLength="316" x="1576" y="441.6636">__init__(self, text, segmenter=None, normalizer=None)</text><ellipse cx="1567" cy="451.2578" fill="#84BE84" rx="3" ry="3" style="stroke: #038048; stroke-width: 1.0;"/><text fill="#000000" font-family="sans-serif" font-size="11" lengthAdjust="spacingAndGlyphs" textLength="72" x="1576" y="454.4683">__iter__(self)</text><!--MD5=[4843f7accda627844ca340f5d1efa37d]
class benchmarkstt.input.core.File--><rect codeLine="69" fill="#FEFECE" filter="url(#f2zu61i1rtsew)" height="73.6094" id="benchmarkstt.input.core.File" style="stroke: #A80036; stroke-width: 1.5;" width="334" x="1933" y="387.4531"/><ellipse cx="2085.25" cy="403.4531" fill="#ADD1B2" rx="11" ry="11" style="stroke: #A80036; stroke-width: 1.0;"/><path d="M2087.5938,399.125 C2086.6563,398.6875 2086.0625,398.5469 2085.1875,398.5469 C2082.5625,398.5469 2080.5625,400.625 2080.5625,403.3438 L2080.5625,404.4688 C2080.5625,407.0469 2082.6719,408.9375 2085.5625,408.9375 C2086.7813,408.9375 2087.9375,408.6406 2088.6875,408.0938 C2089.2656,407.6875 2089.5938,407.2344 2089.5938,406.8438 C2089.5938,406.3906 2089.2031,406 2088.7344,406 C2088.5156,406 2088.3125,406.0781 2088.125,406.2656 C2087.6719,406.75 2087.6719,406.75 2087.4844,406.8438 C2087.0625,407.1094 2086.375,407.2344 2085.6094,407.2344 C2083.5625,407.2344 2082.2656,406.1406 2082.2656,404.4375 L2082.2656,403.3438 C2082.2656,401.5625 2083.5156,400.25 2085.25,400.25 C2085.8281,400.25 2086.4375,400.4063 2086.9063,400.6563 C2087.3906,400.9375 2087.5625,401.1563 2087.6563,401.5625 C2087.7188,401.9688 2087.75,402.0938 2087.8906,402.2188 C2088.0313,402.3594 2088.2656,402.4688 2088.4844,402.4688 C2088.75,402.4688 2089.0156,402.3281 2089.1875,402.1094 C2089.2969,401.9531 2089.3281,401.7656 2089.3281,401.3438 L2089.3281,399.9219 C2089.3281,399.4844 2089.3125,399.3594 2089.2188,399.2031 C2089.0625,398.9375 2088.7813,398.7969 2088.4844,398.7969 C2088.1875,398.7969 2087.9844,398.8906 2087.7656,399.2031 L2087.5938,399.125 Z "/><text fill="#000000" font-family="sans-serif" font-size="12" lengthAdjust="spacingAndGlyphs" textLength="21" x="2105.75" y="407.6074">File</text><line style="stroke: #A80036; stroke-width: 1.5;" x1="1934" x2="2266" y1="419.4531" y2="419.4531"/><line style="stroke: #A80036; stroke-width: 1.5;" x1="1934" x2="2266" y1="427.4531" y2="427.4531"/><ellipse cx="1944" cy="438.4531" fill="#84BE84" rx="3" ry="3" style="stroke: #038048; stroke-width: 1.0;"/><text fill="#000000" font-family="sans-serif" font-size="11" lengthAdjust="spacingAndGlyphs" textLength="308" x="1953" y="441.6636">__init__(self, file, input_type=None, normalizer=None)</text><ellipse cx="1944" cy="451.2578" fill="#84BE84" rx="3" ry="3" style="stroke: #038048; stroke-width: 1.0;"/><text fill="#000000" font-family="sans-serif" font-size="11" lengthAdjust="spacingAndGlyphs" textLength="72" x="1953" y="454.4683">__iter__(self)</text><!--MD5=[5df2e3f9a60f5e68627f199cfdd93bb0]
class benchmarkstt.metrics.Base--><rect codeLine="11" fill="#FEFECE" filter="url(#f2zu61i1rtsew)" height="60.8047" id="benchmarkstt.metrics.Base" style="stroke: #A80036; stroke-width: 1.5;" width="520" x="2878" y="74.4531"/><ellipse cx="3118.75" cy="90.4531" fill="#ADD1B2" rx="11" ry="11" style="stroke: #A80036; stroke-width: 1.0;"/><path d="M3121.0938,86.125 C3120.1563,85.6875 3119.5625,85.5469 3118.6875,85.5469 C3116.0625,85.5469 3114.0625,87.625 3114.0625,90.3438 L3114.0625,91.4688 C3114.0625,94.0469 3116.1719,95.9375 3119.0625,95.9375 C3120.2813,95.9375 3121.4375,95.6406 3122.1875,95.0938 C3122.7656,94.6875 3123.0938,94.2344 3123.0938,93.8438 C3123.0938,93.3906 3122.7031,93 3122.2344,93 C3122.0156,93 3121.8125,93.0781 3121.625,93.2656 C3121.1719,93.75 3121.1719,93.75 3120.9844,93.8438 C3120.5625,94.1094 3119.875,94.2344 3119.1094,94.2344 C3117.0625,94.2344 3115.7656,93.1406 3115.7656,91.4375 L3115.7656,90.3438 C3115.7656,88.5625 3117.0156,87.25 3118.75,87.25 C3119.3281,87.25 3119.9375,87.4063 3120.4063,87.6563 C3120.8906,87.9375 3121.0625,88.1563 3121.1563,88.5625 C3121.2188,88.9688 3121.25,89.0938 3121.3906,89.2188 C3121.5313,89.3594 3121.7656,89.4688 3121.9844,89.4688 C3122.25,89.4688 3122.5156,89.3281 3122.6875,89.1094 C3122.7969,88.9531 3122.8281,88.7656 3122.8281,88.3438 L3122.8281,86.9219 C3122.8281,86.4844 3122.8125,86.3594 3122.7188,86.2031 C3122.5625,85.9375 3122.2813,85.7969 3121.9844,85.7969 C3121.6875,85.7969 3121.4844,85.8906 3121.2656,86.2031 L3121.0938,86.125 Z "/><text fill="#000000" font-family="sans-serif" font-size="12" lengthAdjust="spacingAndGlyphs" textLength="30" x="3139.25" y="94.6074">Base</text><line style="stroke: #A80036; stroke-width: 1.5;" x1="2879" x2="3397" y1="106.4531" y2="106.4531"/><line style="stroke: #A80036; stroke-width: 1.5;" x1="2879" x2="3397" y1="114.4531" y2="114.4531"/><ellipse cx="2889" cy="125.4531" fill="#84BE84" rx="3" ry="3" style="stroke: #038048; stroke-width: 1.0;"/><text fill="#000000" font-family="sans-serif" font-size="11" lengthAdjust="spacingAndGlyphs" textLength="494" x="2898" y="128.6636">compare(self, ref: benchmarkstt.schema.Schema, hyp: benchmarkstt.schema.Schema)</text><!--MD5=[16641109c0e363d96d1ecc4c603e3de1]
class benchmarkstt.metrics.core.DiffCounts--><rect codeLine="14" fill="#FEFECE" filter="url(#f2zu61i1rtsew)" height="73.6094" id="benchmarkstt.metrics.core.DiffCounts" style="stroke: #A80036; stroke-width: 1.5;" width="520" x="2323" y="387.4531"/><ellipse cx="2548.25" cy="403.4531" fill="#ADD1B2" rx="11" ry="11" style="stroke: #A80036; stroke-width: 1.0;"/><path d="M2550.5938,399.125 C2549.6563,398.6875 2549.0625,398.5469 2548.1875,398.5469 C2545.5625,398.5469 2543.5625,400.625 2543.5625,403.3438 L2543.5625,404.4688 C2543.5625,407.0469 2545.6719,408.9375 2548.5625,408.9375 C2549.7813,408.9375 2550.9375,408.6406 2551.6875,408.0938 C2552.2656,407.6875 2552.5938,407.2344 2552.5938,406.8438 C2552.5938,406.3906 2552.2031,406 2551.7344,406 C2551.5156,406 2551.3125,406.0781 2551.125,406.2656 C2550.6719,406.75 2550.6719,406.75 2550.4844,406.8438 C2550.0625,407.1094 2549.375,407.2344 2548.6094,407.2344 C2546.5625,407.2344 2545.2656,406.1406 2545.2656,404.4375 L2545.2656,403.3438 C2545.2656,401.5625 2546.5156,400.25 2548.25,400.25 C2548.8281,400.25 2549.4375,400.4063 2549.9063,400.6563 C2550.3906,400.9375 2550.5625,401.1563 2550.6563,401.5625 C2550.7188,401.9688 2550.75,402.0938 2550.8906,402.2188 C2551.0313,402.3594 2551.2656,402.4688 2551.4844,402.4688 C2551.75,402.4688 2552.0156,402.3281 2552.1875,402.1094 C2552.2969,401.9531 2552.3281,401.7656 2552.3281,401.3438 L2552.3281,399.9219 C2552.3281,399.4844 2552.3125,399.3594 2552.2188,399.2031 C2552.0625,398.9375 2551.7813,398.7969 2551.4844,398.7969 C2551.1875,398.7969 2550.9844,398.8906 2550.7656,399.2031 L2550.5938,399.125 Z "/><text fill="#000000" font-family="sans-serif" font-size="12" lengthAdjust="spacingAndGlyphs" textLength="61" x="2568.75" y="407.6074">DiffCounts</text><line style="stroke: #A80036; stroke-width: 1.5;" x1="2324" x2="2842" y1="419.4531" y2="419.4531"/><line style="stroke: #A80036; stroke-width: 1.5;" x1="2324" x2="2842" y1="427.4531" y2="427.4531"/><ellipse cx="2334" cy="438.4531" fill="#84BE84" rx="3" ry="3" style="stroke: #038048; stroke-width: 1.0;"/><text fill="#000000" font-family="sans-serif" font-size="11" lengthAdjust="spacingAndGlyphs" textLength="180" x="2343" y="441.6636">__init__(self, differ_class=None)</text><ellipse cx="2334" cy="451.2578" fill="#84BE84" rx="3" ry="3" style="stroke: #038048; stroke-width: 1.0;"/><text fill="#000000" font-family="sans-serif" font-size="11" lengthAdjust="spacingAndGlyphs" textLength="494" x="2343" y="454.4683">compare(self, ref: benchmarkstt.schema.Schema, hyp: benchmarkstt.schema.Schema)</text><!--MD5=[1b5fccb2ad4a9064da2e7d8609e9b4b6]
class benchmarkstt.metrics.core.WER--><rect codeLine="31" fill="#FEFECE" filter="url(#f2zu61i1rtsew)" height="73.6094" id="benchmarkstt.metrics.core.WER" style="stroke: #A80036; stroke-width: 1.5;" width="520" x="2878" y="387.4531"/><ellipse cx="3120.75" cy="403.4531" fill="#ADD1B2" rx="11" ry="11" style="stroke: #A80036; stroke-width: 1.0;"/><path d="M3123.0938,399.125 C3122.1563,398.6875 3121.5625,398.5469 3120.6875,398.5469 C3118.0625,398.5469 3116.0625,400.625 3116.0625,403.3438 L3116.0625,404.4688 C3116.0625,407.0469 3118.1719,408.9375 3121.0625,408.9375 C3122.2813,408.9375 3123.4375,408.6406 3124.1875,408.0938 C3124.7656,407.6875 3125.0938,407.2344 3125.0938,406.8438 C3125.0938,406.3906 3124.7031,406 3124.2344,406 C3124.0156,406 3123.8125,406.0781 3123.625,406.2656 C3123.1719,406.75 3123.1719,406.75 3122.9844,406.8438 C3122.5625,407.1094 3121.875,407.2344 3121.1094,407.2344 C3119.0625,407.2344 3117.7656,406.1406 3117.7656,404.4375 L3117.7656,403.3438 C3117.7656,401.5625 3119.0156,400.25 3120.75,400.25 C3121.3281,400.25 3121.9375,400.4063 3122.4063,400.6563 C3122.8906,400.9375 3123.0625,401.1563 3123.1563,401.5625 C3123.2188,401.9688 3123.25,402.0938 3123.3906,402.2188 C3123.5313,402.3594 3123.7656,402.4688 3123.9844,402.4688 C3124.25,402.4688 3124.5156,402.3281 3124.6875,402.1094 C3124.7969,401.9531 3124.8281,401.7656 3124.8281,401.3438 L3124.8281,399.9219 C3124.8281,399.4844 3124.8125,399.3594 3124.7188,399.2031 C3124.5625,398.9375 3124.2813,398.7969 3123.9844,398.7969 C3123.6875,398.7969 3123.4844,398.8906 3123.2656,399.2031 L3123.0938,399.125 Z "/><text fill="#000000" font-family="sans-serif" font-size="12" lengthAdjust="spacingAndGlyphs" textLength="26" x="3141.25" y="407.6074">WER</text><line style="stroke: #A80036; stroke-width: 1.5;" x1="2879" x2="3397" y1="419.4531" y2="419.4531"/><line style="stroke: #A80036; stroke-width: 1.5;" x1="2879" x2="3397" y1="427.4531" y2="427.4531"/><ellipse cx="2889" cy="438.4531" fill="#84BE84" rx="3" ry="3" style="stroke: #038048; stroke-width: 1.0;"/><text fill="#000000" font-family="sans-serif" font-size="11" lengthAdjust="spacingAndGlyphs" textLength="259" x="2898" y="441.6636">__init__(self, mode=None, differ_class=None)</text><ellipse cx="2889" cy="451.2578" fill="#84BE84" rx="3" ry="3" style="stroke: #038048; stroke-width: 1.0;"/><text fill="#000000" font-family="sans-serif" font-size="11" lengthAdjust="spacingAndGlyphs" textLength="494" x="2898" y="454.4683">compare(self, ref: benchmarkstt.schema.Schema, hyp: benchmarkstt.schema.Schema)</text><!--MD5=[ef94872a4633e4f53c81dbb8c48f7a6f]
class benchmarkstt.metrics.core.WordDiffs--><rect codeLine="35" fill="#FEFECE" filter="url(#f2zu61i1rtsew)" height="73.6094" id="benchmarkstt.metrics.core.WordDiffs" style="stroke: #A80036; stroke-width: 1.5;" width="520" x="3433" y="387.4531"/><ellipse cx="3658.75" cy="403.4531" fill="#ADD1B2" rx="11" ry="11" style="stroke: #A80036; stroke-width: 1.0;"/><path d="M3661.0938,399.125 C3660.1563,398.6875 3659.5625,398.5469 3658.6875,398.5469 C3656.0625,398.5469 3654.0625,400.625 3654.0625,403.3438 L3654.0625,404.4688 C3654.0625,407.0469 3656.1719,408.9375 3659.0625,408.9375 C3660.2813,408.9375 3661.4375,408.6406 3662.1875,408.0938 C3662.7656,407.6875 3663.0938,407.2344 3663.0938,406.8438 C3663.0938,406.3906 3662.7031,406 3662.2344,406 C3662.0156,406 3661.8125,406.0781 3661.625,406.2656 C3661.1719,406.75 3661.1719,406.75 3660.9844,406.8438 C3660.5625,407.1094 3659.875,407.2344 3659.1094,407.2344 C3657.0625,407.2344 3655.7656,406.1406 3655.7656,404.4375 L3655.7656,403.3438 C3655.7656,401.5625 3657.0156,400.25 3658.75,400.25 C3659.3281,400.25 3659.9375,400.4063 3660.4063,400.6563 C3660.8906,400.9375 3661.0625,401.1563 3661.1563,401.5625 C3661.2188,401.9688 3661.25,402.0938 3661.3906,402.2188 C3661.5313,402.3594 3661.7656,402.4688 3661.9844,402.4688 C3662.25,402.4688 3662.5156,402.3281 3662.6875,402.1094 C3662.7969,401.9531 3662.8281,401.7656 3662.8281,401.3438 L3662.8281,399.9219 C3662.8281,399.4844 3662.8125,399.3594 3662.7188,399.2031 C3662.5625,398.9375 3662.2813,398.7969 3661.9844,398.7969 C3661.6875,398.7969 3661.4844,398.8906 3661.2656,399.2031 L3661.0938,399.125 Z "/><text fill="#000000" font-family="sans-serif" font-size="12" lengthAdjust="spacingAndGlyphs" textLength="60" x="3679.25" y="407.6074">WordDiffs</text><line style="stroke: #A80036; stroke-width: 1.5;" x1="3434" x2="3952" y1="419.4531" y2="419.4531"/><line style="stroke: #A80036; stroke-width: 1.5;" x1="3434" x2="3952" y1="427.4531" y2="427.4531"/><ellipse cx="3444" cy="438.4531" fill="#84BE84" rx="3" ry="3" style="stroke: #038048; stroke-width: 1.0;"/><text fill="#000000" font-family="sans-serif" font-size="11" lengthAdjust="spacingAndGlyphs" textLength="264" x="3453" y="441.6636">__init__(self, dialect=None, differ_class=None)</text><ellipse cx="3444" cy="451.2578" fill="#84BE84" rx="3" ry="3" style="stroke: #038048; stroke-width: 1.0;"/><text fill="#000000" font-family="sans-serif" font-size="11" lengthAdjust="spacingAndGlyphs" textLength="494" x="3453" y="454.4683">compare(self, ref: benchmarkstt.schema.Schema, hyp: benchmarkstt.schema.Schema)</text><!--MD5=[5eef32e9538f5dcdb68c61d368837619]
class benchmarkstt.diff.core.RatcliffObershelp--><rect codeLine="18" fill="#FEFECE" filter="url(#f2zu61i1rtsew)" height="188.8516" id="benchmarkstt.diff.core.RatcliffObershelp" style="stroke: #A80036; stroke-width: 1.5;" width="261" x="4009.5" y="329.9531"/><ellipse cx="4084.25" cy="345.9531" fill="#ADD1B2" rx="11" ry="11" style="stroke: #A80036; stroke-width: 1.0;"/><path d="M4086.5938,341.625 C4085.6563,341.1875 4085.0625,341.0469 4084.1875,341.0469 C4081.5625,341.0469 4079.5625,343.125 4079.5625,345.8438 L4079.5625,346.9688 C4079.5625,349.5469 4081.6719,351.4375 4084.5625,351.4375 C4085.7813,351.4375 4086.9375,351.1406 4087.6875,350.5938 C4088.2656,350.1875 4088.5938,349.7344 4088.5938,349.3438 C4088.5938,348.8906 4088.2031,348.5 4087.7344,348.5 C4087.5156,348.5 4087.3125,348.5781 4087.125,348.7656 C4086.6719,349.25 4086.6719,349.25 4086.4844,349.3438 C4086.0625,349.6094 4085.375,349.7344 4084.6094,349.7344 C4082.5625,349.7344 4081.2656,348.6406 4081.2656,346.9375 L4081.2656,345.8438 C4081.2656,344.0625 4082.5156,342.75 4084.25,342.75 C4084.8281,342.75 4085.4375,342.9063 4085.9063,343.1563 C4086.3906,343.4375 4086.5625,343.6563 4086.6563,344.0625 C4086.7188,344.4688 4086.75,344.5938 4086.8906,344.7188 C4087.0313,344.8594 4087.2656,344.9688 4087.4844,344.9688 C4087.75,344.9688 4088.0156,344.8281 4088.1875,344.6094 C4088.2969,344.4531 4088.3281,344.2656 4088.3281,343.8438 L4088.3281,342.4219 C4088.3281,341.9844 4088.3125,341.8594 4088.2188,341.7031 C4088.0625,341.4375 4087.7813,341.2969 4087.4844,341.2969 C4087.1875,341.2969 4086.9844,341.3906 4086.7656,341.7031 L4086.5938,341.625 Z "/><text fill="#000000" font-family="sans-serif" font-size="12" lengthAdjust="spacingAndGlyphs" textLength="103" x="4104.75" y="350.1074">RatcliffObershelp</text><line style="stroke: #A80036; stroke-width: 1.5;" x1="4010.5" x2="4269.5" y1="361.9531" y2="361.9531"/><line style="stroke: #A80036; stroke-width: 1.5;" x1="4010.5" x2="4269.5" y1="369.9531" y2="369.9531"/><ellipse cx="4020.5" cy="380.9531" fill="#84BE84" rx="3" ry="3" style="stroke: #038048; stroke-width: 1.0;"/><text fill="#000000" font-family="sans-serif" font-size="11" lengthAdjust="spacingAndGlyphs" textLength="193" x="4029.5" y="384.1636">__init__(self, a, b, *args, **kwargs)</text><ellipse cx="4020.5" cy="393.7578" fill="#84BE84" rx="3" ry="3" style="stroke: #038048; stroke-width: 1.0;"/><text fill="#000000" font-family="sans-serif" font-size="11" lengthAdjust="spacingAndGlyphs" textLength="235" x="4029.5" y="396.9683">find_longest_match(self, alo, ahi, blo, bhi)</text><ellipse cx="4020.5" cy="406.5625" fill="#84BE84" rx="3" ry="3" style="stroke: #038048; stroke-width: 1.0;"/><text fill="#000000" font-family="sans-serif" font-size="11" lengthAdjust="spacingAndGlyphs" textLength="185" x="4029.5" y="409.7729">get_grouped_opcodes(self, n=3)</text><ellipse cx="4020.5" cy="419.3672" fill="#84BE84" rx="3" ry="3" style="stroke: #038048; stroke-width: 1.0;"/><text fill="#000000" font-family="sans-serif" font-size="11" lengthAdjust="spacingAndGlyphs" textLength="147" x="4029.5" y="422.5776">get_matching_blocks(self)</text><ellipse cx="4020.5" cy="432.1719" fill="#84BE84" rx="3" ry="3" style="stroke: #038048; stroke-width: 1.0;"/><text fill="#000000" font-family="sans-serif" font-size="11" lengthAdjust="spacingAndGlyphs" textLength="102" x="4029.5" y="435.3823">get_opcodes(self)</text><ellipse cx="4020.5" cy="444.9766" fill="#84BE84" rx="3" ry="3" style="stroke: #038048; stroke-width: 1.0;"/><text fill="#000000" font-family="sans-serif" font-size="11" lengthAdjust="spacingAndGlyphs" textLength="89" x="4029.5" y="448.187">quick_ratio(self)</text><ellipse cx="4020.5" cy="457.7813" fill="#84BE84" rx="3" ry="3" style="stroke: #038048; stroke-width: 1.0;"/><text fill="#000000" font-family="sans-serif" font-size="11" lengthAdjust="spacingAndGlyphs" textLength="54" x="4029.5" y="460.9917">ratio(self)</text><ellipse cx="4020.5" cy="470.5859" fill="#84BE84" rx="3" ry="3" style="stroke: #038048; stroke-width: 1.0;"/><text fill="#000000" font-family="sans-serif" font-size="11" lengthAdjust="spacingAndGlyphs" textLength="117" x="4029.5" y="473.7964">real_quick_ratio(self)</text><ellipse cx="4020.5" cy="483.3906" fill="#84BE84" rx="3" ry="3" style="stroke: #038048; stroke-width: 1.0;"/><text fill="#000000" font-family="sans-serif" font-size="11" lengthAdjust="spacingAndGlyphs" textLength="95" x="4029.5" y="486.6011">set_seq1(self, a)</text><ellipse cx="4020.5" cy="496.1953" fill="#84BE84" rx="3" ry="3" style="stroke: #038048; stroke-width: 1.0;"/><text fill="#000000" font-family="sans-serif" font-size="11" lengthAdjust="spacingAndGlyphs" textLength="95" x="4029.5" y="499.4058">set_seq2(self, b)</text><ellipse cx="4020.5" cy="509" fill="#84BE84" rx="3" ry="3" style="stroke: #038048; stroke-width: 1.0;"/><text fill="#000000" font-family="sans-serif" font-size="11" lengthAdjust="spacingAndGlyphs" textLength="108" x="4029.5" y="512.2104">set_seqs(self, a, b)</text><!--MD5=[490ea28922b6507fe4f9ed69fc6567ac]
class benchmarkstt.normalization.Base--><rect codeLine="39" fill="#FEFECE" filter="url(#f2zu61i1rtsew)" height="73.6094" id="benchmarkstt.normalization.Base" style="stroke: #A80036; stroke-width: 1.5;" width="136" x="654" y="67.9531"/><ellipse cx="702.75" cy="83.9531" fill="#ADD1B2" rx="11" ry="11" style="stroke: #A80036; stroke-width: 1.0;"/><path d="M705.0938,79.625 C704.1563,79.1875 703.5625,79.0469 702.6875,79.0469 C700.0625,79.0469 698.0625,81.125 698.0625,83.8438 L698.0625,84.9688 C698.0625,87.5469 700.1719,89.4375 703.0625,89.4375 C704.2813,89.4375 705.4375,89.1406 706.1875,88.5938 C706.7656,88.1875 707.0938,87.7344 707.0938,87.3438 C707.0938,86.8906 706.7031,86.5 706.2344,86.5 C706.0156,86.5 705.8125,86.5781 705.625,86.7656 C705.1719,87.25 705.1719,87.25 704.9844,87.3438 C704.5625,87.6094 703.875,87.7344 703.1094,87.7344 C701.0625,87.7344 699.7656,86.6406 699.7656,84.9375 L699.7656,83.8438 C699.7656,82.0625 701.0156,80.75 702.75,80.75 C703.3281,80.75 703.9375,80.9063 704.4063,81.1563 C704.8906,81.4375 705.0625,81.6563 705.1563,82.0625 C705.2188,82.4688 705.25,82.5938 705.3906,82.7188 C705.5313,82.8594 705.7656,82.9688 705.9844,82.9688 C706.25,82.9688 706.5156,82.8281 706.6875,82.6094 C706.7969,82.4531 706.8281,82.2656 706.8281,81.8438 L706.8281,80.4219 C706.8281,79.9844 706.8125,79.8594 706.7188,79.7031 C706.5625,79.4375 706.2813,79.2969 705.9844,79.2969 C705.6875,79.2969 705.4844,79.3906 705.2656,79.7031 L705.0938,79.625 Z "/><text fill="#000000" font-family="sans-serif" font-size="12" lengthAdjust="spacingAndGlyphs" textLength="30" x="723.25" y="88.1074">Base</text><line style="stroke: #A80036; stroke-width: 1.5;" x1="655" x2="789" y1="99.9531" y2="99.9531"/><line style="stroke: #A80036; stroke-width: 1.5;" x1="655" x2="789" y1="107.9531" y2="107.9531"/><ellipse cx="665" cy="118.9531" fill="#84BE84" rx="3" ry="3" style="stroke: #038048; stroke-width: 1.0;"/><text fill="#000000" font-family="sans-serif" font-size="11" lengthAdjust="spacingAndGlyphs" textLength="76" x="674" y="122.1636">__repr__(self)</text><ellipse cx="665" cy="131.7578" fill="#84BE84" rx="3" ry="3" style="stroke: #038048; stroke-width: 1.0;"/><text fill="#000000" font-family="sans-serif" font-size="11" lengthAdjust="spacingAndGlyphs" textLength="110" x="674" y="134.9683">normalize(cls, text)</text><!--MD5=[8731c9077ab4f00ce3929ee4866ad0a9]
class benchmarkstt.normalization.BaseWithFileSupport--><rect codeLine="43" fill="#FEFECE" filter="url(#f2zu61i1rtsew)" height="73.6094" id="benchmarkstt.normalization.BaseWithFileSupport" style="stroke: #A80036; stroke-width: 1.5;" width="157" x="32.5" y="387.4531"/><ellipse cx="47.5" cy="403.4531" fill="#ADD1B2" rx="11" ry="11" style="stroke: #A80036; stroke-width: 1.0;"/><path d="M49.8438,399.125 C48.9063,398.6875 48.3125,398.5469 47.4375,398.5469 C44.8125,398.5469 42.8125,400.625 42.8125,403.3438 L42.8125,404.4688 C42.8125,407.0469 44.9219,408.9375 47.8125,408.9375 C49.0313,408.9375 50.1875,408.6406 50.9375,408.0938 C51.5156,407.6875 51.8438,407.2344 51.8438,406.8438 C51.8438,406.3906 51.4531,406 50.9844,406 C50.7656,406 50.5625,406.0781 50.375,406.2656 C49.9219,406.75 49.9219,406.75 49.7344,406.8438 C49.3125,407.1094 48.625,407.2344 47.8594,407.2344 C45.8125,407.2344 44.5156,406.1406 44.5156,404.4375 L44.5156,403.3438 C44.5156,401.5625 45.7656,400.25 47.5,400.25 C48.0781,400.25 48.6875,400.4063 49.1563,400.6563 C49.6406,400.9375 49.8125,401.1563 49.9063,401.5625 C49.9688,401.9688 50,402.0938 50.1406,402.2188 C50.2813,402.3594 50.5156,402.4688 50.7344,402.4688 C51,402.4688 51.2656,402.3281 51.4375,402.1094 C51.5469,401.9531 51.5781,401.7656 51.5781,401.3438 L51.5781,399.9219 C51.5781,399.4844 51.5625,399.3594 51.4688,399.2031 C51.3125,398.9375 51.0313,398.7969 50.7344,398.7969 C50.4375,398.7969 50.2344,398.8906 50.0156,399.2031 L49.8438,399.125 Z "/><text fill="#000000" font-family="sans-serif" font-size="12" lengthAdjust="spacingAndGlyphs" textLength="125" x="61.5" y="407.6074">BaseWithFileSupport</text><line style="stroke: #A80036; stroke-width: 1.5;" x1="33.5" x2="188.5" y1="419.4531" y2="419.4531"/><line style="stroke: #A80036; stroke-width: 1.5;" x1="33.5" x2="188.5" y1="427.4531" y2="427.4531"/><ellipse cx="43.5" cy="438.4531" fill="#84BE84" rx="3" ry="3" style="stroke: #038048; stroke-width: 1.0;"/><text fill="#000000" font-family="sans-serif" font-size="11" lengthAdjust="spacingAndGlyphs" textLength="76" x="52.5" y="441.6636">__repr__(self)</text><ellipse cx="43.5" cy="451.2578" fill="#84BE84" rx="3" ry="3" style="stroke: #038048; stroke-width: 1.0;"/><text fill="#000000" font-family="sans-serif" font-size="11" lengthAdjust="spacingAndGlyphs" textLength="110" x="52.5" y="454.4683">normalize(cls, text)</text><!--MD5=[7be2797115ac10ff84f28e0e6993cad4]
class benchmarkstt.normalization.File--><rect codeLine="47" fill="#FEFECE" filter="url(#f2zu61i1rtsew)" height="86.4141" id="benchmarkstt.normalization.File" style="stroke: #A80036; stroke-width: 1.5;" width="358" x="225" y="381.4531"/><ellipse cx="389.25" cy="397.4531" fill="#ADD1B2" rx="11" ry="11" style="stroke: #A80036; stroke-width: 1.0;"/><path d="M391.5938,393.125 C390.6563,392.6875 390.0625,392.5469 389.1875,392.5469 C386.5625,392.5469 384.5625,394.625 384.5625,397.3438 L384.5625,398.4688 C384.5625,401.0469 386.6719,402.9375 389.5625,402.9375 C390.7813,402.9375 391.9375,402.6406 392.6875,402.0938 C393.2656,401.6875 393.5938,401.2344 393.5938,400.8438 C393.5938,400.3906 393.2031,400 392.7344,400 C392.5156,400 392.3125,400.0781 392.125,400.2656 C391.6719,400.75 391.6719,400.75 391.4844,400.8438 C391.0625,401.1094 390.375,401.2344 389.6094,401.2344 C387.5625,401.2344 386.2656,400.1406 386.2656,398.4375 L386.2656,397.3438 C386.2656,395.5625 387.5156,394.25 389.25,394.25 C389.8281,394.25 390.4375,394.4063 390.9063,394.6563 C391.3906,394.9375 391.5625,395.1563 391.6563,395.5625 C391.7188,395.9688 391.75,396.0938 391.8906,396.2188 C392.0313,396.3594 392.2656,396.4688 392.4844,396.4688 C392.75,396.4688 393.0156,396.3281 393.1875,396.1094 C393.2969,395.9531 393.3281,395.7656 393.3281,395.3438 L393.3281,393.9219 C393.3281,393.4844 393.3125,393.3594 393.2188,393.2031 C393.0625,392.9375 392.7813,392.7969 392.4844,392.7969 C392.1875,392.7969 391.9844,392.8906 391.7656,393.2031 L391.5938,393.125 Z "/><text fill="#000000" font-family="sans-serif" font-size="12" lengthAdjust="spacingAndGlyphs" textLength="21" x="409.75" y="401.6074">File</text><line style="stroke: #A80036; stroke-width: 1.5;" x1="226" x2="582" y1="413.4531" y2="413.4531"/><line style="stroke: #A80036; stroke-width: 1.5;" x1="226" x2="582" y1="421.4531" y2="421.4531"/><ellipse cx="236" cy="432.4531" fill="#84BE84" rx="3" ry="3" style="stroke: #038048; stroke-width: 1.0;"/><text fill="#000000" font-family="sans-serif" font-size="11" lengthAdjust="spacingAndGlyphs" textLength="332" x="245" y="435.6636">__init__(self, normalizer, file, encoding=None, path=None)</text><ellipse cx="236" cy="445.2578" fill="#84BE84" rx="3" ry="3" style="stroke: #038048; stroke-width: 1.0;"/><text fill="#000000" font-family="sans-serif" font-size="11" lengthAdjust="spacingAndGlyphs" textLength="76" x="245" y="448.4683">__repr__(self)</text><ellipse cx="236" cy="458.0625" fill="#84BE84" rx="3" ry="3" style="stroke: #038048; stroke-width: 1.0;"/><text fill="#000000" font-family="sans-serif" font-size="11" lengthAdjust="spacingAndGlyphs" textLength="110" x="245" y="461.2729">normalize(cls, text)</text><!--MD5=[de8f3446ad2e81fca4f3988b148f6ee4]
class benchmarkstt.normalization.NormalizationComposite--><rect codeLine="52" fill="#FEFECE" filter="url(#f2zu61i1rtsew)" height="99.2188" id="benchmarkstt.normalization.NormalizationComposite" style="stroke: #A80036; stroke-width: 1.5;" width="178" x="618" y="374.9531"/><ellipse cx="633" cy="390.9531" fill="#ADD1B2" rx="11" ry="11" style="stroke: #A80036; stroke-width: 1.0;"/><path d="M635.3438,386.625 C634.4063,386.1875 633.8125,386.0469 632.9375,386.0469 C630.3125,386.0469 628.3125,388.125 628.3125,390.8438 L628.3125,391.9688 C628.3125,394.5469 630.4219,396.4375 633.3125,396.4375 C634.5313,396.4375 635.6875,396.1406 636.4375,395.5938 C637.0156,395.1875 637.3438,394.7344 637.3438,394.3438 C637.3438,393.8906 636.9531,393.5 636.4844,393.5 C636.2656,393.5 636.0625,393.5781 635.875,393.7656 C635.4219,394.25 635.4219,394.25 635.2344,394.3438 C634.8125,394.6094 634.125,394.7344 633.3594,394.7344 C631.3125,394.7344 630.0156,393.6406 630.0156,391.9375 L630.0156,390.8438 C630.0156,389.0625 631.2656,387.75 633,387.75 C633.5781,387.75 634.1875,387.9063 634.6563,388.1563 C635.1406,388.4375 635.3125,388.6563 635.4063,389.0625 C635.4688,389.4688 635.5,389.5938 635.6406,389.7188 C635.7813,389.8594 636.0156,389.9688 636.2344,389.9688 C636.5,389.9688 636.7656,389.8281 636.9375,389.6094 C637.0469,389.4531 637.0781,389.2656 637.0781,388.8438 L637.0781,387.4219 C637.0781,386.9844 637.0625,386.8594 636.9688,386.7031 C636.8125,386.4375 636.5313,386.2969 636.2344,386.2969 C635.9375,386.2969 635.7344,386.3906 635.5156,386.7031 L635.3438,386.625 Z "/><text fill="#000000" font-family="sans-serif" font-size="12" lengthAdjust="spacingAndGlyphs" textLength="146" x="647" y="395.1074">NormalizationComposite</text><line style="stroke: #A80036; stroke-width: 1.5;" x1="619" x2="795" y1="406.9531" y2="406.9531"/><line style="stroke: #A80036; stroke-width: 1.5;" x1="619" x2="795" y1="414.9531" y2="414.9531"/><ellipse cx="629" cy="425.9531" fill="#84BE84" rx="3" ry="3" style="stroke: #038048; stroke-width: 1.0;"/><text fill="#000000" font-family="sans-serif" font-size="11" lengthAdjust="spacingAndGlyphs" textLength="138" x="638" y="429.1636">__init__(self, title=None)</text><ellipse cx="629" cy="438.7578" fill="#84BE84" rx="3" ry="3" style="stroke: #038048; stroke-width: 1.0;"/><text fill="#000000" font-family="sans-serif" font-size="11" lengthAdjust="spacingAndGlyphs" textLength="76" x="638" y="441.9683">__repr__(self)</text><ellipse cx="629" cy="451.5625" fill="#84BE84" rx="3" ry="3" style="stroke: #038048; stroke-width: 1.0;"/><text fill="#000000" font-family="sans-serif" font-size="11" lengthAdjust="spacingAndGlyphs" textLength="118" x="638" y="454.7729">add(self, normalizer)</text><ellipse cx="629" cy="464.3672" fill="#84BE84" rx="3" ry="3" style="stroke: #038048; stroke-width: 1.0;"/><text fill="#000000" font-family="sans-serif" font-size="11" lengthAdjust="spacingAndGlyphs" textLength="110" x="638" y="467.5776">normalize(cls, text)</text><!--MD5=[d1e904a0c11302288bad0868539b156c]
class benchmarkstt.input.Base--><rect codeLine="66" fill="#FEFECE" filter="url(#f2zu61i1rtsew)" height="60.8047" id="benchmarkstt.input.Base" style="stroke: #A80036; stroke-width: 1.5;" width="98" x="1789" y="74.4531"/><ellipse cx="1820.2" cy="90.4531" fill="#ADD1B2" rx="11" ry="11" style="stroke: #A80036; stroke-width: 1.0;"/><path d="M1822.5438,86.125 C1821.6063,85.6875 1821.0125,85.5469 1820.1375,85.5469 C1817.5125,85.5469 1815.5125,87.625 1815.5125,90.3438 L1815.5125,91.4688 C1815.5125,94.0469 1817.6219,95.9375 1820.5125,95.9375 C1821.7313,95.9375 1822.8875,95.6406 1823.6375,95.0938 C1824.2156,94.6875 1824.5438,94.2344 1824.5438,93.8438 C1824.5438,93.3906 1824.1531,93 1823.6844,93 C1823.4656,93 1823.2625,93.0781 1823.075,93.2656 C1822.6219,93.75 1822.6219,93.75 1822.4344,93.8438 C1822.0125,94.1094 1821.325,94.2344 1820.5594,94.2344 C1818.5125,94.2344 1817.2156,93.1406 1817.2156,91.4375 L1817.2156,90.3438 C1817.2156,88.5625 1818.4656,87.25 1820.2,87.25 C1820.7781,87.25 1821.3875,87.4063 1821.8563,87.6563 C1822.3406,87.9375 1822.5125,88.1563 1822.6063,88.5625 C1822.6688,88.9688 1822.7,89.0938 1822.8406,89.2188 C1822.9813,89.3594 1823.2156,89.4688 1823.4344,89.4688 C1823.7,89.4688 1823.9656,89.3281 1824.1375,89.1094 C1824.2469,88.9531 1824.2781,88.7656 1824.2781,88.3438 L1824.2781,86.9219 C1824.2781,86.4844 1824.2625,86.3594 1824.1688,86.2031 C1824.0125,85.9375 1823.7313,85.7969 1823.4344,85.7969 C1823.1375,85.7969 1822.9344,85.8906 1822.7156,86.2031 L1822.5438,86.125 Z "/><text fill="#000000" font-family="sans-serif" font-size="12" lengthAdjust="spacingAndGlyphs" textLength="30" x="1837.8" y="94.6074">Base</text><line style="stroke: #A80036; stroke-width: 1.5;" x1="1790" x2="1886" y1="106.4531" y2="106.4531"/><line style="stroke: #A80036; stroke-width: 1.5;" x1="1790" x2="1886" y1="114.4531" y2="114.4531"/><ellipse cx="1800" cy="125.4531" fill="#84BE84" rx="3" ry="3" style="stroke: #038048; stroke-width: 1.0;"/><text fill="#000000" font-family="sans-serif" font-size="11" lengthAdjust="spacingAndGlyphs" textLength="72" x="1809" y="128.6636">__iter__(self)</text><!--MD5=[002c34d32132957f7ddeee40910e80d3]
class benchmarkstt.segmentation.Base--><rect codeLine="73" fill="#FEFECE" filter="url(#f2zu61i1rtsew)" height="60.8047" id="benchmarkstt.segmentation.Base" style="stroke: #A80036; stroke-width: 1.5;" width="98" x="4460" y="74.4531"/><ellipse cx="4491.2" cy="90.4531" fill="#ADD1B2" rx="11" ry="11" style="stroke: #A80036; stroke-width: 1.0;"/><path d="M4493.5438,86.125 C4492.6063,85.6875 4492.0125,85.5469 4491.1375,85.5469 C4488.5125,85.5469 4486.5125,87.625 4486.5125,90.3438 L4486.5125,91.4688 C4486.5125,94.0469 4488.6219,95.9375 4491.5125,95.9375 C4492.7313,95.9375 4493.8875,95.6406 4494.6375,95.0938 C4495.2156,94.6875 4495.5438,94.2344 4495.5438,93.8438 C4495.5438,93.3906 4495.1531,93 4494.6844,93 C4494.4656,93 4494.2625,93.0781 4494.075,93.2656 C4493.6219,93.75 4493.6219,93.75 4493.4344,93.8438 C4493.0125,94.1094 4492.325,94.2344 4491.5594,94.2344 C4489.5125,94.2344 4488.2156,93.1406 4488.2156,91.4375 L4488.2156,90.3438 C4488.2156,88.5625 4489.4656,87.25 4491.2,87.25 C4491.7781,87.25 4492.3875,87.4063 4492.8563,87.6563 C4493.3406,87.9375 4493.5125,88.1563 4493.6063,88.5625 C4493.6688,88.9688 4493.7,89.0938 4493.8406,89.2188 C4493.9813,89.3594 4494.2156,89.4688 4494.4344,89.4688 C4494.7,89.4688 4494.9656,89.3281 4495.1375,89.1094 C4495.2469,88.9531 4495.2781,88.7656 4495.2781,88.3438 L4495.2781,86.9219 C4495.2781,86.4844 4495.2625,86.3594 4495.1688,86.2031 C4495.0125,85.9375 4494.7313,85.7969 4494.4344,85.7969 C4494.1375,85.7969 4493.9344,85.8906 4493.7156,86.2031 L4493.5438,86.125 Z "/><text fill="#000000" font-family="sans-serif" font-size="12" lengthAdjust="spacingAndGlyphs" textLength="30" x="4508.8" y="94.6074">Base</text><line style="stroke: #A80036; stroke-width: 1.5;" x1="4461" x2="4557" y1="106.4531" y2="106.4531"/><line style="stroke: #A80036; stroke-width: 1.5;" x1="4461" x2="4557" y1="114.4531" y2="114.4531"/><ellipse cx="4471" cy="125.4531" fill="#84BE84" rx="3" ry="3" style="stroke: #038048; stroke-width: 1.0;"/><text fill="#000000" font-family="sans-serif" font-size="11" lengthAdjust="spacingAndGlyphs" textLength="72" x="4480" y="128.6636">__iter__(self)</text><!--MD5=[e6682fb9f1ffb38935fc3ffe4e96004d]
class benchmarkstt.segmentation.core.Simple--><rect codeLine="76" fill="#FEFECE" filter="url(#f2zu61i1rtsew)" height="73.6094" id="benchmarkstt.segmentation.core.Simple" style="stroke: #A80036; stroke-width: 1.5;" width="363" x="4327.5" y="387.4531"/><ellipse cx="4484.25" cy="403.4531" fill="#ADD1B2" rx="11" ry="11" style="stroke: #A80036; stroke-width: 1.0;"/><path d="M4486.5938,399.125 C4485.6563,398.6875 4485.0625,398.5469 4484.1875,398.5469 C4481.5625,398.5469 4479.5625,400.625 4479.5625,403.3438 L4479.5625,404.4688 C4479.5625,407.0469 4481.6719,408.9375 4484.5625,408.9375 C4485.7813,408.9375 4486.9375,408.6406 4487.6875,408.0938 C4488.2656,407.6875 4488.5938,407.2344 4488.5938,406.8438 C4488.5938,406.3906 4488.2031,406 4487.7344,406 C4487.5156,406 4487.3125,406.0781 4487.125,406.2656 C4486.6719,406.75 4486.6719,406.75 4486.4844,406.8438 C4486.0625,407.1094 4485.375,407.2344 4484.6094,407.2344 C4482.5625,407.2344 4481.2656,406.1406 4481.2656,404.4375 L4481.2656,403.3438 C4481.2656,401.5625 4482.5156,400.25 4484.25,400.25 C4484.8281,400.25 4485.4375,400.4063 4485.9063,400.6563 C4486.3906,400.9375 4486.5625,401.1563 4486.6563,401.5625 C4486.7188,401.9688 4486.75,402.0938 4486.8906,402.2188 C4487.0313,402.3594 4487.2656,402.4688 4487.4844,402.4688 C4487.75,402.4688 4488.0156,402.3281 4488.1875,402.1094 C4488.2969,401.9531 4488.3281,401.7656 4488.3281,401.3438 L4488.3281,399.9219 C4488.3281,399.4844 4488.3125,399.3594 4488.2188,399.2031 C4488.0625,398.9375 4487.7813,398.7969 4487.4844,398.7969 C4487.1875,398.7969 4486.9844,398.8906 4486.7656,399.2031 L4486.5938,399.125 Z "/><text fill="#000000" font-family="sans-serif" font-size="12" lengthAdjust="spacingAndGlyphs" textLength="41" x="4504.75" y="407.6074">Simple</text><line style="stroke: #A80036; stroke-width: 1.5;" x1="4328.5" x2="4689.5" y1="419.4531" y2="419.4531"/><line style="stroke: #A80036; stroke-width: 1.5;" x1="4328.5" x2="4689.5" y1="427.4531" y2="427.4531"/><ellipse cx="4338.5" cy="438.4531" fill="#84BE84" rx="3" ry="3" style="stroke: #038048; stroke-width: 1.0;"/><text fill="#000000" font-family="sans-serif" font-size="11" lengthAdjust="spacingAndGlyphs" textLength="337" x="4347.5" y="441.6636">__init__(self, text: str, pattern='[\n\t\s]+', normalizer=None)</text><ellipse cx="4338.5" cy="451.2578" fill="#84BE84" rx="3" ry="3" style="stroke: #038048; stroke-width: 1.0;"/><text fill="#000000" font-family="sans-serif" font-size="11" lengthAdjust="spacingAndGlyphs" textLength="72" x="4347.5" y="454.4683">__iter__(self)</text><!--MD5=[6bad0332cb50a567e063560f49fe1b05]
class benchmarkstt.output.Base--><rect codeLine="80" fill="#FEFECE" filter="url(#f2zu61i1rtsew)" height="86.4141" id="benchmarkstt.output.Base" style="stroke: #A80036; stroke-width: 1.5;" width="257" x="4837.5" y="61.9531"/><ellipse cx="4946.75" cy="77.9531" fill="#ADD1B2" rx="11" ry="11" style="stroke: #A80036; stroke-width: 1.0;"/><path d="M4949.0938,73.625 C4948.1563,73.1875 4947.5625,73.0469 4946.6875,73.0469 C4944.0625,73.0469 4942.0625,75.125 4942.0625,77.8438 L4942.0625,78.9688 C4942.0625,81.5469 4944.1719,83.4375 4947.0625,83.4375 C4948.2813,83.4375 4949.4375,83.1406 4950.1875,82.5938 C4950.7656,82.1875 4951.0938,81.7344 4951.0938,81.3438 C4951.0938,80.8906 4950.7031,80.5 4950.2344,80.5 C4950.0156,80.5 4949.8125,80.5781 4949.625,80.7656 C4949.1719,81.25 4949.1719,81.25 4948.9844,81.3438 C4948.5625,81.6094 4947.875,81.7344 4947.1094,81.7344 C4945.0625,81.7344 4943.7656,80.6406 4943.7656,78.9375 L4943.7656,77.8438 C4943.7656,76.0625 4945.0156,74.75 4946.75,74.75 C4947.3281,74.75 4947.9375,74.9063 4948.4063,75.1563 C4948.8906,75.4375 4949.0625,75.6563 4949.1563,76.0625 C4949.2188,76.4688 4949.25,76.5938 4949.3906,76.7188 C4949.5313,76.8594 4949.7656,76.9688 4949.9844,76.9688 C4950.25,76.9688 4950.5156,76.8281 4950.6875,76.6094 C4950.7969,76.4531 4950.8281,76.2656 4950.8281,75.8438 L4950.8281,74.4219 C4950.8281,73.9844 4950.8125,73.8594 4950.7188,73.7031 C4950.5625,73.4375 4950.2813,73.2969 4949.9844,73.2969 C4949.6875,73.2969 4949.4844,73.3906 4949.2656,73.7031 L4949.0938,73.625 Z "/><text fill="#000000" font-family="sans-serif" font-size="12" lengthAdjust="spacingAndGlyphs" textLength="30" x="4967.25" y="82.1074">Base</text><line style="stroke: #A80036; stroke-width: 1.5;" x1="4838.5" x2="5093.5" y1="93.9531" y2="93.9531"/><line style="stroke: #A80036; stroke-width: 1.5;" x1="4838.5" x2="5093.5" y1="101.9531" y2="101.9531"/><ellipse cx="4848.5" cy="112.9531" fill="#84BE84" rx="3" ry="3" style="stroke: #038048; stroke-width: 1.0;"/><text fill="#000000" font-family="sans-serif" font-size="11" lengthAdjust="spacingAndGlyphs" textLength="84" x="4857.5" y="116.1636">__enter__(self)</text><ellipse cx="4848.5" cy="125.7578" fill="#84BE84" rx="3" ry="3" style="stroke: #038048; stroke-width: 1.0;"/><text fill="#000000" font-family="sans-serif" font-size="11" lengthAdjust="spacingAndGlyphs" textLength="231" x="4857.5" y="128.9683">__exit__(self, exc_type, exc_val, exc_tb)</text><ellipse cx="4848.5" cy="138.5625" fill="#84BE84" rx="3" ry="3" style="stroke: #038048; stroke-width: 1.0;"/><text fill="#000000" font-family="sans-serif" font-size="11" lengthAdjust="spacingAndGlyphs" textLength="129" x="4857.5" y="141.7729">result(self, title, result)</text><!--MD5=[f736c00f8e3d82ae904e3d345ee15690]
class benchmarkstt.output.core.Json--><rect codeLine="85" fill="#FEFECE" filter="url(#f2zu61i1rtsew)" height="99.2188" id="benchmarkstt.output.core.Json" style="stroke: #A80036; stroke-width: 1.5;" width="257" x="5039.5" y="374.9531"/><ellipse cx="5150.75" cy="390.9531" fill="#ADD1B2" rx="11" ry="11" style="stroke: #A80036; stroke-width: 1.0;"/><path d="M5153.0938,386.625 C5152.1563,386.1875 5151.5625,386.0469 5150.6875,386.0469 C5148.0625,386.0469 5146.0625,388.125 5146.0625,390.8438 L5146.0625,391.9688 C5146.0625,394.5469 5148.1719,396.4375 5151.0625,396.4375 C5152.2813,396.4375 5153.4375,396.1406 5154.1875,395.5938 C5154.7656,395.1875 5155.0938,394.7344 5155.0938,394.3438 C5155.0938,393.8906 5154.7031,393.5 5154.2344,393.5 C5154.0156,393.5 5153.8125,393.5781 5153.625,393.7656 C5153.1719,394.25 5153.1719,394.25 5152.9844,394.3438 C5152.5625,394.6094 5151.875,394.7344 5151.1094,394.7344 C5149.0625,394.7344 5147.7656,393.6406 5147.7656,391.9375 L5147.7656,390.8438 C5147.7656,389.0625 5149.0156,387.75 5150.75,387.75 C5151.3281,387.75 5151.9375,387.9063 5152.4063,388.1563 C5152.8906,388.4375 5153.0625,388.6563 5153.1563,389.0625 C5153.2188,389.4688 5153.25,389.5938 5153.3906,389.7188 C5153.5313,389.8594 5153.7656,389.9688 5153.9844,389.9688 C5154.25,389.9688 5154.5156,389.8281 5154.6875,389.6094 C5154.7969,389.4531 5154.8281,389.2656 5154.8281,388.8438 L5154.8281,387.4219 C5154.8281,386.9844 5154.8125,386.8594 5154.7188,386.7031 C5154.5625,386.4375 5154.2813,386.2969 5153.9844,386.2969 C5153.6875,386.2969 5153.4844,386.3906 5153.2656,386.7031 L5153.0938,386.625 Z "/><text fill="#000000" font-family="sans-serif" font-size="12" lengthAdjust="spacingAndGlyphs" textLength="26" x="5171.25" y="395.1074">Json</text><line style="stroke: #A80036; stroke-width: 1.5;" x1="5040.5" x2="5295.5" y1="406.9531" y2="406.9531"/><line style="stroke: #A80036; stroke-width: 1.5;" x1="5040.5" x2="5295.5" y1="414.9531" y2="414.9531"/><ellipse cx="5050.5" cy="425.9531" fill="#84BE84" rx="3" ry="3" style="stroke: #038048; stroke-width: 1.0;"/><text fill="#000000" font-family="sans-serif" font-size="11" lengthAdjust="spacingAndGlyphs" textLength="84" x="5059.5" y="429.1636">__enter__(self)</text><ellipse cx="5050.5" cy="438.7578" fill="#84BE84" rx="3" ry="3" style="stroke: #038048; stroke-width: 1.0;"/><text fill="#000000" font-family="sans-serif" font-size="11" lengthAdjust="spacingAndGlyphs" textLength="231" x="5059.5" y="441.9683">__exit__(self, exc_type, exc_val, exc_tb)</text><ellipse cx="5050.5" cy="451.5625" fill="#84BE84" rx="3" ry="3" style="stroke: #038048; stroke-width: 1.0;"/><text fill="#000000" font-family="sans-serif" font-size="11" lengthAdjust="spacingAndGlyphs" textLength="70" x="5059.5" y="454.7729">__init__(self)</text><ellipse cx="5050.5" cy="464.3672" fill="#84BE84" rx="3" ry="3" style="stroke: #038048; stroke-width: 1.0;"/><text fill="#000000" font-family="sans-serif" font-size="11" lengthAdjust="spacingAndGlyphs" textLength="129" x="5059.5" y="467.5776">result(self, title, result)</text><!--MD5=[1202924086ca6a88207a70c63baf9330]
class benchmarkstt.output.core.MarkDown--><rect codeLine="91" fill="#FEFECE" filter="url(#f2zu61i1rtsew)" height="99.2188" id="benchmarkstt.output.core.MarkDown" style="stroke: #A80036; stroke-width: 1.5;" width="257" x="4747.5" y="700.9531"/><ellipse cx="4840.25" cy="716.9531" fill="#ADD1B2" rx="11" ry="11" style="stroke: #A80036; stroke-width: 1.0;"/><path d="M4842.5938,712.625 C4841.6563,712.1875 4841.0625,712.0469 4840.1875,712.0469 C4837.5625,712.0469 4835.5625,714.125 4835.5625,716.8438 L4835.5625,717.9688 C4835.5625,720.5469 4837.6719,722.4375 4840.5625,722.4375 C4841.7813,722.4375 4842.9375,722.1406 4843.6875,721.5938 C4844.2656,721.1875 4844.5938,720.7344 4844.5938,720.3438 C4844.5938,719.8906 4844.2031,719.5 4843.7344,719.5 C4843.5156,719.5 4843.3125,719.5781 4843.125,719.7656 C4842.6719,720.25 4842.6719,720.25 4842.4844,720.3438 C4842.0625,720.6094 4841.375,720.7344 4840.6094,720.7344 C4838.5625,720.7344 4837.2656,719.6406 4837.2656,717.9375 L4837.2656,716.8438 C4837.2656,715.0625 4838.5156,713.75 4840.25,713.75 C4840.8281,713.75 4841.4375,713.9063 4841.9063,714.1563 C4842.3906,714.4375 4842.5625,714.6563 4842.6563,715.0625 C4842.7188,715.4688 4842.75,715.5938 4842.8906,715.7188 C4843.0313,715.8594 4843.2656,715.9688 4843.4844,715.9688 C4843.75,715.9688 4844.0156,715.8281 4844.1875,715.6094 C4844.2969,715.4531 4844.3281,715.2656 4844.3281,714.8438 L4844.3281,713.4219 C4844.3281,712.9844 4844.3125,712.8594 4844.2188,712.7031 C4844.0625,712.4375 4843.7813,712.2969 4843.4844,712.2969 C4843.1875,712.2969 4842.9844,712.3906 4842.7656,712.7031 L4842.5938,712.625 Z "/><text fill="#000000" font-family="sans-serif" font-size="12" lengthAdjust="spacingAndGlyphs" textLength="63" x="4860.75" y="721.1074">MarkDown</text><line style="stroke: #A80036; stroke-width: 1.5;" x1="4748.5" x2="5003.5" y1="732.9531" y2="732.9531"/><line style="stroke: #A80036; stroke-width: 1.5;" x1="4748.5" x2="5003.5" y1="740.9531" y2="740.9531"/><ellipse cx="4758.5" cy="751.9531" fill="#84BE84" rx="3" ry="3" style="stroke: #038048; stroke-width: 1.0;"/><text fill="#000000" font-family="sans-serif" font-size="11" lengthAdjust="spacingAndGlyphs" textLength="84" x="4767.5" y="755.1636">__enter__(self)</text><ellipse cx="4758.5" cy="764.7578" fill="#84BE84" rx="3" ry="3" style="stroke: #038048; stroke-width: 1.0;"/><text fill="#000000" font-family="sans-serif" font-size="11" lengthAdjust="spacingAndGlyphs" textLength="231" x="4767.5" y="767.9683">__exit__(self, exc_type, exc_val, exc_tb)</text><ellipse cx="4758.5" cy="777.5625" fill="#84BE84" rx="3" ry="3" style="stroke: #038048; stroke-width: 1.0;"/><text fill="#000000" font-family="sans-serif" font-size="11" lengthAdjust="spacingAndGlyphs" textLength="93" x="4767.5" y="780.7729">print(self, result)</text><ellipse cx="4758.5" cy="790.3672" fill="#84BE84" rx="3" ry="3" style="stroke: #038048; stroke-width: 1.0;"/><text fill="#000000" font-family="sans-serif" font-size="11" lengthAdjust="spacingAndGlyphs" textLength="129" x="4767.5" y="793.5776">result(self, title, result)</text><!--MD5=[1b1c3484ac7c767612303980bbf618ed]
class benchmarkstt.output.core.ReStructuredText--><rect codeLine="97" fill="#FEFECE" filter="url(#f2zu61i1rtsew)" height="99.2188" id="benchmarkstt.output.core.ReStructuredText" style="stroke: #A80036; stroke-width: 1.5;" width="257" x="5039.5" y="700.9531"/><ellipse cx="5111.75" cy="716.9531" fill="#ADD1B2" rx="11" ry="11" style="stroke: #A80036; stroke-width: 1.0;"/><path d="M5114.0938,712.625 C5113.1563,712.1875 5112.5625,712.0469 5111.6875,712.0469 C5109.0625,712.0469 5107.0625,714.125 5107.0625,716.8438 L5107.0625,717.9688 C5107.0625,720.5469 5109.1719,722.4375 5112.0625,722.4375 C5113.2813,722.4375 5114.4375,722.1406 5115.1875,721.5938 C5115.7656,721.1875 5116.0938,720.7344 5116.0938,720.3438 C5116.0938,719.8906 5115.7031,719.5 5115.2344,719.5 C5115.0156,719.5 5114.8125,719.5781 5114.625,719.7656 C5114.1719,720.25 5114.1719,720.25 5113.9844,720.3438 C5113.5625,720.6094 5112.875,720.7344 5112.1094,720.7344 C5110.0625,720.7344 5108.7656,719.6406 5108.7656,717.9375 L5108.7656,716.8438 C5108.7656,715.0625 5110.0156,713.75 5111.75,713.75 C5112.3281,713.75 5112.9375,713.9063 5113.4063,714.1563 C5113.8906,714.4375 5114.0625,714.6563 5114.1563,715.0625 C5114.2188,715.4688 5114.25,715.5938 5114.3906,715.7188 C5114.5313,715.8594 5114.7656,715.9688 5114.9844,715.9688 C5115.25,715.9688 5115.5156,715.8281 5115.6875,715.6094 C5115.7969,715.4531 5115.8281,715.2656 5115.8281,714.8438 L5115.8281,713.4219 C5115.8281,712.9844 5115.8125,712.8594 5115.7188,712.7031 C5115.5625,712.4375 5115.2813,712.2969 5114.9844,712.2969 C5114.6875,712.2969 5114.4844,712.3906 5114.2656,712.7031 L5114.0938,712.625 Z "/><text fill="#000000" font-family="sans-serif" font-size="12" lengthAdjust="spacingAndGlyphs" textLength="104" x="5132.25" y="721.1074">ReStructuredText</text><line style="stroke: #A80036; stroke-width: 1.5;" x1="5040.5" x2="5295.5" y1="732.9531" y2="732.9531"/><line style="stroke: #A80036; stroke-width: 1.5;" x1="5040.5" x2="5295.5" y1="740.9531" y2="740.9531"/><ellipse cx="5050.5" cy="751.9531" fill="#84BE84" rx="3" ry="3" style="stroke: #038048; stroke-width: 1.0;"/><text fill="#000000" font-family="sans-serif" font-size="11" lengthAdjust="spacingAndGlyphs" textLength="84" x="5059.5" y="755.1636">__enter__(self)</text><ellipse cx="5050.5" cy="764.7578" fill="#84BE84" rx="3" ry="3" style="stroke: #038048; stroke-width: 1.0;"/><text fill="#000000" font-family="sans-serif" font-size="11" lengthAdjust="spacingAndGlyphs" textLength="231" x="5059.5" y="767.9683">__exit__(self, exc_type, exc_val, exc_tb)</text><ellipse cx="5050.5" cy="777.5625" fill="#84BE84" rx="3" ry="3" style="stroke: #038048; stroke-width: 1.0;"/><text fill="#000000" font-family="sans-serif" font-size="11" lengthAdjust="spacingAndGlyphs" textLength="93" x="5059.5" y="780.7729">print(self, result)</text><ellipse cx="5050.5" cy="790.3672" fill="#84BE84" rx="3" ry="3" style="stroke: #038048; stroke-width: 1.0;"/><text fill="#000000" font-family="sans-serif" font-size="11" lengthAdjust="spacingAndGlyphs" textLength="129" x="5059.5" y="793.5776">result(self, title, result)</text><!--MD5=[ad472f876b41c377ab9c2f7fd723b528]
class benchmarkstt.output.core.SimpleTextBase--><rect codeLine="103" fill="#FEFECE" filter="url(#f2zu61i1rtsew)" height="99.2188" id="benchmarkstt.output.core.SimpleTextBase" style="stroke: #A80036; stroke-width: 1.5;" width="257" x="4747.5" y="374.9531"/><ellipse cx="4823.25" cy="390.9531" fill="#ADD1B2" rx="11" ry="11" style="stroke: #A80036; stroke-width: 1.0;"/><path d="M4825.5938,386.625 C4824.6563,386.1875 4824.0625,386.0469 4823.1875,386.0469 C4820.5625,386.0469 4818.5625,388.125 4818.5625,390.8438 L4818.5625,391.9688 C4818.5625,394.5469 4820.6719,396.4375 4823.5625,396.4375 C4824.7813,396.4375 4825.9375,396.1406 4826.6875,395.5938 C4827.2656,395.1875 4827.5938,394.7344 4827.5938,394.3438 C4827.5938,393.8906 4827.2031,393.5 4826.7344,393.5 C4826.5156,393.5 4826.3125,393.5781 4826.125,393.7656 C4825.6719,394.25 4825.6719,394.25 4825.4844,394.3438 C4825.0625,394.6094 4824.375,394.7344 4823.6094,394.7344 C4821.5625,394.7344 4820.2656,393.6406 4820.2656,391.9375 L4820.2656,390.8438 C4820.2656,389.0625 4821.5156,387.75 4823.25,387.75 C4823.8281,387.75 4824.4375,387.9063 4824.9063,388.1563 C4825.3906,388.4375 4825.5625,388.6563 4825.6563,389.0625 C4825.7188,389.4688 4825.75,389.5938 4825.8906,389.7188 C4826.0313,389.8594 4826.2656,389.9688 4826.4844,389.9688 C4826.75,389.9688 4827.0156,389.8281 4827.1875,389.6094 C4827.2969,389.4531 4827.3281,389.2656 4827.3281,388.8438 L4827.3281,387.4219 C4827.3281,386.9844 4827.3125,386.8594 4827.2188,386.7031 C4827.0625,386.4375 4826.7813,386.2969 4826.4844,386.2969 C4826.1875,386.2969 4825.9844,386.3906 4825.7656,386.7031 L4825.5938,386.625 Z "/><text fill="#000000" font-family="sans-serif" font-size="12" lengthAdjust="spacingAndGlyphs" textLength="97" x="4843.75" y="395.1074">SimpleTextBase</text><line style="stroke: #A80036; stroke-width: 1.5;" x1="4748.5" x2="5003.5" y1="406.9531" y2="406.9531"/><line style="stroke: #A80036; stroke-width: 1.5;" x1="4748.5" x2="5003.5" y1="414.9531" y2="414.9531"/><ellipse cx="4758.5" cy="425.9531" fill="#84BE84" rx="3" ry="3" style="stroke: #038048; stroke-width: 1.0;"/><text fill="#000000" font-family="sans-serif" font-size="11" lengthAdjust="spacingAndGlyphs" textLength="84" x="4767.5" y="429.1636">__enter__(self)</text><ellipse cx="4758.5" cy="438.7578" fill="#84BE84" rx="3" ry="3" style="stroke: #038048; stroke-width: 1.0;"/><text fill="#000000" font-family="sans-serif" font-size="11" lengthAdjust="spacingAndGlyphs" textLength="231" x="4767.5" y="441.9683">__exit__(self, exc_type, exc_val, exc_tb)</text><ellipse cx="4758.5" cy="451.5625" fill="#84BE84" rx="3" ry="3" style="stroke: #038048; stroke-width: 1.0;"/><text fill="#000000" font-family="sans-serif" font-size="11" lengthAdjust="spacingAndGlyphs" textLength="93" x="4767.5" y="454.7729">print(self, result)</text><ellipse cx="4758.5" cy="464.3672" fill="#84BE84" rx="3" ry="3" style="stroke: #038048; stroke-width: 1.0;"/><text fill="#000000" font-family="sans-serif" font-size="11" lengthAdjust="spacingAndGlyphs" textLength="129" x="4767.5" y="467.5776">result(self, title, result)</text><!--MD5=[6aa6ae3a879840a73b19fd2777afca9b]
class benchmarkstt.diff.Base--><rect codeLine="109" fill="#FEFECE" filter="url(#f2zu61i1rtsew)" height="73.6094" id="benchmarkstt.diff.Base" style="stroke: #A80036; stroke-width: 1.5;" width="154" x="4063" y="67.9531"/><ellipse cx="4120.75" cy="83.9531" fill="#ADD1B2" rx="11" ry="11" style="stroke: #A80036; stroke-width: 1.0;"/><path d="M4123.0938,79.625 C4122.1563,79.1875 4121.5625,79.0469 4120.6875,79.0469 C4118.0625,79.0469 4116.0625,81.125 4116.0625,83.8438 L4116.0625,84.9688 C4116.0625,87.5469 4118.1719,89.4375 4121.0625,89.4375 C4122.2813,89.4375 4123.4375,89.1406 4124.1875,88.5938 C4124.7656,88.1875 4125.0938,87.7344 4125.0938,87.3438 C4125.0938,86.8906 4124.7031,86.5 4124.2344,86.5 C4124.0156,86.5 4123.8125,86.5781 4123.625,86.7656 C4123.1719,87.25 4123.1719,87.25 4122.9844,87.3438 C4122.5625,87.6094 4121.875,87.7344 4121.1094,87.7344 C4119.0625,87.7344 4117.7656,86.6406 4117.7656,84.9375 L4117.7656,83.8438 C4117.7656,82.0625 4119.0156,80.75 4120.75,80.75 C4121.3281,80.75 4121.9375,80.9063 4122.4063,81.1563 C4122.8906,81.4375 4123.0625,81.6563 4123.1563,82.0625 C4123.2188,82.4688 4123.25,82.5938 4123.3906,82.7188 C4123.5313,82.8594 4123.7656,82.9688 4123.9844,82.9688 C4124.25,82.9688 4124.5156,82.8281 4124.6875,82.6094 C4124.7969,82.4531 4124.8281,82.2656 4124.8281,81.8438 L4124.8281,80.4219 C4124.8281,79.9844 4124.8125,79.8594 4124.7188,79.7031 C4124.5625,79.4375 4124.2813,79.2969 4123.9844,79.2969 C4123.6875,79.2969 4123.4844,79.3906 4123.2656,79.7031 L4123.0938,79.625 Z "/><text fill="#000000" font-family="sans-serif" font-size="12" lengthAdjust="spacingAndGlyphs" textLength="30" x="4141.25" y="88.1074">Base</text><line style="stroke: #A80036; stroke-width: 1.5;" x1="4064" x2="4216" y1="99.9531" y2="99.9531"/><line style="stroke: #A80036; stroke-width: 1.5;" x1="4064" x2="4216" y1="107.9531" y2="107.9531"/><ellipse cx="4074" cy="118.9531" fill="#84BE84" rx="3" ry="3" style="stroke: #038048; stroke-width: 1.0;"/><text fill="#000000" font-family="sans-serif" font-size="11" lengthAdjust="spacingAndGlyphs" textLength="128" x="4083" y="122.1636">__init__(self, a='', b='')</text><ellipse cx="4074" cy="131.7578" fill="#84BE84" rx="3" ry="3" style="stroke: #038048; stroke-width: 1.0;"/><text fill="#000000" font-family="sans-serif" font-size="11" lengthAdjust="spacingAndGlyphs" textLength="102" x="4083" y="134.9683">get_opcodes(self)</text><!--MD5=[5061374c777a9754aae33fd446b51956]
reverse link benchmarkstt.normalization.Base to benchmarkstt.normalization.core.Config--><path codeLine="114" d="M767.801,157.3381 C823.35,219.6581 915.929,323.5231 967.463,381.3401 " fill="none" id="benchmarkstt.normalization.Base&lt;-benchmarkstt.normalization.core.Config" style="stroke: #A80036; stroke-width: 1.0;"/><polygon fill="none" points="762.27,161.6531,754.188,142.0651,772.721,152.3381,762.27,161.6531" style="stroke: #A80036; stroke-width: 1.0;"/><!--MD5=[3d607d7f67fd018830fa1d9f070f3dcc]
reverse link benchmarkstt.input.Base to benchmarkstt.input.core.PlainText--><path codeLine="115" d="M1821,154.5721 C1798.58,218.7141 1759.62,330.1431 1739.63,387.3241 " fill="none" id="benchmarkstt.input.Base&lt;-benchmarkstt.input.core.PlainText" style="stroke: #A80036; stroke-width: 1.0;"/><polygon fill="none" points="1814.45,152.1071,1827.66,135.5381,1827.66,156.7271,1814.45,152.1071" style="stroke: #A80036; stroke-width: 1.0;"/><!--MD5=[0e20ec8c1c3e6f52fb3eaed392cf3205]
reverse link benchmarkstt.metrics.Base to benchmarkstt.metrics.core.DiffCounts--><path codeLine="116" d="M3068.78,145.5491 C2960.09,207.7311 2750.98,327.3581 2646.15,387.3241 " fill="none" id="benchmarkstt.metrics.Base&lt;-benchmarkstt.metrics.core.DiffCounts" style="stroke: #A80036; stroke-width: 1.0;"/><polygon fill="none" points="3065.45,139.3931,3086.29,135.5381,3072.4,151.5451,3065.45,139.3931" style="stroke: #A80036; stroke-width: 1.0;"/><!--MD5=[995a509b438cdc2d97b80485f82ea7f7]
reverse link benchmarkstt.diff.Base to benchmarkstt.diff.core.RatcliffObershelp--><path codeLine="117" d="M4140,162.1341 C4140,208.5341 4140,275.3761 4140,329.8421 " fill="none" id="benchmarkstt.diff.Base&lt;-benchmarkstt.diff.core.RatcliffObershelp" style="stroke: #A80036; stroke-width: 1.0;"/><polygon fill="none" points="4133,162.0651,4140,142.0651,4147,162.0651,4133,162.0651" style="stroke: #A80036; stroke-width: 1.0;"/><!--MD5=[30299ce62ca518511ed25a5a2ec7aa2b]
reverse link benchmarkstt.metrics.Base to benchmarkstt.metrics.core.WER--><path codeLine="118" d="M3138,155.8281 C3138,220.1581 3138,330.5141 3138,387.3241 " fill="none" id="benchmarkstt.metrics.Base&lt;-benchmarkstt.metrics.core.WER" style="stroke: #A80036; stroke-width: 1.0;"/><polygon fill="none" points="3131,155.5381,3138,135.5381,3145,155.5371,3131,155.5381" style="stroke: #A80036; stroke-width: 1.0;"/><!--MD5=[4985c6bdcdda9aa3aac1b42ffb8ef9ca]
reverse link benchmarkstt.metrics.Base to benchmarkstt.metrics.core.WordDiffs--><path codeLine="119" d="M3207.22,145.5491 C3315.91,207.7311 3525.02,327.3581 3629.85,387.3241 " fill="none" id="benchmarkstt.metrics.Base&lt;-benchmarkstt.metrics.core.WordDiffs" style="stroke: #A80036; stroke-width: 1.0;"/><polygon fill="none" points="3203.6,151.5451,3189.71,135.5381,3210.55,139.3931,3203.6,151.5451" style="stroke: #A80036; stroke-width: 1.0;"/><!--MD5=[575e663b2536f330a8a680af2dda35b7]
reverse link benchmarkstt.normalization.Base to benchmarkstt.normalization.BaseWithFileSupport--><path codeLine="120" d="M634.212,119.8151 C524.989,140.6311 337.046,188.5181 207,286.9531 C171.887,313.5311 144.627,356.6691 128.273,387.3321 " fill="none" id="benchmarkstt.normalization.Base&lt;-benchmarkstt.normalization.BaseWithFileSupport" style="stroke: #A80036; stroke-width: 1.0;"/><polygon fill="none" points="633.05,112.9121,653.986,116.1791,635.582,126.6811,633.05,112.9121" style="stroke: #A80036; stroke-width: 1.0;"/><!--MD5=[9f442861b615eeab1a4471824f88bd49]
reverse link benchmarkstt.normalization.Base to benchmarkstt.normalization.File--><path codeLine="121" d="M671.327,156.5461 C609,218.7761 504.333,323.2781 446.179,381.3401 " fill="none" id="benchmarkstt.normalization.Base&lt;-benchmarkstt.normalization.File" style="stroke: #A80036; stroke-width: 1.0;"/><polygon fill="none" points="666.732,151.2431,685.831,142.0651,676.624,161.1501,666.732,151.2431" style="stroke: #A80036; stroke-width: 1.0;"/><!--MD5=[4002a7e727d35a405f517db3ff42843b]
reverse link benchmarkstt.normalization.Base to benchmarkstt.normalization.NormalizationComposite--><path codeLine="122" d="M719.34,162.2571 C716.485,222.6941 711.996,317.7111 709.291,374.9511 " fill="none" id="benchmarkstt.normalization.Base&lt;-benchmarkstt.normalization.NormalizationComposite" style="stroke: #A80036; stroke-width: 1.0;"/><polygon fill="none" points="712.358,161.7131,720.294,142.0651,726.342,162.3731,712.358,161.7131" style="stroke: #A80036; stroke-width: 1.0;"/><!--MD5=[d8d26d3f93abbb7999e5fa4853678912]
reverse link benchmarkstt.normalization.Base to benchmarkstt.normalization.core.Lowercase--><path codeLine="123" d="M809.916,123.8291 C907.888,147.3841 1066.73,196.8011 1175,286.9531 C1207.61,314.1061 1231.74,356.9261 1246.01,387.3611 " fill="none" id="benchmarkstt.normalization.Base&lt;-benchmarkstt.normalization.core.Lowercase" style="stroke: #A80036; stroke-width: 1.0;"/><polygon fill="none" points="808.164,130.6091,790.272,119.2571,811.338,116.9731,808.164,130.6091" style="stroke: #A80036; stroke-width: 1.0;"/><!--MD5=[c25f46be65441ad90754122994e70604]
reverse link benchmarkstt.normalization.Base to benchmarkstt.normalization.core.Unidecode--><path codeLine="124" d="M810.65,111.8661 C940.272,124.5631 1183.71,164.1881 1346,286.9531 C1380.07,312.7221 1404.06,356.2281 1417.9,387.1951 " fill="none" id="benchmarkstt.normalization.Base&lt;-benchmarkstt.normalization.core.Unidecode" style="stroke: #A80036; stroke-width: 1.0;"/><polygon fill="none" points="809.751,118.8131,790.473,110.0181,811.028,104.8711,809.751,118.8131" style="stroke: #A80036; stroke-width: 1.0;"/><!--MD5=[065a416e4c33abf0dffdc83d6e1bf045]
reverse link benchmarkstt.input.Base to benchmarkstt.input.core.File--><path codeLine="125" d="M1875.41,151.2831 C1927.85,214.8381 2022.18,329.1531 2070.19,387.3241 " fill="none" id="benchmarkstt.input.Base&lt;-benchmarkstt.input.core.File" style="stroke: #A80036; stroke-width: 1.0;"/><polygon fill="none" points="1869.74,155.4191,1862.41,135.5381,1880.54,146.5081,1869.74,155.4191" style="stroke: #A80036; stroke-width: 1.0;"/><!--MD5=[ec6170c354b4ffc3f1d5dae0d39c7b48]
reverse link benchmarkstt.segmentation.Base to benchmarkstt.segmentation.core.Simple--><path codeLine="126" d="M4509,155.8281 C4509,220.1581 4509,330.5141 4509,387.3241 " fill="none" id="benchmarkstt.segmentation.Base&lt;-benchmarkstt.segmentation.core.Simple" style="stroke: #A80036; stroke-width: 1.0;"/><polygon fill="none" points="4502,155.5381,4509,135.5381,4516,155.5371,4502,155.5381" style="stroke: #A80036; stroke-width: 1.0;"/><!--MD5=[b4ba39b199d1ae7f900ea69508af4a3d]
reverse link benchmarkstt.output.Base to benchmarkstt.output.core.Json--><path codeLine="127" d="M5003.58,165.0181 C5042.07,225.5261 5101.22,318.4861 5137.09,374.8701 " fill="none" id="benchmarkstt.output.Base&lt;-benchmarkstt.output.core.Json" style="stroke: #A80036; stroke-width: 1.0;"/><polygon fill="none" points="4997.65,168.7461,4992.82,148.1151,5009.47,161.2311,4997.65,168.7461" style="stroke: #A80036; stroke-width: 1.0;"/><!--MD5=[649e8d6b5a19579f64f6ff55d9b80603]
reverse link benchmarkstt.output.core.SimpleTextBase to benchmarkstt.output.core.MarkDown--><path codeLine="128" d="M4876,494.2531 C4876,556.3091 4876,646.0151 4876,700.8811 " fill="none" id="benchmarkstt.output.core.SimpleTextBase&lt;-benchmarkstt.output.core.MarkDown" style="stroke: #A80036; stroke-width: 1.0;"/><polygon fill="none" points="4869,493.9591,4876,473.9591,4883,493.9591,4869,493.9591" style="stroke: #A80036; stroke-width: 1.0;"/><!--MD5=[0064dcd89a9c0ed1362beefa7e7418bc]
reverse link benchmarkstt.output.core.SimpleTextBase to benchmarkstt.output.core.ReStructuredText--><path codeLine="129" d="M4933.31,489.0491 C4989.33,551.2001 5073.38,644.4621 5124.22,700.8811 " fill="none" id="benchmarkstt.output.core.SimpleTextBase&lt;-benchmarkstt.output.core.ReStructuredText" style="stroke: #A80036; stroke-width: 1.0;"/><polygon fill="none" points="4927.9,493.5021,4919.72,473.9591,4938.3,484.1301,4927.9,493.5021" style="stroke: #A80036; stroke-width: 1.0;"/><!--MD5=[ec4fe02a8646f37173536f5ee390896c]
reverse link benchmarkstt.output.Base to benchmarkstt.output.core.SimpleTextBase--><path codeLine="130" d="M4948.59,167.3711 C4931.43,227.9131 4905.55,319.2121 4889.77,374.8701 " fill="none" id="benchmarkstt.output.Base&lt;-benchmarkstt.output.core.SimpleTextBase" style="stroke: #A80036; stroke-width: 1.0;"/><polygon fill="none" points="4941.86,165.4471,4954.05,148.1151,4955.33,169.2651,4941.86,165.4471" style="stroke: #A80036; stroke-width: 1.0;"/><!--MD5=[f3869d9085ae659015e054f4f51ed917]
@startuml
title 'Core BenchmarkSTT Structure'
		class benchmarkstt.normalization.core.Config {
			+__init__(self, file, section=None, encoding=None)
			+__repr__(self)
			+normalize(cls, text)
		}
		class benchmarkstt.input.core.PlainText {
			+__init__(self, text, segmenter=None, normalizer=None)
			+__iter__(self)
		}
		class benchmarkstt.metrics.Base {
			+compare(self, ref: benchmarkstt.schema.Schema, hyp: benchmarkstt.schema.Schema)
		}
		class benchmarkstt.metrics.core.DiffCounts {
			+__init__(self, differ_class=None)
			+compare(self, ref: benchmarkstt.schema.Schema, hyp: benchmarkstt.schema.Schema)
		}
		class benchmarkstt.diff.core.RatcliffObershelp {
			+__init__(self, a, b, *args, **kwargs)
			+find_longest_match(self, alo, ahi, blo, bhi)
			+get_grouped_opcodes(self, n=3)
			+get_matching_blocks(self)
			+get_opcodes(self)
			+quick_ratio(self)
			+ratio(self)
			+real_quick_ratio(self)
			+set_seq1(self, a)
			+set_seq2(self, b)
			+set_seqs(self, a, b)
		}
		class benchmarkstt.metrics.core.WER {
			+__init__(self, mode=None, differ_class=None)
			+compare(self, ref: benchmarkstt.schema.Schema, hyp: benchmarkstt.schema.Schema)
		}
		class benchmarkstt.metrics.core.WordDiffs {
			+__init__(self, dialect=None, differ_class=None)
			+compare(self, ref: benchmarkstt.schema.Schema, hyp: benchmarkstt.schema.Schema)
		}
		class benchmarkstt.normalization.Base {
			+__repr__(self)
			+normalize(cls, text)
		}
		class benchmarkstt.normalization.BaseWithFileSupport {
			+__repr__(self)
			+normalize(cls, text)
		}
		class benchmarkstt.normalization.File {
			+__init__(self, normalizer, file, encoding=None, path=None)
			+__repr__(self)
			+normalize(cls, text)
		}
		class benchmarkstt.normalization.NormalizationComposite {
			+__init__(self, title=None)
			+__repr__(self)
			+add(self, normalizer)
			+normalize(cls, text)
		}
		class benchmarkstt.normalization.core.Lowercase {
			+__repr__(self)
			+normalize(cls, text)
		}
		class benchmarkstt.normalization.core.Unidecode {
			+__repr__(self)
			+normalize(cls, text)
		}
		class benchmarkstt.input.Base {
			+__iter__(self)
		}
		class benchmarkstt.input.core.File {
			+__init__(self, file, input_type=None, normalizer=None)
			+__iter__(self)
		}
		class benchmarkstt.segmentation.Base {
			+__iter__(self)
		}
		class benchmarkstt.segmentation.core.Simple {
			+__init__(self, text: str, pattern='[\\n\\t\\s]+', normalizer=None)
			+__iter__(self)
		}
		class benchmarkstt.output.Base {
			+__enter__(self)
			+__exit__(self, exc_type, exc_val, exc_tb)
			+result(self, title, result)
		}
		class benchmarkstt.output.core.Json {
			+__enter__(self)
			+__exit__(self, exc_type, exc_val, exc_tb)
			+__init__(self)
			+result(self, title, result)
		}
		class benchmarkstt.output.core.MarkDown {
			+__enter__(self)
			+__exit__(self, exc_type, exc_val, exc_tb)
			+print(self, result)
			+result(self, title, result)
		}
		class benchmarkstt.output.core.ReStructuredText {
			+__enter__(self)
			+__exit__(self, exc_type, exc_val, exc_tb)
			+print(self, result)
			+result(self, title, result)
		}
		class benchmarkstt.output.core.SimpleTextBase {
			+__enter__(self)
			+__exit__(self, exc_type, exc_val, exc_tb)
			+print(self, result)
			+result(self, title, result)
		}
		class benchmarkstt.diff.Base {
			+__init__(self, a='', b='')
			+get_opcodes(self)
		}

benchmarkstt.normalization.core.Config - -up- -|> benchmarkstt.normalization.Base
benchmarkstt.input.core.PlainText - -up- -|> benchmarkstt.input.Base
benchmarkstt.metrics.core.DiffCounts - -up- -|> benchmarkstt.metrics.Base
benchmarkstt.diff.core.RatcliffObershelp - -up- -|> benchmarkstt.diff.Base
benchmarkstt.metrics.core.WER - -up- -|> benchmarkstt.metrics.Base
benchmarkstt.metrics.core.WordDiffs - -up- -|> benchmarkstt.metrics.Base
benchmarkstt.normalization.BaseWithFileSupport - -up- -|> benchmarkstt.normalization.Base
benchmarkstt.normalization.File - -up- -|> benchmarkstt.normalization.Base
benchmarkstt.normalization.NormalizationComposite - -up- -|> benchmarkstt.normalization.Base
benchmarkstt.normalization.core.Lowercase - -up- -|> benchmarkstt.normalization.Base
benchmarkstt.normalization.core.Unidecode - -up- -|> benchmarkstt.normalization.Base
benchmarkstt.input.core.File - -up- -|> benchmarkstt.input.Base
benchmarkstt.segmentation.core.Simple - -up- -|> benchmarkstt.segmentation.Base
benchmarkstt.output.core.Json - -up- -|> benchmarkstt.output.Base
benchmarkstt.output.core.MarkDown - -up- -|> benchmarkstt.output.core.SimpleTextBase
benchmarkstt.output.core.ReStructuredText - -up- -|> benchmarkstt.output.core.SimpleTextBase
benchmarkstt.output.core.SimpleTextBase - -up- -|> benchmarkstt.output.Base
@enduml

PlantUML version 1.2020.16beta7(Unknown compile time)
(GPL source distribution)
Java Runtime: Java(TM) SE Runtime Environment
JVM: Java HotSpot(TM) 64-Bit Server VM
Default Encoding: UTF-8
Language: en
Country: US
--></g></svg>