<?xml version="1.0" encoding="UTF-8" standalone="no"?><svg xmlns="http://www.w3.org/2000/svg" xmlns:xlink="http://www.w3.org/1999/xlink" contentScriptType="application/ecmascript" contentStyleType="text/css" height="827px" preserveAspectRatio="none" style="width:5201px;height:827px;" version="1.1" viewBox="0 0 5201 827" width="5201px" zoomAndPan="magnify"><defs><filter height="300%" id="fj6usp8gtyjgq" width="300%" x="-1" y="-1"><feGaussianBlur result="blurOut" stdDeviation="2.0"/><feColorMatrix in="blurOut" result="blurOut2" type="matrix" values="0 0 0 0 0 0 0 0 0 0 0 0 0 0 0 0 0 0 .4 0"/><feOffset dx="4.0" dy="4.0" in="blurOut2" result="blurOut3"/><feBlend in="SourceGraphic" in2="blurOut3" mode="normal"/></filter></defs><g><text fill="#000000" font-family="sans-serif" font-size="18" lengthAdjust="spacingAndGlyphs" textLength="294" x="2444.5" y="16.708">'Core BenchmarkSTT Structure'</text><!--MD5=[32fbec9dac052c23fb29020cf729fbb3]
cluster benchmarkstt.normalization.core--><polygon fill="#FFFFFF" filter="url(#fj6usp8gtyjgq)" points="16,672.4531,295,672.4531,302,694.75,1501,694.75,1501,809.4531,16,809.4531,16,672.4531" style="stroke: #000000; stroke-width: 1.5;"/><line style="stroke: #000000; stroke-width: 1.5;" x1="16" x2="302" y1="694.75" y2="694.75"/><text fill="#000000" font-family="sans-serif" font-size="14" font-weight="bold" lengthAdjust="spacingAndGlyphs" textLength="273" x="20" y="687.4482">benchmarkstt.normalization.core</text><!--MD5=[5c7a64d73ca244446f0e70026cf5d0bf]
cluster benchmarkstt.input.core--><polygon fill="#FFFFFF" filter="url(#fj6usp8gtyjgq)" points="1406,352.4531,1614,352.4531,1621,374.75,2149,374.75,2149,477.4531,1406,477.4531,1406,352.4531" style="stroke: #000000; stroke-width: 1.5;"/><line style="stroke: #000000; stroke-width: 1.5;" x1="1406" x2="1621" y1="374.75" y2="374.75"/><text fill="#000000" font-family="sans-serif" font-size="14" font-weight="bold" lengthAdjust="spacingAndGlyphs" textLength="202" x="1410" y="367.4482">benchmarkstt.input.core</text><!--MD5=[22ea792f0a86ed46e658ff5419811104]
cluster benchmarkstt.metrics--><polygon fill="#FFFFFF" filter="url(#fj6usp8gtyjgq)" points="2728,39.4531,2915,39.4531,2922,61.75,3280,61.75,3280,151.4531,2728,151.4531,2728,39.4531" style="stroke: #000000; stroke-width: 1.5;"/><line style="stroke: #000000; stroke-width: 1.5;" x1="2728" x2="2922" y1="61.75" y2="61.75"/><text fill="#000000" font-family="sans-serif" font-size="14" font-weight="bold" lengthAdjust="spacingAndGlyphs" textLength="181" x="2732" y="54.4482">benchmarkstt.metrics</text><!--MD5=[144dc3a7777fd2b902a939eb9db82fdd]
cluster benchmarkstt.metrics.core--><polygon fill="#FFFFFF" filter="url(#fj6usp8gtyjgq)" points="2173,352.4531,2400,352.4531,2407,374.75,3835,374.75,3835,477.4531,2173,477.4531,2173,352.4531" style="stroke: #000000; stroke-width: 1.5;"/><line style="stroke: #000000; stroke-width: 1.5;" x1="2173" x2="2407" y1="374.75" y2="374.75"/><text fill="#000000" font-family="sans-serif" font-size="14" font-weight="bold" lengthAdjust="spacingAndGlyphs" textLength="221" x="2177" y="367.4482">benchmarkstt.metrics.core</text><!--MD5=[09ed425bc4f616bbad3d6f8b00541a65]
cluster benchmarkstt.diff.core--><polygon fill="#FFFFFF" filter="url(#fj6usp8gtyjgq)" points="3859,294.9531,4053,294.9531,4060,317.25,4153,317.25,4153,534.9531,3859,534.9531,3859,294.9531" style="stroke: #000000; stroke-width: 1.5;"/><line style="stroke: #000000; stroke-width: 1.5;" x1="3859" x2="4060" y1="317.25" y2="317.25"/><text fill="#000000" font-family="sans-serif" font-size="14" font-weight="bold" lengthAdjust="spacingAndGlyphs" textLength="188" x="3863" y="309.9482">benchmarkstt.diff.core</text><!--MD5=[24f62e7049ba18d46b504c61d91c5470]
cluster benchmarkstt.normalization--><polygon fill="#FFFFFF" filter="url(#fj6usp8gtyjgq)" points="329,32.9531,568,32.9531,575,55.25,1125,55.25,1125,489.9531,329,489.9531,329,32.9531" style="stroke: #000000; stroke-width: 1.5;"/><line style="stroke: #000000; stroke-width: 1.5;" x1="329" x2="575" y1="55.25" y2="55.25"/><text fill="#000000" font-family="sans-serif" font-size="14" font-weight="bold" lengthAdjust="spacingAndGlyphs" textLength="233" x="333" y="47.9482">benchmarkstt.normalization</text><!--MD5=[94de2ef9dde389aecb44d7f232eba8a2]
cluster benchmarkstt.input--><polygon fill="#FFFFFF" filter="url(#fj6usp8gtyjgq)" points="1615,39.4531,1783,39.4531,1790,61.75,1793,61.75,1793,151.4531,1615,151.4531,1615,39.4531" style="stroke: #000000; stroke-width: 1.5;"/><line style="stroke: #000000; stroke-width: 1.5;" x1="1615" x2="1790" y1="61.75" y2="61.75"/><text fill="#000000" font-family="sans-serif" font-size="14" font-weight="bold" lengthAdjust="spacingAndGlyphs" textLength="162" x="1619" y="54.4482">benchmarkstt.input</text><!--MD5=[65eb5fcee437765d99707c9196661bb6]
cluster benchmarkstt.segmentation--><polygon fill="#FFFFFF" filter="url(#fj6usp8gtyjgq)" points="4251,39.4531,4489,39.4531,4496,61.75,4499,61.75,4499,151.4531,4251,151.4531,4251,39.4531" style="stroke: #000000; stroke-width: 1.5;"/><line style="stroke: #000000; stroke-width: 1.5;" x1="4251" x2="4496" y1="61.75" y2="61.75"/><text fill="#000000" font-family="sans-serif" font-size="14" font-weight="bold" lengthAdjust="spacingAndGlyphs" textLength="232" x="4255" y="54.4482">benchmarkstt.segmentation</text><!--MD5=[bbd7f55af96c8522598147a787b5c5b9]
cluster benchmarkstt.segmentation.core--><polygon fill="#FFFFFF" filter="url(#fj6usp8gtyjgq)" points="4177,352.4531,4455,352.4531,4462,374.75,4573,374.75,4573,477.4531,4177,477.4531,4177,352.4531" style="stroke: #000000; stroke-width: 1.5;"/><line style="stroke: #000000; stroke-width: 1.5;" x1="4177" x2="4462" y1="374.75" y2="374.75"/><text fill="#000000" font-family="sans-serif" font-size="14" font-weight="bold" lengthAdjust="spacingAndGlyphs" textLength="272" x="4181" y="367.4482">benchmarkstt.segmentation.core</text><!--MD5=[c2f5f1914e6a0fca7cbdb2b44310c20b]
cluster benchmarkstt.output--><polygon fill="#FFFFFF" filter="url(#fj6usp8gtyjgq)" points="4687,26.9531,4868,26.9531,4875,49.25,4977,49.25,4977,163.9531,4687,163.9531,4687,26.9531" style="stroke: #000000; stroke-width: 1.5;"/><line style="stroke: #000000; stroke-width: 1.5;" x1="4687" x2="4875" y1="49.25" y2="49.25"/><text fill="#000000" font-family="sans-serif" font-size="14" font-weight="bold" lengthAdjust="spacingAndGlyphs" textLength="175" x="4691" y="41.9482">benchmarkstt.output</text><!--MD5=[847d3ee6f8e67faab7de214c96ed8267]
cluster benchmarkstt.output.core--><polygon fill="#FFFFFF" filter="url(#fj6usp8gtyjgq)" points="4597,339.9531,4818,339.9531,4825,362.25,5179,362.25,5179,815.9531,4597,815.9531,4597,339.9531" style="stroke: #000000; stroke-width: 1.5;"/><line style="stroke: #000000; stroke-width: 1.5;" x1="4597" x2="4825" y1="362.25" y2="362.25"/><text fill="#000000" font-family="sans-serif" font-size="14" font-weight="bold" lengthAdjust="spacingAndGlyphs" textLength="215" x="4601" y="354.9482">benchmarkstt.output.core</text><!--MD5=[b21609c0e4e09564ea14466d1d899cfe]
cluster benchmarkstt.diff--><polygon fill="#FFFFFF" filter="url(#fj6usp8gtyjgq)" points="3913,32.9531,4067,32.9531,4074,55.25,4099,55.25,4099,157.9531,3913,157.9531,3913,32.9531" style="stroke: #000000; stroke-width: 1.5;"/><line style="stroke: #000000; stroke-width: 1.5;" x1="3913" x2="4074" y1="55.25" y2="55.25"/><text fill="#000000" font-family="sans-serif" font-size="14" font-weight="bold" lengthAdjust="spacingAndGlyphs" textLength="148" x="3917" y="47.9482">benchmarkstt.diff</text><!--MD5=[ba2ead4b28f3a03c2b9b4db307c82486]
class benchmarkstt.normalization.core.Config--><rect codeLine="2" fill="#FEFECE" filter="url(#fj6usp8gtyjgq)" height="86.4141" id="benchmarkstt.normalization.core.Config" style="stroke: #A80036; stroke-width: 1.5;" width="306" x="837" y="707.4531"/><ellipse cx="966.75" cy="723.4531" fill="#ADD1B2" rx="11" ry="11" style="stroke: #A80036; stroke-width: 1.0;"/><path d="M969.0938,719.125 C968.1563,718.6875 967.5625,718.5469 966.6875,718.5469 C964.0625,718.5469 962.0625,720.625 962.0625,723.3438 L962.0625,724.4688 C962.0625,727.0469 964.1719,728.9375 967.0625,728.9375 C968.2813,728.9375 969.4375,728.6406 970.1875,728.0938 C970.7656,727.6875 971.0938,727.2344 971.0938,726.8438 C971.0938,726.3906 970.7031,726 970.2344,726 C970.0156,726 969.8125,726.0781 969.625,726.2656 C969.1719,726.75 969.1719,726.75 968.9844,726.8438 C968.5625,727.1094 967.875,727.2344 967.1094,727.2344 C965.0625,727.2344 963.7656,726.1406 963.7656,724.4375 L963.7656,723.3438 C963.7656,721.5625 965.0156,720.25 966.75,720.25 C967.3281,720.25 967.9375,720.4063 968.4063,720.6563 C968.8906,720.9375 969.0625,721.1563 969.1563,721.5625 C969.2188,721.9688 969.25,722.0938 969.3906,722.2188 C969.5313,722.3594 969.7656,722.4688 969.9844,722.4688 C970.25,722.4688 970.5156,722.3281 970.6875,722.1094 C970.7969,721.9531 970.8281,721.7656 970.8281,721.3438 L970.8281,719.9219 C970.8281,719.4844 970.8125,719.3594 970.7188,719.2031 C970.5625,718.9375 970.2813,718.7969 969.9844,718.7969 C969.6875,718.7969 969.4844,718.8906 969.2656,719.2031 L969.0938,719.125 Z "/><text fill="#000000" font-family="sans-serif" font-size="12" lengthAdjust="spacingAndGlyphs" textLength="38" x="987.25" y="727.6074">Config</text><line style="stroke: #A80036; stroke-width: 1.5;" x1="838" x2="1142" y1="739.4531" y2="739.4531"/><line style="stroke: #A80036; stroke-width: 1.5;" x1="838" x2="1142" y1="747.4531" y2="747.4531"/><ellipse cx="848" cy="758.4531" fill="#84BE84" rx="3" ry="3" style="stroke: #038048; stroke-width: 1.0;"/><text fill="#000000" font-family="sans-serif" font-size="11" lengthAdjust="spacingAndGlyphs" textLength="280" x="857" y="761.6636">__init__(self, file, section=None, encoding=None)</text><ellipse cx="848" cy="771.2578" fill="#84BE84" rx="3" ry="3" style="stroke: #038048; stroke-width: 1.0;"/><text fill="#000000" font-family="sans-serif" font-size="11" lengthAdjust="spacingAndGlyphs" textLength="76" x="857" y="774.4683">__repr__(self)</text><ellipse cx="848" cy="784.0625" fill="#84BE84" rx="3" ry="3" style="stroke: #038048; stroke-width: 1.0;"/><text fill="#000000" font-family="sans-serif" font-size="11" lengthAdjust="spacingAndGlyphs" textLength="110" x="857" y="787.2729">normalize(cls, text)</text><!--MD5=[3386d7986a9642d77be9dbce485d3f6c]
class benchmarkstt.normalization.core.Lowercase--><rect codeLine="58" fill="#FEFECE" filter="url(#fj6usp8gtyjgq)" height="73.6094" id="benchmarkstt.normalization.core.Lowercase" style="stroke: #A80036; stroke-width: 1.5;" width="136" x="1178" y="713.4531"/><ellipse cx="1210.1" cy="729.4531" fill="#ADD1B2" rx="11" ry="11" style="stroke: #A80036; stroke-width: 1.0;"/><path d="M1212.4438,725.125 C1211.5063,724.6875 1210.9125,724.5469 1210.0375,724.5469 C1207.4125,724.5469 1205.4125,726.625 1205.4125,729.3438 L1205.4125,730.4688 C1205.4125,733.0469 1207.5219,734.9375 1210.4125,734.9375 C1211.6313,734.9375 1212.7875,734.6406 1213.5375,734.0938 C1214.1156,733.6875 1214.4438,733.2344 1214.4438,732.8438 C1214.4438,732.3906 1214.0531,732 1213.5844,732 C1213.3656,732 1213.1625,732.0781 1212.975,732.2656 C1212.5219,732.75 1212.5219,732.75 1212.3344,732.8438 C1211.9125,733.1094 1211.225,733.2344 1210.4594,733.2344 C1208.4125,733.2344 1207.1156,732.1406 1207.1156,730.4375 L1207.1156,729.3438 C1207.1156,727.5625 1208.3656,726.25 1210.1,726.25 C1210.6781,726.25 1211.2875,726.4063 1211.7563,726.6563 C1212.2406,726.9375 1212.4125,727.1563 1212.5063,727.5625 C1212.5688,727.9688 1212.6,728.0938 1212.7406,728.2188 C1212.8813,728.3594 1213.1156,728.4688 1213.3344,728.4688 C1213.6,728.4688 1213.8656,728.3281 1214.0375,728.1094 C1214.1469,727.9531 1214.1781,727.7656 1214.1781,727.3438 L1214.1781,725.9219 C1214.1781,725.4844 1214.1625,725.3594 1214.0688,725.2031 C1213.9125,724.9375 1213.6313,724.7969 1213.3344,724.7969 C1213.0375,724.7969 1212.8344,724.8906 1212.6156,725.2031 L1212.4438,725.125 Z "/><text fill="#000000" font-family="sans-serif" font-size="12" lengthAdjust="spacingAndGlyphs" textLength="66" x="1227.9" y="733.6074">Lowercase</text><line style="stroke: #A80036; stroke-width: 1.5;" x1="1179" x2="1313" y1="745.4531" y2="745.4531"/><line style="stroke: #A80036; stroke-width: 1.5;" x1="1179" x2="1313" y1="753.4531" y2="753.4531"/><ellipse cx="1189" cy="764.4531" fill="#84BE84" rx="3" ry="3" style="stroke: #038048; stroke-width: 1.0;"/><text fill="#000000" font-family="sans-serif" font-size="11" lengthAdjust="spacingAndGlyphs" textLength="76" x="1198" y="767.6636">__repr__(self)</text><ellipse cx="1189" cy="777.2578" fill="#84BE84" rx="3" ry="3" style="stroke: #038048; stroke-width: 1.0;"/><text fill="#000000" font-family="sans-serif" font-size="11" lengthAdjust="spacingAndGlyphs" textLength="110" x="1198" y="780.4683">normalize(cls, text)</text><!--MD5=[9863ad7347765ee3ae7c7138982b6157]
class benchmarkstt.normalization.core.Regex--><rect codeLine="62" fill="#FEFECE" filter="url(#fj6usp8gtyjgq)" height="86.4141" id="benchmarkstt.normalization.core.Regex" style="stroke: #A80036; stroke-width: 1.5;" width="233" x="32.5" y="707.4531"/><ellipse cx="125.75" cy="723.4531" fill="#ADD1B2" rx="11" ry="11" style="stroke: #A80036; stroke-width: 1.0;"/><path d="M128.0938,719.125 C127.1563,718.6875 126.5625,718.5469 125.6875,718.5469 C123.0625,718.5469 121.0625,720.625 121.0625,723.3438 L121.0625,724.4688 C121.0625,727.0469 123.1719,728.9375 126.0625,728.9375 C127.2813,728.9375 128.4375,728.6406 129.1875,728.0938 C129.7656,727.6875 130.0938,727.2344 130.0938,726.8438 C130.0938,726.3906 129.7031,726 129.2344,726 C129.0156,726 128.8125,726.0781 128.625,726.2656 C128.1719,726.75 128.1719,726.75 127.9844,726.8438 C127.5625,727.1094 126.875,727.2344 126.1094,727.2344 C124.0625,727.2344 122.7656,726.1406 122.7656,724.4375 L122.7656,723.3438 C122.7656,721.5625 124.0156,720.25 125.75,720.25 C126.3281,720.25 126.9375,720.4063 127.4063,720.6563 C127.8906,720.9375 128.0625,721.1563 128.1563,721.5625 C128.2188,721.9688 128.25,722.0938 128.3906,722.2188 C128.5313,722.3594 128.7656,722.4688 128.9844,722.4688 C129.25,722.4688 129.5156,722.3281 129.6875,722.1094 C129.7969,721.9531 129.8281,721.7656 129.8281,721.3438 L129.8281,719.9219 C129.8281,719.4844 129.8125,719.3594 129.7188,719.2031 C129.5625,718.9375 129.2813,718.7969 128.9844,718.7969 C128.6875,718.7969 128.4844,718.8906 128.2656,719.2031 L128.0938,719.125 Z "/><text fill="#000000" font-family="sans-serif" font-size="12" lengthAdjust="spacingAndGlyphs" textLength="38" x="146.25" y="727.6074">Regex</text><line style="stroke: #A80036; stroke-width: 1.5;" x1="33.5" x2="264.5" y1="739.4531" y2="739.4531"/><line style="stroke: #A80036; stroke-width: 1.5;" x1="33.5" x2="264.5" y1="747.4531" y2="747.4531"/><ellipse cx="43.5" cy="758.4531" fill="#84BE84" rx="3" ry="3" style="stroke: #038048; stroke-width: 1.0;"/><text fill="#000000" font-family="sans-serif" font-size="11" lengthAdjust="spacingAndGlyphs" textLength="207" x="52.5" y="761.6636">__init__(self, search: str, replace: str)</text><ellipse cx="43.5" cy="771.2578" fill="#84BE84" rx="3" ry="3" style="stroke: #038048; stroke-width: 1.0;"/><text fill="#000000" font-family="sans-serif" font-size="11" lengthAdjust="spacingAndGlyphs" textLength="76" x="52.5" y="774.4683">__repr__(self)</text><ellipse cx="43.5" cy="784.0625" fill="#84BE84" rx="3" ry="3" style="stroke: #038048; stroke-width: 1.0;"/><text fill="#000000" font-family="sans-serif" font-size="11" lengthAdjust="spacingAndGlyphs" textLength="110" x="52.5" y="787.2729">normalize(cls, text)</text><!--MD5=[326f7cb5384862347dd44d6872a19065]
class benchmarkstt.normalization.core.Replace--><rect codeLine="67" fill="#FEFECE" filter="url(#fj6usp8gtyjgq)" height="86.4141" id="benchmarkstt.normalization.core.Replace" style="stroke: #A80036; stroke-width: 1.5;" width="233" x="300.5" y="707.4531"/><ellipse cx="388.75" cy="723.4531" fill="#ADD1B2" rx="11" ry="11" style="stroke: #A80036; stroke-width: 1.0;"/><path d="M391.0938,719.125 C390.1563,718.6875 389.5625,718.5469 388.6875,718.5469 C386.0625,718.5469 384.0625,720.625 384.0625,723.3438 L384.0625,724.4688 C384.0625,727.0469 386.1719,728.9375 389.0625,728.9375 C390.2813,728.9375 391.4375,728.6406 392.1875,728.0938 C392.7656,727.6875 393.0938,727.2344 393.0938,726.8438 C393.0938,726.3906 392.7031,726 392.2344,726 C392.0156,726 391.8125,726.0781 391.625,726.2656 C391.1719,726.75 391.1719,726.75 390.9844,726.8438 C390.5625,727.1094 389.875,727.2344 389.1094,727.2344 C387.0625,727.2344 385.7656,726.1406 385.7656,724.4375 L385.7656,723.3438 C385.7656,721.5625 387.0156,720.25 388.75,720.25 C389.3281,720.25 389.9375,720.4063 390.4063,720.6563 C390.8906,720.9375 391.0625,721.1563 391.1563,721.5625 C391.2188,721.9688 391.25,722.0938 391.3906,722.2188 C391.5313,722.3594 391.7656,722.4688 391.9844,722.4688 C392.25,722.4688 392.5156,722.3281 392.6875,722.1094 C392.7969,721.9531 392.8281,721.7656 392.8281,721.3438 L392.8281,719.9219 C392.8281,719.4844 392.8125,719.3594 392.7188,719.2031 C392.5625,718.9375 392.2813,718.7969 391.9844,718.7969 C391.6875,718.7969 391.4844,718.8906 391.2656,719.2031 L391.0938,719.125 Z "/><text fill="#000000" font-family="sans-serif" font-size="12" lengthAdjust="spacingAndGlyphs" textLength="48" x="409.25" y="727.6074">Replace</text><line style="stroke: #A80036; stroke-width: 1.5;" x1="301.5" x2="532.5" y1="739.4531" y2="739.4531"/><line style="stroke: #A80036; stroke-width: 1.5;" x1="301.5" x2="532.5" y1="747.4531" y2="747.4531"/><ellipse cx="311.5" cy="758.4531" fill="#84BE84" rx="3" ry="3" style="stroke: #038048; stroke-width: 1.0;"/><text fill="#000000" font-family="sans-serif" font-size="11" lengthAdjust="spacingAndGlyphs" textLength="207" x="320.5" y="761.6636">__init__(self, search: str, replace: str)</text><ellipse cx="311.5" cy="771.2578" fill="#84BE84" rx="3" ry="3" style="stroke: #038048; stroke-width: 1.0;"/><text fill="#000000" font-family="sans-serif" font-size="11" lengthAdjust="spacingAndGlyphs" textLength="76" x="320.5" y="774.4683">__repr__(self)</text><ellipse cx="311.5" cy="784.0625" fill="#84BE84" rx="3" ry="3" style="stroke: #038048; stroke-width: 1.0;"/><text fill="#000000" font-family="sans-serif" font-size="11" lengthAdjust="spacingAndGlyphs" textLength="110" x="320.5" y="787.2729">normalize(cls, text)</text><!--MD5=[c72470e852d6ce02f480301e3573e0d1]
class benchmarkstt.normalization.core.ReplaceWords--><rect codeLine="72" fill="#FEFECE" filter="url(#fj6usp8gtyjgq)" height="86.4141" id="benchmarkstt.normalization.core.ReplaceWords" style="stroke: #A80036; stroke-width: 1.5;" width="233" x="568.5" y="707.4531"/><ellipse cx="636.75" cy="723.4531" fill="#ADD1B2" rx="11" ry="11" style="stroke: #A80036; stroke-width: 1.0;"/><path d="M639.0938,719.125 C638.1563,718.6875 637.5625,718.5469 636.6875,718.5469 C634.0625,718.5469 632.0625,720.625 632.0625,723.3438 L632.0625,724.4688 C632.0625,727.0469 634.1719,728.9375 637.0625,728.9375 C638.2813,728.9375 639.4375,728.6406 640.1875,728.0938 C640.7656,727.6875 641.0938,727.2344 641.0938,726.8438 C641.0938,726.3906 640.7031,726 640.2344,726 C640.0156,726 639.8125,726.0781 639.625,726.2656 C639.1719,726.75 639.1719,726.75 638.9844,726.8438 C638.5625,727.1094 637.875,727.2344 637.1094,727.2344 C635.0625,727.2344 633.7656,726.1406 633.7656,724.4375 L633.7656,723.3438 C633.7656,721.5625 635.0156,720.25 636.75,720.25 C637.3281,720.25 637.9375,720.4063 638.4063,720.6563 C638.8906,720.9375 639.0625,721.1563 639.1563,721.5625 C639.2188,721.9688 639.25,722.0938 639.3906,722.2188 C639.5313,722.3594 639.7656,722.4688 639.9844,722.4688 C640.25,722.4688 640.5156,722.3281 640.6875,722.1094 C640.7969,721.9531 640.8281,721.7656 640.8281,721.3438 L640.8281,719.9219 C640.8281,719.4844 640.8125,719.3594 640.7188,719.2031 C640.5625,718.9375 640.2813,718.7969 639.9844,718.7969 C639.6875,718.7969 639.4844,718.8906 639.2656,719.2031 L639.0938,719.125 Z "/><text fill="#000000" font-family="sans-serif" font-size="12" lengthAdjust="spacingAndGlyphs" textLength="88" x="657.25" y="727.6074">ReplaceWords</text><line style="stroke: #A80036; stroke-width: 1.5;" x1="569.5" x2="800.5" y1="739.4531" y2="739.4531"/><line style="stroke: #A80036; stroke-width: 1.5;" x1="569.5" x2="800.5" y1="747.4531" y2="747.4531"/><ellipse cx="579.5" cy="758.4531" fill="#84BE84" rx="3" ry="3" style="stroke: #038048; stroke-width: 1.0;"/><text fill="#000000" font-family="sans-serif" font-size="11" lengthAdjust="spacingAndGlyphs" textLength="207" x="588.5" y="761.6636">__init__(self, search: str, replace: str)</text><ellipse cx="579.5" cy="771.2578" fill="#84BE84" rx="3" ry="3" style="stroke: #038048; stroke-width: 1.0;"/><text fill="#000000" font-family="sans-serif" font-size="11" lengthAdjust="spacingAndGlyphs" textLength="76" x="588.5" y="774.4683">__repr__(self)</text><ellipse cx="579.5" cy="784.0625" fill="#84BE84" rx="3" ry="3" style="stroke: #038048; stroke-width: 1.0;"/><text fill="#000000" font-family="sans-serif" font-size="11" lengthAdjust="spacingAndGlyphs" textLength="110" x="588.5" y="787.2729">normalize(cls, text)</text><!--MD5=[361c1c4989d33e751f8f1a8124b4d3c8]
class benchmarkstt.normalization.core.Unidecode--><rect codeLine="77" fill="#FEFECE" filter="url(#fj6usp8gtyjgq)" height="73.6094" id="benchmarkstt.normalization.core.Unidecode" style="stroke: #A80036; stroke-width: 1.5;" width="136" x="1349" y="713.4531"/><ellipse cx="1381.1" cy="729.4531" fill="#ADD1B2" rx="11" ry="11" style="stroke: #A80036; stroke-width: 1.0;"/><path d="M1383.4438,725.125 C1382.5063,724.6875 1381.9125,724.5469 1381.0375,724.5469 C1378.4125,724.5469 1376.4125,726.625 1376.4125,729.3438 L1376.4125,730.4688 C1376.4125,733.0469 1378.5219,734.9375 1381.4125,734.9375 C1382.6313,734.9375 1383.7875,734.6406 1384.5375,734.0938 C1385.1156,733.6875 1385.4438,733.2344 1385.4438,732.8438 C1385.4438,732.3906 1385.0531,732 1384.5844,732 C1384.3656,732 1384.1625,732.0781 1383.975,732.2656 C1383.5219,732.75 1383.5219,732.75 1383.3344,732.8438 C1382.9125,733.1094 1382.225,733.2344 1381.4594,733.2344 C1379.4125,733.2344 1378.1156,732.1406 1378.1156,730.4375 L1378.1156,729.3438 C1378.1156,727.5625 1379.3656,726.25 1381.1,726.25 C1381.6781,726.25 1382.2875,726.4063 1382.7563,726.6563 C1383.2406,726.9375 1383.4125,727.1563 1383.5063,727.5625 C1383.5688,727.9688 1383.6,728.0938 1383.7406,728.2188 C1383.8813,728.3594 1384.1156,728.4688 1384.3344,728.4688 C1384.6,728.4688 1384.8656,728.3281 1385.0375,728.1094 C1385.1469,727.9531 1385.1781,727.7656 1385.1781,727.3438 L1385.1781,725.9219 C1385.1781,725.4844 1385.1625,725.3594 1385.0688,725.2031 C1384.9125,724.9375 1384.6313,724.7969 1384.3344,724.7969 C1384.0375,724.7969 1383.8344,724.8906 1383.6156,725.2031 L1383.4438,725.125 Z "/><text fill="#000000" font-family="sans-serif" font-size="12" lengthAdjust="spacingAndGlyphs" textLength="66" x="1398.9" y="733.6074">Unidecode</text><line style="stroke: #A80036; stroke-width: 1.5;" x1="1350" x2="1484" y1="745.4531" y2="745.4531"/><line style="stroke: #A80036; stroke-width: 1.5;" x1="1350" x2="1484" y1="753.4531" y2="753.4531"/><ellipse cx="1360" cy="764.4531" fill="#84BE84" rx="3" ry="3" style="stroke: #038048; stroke-width: 1.0;"/><text fill="#000000" font-family="sans-serif" font-size="11" lengthAdjust="spacingAndGlyphs" textLength="76" x="1369" y="767.6636">__repr__(self)</text><ellipse cx="1360" cy="777.2578" fill="#84BE84" rx="3" ry="3" style="stroke: #038048; stroke-width: 1.0;"/><text fill="#000000" font-family="sans-serif" font-size="11" lengthAdjust="spacingAndGlyphs" textLength="110" x="1369" y="780.4683">normalize(cls, text)</text><!--MD5=[3edd34d35203ceb4dd4fa63a3b0c665d]
class benchmarkstt.input.core.PlainText--><rect codeLine="7" fill="#FEFECE" filter="url(#fj6usp8gtyjgq)" height="73.6094" id="benchmarkstt.input.core.PlainText" style="stroke: #A80036; stroke-width: 1.5;" width="342" x="1422" y="387.4531"/><ellipse cx="1562.75" cy="403.4531" fill="#ADD1B2" rx="11" ry="11" style="stroke: #A80036; stroke-width: 1.0;"/><path d="M1565.0938,399.125 C1564.1563,398.6875 1563.5625,398.5469 1562.6875,398.5469 C1560.0625,398.5469 1558.0625,400.625 1558.0625,403.3438 L1558.0625,404.4688 C1558.0625,407.0469 1560.1719,408.9375 1563.0625,408.9375 C1564.2813,408.9375 1565.4375,408.6406 1566.1875,408.0938 C1566.7656,407.6875 1567.0938,407.2344 1567.0938,406.8438 C1567.0938,406.3906 1566.7031,406 1566.2344,406 C1566.0156,406 1565.8125,406.0781 1565.625,406.2656 C1565.1719,406.75 1565.1719,406.75 1564.9844,406.8438 C1564.5625,407.1094 1563.875,407.2344 1563.1094,407.2344 C1561.0625,407.2344 1559.7656,406.1406 1559.7656,404.4375 L1559.7656,403.3438 C1559.7656,401.5625 1561.0156,400.25 1562.75,400.25 C1563.3281,400.25 1563.9375,400.4063 1564.4063,400.6563 C1564.8906,400.9375 1565.0625,401.1563 1565.1563,401.5625 C1565.2188,401.9688 1565.25,402.0938 1565.3906,402.2188 C1565.5313,402.3594 1565.7656,402.4688 1565.9844,402.4688 C1566.25,402.4688 1566.5156,402.3281 1566.6875,402.1094 C1566.7969,401.9531 1566.8281,401.7656 1566.8281,401.3438 L1566.8281,399.9219 C1566.8281,399.4844 1566.8125,399.3594 1566.7188,399.2031 C1566.5625,398.9375 1566.2813,398.7969 1565.9844,398.7969 C1565.6875,398.7969 1565.4844,398.8906 1565.2656,399.2031 L1565.0938,399.125 Z "/><text fill="#000000" font-family="sans-serif" font-size="12" lengthAdjust="spacingAndGlyphs" textLength="52" x="1583.25" y="407.6074">PlainText</text><line style="stroke: #A80036; stroke-width: 1.5;" x1="1423" x2="1763" y1="419.4531" y2="419.4531"/><line style="stroke: #A80036; stroke-width: 1.5;" x1="1423" x2="1763" y1="427.4531" y2="427.4531"/><ellipse cx="1433" cy="438.4531" fill="#84BE84" rx="3" ry="3" style="stroke: #038048; stroke-width: 1.0;"/><text fill="#000000" font-family="sans-serif" font-size="11" lengthAdjust="spacingAndGlyphs" textLength="316" x="1442" y="441.6636">__init__(self, text, segmenter=None, normalizer=None)</text><ellipse cx="1433" cy="451.2578" fill="#84BE84" rx="3" ry="3" style="stroke: #038048; stroke-width: 1.0;"/><text fill="#000000" font-family="sans-serif" font-size="11" lengthAdjust="spacingAndGlyphs" textLength="72" x="1442" y="454.4683">__iter__(self)</text><!--MD5=[4843f7accda627844ca340f5d1efa37d]
class benchmarkstt.input.core.File--><rect codeLine="84" fill="#FEFECE" filter="url(#fj6usp8gtyjgq)" height="73.6094" id="benchmarkstt.input.core.File" style="stroke: #A80036; stroke-width: 1.5;" width="334" x="1799" y="387.4531"/><ellipse cx="1951.25" cy="403.4531" fill="#ADD1B2" rx="11" ry="11" style="stroke: #A80036; stroke-width: 1.0;"/><path d="M1953.5938,399.125 C1952.6563,398.6875 1952.0625,398.5469 1951.1875,398.5469 C1948.5625,398.5469 1946.5625,400.625 1946.5625,403.3438 L1946.5625,404.4688 C1946.5625,407.0469 1948.6719,408.9375 1951.5625,408.9375 C1952.7813,408.9375 1953.9375,408.6406 1954.6875,408.0938 C1955.2656,407.6875 1955.5938,407.2344 1955.5938,406.8438 C1955.5938,406.3906 1955.2031,406 1954.7344,406 C1954.5156,406 1954.3125,406.0781 1954.125,406.2656 C1953.6719,406.75 1953.6719,406.75 1953.4844,406.8438 C1953.0625,407.1094 1952.375,407.2344 1951.6094,407.2344 C1949.5625,407.2344 1948.2656,406.1406 1948.2656,404.4375 L1948.2656,403.3438 C1948.2656,401.5625 1949.5156,400.25 1951.25,400.25 C1951.8281,400.25 1952.4375,400.4063 1952.9063,400.6563 C1953.3906,400.9375 1953.5625,401.1563 1953.6563,401.5625 C1953.7188,401.9688 1953.75,402.0938 1953.8906,402.2188 C1954.0313,402.3594 1954.2656,402.4688 1954.4844,402.4688 C1954.75,402.4688 1955.0156,402.3281 1955.1875,402.1094 C1955.2969,401.9531 1955.3281,401.7656 1955.3281,401.3438 L1955.3281,399.9219 C1955.3281,399.4844 1955.3125,399.3594 1955.2188,399.2031 C1955.0625,398.9375 1954.7813,398.7969 1954.4844,398.7969 C1954.1875,398.7969 1953.9844,398.8906 1953.7656,399.2031 L1953.5938,399.125 Z "/><text fill="#000000" font-family="sans-serif" font-size="12" lengthAdjust="spacingAndGlyphs" textLength="21" x="1971.75" y="407.6074">File</text><line style="stroke: #A80036; stroke-width: 1.5;" x1="1800" x2="2132" y1="419.4531" y2="419.4531"/><line style="stroke: #A80036; stroke-width: 1.5;" x1="1800" x2="2132" y1="427.4531" y2="427.4531"/><ellipse cx="1810" cy="438.4531" fill="#84BE84" rx="3" ry="3" style="stroke: #038048; stroke-width: 1.0;"/><text fill="#000000" font-family="sans-serif" font-size="11" lengthAdjust="spacingAndGlyphs" textLength="308" x="1819" y="441.6636">__init__(self, file, input_type=None, normalizer=None)</text><ellipse cx="1810" cy="451.2578" fill="#84BE84" rx="3" ry="3" style="stroke: #038048; stroke-width: 1.0;"/><text fill="#000000" font-family="sans-serif" font-size="11" lengthAdjust="spacingAndGlyphs" textLength="72" x="1819" y="454.4683">__iter__(self)</text><!--MD5=[5df2e3f9a60f5e68627f199cfdd93bb0]
class benchmarkstt.metrics.Base--><rect codeLine="11" fill="#FEFECE" filter="url(#fj6usp8gtyjgq)" height="60.8047" id="benchmarkstt.metrics.Base" style="stroke: #A80036; stroke-width: 1.5;" width="520" x="2744" y="74.4531"/><ellipse cx="2984.75" cy="90.4531" fill="#ADD1B2" rx="11" ry="11" style="stroke: #A80036; stroke-width: 1.0;"/><path d="M2987.0938,86.125 C2986.1563,85.6875 2985.5625,85.5469 2984.6875,85.5469 C2982.0625,85.5469 2980.0625,87.625 2980.0625,90.3438 L2980.0625,91.4688 C2980.0625,94.0469 2982.1719,95.9375 2985.0625,95.9375 C2986.2813,95.9375 2987.4375,95.6406 2988.1875,95.0938 C2988.7656,94.6875 2989.0938,94.2344 2989.0938,93.8438 C2989.0938,93.3906 2988.7031,93 2988.2344,93 C2988.0156,93 2987.8125,93.0781 2987.625,93.2656 C2987.1719,93.75 2987.1719,93.75 2986.9844,93.8438 C2986.5625,94.1094 2985.875,94.2344 2985.1094,94.2344 C2983.0625,94.2344 2981.7656,93.1406 2981.7656,91.4375 L2981.7656,90.3438 C2981.7656,88.5625 2983.0156,87.25 2984.75,87.25 C2985.3281,87.25 2985.9375,87.4063 2986.4063,87.6563 C2986.8906,87.9375 2987.0625,88.1563 2987.1563,88.5625 C2987.2188,88.9688 2987.25,89.0938 2987.3906,89.2188 C2987.5313,89.3594 2987.7656,89.4688 2987.9844,89.4688 C2988.25,89.4688 2988.5156,89.3281 2988.6875,89.1094 C2988.7969,88.9531 2988.8281,88.7656 2988.8281,88.3438 L2988.8281,86.9219 C2988.8281,86.4844 2988.8125,86.3594 2988.7188,86.2031 C2988.5625,85.9375 2988.2813,85.7969 2987.9844,85.7969 C2987.6875,85.7969 2987.4844,85.8906 2987.2656,86.2031 L2987.0938,86.125 Z "/><text fill="#000000" font-family="sans-serif" font-size="12" lengthAdjust="spacingAndGlyphs" textLength="30" x="3005.25" y="94.6074">Base</text><line style="stroke: #A80036; stroke-width: 1.5;" x1="2745" x2="3263" y1="106.4531" y2="106.4531"/><line style="stroke: #A80036; stroke-width: 1.5;" x1="2745" x2="3263" y1="114.4531" y2="114.4531"/><ellipse cx="2755" cy="125.4531" fill="#84BE84" rx="3" ry="3" style="stroke: #038048; stroke-width: 1.0;"/><text fill="#000000" font-family="sans-serif" font-size="11" lengthAdjust="spacingAndGlyphs" textLength="494" x="2764" y="128.6636">compare(self, ref: benchmarkstt.schema.Schema, hyp: benchmarkstt.schema.Schema)</text><!--MD5=[16641109c0e363d96d1ecc4c603e3de1]
class benchmarkstt.metrics.core.DiffCounts--><rect codeLine="14" fill="#FEFECE" filter="url(#fj6usp8gtyjgq)" height="73.6094" id="benchmarkstt.metrics.core.DiffCounts" style="stroke: #A80036; stroke-width: 1.5;" width="520" x="2189" y="387.4531"/><ellipse cx="2414.25" cy="403.4531" fill="#ADD1B2" rx="11" ry="11" style="stroke: #A80036; stroke-width: 1.0;"/><path d="M2416.5938,399.125 C2415.6563,398.6875 2415.0625,398.5469 2414.1875,398.5469 C2411.5625,398.5469 2409.5625,400.625 2409.5625,403.3438 L2409.5625,404.4688 C2409.5625,407.0469 2411.6719,408.9375 2414.5625,408.9375 C2415.7813,408.9375 2416.9375,408.6406 2417.6875,408.0938 C2418.2656,407.6875 2418.5938,407.2344 2418.5938,406.8438 C2418.5938,406.3906 2418.2031,406 2417.7344,406 C2417.5156,406 2417.3125,406.0781 2417.125,406.2656 C2416.6719,406.75 2416.6719,406.75 2416.4844,406.8438 C2416.0625,407.1094 2415.375,407.2344 2414.6094,407.2344 C2412.5625,407.2344 2411.2656,406.1406 2411.2656,404.4375 L2411.2656,403.3438 C2411.2656,401.5625 2412.5156,400.25 2414.25,400.25 C2414.8281,400.25 2415.4375,400.4063 2415.9063,400.6563 C2416.3906,400.9375 2416.5625,401.1563 2416.6563,401.5625 C2416.7188,401.9688 2416.75,402.0938 2416.8906,402.2188 C2417.0313,402.3594 2417.2656,402.4688 2417.4844,402.4688 C2417.75,402.4688 2418.0156,402.3281 2418.1875,402.1094 C2418.2969,401.9531 2418.3281,401.7656 2418.3281,401.3438 L2418.3281,399.9219 C2418.3281,399.4844 2418.3125,399.3594 2418.2188,399.2031 C2418.0625,398.9375 2417.7813,398.7969 2417.4844,398.7969 C2417.1875,398.7969 2416.9844,398.8906 2416.7656,399.2031 L2416.5938,399.125 Z "/><text fill="#000000" font-family="sans-serif" font-size="12" lengthAdjust="spacingAndGlyphs" textLength="61" x="2434.75" y="407.6074">DiffCounts</text><line style="stroke: #A80036; stroke-width: 1.5;" x1="2190" x2="2708" y1="419.4531" y2="419.4531"/><line style="stroke: #A80036; stroke-width: 1.5;" x1="2190" x2="2708" y1="427.4531" y2="427.4531"/><ellipse cx="2200" cy="438.4531" fill="#84BE84" rx="3" ry="3" style="stroke: #038048; stroke-width: 1.0;"/><text fill="#000000" font-family="sans-serif" font-size="11" lengthAdjust="spacingAndGlyphs" textLength="180" x="2209" y="441.6636">__init__(self, differ_class=None)</text><ellipse cx="2200" cy="451.2578" fill="#84BE84" rx="3" ry="3" style="stroke: #038048; stroke-width: 1.0;"/><text fill="#000000" font-family="sans-serif" font-size="11" lengthAdjust="spacingAndGlyphs" textLength="494" x="2209" y="454.4683">compare(self, ref: benchmarkstt.schema.Schema, hyp: benchmarkstt.schema.Schema)</text><!--MD5=[1b5fccb2ad4a9064da2e7d8609e9b4b6]
class benchmarkstt.metrics.core.WER--><rect codeLine="31" fill="#FEFECE" filter="url(#fj6usp8gtyjgq)" height="73.6094" id="benchmarkstt.metrics.core.WER" style="stroke: #A80036; stroke-width: 1.5;" width="520" x="2744" y="387.4531"/><ellipse cx="2986.75" cy="403.4531" fill="#ADD1B2" rx="11" ry="11" style="stroke: #A80036; stroke-width: 1.0;"/><path d="M2989.0938,399.125 C2988.1563,398.6875 2987.5625,398.5469 2986.6875,398.5469 C2984.0625,398.5469 2982.0625,400.625 2982.0625,403.3438 L2982.0625,404.4688 C2982.0625,407.0469 2984.1719,408.9375 2987.0625,408.9375 C2988.2813,408.9375 2989.4375,408.6406 2990.1875,408.0938 C2990.7656,407.6875 2991.0938,407.2344 2991.0938,406.8438 C2991.0938,406.3906 2990.7031,406 2990.2344,406 C2990.0156,406 2989.8125,406.0781 2989.625,406.2656 C2989.1719,406.75 2989.1719,406.75 2988.9844,406.8438 C2988.5625,407.1094 2987.875,407.2344 2987.1094,407.2344 C2985.0625,407.2344 2983.7656,406.1406 2983.7656,404.4375 L2983.7656,403.3438 C2983.7656,401.5625 2985.0156,400.25 2986.75,400.25 C2987.3281,400.25 2987.9375,400.4063 2988.4063,400.6563 C2988.8906,400.9375 2989.0625,401.1563 2989.1563,401.5625 C2989.2188,401.9688 2989.25,402.0938 2989.3906,402.2188 C2989.5313,402.3594 2989.7656,402.4688 2989.9844,402.4688 C2990.25,402.4688 2990.5156,402.3281 2990.6875,402.1094 C2990.7969,401.9531 2990.8281,401.7656 2990.8281,401.3438 L2990.8281,399.9219 C2990.8281,399.4844 2990.8125,399.3594 2990.7188,399.2031 C2990.5625,398.9375 2990.2813,398.7969 2989.9844,398.7969 C2989.6875,398.7969 2989.4844,398.8906 2989.2656,399.2031 L2989.0938,399.125 Z "/><text fill="#000000" font-family="sans-serif" font-size="12" lengthAdjust="spacingAndGlyphs" textLength="26" x="3007.25" y="407.6074">WER</text><line style="stroke: #A80036; stroke-width: 1.5;" x1="2745" x2="3263" y1="419.4531" y2="419.4531"/><line style="stroke: #A80036; stroke-width: 1.5;" x1="2745" x2="3263" y1="427.4531" y2="427.4531"/><ellipse cx="2755" cy="438.4531" fill="#84BE84" rx="3" ry="3" style="stroke: #038048; stroke-width: 1.0;"/><text fill="#000000" font-family="sans-serif" font-size="11" lengthAdjust="spacingAndGlyphs" textLength="259" x="2764" y="441.6636">__init__(self, mode=None, differ_class=None)</text><ellipse cx="2755" cy="451.2578" fill="#84BE84" rx="3" ry="3" style="stroke: #038048; stroke-width: 1.0;"/><text fill="#000000" font-family="sans-serif" font-size="11" lengthAdjust="spacingAndGlyphs" textLength="494" x="2764" y="454.4683">compare(self, ref: benchmarkstt.schema.Schema, hyp: benchmarkstt.schema.Schema)</text><!--MD5=[ef94872a4633e4f53c81dbb8c48f7a6f]
class benchmarkstt.metrics.core.WordDiffs--><rect codeLine="35" fill="#FEFECE" filter="url(#fj6usp8gtyjgq)" height="73.6094" id="benchmarkstt.metrics.core.WordDiffs" style="stroke: #A80036; stroke-width: 1.5;" width="520" x="3299" y="387.4531"/><ellipse cx="3524.75" cy="403.4531" fill="#ADD1B2" rx="11" ry="11" style="stroke: #A80036; stroke-width: 1.0;"/><path d="M3527.0938,399.125 C3526.1563,398.6875 3525.5625,398.5469 3524.6875,398.5469 C3522.0625,398.5469 3520.0625,400.625 3520.0625,403.3438 L3520.0625,404.4688 C3520.0625,407.0469 3522.1719,408.9375 3525.0625,408.9375 C3526.2813,408.9375 3527.4375,408.6406 3528.1875,408.0938 C3528.7656,407.6875 3529.0938,407.2344 3529.0938,406.8438 C3529.0938,406.3906 3528.7031,406 3528.2344,406 C3528.0156,406 3527.8125,406.0781 3527.625,406.2656 C3527.1719,406.75 3527.1719,406.75 3526.9844,406.8438 C3526.5625,407.1094 3525.875,407.2344 3525.1094,407.2344 C3523.0625,407.2344 3521.7656,406.1406 3521.7656,404.4375 L3521.7656,403.3438 C3521.7656,401.5625 3523.0156,400.25 3524.75,400.25 C3525.3281,400.25 3525.9375,400.4063 3526.4063,400.6563 C3526.8906,400.9375 3527.0625,401.1563 3527.1563,401.5625 C3527.2188,401.9688 3527.25,402.0938 3527.3906,402.2188 C3527.5313,402.3594 3527.7656,402.4688 3527.9844,402.4688 C3528.25,402.4688 3528.5156,402.3281 3528.6875,402.1094 C3528.7969,401.9531 3528.8281,401.7656 3528.8281,401.3438 L3528.8281,399.9219 C3528.8281,399.4844 3528.8125,399.3594 3528.7188,399.2031 C3528.5625,398.9375 3528.2813,398.7969 3527.9844,398.7969 C3527.6875,398.7969 3527.4844,398.8906 3527.2656,399.2031 L3527.0938,399.125 Z "/><text fill="#000000" font-family="sans-serif" font-size="12" lengthAdjust="spacingAndGlyphs" textLength="60" x="3545.25" y="407.6074">WordDiffs</text><line style="stroke: #A80036; stroke-width: 1.5;" x1="3300" x2="3818" y1="419.4531" y2="419.4531"/><line style="stroke: #A80036; stroke-width: 1.5;" x1="3300" x2="3818" y1="427.4531" y2="427.4531"/><ellipse cx="3310" cy="438.4531" fill="#84BE84" rx="3" ry="3" style="stroke: #038048; stroke-width: 1.0;"/><text fill="#000000" font-family="sans-serif" font-size="11" lengthAdjust="spacingAndGlyphs" textLength="264" x="3319" y="441.6636">__init__(self, dialect=None, differ_class=None)</text><ellipse cx="3310" cy="451.2578" fill="#84BE84" rx="3" ry="3" style="stroke: #038048; stroke-width: 1.0;"/><text fill="#000000" font-family="sans-serif" font-size="11" lengthAdjust="spacingAndGlyphs" textLength="494" x="3319" y="454.4683">compare(self, ref: benchmarkstt.schema.Schema, hyp: benchmarkstt.schema.Schema)</text><!--MD5=[5eef32e9538f5dcdb68c61d368837619]
class benchmarkstt.diff.core.RatcliffObershelp--><rect codeLine="18" fill="#FEFECE" filter="url(#fj6usp8gtyjgq)" height="188.8516" id="benchmarkstt.diff.core.RatcliffObershelp" style="stroke: #A80036; stroke-width: 1.5;" width="261" x="3875.5" y="329.9531"/><ellipse cx="3950.25" cy="345.9531" fill="#ADD1B2" rx="11" ry="11" style="stroke: #A80036; stroke-width: 1.0;"/><path d="M3952.5938,341.625 C3951.6563,341.1875 3951.0625,341.0469 3950.1875,341.0469 C3947.5625,341.0469 3945.5625,343.125 3945.5625,345.8438 L3945.5625,346.9688 C3945.5625,349.5469 3947.6719,351.4375 3950.5625,351.4375 C3951.7813,351.4375 3952.9375,351.1406 3953.6875,350.5938 C3954.2656,350.1875 3954.5938,349.7344 3954.5938,349.3438 C3954.5938,348.8906 3954.2031,348.5 3953.7344,348.5 C3953.5156,348.5 3953.3125,348.5781 3953.125,348.7656 C3952.6719,349.25 3952.6719,349.25 3952.4844,349.3438 C3952.0625,349.6094 3951.375,349.7344 3950.6094,349.7344 C3948.5625,349.7344 3947.2656,348.6406 3947.2656,346.9375 L3947.2656,345.8438 C3947.2656,344.0625 3948.5156,342.75 3950.25,342.75 C3950.8281,342.75 3951.4375,342.9063 3951.9063,343.1563 C3952.3906,343.4375 3952.5625,343.6563 3952.6563,344.0625 C3952.7188,344.4688 3952.75,344.5938 3952.8906,344.7188 C3953.0313,344.8594 3953.2656,344.9688 3953.4844,344.9688 C3953.75,344.9688 3954.0156,344.8281 3954.1875,344.6094 C3954.2969,344.4531 3954.3281,344.2656 3954.3281,343.8438 L3954.3281,342.4219 C3954.3281,341.9844 3954.3125,341.8594 3954.2188,341.7031 C3954.0625,341.4375 3953.7813,341.2969 3953.4844,341.2969 C3953.1875,341.2969 3952.9844,341.3906 3952.7656,341.7031 L3952.5938,341.625 Z "/><text fill="#000000" font-family="sans-serif" font-size="12" lengthAdjust="spacingAndGlyphs" textLength="103" x="3970.75" y="350.1074">RatcliffObershelp</text><line style="stroke: #A80036; stroke-width: 1.5;" x1="3876.5" x2="4135.5" y1="361.9531" y2="361.9531"/><line style="stroke: #A80036; stroke-width: 1.5;" x1="3876.5" x2="4135.5" y1="369.9531" y2="369.9531"/><ellipse cx="3886.5" cy="380.9531" fill="#84BE84" rx="3" ry="3" style="stroke: #038048; stroke-width: 1.0;"/><text fill="#000000" font-family="sans-serif" font-size="11" lengthAdjust="spacingAndGlyphs" textLength="193" x="3895.5" y="384.1636">__init__(self, a, b, *args, **kwargs)</text><ellipse cx="3886.5" cy="393.7578" fill="#84BE84" rx="3" ry="3" style="stroke: #038048; stroke-width: 1.0;"/><text fill="#000000" font-family="sans-serif" font-size="11" lengthAdjust="spacingAndGlyphs" textLength="235" x="3895.5" y="396.9683">find_longest_match(self, alo, ahi, blo, bhi)</text><ellipse cx="3886.5" cy="406.5625" fill="#84BE84" rx="3" ry="3" style="stroke: #038048; stroke-width: 1.0;"/><text fill="#000000" font-family="sans-serif" font-size="11" lengthAdjust="spacingAndGlyphs" textLength="185" x="3895.5" y="409.7729">get_grouped_opcodes(self, n=3)</text><ellipse cx="3886.5" cy="419.3672" fill="#84BE84" rx="3" ry="3" style="stroke: #038048; stroke-width: 1.0;"/><text fill="#000000" font-family="sans-serif" font-size="11" lengthAdjust="spacingAndGlyphs" textLength="147" x="3895.5" y="422.5776">get_matching_blocks(self)</text><ellipse cx="3886.5" cy="432.1719" fill="#84BE84" rx="3" ry="3" style="stroke: #038048; stroke-width: 1.0;"/><text fill="#000000" font-family="sans-serif" font-size="11" lengthAdjust="spacingAndGlyphs" textLength="102" x="3895.5" y="435.3823">get_opcodes(self)</text><ellipse cx="3886.5" cy="444.9766" fill="#84BE84" rx="3" ry="3" style="stroke: #038048; stroke-width: 1.0;"/><text fill="#000000" font-family="sans-serif" font-size="11" lengthAdjust="spacingAndGlyphs" textLength="89" x="3895.5" y="448.187">quick_ratio(self)</text><ellipse cx="3886.5" cy="457.7813" fill="#84BE84" rx="3" ry="3" style="stroke: #038048; stroke-width: 1.0;"/><text fill="#000000" font-family="sans-serif" font-size="11" lengthAdjust="spacingAndGlyphs" textLength="54" x="3895.5" y="460.9917">ratio(self)</text><ellipse cx="3886.5" cy="470.5859" fill="#84BE84" rx="3" ry="3" style="stroke: #038048; stroke-width: 1.0;"/><text fill="#000000" font-family="sans-serif" font-size="11" lengthAdjust="spacingAndGlyphs" textLength="117" x="3895.5" y="473.7964">real_quick_ratio(self)</text><ellipse cx="3886.5" cy="483.3906" fill="#84BE84" rx="3" ry="3" style="stroke: #038048; stroke-width: 1.0;"/><text fill="#000000" font-family="sans-serif" font-size="11" lengthAdjust="spacingAndGlyphs" textLength="95" x="3895.5" y="486.6011">set_seq1(self, a)</text><ellipse cx="3886.5" cy="496.1953" fill="#84BE84" rx="3" ry="3" style="stroke: #038048; stroke-width: 1.0;"/><text fill="#000000" font-family="sans-serif" font-size="11" lengthAdjust="spacingAndGlyphs" textLength="95" x="3895.5" y="499.4058">set_seq2(self, b)</text><ellipse cx="3886.5" cy="509" fill="#84BE84" rx="3" ry="3" style="stroke: #038048; stroke-width: 1.0;"/><text fill="#000000" font-family="sans-serif" font-size="11" lengthAdjust="spacingAndGlyphs" textLength="108" x="3895.5" y="512.2104">set_seqs(self, a, b)</text><!--MD5=[490ea28922b6507fe4f9ed69fc6567ac]
class benchmarkstt.normalization.Base--><rect codeLine="39" fill="#FEFECE" filter="url(#fj6usp8gtyjgq)" height="73.6094" id="benchmarkstt.normalization.Base" style="stroke: #A80036; stroke-width: 1.5;" width="136" x="967" y="67.9531"/><ellipse cx="1015.75" cy="83.9531" fill="#ADD1B2" rx="11" ry="11" style="stroke: #A80036; stroke-width: 1.0;"/><path d="M1018.0938,79.625 C1017.1563,79.1875 1016.5625,79.0469 1015.6875,79.0469 C1013.0625,79.0469 1011.0625,81.125 1011.0625,83.8438 L1011.0625,84.9688 C1011.0625,87.5469 1013.1719,89.4375 1016.0625,89.4375 C1017.2813,89.4375 1018.4375,89.1406 1019.1875,88.5938 C1019.7656,88.1875 1020.0938,87.7344 1020.0938,87.3438 C1020.0938,86.8906 1019.7031,86.5 1019.2344,86.5 C1019.0156,86.5 1018.8125,86.5781 1018.625,86.7656 C1018.1719,87.25 1018.1719,87.25 1017.9844,87.3438 C1017.5625,87.6094 1016.875,87.7344 1016.1094,87.7344 C1014.0625,87.7344 1012.7656,86.6406 1012.7656,84.9375 L1012.7656,83.8438 C1012.7656,82.0625 1014.0156,80.75 1015.75,80.75 C1016.3281,80.75 1016.9375,80.9063 1017.4063,81.1563 C1017.8906,81.4375 1018.0625,81.6563 1018.1563,82.0625 C1018.2188,82.4688 1018.25,82.5938 1018.3906,82.7188 C1018.5313,82.8594 1018.7656,82.9688 1018.9844,82.9688 C1019.25,82.9688 1019.5156,82.8281 1019.6875,82.6094 C1019.7969,82.4531 1019.8281,82.2656 1019.8281,81.8438 L1019.8281,80.4219 C1019.8281,79.9844 1019.8125,79.8594 1019.7188,79.7031 C1019.5625,79.4375 1019.2813,79.2969 1018.9844,79.2969 C1018.6875,79.2969 1018.4844,79.3906 1018.2656,79.7031 L1018.0938,79.625 Z "/><text fill="#000000" font-family="sans-serif" font-size="12" lengthAdjust="spacingAndGlyphs" textLength="30" x="1036.25" y="88.1074">Base</text><line style="stroke: #A80036; stroke-width: 1.5;" x1="968" x2="1102" y1="99.9531" y2="99.9531"/><line style="stroke: #A80036; stroke-width: 1.5;" x1="968" x2="1102" y1="107.9531" y2="107.9531"/><ellipse cx="978" cy="118.9531" fill="#84BE84" rx="3" ry="3" style="stroke: #038048; stroke-width: 1.0;"/><text fill="#000000" font-family="sans-serif" font-size="11" lengthAdjust="spacingAndGlyphs" textLength="76" x="987" y="122.1636">__repr__(self)</text><ellipse cx="978" cy="131.7578" fill="#84BE84" rx="3" ry="3" style="stroke: #038048; stroke-width: 1.0;"/><text fill="#000000" font-family="sans-serif" font-size="11" lengthAdjust="spacingAndGlyphs" textLength="110" x="987" y="134.9683">normalize(cls, text)</text><!--MD5=[8731c9077ab4f00ce3929ee4866ad0a9]
class benchmarkstt.normalization.BaseWithFileSupport--><rect codeLine="43" fill="#FEFECE" filter="url(#fj6usp8gtyjgq)" height="73.6094" id="benchmarkstt.normalization.BaseWithFileSupport" style="stroke: #A80036; stroke-width: 1.5;" width="157" x="345.5" y="387.4531"/><ellipse cx="360.5" cy="403.4531" fill="#ADD1B2" rx="11" ry="11" style="stroke: #A80036; stroke-width: 1.0;"/><path d="M362.8438,399.125 C361.9063,398.6875 361.3125,398.5469 360.4375,398.5469 C357.8125,398.5469 355.8125,400.625 355.8125,403.3438 L355.8125,404.4688 C355.8125,407.0469 357.9219,408.9375 360.8125,408.9375 C362.0313,408.9375 363.1875,408.6406 363.9375,408.0938 C364.5156,407.6875 364.8438,407.2344 364.8438,406.8438 C364.8438,406.3906 364.4531,406 363.9844,406 C363.7656,406 363.5625,406.0781 363.375,406.2656 C362.9219,406.75 362.9219,406.75 362.7344,406.8438 C362.3125,407.1094 361.625,407.2344 360.8594,407.2344 C358.8125,407.2344 357.5156,406.1406 357.5156,404.4375 L357.5156,403.3438 C357.5156,401.5625 358.7656,400.25 360.5,400.25 C361.0781,400.25 361.6875,400.4063 362.1563,400.6563 C362.6406,400.9375 362.8125,401.1563 362.9063,401.5625 C362.9688,401.9688 363,402.0938 363.1406,402.2188 C363.2813,402.3594 363.5156,402.4688 363.7344,402.4688 C364,402.4688 364.2656,402.3281 364.4375,402.1094 C364.5469,401.9531 364.5781,401.7656 364.5781,401.3438 L364.5781,399.9219 C364.5781,399.4844 364.5625,399.3594 364.4688,399.2031 C364.3125,398.9375 364.0313,398.7969 363.7344,398.7969 C363.4375,398.7969 363.2344,398.8906 363.0156,399.2031 L362.8438,399.125 Z "/><text fill="#000000" font-family="sans-serif" font-size="12" lengthAdjust="spacingAndGlyphs" textLength="125" x="374.5" y="407.6074">BaseWithFileSupport</text><line style="stroke: #A80036; stroke-width: 1.5;" x1="346.5" x2="501.5" y1="419.4531" y2="419.4531"/><line style="stroke: #A80036; stroke-width: 1.5;" x1="346.5" x2="501.5" y1="427.4531" y2="427.4531"/><ellipse cx="356.5" cy="438.4531" fill="#84BE84" rx="3" ry="3" style="stroke: #038048; stroke-width: 1.0;"/><text fill="#000000" font-family="sans-serif" font-size="11" lengthAdjust="spacingAndGlyphs" textLength="76" x="365.5" y="441.6636">__repr__(self)</text><ellipse cx="356.5" cy="451.2578" fill="#84BE84" rx="3" ry="3" style="stroke: #038048; stroke-width: 1.0;"/><text fill="#000000" font-family="sans-serif" font-size="11" lengthAdjust="spacingAndGlyphs" textLength="110" x="365.5" y="454.4683">normalize(cls, text)</text><!--MD5=[7be2797115ac10ff84f28e0e6993cad4]
class benchmarkstt.normalization.File--><rect codeLine="47" fill="#FEFECE" filter="url(#fj6usp8gtyjgq)" height="86.4141" id="benchmarkstt.normalization.File" style="stroke: #A80036; stroke-width: 1.5;" width="358" x="538" y="381.4531"/><ellipse cx="702.25" cy="397.4531" fill="#ADD1B2" rx="11" ry="11" style="stroke: #A80036; stroke-width: 1.0;"/><path d="M704.5938,393.125 C703.6563,392.6875 703.0625,392.5469 702.1875,392.5469 C699.5625,392.5469 697.5625,394.625 697.5625,397.3438 L697.5625,398.4688 C697.5625,401.0469 699.6719,402.9375 702.5625,402.9375 C703.7813,402.9375 704.9375,402.6406 705.6875,402.0938 C706.2656,401.6875 706.5938,401.2344 706.5938,400.8438 C706.5938,400.3906 706.2031,400 705.7344,400 C705.5156,400 705.3125,400.0781 705.125,400.2656 C704.6719,400.75 704.6719,400.75 704.4844,400.8438 C704.0625,401.1094 703.375,401.2344 702.6094,401.2344 C700.5625,401.2344 699.2656,400.1406 699.2656,398.4375 L699.2656,397.3438 C699.2656,395.5625 700.5156,394.25 702.25,394.25 C702.8281,394.25 703.4375,394.4063 703.9063,394.6563 C704.3906,394.9375 704.5625,395.1563 704.6563,395.5625 C704.7188,395.9688 704.75,396.0938 704.8906,396.2188 C705.0313,396.3594 705.2656,396.4688 705.4844,396.4688 C705.75,396.4688 706.0156,396.3281 706.1875,396.1094 C706.2969,395.9531 706.3281,395.7656 706.3281,395.3438 L706.3281,393.9219 C706.3281,393.4844 706.3125,393.3594 706.2188,393.2031 C706.0625,392.9375 705.7813,392.7969 705.4844,392.7969 C705.1875,392.7969 704.9844,392.8906 704.7656,393.2031 L704.5938,393.125 Z "/><text fill="#000000" font-family="sans-serif" font-size="12" lengthAdjust="spacingAndGlyphs" textLength="21" x="722.75" y="401.6074">File</text><line style="stroke: #A80036; stroke-width: 1.5;" x1="539" x2="895" y1="413.4531" y2="413.4531"/><line style="stroke: #A80036; stroke-width: 1.5;" x1="539" x2="895" y1="421.4531" y2="421.4531"/><ellipse cx="549" cy="432.4531" fill="#84BE84" rx="3" ry="3" style="stroke: #038048; stroke-width: 1.0;"/><text fill="#000000" font-family="sans-serif" font-size="11" lengthAdjust="spacingAndGlyphs" textLength="332" x="558" y="435.6636">__init__(self, normalizer, file, encoding=None, path=None)</text><ellipse cx="549" cy="445.2578" fill="#84BE84" rx="3" ry="3" style="stroke: #038048; stroke-width: 1.0;"/><text fill="#000000" font-family="sans-serif" font-size="11" lengthAdjust="spacingAndGlyphs" textLength="76" x="558" y="448.4683">__repr__(self)</text><ellipse cx="549" cy="458.0625" fill="#84BE84" rx="3" ry="3" style="stroke: #038048; stroke-width: 1.0;"/><text fill="#000000" font-family="sans-serif" font-size="11" lengthAdjust="spacingAndGlyphs" textLength="110" x="558" y="461.2729">normalize(cls, text)</text><!--MD5=[de8f3446ad2e81fca4f3988b148f6ee4]
class benchmarkstt.normalization.NormalizationComposite--><rect codeLine="52" fill="#FEFECE" filter="url(#fj6usp8gtyjgq)" height="99.2188" id="benchmarkstt.normalization.NormalizationComposite" style="stroke: #A80036; stroke-width: 1.5;" width="178" x="931" y="374.9531"/><ellipse cx="946" cy="390.9531" fill="#ADD1B2" rx="11" ry="11" style="stroke: #A80036; stroke-width: 1.0;"/><path d="M948.3438,386.625 C947.4063,386.1875 946.8125,386.0469 945.9375,386.0469 C943.3125,386.0469 941.3125,388.125 941.3125,390.8438 L941.3125,391.9688 C941.3125,394.5469 943.4219,396.4375 946.3125,396.4375 C947.5313,396.4375 948.6875,396.1406 949.4375,395.5938 C950.0156,395.1875 950.3438,394.7344 950.3438,394.3438 C950.3438,393.8906 949.9531,393.5 949.4844,393.5 C949.2656,393.5 949.0625,393.5781 948.875,393.7656 C948.4219,394.25 948.4219,394.25 948.2344,394.3438 C947.8125,394.6094 947.125,394.7344 946.3594,394.7344 C944.3125,394.7344 943.0156,393.6406 943.0156,391.9375 L943.0156,390.8438 C943.0156,389.0625 944.2656,387.75 946,387.75 C946.5781,387.75 947.1875,387.9063 947.6563,388.1563 C948.1406,388.4375 948.3125,388.6563 948.4063,389.0625 C948.4688,389.4688 948.5,389.5938 948.6406,389.7188 C948.7813,389.8594 949.0156,389.9688 949.2344,389.9688 C949.5,389.9688 949.7656,389.8281 949.9375,389.6094 C950.0469,389.4531 950.0781,389.2656 950.0781,388.8438 L950.0781,387.4219 C950.0781,386.9844 950.0625,386.8594 949.9688,386.7031 C949.8125,386.4375 949.5313,386.2969 949.2344,386.2969 C948.9375,386.2969 948.7344,386.3906 948.5156,386.7031 L948.3438,386.625 Z "/><text fill="#000000" font-family="sans-serif" font-size="12" lengthAdjust="spacingAndGlyphs" textLength="146" x="960" y="395.1074">NormalizationComposite</text><line style="stroke: #A80036; stroke-width: 1.5;" x1="932" x2="1108" y1="406.9531" y2="406.9531"/><line style="stroke: #A80036; stroke-width: 1.5;" x1="932" x2="1108" y1="414.9531" y2="414.9531"/><ellipse cx="942" cy="425.9531" fill="#84BE84" rx="3" ry="3" style="stroke: #038048; stroke-width: 1.0;"/><text fill="#000000" font-family="sans-serif" font-size="11" lengthAdjust="spacingAndGlyphs" textLength="138" x="951" y="429.1636">__init__(self, title=None)</text><ellipse cx="942" cy="438.7578" fill="#84BE84" rx="3" ry="3" style="stroke: #038048; stroke-width: 1.0;"/><text fill="#000000" font-family="sans-serif" font-size="11" lengthAdjust="spacingAndGlyphs" textLength="76" x="951" y="441.9683">__repr__(self)</text><ellipse cx="942" cy="451.5625" fill="#84BE84" rx="3" ry="3" style="stroke: #038048; stroke-width: 1.0;"/><text fill="#000000" font-family="sans-serif" font-size="11" lengthAdjust="spacingAndGlyphs" textLength="118" x="951" y="454.7729">add(self, normalizer)</text><ellipse cx="942" cy="464.3672" fill="#84BE84" rx="3" ry="3" style="stroke: #038048; stroke-width: 1.0;"/><text fill="#000000" font-family="sans-serif" font-size="11" lengthAdjust="spacingAndGlyphs" textLength="110" x="951" y="467.5776">normalize(cls, text)</text><!--MD5=[d1e904a0c11302288bad0868539b156c]
class benchmarkstt.input.Base--><rect codeLine="81" fill="#FEFECE" filter="url(#fj6usp8gtyjgq)" height="60.8047" id="benchmarkstt.input.Base" style="stroke: #A80036; stroke-width: 1.5;" width="98" x="1655" y="74.4531"/><ellipse cx="1686.2" cy="90.4531" fill="#ADD1B2" rx="11" ry="11" style="stroke: #A80036; stroke-width: 1.0;"/><path d="M1688.5438,86.125 C1687.6063,85.6875 1687.0125,85.5469 1686.1375,85.5469 C1683.5125,85.5469 1681.5125,87.625 1681.5125,90.3438 L1681.5125,91.4688 C1681.5125,94.0469 1683.6219,95.9375 1686.5125,95.9375 C1687.7313,95.9375 1688.8875,95.6406 1689.6375,95.0938 C1690.2156,94.6875 1690.5438,94.2344 1690.5438,93.8438 C1690.5438,93.3906 1690.1531,93 1689.6844,93 C1689.4656,93 1689.2625,93.0781 1689.075,93.2656 C1688.6219,93.75 1688.6219,93.75 1688.4344,93.8438 C1688.0125,94.1094 1687.325,94.2344 1686.5594,94.2344 C1684.5125,94.2344 1683.2156,93.1406 1683.2156,91.4375 L1683.2156,90.3438 C1683.2156,88.5625 1684.4656,87.25 1686.2,87.25 C1686.7781,87.25 1687.3875,87.4063 1687.8563,87.6563 C1688.3406,87.9375 1688.5125,88.1563 1688.6063,88.5625 C1688.6688,88.9688 1688.7,89.0938 1688.8406,89.2188 C1688.9813,89.3594 1689.2156,89.4688 1689.4344,89.4688 C1689.7,89.4688 1689.9656,89.3281 1690.1375,89.1094 C1690.2469,88.9531 1690.2781,88.7656 1690.2781,88.3438 L1690.2781,86.9219 C1690.2781,86.4844 1690.2625,86.3594 1690.1688,86.2031 C1690.0125,85.9375 1689.7313,85.7969 1689.4344,85.7969 C1689.1375,85.7969 1688.9344,85.8906 1688.7156,86.2031 L1688.5438,86.125 Z "/><text fill="#000000" font-family="sans-serif" font-size="12" lengthAdjust="spacingAndGlyphs" textLength="30" x="1703.8" y="94.6074">Base</text><line style="stroke: #A80036; stroke-width: 1.5;" x1="1656" x2="1752" y1="106.4531" y2="106.4531"/><line style="stroke: #A80036; stroke-width: 1.5;" x1="1656" x2="1752" y1="114.4531" y2="114.4531"/><ellipse cx="1666" cy="125.4531" fill="#84BE84" rx="3" ry="3" style="stroke: #038048; stroke-width: 1.0;"/><text fill="#000000" font-family="sans-serif" font-size="11" lengthAdjust="spacingAndGlyphs" textLength="72" x="1675" y="128.6636">__iter__(self)</text><!--MD5=[002c34d32132957f7ddeee40910e80d3]
class benchmarkstt.segmentation.Base--><rect codeLine="88" fill="#FEFECE" filter="url(#fj6usp8gtyjgq)" height="60.8047" id="benchmarkstt.segmentation.Base" style="stroke: #A80036; stroke-width: 1.5;" width="98" x="4326" y="74.4531"/><ellipse cx="4357.2" cy="90.4531" fill="#ADD1B2" rx="11" ry="11" style="stroke: #A80036; stroke-width: 1.0;"/><path d="M4359.5438,86.125 C4358.6063,85.6875 4358.0125,85.5469 4357.1375,85.5469 C4354.5125,85.5469 4352.5125,87.625 4352.5125,90.3438 L4352.5125,91.4688 C4352.5125,94.0469 4354.6219,95.9375 4357.5125,95.9375 C4358.7313,95.9375 4359.8875,95.6406 4360.6375,95.0938 C4361.2156,94.6875 4361.5438,94.2344 4361.5438,93.8438 C4361.5438,93.3906 4361.1531,93 4360.6844,93 C4360.4656,93 4360.2625,93.0781 4360.075,93.2656 C4359.6219,93.75 4359.6219,93.75 4359.4344,93.8438 C4359.0125,94.1094 4358.325,94.2344 4357.5594,94.2344 C4355.5125,94.2344 4354.2156,93.1406 4354.2156,91.4375 L4354.2156,90.3438 C4354.2156,88.5625 4355.4656,87.25 4357.2,87.25 C4357.7781,87.25 4358.3875,87.4063 4358.8563,87.6563 C4359.3406,87.9375 4359.5125,88.1563 4359.6063,88.5625 C4359.6688,88.9688 4359.7,89.0938 4359.8406,89.2188 C4359.9813,89.3594 4360.2156,89.4688 4360.4344,89.4688 C4360.7,89.4688 4360.9656,89.3281 4361.1375,89.1094 C4361.2469,88.9531 4361.2781,88.7656 4361.2781,88.3438 L4361.2781,86.9219 C4361.2781,86.4844 4361.2625,86.3594 4361.1688,86.2031 C4361.0125,85.9375 4360.7313,85.7969 4360.4344,85.7969 C4360.1375,85.7969 4359.9344,85.8906 4359.7156,86.2031 L4359.5438,86.125 Z "/><text fill="#000000" font-family="sans-serif" font-size="12" lengthAdjust="spacingAndGlyphs" textLength="30" x="4374.8" y="94.6074">Base</text><line style="stroke: #A80036; stroke-width: 1.5;" x1="4327" x2="4423" y1="106.4531" y2="106.4531"/><line style="stroke: #A80036; stroke-width: 1.5;" x1="4327" x2="4423" y1="114.4531" y2="114.4531"/><ellipse cx="4337" cy="125.4531" fill="#84BE84" rx="3" ry="3" style="stroke: #038048; stroke-width: 1.0;"/><text fill="#000000" font-family="sans-serif" font-size="11" lengthAdjust="spacingAndGlyphs" textLength="72" x="4346" y="128.6636">__iter__(self)</text><!--MD5=[e6682fb9f1ffb38935fc3ffe4e96004d]
class benchmarkstt.segmentation.core.Simple--><rect codeLine="91" fill="#FEFECE" filter="url(#fj6usp8gtyjgq)" height="73.6094" id="benchmarkstt.segmentation.core.Simple" style="stroke: #A80036; stroke-width: 1.5;" width="363" x="4193.5" y="387.4531"/><ellipse cx="4350.25" cy="403.4531" fill="#ADD1B2" rx="11" ry="11" style="stroke: #A80036; stroke-width: 1.0;"/><path d="M4352.5938,399.125 C4351.6563,398.6875 4351.0625,398.5469 4350.1875,398.5469 C4347.5625,398.5469 4345.5625,400.625 4345.5625,403.3438 L4345.5625,404.4688 C4345.5625,407.0469 4347.6719,408.9375 4350.5625,408.9375 C4351.7813,408.9375 4352.9375,408.6406 4353.6875,408.0938 C4354.2656,407.6875 4354.5938,407.2344 4354.5938,406.8438 C4354.5938,406.3906 4354.2031,406 4353.7344,406 C4353.5156,406 4353.3125,406.0781 4353.125,406.2656 C4352.6719,406.75 4352.6719,406.75 4352.4844,406.8438 C4352.0625,407.1094 4351.375,407.2344 4350.6094,407.2344 C4348.5625,407.2344 4347.2656,406.1406 4347.2656,404.4375 L4347.2656,403.3438 C4347.2656,401.5625 4348.5156,400.25 4350.25,400.25 C4350.8281,400.25 4351.4375,400.4063 4351.9063,400.6563 C4352.3906,400.9375 4352.5625,401.1563 4352.6563,401.5625 C4352.7188,401.9688 4352.75,402.0938 4352.8906,402.2188 C4353.0313,402.3594 4353.2656,402.4688 4353.4844,402.4688 C4353.75,402.4688 4354.0156,402.3281 4354.1875,402.1094 C4354.2969,401.9531 4354.3281,401.7656 4354.3281,401.3438 L4354.3281,399.9219 C4354.3281,399.4844 4354.3125,399.3594 4354.2188,399.2031 C4354.0625,398.9375 4353.7813,398.7969 4353.4844,398.7969 C4353.1875,398.7969 4352.9844,398.8906 4352.7656,399.2031 L4352.5938,399.125 Z "/><text fill="#000000" font-family="sans-serif" font-size="12" lengthAdjust="spacingAndGlyphs" textLength="41" x="4370.75" y="407.6074">Simple</text><line style="stroke: #A80036; stroke-width: 1.5;" x1="4194.5" x2="4555.5" y1="419.4531" y2="419.4531"/><line style="stroke: #A80036; stroke-width: 1.5;" x1="4194.5" x2="4555.5" y1="427.4531" y2="427.4531"/><ellipse cx="4204.5" cy="438.4531" fill="#84BE84" rx="3" ry="3" style="stroke: #038048; stroke-width: 1.0;"/><text fill="#000000" font-family="sans-serif" font-size="11" lengthAdjust="spacingAndGlyphs" textLength="337" x="4213.5" y="441.6636">__init__(self, text: str, pattern='[\n\t\s]+', normalizer=None)</text><ellipse cx="4204.5" cy="451.2578" fill="#84BE84" rx="3" ry="3" style="stroke: #038048; stroke-width: 1.0;"/><text fill="#000000" font-family="sans-serif" font-size="11" lengthAdjust="spacingAndGlyphs" textLength="72" x="4213.5" y="454.4683">__iter__(self)</text><!--MD5=[6bad0332cb50a567e063560f49fe1b05]
class benchmarkstt.output.Base--><rect codeLine="95" fill="#FEFECE" filter="url(#fj6usp8gtyjgq)" height="86.4141" id="benchmarkstt.output.Base" style="stroke: #A80036; stroke-width: 1.5;" width="257" x="4703.5" y="61.9531"/><ellipse cx="4812.75" cy="77.9531" fill="#ADD1B2" rx="11" ry="11" style="stroke: #A80036; stroke-width: 1.0;"/><path d="M4815.0938,73.625 C4814.1563,73.1875 4813.5625,73.0469 4812.6875,73.0469 C4810.0625,73.0469 4808.0625,75.125 4808.0625,77.8438 L4808.0625,78.9688 C4808.0625,81.5469 4810.1719,83.4375 4813.0625,83.4375 C4814.2813,83.4375 4815.4375,83.1406 4816.1875,82.5938 C4816.7656,82.1875 4817.0938,81.7344 4817.0938,81.3438 C4817.0938,80.8906 4816.7031,80.5 4816.2344,80.5 C4816.0156,80.5 4815.8125,80.5781 4815.625,80.7656 C4815.1719,81.25 4815.1719,81.25 4814.9844,81.3438 C4814.5625,81.6094 4813.875,81.7344 4813.1094,81.7344 C4811.0625,81.7344 4809.7656,80.6406 4809.7656,78.9375 L4809.7656,77.8438 C4809.7656,76.0625 4811.0156,74.75 4812.75,74.75 C4813.3281,74.75 4813.9375,74.9063 4814.4063,75.1563 C4814.8906,75.4375 4815.0625,75.6563 4815.1563,76.0625 C4815.2188,76.4688 4815.25,76.5938 4815.3906,76.7188 C4815.5313,76.8594 4815.7656,76.9688 4815.9844,76.9688 C4816.25,76.9688 4816.5156,76.8281 4816.6875,76.6094 C4816.7969,76.4531 4816.8281,76.2656 4816.8281,75.8438 L4816.8281,74.4219 C4816.8281,73.9844 4816.8125,73.8594 4816.7188,73.7031 C4816.5625,73.4375 4816.2813,73.2969 4815.9844,73.2969 C4815.6875,73.2969 4815.4844,73.3906 4815.2656,73.7031 L4815.0938,73.625 Z "/><text fill="#000000" font-family="sans-serif" font-size="12" lengthAdjust="spacingAndGlyphs" textLength="30" x="4833.25" y="82.1074">Base</text><line style="stroke: #A80036; stroke-width: 1.5;" x1="4704.5" x2="4959.5" y1="93.9531" y2="93.9531"/><line style="stroke: #A80036; stroke-width: 1.5;" x1="4704.5" x2="4959.5" y1="101.9531" y2="101.9531"/><ellipse cx="4714.5" cy="112.9531" fill="#84BE84" rx="3" ry="3" style="stroke: #038048; stroke-width: 1.0;"/><text fill="#000000" font-family="sans-serif" font-size="11" lengthAdjust="spacingAndGlyphs" textLength="84" x="4723.5" y="116.1636">__enter__(self)</text><ellipse cx="4714.5" cy="125.7578" fill="#84BE84" rx="3" ry="3" style="stroke: #038048; stroke-width: 1.0;"/><text fill="#000000" font-family="sans-serif" font-size="11" lengthAdjust="spacingAndGlyphs" textLength="231" x="4723.5" y="128.9683">__exit__(self, exc_type, exc_val, exc_tb)</text><ellipse cx="4714.5" cy="138.5625" fill="#84BE84" rx="3" ry="3" style="stroke: #038048; stroke-width: 1.0;"/><text fill="#000000" font-family="sans-serif" font-size="11" lengthAdjust="spacingAndGlyphs" textLength="129" x="4723.5" y="141.7729">result(self, title, result)</text><!--MD5=[f736c00f8e3d82ae904e3d345ee15690]
class benchmarkstt.output.core.Json--><rect codeLine="100" fill="#FEFECE" filter="url(#fj6usp8gtyjgq)" height="99.2188" id="benchmarkstt.output.core.Json" style="stroke: #A80036; stroke-width: 1.5;" width="257" x="4905.5" y="374.9531"/><ellipse cx="5016.75" cy="390.9531" fill="#ADD1B2" rx="11" ry="11" style="stroke: #A80036; stroke-width: 1.0;"/><path d="M5019.0938,386.625 C5018.1563,386.1875 5017.5625,386.0469 5016.6875,386.0469 C5014.0625,386.0469 5012.0625,388.125 5012.0625,390.8438 L5012.0625,391.9688 C5012.0625,394.5469 5014.1719,396.4375 5017.0625,396.4375 C5018.2813,396.4375 5019.4375,396.1406 5020.1875,395.5938 C5020.7656,395.1875 5021.0938,394.7344 5021.0938,394.3438 C5021.0938,393.8906 5020.7031,393.5 5020.2344,393.5 C5020.0156,393.5 5019.8125,393.5781 5019.625,393.7656 C5019.1719,394.25 5019.1719,394.25 5018.9844,394.3438 C5018.5625,394.6094 5017.875,394.7344 5017.1094,394.7344 C5015.0625,394.7344 5013.7656,393.6406 5013.7656,391.9375 L5013.7656,390.8438 C5013.7656,389.0625 5015.0156,387.75 5016.75,387.75 C5017.3281,387.75 5017.9375,387.9063 5018.4063,388.1563 C5018.8906,388.4375 5019.0625,388.6563 5019.1563,389.0625 C5019.2188,389.4688 5019.25,389.5938 5019.3906,389.7188 C5019.5313,389.8594 5019.7656,389.9688 5019.9844,389.9688 C5020.25,389.9688 5020.5156,389.8281 5020.6875,389.6094 C5020.7969,389.4531 5020.8281,389.2656 5020.8281,388.8438 L5020.8281,387.4219 C5020.8281,386.9844 5020.8125,386.8594 5020.7188,386.7031 C5020.5625,386.4375 5020.2813,386.2969 5019.9844,386.2969 C5019.6875,386.2969 5019.4844,386.3906 5019.2656,386.7031 L5019.0938,386.625 Z "/><text fill="#000000" font-family="sans-serif" font-size="12" lengthAdjust="spacingAndGlyphs" textLength="26" x="5037.25" y="395.1074">Json</text><line style="stroke: #A80036; stroke-width: 1.5;" x1="4906.5" x2="5161.5" y1="406.9531" y2="406.9531"/><line style="stroke: #A80036; stroke-width: 1.5;" x1="4906.5" x2="5161.5" y1="414.9531" y2="414.9531"/><ellipse cx="4916.5" cy="425.9531" fill="#84BE84" rx="3" ry="3" style="stroke: #038048; stroke-width: 1.0;"/><text fill="#000000" font-family="sans-serif" font-size="11" lengthAdjust="spacingAndGlyphs" textLength="84" x="4925.5" y="429.1636">__enter__(self)</text><ellipse cx="4916.5" cy="438.7578" fill="#84BE84" rx="3" ry="3" style="stroke: #038048; stroke-width: 1.0;"/><text fill="#000000" font-family="sans-serif" font-size="11" lengthAdjust="spacingAndGlyphs" textLength="231" x="4925.5" y="441.9683">__exit__(self, exc_type, exc_val, exc_tb)</text><ellipse cx="4916.5" cy="451.5625" fill="#84BE84" rx="3" ry="3" style="stroke: #038048; stroke-width: 1.0;"/><text fill="#000000" font-family="sans-serif" font-size="11" lengthAdjust="spacingAndGlyphs" textLength="70" x="4925.5" y="454.7729">__init__(self)</text><ellipse cx="4916.5" cy="464.3672" fill="#84BE84" rx="3" ry="3" style="stroke: #038048; stroke-width: 1.0;"/><text fill="#000000" font-family="sans-serif" font-size="11" lengthAdjust="spacingAndGlyphs" textLength="129" x="4925.5" y="467.5776">result(self, title, result)</text><!--MD5=[1202924086ca6a88207a70c63baf9330]
class benchmarkstt.output.core.MarkDown--><rect codeLine="106" fill="#FEFECE" filter="url(#fj6usp8gtyjgq)" height="99.2188" id="benchmarkstt.output.core.MarkDown" style="stroke: #A80036; stroke-width: 1.5;" width="257" x="4613.5" y="700.9531"/><ellipse cx="4706.25" cy="716.9531" fill="#ADD1B2" rx="11" ry="11" style="stroke: #A80036; stroke-width: 1.0;"/><path d="M4708.5938,712.625 C4707.6563,712.1875 4707.0625,712.0469 4706.1875,712.0469 C4703.5625,712.0469 4701.5625,714.125 4701.5625,716.8438 L4701.5625,717.9688 C4701.5625,720.5469 4703.6719,722.4375 4706.5625,722.4375 C4707.7813,722.4375 4708.9375,722.1406 4709.6875,721.5938 C4710.2656,721.1875 4710.5938,720.7344 4710.5938,720.3438 C4710.5938,719.8906 4710.2031,719.5 4709.7344,719.5 C4709.5156,719.5 4709.3125,719.5781 4709.125,719.7656 C4708.6719,720.25 4708.6719,720.25 4708.4844,720.3438 C4708.0625,720.6094 4707.375,720.7344 4706.6094,720.7344 C4704.5625,720.7344 4703.2656,719.6406 4703.2656,717.9375 L4703.2656,716.8438 C4703.2656,715.0625 4704.5156,713.75 4706.25,713.75 C4706.8281,713.75 4707.4375,713.9063 4707.9063,714.1563 C4708.3906,714.4375 4708.5625,714.6563 4708.6563,715.0625 C4708.7188,715.4688 4708.75,715.5938 4708.8906,715.7188 C4709.0313,715.8594 4709.2656,715.9688 4709.4844,715.9688 C4709.75,715.9688 4710.0156,715.8281 4710.1875,715.6094 C4710.2969,715.4531 4710.3281,715.2656 4710.3281,714.8438 L4710.3281,713.4219 C4710.3281,712.9844 4710.3125,712.8594 4710.2188,712.7031 C4710.0625,712.4375 4709.7813,712.2969 4709.4844,712.2969 C4709.1875,712.2969 4708.9844,712.3906 4708.7656,712.7031 L4708.5938,712.625 Z "/><text fill="#000000" font-family="sans-serif" font-size="12" lengthAdjust="spacingAndGlyphs" textLength="63" x="4726.75" y="721.1074">MarkDown</text><line style="stroke: #A80036; stroke-width: 1.5;" x1="4614.5" x2="4869.5" y1="732.9531" y2="732.9531"/><line style="stroke: #A80036; stroke-width: 1.5;" x1="4614.5" x2="4869.5" y1="740.9531" y2="740.9531"/><ellipse cx="4624.5" cy="751.9531" fill="#84BE84" rx="3" ry="3" style="stroke: #038048; stroke-width: 1.0;"/><text fill="#000000" font-family="sans-serif" font-size="11" lengthAdjust="spacingAndGlyphs" textLength="84" x="4633.5" y="755.1636">__enter__(self)</text><ellipse cx="4624.5" cy="764.7578" fill="#84BE84" rx="3" ry="3" style="stroke: #038048; stroke-width: 1.0;"/><text fill="#000000" font-family="sans-serif" font-size="11" lengthAdjust="spacingAndGlyphs" textLength="231" x="4633.5" y="767.9683">__exit__(self, exc_type, exc_val, exc_tb)</text><ellipse cx="4624.5" cy="777.5625" fill="#84BE84" rx="3" ry="3" style="stroke: #038048; stroke-width: 1.0;"/><text fill="#000000" font-family="sans-serif" font-size="11" lengthAdjust="spacingAndGlyphs" textLength="93" x="4633.5" y="780.7729">print(self, result)</text><ellipse cx="4624.5" cy="790.3672" fill="#84BE84" rx="3" ry="3" style="stroke: #038048; stroke-width: 1.0;"/><text fill="#000000" font-family="sans-serif" font-size="11" lengthAdjust="spacingAndGlyphs" textLength="129" x="4633.5" y="793.5776">result(self, title, result)</text><!--MD5=[1b1c3484ac7c767612303980bbf618ed]
class benchmarkstt.output.core.ReStructuredText--><rect codeLine="112" fill="#FEFECE" filter="url(#fj6usp8gtyjgq)" height="99.2188" id="benchmarkstt.output.core.ReStructuredText" style="stroke: #A80036; stroke-width: 1.5;" width="257" x="4905.5" y="700.9531"/><ellipse cx="4977.75" cy="716.9531" fill="#ADD1B2" rx="11" ry="11" style="stroke: #A80036; stroke-width: 1.0;"/><path d="M4980.0938,712.625 C4979.1563,712.1875 4978.5625,712.0469 4977.6875,712.0469 C4975.0625,712.0469 4973.0625,714.125 4973.0625,716.8438 L4973.0625,717.9688 C4973.0625,720.5469 4975.1719,722.4375 4978.0625,722.4375 C4979.2813,722.4375 4980.4375,722.1406 4981.1875,721.5938 C4981.7656,721.1875 4982.0938,720.7344 4982.0938,720.3438 C4982.0938,719.8906 4981.7031,719.5 4981.2344,719.5 C4981.0156,719.5 4980.8125,719.5781 4980.625,719.7656 C4980.1719,720.25 4980.1719,720.25 4979.9844,720.3438 C4979.5625,720.6094 4978.875,720.7344 4978.1094,720.7344 C4976.0625,720.7344 4974.7656,719.6406 4974.7656,717.9375 L4974.7656,716.8438 C4974.7656,715.0625 4976.0156,713.75 4977.75,713.75 C4978.3281,713.75 4978.9375,713.9063 4979.4063,714.1563 C4979.8906,714.4375 4980.0625,714.6563 4980.1563,715.0625 C4980.2188,715.4688 4980.25,715.5938 4980.3906,715.7188 C4980.5313,715.8594 4980.7656,715.9688 4980.9844,715.9688 C4981.25,715.9688 4981.5156,715.8281 4981.6875,715.6094 C4981.7969,715.4531 4981.8281,715.2656 4981.8281,714.8438 L4981.8281,713.4219 C4981.8281,712.9844 4981.8125,712.8594 4981.7188,712.7031 C4981.5625,712.4375 4981.2813,712.2969 4980.9844,712.2969 C4980.6875,712.2969 4980.4844,712.3906 4980.2656,712.7031 L4980.0938,712.625 Z "/><text fill="#000000" font-family="sans-serif" font-size="12" lengthAdjust="spacingAndGlyphs" textLength="104" x="4998.25" y="721.1074">ReStructuredText</text><line style="stroke: #A80036; stroke-width: 1.5;" x1="4906.5" x2="5161.5" y1="732.9531" y2="732.9531"/><line style="stroke: #A80036; stroke-width: 1.5;" x1="4906.5" x2="5161.5" y1="740.9531" y2="740.9531"/><ellipse cx="4916.5" cy="751.9531" fill="#84BE84" rx="3" ry="3" style="stroke: #038048; stroke-width: 1.0;"/><text fill="#000000" font-family="sans-serif" font-size="11" lengthAdjust="spacingAndGlyphs" textLength="84" x="4925.5" y="755.1636">__enter__(self)</text><ellipse cx="4916.5" cy="764.7578" fill="#84BE84" rx="3" ry="3" style="stroke: #038048; stroke-width: 1.0;"/><text fill="#000000" font-family="sans-serif" font-size="11" lengthAdjust="spacingAndGlyphs" textLength="231" x="4925.5" y="767.9683">__exit__(self, exc_type, exc_val, exc_tb)</text><ellipse cx="4916.5" cy="777.5625" fill="#84BE84" rx="3" ry="3" style="stroke: #038048; stroke-width: 1.0;"/><text fill="#000000" font-family="sans-serif" font-size="11" lengthAdjust="spacingAndGlyphs" textLength="93" x="4925.5" y="780.7729">print(self, result)</text><ellipse cx="4916.5" cy="790.3672" fill="#84BE84" rx="3" ry="3" style="stroke: #038048; stroke-width: 1.0;"/><text fill="#000000" font-family="sans-serif" font-size="11" lengthAdjust="spacingAndGlyphs" textLength="129" x="4925.5" y="793.5776">result(self, title, result)</text><!--MD5=[ad472f876b41c377ab9c2f7fd723b528]
class benchmarkstt.output.core.SimpleTextBase--><rect codeLine="118" fill="#FEFECE" filter="url(#fj6usp8gtyjgq)" height="99.2188" id="benchmarkstt.output.core.SimpleTextBase" style="stroke: #A80036; stroke-width: 1.5;" width="257" x="4613.5" y="374.9531"/><ellipse cx="4689.25" cy="390.9531" fill="#ADD1B2" rx="11" ry="11" style="stroke: #A80036; stroke-width: 1.0;"/><path d="M4691.5938,386.625 C4690.6563,386.1875 4690.0625,386.0469 4689.1875,386.0469 C4686.5625,386.0469 4684.5625,388.125 4684.5625,390.8438 L4684.5625,391.9688 C4684.5625,394.5469 4686.6719,396.4375 4689.5625,396.4375 C4690.7813,396.4375 4691.9375,396.1406 4692.6875,395.5938 C4693.2656,395.1875 4693.5938,394.7344 4693.5938,394.3438 C4693.5938,393.8906 4693.2031,393.5 4692.7344,393.5 C4692.5156,393.5 4692.3125,393.5781 4692.125,393.7656 C4691.6719,394.25 4691.6719,394.25 4691.4844,394.3438 C4691.0625,394.6094 4690.375,394.7344 4689.6094,394.7344 C4687.5625,394.7344 4686.2656,393.6406 4686.2656,391.9375 L4686.2656,390.8438 C4686.2656,389.0625 4687.5156,387.75 4689.25,387.75 C4689.8281,387.75 4690.4375,387.9063 4690.9063,388.1563 C4691.3906,388.4375 4691.5625,388.6563 4691.6563,389.0625 C4691.7188,389.4688 4691.75,389.5938 4691.8906,389.7188 C4692.0313,389.8594 4692.2656,389.9688 4692.4844,389.9688 C4692.75,389.9688 4693.0156,389.8281 4693.1875,389.6094 C4693.2969,389.4531 4693.3281,389.2656 4693.3281,388.8438 L4693.3281,387.4219 C4693.3281,386.9844 4693.3125,386.8594 4693.2188,386.7031 C4693.0625,386.4375 4692.7813,386.2969 4692.4844,386.2969 C4692.1875,386.2969 4691.9844,386.3906 4691.7656,386.7031 L4691.5938,386.625 Z "/><text fill="#000000" font-family="sans-serif" font-size="12" lengthAdjust="spacingAndGlyphs" textLength="97" x="4709.75" y="395.1074">SimpleTextBase</text><line style="stroke: #A80036; stroke-width: 1.5;" x1="4614.5" x2="4869.5" y1="406.9531" y2="406.9531"/><line style="stroke: #A80036; stroke-width: 1.5;" x1="4614.5" x2="4869.5" y1="414.9531" y2="414.9531"/><ellipse cx="4624.5" cy="425.9531" fill="#84BE84" rx="3" ry="3" style="stroke: #038048; stroke-width: 1.0;"/><text fill="#000000" font-family="sans-serif" font-size="11" lengthAdjust="spacingAndGlyphs" textLength="84" x="4633.5" y="429.1636">__enter__(self)</text><ellipse cx="4624.5" cy="438.7578" fill="#84BE84" rx="3" ry="3" style="stroke: #038048; stroke-width: 1.0;"/><text fill="#000000" font-family="sans-serif" font-size="11" lengthAdjust="spacingAndGlyphs" textLength="231" x="4633.5" y="441.9683">__exit__(self, exc_type, exc_val, exc_tb)</text><ellipse cx="4624.5" cy="451.5625" fill="#84BE84" rx="3" ry="3" style="stroke: #038048; stroke-width: 1.0;"/><text fill="#000000" font-family="sans-serif" font-size="11" lengthAdjust="spacingAndGlyphs" textLength="93" x="4633.5" y="454.7729">print(self, result)</text><ellipse cx="4624.5" cy="464.3672" fill="#84BE84" rx="3" ry="3" style="stroke: #038048; stroke-width: 1.0;"/><text fill="#000000" font-family="sans-serif" font-size="11" lengthAdjust="spacingAndGlyphs" textLength="129" x="4633.5" y="467.5776">result(self, title, result)</text><!--MD5=[6aa6ae3a879840a73b19fd2777afca9b]
class benchmarkstt.diff.Base--><rect codeLine="124" fill="#FEFECE" filter="url(#fj6usp8gtyjgq)" height="73.6094" id="benchmarkstt.diff.Base" style="stroke: #A80036; stroke-width: 1.5;" width="154" x="3929" y="67.9531"/><ellipse cx="3986.75" cy="83.9531" fill="#ADD1B2" rx="11" ry="11" style="stroke: #A80036; stroke-width: 1.0;"/><path d="M3989.0938,79.625 C3988.1563,79.1875 3987.5625,79.0469 3986.6875,79.0469 C3984.0625,79.0469 3982.0625,81.125 3982.0625,83.8438 L3982.0625,84.9688 C3982.0625,87.5469 3984.1719,89.4375 3987.0625,89.4375 C3988.2813,89.4375 3989.4375,89.1406 3990.1875,88.5938 C3990.7656,88.1875 3991.0938,87.7344 3991.0938,87.3438 C3991.0938,86.8906 3990.7031,86.5 3990.2344,86.5 C3990.0156,86.5 3989.8125,86.5781 3989.625,86.7656 C3989.1719,87.25 3989.1719,87.25 3988.9844,87.3438 C3988.5625,87.6094 3987.875,87.7344 3987.1094,87.7344 C3985.0625,87.7344 3983.7656,86.6406 3983.7656,84.9375 L3983.7656,83.8438 C3983.7656,82.0625 3985.0156,80.75 3986.75,80.75 C3987.3281,80.75 3987.9375,80.9063 3988.4063,81.1563 C3988.8906,81.4375 3989.0625,81.6563 3989.1563,82.0625 C3989.2188,82.4688 3989.25,82.5938 3989.3906,82.7188 C3989.5313,82.8594 3989.7656,82.9688 3989.9844,82.9688 C3990.25,82.9688 3990.5156,82.8281 3990.6875,82.6094 C3990.7969,82.4531 3990.8281,82.2656 3990.8281,81.8438 L3990.8281,80.4219 C3990.8281,79.9844 3990.8125,79.8594 3990.7188,79.7031 C3990.5625,79.4375 3990.2813,79.2969 3989.9844,79.2969 C3989.6875,79.2969 3989.4844,79.3906 3989.2656,79.7031 L3989.0938,79.625 Z "/><text fill="#000000" font-family="sans-serif" font-size="12" lengthAdjust="spacingAndGlyphs" textLength="30" x="4007.25" y="88.1074">Base</text><line style="stroke: #A80036; stroke-width: 1.5;" x1="3930" x2="4082" y1="99.9531" y2="99.9531"/><line style="stroke: #A80036; stroke-width: 1.5;" x1="3930" x2="4082" y1="107.9531" y2="107.9531"/><ellipse cx="3940" cy="118.9531" fill="#84BE84" rx="3" ry="3" style="stroke: #038048; stroke-width: 1.0;"/><text fill="#000000" font-family="sans-serif" font-size="11" lengthAdjust="spacingAndGlyphs" textLength="128" x="3949" y="122.1636">__init__(self, a='', b='')</text><ellipse cx="3940" cy="131.7578" fill="#84BE84" rx="3" ry="3" style="stroke: #038048; stroke-width: 1.0;"/><text fill="#000000" font-family="sans-serif" font-size="11" lengthAdjust="spacingAndGlyphs" textLength="102" x="3949" y="134.9683">get_opcodes(self)</text><!--MD5=[5061374c777a9754aae33fd446b51956]
reverse link benchmarkstt.normalization.Base to benchmarkstt.normalization.core.Config--><path codeLine="129" d="M1101.02,155.3641 C1131.91,184.4471 1162,224.2501 1162,268.9531 C1162,268.9531 1162,268.9531 1162,579.9531 C1162,635.0831 1116.62,678.3001 1072.47,707.2961 " fill="none" id="benchmarkstt.normalization.Base&lt;-benchmarkstt.normalization.core.Config" style="stroke: #A80036; stroke-width: 1.0;"/><polygon fill="none" points="1096.24,160.4811,1085.92,141.9741,1105.53,150.0071,1096.24,160.4811" style="stroke: #A80036; stroke-width: 1.0;"/><!--MD5=[3d607d7f67fd018830fa1d9f070f3dcc]
reverse link benchmarkstt.input.Base to benchmarkstt.input.core.PlainText--><path codeLine="130" d="M1687,154.5721 C1664.58,218.7141 1625.62,330.1431 1605.63,387.3241 " fill="none" id="benchmarkstt.input.Base&lt;-benchmarkstt.input.core.PlainText" style="stroke: #A80036; stroke-width: 1.0;"/><polygon fill="none" points="1680.45,152.1071,1693.66,135.5381,1693.66,156.7271,1680.45,152.1071" style="stroke: #A80036; stroke-width: 1.0;"/><!--MD5=[0e20ec8c1c3e6f52fb3eaed392cf3205]
reverse link benchmarkstt.metrics.Base to benchmarkstt.metrics.core.DiffCounts--><path codeLine="131" d="M2934.78,145.5491 C2826.09,207.7311 2616.98,327.3581 2512.15,387.3241 " fill="none" id="benchmarkstt.metrics.Base&lt;-benchmarkstt.metrics.core.DiffCounts" style="stroke: #A80036; stroke-width: 1.0;"/><polygon fill="none" points="2931.45,139.3931,2952.29,135.5381,2938.4,151.5451,2931.45,139.3931" style="stroke: #A80036; stroke-width: 1.0;"/><!--MD5=[995a509b438cdc2d97b80485f82ea7f7]
reverse link benchmarkstt.diff.Base to benchmarkstt.diff.core.RatcliffObershelp--><path codeLine="132" d="M4006,162.1341 C4006,208.5341 4006,275.3761 4006,329.8421 " fill="none" id="benchmarkstt.diff.Base&lt;-benchmarkstt.diff.core.RatcliffObershelp" style="stroke: #A80036; stroke-width: 1.0;"/><polygon fill="none" points="3999,162.0651,4006,142.0651,4013,162.0651,3999,162.0651" style="stroke: #A80036; stroke-width: 1.0;"/><!--MD5=[30299ce62ca518511ed25a5a2ec7aa2b]
reverse link benchmarkstt.metrics.Base to benchmarkstt.metrics.core.WER--><path codeLine="133" d="M3004,155.8281 C3004,220.1581 3004,330.5141 3004,387.3241 " fill="none" id="benchmarkstt.metrics.Base&lt;-benchmarkstt.metrics.core.WER" style="stroke: #A80036; stroke-width: 1.0;"/><polygon fill="none" points="2997,155.5381,3004,135.5381,3011,155.5371,2997,155.5381" style="stroke: #A80036; stroke-width: 1.0;"/><!--MD5=[4985c6bdcdda9aa3aac1b42ffb8ef9ca]
reverse link benchmarkstt.metrics.Base to benchmarkstt.metrics.core.WordDiffs--><path codeLine="134" d="M3073.22,145.5491 C3181.91,207.7311 3391.02,327.3581 3495.85,387.3241 " fill="none" id="benchmarkstt.metrics.Base&lt;-benchmarkstt.metrics.core.WordDiffs" style="stroke: #A80036; stroke-width: 1.0;"/><polygon fill="none" points="3069.6,151.5451,3055.71,135.5381,3076.55,139.3931,3069.6,151.5451" style="stroke: #A80036; stroke-width: 1.0;"/><!--MD5=[575e663b2536f330a8a680af2dda35b7]
reverse link benchmarkstt.normalization.Base to benchmarkstt.normalization.BaseWithFileSupport--><path codeLine="135" d="M947.212,119.8151 C837.989,140.6311 650.046,188.5181 520,286.9531 C484.887,313.5311 457.627,356.6691 441.273,387.3321 " fill="none" id="benchmarkstt.normalization.Base&lt;-benchmarkstt.normalization.BaseWithFileSupport" style="stroke: #A80036; stroke-width: 1.0;"/><polygon fill="none" points="946.05,112.9121,966.986,116.1791,948.582,126.6811,946.05,112.9121" style="stroke: #A80036; stroke-width: 1.0;"/><!--MD5=[9f442861b615eeab1a4471824f88bd49]
reverse link benchmarkstt.normalization.Base to benchmarkstt.normalization.File--><path codeLine="136" d="M984.327,156.5461 C922,218.7761 817.333,323.2781 759.179,381.3401 " fill="none" id="benchmarkstt.normalization.Base&lt;-benchmarkstt.normalization.File" style="stroke: #A80036; stroke-width: 1.0;"/><polygon fill="none" points="979.732,151.2431,998.831,142.0651,989.624,161.1501,979.732,151.2431" style="stroke: #A80036; stroke-width: 1.0;"/><!--MD5=[4002a7e727d35a405f517db3ff42843b]
reverse link benchmarkstt.normalization.Base to benchmarkstt.normalization.NormalizationComposite--><path codeLine="137" d="M1032.34,162.2571 C1029.48,222.6941 1025,317.7111 1022.29,374.9511 " fill="none" id="benchmarkstt.normalization.Base&lt;-benchmarkstt.normalization.NormalizationComposite" style="stroke: #A80036; stroke-width: 1.0;"/><polygon fill="none" points="1025.36,161.7131,1033.29,142.0651,1039.34,162.3731,1025.36,161.7131" style="stroke: #A80036; stroke-width: 1.0;"/><!--MD5=[d8d26d3f93abbb7999e5fa4853678912]
reverse link benchmarkstt.normalization.Base to benchmarkstt.normalization.core.Lowercase--><path codeLine="138" d="M1121.69,135.2381 C1178.77,160.6211 1243,203.6861 1243,268.9531 C1243,268.9531 1243,268.9531 1243,579.9531 C1243,626.0141 1244.12,679.1041 1244.99,713.4151 " fill="none" id="benchmarkstt.normalization.Base&lt;-benchmarkstt.normalization.core.Lowercase" style="stroke: #A80036; stroke-width: 1.0;"/><polygon fill="none" points="1118.85,141.6381,1103.11,127.4571,1124.26,128.7251,1118.85,141.6381" style="stroke: #A80036; stroke-width: 1.0;"/><!--MD5=[18301e1660a763973f9de9a55f906421]
reverse link benchmarkstt.normalization.BaseWithFileSupport to benchmarkstt.normalization.core.Regex--><path codeLine="139" d="M379.992,477.3021 C325.807,541.1421 234.825,648.3361 184.743,707.3411 " fill="none" id="benchmarkstt.normalization.BaseWithFileSupport&lt;-benchmarkstt.normalization.core.Regex" style="stroke: #A80036; stroke-width: 1.0;"/><polygon fill="none" points="374.976,472.3951,393.254,461.6771,385.649,481.4551,374.976,472.3951" style="stroke: #A80036; stroke-width: 1.0;"/><!--MD5=[fa04abb703e3e86a020d8fc2134feb88]
reverse link benchmarkstt.normalization.BaseWithFileSupport to benchmarkstt.normalization.core.Replace--><path codeLine="140" d="M422.782,481.8451 C421.393,546.1221 419.155,649.7141 417.91,707.3411 " fill="none" id="benchmarkstt.normalization.BaseWithFileSupport&lt;-benchmarkstt.normalization.core.Replace" style="stroke: #A80036; stroke-width: 1.0;"/><polygon fill="none" points="415.787,481.5211,423.217,461.6771,429.784,481.8231,415.787,481.5211" style="stroke: #A80036; stroke-width: 1.0;"/><!--MD5=[e0de21ea5ed787e4d9bd1e18c36da4dd]
reverse link benchmarkstt.normalization.BaseWithFileSupport to benchmarkstt.normalization.core.ReplaceWords--><path codeLine="141" d="M465.768,477.3021 C517.194,541.1421 603.544,648.3361 651.076,707.3411 " fill="none" id="benchmarkstt.normalization.BaseWithFileSupport&lt;-benchmarkstt.normalization.core.ReplaceWords" style="stroke: #A80036; stroke-width: 1.0;"/><polygon fill="none" points="460.276,481.6431,453.18,461.6771,471.178,472.8611,460.276,481.6431" style="stroke: #A80036; stroke-width: 1.0;"/><!--MD5=[c25f46be65441ad90754122994e70604]
reverse link benchmarkstt.normalization.Base to benchmarkstt.normalization.core.Unidecode--><path codeLine="142" d="M1123.41,111.7211 C1222.36,123.5351 1369,159.5061 1369,268.9531 C1369,268.9531 1369,268.9531 1369,579.9531 C1369,627.3591 1386.6,679.4961 1400.48,713.2571 " fill="none" id="benchmarkstt.normalization.Base&lt;-benchmarkstt.normalization.core.Unidecode" style="stroke: #A80036; stroke-width: 1.0;"/><polygon fill="none" points="1122.54,118.6671,1103.4,109.5781,1124.03,104.7471,1122.54,118.6671" style="stroke: #A80036; stroke-width: 1.0;"/><!--MD5=[065a416e4c33abf0dffdc83d6e1bf045]
reverse link benchmarkstt.input.Base to benchmarkstt.input.core.File--><path codeLine="143" d="M1741.41,151.2831 C1793.85,214.8381 1888.18,329.1531 1936.19,387.3241 " fill="none" id="benchmarkstt.input.Base&lt;-benchmarkstt.input.core.File" style="stroke: #A80036; stroke-width: 1.0;"/><polygon fill="none" points="1735.74,155.4191,1728.41,135.5381,1746.54,146.5081,1735.74,155.4191" style="stroke: #A80036; stroke-width: 1.0;"/><!--MD5=[ec6170c354b4ffc3f1d5dae0d39c7b48]
reverse link benchmarkstt.segmentation.Base to benchmarkstt.segmentation.core.Simple--><path codeLine="144" d="M4375,155.8281 C4375,220.1581 4375,330.5141 4375,387.3241 " fill="none" id="benchmarkstt.segmentation.Base&lt;-benchmarkstt.segmentation.core.Simple" style="stroke: #A80036; stroke-width: 1.0;"/><polygon fill="none" points="4368,155.5381,4375,135.5381,4382,155.5371,4368,155.5381" style="stroke: #A80036; stroke-width: 1.0;"/><!--MD5=[b4ba39b199d1ae7f900ea69508af4a3d]
reverse link benchmarkstt.output.Base to benchmarkstt.output.core.Json--><path codeLine="145" d="M4869.58,165.0181 C4908.07,225.5261 4967.22,318.4861 5003.09,374.8701 " fill="none" id="benchmarkstt.output.Base&lt;-benchmarkstt.output.core.Json" style="stroke: #A80036; stroke-width: 1.0;"/><polygon fill="none" points="4863.65,168.7461,4858.82,148.1151,4875.47,161.2311,4863.65,168.7461" style="stroke: #A80036; stroke-width: 1.0;"/><!--MD5=[649e8d6b5a19579f64f6ff55d9b80603]
reverse link benchmarkstt.output.core.SimpleTextBase to benchmarkstt.output.core.MarkDown--><path codeLine="146" d="M4742,494.2531 C4742,556.3091 4742,646.0151 4742,700.8811 " fill="none" id="benchmarkstt.output.core.SimpleTextBase&lt;-benchmarkstt.output.core.MarkDown" style="stroke: #A80036; stroke-width: 1.0;"/><polygon fill="none" points="4735,493.9591,4742,473.9591,4749,493.9591,4735,493.9591" style="stroke: #A80036; stroke-width: 1.0;"/><!--MD5=[0064dcd89a9c0ed1362beefa7e7418bc]
reverse link benchmarkstt.output.core.SimpleTextBase to benchmarkstt.output.core.ReStructuredText--><path codeLine="147" d="M4799.31,489.0491 C4855.33,551.2001 4939.38,644.4621 4990.22,700.8811 " fill="none" id="benchmarkstt.output.core.SimpleTextBase&lt;-benchmarkstt.output.core.ReStructuredText" style="stroke: #A80036; stroke-width: 1.0;"/><polygon fill="none" points="4793.9,493.5021,4785.72,473.9591,4804.3,484.1301,4793.9,493.5021" style="stroke: #A80036; stroke-width: 1.0;"/><!--MD5=[ec4fe02a8646f37173536f5ee390896c]
reverse link benchmarkstt.output.Base to benchmarkstt.output.core.SimpleTextBase--><path codeLine="148" d="M4814.59,167.3711 C4797.43,227.9131 4771.55,319.2121 4755.77,374.8701 " fill="none" id="benchmarkstt.output.Base&lt;-benchmarkstt.output.core.SimpleTextBase" style="stroke: #A80036; stroke-width: 1.0;"/><polygon fill="none" points="4807.86,165.4471,4820.05,148.1151,4821.33,169.2651,4807.86,165.4471" style="stroke: #A80036; stroke-width: 1.0;"/><!--MD5=[cba1fcf467e2e8ec55f18b86f91faba6]
@startuml
title 'Core BenchmarkSTT Structure'
		class benchmarkstt.normalization.core.Config {
			+__init__(self, file, section=None, encoding=None)
			+__repr__(self)
			+normalize(cls, text)
		}
		class benchmarkstt.input.core.PlainText {
			+__init__(self, text, segmenter=None, normalizer=None)
			+__iter__(self)
		}
		class benchmarkstt.metrics.Base {
			+compare(self, ref: benchmarkstt.schema.Schema, hyp: benchmarkstt.schema.Schema)
		}
		class benchmarkstt.metrics.core.DiffCounts {
			+__init__(self, differ_class=None)
			+compare(self, ref: benchmarkstt.schema.Schema, hyp: benchmarkstt.schema.Schema)
		}
		class benchmarkstt.diff.core.RatcliffObershelp {
			+__init__(self, a, b, *args, **kwargs)
			+find_longest_match(self, alo, ahi, blo, bhi)
			+get_grouped_opcodes(self, n=3)
			+get_matching_blocks(self)
			+get_opcodes(self)
			+quick_ratio(self)
			+ratio(self)
			+real_quick_ratio(self)
			+set_seq1(self, a)
			+set_seq2(self, b)
			+set_seqs(self, a, b)
		}
		class benchmarkstt.metrics.core.WER {
			+__init__(self, mode=None, differ_class=None)
			+compare(self, ref: benchmarkstt.schema.Schema, hyp: benchmarkstt.schema.Schema)
		}
		class benchmarkstt.metrics.core.WordDiffs {
			+__init__(self, dialect=None, differ_class=None)
			+compare(self, ref: benchmarkstt.schema.Schema, hyp: benchmarkstt.schema.Schema)
		}
		class benchmarkstt.normalization.Base {
			+__repr__(self)
			+normalize(cls, text)
		}
		class benchmarkstt.normalization.BaseWithFileSupport {
			+__repr__(self)
			+normalize(cls, text)
		}
		class benchmarkstt.normalization.File {
			+__init__(self, normalizer, file, encoding=None, path=None)
			+__repr__(self)
			+normalize(cls, text)
		}
		class benchmarkstt.normalization.NormalizationComposite {
			+__init__(self, title=None)
			+__repr__(self)
			+add(self, normalizer)
			+normalize(cls, text)
		}
		class benchmarkstt.normalization.core.Lowercase {
			+__repr__(self)
			+normalize(cls, text)
		}
		class benchmarkstt.normalization.core.Regex {
			+__init__(self, search: str, replace: str)
			+__repr__(self)
			+normalize(cls, text)
		}
		class benchmarkstt.normalization.core.Replace {
			+__init__(self, search: str, replace: str)
			+__repr__(self)
			+normalize(cls, text)
		}
		class benchmarkstt.normalization.core.ReplaceWords {
			+__init__(self, search: str, replace: str)
			+__repr__(self)
			+normalize(cls, text)
		}
		class benchmarkstt.normalization.core.Unidecode {
			+__repr__(self)
			+normalize(cls, text)
		}
		class benchmarkstt.input.Base {
			+__iter__(self)
		}
		class benchmarkstt.input.core.File {
			+__init__(self, file, input_type=None, normalizer=None)
			+__iter__(self)
		}
		class benchmarkstt.segmentation.Base {
			+__iter__(self)
		}
		class benchmarkstt.segmentation.core.Simple {
			+__init__(self, text: str, pattern='[\\n\\t\\s]+', normalizer=None)
			+__iter__(self)
		}
		class benchmarkstt.output.Base {
			+__enter__(self)
			+__exit__(self, exc_type, exc_val, exc_tb)
			+result(self, title, result)
		}
		class benchmarkstt.output.core.Json {
			+__enter__(self)
			+__exit__(self, exc_type, exc_val, exc_tb)
			+__init__(self)
			+result(self, title, result)
		}
		class benchmarkstt.output.core.MarkDown {
			+__enter__(self)
			+__exit__(self, exc_type, exc_val, exc_tb)
			+print(self, result)
			+result(self, title, result)
		}
		class benchmarkstt.output.core.ReStructuredText {
			+__enter__(self)
			+__exit__(self, exc_type, exc_val, exc_tb)
			+print(self, result)
			+result(self, title, result)
		}
		class benchmarkstt.output.core.SimpleTextBase {
			+__enter__(self)
			+__exit__(self, exc_type, exc_val, exc_tb)
			+print(self, result)
			+result(self, title, result)
		}
		class benchmarkstt.diff.Base {
			+__init__(self, a='', b='')
			+get_opcodes(self)
		}

benchmarkstt.normalization.core.Config - -up- -|> benchmarkstt.normalization.Base
benchmarkstt.input.core.PlainText - -up- -|> benchmarkstt.input.Base
benchmarkstt.metrics.core.DiffCounts - -up- -|> benchmarkstt.metrics.Base
benchmarkstt.diff.core.RatcliffObershelp - -up- -|> benchmarkstt.diff.Base
benchmarkstt.metrics.core.WER - -up- -|> benchmarkstt.metrics.Base
benchmarkstt.metrics.core.WordDiffs - -up- -|> benchmarkstt.metrics.Base
benchmarkstt.normalization.BaseWithFileSupport - -up- -|> benchmarkstt.normalization.Base
benchmarkstt.normalization.File - -up- -|> benchmarkstt.normalization.Base
benchmarkstt.normalization.NormalizationComposite - -up- -|> benchmarkstt.normalization.Base
benchmarkstt.normalization.core.Lowercase - -up- -|> benchmarkstt.normalization.Base
benchmarkstt.normalization.core.Regex - -up- -|> benchmarkstt.normalization.BaseWithFileSupport
benchmarkstt.normalization.core.Replace - -up- -|> benchmarkstt.normalization.BaseWithFileSupport
benchmarkstt.normalization.core.ReplaceWords - -up- -|> benchmarkstt.normalization.BaseWithFileSupport
benchmarkstt.normalization.core.Unidecode - -up- -|> benchmarkstt.normalization.Base
benchmarkstt.input.core.File - -up- -|> benchmarkstt.input.Base
benchmarkstt.segmentation.core.Simple - -up- -|> benchmarkstt.segmentation.Base
benchmarkstt.output.core.Json - -up- -|> benchmarkstt.output.Base
benchmarkstt.output.core.MarkDown - -up- -|> benchmarkstt.output.core.SimpleTextBase
benchmarkstt.output.core.ReStructuredText - -up- -|> benchmarkstt.output.core.SimpleTextBase
benchmarkstt.output.core.SimpleTextBase - -up- -|> benchmarkstt.output.Base
@enduml

PlantUML version 1.2020.16beta7(Unknown compile time)
(GPL source distribution)
Java Runtime: Java(TM) SE Runtime Environment
JVM: Java HotSpot(TM) 64-Bit Server VM
Default Encoding: UTF-8
Language: en
Country: US
--></g></svg>