<?xml version="1.0" encoding="UTF-8" standalone="no"?><svg xmlns="http://www.w3.org/2000/svg" xmlns:xlink="http://www.w3.org/1999/xlink" contentScriptType="application/ecmascript" contentStyleType="text/css" height="910px" preserveAspectRatio="none" style="width:1438px;height:910px;" version="1.1" viewBox="0 0 1438 910" width="1438px" zoomAndPan="magnify"><defs><filter height="300%" id="f1xor4ib23hpsv" width="300%" x="-1" y="-1"><feGaussianBlur result="blurOut" stdDeviation="2.0"/><feColorMatrix in="blurOut" result="blurOut2" type="matrix" values="0 0 0 0 0 0 0 0 0 0 0 0 0 0 0 0 0 0 .4 0"/><feOffset dx="4.0" dy="4.0" in="blurOut2" result="blurOut3"/><feBlend in="SourceGraphic" in2="blurOut3" mode="normal"/></filter></defs><g><text fill="#000000" font-family="sans-serif" font-size="18" lengthAdjust="spacingAndGlyphs" textLength="32" x="694" y="17.4023">Diff</text><!--MD5=[09ed425bc4f616bbad3d6f8b00541a65]
cluster benchmarkstt.diff.core--><polygon fill="#FFFFFF" filter="url(#f1xor4ib23hpsv)" points="16,309.1992,183,309.1992,190,331.6875,298,331.6875,298,551.1992,16,551.1992,16,309.1992" style="stroke: #000000; stroke-width: 1.5;"/><line style="stroke: #000000; stroke-width: 1.5;" x1="16" x2="190" y1="331.6875" y2="331.6875"/><text fill="#000000" font-family="sans-serif" font-size="14" font-weight="bold" lengthAdjust="spacingAndGlyphs" textLength="161" x="20" y="324.7344">benchmarkstt.diff.core</text><!--MD5=[72b54bae2fb354191b48b6bdd2cdddb6]
cluster benchmarkstt.diff.formatter--><polygon fill="#FFFFFF" filter="url(#f1xor4ib23hpsv)" points="322,27.1992,528,27.1992,535,49.6875,1416,49.6875,1416,898.1992,322,898.1992,322,27.1992" style="stroke: #000000; stroke-width: 1.5;"/><line style="stroke: #000000; stroke-width: 1.5;" x1="322" x2="535" y1="49.6875" y2="49.6875"/><text fill="#000000" font-family="sans-serif" font-size="14" font-weight="bold" lengthAdjust="spacingAndGlyphs" textLength="200" x="326" y="42.7344">benchmarkstt.diff.formatter</text><!--MD5=[b21609c0e4e09564ea14466d1d899cfe]
cluster benchmarkstt.diff--><polygon fill="#FFFFFF" filter="url(#f1xor4ib23hpsv)" points="66,40.1992,200,40.1992,207,62.6875,248,62.6875,248,165.1992,66,165.1992,66,40.1992" style="stroke: #000000; stroke-width: 1.5;"/><line style="stroke: #000000; stroke-width: 1.5;" x1="66" x2="207" y1="62.6875" y2="62.6875"/><text fill="#000000" font-family="sans-serif" font-size="14" font-weight="bold" lengthAdjust="spacingAndGlyphs" textLength="128" x="70" y="55.7344">benchmarkstt.diff</text><!--MD5=[5eef32e9538f5dcdb68c61d368837619]
class benchmarkstt.diff.core.RatcliffObershelp--><a href="https://benchmarkstt.readthedocs.io/en/latest/modules/benchmarkstt.diff.html#benchmarkstt.diff.core.RatcliffObershelp" target="_top" title="https://benchmarkstt.readthedocs.io/en/latest/modules/benchmarkstt.diff.html#benchmarkstt.diff.core.RatcliffObershelp" xlink:actuate="onRequest" xlink:href="https://benchmarkstt.readthedocs.io/en/latest/modules/benchmarkstt.diff.html#benchmarkstt.diff.core.RatcliffObershelp" xlink:show="new" xlink:title="https://benchmarkstt.readthedocs.io/en/latest/modules/benchmarkstt.diff.html#benchmarkstt.diff.core.RatcliffObershelp" xlink:type="simple"><rect fill="#FEFECE" filter="url(#f1xor4ib23hpsv)" height="190.5059" id="benchmarkstt.diff.core.RatcliffObershelp" style="stroke: #A80036; stroke-width: 1.5;" width="249" x="32.5" y="344.1992"/><ellipse cx="103.25" cy="360.1992" fill="#ADD1B2" rx="11" ry="11" style="stroke: #A80036; stroke-width: 1.0;"/><path d="M105.7231,366.3423 Q105.1421,366.6411 104.5029,366.7905 Q103.8638,366.9399 103.1582,366.9399 Q100.6514,366.9399 99.3315,365.2881 Q98.0117,363.6362 98.0117,360.5151 Q98.0117,357.3857 99.3315,355.7339 Q100.6514,354.082 103.1582,354.082 Q103.8638,354.082 104.5112,354.2314 Q105.1587,354.3809 105.7231,354.6797 L105.7231,357.4023 Q105.0923,356.8213 104.4988,356.5515 Q103.9053,356.2817 103.2744,356.2817 Q101.9297,356.2817 101.2449,357.3484 Q100.5601,358.415 100.5601,360.5151 Q100.5601,362.6069 101.2449,363.6736 Q101.9297,364.7402 103.2744,364.7402 Q103.9053,364.7402 104.4988,364.4705 Q105.0923,364.2007 105.7231,363.6196 Z "/><text fill="#000000" font-family="sans-serif" font-size="12" lengthAdjust="spacingAndGlyphs" textLength="99" x="123.75" y="364.7344">RatcliffObershelp</text><line style="stroke: #A80036; stroke-width: 1.5;" x1="33.5" x2="280.5" y1="376.1992" y2="376.1992"/><line style="stroke: #A80036; stroke-width: 1.5;" x1="33.5" x2="280.5" y1="384.1992" y2="384.1992"/><ellipse cx="43.5" cy="395.1992" fill="#84BE84" rx="3" ry="3" style="stroke: #038048; stroke-width: 1.0;"/><text fill="#000000" font-family="sans-serif" font-size="11" lengthAdjust="spacingAndGlyphs" textLength="182" x="52.5" y="398.834">__init__(self, a, b, *args, **kwargs)</text><ellipse cx="43.5" cy="408.1543" fill="#84BE84" rx="3" ry="3" style="stroke: #038048; stroke-width: 1.0;"/><text fill="#000000" font-family="sans-serif" font-size="11" lengthAdjust="spacingAndGlyphs" textLength="223" x="52.5" y="411.7891">find_longest_match(self, alo, ahi, blo, bhi)</text><ellipse cx="43.5" cy="421.1094" fill="#84BE84" rx="3" ry="3" style="stroke: #038048; stroke-width: 1.0;"/><text fill="#000000" font-family="sans-serif" font-size="11" lengthAdjust="spacingAndGlyphs" textLength="177" x="52.5" y="424.7441">get_grouped_opcodes(self, n=3)</text><ellipse cx="43.5" cy="434.0645" fill="#84BE84" rx="3" ry="3" style="stroke: #038048; stroke-width: 1.0;"/><text fill="#000000" font-family="sans-serif" font-size="11" lengthAdjust="spacingAndGlyphs" textLength="141" x="52.5" y="437.6992">get_matching_blocks(self)</text><ellipse cx="43.5" cy="447.0195" fill="#84BE84" rx="3" ry="3" style="stroke: #038048; stroke-width: 1.0;"/><text fill="#000000" font-family="sans-serif" font-size="11" lengthAdjust="spacingAndGlyphs" textLength="96" x="52.5" y="450.6543">get_opcodes(self)</text><ellipse cx="43.5" cy="459.9746" fill="#84BE84" rx="3" ry="3" style="stroke: #038048; stroke-width: 1.0;"/><text fill="#000000" font-family="sans-serif" font-size="11" lengthAdjust="spacingAndGlyphs" textLength="87" x="52.5" y="463.6094">quick_ratio(self)</text><ellipse cx="43.5" cy="472.9297" fill="#84BE84" rx="3" ry="3" style="stroke: #038048; stroke-width: 1.0;"/><text fill="#000000" font-family="sans-serif" font-size="11" lengthAdjust="spacingAndGlyphs" textLength="52" x="52.5" y="476.5645">ratio(self)</text><ellipse cx="43.5" cy="485.8848" fill="#84BE84" rx="3" ry="3" style="stroke: #038048; stroke-width: 1.0;"/><text fill="#000000" font-family="sans-serif" font-size="11" lengthAdjust="spacingAndGlyphs" textLength="113" x="52.5" y="489.5195">real_quick_ratio(self)</text><ellipse cx="43.5" cy="498.8398" fill="#84BE84" rx="3" ry="3" style="stroke: #038048; stroke-width: 1.0;"/><text fill="#000000" font-family="sans-serif" font-size="11" lengthAdjust="spacingAndGlyphs" textLength="87" x="52.5" y="502.4746">set_seq1(self, a)</text><ellipse cx="43.5" cy="511.7949" fill="#84BE84" rx="3" ry="3" style="stroke: #038048; stroke-width: 1.0;"/><text fill="#000000" font-family="sans-serif" font-size="11" lengthAdjust="spacingAndGlyphs" textLength="88" x="52.5" y="515.4297">set_seq2(self, b)</text><ellipse cx="43.5" cy="524.75" fill="#84BE84" rx="3" ry="3" style="stroke: #038048; stroke-width: 1.0;"/><text fill="#000000" font-family="sans-serif" font-size="11" lengthAdjust="spacingAndGlyphs" textLength="99" x="52.5" y="528.3848">set_seqs(self, a, b)</text></a><!--MD5=[3c662193fe25a144b7239b40297cb0df]
class benchmarkstt.diff.formatter.CLIDiffDialect--><a href="https://benchmarkstt.readthedocs.io/en/latest/modules/benchmarkstt.diff.html#benchmarkstt.diff.formatter.CLIDiffDialect" target="_top" title="https://benchmarkstt.readthedocs.io/en/latest/modules/benchmarkstt.diff.html#benchmarkstt.diff.formatter.CLIDiffDialect" xlink:actuate="onRequest" xlink:href="https://benchmarkstt.readthedocs.io/en/latest/modules/benchmarkstt.diff.html#benchmarkstt.diff.formatter.CLIDiffDialect" xlink:show="new" xlink:title="https://benchmarkstt.readthedocs.io/en/latest/modules/benchmarkstt.diff.html#benchmarkstt.diff.formatter.CLIDiffDialect" xlink:type="simple"><rect fill="#FEFECE" filter="url(#f1xor4ib23hpsv)" height="112.7754" id="benchmarkstt.diff.formatter.CLIDiffDialect" style="stroke: #A80036; stroke-width: 1.5;" width="239" x="338.5" y="383.1992"/><ellipse cx="415.75" cy="399.1992" fill="#ADD1B2" rx="11" ry="11" style="stroke: #A80036; stroke-width: 1.0;"/><path d="M418.2231,405.3423 Q417.6421,405.6411 417.0029,405.7905 Q416.3638,405.9399 415.6582,405.9399 Q413.1514,405.9399 411.8315,404.2881 Q410.5117,402.6362 410.5117,399.5151 Q410.5117,396.3857 411.8315,394.7339 Q413.1514,393.082 415.6582,393.082 Q416.3638,393.082 417.0112,393.2314 Q417.6587,393.3809 418.2231,393.6797 L418.2231,396.4023 Q417.5923,395.8213 416.9988,395.5515 Q416.4053,395.2817 415.7744,395.2817 Q414.4297,395.2817 413.7449,396.3484 Q413.0601,397.415 413.0601,399.5151 Q413.0601,401.6069 413.7449,402.6736 Q414.4297,403.7402 415.7744,403.7402 Q416.4053,403.7402 416.9988,403.4705 Q417.5923,403.2007 418.2231,402.6196 Z "/><text fill="#000000" font-family="sans-serif" font-size="12" lengthAdjust="spacingAndGlyphs" textLength="76" x="436.25" y="403.7344">CLIDiffDialect</text><line style="stroke: #A80036; stroke-width: 1.5;" x1="339.5" x2="576.5" y1="415.1992" y2="415.1992"/><line style="stroke: #A80036; stroke-width: 1.5;" x1="339.5" x2="576.5" y1="423.1992" y2="423.1992"/><ellipse cx="349.5" cy="434.1992" fill="#84BE84" rx="3" ry="3" style="stroke: #038048; stroke-width: 1.0;"/><text fill="#000000" font-family="sans-serif" font-size="11" lengthAdjust="spacingAndGlyphs" textLength="79" x="358.5" y="437.834">__enter__(self)</text><ellipse cx="349.5" cy="447.1543" fill="#84BE84" rx="3" ry="3" style="stroke: #038048; stroke-width: 1.0;"/><text fill="#000000" font-family="sans-serif" font-size="11" lengthAdjust="spacingAndGlyphs" textLength="213" x="358.5" y="450.7891">__exit__(self, exc_type, exc_val, exc_tb)</text><ellipse cx="349.5" cy="460.1094" fill="#84BE84" rx="3" ry="3" style="stroke: #038048; stroke-width: 1.0;"/><text fill="#000000" font-family="sans-serif" font-size="11" lengthAdjust="spacingAndGlyphs" textLength="197" x="358.5" y="463.7441">__init__(self, show_color_key=None)</text><ellipse cx="349.5" cy="473.0645" fill="#84BE84" rx="3" ry="3" style="stroke: #038048; stroke-width: 1.0;"/><text fill="#000000" font-family="sans-serif" font-size="11" lengthAdjust="spacingAndGlyphs" textLength="63" x="358.5" y="476.6992">output(self)</text><ellipse cx="349.5" cy="486.0195" fill="#84BE84" rx="3" ry="3" style="stroke: #038048; stroke-width: 1.0;"/><text fill="#000000" font-family="sans-serif" font-size="11" lengthAdjust="spacingAndGlyphs" textLength="96" x="358.5" y="489.6543">preprocessor(txt)</text></a><!--MD5=[df29a61f45d19c4e6d0ce3d05bdaff27]
class benchmarkstt.diff.formatter.Dialect--><a href="https://benchmarkstt.readthedocs.io/en/latest/modules/benchmarkstt.diff.html#benchmarkstt.diff.formatter.Dialect" target="_top" title="https://benchmarkstt.readthedocs.io/en/latest/modules/benchmarkstt.diff.html#benchmarkstt.diff.formatter.Dialect" xlink:actuate="onRequest" xlink:href="https://benchmarkstt.readthedocs.io/en/latest/modules/benchmarkstt.diff.html#benchmarkstt.diff.formatter.Dialect" xlink:show="new" xlink:title="https://benchmarkstt.readthedocs.io/en/latest/modules/benchmarkstt.diff.html#benchmarkstt.diff.formatter.Dialect" xlink:type="simple"><rect fill="#FEFECE" filter="url(#f1xor4ib23hpsv)" height="99.8203" id="benchmarkstt.diff.formatter.Dialect" style="stroke: #A80036; stroke-width: 1.5;" width="239" x="833.5" y="62.1992"/><ellipse cx="929.25" cy="78.1992" fill="#ADD1B2" rx="11" ry="11" style="stroke: #A80036; stroke-width: 1.0;"/><path d="M931.7231,84.3423 Q931.1421,84.6411 930.5029,84.7905 Q929.8638,84.9399 929.1582,84.9399 Q926.6514,84.9399 925.3315,83.2881 Q924.0117,81.6362 924.0117,78.5151 Q924.0117,75.3857 925.3315,73.7339 Q926.6514,72.082 929.1582,72.082 Q929.8638,72.082 930.5112,72.2314 Q931.1587,72.3809 931.7231,72.6797 L931.7231,75.4023 Q931.0923,74.8213 930.4988,74.5515 Q929.9053,74.2817 929.2744,74.2817 Q927.9297,74.2817 927.2449,75.3484 Q926.5601,76.415 926.5601,78.5151 Q926.5601,80.6069 927.2449,81.6736 Q927.9297,82.7402 929.2744,82.7402 Q929.9053,82.7402 930.4988,82.4705 Q931.0923,82.2007 931.7231,81.6196 Z "/><text fill="#000000" font-family="sans-serif" font-size="12" lengthAdjust="spacingAndGlyphs" textLength="39" x="949.75" y="82.7344">Dialect</text><line style="stroke: #A80036; stroke-width: 1.5;" x1="834.5" x2="1071.5" y1="94.1992" y2="94.1992"/><line style="stroke: #A80036; stroke-width: 1.5;" x1="834.5" x2="1071.5" y1="102.1992" y2="102.1992"/><ellipse cx="844.5" cy="113.1992" fill="#84BE84" rx="3" ry="3" style="stroke: #038048; stroke-width: 1.0;"/><text fill="#000000" font-family="sans-serif" font-size="11" lengthAdjust="spacingAndGlyphs" textLength="79" x="853.5" y="116.834">__enter__(self)</text><ellipse cx="844.5" cy="126.1543" fill="#84BE84" rx="3" ry="3" style="stroke: #038048; stroke-width: 1.0;"/><text fill="#000000" font-family="sans-serif" font-size="11" lengthAdjust="spacingAndGlyphs" textLength="213" x="853.5" y="129.7891">__exit__(self, exc_type, exc_val, exc_tb)</text><ellipse cx="844.5" cy="139.1094" fill="#84BE84" rx="3" ry="3" style="stroke: #038048; stroke-width: 1.0;"/><text fill="#000000" font-family="sans-serif" font-size="11" lengthAdjust="spacingAndGlyphs" textLength="68" x="853.5" y="142.7441">__init__(self)</text><ellipse cx="844.5" cy="152.0645" fill="#84BE84" rx="3" ry="3" style="stroke: #038048; stroke-width: 1.0;"/><text fill="#000000" font-family="sans-serif" font-size="11" lengthAdjust="spacingAndGlyphs" textLength="63" x="853.5" y="155.6992">output(self)</text></a><!--MD5=[3cef3a3f66db63f58bdcdbc71fd62980]
class benchmarkstt.diff.formatter.DiffFormatter--><a href="https://benchmarkstt.readthedocs.io/en/latest/modules/benchmarkstt.diff.html#benchmarkstt.diff.formatter.DiffFormatter" target="_top" title="https://benchmarkstt.readthedocs.io/en/latest/modules/benchmarkstt.diff.html#benchmarkstt.diff.formatter.DiffFormatter" xlink:actuate="onRequest" xlink:href="https://benchmarkstt.readthedocs.io/en/latest/modules/benchmarkstt.diff.html#benchmarkstt.diff.formatter.DiffFormatter" xlink:show="new" xlink:title="https://benchmarkstt.readthedocs.io/en/latest/modules/benchmarkstt.diff.html#benchmarkstt.diff.formatter.DiffFormatter" xlink:type="simple"><rect fill="#FEFECE" filter="url(#f1xor4ib23hpsv)" height="73.9102" id="benchmarkstt.diff.formatter.DiffFormatter" style="stroke: #A80036; stroke-width: 1.5;" width="301" x="444.5" y="75.1992"/><ellipse cx="552.75" cy="91.1992" fill="#ADD1B2" rx="11" ry="11" style="stroke: #A80036; stroke-width: 1.0;"/><path d="M555.2231,97.3423 Q554.6421,97.6411 554.0029,97.7905 Q553.3638,97.9399 552.6582,97.9399 Q550.1514,97.9399 548.8315,96.2881 Q547.5117,94.6362 547.5117,91.5151 Q547.5117,88.3857 548.8315,86.7339 Q550.1514,85.082 552.6582,85.082 Q553.3638,85.082 554.0112,85.2314 Q554.6587,85.3809 555.2231,85.6797 L555.2231,88.4023 Q554.5923,87.8213 553.9988,87.5515 Q553.4053,87.2817 552.7744,87.2817 Q551.4297,87.2817 550.7449,88.3484 Q550.0601,89.415 550.0601,91.5151 Q550.0601,93.6069 550.7449,94.6736 Q551.4297,95.7402 552.7744,95.7402 Q553.4053,95.7402 553.9988,95.4705 Q554.5923,95.2007 555.2231,94.6196 Z "/><text fill="#000000" font-family="sans-serif" font-size="12" lengthAdjust="spacingAndGlyphs" textLength="76" x="573.25" y="95.7344">DiffFormatter</text><line style="stroke: #A80036; stroke-width: 1.5;" x1="445.5" x2="744.5" y1="107.1992" y2="107.1992"/><line style="stroke: #A80036; stroke-width: 1.5;" x1="445.5" x2="744.5" y1="115.1992" y2="115.1992"/><ellipse cx="455.5" cy="126.1992" fill="#84BE84" rx="3" ry="3" style="stroke: #038048; stroke-width: 1.0;"/><text fill="#000000" font-family="sans-serif" font-size="11" lengthAdjust="spacingAndGlyphs" textLength="235" x="464.5" y="129.834">__init__(self, dialect=None, *args, **kwargs)</text><ellipse cx="455.5" cy="139.1543" fill="#84BE84" rx="3" ry="3" style="stroke: #038048; stroke-width: 1.0;"/><text fill="#000000" font-family="sans-serif" font-size="11" lengthAdjust="spacingAndGlyphs" textLength="275" x="464.5" y="142.7891">diff(self, a, b, opcodes=None, preprocessor=None)</text></a><!--MD5=[13567ef2ba7a355d45cc98cb3acfd770]
class benchmarkstt.diff.formatter.HTMLDiffDialect--><a href="https://benchmarkstt.readthedocs.io/en/latest/modules/benchmarkstt.diff.html#benchmarkstt.diff.formatter.HTMLDiffDialect" target="_top" title="https://benchmarkstt.readthedocs.io/en/latest/modules/benchmarkstt.diff.html#benchmarkstt.diff.formatter.HTMLDiffDialect" xlink:actuate="onRequest" xlink:href="https://benchmarkstt.readthedocs.io/en/latest/modules/benchmarkstt.diff.html#benchmarkstt.diff.formatter.HTMLDiffDialect" xlink:show="new" xlink:title="https://benchmarkstt.readthedocs.io/en/latest/modules/benchmarkstt.diff.html#benchmarkstt.diff.formatter.HTMLDiffDialect" xlink:type="simple"><rect fill="#FEFECE" filter="url(#f1xor4ib23hpsv)" height="112.7754" id="benchmarkstt.diff.formatter.HTMLDiffDialect" style="stroke: #A80036; stroke-width: 1.5;" width="239" x="886.5" y="383.1992"/><ellipse cx="955.75" cy="399.1992" fill="#ADD1B2" rx="11" ry="11" style="stroke: #A80036; stroke-width: 1.0;"/><path d="M958.2231,405.3423 Q957.6421,405.6411 957.0029,405.7905 Q956.3638,405.9399 955.6582,405.9399 Q953.1514,405.9399 951.8315,404.2881 Q950.5117,402.6362 950.5117,399.5151 Q950.5117,396.3857 951.8315,394.7339 Q953.1514,393.082 955.6582,393.082 Q956.3638,393.082 957.0112,393.2314 Q957.6587,393.3809 958.2231,393.6797 L958.2231,396.4023 Q957.5923,395.8213 956.9988,395.5515 Q956.4053,395.2817 955.7744,395.2817 Q954.4297,395.2817 953.7449,396.3484 Q953.0601,397.415 953.0601,399.5151 Q953.0601,401.6069 953.7449,402.6736 Q954.4297,403.7402 955.7744,403.7402 Q956.4053,403.7402 956.9988,403.4705 Q957.5923,403.2007 958.2231,402.6196 Z "/><text fill="#000000" font-family="sans-serif" font-size="12" lengthAdjust="spacingAndGlyphs" textLength="92" x="976.25" y="403.7344">HTMLDiffDialect</text><line style="stroke: #A80036; stroke-width: 1.5;" x1="887.5" x2="1124.5" y1="415.1992" y2="415.1992"/><line style="stroke: #A80036; stroke-width: 1.5;" x1="887.5" x2="1124.5" y1="423.1992" y2="423.1992"/><ellipse cx="897.5" cy="434.1992" fill="#84BE84" rx="3" ry="3" style="stroke: #038048; stroke-width: 1.0;"/><text fill="#000000" font-family="sans-serif" font-size="11" lengthAdjust="spacingAndGlyphs" textLength="79" x="906.5" y="437.834">__enter__(self)</text><ellipse cx="897.5" cy="447.1543" fill="#84BE84" rx="3" ry="3" style="stroke: #038048; stroke-width: 1.0;"/><text fill="#000000" font-family="sans-serif" font-size="11" lengthAdjust="spacingAndGlyphs" textLength="213" x="906.5" y="450.7891">__exit__(self, exc_type, exc_val, exc_tb)</text><ellipse cx="897.5" cy="460.1094" fill="#84BE84" rx="3" ry="3" style="stroke: #038048; stroke-width: 1.0;"/><text fill="#000000" font-family="sans-serif" font-size="11" lengthAdjust="spacingAndGlyphs" textLength="68" x="906.5" y="463.7441">__init__(self)</text><ellipse cx="897.5" cy="473.0645" fill="#84BE84" rx="3" ry="3" style="stroke: #038048; stroke-width: 1.0;"/><text fill="#000000" font-family="sans-serif" font-size="11" lengthAdjust="spacingAndGlyphs" textLength="63" x="906.5" y="476.6992">output(self)</text><ellipse cx="897.5" cy="486.0195" fill="#84BE84" rx="3" ry="3" style="stroke: #038048; stroke-width: 1.0;"/><text fill="#000000" font-family="sans-serif" font-size="11" lengthAdjust="spacingAndGlyphs" textLength="96" x="906.5" y="489.6543">preprocessor(txt)</text></a><!--MD5=[ad5da66f3bbb9ef0c526548f556f562e]
class benchmarkstt.diff.formatter.JSONDiffDialect--><a href="https://benchmarkstt.readthedocs.io/en/latest/modules/benchmarkstt.diff.html#benchmarkstt.diff.formatter.JSONDiffDialect" target="_top" title="https://benchmarkstt.readthedocs.io/en/latest/modules/benchmarkstt.diff.html#benchmarkstt.diff.formatter.JSONDiffDialect" xlink:actuate="onRequest" xlink:href="https://benchmarkstt.readthedocs.io/en/latest/modules/benchmarkstt.diff.html#benchmarkstt.diff.formatter.JSONDiffDialect" xlink:show="new" xlink:title="https://benchmarkstt.readthedocs.io/en/latest/modules/benchmarkstt.diff.html#benchmarkstt.diff.formatter.JSONDiffDialect" xlink:type="simple"><rect fill="#FEFECE" filter="url(#f1xor4ib23hpsv)" height="164.5957" id="benchmarkstt.diff.formatter.JSONDiffDialect" style="stroke: #A80036; stroke-width: 1.5;" width="239" x="612.5" y="717.1992"/><ellipse cx="684.25" cy="733.1992" fill="#ADD1B2" rx="11" ry="11" style="stroke: #A80036; stroke-width: 1.0;"/><path d="M686.7231,739.3423 Q686.1421,739.6411 685.5029,739.7905 Q684.8638,739.9399 684.1582,739.9399 Q681.6514,739.9399 680.3315,738.2881 Q679.0117,736.6362 679.0117,733.5151 Q679.0117,730.3857 680.3315,728.7339 Q681.6514,727.082 684.1582,727.082 Q684.8638,727.082 685.5112,727.2314 Q686.1587,727.3809 686.7231,727.6797 L686.7231,730.4023 Q686.0923,729.8213 685.4988,729.5515 Q684.9053,729.2817 684.2744,729.2817 Q682.9297,729.2817 682.2449,730.3484 Q681.5601,731.415 681.5601,733.5151 Q681.5601,735.6069 682.2449,736.6736 Q682.9297,737.7402 684.2744,737.7402 Q684.9053,737.7402 685.4988,737.4705 Q686.0923,737.2007 686.7231,736.6196 Z "/><text fill="#000000" font-family="sans-serif" font-size="12" lengthAdjust="spacingAndGlyphs" textLength="87" x="704.75" y="737.7344">JSONDiffDialect</text><line style="stroke: #A80036; stroke-width: 1.5;" x1="613.5" x2="850.5" y1="749.1992" y2="749.1992"/><line style="stroke: #A80036; stroke-width: 1.5;" x1="613.5" x2="850.5" y1="757.1992" y2="757.1992"/><ellipse cx="623.5" cy="768.1992" fill="#84BE84" rx="3" ry="3" style="stroke: #038048; stroke-width: 1.0;"/><text fill="#000000" font-family="sans-serif" font-size="11" lengthAdjust="spacingAndGlyphs" textLength="79" x="632.5" y="771.834">__enter__(self)</text><ellipse cx="623.5" cy="781.1543" fill="#84BE84" rx="3" ry="3" style="stroke: #038048; stroke-width: 1.0;"/><text fill="#000000" font-family="sans-serif" font-size="11" lengthAdjust="spacingAndGlyphs" textLength="213" x="632.5" y="784.7891">__exit__(self, exc_type, exc_val, exc_tb)</text><ellipse cx="623.5" cy="794.1094" fill="#84BE84" rx="3" ry="3" style="stroke: #038048; stroke-width: 1.0;"/><text fill="#000000" font-family="sans-serif" font-size="11" lengthAdjust="spacingAndGlyphs" textLength="68" x="632.5" y="797.7441">__init__(self)</text><ellipse cx="623.5" cy="807.0645" fill="#84BE84" rx="3" ry="3" style="stroke: #038048; stroke-width: 1.0;"/><text fill="#000000" font-family="sans-serif" font-size="11" lengthAdjust="spacingAndGlyphs" textLength="122" x="632.5" y="810.6992">delete_format(self, txt)</text><ellipse cx="623.5" cy="820.0195" fill="#84BE84" rx="3" ry="3" style="stroke: #038048; stroke-width: 1.0;"/><text fill="#000000" font-family="sans-serif" font-size="11" lengthAdjust="spacingAndGlyphs" textLength="119" x="632.5" y="823.6543">equal_format(self, txt)</text><ellipse cx="623.5" cy="832.9746" fill="#84BE84" rx="3" ry="3" style="stroke: #038048; stroke-width: 1.0;"/><text fill="#000000" font-family="sans-serif" font-size="11" lengthAdjust="spacingAndGlyphs" textLength="121" x="632.5" y="836.6094">insert_format(self, txt)</text><ellipse cx="623.5" cy="845.9297" fill="#84BE84" rx="3" ry="3" style="stroke: #038048; stroke-width: 1.0;"/><text fill="#000000" font-family="sans-serif" font-size="11" lengthAdjust="spacingAndGlyphs" textLength="63" x="632.5" y="849.5645">output(self)</text><ellipse cx="623.5" cy="858.8848" fill="#84BE84" rx="3" ry="3" style="stroke: #038048; stroke-width: 1.0;"/><text fill="#000000" font-family="sans-serif" font-size="11" lengthAdjust="spacingAndGlyphs" textLength="96" x="632.5" y="862.5195">preprocessor(txt)</text><ellipse cx="623.5" cy="871.8398" fill="#84BE84" rx="3" ry="3" style="stroke: #038048; stroke-width: 1.0;"/><text fill="#000000" font-family="sans-serif" font-size="11" lengthAdjust="spacingAndGlyphs" textLength="133" x="632.5" y="875.4746">replace_format(self, a, b)</text></a><!--MD5=[6cf5df66c86567a6b2395a7b84882531]
class benchmarkstt.diff.formatter.ListDialect--><a href="https://benchmarkstt.readthedocs.io/en/latest/modules/benchmarkstt.diff.html#benchmarkstt.diff.formatter.ListDialect" target="_top" title="https://benchmarkstt.readthedocs.io/en/latest/modules/benchmarkstt.diff.html#benchmarkstt.diff.formatter.ListDialect" xlink:actuate="onRequest" xlink:href="https://benchmarkstt.readthedocs.io/en/latest/modules/benchmarkstt.diff.html#benchmarkstt.diff.formatter.ListDialect" xlink:show="new" xlink:title="https://benchmarkstt.readthedocs.io/en/latest/modules/benchmarkstt.diff.html#benchmarkstt.diff.formatter.ListDialect" xlink:type="simple"><rect fill="#FEFECE" filter="url(#f1xor4ib23hpsv)" height="164.5957" id="benchmarkstt.diff.formatter.ListDialect" style="stroke: #A80036; stroke-width: 1.5;" width="239" x="612.5" y="357.1992"/><ellipse cx="698.75" cy="373.1992" fill="#ADD1B2" rx="11" ry="11" style="stroke: #A80036; stroke-width: 1.0;"/><path d="M701.2231,379.3423 Q700.6421,379.6411 700.0029,379.7905 Q699.3638,379.9399 698.6582,379.9399 Q696.1514,379.9399 694.8315,378.2881 Q693.5117,376.6362 693.5117,373.5151 Q693.5117,370.3857 694.8315,368.7339 Q696.1514,367.082 698.6582,367.082 Q699.3638,367.082 700.0112,367.2314 Q700.6587,367.3809 701.2231,367.6797 L701.2231,370.4023 Q700.5923,369.8213 699.9988,369.5515 Q699.4053,369.2817 698.7744,369.2817 Q697.4297,369.2817 696.7449,370.3484 Q696.0601,371.415 696.0601,373.5151 Q696.0601,375.6069 696.7449,376.6736 Q697.4297,377.7402 698.7744,377.7402 Q699.4053,377.7402 699.9988,377.4705 Q700.5923,377.2007 701.2231,376.6196 Z "/><text fill="#000000" font-family="sans-serif" font-size="12" lengthAdjust="spacingAndGlyphs" textLength="58" x="719.25" y="377.7344">ListDialect</text><line style="stroke: #A80036; stroke-width: 1.5;" x1="613.5" x2="850.5" y1="389.1992" y2="389.1992"/><line style="stroke: #A80036; stroke-width: 1.5;" x1="613.5" x2="850.5" y1="397.1992" y2="397.1992"/><ellipse cx="623.5" cy="408.1992" fill="#84BE84" rx="3" ry="3" style="stroke: #038048; stroke-width: 1.0;"/><text fill="#000000" font-family="sans-serif" font-size="11" lengthAdjust="spacingAndGlyphs" textLength="79" x="632.5" y="411.834">__enter__(self)</text><ellipse cx="623.5" cy="421.1543" fill="#84BE84" rx="3" ry="3" style="stroke: #038048; stroke-width: 1.0;"/><text fill="#000000" font-family="sans-serif" font-size="11" lengthAdjust="spacingAndGlyphs" textLength="213" x="632.5" y="424.7891">__exit__(self, exc_type, exc_val, exc_tb)</text><ellipse cx="623.5" cy="434.1094" fill="#84BE84" rx="3" ry="3" style="stroke: #038048; stroke-width: 1.0;"/><text fill="#000000" font-family="sans-serif" font-size="11" lengthAdjust="spacingAndGlyphs" textLength="68" x="632.5" y="437.7441">__init__(self)</text><ellipse cx="623.5" cy="447.0645" fill="#84BE84" rx="3" ry="3" style="stroke: #038048; stroke-width: 1.0;"/><text fill="#000000" font-family="sans-serif" font-size="11" lengthAdjust="spacingAndGlyphs" textLength="122" x="632.5" y="450.6992">delete_format(self, txt)</text><ellipse cx="623.5" cy="460.0195" fill="#84BE84" rx="3" ry="3" style="stroke: #038048; stroke-width: 1.0;"/><text fill="#000000" font-family="sans-serif" font-size="11" lengthAdjust="spacingAndGlyphs" textLength="119" x="632.5" y="463.6543">equal_format(self, txt)</text><ellipse cx="623.5" cy="472.9746" fill="#84BE84" rx="3" ry="3" style="stroke: #038048; stroke-width: 1.0;"/><text fill="#000000" font-family="sans-serif" font-size="11" lengthAdjust="spacingAndGlyphs" textLength="121" x="632.5" y="476.6094">insert_format(self, txt)</text><ellipse cx="623.5" cy="485.9297" fill="#84BE84" rx="3" ry="3" style="stroke: #038048; stroke-width: 1.0;"/><text fill="#000000" font-family="sans-serif" font-size="11" lengthAdjust="spacingAndGlyphs" textLength="63" x="632.5" y="489.5645">output(self)</text><ellipse cx="623.5" cy="498.8848" fill="#84BE84" rx="3" ry="3" style="stroke: #038048; stroke-width: 1.0;"/><text fill="#000000" font-family="sans-serif" font-size="11" lengthAdjust="spacingAndGlyphs" textLength="96" x="632.5" y="502.5195">preprocessor(txt)</text><ellipse cx="623.5" cy="511.8398" fill="#84BE84" rx="3" ry="3" style="stroke: #038048; stroke-width: 1.0;"/><text fill="#000000" font-family="sans-serif" font-size="11" lengthAdjust="spacingAndGlyphs" textLength="133" x="632.5" y="515.4746">replace_format(self, a, b)</text></a><!--MD5=[b5a1150753ccdd8cb32cc363de6d4f06]
class benchmarkstt.diff.formatter.RestructuredTextDialect--><a href="https://benchmarkstt.readthedocs.io/en/latest/modules/benchmarkstt.diff.html#benchmarkstt.diff.formatter.RestructuredTextDialect" target="_top" title="https://benchmarkstt.readthedocs.io/en/latest/modules/benchmarkstt.diff.html#benchmarkstt.diff.formatter.RestructuredTextDialect" xlink:actuate="onRequest" xlink:href="https://benchmarkstt.readthedocs.io/en/latest/modules/benchmarkstt.diff.html#benchmarkstt.diff.formatter.RestructuredTextDialect" xlink:show="new" xlink:title="https://benchmarkstt.readthedocs.io/en/latest/modules/benchmarkstt.diff.html#benchmarkstt.diff.formatter.RestructuredTextDialect" xlink:type="simple"><rect fill="#FEFECE" filter="url(#f1xor4ib23hpsv)" height="112.7754" id="benchmarkstt.diff.formatter.RestructuredTextDialect" style="stroke: #A80036; stroke-width: 1.5;" width="239" x="338.5" y="743.1992"/><ellipse cx="384.25" cy="759.1992" fill="#ADD1B2" rx="11" ry="11" style="stroke: #A80036; stroke-width: 1.0;"/><path d="M386.7231,765.3423 Q386.1421,765.6411 385.5029,765.7905 Q384.8638,765.9399 384.1582,765.9399 Q381.6514,765.9399 380.3315,764.2881 Q379.0117,762.6362 379.0117,759.5151 Q379.0117,756.3857 380.3315,754.7339 Q381.6514,753.082 384.1582,753.082 Q384.8638,753.082 385.5112,753.2314 Q386.1587,753.3809 386.7231,753.6797 L386.7231,756.4023 Q386.0923,755.8213 385.4988,755.5515 Q384.9053,755.2817 384.2744,755.2817 Q382.9297,755.2817 382.2449,756.3484 Q381.5601,757.415 381.5601,759.5151 Q381.5601,761.6069 382.2449,762.6736 Q382.9297,763.7402 384.2744,763.7402 Q384.9053,763.7402 385.4988,763.4705 Q386.0923,763.2007 386.7231,762.6196 Z "/><text fill="#000000" font-family="sans-serif" font-size="12" lengthAdjust="spacingAndGlyphs" textLength="139" x="404.75" y="763.7344">RestructuredTextDialect</text><line style="stroke: #A80036; stroke-width: 1.5;" x1="339.5" x2="576.5" y1="775.1992" y2="775.1992"/><line style="stroke: #A80036; stroke-width: 1.5;" x1="339.5" x2="576.5" y1="783.1992" y2="783.1992"/><ellipse cx="349.5" cy="794.1992" fill="#84BE84" rx="3" ry="3" style="stroke: #038048; stroke-width: 1.0;"/><text fill="#000000" font-family="sans-serif" font-size="11" lengthAdjust="spacingAndGlyphs" textLength="79" x="358.5" y="797.834">__enter__(self)</text><ellipse cx="349.5" cy="807.1543" fill="#84BE84" rx="3" ry="3" style="stroke: #038048; stroke-width: 1.0;"/><text fill="#000000" font-family="sans-serif" font-size="11" lengthAdjust="spacingAndGlyphs" textLength="213" x="358.5" y="810.7891">__exit__(self, exc_type, exc_val, exc_tb)</text><ellipse cx="349.5" cy="820.1094" fill="#84BE84" rx="3" ry="3" style="stroke: #038048; stroke-width: 1.0;"/><text fill="#000000" font-family="sans-serif" font-size="11" lengthAdjust="spacingAndGlyphs" textLength="197" x="358.5" y="823.7441">__init__(self, show_color_key=None)</text><ellipse cx="349.5" cy="833.0645" fill="#84BE84" rx="3" ry="3" style="stroke: #038048; stroke-width: 1.0;"/><text fill="#000000" font-family="sans-serif" font-size="11" lengthAdjust="spacingAndGlyphs" textLength="63" x="358.5" y="836.6992">output(self)</text><ellipse cx="349.5" cy="846.0195" fill="#84BE84" rx="3" ry="3" style="stroke: #038048; stroke-width: 1.0;"/><text fill="#000000" font-family="sans-serif" font-size="11" lengthAdjust="spacingAndGlyphs" textLength="96" x="358.5" y="849.6543">preprocessor(txt)</text></a><!--MD5=[e0d2253a58427e0d1251f683d337a24a]
class benchmarkstt.diff.formatter.UTF8Dialect--><a href="https://benchmarkstt.readthedocs.io/en/latest/modules/benchmarkstt.diff.html#benchmarkstt.diff.formatter.UTF8Dialect" target="_top" title="https://benchmarkstt.readthedocs.io/en/latest/modules/benchmarkstt.diff.html#benchmarkstt.diff.formatter.UTF8Dialect" xlink:actuate="onRequest" xlink:href="https://benchmarkstt.readthedocs.io/en/latest/modules/benchmarkstt.diff.html#benchmarkstt.diff.formatter.UTF8Dialect" xlink:show="new" xlink:title="https://benchmarkstt.readthedocs.io/en/latest/modules/benchmarkstt.diff.html#benchmarkstt.diff.formatter.UTF8Dialect" xlink:type="simple"><rect fill="#FEFECE" filter="url(#f1xor4ib23hpsv)" height="138.6855" id="benchmarkstt.diff.formatter.UTF8Dialect" style="stroke: #A80036; stroke-width: 1.5;" width="239" x="1160.5" y="370.1992"/><ellipse cx="1241.25" cy="386.1992" fill="#ADD1B2" rx="11" ry="11" style="stroke: #A80036; stroke-width: 1.0;"/><path d="M1243.7231,392.3423 Q1243.1421,392.6411 1242.5029,392.7905 Q1241.8638,392.9399 1241.1582,392.9399 Q1238.6514,392.9399 1237.3315,391.2881 Q1236.0117,389.6362 1236.0117,386.5151 Q1236.0117,383.3857 1237.3315,381.7339 Q1238.6514,380.082 1241.1582,380.082 Q1241.8638,380.082 1242.5112,380.2314 Q1243.1587,380.3809 1243.7231,380.6797 L1243.7231,383.4023 Q1243.0923,382.8213 1242.4988,382.5515 Q1241.9053,382.2817 1241.2744,382.2817 Q1239.9297,382.2817 1239.2449,383.3484 Q1238.5601,384.415 1238.5601,386.5151 Q1238.5601,388.6069 1239.2449,389.6736 Q1239.9297,390.7402 1241.2744,390.7402 Q1241.9053,390.7402 1242.4988,390.4705 Q1243.0923,390.2007 1243.7231,389.6196 Z "/><text fill="#000000" font-family="sans-serif" font-size="12" lengthAdjust="spacingAndGlyphs" textLength="69" x="1261.75" y="390.7344">UTF8Dialect</text><line style="stroke: #A80036; stroke-width: 1.5;" x1="1161.5" x2="1398.5" y1="402.1992" y2="402.1992"/><line style="stroke: #A80036; stroke-width: 1.5;" x1="1161.5" x2="1398.5" y1="410.1992" y2="410.1992"/><ellipse cx="1171.5" cy="421.1992" fill="#84BE84" rx="3" ry="3" style="stroke: #038048; stroke-width: 1.0;"/><text fill="#000000" font-family="sans-serif" font-size="11" lengthAdjust="spacingAndGlyphs" textLength="79" x="1180.5" y="424.834">__enter__(self)</text><ellipse cx="1171.5" cy="434.1543" fill="#84BE84" rx="3" ry="3" style="stroke: #038048; stroke-width: 1.0;"/><text fill="#000000" font-family="sans-serif" font-size="11" lengthAdjust="spacingAndGlyphs" textLength="213" x="1180.5" y="437.7891">__exit__(self, exc_type, exc_val, exc_tb)</text><ellipse cx="1171.5" cy="447.1094" fill="#84BE84" rx="3" ry="3" style="stroke: #038048; stroke-width: 1.0;"/><text fill="#000000" font-family="sans-serif" font-size="11" lengthAdjust="spacingAndGlyphs" textLength="68" x="1180.5" y="450.7441">__init__(self)</text><ellipse cx="1171.5" cy="460.0645" fill="#84BE84" rx="3" ry="3" style="stroke: #038048; stroke-width: 1.0;"/><text fill="#000000" font-family="sans-serif" font-size="11" lengthAdjust="spacingAndGlyphs" textLength="122" x="1180.5" y="463.6992">delete_format(self, txt)</text><ellipse cx="1171.5" cy="473.0195" fill="#84BE84" rx="3" ry="3" style="stroke: #038048; stroke-width: 1.0;"/><text fill="#000000" font-family="sans-serif" font-size="11" lengthAdjust="spacingAndGlyphs" textLength="121" x="1180.5" y="476.6543">insert_format(self, txt)</text><ellipse cx="1171.5" cy="485.9746" fill="#84BE84" rx="3" ry="3" style="stroke: #038048; stroke-width: 1.0;"/><text fill="#000000" font-family="sans-serif" font-size="11" lengthAdjust="spacingAndGlyphs" textLength="63" x="1180.5" y="489.6094">output(self)</text><ellipse cx="1171.5" cy="498.9297" fill="#84BE84" rx="3" ry="3" style="stroke: #038048; stroke-width: 1.0;"/><text fill="#000000" font-family="sans-serif" font-size="11" lengthAdjust="spacingAndGlyphs" textLength="96" x="1180.5" y="502.5645">preprocessor(txt)</text></a><!--MD5=[6aa6ae3a879840a73b19fd2777afca9b]
class benchmarkstt.diff.Base--><a href="https://benchmarkstt.readthedocs.io/en/latest/modules/benchmarkstt.diff.html#benchmarkstt.diff.Base" target="_top" title="https://benchmarkstt.readthedocs.io/en/latest/modules/benchmarkstt.diff.html#benchmarkstt.diff.Base" xlink:actuate="onRequest" xlink:href="https://benchmarkstt.readthedocs.io/en/latest/modules/benchmarkstt.diff.html#benchmarkstt.diff.Base" xlink:show="new" xlink:title="https://benchmarkstt.readthedocs.io/en/latest/modules/benchmarkstt.diff.html#benchmarkstt.diff.Base" xlink:type="simple"><rect fill="#FEFECE" filter="url(#f1xor4ib23hpsv)" height="73.9102" id="benchmarkstt.diff.Base" style="stroke: #A80036; stroke-width: 1.5;" width="149" x="82.5" y="75.1992"/><ellipse cx="139.25" cy="91.1992" fill="#ADD1B2" rx="11" ry="11" style="stroke: #A80036; stroke-width: 1.0;"/><path d="M141.7231,97.3423 Q141.1421,97.6411 140.5029,97.7905 Q139.8638,97.9399 139.1582,97.9399 Q136.6514,97.9399 135.3315,96.2881 Q134.0117,94.6362 134.0117,91.5151 Q134.0117,88.3857 135.3315,86.7339 Q136.6514,85.082 139.1582,85.082 Q139.8638,85.082 140.5112,85.2314 Q141.1587,85.3809 141.7231,85.6797 L141.7231,88.4023 Q141.0923,87.8213 140.4988,87.5515 Q139.9053,87.2817 139.2744,87.2817 Q137.9297,87.2817 137.2449,88.3484 Q136.5601,89.415 136.5601,91.5151 Q136.5601,93.6069 137.2449,94.6736 Q137.9297,95.7402 139.2744,95.7402 Q139.9053,95.7402 140.4988,95.4705 Q141.0923,95.2007 141.7231,94.6196 Z "/><text fill="#000000" font-family="sans-serif" font-size="12" lengthAdjust="spacingAndGlyphs" textLength="27" x="159.75" y="95.7344">Base</text><line style="stroke: #A80036; stroke-width: 1.5;" x1="83.5" x2="230.5" y1="107.1992" y2="107.1992"/><line style="stroke: #A80036; stroke-width: 1.5;" x1="83.5" x2="230.5" y1="115.1992" y2="115.1992"/><ellipse cx="93.5" cy="126.1992" fill="#84BE84" rx="3" ry="3" style="stroke: #038048; stroke-width: 1.0;"/><text fill="#000000" font-family="sans-serif" font-size="11" lengthAdjust="spacingAndGlyphs" textLength="123" x="102.5" y="129.834">__init__(self, a='', b='')</text><ellipse cx="93.5" cy="139.1543" fill="#84BE84" rx="3" ry="3" style="stroke: #038048; stroke-width: 1.0;"/><text fill="#000000" font-family="sans-serif" font-size="11" lengthAdjust="spacingAndGlyphs" textLength="96" x="102.5" y="142.7891">get_opcodes(self)</text></a><!--MD5=[995a509b438cdc2d97b80485f82ea7f7]
reverse link benchmarkstt.diff.Base to benchmarkstt.diff.core.RatcliffObershelp--><path d="M157,169.3092 C157,217.2492 157,287.2492 157,343.8692 " fill="none" id="benchmarkstt.diff.Base&lt;-benchmarkstt.diff.core.RatcliffObershelp" style="stroke: #A80036; stroke-width: 1.0;"/><polygon fill="none" points="150,169.2792,157,149.2792,164,169.2792,150,169.2792" style="stroke: #A80036; stroke-width: 1.0;"/><!--MD5=[2db0c2459354a46506eaa1f007d56121]
reverse link benchmarkstt.diff.formatter.Dialect to benchmarkstt.diff.formatter.CLIDiffDialect--><path d="M820.2,171.0192 C750.18,204.3792 664.63,249.8492 595,301.1992 C562.73,324.9992 530.85,356.3792 505.98,383.1592 " fill="none" id="benchmarkstt.diff.formatter.Dialect&lt;-benchmarkstt.diff.formatter.CLIDiffDialect" style="stroke: #A80036; stroke-width: 1.0;"/><polygon fill="none" points="817.49,164.5492,838.57,162.3692,823.46,177.2192,817.49,164.5492" style="stroke: #A80036; stroke-width: 1.0;"/><!--MD5=[112058220c56443896afbf42f17a88fb]
reverse link benchmarkstt.diff.formatter.Dialect to benchmarkstt.diff.formatter.HTMLDiffDialect--><path d="M964.25,182.2692 C973.98,242.0492 987.88,327.4092 996.92,382.9292 " fill="none" id="benchmarkstt.diff.formatter.Dialect&lt;-benchmarkstt.diff.formatter.HTMLDiffDialect" style="stroke: #A80036; stroke-width: 1.0;"/><polygon fill="none" points="957.3,183.1492,960.99,162.2792,971.12,180.8992,957.3,183.1492" style="stroke: #A80036; stroke-width: 1.0;"/><!--MD5=[d18a5de9ed5cb9a1cce4fd0dce2b6adb]
reverse link benchmarkstt.diff.formatter.ListDialect to benchmarkstt.diff.formatter.JSONDiffDialect--><path d="M732,542.5392 C732,597.8192 732,665.2592 732,717.0592 " fill="none" id="benchmarkstt.diff.formatter.ListDialect&lt;-benchmarkstt.diff.formatter.JSONDiffDialect" style="stroke: #A80036; stroke-width: 1.0;"/><polygon fill="none" points="725,542.3792,732,522.3792,739,542.3792,725,542.3792" style="stroke: #A80036; stroke-width: 1.0;"/><!--MD5=[cd06825e171c0cb66bd892fe633a200a]
reverse link benchmarkstt.diff.formatter.Dialect to benchmarkstt.diff.formatter.ListDialect--><path d="M908.42,178.8592 C873.56,230.1992 824.91,301.8492 787.53,356.9092 " fill="none" id="benchmarkstt.diff.formatter.Dialect&lt;-benchmarkstt.diff.formatter.ListDialect" style="stroke: #A80036; stroke-width: 1.0;"/><polygon fill="none" points="902.65,174.8992,919.67,162.2792,914.23,182.7592,902.65,174.8992" style="stroke: #A80036; stroke-width: 1.0;"/><!--MD5=[42bef6836bc68c456f75427094de6c35]
reverse link benchmarkstt.diff.formatter.CLIDiffDialect to benchmarkstt.diff.formatter.RestructuredTextDialect--><path d="M458,516.2492 C458,584.0892 458,682.0992 458,743.0192 " fill="none" id="benchmarkstt.diff.formatter.CLIDiffDialect&lt;-benchmarkstt.diff.formatter.RestructuredTextDialect" style="stroke: #A80036; stroke-width: 1.0;"/><polygon fill="none" points="451,516.2392,458,496.2392,465,516.2392,451,516.2392" style="stroke: #A80036; stroke-width: 1.0;"/><!--MD5=[dab5b0c4d09e39186ea8a57da41e6cde]
reverse link benchmarkstt.diff.formatter.Dialect to benchmarkstt.diff.formatter.UTF8Dialect--><path d="M1017.69,176.9892 C1054.49,213.3292 1101.4,259.7392 1143,301.1992 C1165.44,323.5592 1189.87,348.0392 1211.8,370.0592 " fill="none" id="benchmarkstt.diff.formatter.Dialect&lt;-benchmarkstt.diff.formatter.UTF8Dialect" style="stroke: #A80036; stroke-width: 1.0;"/><polygon fill="none" points="1012.42,181.6092,1003.1,162.5792,1022.25,171.6492,1012.42,181.6092" style="stroke: #A80036; stroke-width: 1.0;"/><!--MD5=[f7edaff40012d1726152f7ebacd2d73f]
@startuml
title Diff
		class benchmarkstt.diff.core.RatcliffObershelp [[https://benchmarkstt.readthedocs.io/en/latest/modules/benchmarkstt.diff.html#benchmarkstt.diff.core.RatcliffObershelp]] {
			+__init__(self, a, b, *args, **kwargs)
			+find_longest_match(self, alo, ahi, blo, bhi)
			+get_grouped_opcodes(self, n=3)
			+get_matching_blocks(self)
			+get_opcodes(self)
			+quick_ratio(self)
			+ratio(self)
			+real_quick_ratio(self)
			+set_seq1(self, a)
			+set_seq2(self, b)
			+set_seqs(self, a, b)
		}
		class benchmarkstt.diff.formatter.CLIDiffDialect [[https://benchmarkstt.readthedocs.io/en/latest/modules/benchmarkstt.diff.html#benchmarkstt.diff.formatter.CLIDiffDialect]] {
			+__enter__(self)
			+__exit__(self, exc_type, exc_val, exc_tb)
			+__init__(self, show_color_key=None)
			+output(self)
			+preprocessor(txt)
		}
		class benchmarkstt.diff.formatter.Dialect [[https://benchmarkstt.readthedocs.io/en/latest/modules/benchmarkstt.diff.html#benchmarkstt.diff.formatter.Dialect]] {
			+__enter__(self)
			+__exit__(self, exc_type, exc_val, exc_tb)
			+__init__(self)
			+output(self)
		}
		class benchmarkstt.diff.formatter.DiffFormatter [[https://benchmarkstt.readthedocs.io/en/latest/modules/benchmarkstt.diff.html#benchmarkstt.diff.formatter.DiffFormatter]] {
			+__init__(self, dialect=None, *args, **kwargs)
			+diff(self, a, b, opcodes=None, preprocessor=None)
		}
		class benchmarkstt.diff.formatter.HTMLDiffDialect [[https://benchmarkstt.readthedocs.io/en/latest/modules/benchmarkstt.diff.html#benchmarkstt.diff.formatter.HTMLDiffDialect]] {
			+__enter__(self)
			+__exit__(self, exc_type, exc_val, exc_tb)
			+__init__(self)
			+output(self)
			+preprocessor(txt)
		}
		class benchmarkstt.diff.formatter.JSONDiffDialect [[https://benchmarkstt.readthedocs.io/en/latest/modules/benchmarkstt.diff.html#benchmarkstt.diff.formatter.JSONDiffDialect]] {
			+__enter__(self)
			+__exit__(self, exc_type, exc_val, exc_tb)
			+__init__(self)
			+delete_format(self, txt)
			+equal_format(self, txt)
			+insert_format(self, txt)
			+output(self)
			+preprocessor(txt)
			+replace_format(self, a, b)
		}
		class benchmarkstt.diff.formatter.ListDialect [[https://benchmarkstt.readthedocs.io/en/latest/modules/benchmarkstt.diff.html#benchmarkstt.diff.formatter.ListDialect]] {
			+__enter__(self)
			+__exit__(self, exc_type, exc_val, exc_tb)
			+__init__(self)
			+delete_format(self, txt)
			+equal_format(self, txt)
			+insert_format(self, txt)
			+output(self)
			+preprocessor(txt)
			+replace_format(self, a, b)
		}
		class benchmarkstt.diff.formatter.RestructuredTextDialect [[https://benchmarkstt.readthedocs.io/en/latest/modules/benchmarkstt.diff.html#benchmarkstt.diff.formatter.RestructuredTextDialect]] {
			+__enter__(self)
			+__exit__(self, exc_type, exc_val, exc_tb)
			+__init__(self, show_color_key=None)
			+output(self)
			+preprocessor(txt)
		}
		class benchmarkstt.diff.formatter.UTF8Dialect [[https://benchmarkstt.readthedocs.io/en/latest/modules/benchmarkstt.diff.html#benchmarkstt.diff.formatter.UTF8Dialect]] {
			+__enter__(self)
			+__exit__(self, exc_type, exc_val, exc_tb)
			+__init__(self)
			+delete_format(self, txt)
			+insert_format(self, txt)
			+output(self)
			+preprocessor(txt)
		}
		class benchmarkstt.diff.Base [[https://benchmarkstt.readthedocs.io/en/latest/modules/benchmarkstt.diff.html#benchmarkstt.diff.Base]] {
			+__init__(self, a='', b='')
			+get_opcodes(self)
		}

benchmarkstt.diff.core.RatcliffObershelp - -up- -|> benchmarkstt.diff.Base
benchmarkstt.diff.formatter.CLIDiffDialect - -up- -|> benchmarkstt.diff.formatter.Dialect
benchmarkstt.diff.formatter.HTMLDiffDialect - -up- -|> benchmarkstt.diff.formatter.Dialect
benchmarkstt.diff.formatter.JSONDiffDialect - -up- -|> benchmarkstt.diff.formatter.ListDialect
benchmarkstt.diff.formatter.ListDialect - -up- -|> benchmarkstt.diff.formatter.Dialect
benchmarkstt.diff.formatter.RestructuredTextDialect - -up- -|> benchmarkstt.diff.formatter.CLIDiffDialect
benchmarkstt.diff.formatter.UTF8Dialect - -up- -|> benchmarkstt.diff.formatter.Dialect
@enduml

PlantUML version 1.2020.15(Sun Jun 28 11:39:45 UTC 2020)
(GPL source distribution)
Java Runtime: OpenJDK Runtime Environment
JVM: OpenJDK 64-Bit Server VM
Default Encoding: UTF-8
Language: en
Country: BE
--></g></svg>