<?xml version="1.0" encoding="UTF-8" standalone="no"?><svg xmlns="http://www.w3.org/2000/svg" xmlns:xlink="http://www.w3.org/1999/xlink" contentScriptType="application/ecmascript" contentStyleType="text/css" height="406px" preserveAspectRatio="none" style="width:781px;height:406px;" version="1.1" viewBox="0 0 781 406" width="781px" zoomAndPan="magnify"><defs><filter height="300%" id="fdg3reiiqhubh" width="300%" x="-1" y="-1"><feGaussianBlur result="blurOut" stdDeviation="2.0"/><feColorMatrix in="blurOut" result="blurOut2" type="matrix" values="0 0 0 0 0 0 0 0 0 0 0 0 0 0 0 0 0 0 .4 0"/><feOffset dx="4.0" dy="4.0" in="blurOut2" result="blurOut3"/><feBlend in="SourceGraphic" in2="blurOut3" mode="normal"/></filter></defs><g><text fill="#000000" font-family="sans-serif" font-size="18" lengthAdjust="spacingAndGlyphs" textLength="49" x="357" y="16.708">Input</text><!--MD5=[5c7a64d73ca244446f0e70026cf5d0bf]
cluster benchmarkstt.input.core--><polygon fill="#FFFFFF" filter="url(#fdg3reiiqhubh)" points="16,269.9531,224,269.9531,231,292.25,759,292.25,759,394.9531,16,394.9531,16,269.9531" style="stroke: #000000; stroke-width: 1.5;"/><line style="stroke: #000000; stroke-width: 1.5;" x1="16" x2="231" y1="292.25" y2="292.25"/><text fill="#000000" font-family="sans-serif" font-size="14" font-weight="bold" lengthAdjust="spacingAndGlyphs" textLength="202" x="20" y="284.9482">benchmarkstt.input.core</text><!--MD5=[94de2ef9dde389aecb44d7f232eba8a2]
cluster benchmarkstt.input--><polygon fill="#FFFFFF" filter="url(#fdg3reiiqhubh)" points="224,26.9531,392,26.9531,399,49.25,402,49.25,402,138.9531,224,138.9531,224,26.9531" style="stroke: #000000; stroke-width: 1.5;"/><line style="stroke: #000000; stroke-width: 1.5;" x1="224" x2="399" y1="49.25" y2="49.25"/><text fill="#000000" font-family="sans-serif" font-size="14" font-weight="bold" lengthAdjust="spacingAndGlyphs" textLength="162" x="228" y="41.9482">benchmarkstt.input</text><!--MD5=[3edd34d35203ceb4dd4fa63a3b0c665d]
class benchmarkstt.input.core.PlainText--><a href="https://benchmarkstt.readthedocs.io/en/latest/modules/benchmarkstt.input.html#benchmarkstt.input.core.PlainText" target="_top" title="https://benchmarkstt.readthedocs.io/en/latest/modules/benchmarkstt.input.html#benchmarkstt.input.core.PlainText" xlink:actuate="onRequest" xlink:href="https://benchmarkstt.readthedocs.io/en/latest/modules/benchmarkstt.input.html#benchmarkstt.input.core.PlainText" xlink:show="new" xlink:title="https://benchmarkstt.readthedocs.io/en/latest/modules/benchmarkstt.input.html#benchmarkstt.input.core.PlainText" xlink:type="simple"><rect codeLine="2" fill="#FEFECE" filter="url(#fdg3reiiqhubh)" height="73.6094" id="benchmarkstt.input.core.PlainText" style="stroke: #A80036; stroke-width: 1.5;" width="342" x="32" y="304.9531"/><ellipse cx="172.75" cy="320.9531" fill="#ADD1B2" rx="11" ry="11" style="stroke: #A80036; stroke-width: 1.0;"/><path d="M175.0938,316.625 C174.1563,316.1875 173.5625,316.0469 172.6875,316.0469 C170.0625,316.0469 168.0625,318.125 168.0625,320.8438 L168.0625,321.9688 C168.0625,324.5469 170.1719,326.4375 173.0625,326.4375 C174.2813,326.4375 175.4375,326.1406 176.1875,325.5938 C176.7656,325.1875 177.0938,324.7344 177.0938,324.3438 C177.0938,323.8906 176.7031,323.5 176.2344,323.5 C176.0156,323.5 175.8125,323.5781 175.625,323.7656 C175.1719,324.25 175.1719,324.25 174.9844,324.3438 C174.5625,324.6094 173.875,324.7344 173.1094,324.7344 C171.0625,324.7344 169.7656,323.6406 169.7656,321.9375 L169.7656,320.8438 C169.7656,319.0625 171.0156,317.75 172.75,317.75 C173.3281,317.75 173.9375,317.9063 174.4063,318.1563 C174.8906,318.4375 175.0625,318.6563 175.1563,319.0625 C175.2188,319.4688 175.25,319.5938 175.3906,319.7188 C175.5313,319.8594 175.7656,319.9688 175.9844,319.9688 C176.25,319.9688 176.5156,319.8281 176.6875,319.6094 C176.7969,319.4531 176.8281,319.2656 176.8281,318.8438 L176.8281,317.4219 C176.8281,316.9844 176.8125,316.8594 176.7188,316.7031 C176.5625,316.4375 176.2813,316.2969 175.9844,316.2969 C175.6875,316.2969 175.4844,316.3906 175.2656,316.7031 L175.0938,316.625 Z "/><text fill="#000000" font-family="sans-serif" font-size="12" lengthAdjust="spacingAndGlyphs" textLength="52" x="193.25" y="325.1074">PlainText</text><line style="stroke: #A80036; stroke-width: 1.5;" x1="33" x2="373" y1="336.9531" y2="336.9531"/><line style="stroke: #A80036; stroke-width: 1.5;" x1="33" x2="373" y1="344.9531" y2="344.9531"/><ellipse cx="43" cy="355.9531" fill="#84BE84" rx="3" ry="3" style="stroke: #038048; stroke-width: 1.0;"/><text fill="#000000" font-family="sans-serif" font-size="11" lengthAdjust="spacingAndGlyphs" textLength="316" x="52" y="359.1636">__init__(self, text, segmenter=None, normalizer=None)</text><ellipse cx="43" cy="368.7578" fill="#84BE84" rx="3" ry="3" style="stroke: #038048; stroke-width: 1.0;"/><text fill="#000000" font-family="sans-serif" font-size="11" lengthAdjust="spacingAndGlyphs" textLength="72" x="52" y="371.9683">__iter__(self)</text></a><!--MD5=[4843f7accda627844ca340f5d1efa37d]
class benchmarkstt.input.core.File--><a href="https://benchmarkstt.readthedocs.io/en/latest/modules/benchmarkstt.input.html#benchmarkstt.input.core.File" target="_top" title="https://benchmarkstt.readthedocs.io/en/latest/modules/benchmarkstt.input.html#benchmarkstt.input.core.File" xlink:actuate="onRequest" xlink:href="https://benchmarkstt.readthedocs.io/en/latest/modules/benchmarkstt.input.html#benchmarkstt.input.core.File" xlink:show="new" xlink:title="https://benchmarkstt.readthedocs.io/en/latest/modules/benchmarkstt.input.html#benchmarkstt.input.core.File" xlink:type="simple"><rect codeLine="9" fill="#FEFECE" filter="url(#fdg3reiiqhubh)" height="73.6094" id="benchmarkstt.input.core.File" style="stroke: #A80036; stroke-width: 1.5;" width="334" x="409" y="304.9531"/><ellipse cx="561.25" cy="320.9531" fill="#ADD1B2" rx="11" ry="11" style="stroke: #A80036; stroke-width: 1.0;"/><path d="M563.5938,316.625 C562.6563,316.1875 562.0625,316.0469 561.1875,316.0469 C558.5625,316.0469 556.5625,318.125 556.5625,320.8438 L556.5625,321.9688 C556.5625,324.5469 558.6719,326.4375 561.5625,326.4375 C562.7813,326.4375 563.9375,326.1406 564.6875,325.5938 C565.2656,325.1875 565.5938,324.7344 565.5938,324.3438 C565.5938,323.8906 565.2031,323.5 564.7344,323.5 C564.5156,323.5 564.3125,323.5781 564.125,323.7656 C563.6719,324.25 563.6719,324.25 563.4844,324.3438 C563.0625,324.6094 562.375,324.7344 561.6094,324.7344 C559.5625,324.7344 558.2656,323.6406 558.2656,321.9375 L558.2656,320.8438 C558.2656,319.0625 559.5156,317.75 561.25,317.75 C561.8281,317.75 562.4375,317.9063 562.9063,318.1563 C563.3906,318.4375 563.5625,318.6563 563.6563,319.0625 C563.7188,319.4688 563.75,319.5938 563.8906,319.7188 C564.0313,319.8594 564.2656,319.9688 564.4844,319.9688 C564.75,319.9688 565.0156,319.8281 565.1875,319.6094 C565.2969,319.4531 565.3281,319.2656 565.3281,318.8438 L565.3281,317.4219 C565.3281,316.9844 565.3125,316.8594 565.2188,316.7031 C565.0625,316.4375 564.7813,316.2969 564.4844,316.2969 C564.1875,316.2969 563.9844,316.3906 563.7656,316.7031 L563.5938,316.625 Z "/><text fill="#000000" font-family="sans-serif" font-size="12" lengthAdjust="spacingAndGlyphs" textLength="21" x="581.75" y="325.1074">File</text><line style="stroke: #A80036; stroke-width: 1.5;" x1="410" x2="742" y1="336.9531" y2="336.9531"/><line style="stroke: #A80036; stroke-width: 1.5;" x1="410" x2="742" y1="344.9531" y2="344.9531"/><ellipse cx="420" cy="355.9531" fill="#84BE84" rx="3" ry="3" style="stroke: #038048; stroke-width: 1.0;"/><text fill="#000000" font-family="sans-serif" font-size="11" lengthAdjust="spacingAndGlyphs" textLength="308" x="429" y="359.1636">__init__(self, file, input_type=None, normalizer=None)</text><ellipse cx="420" cy="368.7578" fill="#84BE84" rx="3" ry="3" style="stroke: #038048; stroke-width: 1.0;"/><text fill="#000000" font-family="sans-serif" font-size="11" lengthAdjust="spacingAndGlyphs" textLength="72" x="429" y="371.9683">__iter__(self)</text></a><!--MD5=[d1e904a0c11302288bad0868539b156c]
class benchmarkstt.input.Base--><a href="https://benchmarkstt.readthedocs.io/en/latest/modules/benchmarkstt.input.html#benchmarkstt.input.Base" target="_top" title="https://benchmarkstt.readthedocs.io/en/latest/modules/benchmarkstt.input.html#benchmarkstt.input.Base" xlink:actuate="onRequest" xlink:href="https://benchmarkstt.readthedocs.io/en/latest/modules/benchmarkstt.input.html#benchmarkstt.input.Base" xlink:show="new" xlink:title="https://benchmarkstt.readthedocs.io/en/latest/modules/benchmarkstt.input.html#benchmarkstt.input.Base" xlink:type="simple"><rect codeLine="6" fill="#FEFECE" filter="url(#fdg3reiiqhubh)" height="60.8047" id="benchmarkstt.input.Base" style="stroke: #A80036; stroke-width: 1.5;" width="98" x="264" y="61.9531"/><ellipse cx="295.2" cy="77.9531" fill="#ADD1B2" rx="11" ry="11" style="stroke: #A80036; stroke-width: 1.0;"/><path d="M297.5438,73.625 C296.6063,73.1875 296.0125,73.0469 295.1375,73.0469 C292.5125,73.0469 290.5125,75.125 290.5125,77.8438 L290.5125,78.9688 C290.5125,81.5469 292.6219,83.4375 295.5125,83.4375 C296.7313,83.4375 297.8875,83.1406 298.6375,82.5938 C299.2156,82.1875 299.5438,81.7344 299.5438,81.3438 C299.5438,80.8906 299.1531,80.5 298.6844,80.5 C298.4656,80.5 298.2625,80.5781 298.075,80.7656 C297.6219,81.25 297.6219,81.25 297.4344,81.3438 C297.0125,81.6094 296.325,81.7344 295.5594,81.7344 C293.5125,81.7344 292.2156,80.6406 292.2156,78.9375 L292.2156,77.8438 C292.2156,76.0625 293.4656,74.75 295.2,74.75 C295.7781,74.75 296.3875,74.9063 296.8563,75.1563 C297.3406,75.4375 297.5125,75.6563 297.6063,76.0625 C297.6688,76.4688 297.7,76.5938 297.8406,76.7188 C297.9813,76.8594 298.2156,76.9688 298.4344,76.9688 C298.7,76.9688 298.9656,76.8281 299.1375,76.6094 C299.2469,76.4531 299.2781,76.2656 299.2781,75.8438 L299.2781,74.4219 C299.2781,73.9844 299.2625,73.8594 299.1688,73.7031 C299.0125,73.4375 298.7313,73.2969 298.4344,73.2969 C298.1375,73.2969 297.9344,73.3906 297.7156,73.7031 L297.5438,73.625 Z "/><text fill="#000000" font-family="sans-serif" font-size="12" lengthAdjust="spacingAndGlyphs" textLength="30" x="312.8" y="82.1074">Base</text><line style="stroke: #A80036; stroke-width: 1.5;" x1="265" x2="361" y1="93.9531" y2="93.9531"/><line style="stroke: #A80036; stroke-width: 1.5;" x1="265" x2="361" y1="101.9531" y2="101.9531"/><ellipse cx="275" cy="112.9531" fill="#84BE84" rx="3" ry="3" style="stroke: #038048; stroke-width: 1.0;"/><text fill="#000000" font-family="sans-serif" font-size="11" lengthAdjust="spacingAndGlyphs" textLength="72" x="284" y="116.1636">__iter__(self)</text></a><!--MD5=[3d607d7f67fd018830fa1d9f070f3dcc]
reverse link benchmarkstt.input.Base to benchmarkstt.input.core.PlainText--><path codeLine="14" d="M291.5,141.8291 C270.281,189.5701 238.318,261.4871 219.171,304.5691 " fill="none" id="benchmarkstt.input.Base&lt;-benchmarkstt.input.core.PlainText" style="stroke: #A80036; stroke-width: 1.0;"/><polygon fill="none" points="285.212,138.7411,299.731,123.3071,298.005,144.4271,285.212,138.7411" style="stroke: #A80036; stroke-width: 1.0;"/><!--MD5=[065a416e4c33abf0dffdc83d6e1bf045]
reverse link benchmarkstt.input.Base to benchmarkstt.input.core.File--><path codeLine="15" d="M359.171,136.9031 C409.872,184.6151 490.355,260.3551 537.692,304.9031 " fill="none" id="benchmarkstt.input.Base&lt;-benchmarkstt.input.core.File" style="stroke: #A80036; stroke-width: 1.0;"/><polygon fill="none" points="354.23,141.8661,344.463,123.0611,363.825,131.6701,354.23,141.8661" style="stroke: #A80036; stroke-width: 1.0;"/><!--MD5=[2a22bd5e83a9dd94b5fc8172571c2d8f]
@startuml
title Input
		class benchmarkstt.input.core.PlainText [[https://benchmarkstt.readthedocs.io/en/latest/modules/benchmarkstt.input.html#benchmarkstt.input.core.PlainText]] {
			+__init__(self, text, segmenter=None, normalizer=None)
			+__iter__(self)
		}
		class benchmarkstt.input.Base [[https://benchmarkstt.readthedocs.io/en/latest/modules/benchmarkstt.input.html#benchmarkstt.input.Base]] {
			+__iter__(self)
		}
		class benchmarkstt.input.core.File [[https://benchmarkstt.readthedocs.io/en/latest/modules/benchmarkstt.input.html#benchmarkstt.input.core.File]] {
			+__init__(self, file, input_type=None, normalizer=None)
			+__iter__(self)
		}

benchmarkstt.input.core.PlainText - -up- -|> benchmarkstt.input.Base
benchmarkstt.input.core.File - -up- -|> benchmarkstt.input.Base
@enduml

PlantUML version 1.2020.16beta7(Unknown compile time)
(GPL source distribution)
Java Runtime: Java(TM) SE Runtime Environment
JVM: Java HotSpot(TM) 64-Bit Server VM
Default Encoding: UTF-8
Language: en
Country: US
--></g></svg>