<?xml version="1.0" encoding="UTF-8" standalone="no"?><svg xmlns="http://www.w3.org/2000/svg" xmlns:xlink="http://www.w3.org/1999/xlink" contentScriptType="application/ecmascript" contentStyleType="text/css" height="407px" preserveAspectRatio="none" style="width:745px;height:407px;" version="1.1" viewBox="0 0 745 407" width="745px" zoomAndPan="magnify"><defs><filter height="300%" id="fdg3reiiqhubh" width="300%" x="-1" y="-1"><feGaussianBlur result="blurOut" stdDeviation="2.0"/><feColorMatrix in="blurOut" result="blurOut2" type="matrix" values="0 0 0 0 0 0 0 0 0 0 0 0 0 0 0 0 0 0 .4 0"/><feOffset dx="4.0" dy="4.0" in="blurOut2" result="blurOut3"/><feBlend in="SourceGraphic" in2="blurOut3" mode="normal"/></filter></defs><g><text fill="#000000" font-family="sans-serif" font-size="18" lengthAdjust="spacingAndGlyphs" textLength="45" x="341" y="17.4023">Input</text><!--MD5=[5c7a64d73ca244446f0e70026cf5d0bf]
cluster benchmarkstt.input.core--><polygon fill="#FFFFFF" filter="url(#fdg3reiiqhubh)" points="16,270.1992,195,270.1992,202,292.6875,723,292.6875,723,395.1992,16,395.1992,16,270.1992" style="stroke: #000000; stroke-width: 1.5;"/><line style="stroke: #000000; stroke-width: 1.5;" x1="16" x2="202" y1="292.6875" y2="292.6875"/><text fill="#000000" font-family="sans-serif" font-size="14" font-weight="bold" lengthAdjust="spacingAndGlyphs" textLength="173" x="20" y="285.7344">benchmarkstt.input.core</text><!--MD5=[94de2ef9dde389aecb44d7f232eba8a2]
cluster benchmarkstt.input--><polygon fill="#FFFFFF" filter="url(#fdg3reiiqhubh)" points="328,27.1992,474,27.1992,481,49.6875,484,49.6875,484,139.1992,328,139.1992,328,27.1992" style="stroke: #000000; stroke-width: 1.5;"/><line style="stroke: #000000; stroke-width: 1.5;" x1="328" x2="481" y1="49.6875" y2="49.6875"/><text fill="#000000" font-family="sans-serif" font-size="14" font-weight="bold" lengthAdjust="spacingAndGlyphs" textLength="140" x="332" y="42.7344">benchmarkstt.input</text><!--MD5=[3edd34d35203ceb4dd4fa63a3b0c665d]
class benchmarkstt.input.core.PlainText--><a href="https://benchmarkstt.readthedocs.io/en/latest/modules/benchmarkstt.input.html#benchmarkstt.input.core.PlainText" target="_top" title="https://benchmarkstt.readthedocs.io/en/latest/modules/benchmarkstt.input.html#benchmarkstt.input.core.PlainText" xlink:actuate="onRequest" xlink:href="https://benchmarkstt.readthedocs.io/en/latest/modules/benchmarkstt.input.html#benchmarkstt.input.core.PlainText" xlink:show="new" xlink:title="https://benchmarkstt.readthedocs.io/en/latest/modules/benchmarkstt.input.html#benchmarkstt.input.core.PlainText" xlink:type="simple"><rect fill="#FEFECE" filter="url(#fdg3reiiqhubh)" height="73.9102" id="benchmarkstt.input.core.PlainText" style="stroke: #A80036; stroke-width: 1.5;" width="322" x="32" y="305.1992"/><ellipse cx="162.25" cy="321.1992" fill="#ADD1B2" rx="11" ry="11" style="stroke: #A80036; stroke-width: 1.0;"/><path d="M164.7231,327.3423 Q164.1421,327.6411 163.5029,327.7905 Q162.8638,327.9399 162.1582,327.9399 Q159.6514,327.9399 158.3315,326.2881 Q157.0117,324.6362 157.0117,321.5151 Q157.0117,318.3857 158.3315,316.7339 Q159.6514,315.082 162.1582,315.082 Q162.8638,315.082 163.5112,315.2314 Q164.1587,315.3809 164.7231,315.6797 L164.7231,318.4023 Q164.0923,317.8213 163.4988,317.5515 Q162.9053,317.2817 162.2744,317.2817 Q160.9297,317.2817 160.2449,318.3484 Q159.5601,319.415 159.5601,321.5151 Q159.5601,323.6069 160.2449,324.6736 Q160.9297,325.7402 162.2744,325.7402 Q162.9053,325.7402 163.4988,325.4705 Q164.0923,325.2007 164.7231,324.6196 Z "/><text fill="#000000" font-family="sans-serif" font-size="12" lengthAdjust="spacingAndGlyphs" textLength="53" x="182.75" y="325.7344">PlainText</text><line style="stroke: #A80036; stroke-width: 1.5;" x1="33" x2="353" y1="337.1992" y2="337.1992"/><line style="stroke: #A80036; stroke-width: 1.5;" x1="33" x2="353" y1="345.1992" y2="345.1992"/><ellipse cx="43" cy="356.1992" fill="#84BE84" rx="3" ry="3" style="stroke: #038048; stroke-width: 1.0;"/><text fill="#000000" font-family="sans-serif" font-size="11" lengthAdjust="spacingAndGlyphs" textLength="296" x="52" y="359.834">__init__(self, text, segmenter=None, normalizer=None)</text><ellipse cx="43" cy="369.1543" fill="#84BE84" rx="3" ry="3" style="stroke: #038048; stroke-width: 1.0;"/><text fill="#000000" font-family="sans-serif" font-size="11" lengthAdjust="spacingAndGlyphs" textLength="69" x="52" y="372.7891">__iter__(self)</text></a><!--MD5=[4843f7accda627844ca340f5d1efa37d]
class benchmarkstt.input.core.File--><a href="https://benchmarkstt.readthedocs.io/en/latest/modules/benchmarkstt.input.html#benchmarkstt.input.core.File" target="_top" title="https://benchmarkstt.readthedocs.io/en/latest/modules/benchmarkstt.input.html#benchmarkstt.input.core.File" xlink:actuate="onRequest" xlink:href="https://benchmarkstt.readthedocs.io/en/latest/modules/benchmarkstt.input.html#benchmarkstt.input.core.File" xlink:show="new" xlink:title="https://benchmarkstt.readthedocs.io/en/latest/modules/benchmarkstt.input.html#benchmarkstt.input.core.File" xlink:type="simple"><rect fill="#FEFECE" filter="url(#fdg3reiiqhubh)" height="73.9102" id="benchmarkstt.input.core.File" style="stroke: #A80036; stroke-width: 1.5;" width="317" x="389.5" y="305.1992"/><ellipse cx="534.25" cy="321.1992" fill="#ADD1B2" rx="11" ry="11" style="stroke: #A80036; stroke-width: 1.0;"/><path d="M536.7231,327.3423 Q536.1421,327.6411 535.5029,327.7905 Q534.8638,327.9399 534.1582,327.9399 Q531.6514,327.9399 530.3315,326.2881 Q529.0117,324.6362 529.0117,321.5151 Q529.0117,318.3857 530.3315,316.7339 Q531.6514,315.082 534.1582,315.082 Q534.8638,315.082 535.5112,315.2314 Q536.1587,315.3809 536.7231,315.6797 L536.7231,318.4023 Q536.0923,317.8213 535.4988,317.5515 Q534.9053,317.2817 534.2744,317.2817 Q532.9297,317.2817 532.2449,318.3484 Q531.5601,319.415 531.5601,321.5151 Q531.5601,323.6069 532.2449,324.6736 Q532.9297,325.7402 534.2744,325.7402 Q534.9053,325.7402 535.4988,325.4705 Q536.0923,325.2007 536.7231,324.6196 Z "/><text fill="#000000" font-family="sans-serif" font-size="12" lengthAdjust="spacingAndGlyphs" textLength="19" x="554.75" y="325.7344">File</text><line style="stroke: #A80036; stroke-width: 1.5;" x1="390.5" x2="705.5" y1="337.1992" y2="337.1992"/><line style="stroke: #A80036; stroke-width: 1.5;" x1="390.5" x2="705.5" y1="345.1992" y2="345.1992"/><ellipse cx="400.5" cy="356.1992" fill="#84BE84" rx="3" ry="3" style="stroke: #038048; stroke-width: 1.0;"/><text fill="#000000" font-family="sans-serif" font-size="11" lengthAdjust="spacingAndGlyphs" textLength="291" x="409.5" y="359.834">__init__(self, file, input_type=None, normalizer=None)</text><ellipse cx="400.5" cy="369.1543" fill="#84BE84" rx="3" ry="3" style="stroke: #038048; stroke-width: 1.0;"/><text fill="#000000" font-family="sans-serif" font-size="11" lengthAdjust="spacingAndGlyphs" textLength="69" x="409.5" y="372.7891">__iter__(self)</text></a><!--MD5=[d1e904a0c11302288bad0868539b156c]
class benchmarkstt.input.Base--><a href="https://benchmarkstt.readthedocs.io/en/latest/modules/benchmarkstt.input.html#benchmarkstt.input.Base" target="_top" title="https://benchmarkstt.readthedocs.io/en/latest/modules/benchmarkstt.input.html#benchmarkstt.input.Base" xlink:actuate="onRequest" xlink:href="https://benchmarkstt.readthedocs.io/en/latest/modules/benchmarkstt.input.html#benchmarkstt.input.Base" xlink:show="new" xlink:title="https://benchmarkstt.readthedocs.io/en/latest/modules/benchmarkstt.input.html#benchmarkstt.input.Base" xlink:type="simple"><rect fill="#FEFECE" filter="url(#fdg3reiiqhubh)" height="60.9551" id="benchmarkstt.input.Base" style="stroke: #A80036; stroke-width: 1.5;" width="95" x="358.5" y="62.1992"/><ellipse cx="389.7" cy="78.1992" fill="#ADD1B2" rx="11" ry="11" style="stroke: #A80036; stroke-width: 1.0;"/><path d="M392.1731,84.3423 Q391.5921,84.6411 390.9529,84.7905 Q390.3138,84.9399 389.6082,84.9399 Q387.1014,84.9399 385.7815,83.2881 Q384.4617,81.6362 384.4617,78.5151 Q384.4617,75.3857 385.7815,73.7339 Q387.1014,72.082 389.6082,72.082 Q390.3138,72.082 390.9612,72.2314 Q391.6087,72.3809 392.1731,72.6797 L392.1731,75.4023 Q391.5423,74.8213 390.9488,74.5515 Q390.3553,74.2817 389.7244,74.2817 Q388.3797,74.2817 387.6949,75.3484 Q387.0101,76.415 387.0101,78.5151 Q387.0101,80.6069 387.6949,81.6736 Q388.3797,82.7402 389.7244,82.7402 Q390.3553,82.7402 390.9488,82.4705 Q391.5423,82.2007 392.1731,81.6196 Z "/><text fill="#000000" font-family="sans-serif" font-size="12" lengthAdjust="spacingAndGlyphs" textLength="27" x="407.3" y="82.7344">Base</text><line style="stroke: #A80036; stroke-width: 1.5;" x1="359.5" x2="452.5" y1="94.1992" y2="94.1992"/><line style="stroke: #A80036; stroke-width: 1.5;" x1="359.5" x2="452.5" y1="102.1992" y2="102.1992"/><ellipse cx="369.5" cy="113.1992" fill="#84BE84" rx="3" ry="3" style="stroke: #038048; stroke-width: 1.0;"/><text fill="#000000" font-family="sans-serif" font-size="11" lengthAdjust="spacingAndGlyphs" textLength="69" x="378.5" y="116.834">__iter__(self)</text></a><!--MD5=[3d607d7f67fd018830fa1d9f070f3dcc]
reverse link benchmarkstt.input.Base to benchmarkstt.input.core.PlainText--><path d="M367.08,138.9192 C326.05,186.5992 262.22,260.7692 224.31,304.8192 " fill="none" id="benchmarkstt.input.Base&lt;-benchmarkstt.input.core.PlainText" style="stroke: #A80036; stroke-width: 1.0;"/><polygon fill="none" points="361.96,134.1492,380.31,123.5492,372.57,143.2792,361.96,134.1492" style="stroke: #A80036; stroke-width: 1.0;"/><!--MD5=[065a416e4c33abf0dffdc83d6e1bf045]
reverse link benchmarkstt.input.Base to benchmarkstt.input.core.File--><path d="M433.21,141.1192 C460.59,188.8492 502.24,261.4492 527.12,304.8192 " fill="none" id="benchmarkstt.input.Base&lt;-benchmarkstt.input.core.File" style="stroke: #A80036; stroke-width: 1.0;"/><polygon fill="none" points="427.01,144.3892,423.13,123.5492,439.15,137.4192,427.01,144.3892" style="stroke: #A80036; stroke-width: 1.0;"/><!--MD5=[63637a824ab7a28191777f9e0faa692d]
@startuml
title Input
		class benchmarkstt.input.core.PlainText [[https://benchmarkstt.readthedocs.io/en/latest/modules/benchmarkstt.input.html#benchmarkstt.input.core.PlainText]] {
			+__init__(self, text, segmenter=None, normalizer=None)
			+__iter__(self)
		}
		class benchmarkstt.input.Base [[https://benchmarkstt.readthedocs.io/en/latest/modules/benchmarkstt.input.html#benchmarkstt.input.Base]] {
			+__iter__(self)
		}
		class benchmarkstt.input.core.File [[https://benchmarkstt.readthedocs.io/en/latest/modules/benchmarkstt.input.html#benchmarkstt.input.core.File]] {
			+__init__(self, file, input_type=None, normalizer=None)
			+__iter__(self)
		}

benchmarkstt.input.core.PlainText - -up- -|> benchmarkstt.input.Base
benchmarkstt.input.core.File - -up- -|> benchmarkstt.input.Base
@enduml

PlantUML version 1.2020.15(Sun Jun 28 11:39:45 UTC 2020)
(GPL source distribution)
Java Runtime: OpenJDK Runtime Environment
JVM: OpenJDK 64-Bit Server VM
Default Encoding: UTF-8
Language: en
Country: BE
--></g></svg>