<?xml version="1.0" encoding="UTF-8" standalone="no"?><svg xmlns="http://www.w3.org/2000/svg" xmlns:xlink="http://www.w3.org/1999/xlink" contentScriptType="application/ecmascript" contentStyleType="text/css" height="737px" preserveAspectRatio="none" style="width:620px;height:737px;" version="1.1" viewBox="0 0 620 737" width="620px" zoomAndPan="magnify"><defs><filter height="300%" id="f18m9ic34l5rms" width="300%" x="-1" y="-1"><feGaussianBlur result="blurOut" stdDeviation="2.0"/><feColorMatrix in="blurOut" result="blurOut2" type="matrix" values="0 0 0 0 0 0 0 0 0 0 0 0 0 0 0 0 0 0 .4 0"/><feOffset dx="4.0" dy="4.0" in="blurOut2" result="blurOut3"/><feBlend in="SourceGraphic" in2="blurOut3" mode="normal"/></filter></defs><g><text fill="#000000" font-family="sans-serif" font-size="18" lengthAdjust="spacingAndGlyphs" textLength="66" x="268" y="16.708">Output</text><!--MD5=[c2f5f1914e6a0fca7cbdb2b44310c20b]
cluster benchmarkstt.output--><polygon fill="#FFFFFF" filter="url(#f18m9ic34l5rms)" points="189,26.9531,370,26.9531,377,49.25,479,49.25,479,163.9531,189,163.9531,189,26.9531" style="stroke: #000000; stroke-width: 1.5;"/><line style="stroke: #000000; stroke-width: 1.5;" x1="189" x2="377" y1="49.25" y2="49.25"/><text fill="#000000" font-family="sans-serif" font-size="14" font-weight="bold" lengthAdjust="spacingAndGlyphs" textLength="175" x="193" y="41.9482">benchmarkstt.output</text><!--MD5=[847d3ee6f8e67faab7de214c96ed8267]
cluster benchmarkstt.output.core--><polygon fill="#FFFFFF" filter="url(#f18m9ic34l5rms)" points="16,294.9531,237,294.9531,244,317.25,598,317.25,598,725.9531,16,725.9531,16,294.9531" style="stroke: #000000; stroke-width: 1.5;"/><line style="stroke: #000000; stroke-width: 1.5;" x1="16" x2="244" y1="317.25" y2="317.25"/><text fill="#000000" font-family="sans-serif" font-size="14" font-weight="bold" lengthAdjust="spacingAndGlyphs" textLength="215" x="20" y="309.9482">benchmarkstt.output.core</text><!--MD5=[6bad0332cb50a567e063560f49fe1b05]
class benchmarkstt.output.Base--><a href="https://benchmarkstt.readthedocs.io/en/latest/modules/benchmarkstt.output.html#benchmarkstt.output.Base" target="_top" title="https://benchmarkstt.readthedocs.io/en/latest/modules/benchmarkstt.output.html#benchmarkstt.output.Base" xlink:actuate="onRequest" xlink:href="https://benchmarkstt.readthedocs.io/en/latest/modules/benchmarkstt.output.html#benchmarkstt.output.Base" xlink:show="new" xlink:title="https://benchmarkstt.readthedocs.io/en/latest/modules/benchmarkstt.output.html#benchmarkstt.output.Base" xlink:type="simple"><rect codeLine="2" fill="#FEFECE" filter="url(#f18m9ic34l5rms)" height="86.4141" id="benchmarkstt.output.Base" style="stroke: #A80036; stroke-width: 1.5;" width="257" x="205.5" y="61.9531"/><ellipse cx="314.75" cy="77.9531" fill="#ADD1B2" rx="11" ry="11" style="stroke: #A80036; stroke-width: 1.0;"/><path d="M317.0938,73.625 C316.1563,73.1875 315.5625,73.0469 314.6875,73.0469 C312.0625,73.0469 310.0625,75.125 310.0625,77.8438 L310.0625,78.9688 C310.0625,81.5469 312.1719,83.4375 315.0625,83.4375 C316.2813,83.4375 317.4375,83.1406 318.1875,82.5938 C318.7656,82.1875 319.0938,81.7344 319.0938,81.3438 C319.0938,80.8906 318.7031,80.5 318.2344,80.5 C318.0156,80.5 317.8125,80.5781 317.625,80.7656 C317.1719,81.25 317.1719,81.25 316.9844,81.3438 C316.5625,81.6094 315.875,81.7344 315.1094,81.7344 C313.0625,81.7344 311.7656,80.6406 311.7656,78.9375 L311.7656,77.8438 C311.7656,76.0625 313.0156,74.75 314.75,74.75 C315.3281,74.75 315.9375,74.9063 316.4063,75.1563 C316.8906,75.4375 317.0625,75.6563 317.1563,76.0625 C317.2188,76.4688 317.25,76.5938 317.3906,76.7188 C317.5313,76.8594 317.7656,76.9688 317.9844,76.9688 C318.25,76.9688 318.5156,76.8281 318.6875,76.6094 C318.7969,76.4531 318.8281,76.2656 318.8281,75.8438 L318.8281,74.4219 C318.8281,73.9844 318.8125,73.8594 318.7188,73.7031 C318.5625,73.4375 318.2813,73.2969 317.9844,73.2969 C317.6875,73.2969 317.4844,73.3906 317.2656,73.7031 L317.0938,73.625 Z "/><text fill="#000000" font-family="sans-serif" font-size="12" lengthAdjust="spacingAndGlyphs" textLength="30" x="335.25" y="82.1074">Base</text><line style="stroke: #A80036; stroke-width: 1.5;" x1="206.5" x2="461.5" y1="93.9531" y2="93.9531"/><line style="stroke: #A80036; stroke-width: 1.5;" x1="206.5" x2="461.5" y1="101.9531" y2="101.9531"/><ellipse cx="216.5" cy="112.9531" fill="#84BE84" rx="3" ry="3" style="stroke: #038048; stroke-width: 1.0;"/><text fill="#000000" font-family="sans-serif" font-size="11" lengthAdjust="spacingAndGlyphs" textLength="84" x="225.5" y="116.1636">__enter__(self)</text><ellipse cx="216.5" cy="125.7578" fill="#84BE84" rx="3" ry="3" style="stroke: #038048; stroke-width: 1.0;"/><text fill="#000000" font-family="sans-serif" font-size="11" lengthAdjust="spacingAndGlyphs" textLength="231" x="225.5" y="128.9683">__exit__(self, exc_type, exc_val, exc_tb)</text><ellipse cx="216.5" cy="138.5625" fill="#84BE84" rx="3" ry="3" style="stroke: #038048; stroke-width: 1.0;"/><text fill="#000000" font-family="sans-serif" font-size="11" lengthAdjust="spacingAndGlyphs" textLength="129" x="225.5" y="141.7729">result(self, title, result)</text></a><!--MD5=[f736c00f8e3d82ae904e3d345ee15690]
class benchmarkstt.output.core.Json--><a href="https://benchmarkstt.readthedocs.io/en/latest/modules/benchmarkstt.output.html#benchmarkstt.output.core.Json" target="_top" title="https://benchmarkstt.readthedocs.io/en/latest/modules/benchmarkstt.output.html#benchmarkstt.output.core.Json" xlink:actuate="onRequest" xlink:href="https://benchmarkstt.readthedocs.io/en/latest/modules/benchmarkstt.output.html#benchmarkstt.output.core.Json" xlink:show="new" xlink:title="https://benchmarkstt.readthedocs.io/en/latest/modules/benchmarkstt.output.html#benchmarkstt.output.core.Json" xlink:type="simple"><rect codeLine="7" fill="#FEFECE" filter="url(#f18m9ic34l5rms)" height="99.2188" id="benchmarkstt.output.core.Json" style="stroke: #A80036; stroke-width: 1.5;" width="257" x="324.5" y="329.9531"/><ellipse cx="435.75" cy="345.9531" fill="#ADD1B2" rx="11" ry="11" style="stroke: #A80036; stroke-width: 1.0;"/><path d="M438.0938,341.625 C437.1563,341.1875 436.5625,341.0469 435.6875,341.0469 C433.0625,341.0469 431.0625,343.125 431.0625,345.8438 L431.0625,346.9688 C431.0625,349.5469 433.1719,351.4375 436.0625,351.4375 C437.2813,351.4375 438.4375,351.1406 439.1875,350.5938 C439.7656,350.1875 440.0938,349.7344 440.0938,349.3438 C440.0938,348.8906 439.7031,348.5 439.2344,348.5 C439.0156,348.5 438.8125,348.5781 438.625,348.7656 C438.1719,349.25 438.1719,349.25 437.9844,349.3438 C437.5625,349.6094 436.875,349.7344 436.1094,349.7344 C434.0625,349.7344 432.7656,348.6406 432.7656,346.9375 L432.7656,345.8438 C432.7656,344.0625 434.0156,342.75 435.75,342.75 C436.3281,342.75 436.9375,342.9063 437.4063,343.1563 C437.8906,343.4375 438.0625,343.6563 438.1563,344.0625 C438.2188,344.4688 438.25,344.5938 438.3906,344.7188 C438.5313,344.8594 438.7656,344.9688 438.9844,344.9688 C439.25,344.9688 439.5156,344.8281 439.6875,344.6094 C439.7969,344.4531 439.8281,344.2656 439.8281,343.8438 L439.8281,342.4219 C439.8281,341.9844 439.8125,341.8594 439.7188,341.7031 C439.5625,341.4375 439.2813,341.2969 438.9844,341.2969 C438.6875,341.2969 438.4844,341.3906 438.2656,341.7031 L438.0938,341.625 Z "/><text fill="#000000" font-family="sans-serif" font-size="12" lengthAdjust="spacingAndGlyphs" textLength="26" x="456.25" y="350.1074">Json</text><line style="stroke: #A80036; stroke-width: 1.5;" x1="325.5" x2="580.5" y1="361.9531" y2="361.9531"/><line style="stroke: #A80036; stroke-width: 1.5;" x1="325.5" x2="580.5" y1="369.9531" y2="369.9531"/><ellipse cx="335.5" cy="380.9531" fill="#84BE84" rx="3" ry="3" style="stroke: #038048; stroke-width: 1.0;"/><text fill="#000000" font-family="sans-serif" font-size="11" lengthAdjust="spacingAndGlyphs" textLength="84" x="344.5" y="384.1636">__enter__(self)</text><ellipse cx="335.5" cy="393.7578" fill="#84BE84" rx="3" ry="3" style="stroke: #038048; stroke-width: 1.0;"/><text fill="#000000" font-family="sans-serif" font-size="11" lengthAdjust="spacingAndGlyphs" textLength="231" x="344.5" y="396.9683">__exit__(self, exc_type, exc_val, exc_tb)</text><ellipse cx="335.5" cy="406.5625" fill="#84BE84" rx="3" ry="3" style="stroke: #038048; stroke-width: 1.0;"/><text fill="#000000" font-family="sans-serif" font-size="11" lengthAdjust="spacingAndGlyphs" textLength="70" x="344.5" y="409.7729">__init__(self)</text><ellipse cx="335.5" cy="419.3672" fill="#84BE84" rx="3" ry="3" style="stroke: #038048; stroke-width: 1.0;"/><text fill="#000000" font-family="sans-serif" font-size="11" lengthAdjust="spacingAndGlyphs" textLength="129" x="344.5" y="422.5776">result(self, title, result)</text></a><!--MD5=[1202924086ca6a88207a70c63baf9330]
class benchmarkstt.output.core.MarkDown--><a href="https://benchmarkstt.readthedocs.io/en/latest/modules/benchmarkstt.output.html#benchmarkstt.output.core.MarkDown" target="_top" title="https://benchmarkstt.readthedocs.io/en/latest/modules/benchmarkstt.output.html#benchmarkstt.output.core.MarkDown" xlink:actuate="onRequest" xlink:href="https://benchmarkstt.readthedocs.io/en/latest/modules/benchmarkstt.output.html#benchmarkstt.output.core.MarkDown" xlink:show="new" xlink:title="https://benchmarkstt.readthedocs.io/en/latest/modules/benchmarkstt.output.html#benchmarkstt.output.core.MarkDown" xlink:type="simple"><rect codeLine="13" fill="#FEFECE" filter="url(#f18m9ic34l5rms)" height="99.2188" id="benchmarkstt.output.core.MarkDown" style="stroke: #A80036; stroke-width: 1.5;" width="257" x="32.5" y="610.9531"/><ellipse cx="125.25" cy="626.9531" fill="#ADD1B2" rx="11" ry="11" style="stroke: #A80036; stroke-width: 1.0;"/><path d="M127.5938,622.625 C126.6563,622.1875 126.0625,622.0469 125.1875,622.0469 C122.5625,622.0469 120.5625,624.125 120.5625,626.8438 L120.5625,627.9688 C120.5625,630.5469 122.6719,632.4375 125.5625,632.4375 C126.7813,632.4375 127.9375,632.1406 128.6875,631.5938 C129.2656,631.1875 129.5938,630.7344 129.5938,630.3438 C129.5938,629.8906 129.2031,629.5 128.7344,629.5 C128.5156,629.5 128.3125,629.5781 128.125,629.7656 C127.6719,630.25 127.6719,630.25 127.4844,630.3438 C127.0625,630.6094 126.375,630.7344 125.6094,630.7344 C123.5625,630.7344 122.2656,629.6406 122.2656,627.9375 L122.2656,626.8438 C122.2656,625.0625 123.5156,623.75 125.25,623.75 C125.8281,623.75 126.4375,623.9063 126.9063,624.1563 C127.3906,624.4375 127.5625,624.6563 127.6563,625.0625 C127.7188,625.4688 127.75,625.5938 127.8906,625.7188 C128.0313,625.8594 128.2656,625.9688 128.4844,625.9688 C128.75,625.9688 129.0156,625.8281 129.1875,625.6094 C129.2969,625.4531 129.3281,625.2656 129.3281,624.8438 L129.3281,623.4219 C129.3281,622.9844 129.3125,622.8594 129.2188,622.7031 C129.0625,622.4375 128.7813,622.2969 128.4844,622.2969 C128.1875,622.2969 127.9844,622.3906 127.7656,622.7031 L127.5938,622.625 Z "/><text fill="#000000" font-family="sans-serif" font-size="12" lengthAdjust="spacingAndGlyphs" textLength="63" x="145.75" y="631.1074">MarkDown</text><line style="stroke: #A80036; stroke-width: 1.5;" x1="33.5" x2="288.5" y1="642.9531" y2="642.9531"/><line style="stroke: #A80036; stroke-width: 1.5;" x1="33.5" x2="288.5" y1="650.9531" y2="650.9531"/><ellipse cx="43.5" cy="661.9531" fill="#84BE84" rx="3" ry="3" style="stroke: #038048; stroke-width: 1.0;"/><text fill="#000000" font-family="sans-serif" font-size="11" lengthAdjust="spacingAndGlyphs" textLength="84" x="52.5" y="665.1636">__enter__(self)</text><ellipse cx="43.5" cy="674.7578" fill="#84BE84" rx="3" ry="3" style="stroke: #038048; stroke-width: 1.0;"/><text fill="#000000" font-family="sans-serif" font-size="11" lengthAdjust="spacingAndGlyphs" textLength="231" x="52.5" y="677.9683">__exit__(self, exc_type, exc_val, exc_tb)</text><ellipse cx="43.5" cy="687.5625" fill="#84BE84" rx="3" ry="3" style="stroke: #038048; stroke-width: 1.0;"/><text fill="#000000" font-family="sans-serif" font-size="11" lengthAdjust="spacingAndGlyphs" textLength="93" x="52.5" y="690.7729">print(self, result)</text><ellipse cx="43.5" cy="700.3672" fill="#84BE84" rx="3" ry="3" style="stroke: #038048; stroke-width: 1.0;"/><text fill="#000000" font-family="sans-serif" font-size="11" lengthAdjust="spacingAndGlyphs" textLength="129" x="52.5" y="703.5776">result(self, title, result)</text></a><!--MD5=[1b1c3484ac7c767612303980bbf618ed]
class benchmarkstt.output.core.ReStructuredText--><a href="https://benchmarkstt.readthedocs.io/en/latest/modules/benchmarkstt.output.html#benchmarkstt.output.core.ReStructuredText" target="_top" title="https://benchmarkstt.readthedocs.io/en/latest/modules/benchmarkstt.output.html#benchmarkstt.output.core.ReStructuredText" xlink:actuate="onRequest" xlink:href="https://benchmarkstt.readthedocs.io/en/latest/modules/benchmarkstt.output.html#benchmarkstt.output.core.ReStructuredText" xlink:show="new" xlink:title="https://benchmarkstt.readthedocs.io/en/latest/modules/benchmarkstt.output.html#benchmarkstt.output.core.ReStructuredText" xlink:type="simple"><rect codeLine="19" fill="#FEFECE" filter="url(#f18m9ic34l5rms)" height="99.2188" id="benchmarkstt.output.core.ReStructuredText" style="stroke: #A80036; stroke-width: 1.5;" width="257" x="324.5" y="610.9531"/><ellipse cx="396.75" cy="626.9531" fill="#ADD1B2" rx="11" ry="11" style="stroke: #A80036; stroke-width: 1.0;"/><path d="M399.0938,622.625 C398.1563,622.1875 397.5625,622.0469 396.6875,622.0469 C394.0625,622.0469 392.0625,624.125 392.0625,626.8438 L392.0625,627.9688 C392.0625,630.5469 394.1719,632.4375 397.0625,632.4375 C398.2813,632.4375 399.4375,632.1406 400.1875,631.5938 C400.7656,631.1875 401.0938,630.7344 401.0938,630.3438 C401.0938,629.8906 400.7031,629.5 400.2344,629.5 C400.0156,629.5 399.8125,629.5781 399.625,629.7656 C399.1719,630.25 399.1719,630.25 398.9844,630.3438 C398.5625,630.6094 397.875,630.7344 397.1094,630.7344 C395.0625,630.7344 393.7656,629.6406 393.7656,627.9375 L393.7656,626.8438 C393.7656,625.0625 395.0156,623.75 396.75,623.75 C397.3281,623.75 397.9375,623.9063 398.4063,624.1563 C398.8906,624.4375 399.0625,624.6563 399.1563,625.0625 C399.2188,625.4688 399.25,625.5938 399.3906,625.7188 C399.5313,625.8594 399.7656,625.9688 399.9844,625.9688 C400.25,625.9688 400.5156,625.8281 400.6875,625.6094 C400.7969,625.4531 400.8281,625.2656 400.8281,624.8438 L400.8281,623.4219 C400.8281,622.9844 400.8125,622.8594 400.7188,622.7031 C400.5625,622.4375 400.2813,622.2969 399.9844,622.2969 C399.6875,622.2969 399.4844,622.3906 399.2656,622.7031 L399.0938,622.625 Z "/><text fill="#000000" font-family="sans-serif" font-size="12" lengthAdjust="spacingAndGlyphs" textLength="104" x="417.25" y="631.1074">ReStructuredText</text><line style="stroke: #A80036; stroke-width: 1.5;" x1="325.5" x2="580.5" y1="642.9531" y2="642.9531"/><line style="stroke: #A80036; stroke-width: 1.5;" x1="325.5" x2="580.5" y1="650.9531" y2="650.9531"/><ellipse cx="335.5" cy="661.9531" fill="#84BE84" rx="3" ry="3" style="stroke: #038048; stroke-width: 1.0;"/><text fill="#000000" font-family="sans-serif" font-size="11" lengthAdjust="spacingAndGlyphs" textLength="84" x="344.5" y="665.1636">__enter__(self)</text><ellipse cx="335.5" cy="674.7578" fill="#84BE84" rx="3" ry="3" style="stroke: #038048; stroke-width: 1.0;"/><text fill="#000000" font-family="sans-serif" font-size="11" lengthAdjust="spacingAndGlyphs" textLength="231" x="344.5" y="677.9683">__exit__(self, exc_type, exc_val, exc_tb)</text><ellipse cx="335.5" cy="687.5625" fill="#84BE84" rx="3" ry="3" style="stroke: #038048; stroke-width: 1.0;"/><text fill="#000000" font-family="sans-serif" font-size="11" lengthAdjust="spacingAndGlyphs" textLength="93" x="344.5" y="690.7729">print(self, result)</text><ellipse cx="335.5" cy="700.3672" fill="#84BE84" rx="3" ry="3" style="stroke: #038048; stroke-width: 1.0;"/><text fill="#000000" font-family="sans-serif" font-size="11" lengthAdjust="spacingAndGlyphs" textLength="129" x="344.5" y="703.5776">result(self, title, result)</text></a><!--MD5=[ad472f876b41c377ab9c2f7fd723b528]
class benchmarkstt.output.core.SimpleTextBase--><a href="https://benchmarkstt.readthedocs.io/en/latest/modules/benchmarkstt.output.html#benchmarkstt.output.core.SimpleTextBase" target="_top" title="https://benchmarkstt.readthedocs.io/en/latest/modules/benchmarkstt.output.html#benchmarkstt.output.core.SimpleTextBase" xlink:actuate="onRequest" xlink:href="https://benchmarkstt.readthedocs.io/en/latest/modules/benchmarkstt.output.html#benchmarkstt.output.core.SimpleTextBase" xlink:show="new" xlink:title="https://benchmarkstt.readthedocs.io/en/latest/modules/benchmarkstt.output.html#benchmarkstt.output.core.SimpleTextBase" xlink:type="simple"><rect codeLine="25" fill="#FEFECE" filter="url(#f18m9ic34l5rms)" height="99.2188" id="benchmarkstt.output.core.SimpleTextBase" style="stroke: #A80036; stroke-width: 1.5;" width="257" x="32.5" y="329.9531"/><ellipse cx="108.25" cy="345.9531" fill="#ADD1B2" rx="11" ry="11" style="stroke: #A80036; stroke-width: 1.0;"/><path d="M110.5938,341.625 C109.6563,341.1875 109.0625,341.0469 108.1875,341.0469 C105.5625,341.0469 103.5625,343.125 103.5625,345.8438 L103.5625,346.9688 C103.5625,349.5469 105.6719,351.4375 108.5625,351.4375 C109.7813,351.4375 110.9375,351.1406 111.6875,350.5938 C112.2656,350.1875 112.5938,349.7344 112.5938,349.3438 C112.5938,348.8906 112.2031,348.5 111.7344,348.5 C111.5156,348.5 111.3125,348.5781 111.125,348.7656 C110.6719,349.25 110.6719,349.25 110.4844,349.3438 C110.0625,349.6094 109.375,349.7344 108.6094,349.7344 C106.5625,349.7344 105.2656,348.6406 105.2656,346.9375 L105.2656,345.8438 C105.2656,344.0625 106.5156,342.75 108.25,342.75 C108.8281,342.75 109.4375,342.9063 109.9063,343.1563 C110.3906,343.4375 110.5625,343.6563 110.6563,344.0625 C110.7188,344.4688 110.75,344.5938 110.8906,344.7188 C111.0313,344.8594 111.2656,344.9688 111.4844,344.9688 C111.75,344.9688 112.0156,344.8281 112.1875,344.6094 C112.2969,344.4531 112.3281,344.2656 112.3281,343.8438 L112.3281,342.4219 C112.3281,341.9844 112.3125,341.8594 112.2188,341.7031 C112.0625,341.4375 111.7813,341.2969 111.4844,341.2969 C111.1875,341.2969 110.9844,341.3906 110.7656,341.7031 L110.5938,341.625 Z "/><text fill="#000000" font-family="sans-serif" font-size="12" lengthAdjust="spacingAndGlyphs" textLength="97" x="128.75" y="350.1074">SimpleTextBase</text><line style="stroke: #A80036; stroke-width: 1.5;" x1="33.5" x2="288.5" y1="361.9531" y2="361.9531"/><line style="stroke: #A80036; stroke-width: 1.5;" x1="33.5" x2="288.5" y1="369.9531" y2="369.9531"/><ellipse cx="43.5" cy="380.9531" fill="#84BE84" rx="3" ry="3" style="stroke: #038048; stroke-width: 1.0;"/><text fill="#000000" font-family="sans-serif" font-size="11" lengthAdjust="spacingAndGlyphs" textLength="84" x="52.5" y="384.1636">__enter__(self)</text><ellipse cx="43.5" cy="393.7578" fill="#84BE84" rx="3" ry="3" style="stroke: #038048; stroke-width: 1.0;"/><text fill="#000000" font-family="sans-serif" font-size="11" lengthAdjust="spacingAndGlyphs" textLength="231" x="52.5" y="396.9683">__exit__(self, exc_type, exc_val, exc_tb)</text><ellipse cx="43.5" cy="406.5625" fill="#84BE84" rx="3" ry="3" style="stroke: #038048; stroke-width: 1.0;"/><text fill="#000000" font-family="sans-serif" font-size="11" lengthAdjust="spacingAndGlyphs" textLength="93" x="52.5" y="409.7729">print(self, result)</text><ellipse cx="43.5" cy="419.3672" fill="#84BE84" rx="3" ry="3" style="stroke: #038048; stroke-width: 1.0;"/><text fill="#000000" font-family="sans-serif" font-size="11" lengthAdjust="spacingAndGlyphs" textLength="129" x="52.5" y="422.5776">result(self, title, result)</text></a><!--MD5=[b4ba39b199d1ae7f900ea69508af4a3d]
reverse link benchmarkstt.output.Base to benchmarkstt.output.core.Json--><path codeLine="32" d="M360.518,166.6771 C381.961,215.7791 411.758,284.0121 431.676,329.6221 " fill="none" id="benchmarkstt.output.Base&lt;-benchmarkstt.output.core.Json" style="stroke: #A80036; stroke-width: 1.0;"/><polygon fill="none" points="354.052,169.3621,352.463,148.2321,366.882,163.7591,354.052,169.3621" style="stroke: #A80036; stroke-width: 1.0;"/><!--MD5=[649e8d6b5a19579f64f6ff55d9b80603]
reverse link benchmarkstt.output.core.SimpleTextBase to benchmarkstt.output.core.MarkDown--><path codeLine="33" d="M161,449.0961 C161,499.3111 161,566.2041 161,610.9451 " fill="none" id="benchmarkstt.output.core.SimpleTextBase&lt;-benchmarkstt.output.core.MarkDown" style="stroke: #A80036; stroke-width: 1.0;"/><polygon fill="none" points="154,449.0511,161,429.0511,168,449.0511,154,449.0511" style="stroke: #A80036; stroke-width: 1.0;"/><!--MD5=[0064dcd89a9c0ed1362beefa7e7418bc]
reverse link benchmarkstt.output.core.SimpleTextBase to benchmarkstt.output.core.ReStructuredText--><path codeLine="34" d="M226.608,443.1401 C279.746,493.9121 353.528,564.4101 402.231,610.9451 " fill="none" id="benchmarkstt.output.core.SimpleTextBase&lt;-benchmarkstt.output.core.ReStructuredText" style="stroke: #A80036; stroke-width: 1.0;"/><polygon fill="none" points="221.487,447.9291,211.863,429.0511,231.159,437.8071,221.487,447.9291" style="stroke: #A80036; stroke-width: 1.0;"/><!--MD5=[ec4fe02a8646f37173536f5ee390896c]
reverse link benchmarkstt.output.Base to benchmarkstt.output.core.SimpleTextBase--><path codeLine="35" d="M296.273,165.3781 C265.043,214.5701 221.213,283.6091 192.001,329.6221 " fill="none" id="benchmarkstt.output.Base&lt;-benchmarkstt.output.core.SimpleTextBase" style="stroke: #A80036; stroke-width: 1.0;"/><polygon fill="none" points="290.529,161.3651,307.159,148.2321,302.349,168.8691,290.529,161.3651" style="stroke: #A80036; stroke-width: 1.0;"/><!--MD5=[1378f21dcd2b7f817f5b763627570d75]
@startuml
title Output
		class benchmarkstt.output.Base [[https://benchmarkstt.readthedocs.io/en/latest/modules/benchmarkstt.output.html#benchmarkstt.output.Base]] {
			+__enter__(self)
			+__exit__(self, exc_type, exc_val, exc_tb)
			+result(self, title, result)
		}
		class benchmarkstt.output.core.Json [[https://benchmarkstt.readthedocs.io/en/latest/modules/benchmarkstt.output.html#benchmarkstt.output.core.Json]] {
			+__enter__(self)
			+__exit__(self, exc_type, exc_val, exc_tb)
			+__init__(self)
			+result(self, title, result)
		}
		class benchmarkstt.output.core.MarkDown [[https://benchmarkstt.readthedocs.io/en/latest/modules/benchmarkstt.output.html#benchmarkstt.output.core.MarkDown]] {
			+__enter__(self)
			+__exit__(self, exc_type, exc_val, exc_tb)
			+print(self, result)
			+result(self, title, result)
		}
		class benchmarkstt.output.core.ReStructuredText [[https://benchmarkstt.readthedocs.io/en/latest/modules/benchmarkstt.output.html#benchmarkstt.output.core.ReStructuredText]] {
			+__enter__(self)
			+__exit__(self, exc_type, exc_val, exc_tb)
			+print(self, result)
			+result(self, title, result)
		}
		class benchmarkstt.output.core.SimpleTextBase [[https://benchmarkstt.readthedocs.io/en/latest/modules/benchmarkstt.output.html#benchmarkstt.output.core.SimpleTextBase]] {
			+__enter__(self)
			+__exit__(self, exc_type, exc_val, exc_tb)
			+print(self, result)
			+result(self, title, result)
		}

benchmarkstt.output.core.Json - -up- -|> benchmarkstt.output.Base
benchmarkstt.output.core.MarkDown - -up- -|> benchmarkstt.output.core.SimpleTextBase
benchmarkstt.output.core.ReStructuredText - -up- -|> benchmarkstt.output.core.SimpleTextBase
benchmarkstt.output.core.SimpleTextBase - -up- -|> benchmarkstt.output.Base
@enduml

PlantUML version 1.2020.16beta7(Unknown compile time)
(GPL source distribution)
Java Runtime: Java(TM) SE Runtime Environment
JVM: Java HotSpot(TM) 64-Bit Server VM
Default Encoding: UTF-8
Language: en
Country: US
--></g></svg>