<?xml version="1.0" encoding="UTF-8" standalone="no"?><svg xmlns="http://www.w3.org/2000/svg" xmlns:xlink="http://www.w3.org/1999/xlink" contentScriptType="application/ecmascript" contentStyleType="text/css" height="406px" preserveAspectRatio="none" style="width:434px;height:406px;" version="1.1" viewBox="0 0 434 406" width="434px" zoomAndPan="magnify"><defs><filter height="300%" id="f7e94v76x2bvb" width="300%" x="-1" y="-1"><feGaussianBlur result="blurOut" stdDeviation="2.0"/><feColorMatrix in="blurOut" result="blurOut2" type="matrix" values="0 0 0 0 0 0 0 0 0 0 0 0 0 0 0 0 0 0 .4 0"/><feOffset dx="4.0" dy="4.0" in="blurOut2" result="blurOut3"/><feBlend in="SourceGraphic" in2="blurOut3" mode="normal"/></filter></defs><g><text fill="#000000" font-family="sans-serif" font-size="18" lengthAdjust="spacingAndGlyphs" textLength="129" x="143.5" y="16.708">Segmentation</text><!--MD5=[65eb5fcee437765d99707c9196661bb6]
cluster benchmarkstt.segmentation--><polygon fill="#FFFFFF" filter="url(#f7e94v76x2bvb)" points="90,26.9531,328,26.9531,335,49.25,338,49.25,338,138.9531,90,138.9531,90,26.9531" style="stroke: #000000; stroke-width: 1.5;"/><line style="stroke: #000000; stroke-width: 1.5;" x1="90" x2="335" y1="49.25" y2="49.25"/><text fill="#000000" font-family="sans-serif" font-size="14" font-weight="bold" lengthAdjust="spacingAndGlyphs" textLength="232" x="94" y="41.9482">benchmarkstt.segmentation</text><!--MD5=[bbd7f55af96c8522598147a787b5c5b9]
cluster benchmarkstt.segmentation.core--><polygon fill="#FFFFFF" filter="url(#f7e94v76x2bvb)" points="16,269.9531,294,269.9531,301,292.25,412,292.25,412,394.9531,16,394.9531,16,269.9531" style="stroke: #000000; stroke-width: 1.5;"/><line style="stroke: #000000; stroke-width: 1.5;" x1="16" x2="301" y1="292.25" y2="292.25"/><text fill="#000000" font-family="sans-serif" font-size="14" font-weight="bold" lengthAdjust="spacingAndGlyphs" textLength="272" x="20" y="284.9482">benchmarkstt.segmentation.core</text><!--MD5=[002c34d32132957f7ddeee40910e80d3]
class benchmarkstt.segmentation.Base--><rect codeLine="2" fill="#FEFECE" filter="url(#f7e94v76x2bvb)" height="60.8047" id="benchmarkstt.segmentation.Base" style="stroke: #A80036; stroke-width: 1.5;" width="98" x="165" y="61.9531"/><ellipse cx="196.2" cy="77.9531" fill="#ADD1B2" rx="11" ry="11" style="stroke: #A80036; stroke-width: 1.0;"/><path d="M198.5438,73.625 C197.6063,73.1875 197.0125,73.0469 196.1375,73.0469 C193.5125,73.0469 191.5125,75.125 191.5125,77.8438 L191.5125,78.9688 C191.5125,81.5469 193.6219,83.4375 196.5125,83.4375 C197.7313,83.4375 198.8875,83.1406 199.6375,82.5938 C200.2156,82.1875 200.5438,81.7344 200.5438,81.3438 C200.5438,80.8906 200.1531,80.5 199.6844,80.5 C199.4656,80.5 199.2625,80.5781 199.075,80.7656 C198.6219,81.25 198.6219,81.25 198.4344,81.3438 C198.0125,81.6094 197.325,81.7344 196.5594,81.7344 C194.5125,81.7344 193.2156,80.6406 193.2156,78.9375 L193.2156,77.8438 C193.2156,76.0625 194.4656,74.75 196.2,74.75 C196.7781,74.75 197.3875,74.9063 197.8563,75.1563 C198.3406,75.4375 198.5125,75.6563 198.6063,76.0625 C198.6688,76.4688 198.7,76.5938 198.8406,76.7188 C198.9813,76.8594 199.2156,76.9688 199.4344,76.9688 C199.7,76.9688 199.9656,76.8281 200.1375,76.6094 C200.2469,76.4531 200.2781,76.2656 200.2781,75.8438 L200.2781,74.4219 C200.2781,73.9844 200.2625,73.8594 200.1688,73.7031 C200.0125,73.4375 199.7313,73.2969 199.4344,73.2969 C199.1375,73.2969 198.9344,73.3906 198.7156,73.7031 L198.5438,73.625 Z "/><text fill="#000000" font-family="sans-serif" font-size="12" lengthAdjust="spacingAndGlyphs" textLength="30" x="213.8" y="82.1074">Base</text><line style="stroke: #A80036; stroke-width: 1.5;" x1="166" x2="262" y1="93.9531" y2="93.9531"/><line style="stroke: #A80036; stroke-width: 1.5;" x1="166" x2="262" y1="101.9531" y2="101.9531"/><ellipse cx="176" cy="112.9531" fill="#84BE84" rx="3" ry="3" style="stroke: #038048; stroke-width: 1.0;"/><text fill="#000000" font-family="sans-serif" font-size="11" lengthAdjust="spacingAndGlyphs" textLength="72" x="185" y="116.1636">__iter__(self)</text><!--MD5=[e6682fb9f1ffb38935fc3ffe4e96004d]
class benchmarkstt.segmentation.core.Simple--><rect codeLine="5" fill="#FEFECE" filter="url(#f7e94v76x2bvb)" height="73.6094" id="benchmarkstt.segmentation.core.Simple" style="stroke: #A80036; stroke-width: 1.5;" width="363" x="32.5" y="304.9531"/><ellipse cx="189.25" cy="320.9531" fill="#ADD1B2" rx="11" ry="11" style="stroke: #A80036; stroke-width: 1.0;"/><path d="M191.5938,316.625 C190.6563,316.1875 190.0625,316.0469 189.1875,316.0469 C186.5625,316.0469 184.5625,318.125 184.5625,320.8438 L184.5625,321.9688 C184.5625,324.5469 186.6719,326.4375 189.5625,326.4375 C190.7813,326.4375 191.9375,326.1406 192.6875,325.5938 C193.2656,325.1875 193.5938,324.7344 193.5938,324.3438 C193.5938,323.8906 193.2031,323.5 192.7344,323.5 C192.5156,323.5 192.3125,323.5781 192.125,323.7656 C191.6719,324.25 191.6719,324.25 191.4844,324.3438 C191.0625,324.6094 190.375,324.7344 189.6094,324.7344 C187.5625,324.7344 186.2656,323.6406 186.2656,321.9375 L186.2656,320.8438 C186.2656,319.0625 187.5156,317.75 189.25,317.75 C189.8281,317.75 190.4375,317.9063 190.9063,318.1563 C191.3906,318.4375 191.5625,318.6563 191.6563,319.0625 C191.7188,319.4688 191.75,319.5938 191.8906,319.7188 C192.0313,319.8594 192.2656,319.9688 192.4844,319.9688 C192.75,319.9688 193.0156,319.8281 193.1875,319.6094 C193.2969,319.4531 193.3281,319.2656 193.3281,318.8438 L193.3281,317.4219 C193.3281,316.9844 193.3125,316.8594 193.2188,316.7031 C193.0625,316.4375 192.7813,316.2969 192.4844,316.2969 C192.1875,316.2969 191.9844,316.3906 191.7656,316.7031 L191.5938,316.625 Z "/><text fill="#000000" font-family="sans-serif" font-size="12" lengthAdjust="spacingAndGlyphs" textLength="41" x="209.75" y="325.1074">Simple</text><line style="stroke: #A80036; stroke-width: 1.5;" x1="33.5" x2="394.5" y1="336.9531" y2="336.9531"/><line style="stroke: #A80036; stroke-width: 1.5;" x1="33.5" x2="394.5" y1="344.9531" y2="344.9531"/><ellipse cx="43.5" cy="355.9531" fill="#84BE84" rx="3" ry="3" style="stroke: #038048; stroke-width: 1.0;"/><text fill="#000000" font-family="sans-serif" font-size="11" lengthAdjust="spacingAndGlyphs" textLength="337" x="52.5" y="359.1636">__init__(self, text: str, pattern='[\n\t\s]+', normalizer=None)</text><ellipse cx="43.5" cy="368.7578" fill="#84BE84" rx="3" ry="3" style="stroke: #038048; stroke-width: 1.0;"/><text fill="#000000" font-family="sans-serif" font-size="11" lengthAdjust="spacingAndGlyphs" textLength="72" x="52.5" y="371.9683">__iter__(self)</text><!--MD5=[ec6170c354b4ffc3f1d5dae0d39c7b48]
reverse link benchmarkstt.segmentation.Base to benchmarkstt.segmentation.core.Simple--><path codeLine="10" d="M214,143.4331 C214,191.1681 214,261.9661 214,304.5691 " fill="none" id="benchmarkstt.segmentation.Base&lt;-benchmarkstt.segmentation.core.Simple" style="stroke: #A80036; stroke-width: 1.0;"/><polygon fill="none" points="207,143.3071,214,123.3071,221,143.3071,207,143.3071" style="stroke: #A80036; stroke-width: 1.0;"/><!--MD5=[0c7c907d6f375ce8ab8b86d97e8198c8]
@startuml
title Segmentation
		class benchmarkstt.segmentation.Base {
			+__iter__(self)
		}
		class benchmarkstt.segmentation.core.Simple {
			+__init__(self, text: str, pattern='[\\n\\t\\s]+', normalizer=None)
			+__iter__(self)
		}

benchmarkstt.segmentation.core.Simple - -up- -|> benchmarkstt.segmentation.Base
@enduml

PlantUML version 1.2020.16beta7(Unknown compile time)
(GPL source distribution)
Java Runtime: Java(TM) SE Runtime Environment
JVM: Java HotSpot(TM) 64-Bit Server VM
Default Encoding: UTF-8
Language: en
Country: US
--></g></svg>